<svg width="494" height="174" viewBox="0 0 494 174" fill="none" xmlns="http://www.w3.org/2000/svg">
<path d="M395.635 0.459534C399.306 6.18003 402.387 12.267 405.834 18.1241C412.977 30.7515 420.144 43.3539 427.281 55.9875C406.25 56.0185 385.219 55.9999 364.194 55.9937C374.635 37.4595 385.175 18.9875 395.635 0.459534Z" fill="#1B1B1B"/>
<path d="M-0.00439453 173.454C6.69747 133.41 13.2627 93.348 20.0577 53.3231C32.9521 53.3914 45.8527 53.3293 58.7534 53.348C69.6478 53.4039 80.7347 52.8511 91.3869 55.6213C100.107 57.7517 108.573 62.2734 113.952 69.6399C119.977 77.7579 121.797 88.1865 121.648 98.0933C121.468 111.665 117.902 125.062 112.256 137.354C108.014 146.186 102.07 154.329 94.2937 160.379C85.1882 167.54 73.8776 171.516 62.4304 172.801C55.6478 173.646 48.7968 173.429 41.9708 173.454C27.977 173.454 13.9894 173.454 -0.00439453 173.454ZM52.1136 81.3914C48.5484 102.733 45.0018 124.075 41.4428 145.416C48.126 145.298 55.008 145.988 61.4677 143.857C68.6354 141.752 74.536 136.41 77.9894 129.863C82.7037 120.919 84.3496 110.659 84.5236 100.646C84.4118 95.1244 83.4863 88.4536 78.2875 85.3355C70.4801 80.4908 60.8838 81.5405 52.1136 81.3914Z" fill="#1B1B1B"/>
<path d="M139.567 53.3541C151.822 53.3479 164.082 53.3479 176.343 53.3541C171.225 84.0436 166.113 114.733 161.008 145.422C177.846 145.404 194.685 145.429 211.523 145.41C209.958 154.758 208.436 164.118 206.828 173.466C177.741 173.435 148.654 173.46 119.567 173.454C126.213 133.416 132.89 93.3852 139.567 53.3541Z" fill="#1B1B1B"/>
<path d="M236.971 53.3541C266.077 53.3479 295.176 53.3479 324.282 53.3541C322.747 62.6896 321.157 72.0125 319.629 81.3479C302.785 81.4535 285.94 81.3541 269.089 81.4038C267.89 88.6771 266.667 95.9504 265.455 103.224C278.859 103.218 292.263 103.28 305.667 103.193C304.213 112.553 302.549 121.882 301.046 131.242C287.629 131.273 274.207 131.236 260.791 131.261C258.455 145.323 256.089 159.385 253.772 173.454C241.505 173.447 229.244 173.46 216.977 173.447C223.642 133.416 230.337 93.3914 236.971 53.3541Z" fill="#1B1B1B"/>
<path d="M366.654 60.2173C386.045 60.2048 405.437 60.2235 424.828 60.2111C415.151 77.3291 405.424 94.416 395.754 111.534C386.014 94.4533 376.331 77.3353 366.654 60.2173Z" fill="#1B1B1B"/>
<path d="M331.554 113.578C341.679 95.8013 351.734 77.9814 361.852 60.1988C371.97 77.9938 382.045 95.8199 392.169 113.615C371.964 113.596 351.759 113.665 331.554 113.578Z" fill="#1B1B1B"/>
<path d="M399.219 113.596C409.337 95.8137 419.393 77.9876 429.517 60.1988C439.629 78 449.729 95.8075 459.822 113.621C439.617 113.596 419.418 113.652 399.219 113.596Z" fill="#1B1B1B"/>
<path d="M329.182 117.795C339.778 136.298 350.25 154.882 360.759 173.435C339.722 173.447 318.691 173.447 297.66 173.435C308.151 154.876 318.691 136.354 329.182 117.795Z" fill="#1B1B1B"/>
<path d="M334.026 117.826C353.424 117.857 372.821 117.826 392.219 117.838C382.703 134.683 373.107 151.484 363.616 168.341C363.325 169.453 362.542 168.403 362.387 167.907C352.977 151.186 343.461 134.528 334.026 117.826Z" fill="#1B1B1B"/>
<path d="M399.269 117.844C418.661 117.832 438.058 117.838 457.456 117.838C447.76 134.95 438.058 152.056 428.356 169.167C418.667 152.056 408.952 134.956 399.269 117.844Z" fill="#1B1B1B"/>
<path d="M462.158 117.876C467.362 126.385 472.033 135.224 477.046 143.851C482.63 153.721 488.226 163.578 493.822 173.435C472.779 173.441 451.735 173.46 430.698 173.429C441.17 154.901 451.71 136.416 462.158 117.876Z" fill="#1B1B1B"/>
<path d="M395.753 119.988C406.008 137.708 415.946 155.621 426.033 173.441C405.865 173.447 385.698 173.441 365.536 173.441C375.579 155.609 385.76 137.851 395.753 119.988Z" fill="#1B1B1B"/>
</svg>
