<svg width="26" height="132" viewBox="0 0 26 132" fill="none" xmlns="http://www.w3.org/2000/svg">
<path d="M12.6887 109.85L19.0203 120.835L25.3519 131.82H12.6887H0L6.33171 120.835L12.6887 109.85Z" fill="#19223F"/>
<path d="M12.6887 87.8789L19.0203 98.8639L25.3519 109.849H12.6887H0L6.33171 98.8639L12.6887 87.8789Z" fill="#19223F"/>
<path d="M12.6887 65.9102L19.0203 76.8951L25.3519 87.8801H12.6887H0L6.33171 76.8951L12.6887 65.9102Z" fill="#19223F"/>
<path d="M12.6887 43.9395L19.0203 54.9244L25.3519 65.9094H12.6887H0L6.33171 54.9244L12.6887 43.9395Z" fill="#19223F"/>
<path d="M12.6887 21.9707L19.0203 32.9557L25.3519 43.9406H12.6887H0L6.33171 32.9557L12.6887 21.9707Z" fill="#19223F"/>
<path d="M12.6887 0L19.0203 10.985L25.3519 21.9699H12.6887H0L6.33171 10.985L12.6887 0Z" fill="#19223F"/>
</svg>
