<svg width="25" height="24" viewBox="0 0 25 24" fill="none" xmlns="http://www.w3.org/2000/svg">
<g id="vuesax/linear/attach-square">
<g id="attach-square">
<g id="Group">
<path id="Vector" d="M12.6989 11.8002L11.2889 13.2102C10.5089 13.9902 10.5089 15.2602 11.2889 16.0402C12.0689 16.8202 13.3389 16.8202 14.1189 16.0402L16.3389 13.8202C17.8989 12.2602 17.8989 9.73023 16.3389 8.16023C14.7789 6.60023 12.2489 6.60023 10.6789 8.16023L8.25891 10.5802C6.91891 11.9202 6.91891 14.0902 8.25891 15.4302" stroke="#051328" stroke-width="1.5" stroke-linecap="round" stroke-linejoin="round"/>
</g>
<path id="Vector_2" d="M9.5 22H15.5C20.5 22 22.5 20 22.5 15V9C22.5 4 20.5 2 15.5 2H9.5C4.5 2 2.5 4 2.5 9V15C2.5 20 4.5 22 9.5 22Z" stroke="#051328" stroke-width="1.5" stroke-linecap="round" stroke-linejoin="round"/>
</g>
</g>
</svg>
