<svg width="41" height="40" viewBox="0 0 41 40" fill="none" xmlns="http://www.w3.org/2000/svg">
<rect width="40" height="40" transform="translate(0.5)" fill="white"/>
<path d="M20.0999 27.63C20.1012 28.0567 20.1098 28.4811 20.1149 28.9071C20.0623 28.8907 20.0097 28.8859 19.9575 28.8642C19.7489 28.7781 19.6097 28.6676 19.5655 28.5527C19.4705 28.3039 19.1949 28.184 18.9516 28.2782C18.3277 28.5273 18.6901 29.6366 20.1267 29.9142C20.1299 30.0869 20.1289 30.2614 20.1328 30.4338C20.1387 30.697 20.3498 30.9055 20.6066 30.9055C20.6103 30.9055 20.614 30.9055 20.6177 30.9055C20.8794 30.8992 21.0868 30.6788 21.0809 30.4124C21.0772 30.2436 21.0782 30.0729 21.075 29.9038C22.2213 29.6592 23.0665 28.5047 22.3763 27.6162C21.9397 27.0536 21.5972 26.9602 21.0499 26.8423C21.0507 26.5141 21.056 26.1876 21.0591 25.8599C21.3014 25.983 21.5096 26.1824 21.6325 26.4316C21.7498 26.6703 22.0349 26.7664 22.2686 26.647C22.5028 26.5271 22.5973 26.2375 22.48 25.9995C22.1999 25.4307 21.6667 25.0095 21.0685 24.8471C21.0714 24.6689 21.07 24.489 21.0735 24.3111C21.0788 24.0448 20.8708 23.8244 20.609 23.8187C20.3606 23.7873 20.1306 24.0254 20.1254 24.291C20.1219 24.466 20.1233 24.6432 20.1205 24.8186C18.9157 25.0572 18.2924 26.0743 18.6581 26.8241C18.9331 27.3857 19.531 27.5129 20.0999 27.63ZM21.6325 28.2141C21.6701 28.2625 21.7016 28.3196 21.6414 28.4358C21.5329 28.6451 21.3179 28.8179 21.0633 28.9138C21.059 28.5515 21.0522 28.1904 21.0505 27.8275C21.0763 27.834 21.1025 27.8373 21.1282 27.8442C21.3297 27.8976 21.4615 27.9943 21.6325 28.2141ZM19.6739 26.0729C19.7982 25.9525 19.95 25.8665 20.1112 25.8082C20.1085 26.0874 20.1044 26.3656 20.1034 26.6452C19.8874 26.5987 19.5696 26.5215 19.5069 26.3939C19.4664 26.3065 19.6022 26.1426 19.6739 26.0729ZM6.28641 34.6571C6.2537 34.9215 6.43795 35.1627 6.69783 35.196C6.96029 35.2289 7.19496 35.0397 7.22714 34.7777C7.37683 33.5642 7.32405 32.3438 7.06973 31.1492C7.01418 30.8898 6.76233 30.7265 6.50616 30.7799C6.2503 30.8364 6.08765 31.0933 6.14321 31.354C6.37437 32.4412 6.42283 33.5523 6.28641 34.6571ZM34.5597 22.4953C34.519 22.7585 34.6955 23.006 34.9542 23.0474C35.2237 23.088 35.4568 22.9004 35.4961 22.6461C35.6665 21.5475 35.6057 20.3994 35.3208 19.3266C35.252 19.0684 34.9931 18.9139 34.7394 18.9868C34.4866 19.0559 34.3372 19.3209 34.4054 19.5778C34.656 20.5212 34.7091 21.5299 34.5597 22.4953ZM31.04 5.57699L32.9909 5.33705C33.2508 5.30565 33.436 5.06509 33.4048 4.80066C33.3736 4.53623 33.1403 4.34404 32.8774 4.37984L30.9265 4.61977C30.6666 4.65118 30.4814 4.89173 30.5126 5.15616C30.5444 5.42467 30.7855 5.60987 31.04 5.57699ZM30.9607 1.47428C30.7681 1.29464 30.4678 1.30783 30.291 1.5038L29.1379 2.78448C28.8564 3.09741 29.0821 3.59284 29.4876 3.59284C29.8493 3.59284 29.883 3.3132 30.9897 2.15576C31.1666 1.95916 31.1536 1.65454 30.9607 1.47428ZM27.3932 0.459903L27.325 1.89384C27.3123 2.16015 27.5142 2.38627 27.7756 2.39883C28.0168 2.41771 28.2588 2.2196 28.2719 1.94032L28.3401 0.506382C28.3527 0.240699 28.1512 0.0145851 27.8898 0.00139518C27.6237 -0.019332 27.4058 0.193592 27.3932 0.459903Z" fill="#051328"/>
<path d="M2.69605 17.177C2.66928 18.0997 2.64445 16.4466 2.79894 23.4006C2.72408 23.9013 3.09827 24.2059 3.20948 24.6322C3.11693 37.6379 3.13653 35.1885 3.12284 36.024C3.04576 36.7163 3.07702 37.6445 3.29337 38.235C3.49495 38.7853 3.87401 39.1396 4.47474 39.3992C5.45823 39.8242 5.79759 39.6954 35.6027 39.9621C36.531 39.9704 37.5379 40.3157 37.8761 38.7367C37.8978 38.698 37.9253 38.6653 37.9425 38.6223C38.0469 38.3591 37.9626 37.9744 37.9626 37.8271C38.0814 23.9028 38.1121 24.9963 38.0638 24.8018C38.1777 24.7122 38.2594 24.5756 38.3056 24.4411C38.3514 24.3068 38.3153 24.3262 38.3401 23.705C38.316 18.1002 38.1443 18.6967 38.1319 17.3994C38.125 16.6859 38.1712 16.4296 38.0405 16.1061C38.0166 15.9204 37.8927 15.7706 37.7197 15.7132C37.4821 15.5671 37.2005 15.562 36.9401 15.5656C36.5765 15.5682 35.8641 15.5187 34.808 15.4921C33.2533 15.4501 31.6564 15.4437 30.0578 15.4533L30.0838 14.1492C30.089 13.8825 29.8763 13.66 29.6049 13.6574L29.0767 13.6536C29.069 13.3801 29.0619 13.1064 29.0528 12.8333C28.9717 10.4734 29.0254 10.0585 29.0258 9.93155C29.0512 9.26012 29.0898 8.24449 28.0506 7.85947C27.0269 7.48036 26.0095 7.62579 25.0276 7.63838C15.7842 7.75727 13.4004 7.4039 12.4769 8.88849C11.2529 10.096 12.4323 11.6735 12.2005 13.0882C11.7181 13.0045 11.255 13.384 11.0685 13.8278C10.882 14.278 10.9013 14.7861 10.9334 15.2749C9.36239 15.3261 8.75687 15.3593 7.33479 15.4172C6.58687 15.3918 5.91357 15.3955 4.7652 15.4918C3.78265 15.508 3.24092 15.4576 2.92224 15.7269C2.51217 16.0732 2.70936 16.7197 2.69605 17.177ZM15.6579 14.4664L15.6429 15.2226L12.3014 15.2471L12.3174 14.4419L15.6579 14.4664ZM14.8176 26.9988C15.1564 31.1776 20.4936 33.6617 23.9485 31.3822C25.3513 30.4555 26.2474 28.8 26.3872 27.0765L35.6855 27.1376C35.9063 27.1376 36.03 27 36.1204 26.8907C36.1891 26.8338 36.8533 26.1619 37.1123 25.8833C37.0547 35.2494 36.938 38.1843 37.0463 38.2655C36.8364 38.7805 10.5396 38.294 7.13843 38.1889C6.30555 38.1663 4.98865 38.3162 4.77333 37.6318C4.60947 37.1129 4.74313 36.4592 4.73156 35.809L4.55216 25.8345C4.77898 26.1503 5.006 26.4657 5.23089 26.7827C5.36468 26.9711 5.63068 27.0364 5.83575 26.9391L14.8176 26.9988ZM17.2828 23.0801C19.8548 20.671 24.5192 22.1678 25.3215 25.551C25.7694 27.4384 24.9682 29.552 23.4165 30.577C20.4631 32.5303 15.7018 30.1839 15.7606 26.5358C15.7811 25.2633 16.3642 23.9393 17.2828 23.0801ZM37.108 16.5308C37.4859 21.7087 37.3641 24.0128 37.3641 24.1415C37.2984 24.2179 36.7417 24.9087 35.8701 25.7802C35.8404 25.8106 35.5152 26.1403 35.4801 26.1715L26.3806 26.1117C25.9706 21.435 19.9146 19.2966 16.6236 22.3753C15.6377 23.2979 14.9774 24.665 14.8301 26.0342L5.83984 25.975C3.93406 23.2993 4.03426 23.6151 4.07802 23.0675C4.4021 16.2099 4.20331 17.0664 4.36475 16.6C4.60646 16.2855 30.9676 16.443 37.108 16.5308ZM16.6023 15.5077C16.5893 14.1264 16.7359 13.8996 16.4958 13.6511C16.2895 13.4397 16.0392 13.525 15.7992 13.5028C15.7992 12.9723 15.7992 11.8824 15.7992 11.3172L25.7342 11.112L25.8129 13.6303L25.2949 13.6266C25.0323 13.6266 24.8178 13.8992 24.8125 14.1618L24.785 15.5361C22.1767 15.5966 24.0085 15.5368 16.6023 15.5077ZM29.0942 15.3752L25.7527 15.3991L25.7688 14.5945L29.1093 14.6184L29.0942 15.3752ZM22.6854 8.61632C26.6113 8.61004 26.8901 8.45784 27.7152 8.76393C28.0487 8.88766 28.0908 9.12885 28.0616 9.89512C28.0649 11.0656 27.987 9.31142 28.1112 13.6467L27.052 13.6392C26.9491 10.6136 27.1174 10.7986 26.9273 10.4076C26.5378 9.60522 25.5161 9.83005 24.065 9.80593C22.2625 9.77507 20.403 9.74378 18.4414 9.78521C17.5172 9.80728 15.0901 9.65436 14.5695 10.5031C14.39 10.7963 14.4451 10.9216 14.5199 13.4935L13.3535 13.485C13.2916 11.1529 13.3312 11.4572 13.2234 10.7343C12.8906 8.51565 13.3123 8.66379 22.6854 8.61632Z" fill="#051328"/>
<ellipse cx="20.6325" cy="26.5286" rx="4.97238" ry="4.71514" fill="white"/>
<path d="M21.0038 26.9942C21.2258 26.8084 21.3527 26.5501 21.3844 26.2193L21.0038 26.9942ZM21.0038 26.9942C20.7985 27.1653 20.5286 27.2778 20.1941 27.3318L21.0038 26.9942ZM20.6899 29.5098L20.7061 29.5381H20.7387H21.432H21.5319L21.4801 29.4526L20.2256 27.3836C20.5572 27.327 20.8297 27.2125 21.0398 27.0374L21.0399 27.0373C21.2632 26.8505 21.394 26.5949 21.4347 26.2756H22.268H22.3243V26.2193V25.7844V25.7281H22.268H21.4201C21.3984 25.5835 21.3554 25.4544 21.2904 25.3416C21.2437 25.2607 21.1889 25.1869 21.1258 25.1202H22.268H22.3243V25.0639V24.6289V24.5726H22.268H19.4541H19.3978V24.6289V25.0639V25.1202H19.4541H19.6036C19.8311 25.1202 20.0198 25.1447 20.1713 25.1924L20.1713 25.1924L20.1717 25.1925C20.3266 25.2398 20.4461 25.3141 20.5332 25.4136L20.5332 25.4136L20.534 25.4145C20.6083 25.4959 20.6627 25.5997 20.6957 25.7281H19.4541H19.3978V25.7844V26.2193V26.2756H19.4541H20.7087C20.6858 26.418 20.6356 26.5281 20.5612 26.6096C20.4748 26.7043 20.3536 26.7743 20.1939 26.8175L20.1935 26.8176C20.0368 26.8611 19.8406 26.8835 19.6036 26.8835H19.4541H19.3978V26.9398V27.2389V27.2538L19.4053 27.2668L20.6899 29.5098Z" fill="#051328" stroke="#051328" stroke-width="0.112555"/>
</svg>
