<svg width="1440" height="352" viewBox="0 0 1440 352" fill="none" xmlns="http://www.w3.org/2000/svg">
<g clip-path="url(#clip0_1714_44250)">
<rect width="1440" height="352" fill="#FFF5E0"/>
<path fill-rule="evenodd" clip-rule="evenodd" d="M1098.46 82.1782C1069.88 155.353 1173.8 138.308 1173.1 213.954C1172.37 291.652 972.053 370.243 1014 428.207C1055.54 485.612 1261.72 466.233 1333.18 470.915C1391.62 474.743 1440.18 525.057 1498.67 505.502C1559.58 485.139 1598.16 420.611 1641.45 367.853C1693.31 304.657 1771.48 247.458 1775.09 168.653C1778.7 89.7218 1701.85 48.4597 1658.75 -9.61949C1614.8 -68.8403 1592.81 -159.347 1520.69 -174.139C1448.55 -188.935 1377.43 -121.013 1306.96 -81.7747C1241.43 -45.2849 1148.5 -16.001 1098.46 82.1782Z" fill="#FECD5A"/>
<path fill-rule="evenodd" clip-rule="evenodd" d="M1089.37 74.1399C1060.8 147.315 1179.71 122.354 1179 198C1178.27 275.698 981.056 338.939 1023 396.902C1064.55 454.307 1255.78 450.87 1327.23 455.552C1385.67 459.38 1434.23 509.694 1492.73 490.139C1553.64 469.775 1592.22 405.248 1635.51 352.49C1687.37 289.294 1765.53 232.095 1769.15 153.29C1772.76 74.3587 1695.91 33.0966 1652.81 -24.9826C1608.86 -84.2034 1586.87 -174.71 1514.75 -189.502C1442.61 -204.299 1371.49 -136.376 1301.02 -97.1378C1235.49 -60.648 1117.55 1.99632 1089.37 74.1399Z" stroke="#64748B"/>
<mask id="mask0_1714_44250" style="mask-type:alpha" maskUnits="userSpaceOnUse" x="-42" y="291" width="148" height="91">
<path fill-rule="evenodd" clip-rule="evenodd" d="M22.846 380.6V291H23.846V380.6H22.846ZM18.2855 381.067L18.2855 291.467L19.2855 291.467L19.2855 381.067H18.2855ZM-42 291.933L-42 381.533H-41L-41 291.933L-42 291.933ZM-36.7195 291.933L-36.7195 381.533H-35.7195L-35.7195 291.933L-36.7195 291.933ZM1.12392 381.533L1.12392 291.933L2.12392 291.933L2.12392 381.533H1.12392ZM6.84444 291.933L6.84443 381.533H7.84443L7.84444 291.933L6.84444 291.933ZM12.565 291.933L12.565 381.533H13.565L13.565 291.933L12.565 291.933ZM28.8464 291.933V381.533H29.8464V291.933L28.8464 291.933ZM-30.559 381.533L-30.559 291.933L-29.559 291.933L-29.559 381.533H-30.559ZM-24.3984 291.933L-24.3984 381.533H-23.3984L-23.3984 291.933L-24.3984 291.933ZM-19.1179 381.533L-19.1179 291.933L-18.1179 291.933L-18.1179 381.533H-19.1179ZM-12.9574 291.933L-12.9574 381.533H-11.9574L-11.9574 291.933L-12.9574 291.933ZM-8.55696 381.533L-8.55696 291.933L-7.55696 291.933L-7.55696 381.533H-8.55696ZM-3.27648 291.933L-3.27648 381.533H-2.27648L-2.27648 291.933L-3.27648 291.933ZM33.6869 381.533L33.6869 291.933L34.6869 291.933L34.6869 381.533H33.6869ZM38.9674 291.933V381.533H39.9674V291.933L38.9674 291.933ZM76.8108 381.533V291.933L77.8108 291.933V381.533H76.8108ZM82.5313 291.933V381.533H83.5313V291.933L82.5313 291.933ZM93.9724 381.067V291.467L94.9724 291.467V381.067H93.9724ZM88.2519 291.933L88.2518 381.533H89.2518L89.2519 291.933L88.2519 291.933ZM98.5328 380.6V291H99.5328V380.6H98.5328ZM104.533 291.933V381.533H105.533V291.933L104.533 291.933ZM45.1279 381.533L45.1279 291.933L46.1279 291.933L46.1279 381.533H45.1279ZM51.2885 291.933V381.533H52.2885V291.933L51.2885 291.933ZM56.569 381.533V291.933L57.569 291.933V381.533H56.569ZM62.7295 291.933V381.533H63.7295V291.933L62.7295 291.933ZM67.1299 381.533V291.933L68.1299 291.933V381.533H67.1299ZM72.4104 291.933V381.533H73.4104V291.933L72.4104 291.933Z" fill="black"/>
</mask>
<g mask="url(#mask0_1714_44250)">
<circle cx="39.8" cy="336.8" r="44.8" fill="#fedc60"/>
</g>
<mask id="mask1_1714_44250" style="mask-type:alpha" maskUnits="userSpaceOnUse" x="891" y="-45" width="148" height="91">
<path fill-rule="evenodd" clip-rule="evenodd" d="M955.846 44.6V-45H956.846V44.6H955.846ZM951.285 45.0667L951.285 -44.5333L952.285 -44.5333L952.285 45.0667H951.285ZM891 -44.0667L891 45.5333H892L892 -44.0667L891 -44.0667ZM896.28 -44.0667L896.28 45.5333H897.28L897.28 -44.0667L896.28 -44.0667ZM934.124 45.5333L934.124 -44.0667L935.124 -44.0667L935.124 45.5333H934.124ZM939.844 -44.0667L939.844 45.5333H940.844L940.844 -44.0667L939.844 -44.0667ZM945.565 -44.0667L945.565 45.5333H946.565L946.565 -44.0667L945.565 -44.0667ZM961.846 -44.0667V45.5333H962.846V-44.0667L961.846 -44.0667ZM902.441 45.5333L902.441 -44.0667L903.441 -44.0667L903.441 45.5333H902.441ZM908.602 -44.0667L908.602 45.5333H909.602L909.602 -44.0667L908.602 -44.0667ZM913.882 45.5333L913.882 -44.0667L914.882 -44.0667L914.882 45.5333H913.882ZM920.043 -44.0667L920.043 45.5333H921.043L921.043 -44.0667L920.043 -44.0667ZM924.443 45.5333L924.443 -44.0667L925.443 -44.0667L925.443 45.5333H924.443ZM929.724 -44.0667L929.724 45.5333H930.724L930.724 -44.0667L929.724 -44.0667ZM966.687 45.5333L966.687 -44.0667L967.687 -44.0667L967.687 45.5333H966.687ZM971.967 -44.0667V45.5333H972.967V-44.0667L971.967 -44.0667ZM1009.81 45.5333V-44.0667L1010.81 -44.0667V45.5333H1009.81ZM1015.53 -44.0667V45.5333H1016.53V-44.0667L1015.53 -44.0667ZM1026.97 45.0667V-44.5333L1027.97 -44.5333V45.0667H1026.97ZM1021.25 -44.0667L1021.25 45.5333H1022.25L1022.25 -44.0667L1021.25 -44.0667ZM1031.53 44.6V-45H1032.53V44.6H1031.53ZM1037.53 -44.0667V45.5333H1038.53V-44.0667L1037.53 -44.0667ZM978.128 45.5333L978.128 -44.0667L979.128 -44.0667L979.128 45.5333H978.128ZM984.288 -44.0667V45.5333H985.288V-44.0667L984.288 -44.0667ZM989.569 45.5333V-44.0667L990.569 -44.0667V45.5333H989.569ZM995.73 -44.0667V45.5333H996.73V-44.0667L995.73 -44.0667ZM1000.13 45.5333V-44.0667L1001.13 -44.0667V45.5333H1000.13ZM1005.41 -44.0667V45.5333H1006.41V-44.0667L1005.41 -44.0667Z" fill="black"/>
</mask>
<g mask="url(#mask1_1714_44250)">
<circle cx="964.267" cy="-0.200001" r="44.8" fill="#22C55E"/>
</g>
<path d="M32.3109 138.724C32.2407 138.631 32.184 138.512 32.145 138.377C32.106 138.242 32.0857 138.094 32.0857 137.944L32.0857 125.484C32.0856 125.216 32.1495 124.957 32.2635 124.764C37.0877 116.884 41.9672 108.987 46.9021 101.074C49.6461 96.6742 52.153 96.4342 54.9681 100.884C59.4644 107.998 63.9804 115.504 68.5162 123.404C68.6154 123.572 68.6745 123.796 68.6822 124.034C68.7592 126.044 70.2112 144.464 66.1871 137.844C61.2009 129.631 56.1653 121.338 51.0803 112.964C50.9695 112.781 50.8206 112.678 50.6654 112.678C50.5103 112.678 50.3614 112.781 50.2506 112.964C44.9838 121.791 39.6341 130.477 34.2014 139.024C33.6839 139.837 33.0537 139.738 32.3109 138.724Z" fill="#FFE6AD"/>
<path d="M32.5183 107.124C32.3939 107.063 32.2845 106.937 32.2064 106.764C32.1284 106.591 32.0861 106.38 32.0857 106.164L32.0857 93.254C32.0856 93.1187 32.1018 92.985 32.1334 92.8611C32.165 92.7373 32.2113 92.6259 32.2694 92.534C37.7732 83.6407 43.2829 74.7674 48.7986 65.914C49.812 64.284 51.7204 63.804 52.6864 65.194C56.4399 70.554 61.7185 79.2407 68.5222 91.254C68.625 91.4398 68.6822 91.6864 68.6822 91.944L68.6822 105.494C68.6822 105.638 68.6636 105.781 68.6278 105.912C68.592 106.044 68.5398 106.16 68.4747 106.254C67.9769 106.974 67.2124 106.954 66.7086 106.154C61.4656 97.8074 56.2601 89.3974 51.0921 80.924C50.9814 80.7408 50.8324 80.6382 50.6773 80.6382C50.5222 80.6382 50.3732 80.7408 50.2624 80.924C45.1774 89.3307 40.0865 97.7274 34.9897 106.114C34.2982 107.247 33.4745 107.584 32.5183 107.124Z" fill="#FFE6AD"/>
<path d="M62.2878 48.7541C63.7398 51.2141 66.6261 55.5441 68.5344 59.4841C68.6224 59.6585 68.6708 59.8819 68.6707 60.1141C68.6628 64.0874 68.7063 68.0508 68.8011 72.0041C68.8426 73.8941 68.4751 75.3041 67.2128 74.9641C67.0928 74.9313 66.9816 74.8409 66.8927 74.7041L51.1577 49.1341C51.0458 48.9575 50.8979 48.8601 50.7446 48.862C50.5914 48.8638 50.4444 48.9648 50.3339 49.1441L34.9189 74.2441C34.4685 74.9841 33.9312 75.4208 33.3069 75.5541C32.9711 75.6274 32.657 75.3408 32.3646 74.6941C31.7542 73.3341 32.092 63.3441 32.1038 61.3641C32.104 61.2314 32.1203 61.0999 32.1519 60.9777C32.1835 60.8556 32.2297 60.7455 32.2876 60.6541C36.0094 54.6541 39.7254 48.6541 43.4354 42.6541C47.1454 36.6641 50.5177 31.9241 55.2115 37.4441C57.2028 39.7841 60.0772 45.0041 62.2878 48.7541Z" fill="#FFE6AD"/>
<g clip-path="url(#clip1_1714_44250)">
<path d="M1334.51 49.9057C1334.49 50.883 1334.47 51.86 1334.43 52.8378C1334.41 53.3562 1334.39 53.8769 1334.41 54.3948C1334.5 57.1588 1334.64 59.9236 1334.67 62.6899C1334.68 64.393 1334.67 66.0961 1334.64 67.7993L1334.6 70.3538L1334.52 72.9074C1334.5 73.4237 1334.43 73.9367 1334.31 74.4414C1334.28 74.6501 1334.19 74.847 1334.06 75.0158C1333.94 75.1847 1333.77 75.3205 1333.58 75.4123C1333.05 75.6781 1332.51 75.3734 1332.39 74.6824C1332.33 74.2313 1332.32 73.7743 1332.37 73.322C1332.46 72.2895 1332.51 71.2569 1332.52 70.2242C1332.53 69.1915 1332.49 68.1584 1332.41 67.1248C1332.37 66.5543 1332.3 65.9602 1332.38 65.4075C1332.63 63.6415 1332.49 61.8575 1332.6 60.0853C1332.68 58.7679 1332.66 57.4426 1332.69 56.1216L1332.79 52.5878C1332.82 51.4098 1332.87 50.2314 1332.9 49.0528C1332.93 48.5941 1332.98 48.1377 1333.07 47.6865C1333.16 47.2619 1333.27 46.8428 1333.41 46.4311C1333.53 46.0666 1333.79 46.0865 1333.92 46.5061C1334.11 47.1084 1334.26 47.723 1334.37 48.3453C1334.41 48.6008 1334.44 48.86 1334.46 49.1201C1334.46 49.3804 1334.47 49.6416 1334.48 49.9013L1334.51 49.9057Z" fill="#051328"/>
<path d="M1361.95 57.6692L1361.36 58.7714L1360.74 59.8607C1360.52 60.2464 1360.31 60.634 1360.12 61.0365C1359.88 61.5727 1359.64 62.1121 1359.4 62.6523L1358.69 64.2681L1357.26 67.5015L1355.49 71.4782L1353.75 75.4651C1353.56 75.8641 1353.34 76.2489 1353.1 76.6167C1353.01 76.7716 1352.88 76.9024 1352.72 76.9986C1352.57 77.0949 1352.39 77.1539 1352.21 77.171C1351.71 77.229 1351.37 76.8259 1351.49 76.2338C1351.57 75.8506 1351.71 75.48 1351.89 75.1312C1352.67 73.5311 1353.35 71.883 1353.92 70.1966C1354.05 69.7191 1354.23 69.2583 1354.47 68.8229C1355.28 67.5148 1355.8 66.0668 1356.52 64.7194C1357.06 63.7191 1357.53 62.6785 1358.06 61.6742C1359.02 59.8869 1360 58.1104 1361.04 56.3701C1361.43 55.7051 1361.93 55.1093 1362.51 54.6066C1362.77 54.3885 1362.98 54.5275 1362.91 54.8944C1362.8 55.4191 1362.65 55.9357 1362.47 56.441C1362.31 56.8557 1362.13 57.2606 1361.92 57.6537L1361.95 57.6692Z" fill="#051328"/>
<path d="M1379.3 78.0726C1378.66 78.4162 1378.03 78.7571 1377.38 79.0954C1377.04 79.2603 1376.7 79.4458 1376.37 79.6507C1375.52 80.215 1374.67 80.7984 1373.83 81.3815C1372.99 81.9635 1372.14 82.5396 1371.29 83.1016C1370.23 83.796 1369.18 84.4791 1368.12 85.1647L1364.94 87.2038C1364.6 87.3998 1364.25 87.5543 1363.87 87.6641C1363.52 87.7827 1363.14 87.6375 1362.78 87.3596C1362.25 86.9547 1362.05 86.2807 1362.39 85.8652C1362.62 85.6072 1362.9 85.3988 1363.21 85.2533C1364.59 84.5471 1365.88 83.681 1367.06 82.673C1367.39 82.3946 1367.71 82.0753 1368.11 81.9301C1369.39 81.4619 1370.43 80.6173 1371.62 80.0237C1372.51 79.58 1373.35 79.0546 1374.23 78.5942C1375.01 78.1835 1375.79 77.779 1376.58 77.3807L1378.97 76.2333C1379.59 75.9306 1380.28 75.7802 1380.97 75.7946C1381.04 75.7919 1381.11 75.81 1381.17 75.8467C1381.23 75.8834 1381.28 75.937 1381.31 76.0006C1381.34 76.0642 1381.34 76.1349 1381.33 76.2036C1381.32 76.2724 1381.29 76.336 1381.24 76.3864C1380.93 76.7444 1380.6 77.0836 1380.25 77.4023C1379.95 77.639 1379.62 77.8531 1379.29 78.0426L1379.3 78.0726Z" fill="#051328"/>
<path d="M1376.44 99.485C1376.24 99.4958 1376.05 99.5138 1375.85 99.5128L1375.26 99.508C1375.06 99.501 1374.85 99.5113 1374.64 99.5389C1374.1 99.6321 1373.55 99.7463 1373 99.8297C1372.46 99.9195 1371.91 100.006 1371.36 100.073C1370.69 100.155 1370.01 100.226 1369.33 100.275L1367.3 100.421C1367.08 100.422 1366.87 100.382 1366.67 100.305C1366.47 100.241 1366.32 99.9791 1366.22 99.6295C1366.06 99.1202 1366.13 98.5574 1366.39 98.4051C1366.55 98.3177 1366.74 98.2848 1366.93 98.311C1367.76 98.3877 1368.6 98.2995 1369.4 98.0515C1369.62 97.9841 1369.85 97.8783 1370.08 97.9375C1370.8 98.1188 1371.5 97.9251 1372.22 97.9679C1372.75 98.0035 1373.28 97.9289 1373.81 97.949C1374.76 97.9803 1375.71 97.9893 1376.66 98.052C1377.06 98.072 1377.44 98.2133 1377.75 98.4563C1377.78 98.4867 1377.81 98.525 1377.84 98.5683C1377.86 98.6117 1377.87 98.6591 1377.87 98.7072C1377.87 98.7553 1377.86 98.8029 1377.84 98.8468C1377.82 98.8907 1377.79 98.9298 1377.76 98.9612C1377.64 99.0342 1377.53 99.1035 1377.41 99.168C1377.29 99.2338 1377.17 99.2896 1377.05 99.3349C1376.85 99.3947 1376.64 99.436 1376.44 99.4584L1376.44 99.485Z" fill="#051328"/>
<path d="M1311.9 69.0685C1312.19 69.4334 1312.48 69.8005 1312.76 70.17C1312.9 70.3693 1313.06 70.5598 1313.23 70.7405C1313.69 71.2019 1314.16 71.6693 1314.61 72.1458C1315.06 72.6241 1315.49 73.1191 1315.91 73.6307C1316.41 74.2653 1316.9 74.9152 1317.35 75.5845C1317.81 76.2536 1318.25 76.9345 1318.66 77.6274C1318.78 77.8479 1318.87 78.0866 1318.91 78.3336C1318.96 78.5704 1318.81 78.8292 1318.55 79.0776C1318.18 79.4391 1317.65 79.5881 1317.38 79.3824C1317.22 79.2467 1317.09 79.0719 1317.02 78.8748C1316.65 77.9999 1316.1 77.2061 1315.42 76.5398C1315.24 76.3526 1315.01 76.1798 1314.92 75.9354C1314.63 75.1504 1314.02 74.5858 1313.58 73.9007C1313.42 73.6467 1313.24 73.4016 1313.05 73.1666C1312.86 72.9275 1312.67 72.6942 1312.49 72.4527C1311.83 71.5923 1311.17 70.7338 1310.46 69.9051C1310.17 69.5473 1310.01 69.1084 1309.99 68.6531C1309.97 68.436 1310.13 68.2786 1310.41 68.2815L1310.67 68.3123C1310.72 68.315 1310.76 68.3259 1310.79 68.3442L1310.9 68.3898C1311.05 68.4511 1311.18 68.5209 1311.32 68.5988C1311.43 68.6623 1311.53 68.737 1311.62 68.8215C1311.7 68.9095 1311.79 69.0015 1311.88 69.0878L1311.9 69.0685Z" fill="#051328"/>
</g>
<path d="M1380.43 285.275C1380.94 285.372 1381.44 285.545 1381.9 285.768C1382.37 285.993 1382.81 286.268 1383.2 286.61C1383.62 286.967 1384 287.393 1384.32 287.841C1384.75 288.437 1385.09 289.136 1385.2 289.947C1385.26 290.351 1385.26 290.781 1385.18 291.209C1385.09 291.638 1384.93 292.059 1384.71 292.417C1384.27 293.141 1383.68 293.655 1383.08 294.048C1382.47 294.442 1381.8 294.728 1381.1 294.899C1380.24 295.112 1379.34 295.158 1378.45 295.023C1378.01 294.957 1377.55 294.842 1377.12 294.669C1376.68 294.494 1376.25 294.264 1375.85 293.961C1375.46 293.654 1375.08 293.274 1374.79 292.799C1374.64 292.561 1374.52 292.305 1374.42 292.034C1374.34 291.764 1374.27 291.492 1374.24 291.213C1374.18 290.655 1374.24 290.102 1374.38 289.618C1374.52 289.132 1374.72 288.698 1374.94 288.315C1375.21 287.847 1375.6 287.494 1375.99 287.197C1376.36 286.913 1376.8 286.945 1377.23 287.136C1377.87 287.42 1378.17 288.081 1377.95 288.565C1377.82 288.875 1377.61 289.137 1377.41 289.37C1377.18 289.636 1376.99 289.92 1376.88 290.194C1376.77 290.469 1376.74 290.727 1376.78 290.954C1376.78 291.011 1376.81 291.067 1376.82 291.123C1376.83 291.18 1376.87 291.227 1376.89 291.278C1376.94 291.377 1377.01 291.467 1377.1 291.553C1377.28 291.724 1377.52 291.866 1377.8 291.956C1377.95 292.005 1378.12 292.037 1378.28 292.07C1378.45 292.104 1378.6 292.136 1378.76 292.215C1379.27 292.46 1379.88 292.478 1380.45 292.356C1381.02 292.235 1381.55 291.981 1382.03 291.702C1382.39 291.497 1382.65 291.218 1382.78 290.946C1382.92 290.682 1382.95 290.376 1382.9 290.014C1382.86 289.695 1382.73 289.352 1382.54 289.04C1382.44 288.885 1382.33 288.732 1382.21 288.599C1382.15 288.531 1382.07 288.466 1382.01 288.398C1381.94 288.331 1381.86 288.275 1381.78 288.21C1381.17 287.733 1380.36 287.447 1379.53 287.417C1379.21 287.408 1378.88 287.381 1378.54 287.348C1378.2 287.31 1377.84 287.247 1377.43 287.17C1377.05 287.094 1376.72 286.598 1377.05 286.268C1377.5 285.818 1378.11 285.494 1378.76 285.332C1379.3 285.197 1379.87 285.244 1380.41 285.312C1380.41 285.3 1380.42 285.287 1380.42 285.273L1380.43 285.275Z" fill="#FFF2D6"/>
<path d="M1375 308.178C1375.4 308.379 1375.81 308.63 1376.18 308.963C1376.56 309.294 1376.89 309.735 1377.11 310.224L1377.19 310.419C1377.22 310.485 1377.23 310.552 1377.26 310.619C1377.29 310.754 1377.34 310.883 1377.36 311.027L1377.39 311.238L1377.41 311.45C1377.43 311.592 1377.43 311.731 1377.43 311.87C1377.43 312.24 1377.37 312.6 1377.26 312.937C1377.16 313.272 1377.01 313.581 1376.84 313.869C1376.49 314.442 1376.03 314.928 1375.48 315.311C1374.38 316.064 1373.06 316.343 1371.78 316.2C1371 316.107 1370.22 315.857 1369.52 315.428C1369.34 315.327 1369.18 315.2 1369.01 315.079C1368.85 314.948 1368.69 314.807 1368.54 314.654C1368.24 314.348 1367.97 313.999 1367.75 313.583C1367.54 313.173 1367.38 312.685 1367.35 312.156C1367.31 311.621 1367.41 311.097 1367.62 310.617C1367.82 310.138 1368.12 309.738 1368.44 309.427C1368.76 309.117 1369.09 308.88 1369.42 308.68C1369.82 308.439 1370.27 308.342 1370.68 308.282C1371.08 308.225 1371.42 308.469 1371.69 308.842C1372.1 309.389 1372.11 310.109 1371.76 310.415C1371.54 310.611 1371.28 310.727 1371.04 310.813C1370.76 310.912 1370.5 311.042 1370.32 311.187C1370.12 311.335 1370.01 311.493 1369.96 311.641C1369.94 311.677 1369.94 311.717 1369.93 311.753C1369.92 311.79 1369.93 311.832 1369.92 311.868C1369.92 311.94 1369.94 312.008 1369.97 312.082C1370.03 312.228 1370.16 312.386 1370.33 312.523C1370.42 312.599 1370.53 312.662 1370.64 312.728C1370.69 312.762 1370.74 312.797 1370.79 312.836C1370.84 312.874 1370.89 312.921 1370.93 312.977C1371.06 313.146 1371.24 313.286 1371.43 313.391C1371.63 313.49 1371.86 313.554 1372.08 313.592C1372.31 313.623 1372.54 313.632 1372.77 313.621C1373 313.605 1373.23 313.578 1373.45 313.544C1373.79 313.491 1374.11 313.347 1374.36 313.167C1374.62 312.978 1374.84 312.73 1375.01 312.474C1375.16 312.246 1375.26 312.005 1375.29 311.781C1375.31 311.668 1375.29 311.56 1375.28 311.448C1375.26 311.393 1375.25 311.331 1375.24 311.274C1375.21 311.222 1375.19 311.164 1375.17 311.108C1375.06 310.892 1374.87 310.683 1374.61 310.502C1374.35 310.318 1374.03 310.165 1373.68 310.044C1373.12 309.854 1372.57 309.571 1372.06 308.993C1371.83 308.725 1371.87 308.131 1372.21 308.025C1372.67 307.875 1373.18 307.816 1373.69 307.848C1374.12 307.877 1374.54 308.036 1374.98 308.214C1374.99 308.201 1374.99 308.19 1375 308.178H1375Z" fill="#FFF2D6"/>
<path d="M1398.63 301.053C1398.89 301.192 1399.14 301.358 1399.39 301.574C1399.64 301.797 1399.89 302.079 1400.07 302.427C1400.11 302.522 1400.15 302.618 1400.19 302.713C1400.22 302.812 1400.25 302.913 1400.28 303.012C1400.31 303.113 1400.31 303.21 1400.33 303.309L1400.35 303.456L1400.36 303.609C1400.38 303.883 1400.34 304.166 1400.27 304.428C1400.19 304.688 1400.07 304.927 1399.93 305.13C1399.66 305.544 1399.32 305.832 1398.97 306.065C1398.61 306.295 1398.22 306.457 1397.8 306.554C1397.38 306.648 1396.98 306.671 1396.57 306.635C1396.07 306.583 1395.56 306.457 1395.07 306.183C1394.82 306.054 1394.58 305.876 1394.36 305.669C1394.14 305.458 1393.94 305.202 1393.78 304.92C1393.75 304.85 1393.71 304.776 1393.68 304.702L1393.63 304.59C1393.61 304.549 1393.6 304.499 1393.58 304.454C1393.55 304.36 1393.53 304.266 1393.5 304.171C1393.49 304.077 1393.47 303.984 1393.46 303.89C1393.45 303.795 1393.45 303.705 1393.45 303.615C1393.45 303.525 1393.45 303.433 1393.46 303.347C1393.49 303.177 1393.51 303.003 1393.56 302.848C1393.75 302.213 1394.11 301.691 1394.66 301.269C1395 301.019 1395.51 300.909 1395.99 300.983C1396.22 301.01 1396.4 301.158 1396.5 301.325C1396.6 301.503 1396.62 301.725 1396.58 301.946C1396.54 302.272 1396.36 302.562 1396.24 302.814C1396.21 302.877 1396.19 302.936 1396.17 302.992C1396.16 303.017 1396.15 303.044 1396.14 303.073L1396.13 303.107V303.098L1396.13 303.078C1396.13 303.078 1396.13 303.078 1396.13 303.077C1396.13 303.095 1396.14 303.222 1396.22 303.359L1396.23 303.392L1396.22 303.379C1396.21 303.37 1396.2 303.375 1396.19 303.374C1396.18 303.37 1396.17 303.379 1396.15 303.383C1396.14 303.386 1396.12 303.393 1396.11 303.404C1396.06 303.44 1396.02 303.507 1396.02 303.559C1396.01 303.573 1396.02 303.582 1396.02 303.593C1396.02 303.604 1396.02 303.613 1396.03 303.618C1396.03 303.622 1396.03 303.633 1396.04 303.631H1396.05L1396.02 303.638C1396.01 303.638 1396 303.642 1395.98 303.649H1395.98V303.651C1395.88 303.69 1396.11 303.597 1396.09 303.606L1396.09 303.609L1396.11 303.615L1396.13 303.624C1396.14 303.631 1396.16 303.633 1396.18 303.636C1396.19 303.64 1396.21 303.642 1396.23 303.64C1396.31 303.642 1396.41 303.588 1396.42 303.705C1396.44 303.8 1396.5 303.872 1396.58 303.926C1396.66 303.977 1396.76 304.009 1396.86 304.023C1397.06 304.052 1397.29 304.027 1397.46 304.034C1397.61 304.041 1397.76 303.989 1397.88 303.921C1397.99 303.852 1398.07 303.773 1398.13 303.734C1398.17 303.696 1398.19 303.692 1398.22 303.663C1398.24 303.62 1398.26 303.581 1398.24 303.521C1398.23 303.458 1398.16 303.361 1398.04 303.267C1397.93 303.172 1397.76 303.086 1397.59 303.012C1397.3 302.891 1397.03 302.646 1396.76 302.088C1396.64 301.829 1396.67 301.235 1396.88 301.118C1397.17 300.953 1397.49 300.872 1397.81 300.864C1398.08 300.859 1398.34 300.983 1398.62 301.088C1398.62 301.075 1398.63 301.064 1398.63 301.052V301.053Z" fill="#FFF2D6"/>
<path d="M1410.91 278.561C1411.45 278.66 1412.04 278.843 1412.57 279.165L1412.68 279.228L1412.8 279.306C1412.87 279.358 1412.95 279.41 1413.02 279.47C1413.16 279.581 1413.29 279.698 1413.42 279.813C1413.77 280.123 1414.05 280.492 1414.26 280.933C1414.46 281.37 1414.58 281.91 1414.49 282.51C1414.41 283.109 1414.04 283.714 1413.59 284.076C1413.14 284.45 1412.65 284.632 1412.21 284.733C1411.66 284.852 1411.18 284.864 1410.67 284.817C1410.16 284.762 1409.63 284.632 1409.11 284.371C1408.86 284.24 1408.61 284.078 1408.37 283.88C1408.26 283.781 1408.15 283.674 1408.04 283.559C1407.93 283.431 1407.83 283.3 1407.74 283.161C1407.38 282.609 1407.19 281.995 1407.19 281.334C1407.18 280.935 1407.36 280.521 1407.62 280.186C1407.74 280.026 1407.92 279.938 1408.12 279.927C1408.31 279.912 1408.52 279.975 1408.72 280.082C1409.01 280.238 1409.23 280.492 1409.42 280.697C1409.51 280.8 1409.59 280.892 1409.66 280.96C1409.73 281.034 1409.79 281.081 1409.82 281.109C1409.9 281.181 1409.89 281.196 1409.84 281.246C1409.74 281.363 1409.76 281.628 1409.87 281.761C1409.89 281.779 1409.9 281.795 1409.92 281.806L1409.94 281.826L1409.98 281.849C1410.02 281.882 1410.07 281.905 1410.12 281.925C1410.23 281.964 1410.36 281.981 1410.49 281.972C1410.64 281.963 1410.8 281.892 1410.94 282.002C1411.15 282.177 1411.46 282.2 1411.68 282.162C1411.79 282.143 1411.88 282.112 1411.94 282.085C1412.01 282.06 1412.03 282.045 1412.07 282.053C1412.11 282.053 1412.14 282.071 1412.15 282.008C1412.16 281.948 1412.15 281.835 1412.11 281.7C1412.08 281.579 1412.01 281.451 1411.93 281.342C1411.91 281.316 1411.89 281.291 1411.87 281.262C1411.85 281.241 1411.83 281.217 1411.8 281.192C1411.78 281.174 1411.76 281.153 1411.73 281.131L1411.63 281.063C1411.34 280.886 1410.94 280.782 1410.48 280.746C1410.12 280.713 1409.74 280.551 1409.33 280.062C1409.14 279.835 1409.08 279.243 1409.25 279.086C1409.49 278.867 1409.77 278.712 1410.08 278.618C1410.34 278.541 1410.62 278.584 1410.91 278.598C1410.91 278.584 1410.92 278.571 1410.92 278.559L1410.91 278.561Z" fill="#FFF2D6"/>
<path d="M1429.23 303.401C1429.65 303.842 1429.99 304.374 1430.22 304.947C1430.45 305.519 1430.56 306.117 1430.57 306.702C1430.58 307.323 1430.47 307.928 1430.31 308.514C1430.21 308.907 1430.05 309.29 1429.84 309.654C1429.75 309.837 1429.62 310.01 1429.5 310.183C1429.37 310.35 1429.23 310.514 1429.08 310.66C1428.49 311.259 1427.76 311.679 1427.02 311.945C1426.64 312.075 1426.26 312.17 1425.88 312.233C1425.5 312.293 1425.11 312.323 1424.73 312.327C1424.35 312.327 1423.97 312.3 1423.6 312.246C1423.22 312.192 1422.85 312.111 1422.47 311.996C1422.01 311.853 1421.55 311.659 1421.1 311.391C1420.66 311.121 1420.23 310.781 1419.87 310.35C1419.14 309.49 1418.77 308.417 1418.72 307.375C1418.66 306.329 1418.89 305.269 1419.43 304.337C1419.96 303.426 1420.74 302.708 1421.6 302.213C1422.12 301.912 1422.73 301.779 1423.3 301.734C1423.86 301.694 1424.26 302 1424.48 302.427C1424.64 302.738 1424.64 303.073 1424.57 303.356C1424.49 303.636 1424.33 303.863 1424.11 303.993C1423.83 304.157 1423.53 304.256 1423.23 304.355C1422.53 304.574 1421.93 305.06 1421.61 305.661C1421.31 306.243 1421.26 307.006 1421.51 307.596C1421.57 307.762 1421.67 307.908 1421.75 308.046C1421.84 308.183 1421.92 308.307 1421.97 308.451C1422.04 308.675 1422.21 308.891 1422.43 309.063C1422.65 309.24 1422.92 309.377 1423.22 309.479C1423.53 309.582 1423.85 309.656 1424.19 309.702C1424.52 309.751 1424.85 309.776 1425.18 309.787C1425.42 309.798 1425.67 309.782 1425.9 309.74C1426.14 309.702 1426.37 309.638 1426.58 309.555C1426.79 309.476 1426.99 309.369 1427.17 309.251C1427.36 309.135 1427.52 308.993 1427.67 308.847C1427.93 308.59 1428.13 308.248 1428.27 307.874C1428.4 307.496 1428.47 307.083 1428.44 306.677C1428.42 306.475 1428.39 306.273 1428.33 306.083C1428.27 305.888 1428.19 305.708 1428.09 305.532C1427.99 305.354 1427.86 305.193 1427.72 305.037C1427.57 304.886 1427.41 304.745 1427.23 304.623C1426.95 304.427 1426.66 304.248 1426.36 304.05C1426.06 303.856 1425.74 303.644 1425.36 303.408C1425.01 303.199 1424.88 302.612 1425.37 302.425C1425.71 302.31 1426.08 302.25 1426.46 302.245C1426.84 302.249 1427.22 302.303 1427.59 302.411C1428.2 302.591 1428.73 302.988 1429.2 303.424C1429.21 303.415 1429.22 303.408 1429.23 303.399L1429.23 303.401Z" fill="#FFF2D6"/>
<path d="M1414.34 324.131C1414.6 324.441 1414.81 324.788 1414.95 325.172C1415.09 325.551 1415.15 325.98 1415.12 326.41C1415.11 326.529 1415.09 326.628 1415.07 326.729C1415.06 326.829 1415.03 326.928 1415 327.024C1414.95 327.218 1414.88 327.404 1414.81 327.587C1414.63 328.073 1414.34 328.496 1413.99 328.842C1413.65 329.186 1413.25 329.463 1412.81 329.67C1412.37 329.877 1411.9 330.01 1411.34 330.03C1410.8 330.044 1410.29 329.943 1409.83 329.758C1409.25 329.524 1408.72 329.169 1408.27 328.642C1408.16 328.518 1408.06 328.356 1407.97 328.21C1407.92 328.133 1407.88 328.044 1407.84 327.96C1407.8 327.873 1407.75 327.792 1407.72 327.697C1407.66 327.51 1407.6 327.323 1407.58 327.116C1407.56 327.013 1407.54 326.912 1407.54 326.81C1407.54 326.705 1407.54 326.603 1407.55 326.498C1407.55 326.394 1407.57 326.293 1407.59 326.194C1407.61 326.093 1407.63 325.994 1407.65 325.895C1407.72 325.71 1407.78 325.526 1407.87 325.355C1407.96 325.179 1408.06 325.022 1408.18 324.867C1408.3 324.725 1408.42 324.581 1408.55 324.468C1408.68 324.344 1408.81 324.248 1408.95 324.149C1409.08 324.065 1409.22 323.975 1409.35 323.908C1409.61 323.762 1409.87 323.66 1410.12 323.571C1410.43 323.463 1410.75 323.483 1411.05 323.521C1411.33 323.557 1411.56 323.861 1411.73 324.281C1411.98 324.893 1411.95 325.598 1411.7 325.816C1411.54 325.958 1411.36 326.001 1411.18 326.016C1410.77 326.043 1410.42 326.181 1410.27 326.351C1410.13 326.504 1410.16 326.705 1410.3 326.716C1410.37 326.739 1410.46 326.714 1410.44 326.835C1410.41 327.038 1410.61 327.234 1410.82 327.333C1411.05 327.44 1411.29 327.454 1411.48 327.494C1411.64 327.522 1411.85 327.477 1412.03 327.396C1412.21 327.315 1412.38 327.202 1412.53 327.085C1412.66 326.981 1412.77 326.86 1412.85 326.736C1412.87 326.705 1412.88 326.673 1412.9 326.64C1412.92 326.608 1412.92 326.576 1412.94 326.541C1412.95 326.507 1412.96 326.473 1412.97 326.439C1412.98 326.41 1412.98 326.387 1412.99 326.36C1413.01 326.25 1412.99 326.102 1412.92 325.955C1412.85 325.807 1412.74 325.665 1412.62 325.559C1412.51 325.472 1412.43 325.382 1412.33 325.24C1412.22 325.1 1412.08 324.918 1411.81 324.727C1411.69 324.639 1411.55 324.468 1411.47 324.286C1411.4 324.106 1411.4 323.904 1411.56 323.78C1411.66 323.69 1411.79 323.631 1411.92 323.568C1412.05 323.51 1412.19 323.476 1412.34 323.444C1412.48 323.424 1412.63 323.411 1412.77 323.415C1412.91 323.426 1413.06 323.436 1413.19 323.471C1413.65 323.573 1414 323.867 1414.3 324.16C1414.31 324.151 1414.32 324.142 1414.33 324.133L1414.34 324.131Z" fill="#FFF2D6"/>
<path d="M1393.78 333.986C1394.2 334.431 1394.54 334.947 1394.76 335.529C1394.99 336.11 1395.09 336.767 1395 337.419C1394.92 338.106 1394.63 338.706 1394.32 339.219C1393.91 339.912 1393.36 340.452 1392.77 340.9C1392.17 341.348 1391.5 341.694 1390.8 341.933C1389.39 342.41 1387.83 342.455 1386.36 341.98C1385.47 341.687 1384.59 341.228 1383.84 340.4C1383.48 339.984 1383.16 339.46 1383 338.862C1382.83 338.268 1382.82 337.644 1382.93 337.086C1383.04 336.524 1383.26 336.018 1383.53 335.568C1383.8 335.118 1384.14 334.722 1384.52 334.377C1384.62 334.292 1384.72 334.209 1384.82 334.128C1384.93 334.053 1385.04 333.97 1385.14 333.905C1385.34 333.772 1385.55 333.65 1385.77 333.543C1386.2 333.329 1386.63 333.167 1387.05 333.038C1387.56 332.883 1388.09 332.874 1388.58 332.89C1389.05 332.906 1389.38 333.201 1389.62 333.612C1389.97 334.213 1389.81 334.933 1389.26 335.19C1388.91 335.354 1388.53 335.428 1388.18 335.477C1387.78 335.532 1387.4 335.628 1387.06 335.765C1386.89 335.837 1386.72 335.914 1386.58 336.009C1386.5 336.054 1386.44 336.103 1386.37 336.148C1386.31 336.202 1386.25 336.249 1386.19 336.308C1385.96 336.535 1385.77 336.816 1385.67 337.102C1385.56 337.386 1385.55 337.669 1385.61 337.878C1385.69 338.115 1385.84 338.216 1385.91 338.47C1385.98 338.673 1386.15 338.882 1386.37 339.057C1386.59 339.233 1386.87 339.368 1387.16 339.474C1387.44 339.586 1387.75 339.642 1388.06 339.694C1388.37 339.739 1388.68 339.753 1389 339.77C1389.48 339.782 1389.96 339.694 1390.41 339.536C1390.86 339.377 1391.28 339.15 1391.67 338.88C1392.02 338.645 1392.31 338.355 1392.53 338.049C1392.75 337.741 1392.88 337.424 1392.9 337.111C1392.92 336.794 1392.82 336.432 1392.63 336.099C1392.54 335.932 1392.42 335.774 1392.28 335.63C1392.15 335.486 1391.99 335.36 1391.81 335.243C1391.25 334.874 1390.65 334.517 1390 333.92C1389.7 333.65 1389.73 333.05 1390.17 332.955C1390.79 332.825 1391.48 332.84 1392.17 333.039C1392.45 333.12 1392.73 333.254 1392.99 333.421C1393.13 333.504 1393.25 333.596 1393.38 333.693C1393.51 333.794 1393.63 333.9 1393.75 334.008C1393.76 333.999 1393.77 333.992 1393.78 333.983L1393.78 333.986Z" fill="#FFF2D6"/>
<path d="M1438.58 344.019C1438.92 344.351 1439.22 344.792 1439.38 345.279C1439.55 345.778 1439.57 346.291 1439.49 346.746C1439.41 347.232 1439.23 347.657 1439.02 348.057C1438.88 348.325 1438.72 348.577 1438.51 348.809L1438.36 348.978L1438.2 349.13C1438.09 349.227 1437.97 349.319 1437.86 349.403C1437.39 349.742 1436.88 349.968 1436.38 350.123C1436.13 350.201 1435.88 350.26 1435.63 350.305C1435.51 350.327 1435.39 350.346 1435.26 350.363C1435.13 350.377 1434.99 350.388 1434.86 350.399C1434.31 350.422 1433.78 350.368 1433.24 350.228C1432.91 350.145 1432.58 350.017 1432.26 349.857C1431.93 349.68 1431.61 349.481 1431.31 349.185C1431.01 348.892 1430.73 348.537 1430.55 348.096C1430.37 347.661 1430.28 347.2 1430.3 346.732C1430.33 346.268 1430.45 345.825 1430.64 345.45C1430.82 345.072 1431.05 344.747 1431.32 344.469C1431.58 344.192 1431.88 343.951 1432.2 343.758C1432.5 343.571 1432.81 343.425 1433.11 343.31C1433.48 343.168 1433.86 343.164 1434.2 343.181C1434.54 343.199 1434.79 343.49 1435.01 343.895C1435.32 344.489 1435.29 345.202 1434.95 345.449C1434.74 345.607 1434.51 345.67 1434.29 345.702C1434.04 345.738 1433.81 345.801 1433.62 345.891C1433.52 345.94 1433.44 345.983 1433.36 346.041C1433.29 346.098 1433.22 346.163 1433.16 346.232C1433.04 346.372 1432.97 346.53 1432.96 346.66C1432.95 346.795 1432.99 346.878 1433.06 346.944C1433.14 347.018 1433.24 346.984 1433.24 347.124C1433.26 347.236 1433.33 347.362 1433.46 347.457C1433.58 347.555 1433.74 347.634 1433.92 347.686C1434.28 347.799 1434.67 347.817 1435.05 347.848C1435.7 347.88 1436.29 347.673 1436.7 347.414C1436.75 347.385 1436.79 347.353 1436.84 347.322C1436.88 347.292 1436.92 347.265 1436.95 347.229C1437.02 347.16 1437.1 347.085 1437.15 346.998C1437.27 346.829 1437.35 346.633 1437.38 346.455C1437.4 346.365 1437.39 346.28 1437.39 346.199C1437.38 346.158 1437.37 346.12 1437.36 346.08C1437.34 346.041 1437.33 345.994 1437.31 345.956C1437.23 345.791 1437.08 345.627 1436.86 345.476C1436.51 345.238 1436.11 344.909 1435.78 344.277C1435.62 343.985 1435.77 343.407 1436.06 343.339C1436.47 343.247 1436.92 343.244 1437.4 343.362C1437.79 343.458 1438.17 343.717 1438.55 344.039C1438.56 344.03 1438.57 344.021 1438.58 344.012L1438.58 344.019Z" fill="#FFF2D6"/>
<path d="M1438.65 327.083C1438.81 327.209 1438.98 327.359 1439.14 327.533C1439.22 327.623 1439.28 327.708 1439.36 327.816C1439.44 327.931 1439.51 328.048 1439.57 328.165C1439.69 328.415 1439.75 328.665 1439.82 328.919C1439.92 329.256 1439.96 329.654 1439.82 330.102C1439.76 330.323 1439.64 330.552 1439.48 330.748C1439.31 330.948 1439.12 331.101 1438.93 331.209C1438.55 331.423 1438.25 331.484 1438.04 331.54C1437.84 331.592 1437.61 331.632 1437.37 331.65C1437.07 331.671 1436.74 331.668 1436.37 331.592C1436.01 331.52 1435.6 331.364 1435.24 331.095L1435.1 330.991C1435.06 330.959 1435 330.897 1434.95 330.851C1434.85 330.748 1434.77 330.64 1434.69 330.528C1434.54 330.307 1434.42 330.073 1434.36 329.841C1434.22 329.375 1434.2 328.894 1434.36 328.365C1434.46 328.043 1434.75 327.733 1435.1 327.557C1435.26 327.468 1435.46 327.485 1435.62 327.567C1435.78 327.656 1435.92 327.818 1436.02 328.012C1436.18 328.298 1436.24 328.631 1436.33 328.892L1436.34 328.941V328.935C1436.34 328.935 1436.34 328.925 1436.33 328.919L1436.33 328.908C1436.33 328.908 1436.33 328.908 1436.33 328.907C1436.33 328.916 1436.38 328.968 1436.47 329.009C1436.58 329.061 1436.7 329.083 1436.77 329.083H1436.8C1436.81 329.083 1436.79 329.083 1436.8 329.083L1436.79 329.087C1436.79 329.087 1436.79 329.092 1436.79 329.09C1436.76 329.099 1436.66 329.151 1436.6 329.202C1436.58 329.218 1436.57 329.223 1436.56 329.238L1436.55 329.249L1436.54 329.254L1436.8 328.952L1436.82 328.939C1436.83 328.925 1436.85 328.903 1436.87 328.881C1436.91 328.831 1436.94 328.736 1436.96 328.831C1436.98 328.984 1437.12 329.027 1437.26 329.025C1437.33 329.025 1437.42 329.016 1437.5 329.011C1437.58 329.006 1437.69 329 1437.76 329.016C1437.81 329.029 1437.84 329.034 1437.85 329.042C1437.85 329.045 1437.85 329.038 1437.85 329.049L1437.88 329.124C1437.89 329.166 1437.92 329.213 1437.93 329.243C1437.97 329.315 1437.99 329.36 1438.02 329.393C1438.03 329.409 1438.04 329.421 1438.05 329.43L1438.07 329.461C1438.08 329.472 1438.07 329.459 1438.07 329.461C1438.05 329.445 1438.01 329.427 1437.95 329.411C1437.89 329.396 1437.82 329.391 1437.77 329.393C1437.75 329.393 1437.74 329.393 1437.72 329.394H1437.71H1437.71C1437.72 329.394 1437.72 329.389 1437.73 329.385C1437.75 329.366 1437.76 329.33 1437.77 329.301C1437.79 329.286 1437.76 329.213 1437.71 329.155C1437.67 329.094 1437.6 329.027 1437.5 328.966C1437.36 328.865 1437.22 328.617 1437.16 328.048C1437.14 327.785 1437.29 327.209 1437.43 327.108C1437.64 326.966 1437.85 326.898 1438.08 326.896C1438.26 326.896 1438.43 327.015 1438.62 327.112C1438.63 327.099 1438.64 327.089 1438.64 327.078L1438.65 327.083Z" fill="#FFF2D6"/>
<path d="M1409.27 347.933C1409.59 348.426 1409.76 348.982 1409.74 349.576C1409.73 349.731 1409.71 349.891 1409.68 350.046C1409.64 350.186 1409.61 350.325 1409.58 350.462C1409.48 350.829 1409.32 351.165 1409.11 351.45C1408.9 351.736 1408.65 351.979 1408.37 352.177C1408.08 352.375 1407.77 352.528 1407.42 352.627C1407.34 352.65 1407.25 352.67 1407.16 352.69C1407.07 352.704 1406.97 352.719 1406.88 352.728C1406.7 352.742 1406.51 352.744 1406.33 352.726C1405.89 352.685 1405.45 352.551 1405.03 352.308C1404.62 352.062 1404.21 351.684 1403.96 351.165C1403.9 351.039 1403.85 350.903 1403.8 350.768C1403.76 350.604 1403.72 350.433 1403.72 350.273C1403.69 349.941 1403.74 349.635 1403.82 349.358C1404 348.807 1404.32 348.359 1404.81 348.006C1405.1 347.794 1405.54 347.717 1405.95 347.783C1406.14 347.808 1406.3 347.94 1406.39 348.104C1406.47 348.271 1406.49 348.487 1406.46 348.708C1406.42 349.034 1406.27 349.335 1406.18 349.596C1406.17 349.626 1406.16 349.659 1406.14 349.691L1406.13 349.736C1406.13 349.745 1406.13 349.736 1406.13 349.738L1406.13 349.722V349.713V349.716C1406.13 349.718 1406.13 349.72 1406.13 349.72C1406.13 349.745 1406.15 349.841 1406.2 349.934C1406.23 349.994 1406.26 350.039 1406.3 350.078C1406.3 350.087 1406.31 350.096 1406.32 350.103L1406.31 350.098C1406.31 350.098 1406.3 350.093 1406.3 350.093C1406.27 350.091 1406.26 350.109 1406.26 350.112C1406.27 350.114 1406.26 350.109 1406.25 350.107C1406.23 350.103 1406.22 350.102 1406.21 350.1C1406.18 350.098 1406.17 350.091 1406.14 350.091H1406.08C1406.06 350.091 1406.04 350.096 1406.03 350.096C1406.03 350.096 1406.02 350.098 1406.02 350.1L1406.01 350.103L1406.31 350.01C1406.31 350.01 1406.31 350.01 1406.32 350.01C1406.32 350.006 1406.33 350.001 1406.34 349.997C1406.35 349.99 1406.37 349.981 1406.38 349.972C1406.41 349.949 1406.45 349.914 1406.49 349.871C1406.51 349.848 1406.51 349.85 1406.5 349.893C1406.45 350.033 1406.55 350.111 1406.65 350.121C1406.75 350.139 1406.81 350.116 1406.93 350.139C1407.02 350.157 1407.12 350.127 1407.19 350.085C1407.27 350.042 1407.33 349.988 1407.4 349.945C1407.51 349.873 1407.58 349.772 1407.62 349.709C1407.67 349.612 1407.62 349.419 1407.54 349.299C1407.5 349.252 1407.5 349.171 1407.48 349.04C1407.46 348.906 1407.42 348.703 1407.29 348.447C1407.17 348.21 1407.01 347.623 1407.27 347.468C1407.63 347.259 1408.1 347.243 1408.49 347.373C1408.82 347.479 1409.04 347.731 1409.24 347.961C1409.25 347.952 1409.27 347.945 1409.28 347.936L1409.27 347.933Z" fill="#FFF2D6"/>
<path d="M1370.1 329.715C1370.22 329.774 1370.35 329.846 1370.48 329.922C1370.54 329.96 1370.61 330.001 1370.67 330.044C1370.73 330.091 1370.8 330.136 1370.86 330.188C1371.11 330.386 1371.33 330.613 1371.52 330.87C1371.71 331.146 1371.87 331.452 1372.01 331.794C1372.21 332.24 1372.26 332.838 1372.12 333.345C1371.98 333.858 1371.71 334.267 1371.43 334.586C1370.85 335.216 1370.1 335.608 1369.29 335.756C1368.79 335.846 1368.26 335.846 1367.71 335.702C1367.16 335.568 1366.59 335.255 1366.17 334.796C1366.06 334.674 1365.93 334.519 1365.84 334.37C1365.76 334.217 1365.67 334.06 1365.62 333.902C1365.49 333.583 1365.44 333.266 1365.43 332.955C1365.42 332.645 1365.45 332.341 1365.53 332.044C1365.56 331.896 1365.63 331.747 1365.68 331.603C1365.75 331.457 1365.81 331.313 1365.91 331.173C1365.97 331.088 1366.03 331.007 1366.11 330.932C1366.18 330.856 1366.27 330.788 1366.36 330.726C1366.55 330.604 1366.75 330.509 1366.97 330.453C1367.07 330.422 1367.17 330.42 1367.27 330.442C1367.37 330.462 1367.46 330.501 1367.53 330.557C1367.69 330.678 1367.8 330.861 1367.88 331.074C1367.99 331.385 1367.97 331.722 1367.98 331.999C1367.99 332.138 1368 332.262 1368.01 332.355C1368.02 332.373 1368.02 332.391 1368.02 332.409C1368.02 332.413 1368.03 332.415 1368.03 332.415C1368.03 332.415 1368.03 332.411 1368.03 332.417C1368.03 332.426 1368.03 332.435 1368.04 332.442C1368.04 332.449 1368.05 332.456 1368.05 332.462C1368.05 332.465 1368.06 332.471 1368.07 332.487C1368.09 332.512 1368.1 332.532 1368.12 332.55C1368.13 332.557 1368.15 332.577 1368.16 332.586C1368.17 332.595 1368.16 332.593 1368.16 332.591L1368.16 332.588C1368.12 332.564 1368.06 332.595 1368.02 332.656C1367.98 332.717 1367.97 332.796 1367.98 332.865C1367.99 332.933 1368.03 332.98 1368.07 332.987C1368.08 332.987 1368.09 332.987 1368.1 332.987L1368.11 332.978L1368.12 332.975L1368.11 332.982C1368.16 332.946 1368.18 332.978 1368.22 332.958C1368.31 332.942 1368.38 332.865 1368.41 332.971C1368.48 333.138 1368.69 333.192 1368.88 333.164C1369.07 333.142 1369.26 333.059 1369.45 333.014C1369.6 332.98 1369.73 332.892 1369.81 332.811C1369.89 332.728 1369.92 332.667 1369.95 332.643C1369.97 332.622 1370 332.6 1370 332.525C1370 332.453 1369.96 332.348 1369.9 332.244C1369.83 332.139 1369.74 332.042 1369.62 331.959C1369.49 331.871 1369.34 331.794 1369.16 331.731C1368.88 331.628 1368.57 331.396 1368.3 330.838C1368.18 330.581 1368.23 329.987 1368.41 329.866C1368.67 329.697 1368.96 329.6 1369.28 329.574C1369.54 329.555 1369.8 329.659 1370.09 329.753C1370.09 329.74 1370.09 329.727 1370.1 329.715H1370.1Z" fill="#FFF2D6"/>
<path d="M1439.65 287.012C1439.82 287.292 1439.95 287.582 1440.02 287.895C1440.1 288.207 1440.13 288.529 1440.08 288.869C1440.08 288.957 1440.06 289.046 1440.04 289.136C1440.01 289.226 1440 289.312 1439.96 289.4L1439.87 289.661L1439.76 289.883C1439.58 290.277 1439.3 290.619 1438.99 290.874C1438.67 291.132 1438.31 291.314 1437.95 291.432C1437.58 291.551 1437.21 291.609 1436.82 291.6C1436.43 291.593 1436.02 291.51 1435.65 291.353C1435.19 291.162 1434.79 290.885 1434.45 290.511C1434.11 290.14 1433.82 289.656 1433.7 289.069C1433.66 288.925 1433.65 288.772 1433.64 288.621C1433.64 288.464 1433.63 288.327 1433.66 288.14C1433.68 287.96 1433.73 287.798 1433.79 287.636C1433.85 287.483 1433.91 287.328 1434 287.197C1434.16 286.922 1434.36 286.693 1434.59 286.502C1434.81 286.308 1435.07 286.149 1435.37 286.036C1435.73 285.896 1436.18 285.923 1436.58 286.083C1436.77 286.157 1436.9 286.319 1436.96 286.502C1437.01 286.686 1436.98 286.904 1436.91 287.116C1436.8 287.426 1436.58 287.685 1436.43 287.915C1436.36 288.016 1436.27 288.183 1436.3 288.124C1436.31 288.113 1436.3 288.135 1436.3 288.131C1436.29 288.169 1436.28 288.288 1436.31 288.398C1436.31 288.414 1436.32 288.43 1436.32 288.444C1436.32 288.452 1436.33 288.459 1436.33 288.466L1436.33 288.477C1436.33 288.477 1436.32 288.453 1436.32 288.453C1436.3 288.443 1436.28 288.441 1436.26 288.443C1436.23 288.448 1436.2 288.477 1436.2 288.495C1436.19 288.498 1436.2 288.502 1436.2 288.506C1436.21 288.513 1436.18 288.498 1436.16 288.493L1436.1 288.48C1436.1 288.48 1436.09 288.479 1436.08 288.479H1436.07C1436.42 288.502 1436.17 288.486 1436.25 288.491H1436.25L1436.26 288.498C1436.29 288.522 1436.34 288.534 1436.4 288.538C1436.47 288.547 1436.57 288.513 1436.53 288.61C1436.48 288.774 1436.6 288.9 1436.71 288.956C1436.83 289.017 1436.94 289.019 1437.09 289.078C1437.2 289.121 1437.32 289.114 1437.43 289.089C1437.53 289.064 1437.62 289.019 1437.7 288.988C1437.76 288.959 1437.82 288.929 1437.87 288.887C1437.87 288.878 1437.9 288.86 1437.9 288.86C1437.9 288.857 1437.91 288.857 1437.92 288.853C1437.93 288.846 1437.93 288.84 1437.94 288.833C1437.95 288.822 1437.95 288.812 1437.96 288.799C1438.01 288.687 1437.96 288.444 1437.85 288.306C1437.81 288.255 1437.81 288.176 1437.78 288.041C1437.75 287.913 1437.69 287.705 1437.5 287.478C1437.33 287.264 1437.07 286.713 1437.35 286.511C1437.45 286.439 1437.56 286.392 1437.67 286.351C1437.79 286.306 1437.91 286.284 1438.04 286.274C1438.17 286.259 1438.29 286.266 1438.41 286.281C1438.54 286.293 1438.66 286.324 1438.77 286.364C1439.15 286.491 1439.41 286.779 1439.62 287.044C1439.63 287.037 1439.64 287.03 1439.65 287.021L1439.65 287.012Z" fill="#FFF2D6"/>
<path d="M1364.98 274.016C1365.5 273.686 1366.06 273.522 1366.65 273.495C1366.96 273.49 1367.27 273.519 1367.59 273.575C1368.02 273.638 1368.48 273.825 1368.83 274.118C1369.19 274.41 1369.46 274.791 1369.63 275.187C1369.8 275.585 1369.88 275.999 1369.87 276.41C1369.87 276.82 1369.8 277.234 1369.63 277.635C1369.43 278.125 1369.07 278.607 1368.55 278.944C1368.05 279.282 1367.44 279.432 1366.88 279.412C1366.31 279.394 1365.8 279.23 1365.36 278.982C1364.91 278.73 1364.52 278.388 1364.22 277.949C1364.12 277.823 1364.07 277.653 1364.02 277.497C1363.99 277.328 1363.97 277.16 1363.98 276.991C1363.98 276.662 1364.31 276.42 1364.75 276.316C1365.06 276.237 1365.4 276.249 1365.68 276.26C1365.96 276.275 1366.16 276.278 1366.25 276.287C1366.31 276.294 1366.33 276.302 1366.35 276.316C1366.36 276.323 1366.36 276.332 1366.36 276.343C1366.36 276.354 1366.37 276.366 1366.36 276.383C1366.35 276.455 1366.38 276.53 1366.41 276.602C1366.47 276.667 1366.53 276.732 1366.61 276.761C1366.69 276.798 1366.77 276.8 1366.84 276.789C1366.88 276.773 1366.92 276.771 1366.94 276.743L1366.98 276.71C1366.99 276.694 1366.99 276.68 1367 276.665C1367.01 276.651 1367.01 276.633 1367.01 276.611C1367.01 276.591 1367.01 276.579 1367.01 276.568C1367.01 276.554 1367 276.546 1367.01 276.55L1367.01 276.554V276.555L1367.02 276.573V276.57V276.566L1367.02 276.579C1367.1 276.703 1367.19 276.662 1367.24 276.572C1367.29 276.478 1367.3 276.348 1367.35 276.221C1367.39 276.122 1367.37 276.026 1367.35 275.958C1367.33 275.886 1367.3 275.844 1367.28 275.799C1367.25 275.758 1367.23 275.713 1367.17 275.681C1367.14 275.655 1367.1 275.652 1367.06 275.632C1367.01 275.628 1366.97 275.61 1366.92 275.614C1366.7 275.598 1366.44 275.688 1366.27 275.828C1366.23 275.857 1366.18 275.877 1366.14 275.898C1366.11 275.907 1366.09 275.916 1366.05 275.925C1366.02 275.934 1365.99 275.943 1365.96 275.952L1365.83 275.983L1365.69 276.026C1365.58 276.059 1365.47 276.104 1365.33 276.165C1365.08 276.276 1364.48 276.348 1364.36 276.066C1364.27 275.873 1364.24 275.661 1364.23 275.441C1364.24 275.229 1364.28 275.007 1364.36 274.815C1364.42 274.646 1364.53 274.516 1364.64 274.385C1364.76 274.264 1364.88 274.156 1365.01 274.053C1365 274.043 1364.99 274.032 1364.98 274.021V274.016Z" fill="#FFF2D6"/>
<path d="M1392.03 277.216C1392.04 277.29 1392.03 277.374 1392 277.472C1391.99 277.522 1391.97 277.583 1391.92 277.617C1391.85 277.668 1391.78 277.731 1391.72 277.832C1391.65 277.931 1391.61 278.046 1391.59 278.148C1391.56 278.357 1391.58 278.505 1391.63 278.615C1391.67 278.681 1391.71 278.741 1391.78 278.795C1391.79 278.807 1391.82 278.823 1391.83 278.831C1391.84 278.838 1391.85 278.845 1391.86 278.85C1391.88 278.861 1391.9 278.87 1391.91 278.876C1391.97 278.897 1391.96 278.877 1391.89 278.865C1391.87 278.861 1391.85 278.757 1391.83 278.652C1391.81 278.552 1391.81 278.211 1391.83 277.767C1391.86 277.121 1391.93 276.431 1392 276.275C1392.05 276.174 1392.1 276.177 1392.14 276.222C1392.24 276.321 1392.35 276.374 1392.49 276.39C1392.63 276.406 1392.8 276.386 1393.03 276.363C1393.16 276.352 1393.31 276.312 1393.39 276.473C1393.49 276.717 1393.6 276.865 1393.72 277.025C1393.84 277.184 1393.96 277.36 1393.97 277.592C1393.98 277.76 1394 277.936 1393.99 278.123C1393.98 278.31 1393.93 278.514 1393.83 278.685C1393.75 278.829 1393.64 278.955 1393.52 279.05C1393.4 279.144 1393.27 279.21 1393.16 279.25C1392.94 279.329 1392.76 279.335 1392.62 279.327C1392.5 279.32 1392.36 279.138 1392.21 278.624C1392.14 278.386 1392.04 277.797 1392.04 277.661C1392.04 277.468 1392.04 277.342 1392.03 277.266C1392.03 277.203 1392.04 277.25 1392.04 277.252C1392.04 277.239 1392.03 277.227 1392.03 277.214V277.216Z" fill="#FFF2D6"/>
<path d="M1391.74 321.818C1391.58 321.773 1391.4 321.717 1391.22 321.653C1391.12 321.618 1391.02 321.577 1390.91 321.577C1390.6 321.577 1390.27 321.523 1389.95 321.35C1389.78 321.264 1389.62 321.141 1389.47 320.972C1389.32 320.803 1389.19 320.582 1389.11 320.331C1389.03 320.04 1389.02 319.718 1389.09 319.424C1389.15 319.129 1389.27 318.902 1389.39 318.724C1389.64 318.369 1389.89 318.195 1390.1 318.045C1390.17 318 1390.29 318.044 1390.4 318.094C1390.51 318.141 1390.71 318.414 1390.96 318.785C1391.31 319.327 1391.64 319.941 1391.69 320.099C1391.72 320.202 1391.7 320.214 1391.66 320.195C1391.57 320.15 1391.51 320.151 1391.5 320.178C1391.5 320.184 1391.5 320.193 1391.51 320.2L1391.51 320.205L1391.52 320.209L1391.51 320.202L1391.44 320.142C1391.35 320.067 1391.27 320.009 1391.2 319.968C1391.16 319.946 1391.11 319.926 1391.09 319.914C1391.08 319.907 1391.06 319.901 1391.04 319.896C1391.04 319.892 1391.02 319.889 1391.01 319.885C1391 319.881 1390.99 319.88 1390.98 319.876H1390.96C1390.97 319.876 1390.96 319.876 1390.97 319.876H1390.99L1390.99 319.872C1391.04 319.862 1390.92 319.887 1390.93 319.885C1390.93 319.885 1390.95 319.881 1390.96 319.872C1390.98 319.863 1391 319.847 1391.03 319.826C1391.11 319.763 1391.16 319.651 1391.16 319.646L1391.16 319.656L1391.16 319.673V319.683L1391.19 319.46C1391.18 319.475 1391.19 319.507 1391.2 319.529C1391.24 319.579 1391.3 319.622 1391.39 319.649C1391.46 319.673 1391.59 319.851 1391.8 320.348C1391.9 320.578 1392.05 321.154 1392.05 321.294C1392.04 321.494 1392 321.629 1391.94 321.721C1391.89 321.797 1391.8 321.766 1391.73 321.779C1391.73 321.791 1391.73 321.804 1391.73 321.818H1391.74Z" fill="#FFF2D6"/>
<path d="M1417.17 294.177C1417.24 294.318 1417.34 294.377 1417.41 294.404C1417.46 294.42 1417.5 294.419 1417.5 294.444C1417.48 294.509 1417.47 294.59 1417.53 294.689C1417.55 294.735 1417.6 294.789 1417.66 294.831C1417.69 294.863 1417.72 294.885 1417.75 294.899C1417.78 294.915 1417.82 294.924 1417.84 294.926C1417.86 294.932 1417.87 294.926 1417.87 294.926C1417.87 294.924 1417.84 294.926 1417.8 294.946C1417.78 294.951 1417.71 294.874 1417.64 294.802C1417.57 294.73 1417.36 294.462 1417.09 294.111C1416.69 293.6 1416.3 293.031 1416.28 292.842C1416.27 292.725 1416.32 292.689 1416.4 292.691C1416.73 292.7 1416.93 292.563 1417.21 292.253C1417.29 292.169 1417.38 292.044 1417.5 292.12C1417.86 292.367 1418.18 292.199 1418.56 292.46C1418.82 292.66 1419.06 292.811 1419.21 293.049C1419.33 293.258 1419.4 293.483 1419.43 293.718C1419.45 293.954 1419.43 294.21 1419.34 294.46C1419.26 294.658 1418.95 294.802 1418.48 294.521C1418.27 294.395 1417.85 293.965 1417.71 293.92C1417.53 293.846 1417.36 293.882 1417.26 293.952C1417.18 294.017 1417.21 294.109 1417.21 294.174C1417.19 294.174 1417.18 294.174 1417.17 294.174V294.177Z" fill="#FFF2D6"/>
<path d="M1435.16 278.168C1434.96 278.192 1434.76 278.175 1434.59 278.15C1434.5 278.138 1434.41 278.112 1434.33 278.138C1434.11 278.202 1433.87 278.246 1433.6 278.228C1433.34 278.213 1433.05 278.121 1432.82 277.965C1432.54 277.772 1432.33 277.511 1432.19 277.223C1432.05 276.935 1431.98 276.615 1431.98 276.278C1431.98 276.176 1432.09 276.075 1432.2 275.996C1432.31 275.918 1432.66 275.933 1433.1 276.019C1433.41 276.082 1433.73 276.172 1434 276.239C1434.03 276.246 1434.05 276.251 1434.07 276.257C1434.08 276.257 1434.08 276.257 1434.08 276.257C1434.09 276.258 1434.1 276.258 1434.12 276.26C1434.17 276.264 1434.22 276.242 1434.2 276.251C1434.19 276.253 1434.18 276.258 1434.18 276.266C1434.16 276.276 1434.15 276.293 1434.13 276.311C1434.13 276.318 1434.12 276.33 1434.11 276.336C1434.11 276.338 1434.11 276.348 1434.11 276.345L1434.11 276.332C1434.13 276.305 1434.14 276.266 1434.14 276.24C1434.14 276.19 1434.13 276.221 1434.16 276.276C1434.13 276.233 1434.26 276.455 1434.68 276.777C1434.88 276.93 1435.34 277.311 1435.38 277.457C1435.45 277.661 1435.44 277.835 1435.39 277.965C1435.34 278.075 1435.23 278.087 1435.14 278.134C1435.15 278.147 1435.15 278.157 1435.16 278.17L1435.16 278.168Z" fill="#FFF2D6"/>
<path d="M1427.34 322.027C1427.38 322.092 1427.41 322.164 1427.42 322.236C1427.42 322.274 1427.43 322.317 1427.39 322.329C1427.35 322.346 1427.28 322.385 1427.23 322.441C1427.17 322.493 1427.11 322.583 1427.08 322.659C1427.01 322.821 1427 322.954 1427.02 323.04C1427.03 323.094 1427.05 323.136 1427.08 323.177C1427.09 323.193 1427.12 323.224 1427.12 323.228C1427.13 323.237 1427.14 323.242 1427.14 323.246C1427.16 323.258 1427.13 323.226 1427.04 323.184C1427.02 323.172 1427.02 323.066 1427.02 322.956C1427.02 322.85 1427.1 322.522 1427.24 322.097C1427.43 321.48 1427.69 320.837 1427.81 320.708C1427.89 320.625 1427.94 320.643 1427.97 320.699C1428.14 320.958 1428.39 321.019 1428.85 321.086C1428.91 321.095 1428.98 321.102 1429.04 321.127C1429.11 321.154 1429.16 321.206 1429.17 321.284C1429.21 321.534 1429.29 321.699 1429.38 321.883C1429.46 322.061 1429.55 322.268 1429.52 322.506C1429.5 322.68 1429.49 322.857 1429.45 323.04C1429.41 323.224 1429.33 323.408 1429.22 323.546C1429.02 323.805 1428.77 323.957 1428.56 324.029C1428.34 324.104 1428.17 324.115 1428.01 324.119C1427.88 324.119 1427.73 323.948 1427.54 323.444C1427.45 323.21 1427.32 322.628 1427.32 322.491C1427.32 322.297 1427.32 322.169 1427.32 322.092C1427.32 322.027 1427.35 322.068 1427.36 322.067C1427.35 322.054 1427.35 322.041 1427.34 322.029V322.027Z" fill="#FFF2D6"/>
<path d="M1419.76 349.752C1419.49 349.63 1419.28 349.463 1419.09 349.292C1418.99 349.198 1418.91 349.101 1418.8 349.034C1418.51 348.861 1418.23 348.629 1418.02 348.289C1417.91 348.118 1417.82 347.925 1417.77 347.713C1417.71 347.49 1417.69 347.303 1417.7 347.106C1417.72 346.619 1417.9 346.197 1418.1 345.891C1418.3 345.576 1418.52 345.351 1418.73 345.155C1418.79 345.096 1418.92 345.112 1419.04 345.137C1419.17 345.161 1419.42 345.387 1419.73 345.706C1420.18 346.172 1420.6 346.723 1420.66 346.889C1420.7 346.995 1420.66 347.024 1420.61 347.024C1420.35 347.016 1420.25 347.202 1420.41 347.378C1420.46 347.427 1420.56 347.474 1420.47 347.434C1420.32 347.378 1420.24 347.36 1420.2 347.355H1420.17V347.353L1419.96 347.366H1419.96H1419.97L1419.98 347.36C1420.01 347.355 1420.04 347.342 1420.08 347.322C1420.1 347.313 1420.12 347.303 1420.13 347.29C1420.14 347.285 1420.15 347.279 1420.16 347.272L1420.15 347.281C1420.09 347.348 1420.1 347.501 1420.15 347.594C1420.18 347.627 1420.18 347.848 1420.42 348.332C1420.53 348.559 1420.75 349.113 1420.68 349.274C1420.58 349.5 1420.41 349.653 1420.22 349.731C1420.07 349.797 1419.91 349.734 1419.76 349.711C1419.76 349.724 1419.76 349.736 1419.75 349.751L1419.76 349.752Z" fill="#FFF2D6"/>
<path d="M1370.16 349.209C1370.25 349.241 1370.33 349.283 1370.39 349.313C1370.42 349.329 1370.46 349.347 1370.46 349.329C1370.45 349.272 1370.36 349.29 1370.3 349.311C1370.24 349.337 1370.16 349.409 1370.16 349.563C1370.16 349.657 1370.2 349.785 1370.27 349.898C1370.34 350.008 1370.43 350.089 1370.51 350.136C1370.67 350.226 1370.7 350.19 1370.62 350.181C1370.6 350.177 1370.58 350.075 1370.55 349.97C1370.52 349.869 1370.5 349.531 1370.49 349.086C1370.47 348.438 1370.51 347.747 1370.61 347.587C1370.67 347.484 1370.73 347.488 1370.8 347.533C1370.95 347.636 1371.11 347.688 1371.31 347.729C1371.52 347.772 1371.77 347.79 1372.1 347.895C1372.28 347.945 1372.51 348.03 1372.56 348.242C1372.63 348.581 1372.7 348.851 1372.75 349.108C1372.79 349.364 1372.8 349.608 1372.7 349.81C1372.56 350.102 1372.48 350.375 1372.26 350.597C1371.9 350.946 1371.52 351.052 1371.23 351.122C1371.11 351.149 1370.92 351.018 1370.6 350.586C1370.45 350.386 1370.17 349.859 1370.14 349.722C1370.1 349.526 1370.1 349.392 1370.1 349.304C1370.1 349.23 1370.16 349.256 1370.18 349.239C1370.18 349.229 1370.17 349.218 1370.16 349.205L1370.16 349.209Z" fill="#FFF2D6"/>
<path d="M1363.53 297.099C1363.3 296.98 1363.12 296.825 1362.97 296.669C1362.89 296.586 1362.82 296.494 1362.72 296.442C1362.47 296.298 1362.22 296.1 1362.02 295.812C1361.82 295.529 1361.69 295.13 1361.71 294.755C1361.73 294.296 1361.89 293.888 1362.14 293.567C1362.39 293.245 1362.73 292.988 1363.15 292.831C1363.28 292.784 1363.44 292.844 1363.59 292.923C1363.73 292.998 1363.83 293.337 1363.87 293.778C1363.9 294.1 1363.9 294.435 1363.91 294.708C1363.91 294.746 1363.91 294.78 1363.91 294.809C1363.91 294.813 1363.91 294.815 1363.91 294.818C1363.91 294.833 1363.92 294.843 1363.92 294.863C1363.94 294.903 1363.96 294.948 1363.98 294.973C1364 294.998 1364.01 295.002 1364 294.993C1363.99 294.987 1363.97 294.978 1363.95 294.969C1363.92 294.955 1363.88 294.944 1363.85 294.941C1363.84 294.939 1363.81 294.941 1363.81 294.941C1363.8 294.941 1363.79 294.941 1363.8 294.941C1363.8 294.941 1363.81 294.939 1363.81 294.937C1363.84 294.93 1363.91 294.896 1363.94 294.861C1363.98 294.833 1363.98 294.813 1363.98 294.829C1363.97 294.843 1363.95 294.896 1363.95 294.946C1363.95 294.969 1363.92 295.196 1364.12 295.695C1364.21 295.927 1364.4 296.494 1364.34 296.647C1364.25 296.865 1364.1 297.007 1363.94 297.079C1363.8 297.142 1363.67 297.079 1363.54 297.056C1363.54 297.068 1363.54 297.081 1363.53 297.095L1363.53 297.099Z" fill="#FFF2D6"/>
</g>
<defs>
<clipPath id="clip0_1714_44250">
<rect width="1440" height="352" fill="white"/>
</clipPath>
<clipPath id="clip1_1714_44250">
<rect width="89.4611" height="88.6831" fill="white" transform="translate(1323.83 13) rotate(21.725)"/>
</clipPath>
</defs>
</svg>
