<svg width="60" height="58" viewBox="0 0 60 58" fill="none" xmlns="http://www.w3.org/2000/svg">
<g clip-path="url(#clip0_1656_28379)">
<path d="M23.9625 30.8987L24.8379 31.3959C25.1308 31.5599 25.4366 31.6998 25.7353 31.8534L26.1859 32.0793C26.3375 32.1516 26.4931 32.2151 26.6465 32.2834L27.571 32.6859C28.2017 32.9157 28.8231 33.1776 29.4682 33.3641L29.9483 33.5164C30.1081 33.5685 30.2682 33.6192 30.4315 33.6573L31.4056 33.9084C31.5673 33.9545 31.7319 33.9842 31.8961 34.0164L32.3885 34.1139L32.8811 34.2117C33.0454 34.2438 33.2115 34.2591 33.3767 34.2838C33.7075 34.3273 34.0382 34.3771 34.3695 34.4165L35.3655 34.4881C35.6887 34.5151 36.013 34.5241 36.3371 34.5153C36.658 34.5099 36.9794 34.4881 37.3002 34.4561C37.9427 34.3882 38.579 34.2703 39.2035 34.1033C40.5175 33.7654 41.749 33.1586 42.8219 32.3202C43.3315 31.9127 43.7777 31.43 44.1455 30.8884C44.4979 30.3602 44.7511 29.7708 44.8925 29.1498C44.9142 29.0645 44.9316 28.9781 44.9448 28.8911L44.9862 28.6297L44.9907 28.601C45.0194 28.4203 45.0983 28.2515 45.2184 28.1145C45.3384 27.9775 45.4946 27.8779 45.6686 27.8274C45.8425 27.777 46.0271 27.7777 46.2007 27.8296C46.3743 27.8814 46.5297 27.9822 46.6487 28.1201C47.4618 29.063 48.6683 29.6323 49.9516 29.783C51.2537 29.9331 52.571 29.7022 53.7472 29.1176C54.322 28.8327 54.8481 28.4568 55.3058 28.0042C55.5317 27.779 55.7357 27.5325 55.915 27.2679L56.0588 27.072C56.1032 27.0041 56.1412 26.9317 56.183 26.862C56.2621 26.7196 56.3538 26.585 56.4248 26.4378C56.7175 25.8472 56.9338 25.2209 57.0683 24.5745C57.1972 23.9166 57.2508 23.2459 57.228 22.5757C57.1771 21.2222 56.8282 19.8972 56.2067 18.6974C55.8916 18.1058 55.5172 17.5487 55.0892 17.0348C54.6455 16.5205 54.1559 16.0486 53.6266 15.6252C51.4804 13.9342 48.6917 13.0451 45.9191 12.9714L45.9135 12.9713C45.6996 12.9656 45.4927 12.893 45.3211 12.7637C45.1496 12.6343 45.0218 12.4545 44.9553 12.2487C44.8887 12.043 44.8868 11.8215 44.9496 11.6146C45.0125 11.4077 45.1371 11.2255 45.3063 11.0931C45.8448 10.6608 46.2143 10.0493 46.349 9.36738C46.4276 9.00228 46.4585 8.62833 46.441 8.2551C46.421 7.87003 46.3582 7.48846 46.2536 7.11767C46.0507 6.37648 45.6702 5.69737 45.1457 5.14057L45.0488 5.04133L44.9381 4.94314L44.7182 4.74529L44.4826 4.56456C44.4056 4.50175 44.3248 4.44386 44.2407 4.39121L43.9911 4.22689C43.9054 4.17535 43.8162 4.12859 43.7292 4.07874C43.553 3.97979 43.3716 3.89081 43.1857 3.8122C42.0409 3.32465 40.75 3.11427 39.4433 3.07115C38.785 3.05091 38.1261 3.07282 37.4706 3.13675C37.1428 3.14776 36.8177 3.18946 36.4915 3.22191L36.0054 3.29218C35.9243 3.30242 35.8438 3.31756 35.7645 3.33753C35.6831 3.346 35.6023 3.35889 35.5223 3.37616C35.361 3.40446 35.2 3.43401 35.0425 3.47473C34.8844 3.51329 34.7241 3.54715 34.567 3.58902C34.2556 3.67785 33.949 3.78304 33.6485 3.90416C33.0539 4.13125 32.4856 4.42346 31.9538 4.77559C31.8886 4.81893 31.8198 4.85848 31.7572 4.90465L31.5724 5.04657C31.4465 5.13651 31.3258 5.23363 31.2108 5.33746L30.871 5.64844L30.5642 5.98574C30.1837 6.45016 29.8763 6.97115 29.6527 7.53033L29.6493 7.53896C29.5522 7.78183 29.3637 7.97575 29.1253 8.07806C28.8869 8.18037 28.6181 8.18268 28.378 8.08449C28.2802 8.04404 28.1893 7.98819 28.1088 7.919C27.5272 7.41518 26.9344 6.928 26.3276 6.46376C25.7186 6.00357 25.0994 5.56149 24.4657 5.14821C23.8292 4.74059 23.1818 4.35568 22.5185 4.01008C21.8579 3.6691 21.1792 3.36519 20.4856 3.09973C19.7975 2.84415 19.0936 2.63435 18.3785 2.47167C17.6737 2.31816 16.9578 2.22315 16.2377 2.18761C15.521 2.16196 14.8034 2.19806 14.0927 2.29553C13.3873 2.39721 12.6927 2.5644 12.0177 2.79496C11.8468 2.84417 11.688 2.92249 11.5224 2.98402L11.2763 3.08173C11.1948 3.11539 11.1176 3.15755 11.0381 3.19482C10.8811 3.27335 10.7195 3.34398 10.5659 3.42749L10.1126 3.69023C9.523 4.04981 8.97722 4.47827 8.48652 4.96679C8.36179 5.08474 8.25838 5.22159 8.14233 5.34709L7.9726 5.53924L7.8224 5.7464C7.72723 5.88588 7.60671 6.01594 7.52052 6.15515L7.38608 6.36176L7.26306 6.57715C6.93896 7.16971 6.70849 7.8099 6.57999 8.47451C6.47719 8.80752 6.40241 9.14872 6.35647 9.49448C6.30376 9.84336 6.29778 10.1978 6.33869 10.5483C6.39573 11.2486 6.56099 11.9354 6.82846 12.5838C7.368 13.8645 8.33241 14.9048 9.52525 15.4004C9.709 15.4768 9.8655 15.6078 9.97405 15.7761C10.0826 15.9443 10.1381 16.142 10.1331 16.3429C10.1282 16.5438 10.0631 16.7384 9.94644 16.901C9.82977 17.0636 9.66703 17.1866 9.47976 17.2536L9.42387 17.2734C8.86055 17.4732 8.31916 17.7314 7.80834 18.0439C7.68313 18.1261 7.55145 18.1977 7.43124 18.2874L7.06699 18.5497L6.72073 18.8348C6.6035 18.9275 6.50106 19.0372 6.39002 19.1365C5.41321 20.0034 4.6619 21.0997 4.20217 22.3292L4.05445 22.7909L3.94431 23.2622C3.91401 23.4193 3.89826 23.5762 3.8726 23.7337C3.84734 23.891 3.85248 24.0524 3.83927 24.2121C3.82217 24.8611 3.90274 25.509 4.07823 26.1336C4.15918 26.4222 4.25495 26.7063 4.36514 26.9848C4.42385 27.1153 4.48307 27.2423 4.53745 27.3689C4.58835 27.4978 4.66313 27.6084 4.72134 27.7264C4.83596 27.9647 4.98283 28.1649 5.10439 28.3725C5.1707 28.4715 5.24263 28.5619 5.30816 28.6551C5.37016 28.7472 5.4371 28.8358 5.50868 28.9205C5.95651 29.4671 6.46404 29.9608 7.02157 30.3921C7.67862 30.8528 7.67606 31.071 6.90181 30.9883C6.66603 30.9475 6.434 30.887 6.20812 30.8074C6.0753 30.7556 5.93606 30.6893 5.78457 30.6192C5.71019 30.5821 5.62859 30.5496 5.55312 30.5034L5.31901 30.3593C4.53202 29.8564 3.86161 29.1876 3.35358 28.3986C2.54987 27.1785 2.09822 25.7559 2.04932 24.2906L2.04979 23.7244C2.06416 23.5355 2.08285 23.3463 2.10082 23.1572C2.10796 23.0631 2.12117 22.9696 2.14037 22.8772L2.19115 22.6007C2.20924 22.5088 2.22351 22.4158 2.24533 22.325L2.31809 22.0547C2.50581 21.3412 2.78949 20.6571 3.16121 20.0216C3.4751 19.4764 3.84224 18.9644 4.25712 18.4933C4.45508 18.2507 4.68392 18.0392 4.89993 17.8152C5.01348 17.7093 5.13202 17.6088 5.24991 17.508C5.36561 17.4045 5.4887 17.3105 5.61305 17.2185C6.59493 16.4679 7.70047 15.8992 8.87845 15.5387L8.79586 17.0647C7.55975 16.4696 6.53242 15.5074 5.85091 14.3064C5.68369 14.0168 5.53355 13.7174 5.40126 13.4098C5.33254 13.258 5.27598 13.1016 5.21338 12.9475C5.16031 12.7903 5.10319 12.6341 5.05557 12.4754C4.86509 11.8422 4.73887 11.1911 4.67888 10.532C4.64888 10.203 4.64397 9.87352 4.62046 9.54198C4.6086 9.20884 4.61367 8.8753 4.63565 8.54269C4.65181 8.20669 4.70229 7.87329 4.78629 7.5478C4.86319 7.21877 4.95882 6.89451 5.0727 6.57664C5.30154 5.93376 5.6134 5.32431 6.00018 4.76412C6.18711 4.48656 6.3919 4.22176 6.61324 3.97143L6.9442 3.59589C7.06123 3.47783 7.18312 3.36488 7.30275 3.24949C8.2629 2.34225 9.38216 1.62444 10.6029 1.133C11.8018 0.6445 13.064 0.333473 14.3506 0.209523C14.5101 0.188026 14.6705 0.179066 14.831 0.172023L15.3123 0.147428C15.6334 0.139442 15.9549 0.148785 16.2762 0.152331C16.5967 0.178076 16.9185 0.189671 17.238 0.228992L17.7171 0.293019L17.9563 0.32616L18.191 0.371197C19.4392 0.604864 20.6594 0.971442 21.8313 1.46481C23.2376 2.06337 24.5833 2.79851 25.8493 3.65992C27.087 4.50227 28.2663 5.42915 29.3791 6.43408L27.8426 6.82088C27.9354 6.61946 28.0271 6.42053 28.1176 6.22409C28.1621 6.12597 28.2136 6.03132 28.2719 5.94091L28.438 5.66711C29.1267 4.59794 30.0455 3.70017 31.1257 3.04101L31.3201 2.9158L31.5207 2.80497L31.9224 2.5843C32.1951 2.45137 32.469 2.31985 32.7466 2.20235C33.0273 2.09557 33.3039 1.97165 33.5896 1.88522C33.7313 1.8373 33.8738 1.79223 34.0142 1.74012C34.1558 1.69258 34.2993 1.65359 34.4419 1.61004C35.0117 1.43985 35.5913 1.30496 36.1773 1.2061C36.47 1.15994 36.7635 1.11808 37.0577 1.08226C37.2044 1.06016 37.3529 1.05693 37.5005 1.04522C37.6486 1.03359 37.7958 1.02748 37.9426 1.02432C38.5327 1.00226 39.1235 1.01135 39.7127 1.05155C40.3091 1.08741 40.9025 1.16318 41.489 1.27834C42.0858 1.39132 42.6726 1.55293 43.2436 1.7616C43.8245 1.97669 44.3855 2.24339 44.92 2.55856C45.4602 2.88782 45.9624 3.27682 46.4175 3.7184C46.8801 4.1832 47.2698 4.71665 47.5733 5.30033C48.1863 6.46052 48.4569 7.77446 48.3528 9.08576C48.2954 9.76538 48.1133 10.4282 47.816 11.0404C47.5057 11.6736 47.0592 12.2285 46.5092 12.6643L45.9613 10.9845C47.2932 11.0157 48.6165 11.2108 49.9019 11.5655C51.8658 12.1051 53.6928 13.0636 55.2602 14.3766C56.0505 15.0482 56.7495 15.8225 57.3391 16.6795C58.2203 17.9902 58.8071 19.4802 59.0583 21.0448C59.3095 22.6094 59.219 24.2107 58.7932 25.7362C58.4903 26.7675 58.0023 27.7336 57.3538 28.5863C57.03 29.024 56.6561 29.4214 56.2398 29.77C55.8287 30.1178 55.3833 30.4218 54.9105 30.6771C53.3767 31.5054 51.6328 31.8499 49.9037 31.6663C49.4708 31.6212 49.0426 31.5385 48.6237 31.4191C48.1996 31.3022 47.7875 31.1449 47.3927 30.9493C46.9931 30.7537 46.6136 30.5185 46.2598 30.2473C45.9059 29.9719 45.5794 29.6623 45.2848 29.3228L46.7807 28.8645C46.6785 29.6101 46.4609 30.3349 46.1358 31.012C45.8111 31.6785 45.3913 32.2931 44.8899 32.8361C44.402 33.3674 43.8534 33.8381 43.2556 34.2383C42.6714 34.6333 42.0522 34.9725 41.4058 35.2513C40.1283 35.7985 38.7763 36.1472 37.3957 36.2856C37.0518 36.318 36.707 36.3429 36.3609 36.3494C36.1879 36.3539 36.0148 36.3561 35.8414 36.3514C35.6662 36.3518 35.498 36.3406 35.3303 36.3286L34.3208 36.2614C34.152 36.2546 33.9859 36.2269 33.819 36.2065L33.3186 36.1414C32.6484 36.0717 31.9936 35.9207 31.3335 35.7996C31.0051 35.732 30.6823 35.6405 30.3566 35.5619C30.0317 35.4799 29.7052 35.4038 29.3874 35.2974L28.4282 34.9998C28.1095 34.8981 27.7989 34.7722 27.4841 34.6594C26.851 34.4417 26.2432 34.1592 25.6272 33.8986C24.4082 33.3446 23.229 32.7051 22.0982 31.9847C21.523 31.6401 20.9864 31.233 20.4375 30.8466C20.1668 30.6477 19.9101 30.4284 19.6459 30.2202L19.2526 29.9038C19.1231 29.7963 19.0014 29.6785 18.8754 29.5663C17.5958 28.4516 16.4789 27.1591 15.5579 25.7273L16.6514 25.3696C16.6568 25.876 16.5928 26.3806 16.4613 26.8693C16.33 27.3501 16.1275 27.808 15.8607 28.2276C15.3401 29.013 14.6398 29.6597 13.8192 30.1129C12.3356 30.9288 10.6353 31.2503 8.96041 31.0318C8.57907 30.989 8.20896 30.8746 7.86907 30.6946C7.65962 30.5627 7.59435 30.4561 7.65058 30.3865C7.76899 30.2377 8.33374 30.2829 9.41296 30.1961C10.8259 30.0928 12.1822 29.5921 13.3288 28.7506C13.8529 28.3576 14.2806 27.8478 14.5785 27.2607C14.715 26.9816 14.814 26.6852 14.8728 26.3796C14.9258 26.0674 14.9447 25.7503 14.929 25.434C14.9186 25.1929 14.9845 24.9547 15.1169 24.754C15.2494 24.5534 15.4416 24.4005 15.6657 24.3178C15.8897 24.235 16.134 24.2265 16.3632 24.2936C16.5923 24.3607 16.7944 24.4999 16.9401 24.691L16.9913 24.7592L17.5113 25.4498C18.381 26.5483 19.3551 27.5579 20.4196 28.4641C21.5179 29.3789 22.69 30.1992 23.9234 30.9165C23.9361 30.9101 23.948 30.9044 23.9625 30.8987Z" fill="#64748B"/>
<path d="M18.9917 38.7402C19.3669 38.8257 19.7363 38.9358 20.0974 39.0698C21.1563 39.4737 22.1305 40.0758 22.9691 40.8447C23.2626 41.1121 23.5399 41.3972 23.7994 41.6985C24.0955 42.0439 24.3427 42.4291 24.534 42.8432C24.6646 43.1184 24.7643 43.4074 24.8313 43.705C24.9043 44.0116 24.9384 44.3263 24.9326 44.6416C24.9302 44.8047 24.9176 44.9674 24.8946 45.1289C24.8676 45.2944 24.8289 45.4577 24.779 45.6176C24.7286 45.7806 24.6655 45.9393 24.5901 46.0921C24.5123 46.2443 24.4238 46.3905 24.3252 46.5298C23.9442 47.0407 23.4441 47.4485 22.8695 47.7166C22.3695 47.9539 21.8424 48.1275 21.3001 48.2336C19.7661 48.5587 18.1802 48.5382 16.6549 48.1736C16.1469 48.0485 15.6492 47.8841 15.1662 47.6819C14.6214 47.4611 14.1105 47.1631 13.6485 46.797C13.4031 46.5828 13.185 46.3385 12.9993 46.0698C12.7943 45.7895 12.6291 45.4815 12.5087 45.1548L13.5523 45.7741C13.0323 45.8555 12.5051 45.8804 11.9798 45.8484C11.4581 45.8132 10.9414 45.7235 10.4379 45.5809C9.93523 45.4389 9.44896 45.243 8.98739 44.9965C8.75586 44.8742 8.53143 44.7386 8.31521 44.5904L8.14552 44.4735C8.06434 44.4133 7.98774 44.347 7.91637 44.2752C7.79132 44.1485 7.68039 44.0083 7.58558 43.8571C7.41966 43.5875 7.29133 43.296 7.20422 42.9909C7.12193 42.687 7.08349 42.3726 7.09008 42.0576C7.09715 41.7476 7.14889 41.4403 7.24364 41.1455C7.3344 40.8543 7.46553 40.5776 7.63312 40.3237C7.96701 39.8207 8.42353 39.4133 8.95856 39.1408C9.08034 39.0781 9.20529 39.0218 9.33288 38.9723C9.4534 38.9239 9.57726 38.8806 9.70136 38.8384C9.95525 38.7552 10.215 38.6916 10.4784 38.6483C10.8967 38.5742 11.3244 38.5727 11.7431 38.6438C12.1651 38.7145 12.5706 38.8631 12.9394 39.0821C13.226 39.2477 13.4687 39.4809 13.6469 39.7618C13.7091 39.8622 13.7581 39.9705 13.7925 40.0839C13.7846 40.171 13.7829 40.2585 13.7873 40.3459C13.8058 40.635 13.8599 40.845 13.6128 40.8371C13.5325 40.8302 13.454 40.8091 13.3809 40.7748C13.3298 40.7522 13.2802 40.7264 13.2324 40.6974C13.2141 40.6853 13.1939 40.6764 13.1726 40.6712L13.1196 40.652C13.0435 40.6225 12.9696 40.5878 12.8982 40.5481C12.8133 40.5124 12.7307 40.4712 12.651 40.4248C12.4315 40.315 12.2044 40.2213 11.9715 40.1446C11.7343 40.0732 11.4903 40.0274 11.2435 40.0081C10.946 39.9897 10.6474 40.0169 10.358 40.0889C10.2068 40.1255 10.0575 40.1698 9.91075 40.2219C9.83634 40.247 9.76317 40.2791 9.68917 40.3072C9.61692 40.3366 9.56498 40.3673 9.50102 40.396C9.26331 40.5231 9.05719 40.7031 8.89819 40.9225C8.73919 41.1418 8.63144 41.3948 8.58305 41.6623C8.53554 41.9184 8.54778 42.1821 8.61879 42.4325C8.65343 42.5543 8.70254 42.6714 8.76504 42.7812C8.81926 42.8851 8.88827 42.9803 8.96985 43.0639C8.99758 43.0916 9.02884 43.1154 9.06282 43.1348C9.07099 43.1384 9.07888 43.1426 9.08642 43.1474L9.1372 43.177L9.23855 43.2361C9.30502 43.2769 9.37521 43.3118 9.44473 43.3473C9.51381 43.3836 9.58334 43.4188 9.65537 43.4492C9.93817 43.5795 10.2322 43.6831 10.5338 43.7587C10.8677 43.84 11.2076 43.8937 11.5501 43.919C11.8905 43.9461 12.225 43.9559 12.5503 43.9733C12.7865 43.9846 13.0231 43.9774 13.2582 43.9518L13.3385 43.9446C13.529 43.9276 13.7197 43.9755 13.8802 44.0807C14.0407 44.1859 14.1619 44.3423 14.2245 44.5251L14.2644 44.6422C14.283 44.6799 14.2959 44.7198 14.317 44.7575C14.3557 44.8381 14.4069 44.9118 14.4688 44.9758C14.4998 45.0111 14.5327 45.0446 14.5675 45.076C14.6021 45.1101 14.6385 45.1422 14.6766 45.1722C14.7147 45.2049 14.7546 45.2353 14.7961 45.2632C14.8328 45.2973 14.8768 45.3271 14.9176 45.359C15.2927 45.6225 15.7049 45.8271 16.1404 45.9659C17.0677 46.2822 18.034 46.4662 19.0115 46.5128C19.4217 46.5351 19.833 46.5243 20.2416 46.4807C20.6455 46.439 21.0456 46.3647 21.4378 46.2585C21.7876 46.1667 22.1214 46.0212 22.4276 45.827C22.6766 45.672 22.8774 45.4493 23.0072 45.1843C23.2271 44.7509 23.1889 44.1042 22.9337 43.5405C22.9044 43.4689 22.8646 43.4022 22.8309 43.3324C22.7888 43.2681 22.7549 43.1971 22.7084 43.1363C22.6663 43.0724 22.6204 43.0112 22.5711 42.9529C22.5288 42.8975 22.4628 42.8244 22.4013 42.7588C22.1506 42.4891 21.8819 42.2371 21.5972 42.0044C20.463 41.0629 19.0652 40.4382 17.5916 40.3787C16.4188 40.3356 15.2959 40.4466 14.1362 40.4881C14.0568 40.501 13.9754 40.4919 13.9007 40.4618C13.8604 40.4489 13.8591 40.3969 13.8752 40.3427C13.8793 40.3284 13.8845 40.3133 13.8906 40.2974L13.9004 40.2728L13.9057 40.2601L13.9084 40.2537L13.9098 40.2505L13.9105 40.2489L13.9109 40.2481L13.9111 40.2477L13.9129 40.237C13.9287 40.1959 13.9466 40.1486 13.9627 40.0964C13.9797 40.0422 13.9925 39.9867 14.001 39.9305C14.0109 39.8771 14.0083 39.808 14.0162 39.7837C14.0038 39.7681 14.066 39.7303 14.1098 39.697L14.2484 39.5956C14.3423 39.5293 14.4345 39.4561 14.5336 39.394C14.6306 39.3286 14.7331 39.2721 14.8399 39.225C14.9439 39.1718 15.054 39.1311 15.1629 39.0854C15.3799 38.992 15.6079 38.9205 15.8373 38.8478C16.0703 38.7826 16.3067 38.7302 16.5453 38.6908C16.946 38.625 17.3525 38.603 17.7578 38.6253C18.1671 38.6499 18.5747 38.6985 18.9784 38.7709L18.9917 38.7402Z" fill="#64748B"/>
<path d="M3.88838 52.0479C4.54209 52.0146 5.197 52.0824 5.83047 52.2491C6.15706 52.3323 6.47287 52.4395 6.79714 52.5356C7.26795 52.6667 7.7131 52.8784 8.11333 53.1614C8.34926 53.332 8.55675 53.5396 8.72799 53.7763C8.92602 54.0524 9.05767 54.3714 9.11251 54.708C9.16708 55.0545 9.13672 55.4093 9.02409 55.7412C8.92284 56.0385 8.76839 56.3145 8.56846 56.5553C8.22123 56.9657 7.78419 57.2886 7.29203 57.4983C7.01946 57.6184 6.73399 57.7059 6.4414 57.7592C6.299 57.7878 6.1572 57.8072 6.01599 57.8234C5.85954 57.8421 5.70199 57.8499 5.54448 57.8467C5.38992 57.843 5.23404 57.8313 5.092 57.8152C4.9633 57.7998 4.83471 57.7819 4.70624 57.7615C4.44905 57.721 4.19296 57.6657 3.93603 57.6045C3.40502 57.4838 2.89067 57.2976 2.40452 57.0501C2.2766 56.9856 2.15199 56.9146 2.03117 56.8373C1.96994 56.7977 1.90835 56.7602 1.8487 56.7155L1.75884 56.6505L1.71405 56.6178L1.65702 56.5702C1.34584 56.3152 1.11782 55.9714 1.00267 55.5834C0.938631 55.3568 0.921544 55.1194 0.952487 54.8858C0.98343 54.6523 1.06174 54.4278 1.18249 54.2263C1.27127 54.0641 1.41644 53.9411 1.58984 53.8811C1.66066 53.8592 1.73469 53.8499 1.80864 53.8537C1.87928 53.8598 1.94859 53.8768 2.01424 53.9038C2.09617 53.9426 2.16965 53.9975 2.23041 54.0652C2.29117 54.133 2.33799 54.2123 2.36815 54.2986C2.42406 54.42 2.45638 54.5513 2.46337 54.6851C2.45845 54.7973 2.44704 54.9091 2.4292 55.02C2.42203 55.0839 2.42826 55.1486 2.44748 55.21C2.46671 55.2713 2.49849 55.3279 2.54076 55.3759C2.55182 55.3882 2.56549 55.3984 2.57708 55.4107C2.58334 55.4175 2.58996 55.4239 2.59691 55.43L2.63196 55.4559C2.67826 55.492 2.72634 55.5256 2.776 55.5568C2.87722 55.6227 2.98326 55.6806 3.0932 55.7302C3.56512 55.9336 4.0742 56.034 4.58711 56.0246C4.73265 56.0227 4.88174 56.0106 5.02856 56.0048C5.10165 56.0032 5.17494 56.0004 5.24645 56.0053C5.30394 56.0081 5.36121 56.0145 5.41791 56.0245C5.5022 56.04 5.58788 56.0464 5.6735 56.0435C5.71054 56.0433 5.76566 56.0348 5.81456 56.0286C5.86439 56.023 5.91386 56.0145 5.96273 56.0032C6.15188 55.9619 6.33582 55.8992 6.51108 55.8163C6.79714 55.6859 7.04801 55.4878 7.24252 55.2388C7.287 55.1852 7.31778 55.1213 7.33215 55.0529C7.34361 55.0011 7.34001 54.9471 7.3218 54.8974C7.24083 54.7247 7.11199 54.5794 6.95093 54.4793C6.49729 54.1824 5.98721 53.9848 5.45352 53.8993C5.1729 53.8472 4.88839 53.8194 4.60309 53.8162C4.32192 53.8171 4.04145 53.8445 3.76529 53.898C3.657 53.9222 3.54583 53.9343 3.43725 53.9524C3.38216 53.9596 3.32565 53.9636 3.26812 53.9661C3.21029 53.972 3.15214 53.9742 3.09403 53.9726C2.97178 53.9674 2.85022 53.9679 2.71861 53.96L2.30273 53.9288C2.23565 53.9264 2.17015 53.9076 2.11189 53.8739C2.05362 53.8402 2.00435 53.7926 1.96833 53.7353C1.93231 53.678 1.91063 53.6127 1.90516 53.5451C1.89969 53.4774 1.91059 53.4094 1.93692 53.3469L2.00213 53.1787C2.02836 53.1297 2.06019 53.084 2.09696 53.0426C2.16532 52.9567 2.23794 52.8711 2.31457 52.7872C2.39438 52.7099 2.47779 52.6341 2.56481 52.5596C2.65336 52.4912 2.7476 52.4307 2.84648 52.3788C3.1739 52.2167 3.5276 52.1157 3.89051 52.0809L3.88838 52.0479Z" fill="#64748B"/>
</g>
<defs>
<clipPath id="clip0_1656_28379">
<rect width="59" height="58" fill="white" transform="translate(0.5)"/>
</clipPath>
</defs>
</svg>
