<svg width="40" height="40" viewBox="0 0 40 40" fill="none" xmlns="http://www.w3.org/2000/svg">
<path d="M21.5813 17.772C21.4136 17.9301 21.4245 18.1135 21.7828 18.0995C22.1544 18.085 22.5696 17.9709 22.9805 17.3254C23.283 16.8503 23.763 16.0139 23.9694 15.4944C24.0208 15.3648 24.0614 15.3812 24.0741 15.2411C24.0868 15.101 23.8171 15.1141 23.7211 15.0195C22.9493 15.9401 22.2156 16.7366 21.5813 17.772Z" fill="#051328"/>
<path d="M23.5015 15.8637C25.376 16.5403 27.15 16.6316 28.8956 15.8821C30.6412 15.1327 32.0632 13.6466 32.5777 11.6978C32.751 11.0415 32.9334 10.2981 32.7858 9.63642C32.3831 11.566 31.3321 13.4653 29.7449 14.4595C28.8703 15.0075 27.8441 15.2902 26.8531 15.4596C25.8359 15.6335 24.6552 15.3831 23.6795 15.0756C23.6635 15.3954 23.5913 15.7122 23.468 16.0041M18.8498 9.16548C18.6128 11.2789 19.5274 13.4687 21.1901 14.6019C21.1412 14.2858 20.9912 14.0269 21.0008 13.7062C19.7507 12.2575 19.2744 10.0793 19.7901 8.17073C20.3058 6.26214 22.7662 4.29959 24.5462 3.78711C23.9802 3.95007 22.7225 4.23447 22.1689 4.48766C21.614 4.74146 20.8796 5.28465 20.4389 5.72661C19.5252 6.64309 18.9999 7.82686 18.8498 9.16548ZM13.5399 29.58C15.0325 30.9246 16.6587 32.1555 18.5047 32.9478C20.3507 33.7402 22.441 34.0708 24.3914 33.5895C26.3418 33.1082 28.1179 31.7428 28.8293 29.8641C27.6222 32.0165 24.9002 32.9827 22.4483 32.7033C19.9964 32.424 17.7811 31.1164 15.8135 29.6269C10.0342 25.306 5.74984 18.9791 3.65054 12.0964C3.05582 10.1466 2.71092 8.17261 2.39936 6.16475C1.58729 9.39426 3.00713 13.0813 4.2016 16.0917C5.49313 19.3468 7.2553 22.4155 9.41976 25.1686C10.6648 26.7523 12.0431 28.2316 13.5399 29.58Z" fill="#051328"/>
<path d="M21.6468 18.0887C21.5812 18.0887 21.5153 18.0768 21.4512 18.0523C21.2323 17.97 21.0904 17.7643 21.0895 17.5287C20.9642 16.4976 20.8038 15.2863 20.5023 13.7464C20.231 13.4595 19.9846 13.147 19.769 12.816C18.6547 11.0984 18.5858 8.76297 19.5931 6.86467C20.2954 5.53233 21.4768 4.51072 23.0095 3.91075C24.4814 3.32509 26.1522 3.19329 27.7124 3.54456C28.5405 3.72766 29.3017 4.04076 29.9754 4.47553C31.5501 5.49297 32.6681 7.27021 32.8929 9.11484C32.9719 9.73926 32.9472 10.3565 32.8195 10.9475C32.3231 13.2639 30.2915 15.1986 27.7648 15.761C26.9669 15.9417 26.1468 16.0031 25.3295 15.9405C24.8777 15.9047 24.4737 15.8427 24.0917 15.7497C24.0499 15.7401 24.001 15.727 23.9503 15.7127C23.8752 15.6918 23.7341 15.6471 23.6882 15.6614C23.6003 15.7383 23.3963 16.0276 23.2743 16.2005L23.1828 16.3294C23.0602 16.5023 22.9454 16.6735 22.833 16.8411C22.5956 17.1947 22.3714 17.5281 22.0783 17.8859C21.9599 18.0195 21.8048 18.0887 21.6468 18.0887ZM21.9969 17.4279C21.9987 17.4428 22.0004 17.4583 22.0022 17.4738C22.0028 17.4589 22.0007 17.4434 21.9969 17.4279ZM25.9626 4.26799C25.0662 4.26799 24.1713 4.43497 23.3456 4.76299C22.0186 5.28244 21.0018 6.15675 20.403 7.29287C19.5484 8.90313 19.6012 10.8748 20.5372 12.3169C20.7441 12.6347 20.9848 12.9335 21.2514 13.2031C21.3143 13.2669 21.3572 13.348 21.3748 13.4357C21.6182 14.6619 21.7741 15.6841 21.8934 16.596C21.9527 16.5089 22.0124 16.42 22.0726 16.3306C22.1889 16.157 22.3079 15.9799 22.4376 15.7968L22.5256 15.6727C22.7471 15.3584 22.9475 15.0847 23.1571 14.9225C23.5162 14.6428 23.9408 14.7597 24.1949 14.83L24.3034 14.8587C24.6419 14.9404 24.9991 14.9952 25.3996 15.0269C26.1251 15.0811 26.8536 15.0269 27.5645 14.867C29.7496 14.381 31.5009 12.7284 31.9241 10.7549C32.0299 10.2647 32.0499 9.75119 31.9837 9.22756C31.7908 7.64415 30.8309 6.11858 29.4786 5.24487C28.8965 4.86974 28.2354 4.59839 27.5135 4.43855L27.5126 4.43796C27.0044 4.32464 26.4832 4.26799 25.9626 4.26799Z" fill="#051328"/>
<path d="M25.8646 13.0681C25.8589 13.0681 25.8533 13.0681 25.8473 13.0675C25.5944 13.0585 25.3973 12.8456 25.4066 12.5933L25.6233 6.74336C25.6329 6.48989 25.8383 6.27877 26.0981 6.30262C26.3509 6.31157 26.5481 6.52448 26.5388 6.77675L26.322 12.6267C26.3128 12.8742 26.1097 13.0681 25.8646 13.0681Z" fill="#051328"/>
<path d="M28.9409 10.2435C28.9352 10.2435 28.9292 10.2435 28.9236 10.2429L22.9606 10.0216C22.7077 10.0127 22.5106 9.79977 22.5198 9.54749C22.5294 9.29462 22.7486 9.07396 22.9946 9.10676L28.9576 9.32802C29.2104 9.33697 29.4075 9.54988 29.3983 9.80215C29.3891 10.0497 29.186 10.2435 28.9409 10.2435Z" fill="#051328"/>
<path d="M23.2616 33.4289C22.2537 33.4289 21.2914 33.0734 20.3968 32.6834C14.0253 29.9114 8.63987 24.7323 5.62184 18.4738C4.42906 16.0006 3.58547 13.3592 2.7696 10.8054C2.31784 9.39199 1.75574 7.63264 2.11358 5.92518C2.46574 4.24098 3.60813 3.00645 4.5045 2.26752L4.8015 2.01823C5.90751 1.08369 7.76049 -0.482429 9.13666 0.14378C10.8629 0.929822 11.804 2.40708 12.5504 3.72987C13.3317 5.11469 14.1681 6.72196 14.203 8.27913C14.2406 9.96691 13.1778 10.6396 11.9901 11.233C11.0227 11.7161 9.95699 11.8575 8.97295 11.9439C10.0157 17.6979 14.0127 22.8746 19.3143 25.3389C19.6313 24.3572 20.0235 23.3016 20.7418 22.4279C21.5398 21.4576 22.9759 20.6518 24.386 21.0371C25.4473 21.3281 26.1698 22.1565 26.8772 23.0523C27.6286 24.0053 28.3356 25.0049 28.9779 26.0241C29.3772 26.6581 29.7688 27.3415 29.789 28.1234C29.8257 29.5231 28.7755 30.9795 27.7184 31.8019C26.4627 32.7782 25.0018 33.3382 23.4938 33.4223C23.4163 33.4265 23.3388 33.4289 23.2616 33.4289ZM5.08718 2.97484C4.30412 3.62014 3.30785 4.68887 3.00995 6.11245C2.70191 7.58374 3.20139 9.14747 3.64212 10.5263C4.44844 13.0502 5.28219 15.66 6.44724 18.0754C9.37134 24.1395 14.5889 29.1575 20.7624 31.8437C21.6224 32.2176 22.5405 32.5593 23.4432 32.5075C24.7642 32.4341 26.0482 31.9403 27.156 31.0791C28.0028 30.4201 28.9013 29.2214 28.8736 28.1473C28.8593 27.5974 28.5482 27.0606 28.2032 26.5131C27.5776 25.5208 26.8897 24.5474 26.1579 23.6201C25.549 22.8483 24.9368 22.138 24.1442 21.9209C23.1289 21.6418 22.0592 22.268 21.4491 23.01C20.7326 23.8813 20.3667 25.043 20.0437 26.0682C20.0047 26.1923 19.8961 26.3146 19.7774 26.3682C19.6609 26.4219 19.4992 26.4225 19.3814 26.373C13.4432 23.8097 8.97355 18.0247 7.99249 11.6344C7.9734 11.5098 8.01306 11.3571 8.09059 11.2575C8.16842 11.1579 8.30768 11.0816 8.43382 11.0696C9.4608 10.9867 10.619 10.8937 11.5807 10.4136C12.8036 9.80231 13.3111 9.37351 13.2869 8.29941C13.2568 6.95455 12.4791 5.46775 11.7524 4.17955C10.8906 2.6522 10.0888 1.58406 8.75706 0.977533C7.91138 0.589879 6.20988 2.02778 5.39283 2.7178L5.08718 2.97484Z" fill="#051328"/>
<path d="M36.4879 40.0004C36.4837 40.0004 36.4795 40.0004 36.475 40.0004C35.392 39.9712 34.557 39.8006 33.8476 39.4637C33.4612 39.28 33.118 39.045 32.8302 38.7713C32.4533 38.7862 32.0686 38.745 31.6899 38.6454C30.3507 38.2936 29.3896 37.3531 28.8192 36.6255C28.413 36.1078 28.1351 35.5752 27.9932 35.0587C27.8775 34.9746 27.7674 34.8816 27.6649 34.7796C26.7256 33.8528 26.4915 32.332 27.1081 31.1643C27.2262 30.9413 27.5038 30.8542 27.7269 30.9735C27.9505 31.0916 28.0361 31.3689 27.918 31.5925C27.5829 32.2271 27.6157 33.0376 27.9613 33.6662C27.9842 33.5791 28.0126 33.4938 28.046 33.4103C28.2827 32.8205 28.787 32.3142 29.466 31.9838C30.3725 31.543 31.6589 31.5555 32.2583 32.4466C32.5785 32.9219 32.6262 33.5707 32.3829 34.1397C32.1831 34.6067 31.794 35.0152 31.287 35.2913C30.6546 35.6354 29.9136 35.7285 29.2176 35.5907C29.3339 35.7857 29.452 35.9474 29.5399 36.0601C30.0239 36.6767 30.8296 37.4723 31.9225 37.7592C31.9896 37.7771 32.057 37.792 32.1244 37.8051C32.0588 37.6656 32.0045 37.5218 31.9628 37.3745C31.6649 36.3296 32.0632 35.1816 32.9104 34.6448C33.3842 34.3443 34.0078 34.2691 34.5767 34.4409C35.098 34.5989 35.5134 34.9508 35.7155 35.4064C36.0936 36.2581 35.7143 37.2111 35.1701 37.7783C34.8561 38.1057 34.4652 38.358 34.0307 38.5261C34.0987 38.5655 34.1688 38.6019 34.2407 38.6359C34.8308 38.9162 35.5488 39.0587 36.5001 39.0844C36.753 39.0915 36.9522 39.3021 36.9453 39.5549C36.9387 39.8036 36.7351 40.0004 36.4879 40.0004ZM33.963 35.2663C33.7582 35.2663 33.559 35.3188 33.4006 35.419C32.897 35.738 32.6575 36.471 32.8436 37.1234C32.9125 37.3656 33.0348 37.5994 33.2006 37.8147C33.7117 37.7228 34.1742 37.4932 34.509 37.1437C34.8305 36.8091 35.0828 36.239 34.8782 35.7786C34.7494 35.4881 34.4676 35.3653 34.311 35.3176C34.1974 35.283 34.0793 35.2663 33.963 35.2663ZM28.8081 34.4868C29.4356 34.8083 30.2296 34.8232 30.849 34.4868C31.1761 34.3085 31.4218 34.0574 31.5408 33.7795C31.6613 33.498 31.6446 33.1753 31.4985 32.9583C31.2027 32.5187 30.4208 32.5372 29.867 32.8074C29.3926 33.0382 29.0479 33.3733 28.8961 33.7515C28.7998 33.9918 28.7798 34.2423 28.8081 34.4868Z" fill="#051328"/>
</svg>
