<svg width="41" height="43" viewBox="0 0 41 43" fill="none" xmlns="http://www.w3.org/2000/svg">
<path d="M17.3652 22.758L17.8198 23.0169C17.9719 23.1023 18.1307 23.1752 18.2859 23.2552L18.5199 23.3728C18.5986 23.4105 18.6795 23.4435 18.7591 23.4791L19.2393 23.6887C19.5668 23.8084 19.8895 23.9448 20.2246 24.0419L20.4739 24.1212C20.5569 24.1483 20.6401 24.1748 20.7249 24.1946L21.2308 24.3254C21.3148 24.3493 21.4003 24.3648 21.4855 24.3816L21.7413 24.4323L21.9971 24.4833C22.0824 24.5 22.1687 24.508 22.2545 24.5208C22.4263 24.5435 22.5981 24.5694 22.7701 24.59L23.2874 24.6273C23.4552 24.6413 23.6237 24.646 23.792 24.6414C23.9586 24.6386 24.1256 24.6273 24.2922 24.6105C24.6259 24.5752 24.9563 24.5138 25.2807 24.4268C25.9631 24.2509 26.6027 23.9349 27.1599 23.4983C27.4246 23.286 27.6563 23.0347 27.8474 22.7526C28.0304 22.4775 28.1619 22.1706 28.2353 21.8472C28.2466 21.8028 28.2556 21.7578 28.2625 21.7125L28.284 21.5764L28.2863 21.5615C28.3012 21.4673 28.3422 21.3794 28.4046 21.3081C28.4669 21.2367 28.548 21.1849 28.6384 21.1586C28.7287 21.1323 28.8246 21.1327 28.9147 21.1597C29.0049 21.1867 29.0856 21.2392 29.1474 21.311C29.5697 21.802 30.1963 22.0985 30.8628 22.177C31.539 22.2551 32.2232 22.1349 32.834 21.8305C33.1326 21.6821 33.4058 21.4864 33.6435 21.2506C33.7608 21.1334 33.8668 21.005 33.96 20.8672L34.0346 20.7652C34.0577 20.7299 34.0774 20.6921 34.0991 20.6558C34.1402 20.5817 34.1878 20.5116 34.2247 20.4349C34.3767 20.1274 34.4891 19.8012 34.5589 19.4646C34.6259 19.122 34.6537 18.7727 34.6419 18.4237C34.6154 17.7188 34.4342 17.0288 34.1114 16.404C33.9478 16.0959 33.7533 15.8058 33.531 15.5382C33.3006 15.2703 33.0463 15.0246 32.7714 14.8041C31.6568 13.9235 30.2085 13.4605 28.7685 13.4221L28.7656 13.422C28.6545 13.419 28.547 13.3813 28.4579 13.3139C28.3688 13.2466 28.3025 13.1529 28.2679 13.0458C28.2334 12.9386 28.2323 12.8233 28.265 12.7155C28.2976 12.6078 28.3623 12.5129 28.4502 12.4439C28.7299 12.2188 28.9218 11.9004 28.9917 11.5452C29.0326 11.3551 29.0486 11.1604 29.0395 10.966C29.0292 10.7655 28.9965 10.5668 28.9422 10.3737C28.8368 9.98769 28.6392 9.63404 28.3668 9.34408L28.3165 9.29239L28.259 9.24126L28.1448 9.13823L28.0224 9.04411C27.9824 9.0114 27.9405 8.98125 27.8968 8.95384L27.7671 8.86826C27.7226 8.84142 27.6763 8.81707 27.6311 8.79111C27.5396 8.73958 27.4454 8.69325 27.3489 8.65231C26.7543 8.39841 26.0839 8.28885 25.4052 8.26639C25.0633 8.25585 24.7212 8.26726 24.3807 8.30056C24.2104 8.30629 24.0416 8.32801 23.8722 8.34491L23.6197 8.3815C23.5776 8.38683 23.5358 8.39472 23.4946 8.40511C23.4523 8.40953 23.4104 8.41624 23.3688 8.42523C23.2851 8.43997 23.2014 8.45536 23.1197 8.47657C23.0375 8.49664 22.9543 8.51428 22.8727 8.53608C22.7109 8.58234 22.5517 8.63712 22.3956 8.7002C22.0868 8.81846 21.7917 8.97063 21.5155 9.15401C21.4816 9.17658 21.4459 9.19717 21.4134 9.22122L21.3174 9.29512C21.252 9.34196 21.1893 9.39254 21.1296 9.44661L20.9531 9.60855L20.7938 9.78421C20.5962 10.0261 20.4365 10.2974 20.3204 10.5886L20.3186 10.5931C20.2682 10.7196 20.1703 10.8205 20.0465 10.8738C19.9227 10.9271 19.7831 10.9283 19.6584 10.8772C19.6076 10.8561 19.5604 10.827 19.5186 10.791C19.2165 10.5286 18.9086 10.2749 18.5935 10.0331C18.2772 9.79349 17.9556 9.56328 17.6265 9.34805C17.2959 9.13578 16.9597 8.93533 16.6152 8.75536C16.2721 8.57779 15.9197 8.41952 15.5594 8.28128C15.202 8.14818 14.8365 8.03892 14.465 7.95421C14.099 7.87426 13.7272 7.82479 13.3532 7.80628C12.981 7.79292 12.6083 7.81172 12.2392 7.86248C11.8729 7.91543 11.5121 8.0025 11.1615 8.12256C11.0728 8.14819 10.9903 8.18898 10.9043 8.22102L10.7765 8.27191C10.7342 8.28943 10.6941 8.31139 10.6528 8.3308C10.5712 8.3717 10.4873 8.40847 10.4075 8.45196L10.1721 8.58879C9.86589 8.77604 9.58243 8.99917 9.32759 9.25358C9.26281 9.315 9.2091 9.38627 9.14883 9.45163L9.06068 9.55169L8.98267 9.65957C8.93324 9.7322 8.87065 9.79994 8.82589 9.87243L8.75607 9.98003L8.69217 10.0922C8.52385 10.4008 8.40415 10.7342 8.33741 11.0803C8.28402 11.2537 8.24519 11.4314 8.22133 11.6114C8.19395 11.7931 8.19085 11.9777 8.21209 12.1603C8.24172 12.5249 8.32755 12.8826 8.46646 13.2203C8.74668 13.8872 9.24755 14.4289 9.86706 14.687C9.96249 14.7268 10.0438 14.795 10.1001 14.8827C10.1565 14.9703 10.1853 15.0732 10.1828 15.1778C10.1802 15.2825 10.1464 15.3838 10.0858 15.4685C10.0252 15.5532 9.94069 15.6172 9.84343 15.6521L9.81441 15.6624C9.52184 15.7665 9.24067 15.9009 8.97537 16.0637C8.91034 16.1065 8.84195 16.1437 8.77952 16.1905L8.59034 16.3271L8.41051 16.4756C8.34962 16.5238 8.29642 16.5809 8.23875 16.6327C7.73144 17.0841 7.34124 17.655 7.10248 18.2953L7.02576 18.5357L6.96856 18.7812C6.95282 18.863 6.94464 18.9447 6.93131 19.0267C6.91819 19.1087 6.92086 19.1927 6.914 19.2759C6.90512 19.6139 6.94697 19.9513 7.03811 20.2765C7.08015 20.4268 7.12989 20.5747 7.18712 20.7198C7.21761 20.7878 7.24836 20.8539 7.27661 20.9198C7.30304 20.9869 7.34188 21.0446 7.37211 21.106C7.43164 21.2301 7.50792 21.3343 7.57105 21.4425C7.60549 21.494 7.64285 21.5411 7.67688 21.5896C7.70908 21.6376 7.74385 21.6837 7.78102 21.7278C8.01361 22.0125 8.27719 22.2696 8.56675 22.4942C8.90799 22.7341 8.90667 22.8477 8.50455 22.8046C8.3821 22.7834 8.26159 22.7519 8.14428 22.7105C8.0753 22.6835 8.00299 22.649 7.92431 22.6124C7.88568 22.5931 7.8433 22.5762 7.8041 22.5521L7.68251 22.4771C7.27379 22.2152 6.9256 21.8669 6.66175 21.456C6.24434 20.8206 6.00978 20.0798 5.98438 19.3167L5.98462 19.0219C5.99208 18.9235 6.00179 18.825 6.01112 18.7265C6.01483 18.6775 6.02169 18.6288 6.03166 18.5807L6.05804 18.4367C6.06743 18.3888 6.07485 18.3404 6.08618 18.2931L6.12396 18.1524C6.22146 17.7808 6.36879 17.4245 6.56184 17.0936C6.72487 16.8097 6.91555 16.543 7.13101 16.2977C7.23383 16.1714 7.35268 16.0612 7.46486 15.9446C7.52384 15.8894 7.5854 15.8371 7.64663 15.7846C7.70672 15.7307 7.77065 15.6818 7.83523 15.6338C8.34517 15.243 8.91934 14.9468 9.53114 14.759L9.48824 15.5538C8.84626 15.2439 8.31271 14.7428 7.95876 14.1173C7.87192 13.9665 7.79394 13.8106 7.72524 13.6504C7.68954 13.5713 7.66017 13.4899 7.62766 13.4096C7.60009 13.3278 7.57043 13.2465 7.5457 13.1638C7.44677 12.8341 7.38122 12.495 7.35006 12.1517C7.33448 11.9804 7.33193 11.8088 7.31972 11.6362C7.31356 11.4627 7.31619 11.289 7.32761 11.1158C7.336 10.9408 7.36222 10.7672 7.40584 10.5977C7.44578 10.4263 7.49545 10.2575 7.55459 10.0919C7.67344 9.75714 7.83541 9.43976 8.03629 9.14803C8.13337 9.00349 8.23973 8.86559 8.35468 8.73523L8.52657 8.53966C8.58735 8.47818 8.65065 8.41936 8.71279 8.35927C9.21145 7.88681 9.79274 7.513 10.4268 7.25707C11.0494 7.00268 11.7049 6.84071 12.3732 6.77616C12.456 6.76497 12.5393 6.7603 12.6226 6.75663L12.8726 6.74382C13.0394 6.73966 13.2064 6.74453 13.3732 6.74638C13.5397 6.75978 13.7068 6.76582 13.8728 6.7863L14.1216 6.81964L14.2458 6.8369L14.3677 6.86035C15.0159 6.98204 15.6497 7.17294 16.2583 7.42987C16.9887 7.74158 17.6876 8.12441 18.3451 8.573C18.9879 9.01167 19.6004 9.49436 20.1783 10.0177L19.3803 10.2191C19.4285 10.1142 19.4761 10.0106 19.5232 9.90834C19.5462 9.85724 19.573 9.80794 19.6033 9.76087L19.6896 9.61828C20.0472 9.06149 20.5244 8.59397 21.0854 8.2507L21.1864 8.18549L21.2906 8.12778L21.4992 8.01286C21.6408 7.94364 21.7831 7.87515 21.9272 7.81396C22.073 7.75835 22.2167 7.69381 22.3651 7.6488C22.4386 7.62385 22.5127 7.60038 22.5856 7.57324C22.6591 7.54848 22.7336 7.52818 22.8077 7.5055C23.1037 7.41687 23.4047 7.34662 23.709 7.29514C23.861 7.2711 24.0135 7.24931 24.1662 7.23065C24.2424 7.21914 24.3196 7.21746 24.3962 7.21136C24.4732 7.20531 24.5496 7.20212 24.6258 7.20048C24.9323 7.18899 25.2392 7.19372 25.5451 7.21466C25.8549 7.23334 26.1631 7.27279 26.4677 7.33276C26.7776 7.3916 27.0824 7.47576 27.3789 7.58443C27.6807 7.69644 27.972 7.83532 28.2496 7.99945C28.5301 8.17092 28.791 8.3735 29.0274 8.60346C29.2676 8.84551 29.47 9.12331 29.6276 9.42727C29.946 10.0315 30.0865 10.7157 30.0324 11.3986C30.0026 11.7525 29.9081 12.0977 29.7537 12.4165C29.5925 12.7463 29.3606 13.0352 29.075 13.2622L28.7904 12.3874C29.4822 12.4036 30.1694 12.5052 30.837 12.69C31.857 12.9709 32.8058 13.4701 33.6198 14.1539C34.0303 14.5036 34.3934 14.9068 34.6996 15.3531C35.1572 16.0357 35.462 16.8117 35.5924 17.6265C35.7229 18.4413 35.6759 19.2751 35.4547 20.0695C35.2974 20.6066 35.044 21.1097 34.7072 21.5538C34.539 21.7817 34.3448 21.9887 34.1286 22.1702C33.9151 22.3514 33.6838 22.5096 33.4383 22.6426C32.6417 23.0739 31.736 23.2534 30.8379 23.1577C30.6131 23.1343 30.3907 23.0912 30.1731 23.029C29.9529 22.9681 29.7388 22.8862 29.5338 22.7844C29.3263 22.6825 29.1292 22.56 28.9454 22.4188C28.7616 22.2754 28.592 22.1141 28.4391 21.9373L29.2159 21.6986C29.1629 22.087 29.0499 22.4644 28.8811 22.817C28.7124 23.1641 28.4944 23.4841 28.234 23.7669C27.9806 24.0436 27.6956 24.2887 27.3852 24.4971C27.0818 24.7029 26.7602 24.8795 26.4245 25.0247C25.761 25.3096 25.0588 25.4912 24.3418 25.5633C24.1632 25.5802 23.9841 25.5932 23.8044 25.5965C23.7145 25.5989 23.6246 25.6 23.5346 25.5975C23.4436 25.5978 23.3562 25.5919 23.2691 25.5857L22.7448 25.5507C22.6571 25.5472 22.5709 25.5327 22.4842 25.5221L22.2243 25.4882C21.8762 25.4519 21.5362 25.3733 21.1933 25.3102C21.0228 25.275 20.8551 25.2274 20.686 25.1864C20.5172 25.1437 20.3477 25.1041 20.1826 25.0487L19.6845 24.8937C19.5189 24.8408 19.3576 24.7752 19.1941 24.7164C18.8653 24.6031 18.5496 24.4559 18.2297 24.3203C17.5967 24.0317 16.9842 23.6987 16.3969 23.3235C16.0982 23.1441 15.8195 22.9321 15.5344 22.7309C15.3938 22.6273 15.2605 22.5131 15.1233 22.4047L14.919 22.2399C14.8518 22.1839 14.7886 22.1226 14.7232 22.0641C14.0586 21.4837 13.4785 20.8106 13.0002 20.0649L13.5681 19.8786C13.5709 20.1423 13.5377 20.4052 13.4694 20.6596C13.4011 20.91 13.296 21.1485 13.1574 21.367C12.887 21.776 12.5233 22.1128 12.0972 22.3488C11.3266 22.7737 10.4435 22.9411 9.5737 22.8273C9.37565 22.805 9.18343 22.7455 9.00691 22.6517C8.89813 22.583 8.86423 22.5275 8.89343 22.4912C8.95493 22.4138 9.24824 22.4373 9.80874 22.3921C10.5426 22.3383 11.247 22.0776 11.8425 21.6393C12.1147 21.4347 12.3368 21.1692 12.4915 20.8635C12.5624 20.7181 12.6138 20.5638 12.6444 20.4046C12.6719 20.242 12.6817 20.0769 12.6735 19.9122C12.6682 19.7866 12.7023 19.6626 12.7711 19.5581C12.8399 19.4536 12.9397 19.374 13.0561 19.3309C13.1725 19.2878 13.2994 19.2834 13.4184 19.3183C13.5374 19.3533 13.6423 19.4257 13.718 19.5252L13.7446 19.5607L14.0147 19.9204C14.4663 20.4925 14.9723 21.0182 15.5251 21.4902C16.0956 21.9665 16.7043 22.3937 17.3448 22.7673C17.3514 22.7639 17.3576 22.7609 17.3652 22.758Z" fill="#051328"/>
<path d="M14.7831 26.8421C14.978 26.8866 15.1698 26.9439 15.3574 27.0137C15.9073 27.224 16.4133 27.5376 16.8488 27.938C17.0013 28.0773 17.1453 28.2257 17.28 28.3827C17.4338 28.5625 17.5622 28.7631 17.6616 28.9788C17.7294 29.1221 17.7812 29.2726 17.816 29.4276C17.8539 29.5872 17.8716 29.7511 17.8686 29.9153C17.8674 30.0002 17.8608 30.085 17.8489 30.1691C17.8348 30.2552 17.8148 30.3403 17.7888 30.4236C17.7627 30.5085 17.7298 30.5911 17.6907 30.6707C17.6503 30.7499 17.6043 30.8261 17.5531 30.8986C17.3552 31.1647 17.0955 31.377 16.7971 31.5167C16.5374 31.6402 16.2636 31.7306 15.982 31.7859C15.1853 31.9552 14.3617 31.9445 13.5695 31.7547C13.3057 31.6895 13.0472 31.6039 12.7963 31.4986C12.5134 31.3836 12.248 31.2284 12.0081 31.0377C11.8807 30.9262 11.7674 30.799 11.671 30.6591C11.5644 30.5131 11.4787 30.3527 11.4161 30.1825L11.9582 30.505C11.6881 30.5475 11.4143 30.5604 11.1414 30.5437C10.8705 30.5254 10.6021 30.4787 10.3407 30.4045C10.0796 30.3305 9.82704 30.2285 9.58732 30.1001C9.46708 30.0364 9.35052 29.9658 9.23822 29.8886L9.15009 29.8277C9.10793 29.7964 9.06815 29.7619 9.03108 29.7245C8.96613 29.6585 8.90852 29.5855 8.85928 29.5068C8.77311 29.3664 8.70646 29.2146 8.66122 29.0557C8.61848 28.8974 8.59852 28.7337 8.60194 28.5696C8.60561 28.4082 8.63248 28.2482 8.68169 28.0946C8.72883 27.943 8.79693 27.7989 8.88397 27.6667C9.05738 27.4047 9.29448 27.1926 9.57235 27.0507C9.6356 27.018 9.70049 26.9887 9.76676 26.9629C9.82935 26.9377 9.89368 26.9152 9.95813 26.8932C10.09 26.8499 10.2249 26.8168 10.3617 26.7942C10.5789 26.7556 10.801 26.7548 11.0185 26.7919C11.2377 26.8287 11.4483 26.906 11.6398 27.0201C11.7887 27.1063 11.9147 27.2278 12.0073 27.3741C12.0396 27.4264 12.065 27.4828 12.0829 27.5418C12.0788 27.5871 12.0779 27.6328 12.0802 27.6782C12.0898 27.8288 12.1179 27.9382 11.9896 27.934C11.9478 27.9305 11.9071 27.9195 11.8691 27.9016C11.8426 27.8899 11.8168 27.8764 11.792 27.8613C11.7825 27.855 11.772 27.8504 11.761 27.8477L11.7334 27.8376C11.6939 27.8223 11.6555 27.8042 11.6184 27.7836C11.5743 27.765 11.5314 27.7435 11.49 27.7194C11.376 27.6621 11.2581 27.6134 11.1372 27.5734C11.014 27.5362 10.8872 27.5124 10.759 27.5023C10.6045 27.4928 10.4495 27.5069 10.2991 27.5444C10.2206 27.5635 10.1431 27.5866 10.0669 27.6137C10.0282 27.6267 9.99023 27.6435 9.9518 27.6581C9.91427 27.6734 9.8873 27.6894 9.85408 27.7043C9.73062 27.7705 9.62357 27.8643 9.541 27.9785C9.45842 28.0927 9.40246 28.2245 9.37732 28.3638C9.35265 28.4971 9.35901 28.6345 9.39589 28.7649C9.41388 28.8283 9.43938 28.8893 9.47184 28.9465C9.5 29.0006 9.53584 29.0502 9.57821 29.0937C9.59261 29.1081 9.60885 29.1205 9.6265 29.1306C9.63074 29.1325 9.63484 29.1347 9.63875 29.1372L9.66513 29.1526L9.71776 29.1833C9.75228 29.2046 9.78874 29.2228 9.82485 29.2413C9.86072 29.2602 9.89683 29.2785 9.93424 29.2944C10.0811 29.3622 10.2338 29.4161 10.3905 29.4555C10.5639 29.4979 10.7404 29.5258 10.9183 29.539C11.0951 29.5531 11.2688 29.5582 11.4378 29.5673C11.5604 29.5731 11.6833 29.5694 11.8054 29.5561L11.8471 29.5523C11.9461 29.5435 12.0451 29.5684 12.1284 29.6232C12.2118 29.678 12.2747 29.7594 12.3072 29.8546L12.328 29.9156C12.3376 29.9352 12.3443 29.956 12.3553 29.9757C12.3754 30.0176 12.402 30.056 12.4342 30.0894C12.4502 30.1077 12.4673 30.1252 12.4854 30.1415C12.5034 30.1593 12.5223 30.176 12.5421 30.1916C12.5618 30.2086 12.5826 30.2245 12.6041 30.239C12.6232 30.2567 12.6461 30.2723 12.6672 30.2889C12.862 30.4261 13.0761 30.5326 13.3023 30.605C13.7839 30.7696 14.2858 30.8655 14.7934 30.8898C15.0065 30.9013 15.2201 30.8958 15.4323 30.8731C15.6421 30.8513 15.8498 30.8126 16.0535 30.7573C16.2352 30.7095 16.4086 30.6337 16.5676 30.5326C16.6969 30.4519 16.8012 30.3359 16.8686 30.1979C16.9828 29.9722 16.963 29.6355 16.8305 29.3419C16.8152 29.3046 16.7946 29.2699 16.7771 29.2335C16.7552 29.2 16.7376 29.1631 16.7134 29.1314C16.6916 29.0981 16.6678 29.0662 16.6421 29.0359C16.6202 29.007 16.5859 28.9689 16.554 28.9348C16.4237 28.7944 16.2842 28.6631 16.1363 28.5419C15.5472 28.0516 14.8213 27.7263 14.056 27.6953C13.4469 27.6729 12.8637 27.7307 12.2614 27.7523C12.2202 27.759 12.1779 27.7543 12.1391 27.7386C12.1182 27.7319 12.1175 27.7048 12.1258 27.6766C12.128 27.6692 12.1307 27.6613 12.1339 27.653L12.1389 27.6402L12.1417 27.6336L12.1431 27.6303L12.1438 27.6286L12.1442 27.6278L12.1444 27.6273L12.1445 27.6271L12.1454 27.6215C12.1536 27.6002 12.1629 27.5755 12.1713 27.5483C12.1801 27.5201 12.1868 27.4912 12.1912 27.4619C12.1963 27.4341 12.195 27.3981 12.1991 27.3855C12.1926 27.3773 12.2249 27.3577 12.2477 27.3403L12.3197 27.2875C12.3684 27.253 12.4163 27.2149 12.4678 27.1825C12.5181 27.1485 12.5714 27.119 12.6269 27.0945C12.6809 27.0668 12.7381 27.0456 12.7946 27.0218C12.9073 26.9732 13.0257 26.936 13.1449 26.8981C13.2659 26.8641 13.3887 26.8368 13.5126 26.8163C13.7207 26.7821 13.9318 26.7706 14.1423 26.7822C14.3549 26.795 14.5665 26.8203 14.7762 26.858L14.7831 26.8421Z" fill="#051328"/>
<path d="M6.93881 33.7719C7.27832 33.7545 7.61846 33.7898 7.94745 33.8766C8.11707 33.92 8.28109 33.9758 8.4495 34.0258C8.69402 34.0941 8.92521 34.2043 9.13308 34.3517C9.2556 34.4406 9.36337 34.5487 9.4523 34.672C9.55515 34.8157 9.62353 34.9819 9.652 35.1572C9.68035 35.3376 9.66458 35.5224 9.60608 35.6952C9.5535 35.85 9.47328 35.9937 9.36945 36.1191C9.18911 36.3329 8.96213 36.501 8.70653 36.6103C8.56496 36.6728 8.4167 36.7184 8.26474 36.7461C8.19079 36.761 8.11714 36.7711 8.0438 36.7795C7.96255 36.7893 7.88072 36.7933 7.79892 36.7917C7.71865 36.7897 7.63769 36.7837 7.56392 36.7753C7.49708 36.7673 7.4303 36.7579 7.36357 36.7473C7.23 36.7262 7.097 36.6974 6.96356 36.6656C6.68777 36.6027 6.42064 36.5057 6.16816 36.3768C6.10172 36.3432 6.037 36.3062 5.97425 36.266C5.94246 36.2454 5.91047 36.2258 5.87949 36.2026L5.83282 36.1687L5.80956 36.1517L5.77994 36.1269C5.61833 35.9941 5.4999 35.8151 5.4401 35.613C5.40684 35.495 5.39796 35.3714 5.41403 35.2498C5.4301 35.1281 5.47077 35.0112 5.53349 34.9063C5.5796 34.8218 5.65499 34.7578 5.74505 34.7265C5.78183 34.7151 5.82028 34.7103 5.85868 34.7122C5.89537 34.7155 5.93137 34.7243 5.96546 34.7384C6.00801 34.7585 6.04618 34.7871 6.07773 34.8224C6.10929 34.8577 6.13361 34.899 6.14927 34.9439C6.17831 35.0072 6.19509 35.0755 6.19872 35.1452C6.19617 35.2036 6.19024 35.2619 6.18098 35.3196C6.17725 35.3529 6.18049 35.3866 6.19047 35.4186C6.20046 35.4505 6.21696 35.48 6.23892 35.505C6.24466 35.5114 6.25176 35.5167 6.25778 35.5231C6.26103 35.5266 6.26447 35.53 6.26808 35.5331L6.28628 35.5467C6.31033 35.5654 6.3353 35.5829 6.36109 35.5992C6.41366 35.6335 6.46873 35.6637 6.52583 35.6895C6.77093 35.7954 7.03532 35.8477 7.3017 35.8428C7.37729 35.8418 7.45472 35.8355 7.53098 35.8325C7.56893 35.8316 7.607 35.8302 7.64414 35.8327C7.67399 35.8342 7.70374 35.8375 7.73319 35.8427C7.77696 35.8508 7.82146 35.8541 7.86593 35.8526C7.88517 35.8525 7.91379 35.8481 7.93919 35.8449C7.96507 35.8419 7.99076 35.8375 8.01614 35.8316C8.11438 35.8101 8.20991 35.7775 8.30093 35.7343C8.4495 35.6664 8.57979 35.5633 8.68081 35.4336C8.70391 35.4056 8.7199 35.3724 8.72736 35.3367C8.73331 35.3098 8.73144 35.2817 8.72198 35.2558C8.67993 35.1658 8.61302 35.0902 8.52937 35.038C8.29377 34.8834 8.02885 34.7805 7.75168 34.736C7.60594 34.7089 7.45817 34.6944 7.31 34.6927C7.16398 34.6932 7.01831 34.7075 6.87489 34.7353C6.81864 34.748 6.76091 34.7542 6.70451 34.7637C6.6759 34.7674 6.64656 34.7695 6.61668 34.7708C6.58664 34.7739 6.55644 34.775 6.52626 34.7742C6.46277 34.7715 6.39964 34.7718 6.33128 34.7676L6.11529 34.7514C6.08046 34.7501 6.04644 34.7403 6.01618 34.7228C5.98592 34.7052 5.96033 34.6805 5.94162 34.6506C5.92291 34.6208 5.91165 34.5868 5.90881 34.5515C5.90597 34.5163 5.91163 34.4809 5.92531 34.4484L5.95918 34.3607C5.9728 34.3352 5.98933 34.3114 6.00842 34.2899C6.04393 34.2452 6.08164 34.2005 6.12144 34.1568C6.16289 34.1166 6.20621 34.0771 6.25141 34.0383C6.29739 34.0027 6.34634 33.9712 6.39769 33.9442C6.56774 33.8597 6.75144 33.8072 6.93992 33.789L6.93881 33.7719Z" fill="#051328"/>
</svg>
