<svg width="48" height="48" viewBox="0 0 48 48" fill="none" xmlns="http://www.w3.org/2000/svg">
<path id="&#226;&#128;&#156;" d="M0 48V26.8642C0 23.9671 0.329218 21.1358 0.987655 18.3704C1.77778 15.4733 2.89712 12.8395 4.34568 10.4691C5.79424 7.96708 7.63786 5.79425 9.87654 3.95062C12.1152 2.107 14.6831 0.790129 17.5802 0V8.49383C15.8683 9.15227 14.4198 10.2058 13.2346 11.6543C12.0494 12.9712 11.0617 14.5514 10.2716 16.3951C9.48148 18.107 8.88889 19.9506 8.49383 21.9259C8.23045 23.7695 8.16461 25.4815 8.2963 27.0617H16.5926V48H0ZM30.4198 48V26.8642C30.4198 23.9671 30.749 21.1358 31.4074 18.3704C32.1975 15.4733 33.3169 12.8395 34.7654 10.4691C36.214 7.96708 38.0576 5.79425 40.2963 3.95062C42.535 2.107 45.1029 0.790129 48 0V8.49383C46.2881 9.15227 44.8395 10.2058 43.6543 11.6543C42.4691 12.9712 41.4815 14.5514 40.6914 16.3951C39.9012 18.107 39.3086 19.9506 38.9136 21.9259C38.6502 23.7695 38.5844 25.4815 38.7161 27.0617H47.0123V48H30.4198Z" fill="#fedc60"/>
</svg>
