<svg width="40" height="40" viewBox="0 0 40 40" fill="none" xmlns="http://www.w3.org/2000/svg">
<g clip-path="url(#clip0_2744_32396)">
<path d="M3.86539 23.0741C3.8893 23.0969 3.91888 23.1094 3.94646 23.1258C4.10199 23.4433 4.39377 23.6924 4.73658 23.7804C7.51807 22.7962 10.5419 22.655 13.4201 23.2933C13.4794 23.6375 13.477 23.7238 13.5699 23.8456C12.2174 24.4778 11.8374 26.3702 13.1298 27.3803C12.8682 27.6006 12.5749 28.3645 12.7133 29.1035C12.9125 30.1754 13.7418 30.5174 13.8271 30.5954C14.3626 31.1647 14.9562 31.7022 15.4713 32.1366C16.1799 32.7341 16.9619 33.2969 17.8687 33.4819C18.7755 33.6668 19.8335 33.3827 20.3208 32.593C21.7766 33.1871 23.3178 31.9186 23.0357 30.3745C23.3204 30.3299 23.6019 30.2727 23.8815 30.2095C25.1775 32.4956 25.8003 35.1329 25.6439 37.7469C25.6371 37.8621 25.679 37.9705 25.7507 38.0557C25.7468 38.0591 25.7433 38.0628 25.7394 38.0663C25.8269 38.1272 25.5146 37.9095 26.4652 38.5728C31.1326 35.1155 33.8263 29.1641 33.3549 23.3758C36.6736 18.4657 37.4332 12.2355 36.9312 6.28513C36.8076 4.81955 36.4096 2.52925 35.7322 1.44263C35.0605 -0.28109 31.7614 1.02218 29.9933 1.66594C24.7544 3.47616 19.9248 6.47319 16.6971 10.8977C11.0921 12.1276 5.77454 16.9325 3.75251 22.6042C3.69319 22.7695 3.73754 22.9538 3.86539 23.0741ZM18.2508 31.9312C17.9277 32.0113 17.6023 31.9623 17.3339 31.7907L14.0932 29.7151C13.8248 29.5435 13.6434 29.2688 13.5824 28.9416C13.4835 28.4094 13.7274 28.0766 13.8099 27.885C15.4044 29.0709 17.1576 30.1774 19.1276 31.2384C19.0749 31.2974 18.8596 31.7774 18.2508 31.9312ZM21.5497 30.3354C21.2139 30.8353 20.5977 31.023 20.1168 30.7713C17.6484 29.4818 15.5284 28.1348 13.6359 26.6546C12.7752 25.982 13.3479 24.5352 14.4261 24.5352C14.5948 24.5352 14.7636 24.5738 14.9214 24.6556C17.1162 25.7936 19.2794 27.1822 21.351 28.7827C21.8094 29.1369 21.8969 29.8188 21.5497 30.3354ZM26.5515 36.7828C26.5226 34.4143 25.897 32.0663 24.7572 29.9781C27.6071 29.1232 30.1367 27.3249 32.1035 25.022C31.8518 29.3586 29.798 33.7768 26.5515 36.7828ZM30.2824 2.50218C31.2691 2.14415 34.7265 0.831838 34.9352 1.84333C35.1996 3.1236 35.4161 4.93603 35.5296 6.81469C35.9403 13.6116 34.332 18.7794 31.8247 22.4475C29.8629 25.3171 26.1777 27.7456 22.3968 28.676C22.273 28.4505 22.1054 28.2471 21.8923 28.0823C19.7787 26.4496 17.57 25.0323 15.328 23.8701C15.0173 23.7095 14.6829 23.6469 14.353 23.659C14.3629 23.6051 14.3645 23.5487 14.3529 23.4917C12.8705 16.197 17.7956 6.81727 30.2824 2.50218ZM15.9468 12.0037C13.9167 15.2197 13.0965 18.6228 13.2396 21.6553C10.5042 20.9618 7.60677 21.0737 4.9464 21.9828C6.95547 17.3022 11.28 13.3831 15.9468 12.0037Z" fill="#051328"/>
<path d="M29.3211 12.3376C32.1081 12.3376 33.7654 9.38979 32.3954 7.21819C31.6939 6.10436 30.3463 5.41555 29.0314 5.48927C27.8197 5.56299 26.8435 6.25813 26.2826 7.44625C25.3269 9.47218 26.704 12.3376 29.3211 12.3376ZM12.7588 31.7744C12.9413 31.612 12.958 31.3326 12.7956 31.1501C12.6332 30.9675 12.3539 30.9519 12.1713 31.1132C11.2159 31.9621 10.3422 32.9095 9.5739 33.93C9.35355 34.223 9.56607 34.6384 9.92694 34.6384C10.0611 34.6384 10.1942 34.5774 10.2811 34.4622C11.0137 33.4883 11.8471 32.5841 12.7588 31.7744ZM11.4347 38.3364C11.6401 38.4658 11.9138 38.4055 12.0446 38.1976L14.4739 34.332C14.604 34.1253 14.5418 33.8517 14.3351 33.7221C14.1277 33.5908 13.8547 33.6547 13.7252 33.8609L11.2959 37.7265C11.1658 37.9338 11.228 38.2068 11.4347 38.3364ZM16.5051 34.7225L15.8981 38.4136C15.8584 38.6549 16.0219 38.8824 16.2627 38.9221C16.5034 38.9613 16.7314 38.7989 16.7712 38.5576L17.3782 34.8665C17.418 34.6252 17.2544 34.3977 17.0137 34.3579C16.766 34.3165 16.5449 34.4823 16.5051 34.7225Z" fill="#051328"/>
</g>
<defs>
<clipPath id="clip0_2744_32396">
<rect width="34.7949" height="39.5129" fill="white" transform="translate(3)"/>
</clipPath>
</defs>
</svg>
