<svg width="38" height="38" viewBox="0 0 38 38" fill="none" xmlns="http://www.w3.org/2000/svg">
<g clip-path="url(#clip0_2744_32634)">
<path d="M0.756809 5.97404C0.750444 6.00389 0.744632 6.03393 0.739403 6.06415C0.625166 6.72447 0.805384 7.39623 0.938998 8.03833C1.07775 8.7051 1.21611 9.37197 1.35397 10.0389C1.96076 12.9747 2.55783 15.9127 3.13571 18.8549C3.7171 21.8149 4.27921 24.7791 4.81121 27.7493C5.33675 30.6835 5.83308 33.6235 6.28664 36.5708C6.37449 37.1416 6.85848 37.4145 7.36296 37.18C7.40746 37.1594 7.45304 37.1374 7.50404 37.1153C7.58812 37.0789 7.5494 36.9389 7.53695 36.8444C6.35404 27.8714 4.80856 18.1731 2.97579 9.33007C2.80699 8.51563 2.42705 7.83382 2.18261 7.04168C2.04731 6.6032 2.03361 6.03573 1.87879 5.57607C1.81452 5.38523 1.74912 5.1948 1.68136 5.00528C1.65677 4.93649 1.43583 4.52082 1.45315 4.49284C1.16528 4.95686 0.871473 5.43613 0.756809 5.97404ZM34.9123 6.26685C34.8569 6.26685 34.8008 6.25581 34.7471 6.23199C34.5302 6.13613 34.4287 5.87411 34.5197 5.64754C34.5851 5.48545 34.5347 5.10026 34.2746 4.60353C33.8925 3.87326 33.1311 3.06687 32.4151 2.93848C32.1833 2.89723 32.0275 2.66658 32.0669 2.42374C32.1068 2.18031 32.3308 2.01474 32.5582 2.05889C33.5919 2.24364 34.5402 3.25511 35.0216 4.17478C35.392 4.88182 35.4924 5.52786 35.3049 5.99379C35.2362 6.1646 35.0781 6.26685 34.9123 6.26685ZM20.2313 13.5226C20.6775 13.9654 21.0006 14.6155 21.3872 15.1161C20.9231 15.2451 20.4591 15.3741 19.9951 15.503C19.5047 15.6393 19.673 15.2232 19.7573 14.8917C19.8603 14.4865 20.082 13.9116 20.2313 13.5226Z" fill="#051328"/>
<path d="M34.9696 5.74668C35.4902 5.2672 35.9954 4.76933 36.484 4.25421C36.739 3.98539 37.0031 3.68278 37.0432 3.30615C37.0938 2.83188 36.7756 2.40781 36.4562 2.06748C36.0994 1.68716 35.6915 1.3206 35.1933 1.21085C34.683 1.09842 34.1457 1.28131 33.749 1.62283C33.438 1.89062 32.9897 2.40633 33.1449 2.86896C33.3021 3.3372 33.878 3.54594 34.1565 3.9526C34.4908 4.44081 34.7748 5.18143 34.9696 5.74668ZM9.68458 33.4571C9.50066 33.7046 9.78075 34.0064 10.0067 34.132C16.9474 32.3726 24.3377 30.6151 31.3971 29.4874C31.5925 29.2261 31.7716 28.8838 31.5865 28.3957C29.0176 28.8839 26.0198 29.2728 23.4509 29.761C18.7482 30.6547 14.1678 31.7218 9.68458 33.4571Z" fill="#051328"/>
<path d="M7.35917 37.1327C7.27321 37.1327 7.18836 37.1054 7.11627 37.0531C7.01811 36.9816 6.95323 36.8701 6.93715 36.7458C6.0615 29.9054 5.19139 23.8773 4.35179 18.8299C4.34679 18.802 4.33903 18.7648 4.3357 18.7195C3.46948 13.5407 2.69309 9.65753 1.96385 6.84971C1.96163 6.84332 1.95996 6.83693 1.9583 6.83053L1.93889 6.76837L1.94111 6.76721C1.93667 6.75966 1.93279 6.7521 1.92891 6.74397C1.86292 6.6057 1.86735 6.43606 1.94499 6.30418C2.11191 6.02183 2.56277 6.05959 2.69143 6.34194C2.70418 6.36518 2.71528 6.39016 2.72359 6.41514L2.74411 6.47673L2.77184 6.56794C2.77628 6.58072 2.78016 6.5935 2.78349 6.60628C3.52161 9.44664 4.30576 13.3676 5.17919 18.5922C5.18363 18.6178 5.18584 18.644 5.18584 18.6695C6.01325 23.6194 6.86395 29.4988 7.7213 36.1578C14.6966 34.7228 21.7972 34.0907 28.6676 33.479L28.7331 33.4732C28.5534 32.3496 28.3693 31.2039 28.1813 30.0402C28.1419 29.7974 28.2983 29.5673 28.5301 29.5261C28.7558 29.4796 28.9815 29.6481 29.0209 29.8915C29.2366 31.226 29.4473 32.5372 29.652 33.8183C29.6758 33.9664 29.627 34.1169 29.5222 34.2191C29.4235 34.315 29.2876 34.3545 29.1556 34.3313L28.7397 34.3679C21.7955 34.9866 14.6145 35.6257 7.59042 37.0944L7.454 37.1217C7.42239 37.1292 7.39078 37.1327 7.35917 37.1327ZM25.7972 13.4826C25.5621 13.4826 25.3713 13.2857 25.3713 13.0393V13.0335C25.3713 12.7872 25.5621 12.5874 25.7972 12.5874C26.0323 12.5874 26.2231 12.7872 26.2231 13.0335C26.2231 13.2799 26.0323 13.4826 25.7972 13.4826Z" fill="#051328"/>
<path d="M9.96319 33.8323C9.87446 33.8323 9.78629 33.8033 9.71253 33.7469C9.61881 33.6755 9.55781 33.5674 9.54173 33.4489C9.54117 33.446 9.54062 33.4431 9.54006 33.4402L6.4434 21.4931L3.80646 12.4445L2.7356 9.10921C2.64798 8.84603 2.5598 8.58401 2.47107 8.32257L2.17272 7.45519C2.12946 7.33028 2.08787 7.2106 2.03907 7.08453C2.00247 6.98867 1.96864 6.89455 1.93703 6.79985C1.92317 6.75919 1.91097 6.71503 1.89932 6.67088C1.88989 6.63718 1.88213 6.60233 1.86882 6.57153C1.80948 6.43501 1.75569 6.28512 1.70412 6.13929L1.32535 5.11505C1.32313 5.10924 1.31759 5.09239 1.3126 5.0767C1.2161 4.9576 1.1856 4.79493 1.23274 4.6462C1.28099 4.49573 1.40133 4.38361 1.54939 4.35049C3.86191 3.84156 5.99254 3.40584 8.06271 3.01949C10.6259 2.53961 13.0931 2.15094 15.6047 1.83083C17.777 1.54732 20.0734 1.3068 22.6233 1.09532L23.8389 1.00005C24.0734 0.988426 24.277 1.16794 24.2931 1.41428C24.3091 1.66003 24.1322 1.87324 23.8976 1.89009L22.687 1.98537C20.1533 2.1951 17.8696 2.43446 15.709 2.71623C13.2118 3.0346 10.7601 3.42094 8.21244 3.89792C6.30475 4.25405 4.34605 4.65201 2.23927 5.11098L2.50213 5.82789C2.54705 5.95396 2.59308 6.0841 2.6441 6.20204C2.6746 6.27292 2.69734 6.3496 2.71841 6.42687L2.74115 6.50472C2.76832 6.5878 2.79771 6.66914 2.82877 6.75047C2.8809 6.88468 2.92637 7.01481 2.97351 7.15018L3.27352 8.02279C3.36281 8.28655 3.45209 8.55089 3.53971 8.81582L5.42522 14.8288L8.70545 26.6289L10.2676 32.8156C15.1633 31.1994 20.303 30.2419 25.2785 29.3153C26.3194 29.1213 27.3587 28.9278 28.3924 28.7291C29.2059 28.5717 30.0194 28.4101 30.8291 28.244C29.5154 23.4405 28.0585 18.2618 26.6488 13.2492L26.4054 12.3847C26.3388 12.1483 26.468 11.9002 26.6937 11.8305C26.9178 11.7625 27.1562 11.8967 27.2228 12.1326L27.4657 12.997C28.912 18.1392 30.4076 23.4562 31.7336 28.3184C31.7547 28.3811 31.7719 28.4357 31.7852 28.4961C31.814 28.6286 31.7835 28.7674 31.7025 28.8738C31.6221 28.9801 31.4996 29.0417 31.3698 29.0417C30.4609 29.2305 29.5043 29.4216 28.5465 29.6064C27.5106 29.8056 26.4703 29.9997 25.4277 30.1937C20.3324 31.143 15.0646 32.1243 10.0946 33.8108C10.0514 33.8254 10.007 33.8323 9.96319 33.8323Z" fill="#051328"/>
<path d="M25.5441 8.14148C25.3594 8.14148 25.1892 8.01483 25.1348 7.81963C24.5492 5.70374 23.9747 3.62445 23.4229 1.61604C23.358 1.37959 23.4884 1.1321 23.7146 1.06412C23.9375 0.996732 24.176 1.13268 24.2414 1.36971C24.7932 3.37696 25.3678 5.45625 25.9534 7.57097C26.0188 7.80743 25.8885 8.05492 25.6628 8.12405C25.6229 8.13567 25.5829 8.14148 25.5441 8.14148Z" fill="#051328"/>
<path d="M19.0509 16.1972C18.9378 16.1972 18.8274 16.1495 18.7465 16.063C18.6433 15.9526 18.6023 15.794 18.6372 15.6441C18.8718 14.6512 19.2295 13.7705 19.6432 12.7515C19.8234 12.307 20.0153 11.8347 20.2122 11.3141C20.2416 11.2357 20.292 11.1683 20.3569 11.1183L33.3481 1.16519C34.4272 0.337313 35.9678 0.799764 36.7281 1.75081C37.1668 2.29982 37.3747 3.08762 37.2854 3.85914C37.2089 4.51738 36.9211 5.06814 36.4758 5.40917L23.7691 15.1445C23.7347 15.1706 23.697 15.1915 23.6566 15.206C22.7393 15.5378 21.5636 15.7423 20.5261 15.923C20.0087 16.013 19.5201 16.0984 19.1441 16.1861C19.113 16.1937 19.082 16.1972 19.0509 16.1972ZM20.9586 11.7626C20.7745 12.2437 20.5959 12.6841 20.4268 13.1006C20.1279 13.8379 19.8589 14.4996 19.6515 15.1735C19.8844 15.1299 20.1318 15.0869 20.3863 15.0428C21.3673 14.872 22.4759 14.6785 23.3194 14.384L35.9734 4.68877C36.2262 4.49472 36.392 4.16183 36.4397 3.75108C36.5007 3.22821 36.3604 2.68152 36.0748 2.32364C35.5735 1.6962 34.516 1.37608 33.8505 1.88559L20.9586 11.7626Z" fill="#051328"/>
<path d="M23.3564 15.2715C23.2599 15.2715 23.1634 15.2378 23.0841 15.1681C22.9033 15.0106 22.8784 14.7294 23.0292 14.54C23.0908 14.4355 23.0725 13.9719 22.9693 13.6831C22.9072 13.5094 22.5817 13.2468 22.3893 13.2143C22.2268 13.1876 22.0942 13.065 22.0477 12.8994C21.9872 12.6833 21.8486 12.4892 21.6678 12.3666C21.4332 12.2069 20.938 12.0349 20.7799 12.064C20.5481 12.1011 20.3324 11.9263 20.3008 11.6817C20.2692 11.4377 20.4322 11.2128 20.6657 11.1797C21.1498 11.1118 21.8569 11.4319 22.1314 11.6172C22.417 11.8112 22.6416 12.0866 22.7802 12.4079C23.2028 12.5793 23.6271 12.9796 23.7668 13.3694C23.8716 13.6622 24.0812 14.6103 23.6836 15.1106C23.5999 15.2169 23.4784 15.2715 23.3564 15.2715Z" fill="#051328"/>
<path d="M22.8709 12.905C22.7384 12.905 22.6081 12.8405 22.5249 12.7197C22.3873 12.5192 22.4306 12.2409 22.6214 12.0969C23.405 11.506 24.2196 10.9006 25.0487 10.2842C27.9341 8.14046 30.917 5.92406 33.4431 3.69431C33.6222 3.5357 33.8917 3.55952 34.0431 3.74776C34.195 3.93599 34.1718 4.21776 33.9921 4.37636C31.4389 6.63052 28.4409 8.85796 25.5417 11.0122C24.7137 11.6274 23.9013 12.2311 23.1194 12.8207C23.0439 12.8777 22.9569 12.905 22.8709 12.905ZM7.05816 9.32447C6.8624 9.32447 6.68605 9.18214 6.6428 8.97357C6.59233 8.73305 6.73818 8.49485 6.96777 8.44256L16.0226 6.37141C16.2472 6.31796 16.4796 6.47076 16.5295 6.71186C16.58 6.95296 16.4341 7.19058 16.2045 7.24286L7.14966 9.31402C7.11916 9.32099 7.08866 9.32447 7.05816 9.32447ZM7.56448 16.044C7.36539 16.044 7.18737 15.897 7.14745 15.6843C7.10142 15.4427 7.2517 15.2079 7.4824 15.1603L16.2267 13.3506C16.4574 13.3035 16.6814 13.4598 16.7269 13.7015C16.773 13.9432 16.6227 14.1779 16.392 14.2255L7.64766 16.0352C7.61993 16.0411 7.59165 16.044 7.56448 16.044ZM9.867 23.1858C9.67181 23.1858 9.49546 23.0441 9.45165 22.8355C9.40118 22.595 9.54592 22.3568 9.77606 22.3039L23.4294 19.1475C23.6545 19.0946 23.8858 19.2457 23.9368 19.4874C23.9872 19.7279 23.8425 19.9661 23.6124 20.0189L9.95907 23.1753C9.92857 23.1823 9.89751 23.1858 9.867 23.1858ZM14.0323 26.7431C13.8282 26.7431 13.6475 26.5885 13.6131 26.3707C13.5743 26.1273 13.7306 25.8978 13.9624 25.8571C15.3976 25.605 16.8229 25.2291 18.1993 24.7393C18.4217 24.6586 18.664 24.7846 18.7394 25.0182C18.8154 25.2517 18.6962 25.505 18.4732 25.584C17.0536 26.0895 15.5834 26.4776 14.1033 26.7367C14.0795 26.7413 14.0556 26.7431 14.0323 26.7431Z" fill="#051328"/>
<path d="M3.13418 18.8553C4.27775 24.6775 5.37848 30.68 6.28509 36.5712C6.37296 37.142 6.85692 37.415 7.36143 37.1805C7.4185 37.1539 7.36655 37.1786 7.50624 37.1118C9.40326 36.8297 11.5668 35.8984 28.7413 34.3681L29.1572 34.3315C29.4564 34.3842 29.7017 34.1179 29.6535 33.8185C29.3114 31.6769 29.1896 30.9308 29.0216 29.8894C29.8153 29.749 30.6072 29.6129 31.3938 29.4873C31.5102 29.3316 31.6189 29.1463 31.6503 28.9197C31.6678 28.9031 31.69 28.8935 31.7048 28.8739C31.7858 28.7676 31.8163 28.6287 31.7875 28.4963C31.7742 28.4359 31.757 28.3813 31.7359 28.3185C30.41 23.4564 28.9143 18.1394 27.468 12.9972L27.3089 12.431L36.4741 5.40917C36.9194 5.06814 37.2072 4.51738 37.2837 3.85914C37.373 3.08762 37.1651 2.29982 36.7264 1.75081C35.9661 0.799764 34.4255 0.337313 33.3464 1.16519L25.7829 6.95992C25.2708 5.10983 24.7673 3.28718 24.2819 1.52205C24.3377 1.19661 24.089 0.98792 23.8412 1.0002C15.9374 1.71376 11.5729 2.14522 1.55171 4.35064C1.32601 4.40112 1.17582 4.63107 1.22157 4.87366C1.01895 5.22079 0.838993 5.58179 0.755254 5.97445C0.552156 6.93017 0.75436 6.73898 3.13418 18.8553ZM28.7346 33.4734C21.7048 34.0993 14.6726 34.7284 7.72286 36.1581C6.86838 29.5213 5.75558 21.6316 4.56214 15.0299L6.44571 21.4933C9.69394 34.0081 9.52907 33.5032 9.6231 33.6418C9.63017 33.8395 9.83182 34.0365 10.0034 34.1318C15.8989 32.6374 22.1171 31.1484 28.183 30.0415C28.3708 31.2048 28.555 32.3501 28.7346 33.4734ZM23.8963 13.9406C23.8273 13.3885 23.7023 13.0767 23.2649 12.7122C24.2744 11.9523 33.5748 5.09342 34.073 4.27076C34.1465 4.38194 34.2153 4.49356 34.273 4.60395C34.5331 5.10067 34.5836 5.48586 34.5181 5.64795C34.4946 5.70655 34.485 5.76734 34.4859 5.82718L23.8963 13.9406ZM19.6843 15.1674C19.6733 15.1694 19.6607 15.1715 19.6498 15.1735C19.6927 15.0341 19.7481 14.8936 19.796 14.7545C19.7648 14.8627 19.7092 15.058 19.6843 15.1674ZM21.227 14.8919C20.9127 14.4397 20.6219 13.9235 20.2484 13.5446C20.2732 13.4828 20.7133 12.3849 20.8372 12.0681C21.0284 12.0694 21.4546 12.2197 21.6706 12.3669C22.1563 12.6962 21.9511 13.1419 22.3921 13.2145C22.5845 13.247 22.9101 13.5096 22.9722 13.6833C23.0612 13.9323 23.0832 14.298 23.0492 14.4647C22.4945 14.6358 21.8621 14.7739 21.227 14.8919ZM32.4574 2.95167C32.8333 3.03315 33.2171 3.29517 33.5522 3.63199C33.1052 3.83367 33.5632 3.95865 25.0496 10.2841C24.8359 10.4429 22.7665 11.9789 22.6054 12.1157C22.3588 11.7483 22.1146 11.5379 21.5306 11.3231L32.4574 2.95167ZM23.5055 1.92132C24.0055 3.74041 24.5231 5.61425 25.0507 7.52084C20.1663 11.2925 20.2923 11.0958 20.2105 11.3141C19.5698 13.0082 18.9732 14.2149 18.6355 15.6441C18.6006 15.794 18.6416 15.9526 18.7448 16.063C18.8499 16.1754 19.0028 16.2201 19.1424 16.1861C19.9415 15.9997 23.3018 15.4985 23.7674 15.1445L26.5784 12.9908L26.6511 13.2493C28.0608 18.2619 29.5177 23.4407 30.8314 28.2441C23.9048 29.6656 16.923 30.6194 10.27 32.8158L8.70776 26.6291L5.42753 14.829L3.54203 8.81597C3.33802 8.19914 2.75312 6.50215 2.74568 6.47699L2.72516 6.41541C2.69375 6.32108 2.74881 6.51387 2.50444 5.82805L2.24158 5.11113C11.4063 3.11458 15.7244 2.63028 23.5055 1.92132Z" fill="#051328"/>
<path d="M7.14966 9.31411L16.2045 7.24295C16.4341 7.19067 16.58 6.95305 16.5295 6.71195C16.4796 6.47085 16.2472 6.31805 16.0226 6.3715L6.96777 8.44265C6.73818 8.49494 6.59233 8.73314 6.6428 8.97366C6.69244 9.21303 6.91831 9.36699 7.14966 9.31411ZM7.4824 15.1604C7.2517 15.208 7.10142 15.4427 7.14745 15.6844C7.19282 15.926 7.41707 16.0836 7.64766 16.0353L16.392 14.2256C16.6227 14.178 16.773 13.9433 16.7269 13.7016C16.6814 13.4599 16.4574 13.3036 16.2267 13.3507L7.4824 15.1604ZM9.867 23.1859C9.89751 23.1859 9.92857 23.1824 9.95907 23.1754L23.6124 20.019C23.8425 19.9662 23.9872 19.728 23.9368 19.4874C23.8858 19.2458 23.6545 19.0947 23.4294 19.1476L9.77607 22.304C9.28055 22.4178 9.3615 23.1859 9.867 23.1859ZM18.1993 24.7394C16.8229 25.2292 15.3976 25.6051 13.9624 25.8572C13.7306 25.8979 13.5743 26.1273 13.6131 26.3708C13.6475 26.5886 13.8282 26.7432 14.0323 26.7432C14.0556 26.7432 14.0795 26.7414 14.1033 26.7368C15.5834 26.4777 17.0536 26.0896 18.4732 25.5841C18.6962 25.5051 18.8154 25.2518 18.7394 25.0183C18.664 24.7847 18.4217 24.6587 18.1993 24.7394Z" fill="#051328"/>
</g>
<defs>
<clipPath id="clip0_2744_32634">
<rect width="38" height="38" fill="white"/>
</clipPath>
</defs>
</svg>
