<svg width="40" height="40" viewBox="0 0 40 40" fill="none" xmlns="http://www.w3.org/2000/svg">
<g clip-path="url(#clip0_2744_21314)">
<g clip-path="url(#clip1_2744_21314)">
<ellipse cx="12.6328" cy="9.7838" rx="8.5" ry="8.21667" fill="#051328"/>
<path d="M33.4959 3.84138C33.0136 3.43225 32.3959 3.25628 31.7799 3.26548C31.7791 3.26556 31.7827 3.26508 31.772 3.2662C29.8948 3.28132 26.5967 5.32727 25.3451 8.48197C24.8838 9.63527 24.5136 10.7417 24.8459 11.9456C25.0646 12.7024 25.6568 13.4906 26.431 13.6739C26.4965 13.7215 26.5718 13.7543 26.6555 13.7585C27.3666 13.7938 27.4589 15.4104 27.3788 16.1242C27.1124 18.6159 25.06 21.2226 22.2991 22.0056C21.414 20.8741 19.9455 20.8326 18.5506 21.1747C16.777 21.6074 15.1141 22.5219 13.7411 23.8199C12.4706 25.0204 10.9764 26.7827 11.0749 28.3607C11.1217 29.1059 11.4029 29.659 11.9723 30.1259C12.545 30.7549 13.3247 31.5735 13.8358 31.9521C14.025 32.093 14.212 32.2223 14.3982 32.3476C13.4234 33.4426 13.4987 35.1344 14.2193 36.3076C15.4353 38.2887 18.5037 39.247 21.861 37.1659C22.0602 37.0419 22.1216 36.7802 21.9982 36.5804C21.8737 36.3817 21.6125 36.3192 21.4127 36.4431C18.4721 38.267 15.9127 37.4427 14.9437 35.8626C14.3871 34.9567 14.3412 33.5987 15.1444 32.8154C18.6746 34.8382 21.3199 33.8602 24.3623 31.2801C29.5237 26.9042 33.4605 21.2167 35.7471 14.8323C36.3099 13.2624 36.8704 11.3955 36.7592 9.45371C36.6451 7.45135 35.1855 4.94812 33.4959 3.84138ZM25.7651 9.82116C25.847 9.56328 26.0363 9.04227 26.1348 8.79629C27.5861 5.13808 32.4199 2.71958 33.3337 5.02894C33.661 5.85638 33.3148 7.17512 32.9927 8.01207C32.0947 10.3465 30.2146 11.9806 27.9428 12.6206C27.5522 12.7394 26.8887 12.9607 26.5523 12.8306C25.849 12.5515 25.2483 11.4398 25.7651 9.82116ZM14.325 24.4375C16.2238 22.6424 18.6362 21.8313 19.9684 21.8313C20.9513 21.8313 21.5913 22.2988 21.8051 22.8274C22.4594 24.4454 19.1129 28.4383 15.0182 29.6487C14.5819 29.7774 13.9882 29.8938 13.5381 29.8367C13.3111 29.8072 12.8128 29.6928 12.6615 29.5856C10.8511 28.3052 12.7132 25.9603 14.325 24.4375ZM34.9469 14.5457C32.7106 20.7898 28.8607 26.3522 23.8122 30.6318C22.5173 31.73 20.9556 32.8735 19.1909 33.0288C17.2462 33.1917 15.0905 32.0541 13.6991 30.7009C17.1657 30.7958 23.4722 25.8313 22.6855 22.7823C25.663 21.8719 27.9242 19.0256 28.2238 16.2166C28.2321 16.1433 28.4059 14.5111 27.7767 13.5576C29.2218 13.1319 30.3858 12.6604 31.6321 11.5118C33.436 9.84431 34.3448 7.43014 34.3155 5.75156C35.2396 6.90731 35.8483 8.4056 35.9103 9.50213C35.878 9.76935 36.1846 11.0928 34.9469 14.5457Z" fill="#051328"/>
<path d="M15.0406 27.8C15.211 27.6387 15.2182 27.3697 15.0572 27.1993C14.6302 26.7511 15.4788 25.8172 15.9282 25.3925C16.0986 25.2315 16.1058 24.9622 15.9448 24.7918C15.7843 24.6211 15.5154 24.6136 15.3438 24.7749C14.4761 25.595 14.0561 26.331 14.0954 26.9627C14.1159 27.2923 14.2288 27.5607 14.4396 27.7837C14.6004 27.9535 14.8693 27.9621 15.0406 27.8ZM7.85818 25.2644C8.0574 25.1401 8.11828 24.8781 7.99432 24.6789C7.8698 24.48 7.6075 24.4183 7.40883 24.5433C6.00279 25.4198 5.76409 27.3868 6.9368 28.5725C7.10198 28.7394 7.37185 28.7404 7.53777 28.5756C7.7049 28.4104 7.706 28.1412 7.54109 27.9743C6.7574 27.1823 6.91163 25.8557 7.85818 25.2644ZM9.80223 26.2195C10.0014 26.0953 10.0623 25.8333 9.93836 25.634C9.41841 24.8007 7.78175 26.7413 9.05626 28.0291C9.13927 28.1132 9.24884 28.1553 9.35841 28.1553C9.73179 28.1553 9.92731 27.7013 9.66056 27.4314C9.30899 27.0757 9.37966 26.4826 9.80223 26.2195Z" fill="#051328"/>
<path d="M6.02789 23.701C6.24371 23.6086 6.34387 23.359 6.25145 23.1432C6.15904 22.9274 5.9078 22.8283 5.69364 22.9196C4.28915 23.5206 3.29914 24.9497 3.23052 26.4757C3.1608 28.0017 4.01744 29.5146 5.36161 30.2407C5.4258 30.2752 5.49498 30.2916 5.56304 30.2916C6.00469 30.2916 6.15151 29.701 5.76558 29.4925C4.71858 28.9275 4.02518 27.7026 4.07942 26.5142C4.13309 25.3258 4.9344 24.1689 6.02789 23.701ZM29.6159 21.6911C29.414 21.5699 29.1533 21.635 29.0327 21.8361C28.7919 22.2359 28.1882 22.9191 27.3764 23.7102C27.1024 23.977 27.2952 24.4395 27.673 24.4395C27.7798 24.4395 27.8872 24.3994 27.9696 24.3189C28.476 23.8255 29.3819 22.9039 29.7609 22.2744C29.8821 22.0735 29.8174 21.8123 29.6159 21.6911ZM26.2469 24.7489C26.0876 24.8861 25.9448 25.0029 25.8297 25.0909C25.6432 25.2334 25.6072 25.5001 25.75 25.6866C25.8926 25.8736 26.1592 25.9086 26.3454 25.7665C26.4716 25.6702 26.6266 25.5432 26.8014 25.3936C26.9791 25.2405 26.9995 24.9722 26.8468 24.7942C26.693 24.6152 26.4246 24.5961 26.2469 24.7489ZM29.6081 7.30377C29.7012 7.33988 29.8233 7.29329 29.9145 7.26739C30.9913 6.96446 31.3283 5.53405 30.6011 5.5449C30.2842 5.54657 29.6579 5.89041 29.4167 6.65199C29.3094 6.98736 29.4374 7.23638 29.6081 7.30377ZM27.3934 9.00249C27.4713 9.03265 27.5735 8.99371 27.6499 8.97202C28.5525 8.7182 28.8347 7.52155 28.2243 7.53073C27.6995 7.53348 27.0942 8.34125 27.2169 8.78653C27.2418 8.87248 27.307 8.96835 27.3934 9.00249ZM30.0121 9.20506C29.9224 9.48551 30.0293 9.69405 30.1722 9.75046C30.2501 9.78065 30.3523 9.74171 30.4287 9.72002C31.4811 9.42387 31.6422 7.90777 30.7198 8.35762C30.3398 8.54743 30.1292 8.83597 30.0121 9.20506ZM28.0191 10.0688C27.9293 10.3495 28.0364 10.5579 28.1792 10.6142C28.2571 10.6444 28.3593 10.6055 28.4357 10.5838C28.9098 10.4504 29.2477 10.0578 29.3252 9.59119C29.4537 8.79965 28.3192 9.12006 28.0191 10.0688ZM17.2649 16.8407C18.1214 17.1932 19.0299 17.4213 19.9422 17.5128C20.2533 17.5482 20.5656 17.5889 20.8641 17.4514C21.448 17.1838 21.5039 16.5325 20.9372 16.1188C20.2685 15.6321 19.8988 15.2173 19.5958 14.765C20.9115 13.1262 21.6794 11.0086 21.536 8.87915C21.1886 3.62201 15.7446 -0.0253276 10.4528 1.36363C9.12574 1.71503 7.84188 2.1071 6.72847 3.03374C0.570414 8.1234 3.57682 16.3716 9.2757 18.0504C11.9557 18.8316 15.0049 18.2846 17.2649 16.8407ZM9.51477 17.2347C6.46008 16.3349 4.21112 13.2603 4.16685 9.92422C4.1303 7.39541 5.32172 5.29953 7.27079 3.68812C8.2525 2.8716 9.43895 2.51135 10.6697 2.18541C15.4578 0.926824 20.3763 4.22928 20.6882 8.93588C20.814 10.8088 20.1473 12.8249 18.7524 14.4515C18.6368 14.5862 18.6174 14.7782 18.7032 14.9335C19.0841 15.6245 19.6463 16.2061 20.2864 16.6941C19.3303 16.6224 18.3339 16.3857 17.3928 15.9716C17.2588 15.913 17.1056 15.9271 16.9844 16.0081C14.877 17.4287 11.9955 17.957 9.51477 17.2347Z" fill="#051328"/>
<path d="M13.2113 10.5549C13.9643 9.82831 13.5523 7.67652 13.5146 6.80906C13.4985 6.41533 13.4797 5.9693 13.3159 5.54292C12.7612 4.08902 11.0471 4.16155 10.4737 5.50252C10.0213 6.56649 10.5655 8.20918 11.0692 9.19443C11.4583 9.98139 11.8363 10.6967 12.4753 10.7865C12.7607 10.8263 13.0143 10.7454 13.2113 10.5549ZM12.2484 11.4279C11.3941 12.2451 12.239 13.8396 13.6053 13.5335C14.2694 13.386 14.6584 12.808 14.5516 12.1285C14.371 10.9783 12.9557 10.7494 12.2484 11.4279Z" fill="white"/>
<path d="M18.8656 15.167L18.0156 16.017L20.2823 16.5837L18.8656 15.167Z" fill="#051328" stroke="#051328" stroke-width="0.566667"/>
</g>
</g>
<defs>
<clipPath id="clip0_2744_21314">
<rect width="40" height="40" fill="white"/>
</clipPath>
<clipPath id="clip1_2744_21314">
<rect width="34" height="37.4" fill="white" transform="translate(3 1)"/>
</clipPath>
</defs>
</svg>
