<svg width="36" height="40" viewBox="0 0 36 40" fill="none" xmlns="http://www.w3.org/2000/svg">
<path d="M17.5925 27.63C17.5938 28.0567 17.6025 28.4811 17.6075 28.9071C17.555 28.8907 17.5024 28.8859 17.4502 28.8642C17.2415 28.7781 17.1023 28.6676 17.0582 28.5527C16.9631 28.3039 16.6875 28.184 16.4443 28.2782C15.8203 28.5273 16.1828 29.6366 17.6194 29.9142C17.6226 30.0869 17.6216 30.2614 17.6255 30.4338C17.6313 30.697 17.8424 30.9055 18.0992 30.9055C18.1029 30.9055 18.1066 30.9055 18.1103 30.9055C18.3721 30.8992 18.5795 30.6788 18.5736 30.4124C18.5698 30.2436 18.5708 30.0729 18.5676 29.9038C19.714 29.6592 20.5592 28.5047 19.869 27.6162C19.4324 27.0536 19.0899 26.9602 18.5426 26.8423C18.5434 26.5141 18.5487 26.1876 18.5517 25.8599C18.7941 25.983 19.0023 26.1824 19.1251 26.4316C19.2424 26.6703 19.5276 26.7664 19.7612 26.647C19.9955 26.5271 20.0899 26.2375 19.9727 25.9995C19.6926 25.4307 19.1594 25.0095 18.5612 24.8471C18.5641 24.6689 18.5627 24.489 18.5662 24.3111C18.5714 24.0448 18.3634 23.8244 18.1017 23.8187C17.8532 23.7873 17.6233 24.0254 17.6181 24.291C17.6146 24.466 17.616 24.6432 17.6131 24.8186C16.4083 25.0572 15.785 26.0743 16.1508 26.8241C16.4258 27.3857 17.0237 27.5129 17.5925 27.63ZM19.1251 28.2141C19.1628 28.2625 19.1943 28.3196 19.1341 28.4358C19.0256 28.6451 18.8106 28.8179 18.556 28.9138C18.5517 28.5515 18.5448 28.1904 18.5432 27.8275C18.569 27.834 18.5951 27.8373 18.6208 27.8442C18.8224 27.8976 18.9542 27.9943 19.1251 28.2141ZM17.1665 26.0729C17.2908 25.9525 17.4427 25.8665 17.6039 25.8082C17.6012 26.0874 17.5971 26.3656 17.5961 26.6452C17.3801 26.5987 17.0623 26.5215 16.9996 26.3939C16.9591 26.3065 17.0948 26.1426 17.1665 26.0729ZM3.77909 34.6571C3.74637 34.9215 3.93063 35.1627 4.1905 35.196C4.45296 35.2289 4.68763 35.0397 4.71981 34.7777C4.8695 33.5642 4.81673 32.3438 4.56241 31.1492C4.50686 30.8898 4.25501 30.7265 3.99884 30.7799C3.74298 30.8364 3.58033 31.0933 3.63588 31.354C3.86705 32.4412 3.91551 33.5523 3.77909 34.6571ZM32.0524 22.4953C32.0117 22.7585 32.1882 23.006 32.4468 23.0474C32.7163 23.088 32.9495 22.9004 32.9888 22.6461C33.1592 21.5475 33.0984 20.3994 32.8135 19.3266C32.7447 19.0684 32.4857 18.9139 32.232 18.9868C31.9793 19.0559 31.8299 19.3209 31.8981 19.5778C32.1487 20.5212 32.2018 21.5299 32.0524 22.4953ZM28.5327 5.57699L30.4836 5.33705C30.7435 5.30565 30.9287 5.06509 30.8975 4.80066C30.8663 4.53623 30.633 4.34404 30.37 4.37984L28.4191 4.61977C28.1593 4.65118 27.9741 4.89173 28.0053 5.15616C28.0371 5.42467 28.2782 5.60987 28.5327 5.57699ZM28.4534 1.47428C28.2608 1.29464 27.9605 1.30783 27.7836 1.5038L26.6306 2.78448C26.3491 3.09741 26.5748 3.59284 26.9803 3.59284C27.3419 3.59284 27.3757 3.3132 28.4824 2.15576C28.6593 1.95916 28.6463 1.65454 28.4534 1.47428ZM24.8859 0.459903L24.8176 1.89384C24.805 2.16015 25.0068 2.38627 25.2683 2.39883C25.5094 2.41771 25.7515 2.2196 25.7645 1.94032L25.8328 0.506382C25.8454 0.240699 25.6439 0.0145851 25.3825 0.00139518C25.1164 -0.019332 24.8985 0.193592 24.8859 0.459903Z" fill="#051328"/>
<path d="M0.192143 17.1775C0.165376 18.1002 0.140548 16.4471 0.295033 23.4011C0.220172 23.9018 0.594361 24.2064 0.705573 24.6327C0.613023 37.6384 0.632621 35.189 0.618935 36.0245C0.54185 36.7167 0.573115 37.645 0.789464 38.2355C0.991044 38.7858 1.3701 39.1401 1.97084 39.3997C2.95432 39.8247 3.29368 39.6959 33.0988 39.9626C34.0271 39.9709 35.034 40.3162 35.3722 38.7372C35.3938 38.6985 35.4214 38.6658 35.4386 38.6227C35.543 38.3596 35.4587 37.9749 35.4587 37.8276C35.5775 23.9032 35.6082 24.9968 35.5599 24.8023C35.6738 24.7127 35.7555 24.5761 35.8017 24.4416C35.8475 24.3073 35.8114 24.3267 35.8362 23.7055C35.8121 18.1007 35.6404 18.6972 35.628 17.3999C35.6211 16.6864 35.6673 16.4301 35.5366 16.1066C35.5127 15.9209 35.3888 15.7711 35.2158 15.7137C34.9782 15.5676 34.6965 15.5625 34.4362 15.566C34.0726 15.5687 33.3602 15.5191 32.3041 15.4926C30.7494 15.4506 29.1525 15.4442 27.5539 15.4538L27.5799 14.1497C27.5851 13.883 27.3724 13.6605 27.101 13.6579L26.5728 13.6541C26.5651 13.3806 26.558 13.1069 26.5489 12.8338C26.4678 10.4739 26.5215 10.059 26.5218 9.93204C26.5473 9.26061 26.5859 8.24498 25.5467 7.85996C24.523 7.48085 23.5056 7.62628 22.5237 7.63887C13.2803 7.75776 10.8965 7.40439 9.97296 8.88897C8.749 10.0965 9.92838 11.674 9.69656 13.0886C9.21418 13.005 8.75111 13.3845 8.56461 13.8283C8.37806 14.2785 8.39738 14.7866 8.42953 15.2754C6.85848 15.3266 6.25297 15.3597 4.83088 15.4177C4.08296 15.3923 3.40966 15.396 2.26129 15.4923C1.27875 15.5085 0.737018 15.4581 0.418336 15.7273C0.0082674 16.0737 0.205451 16.7202 0.192143 17.1775ZM13.154 14.4669L13.139 15.2231L9.79749 15.2476L9.8135 14.4424L13.154 14.4669ZM12.3136 26.9993C12.6525 31.1781 17.9897 33.6622 21.4446 31.3827C22.8474 30.456 23.7435 28.8005 23.8832 27.077L33.1816 27.138C33.4023 27.138 33.5261 27.0005 33.6165 26.8912C33.6852 26.8343 34.3494 26.1624 34.6084 25.8838C34.5508 35.2499 34.4341 38.1848 34.5423 38.266C34.3325 38.781 8.03571 38.2945 4.63452 38.1894C3.80164 38.1667 2.48474 38.3167 2.26942 37.6322C2.10556 37.1134 2.23923 36.4597 2.22765 35.8095L2.04825 25.835C2.27507 26.1508 2.50209 26.4662 2.72699 26.7832C2.86077 26.9716 3.12677 27.0369 3.33185 26.9396L12.3136 26.9993ZM14.7789 23.0806C17.3509 20.6715 22.0153 22.1683 22.8176 25.5515C23.2655 27.4389 22.4643 29.5524 20.9126 30.5775C17.9592 32.5307 13.1979 30.1844 13.2567 26.5363C13.2771 25.2638 13.8603 23.9398 14.7789 23.0806ZM34.6041 16.5313C34.982 21.7092 34.8602 24.0133 34.8602 24.142C34.7944 24.2184 34.2377 24.9092 33.3662 25.7807C33.3365 25.8111 33.0113 26.1408 32.9762 26.172L23.8767 26.1122C23.4667 21.4355 17.4107 19.2971 14.1197 22.3758C13.1337 23.2984 12.4735 24.6655 12.3262 26.0346L3.33593 25.9754C1.43015 23.2998 1.53036 23.6155 1.57411 23.068C1.89819 16.2104 1.6994 17.0669 1.86084 16.6005C2.10256 16.286 28.4637 16.4435 34.6041 16.5313ZM14.0984 15.5082C14.0853 14.1268 14.232 13.9001 13.9919 13.6516C13.7855 13.4402 13.5353 13.5255 13.2953 13.5033C13.2953 12.9728 13.2953 11.8829 13.2953 11.3177L23.2303 11.1125L23.309 13.6308L22.7909 13.6271C22.5284 13.6271 22.3139 13.8997 22.3086 14.1623L22.2811 15.5366C19.6728 15.5971 21.5046 15.5373 14.0984 15.5082ZM26.5903 15.3757L23.2488 15.3996L23.2648 14.595L26.6054 14.6189L26.5903 15.3757ZM20.1815 8.61681C24.1074 8.61053 24.3862 8.45832 25.2113 8.76442C25.5448 8.88815 25.5869 9.12934 25.5577 9.89561C25.561 11.0661 25.4831 9.31191 25.6073 13.6472L24.5481 13.6397C24.4452 10.6141 24.6135 10.799 24.4234 10.4081C24.0339 9.60571 23.0122 9.83054 21.5611 9.80642C19.7585 9.77556 17.8991 9.74427 15.9375 9.7857C15.0132 9.80777 12.5862 9.65485 12.0655 10.5036C11.8861 10.7968 11.9412 10.9221 12.016 13.494L10.8496 13.4855C10.7876 11.1534 10.8273 11.4576 10.7195 10.7347C10.3867 8.51613 10.8084 8.66428 20.1815 8.61681Z" fill="#051328"/>
<ellipse cx="18.1286" cy="26.5286" rx="4.97238" ry="4.71514" fill="white"/>
<path d="M18.5028 26.9939C18.7248 26.8082 18.8517 26.5499 18.8834 26.2191L18.5028 26.9939ZM18.5028 26.9939C18.2975 27.165 18.0276 27.2776 17.6932 27.3316L18.5028 26.9939ZM18.1889 29.5095L18.2051 29.5378H18.2377H18.931H19.0309L18.9791 29.4524L17.7246 27.3834C18.0562 27.3268 18.3287 27.2123 18.5388 27.0372L18.5389 27.0371C18.7622 26.8502 18.893 26.5947 18.9338 26.2754H19.767H19.8233V26.2191V25.7841V25.7278H19.767H18.9191C18.8974 25.5832 18.8545 25.4541 18.7894 25.3414C18.7428 25.2605 18.6879 25.1866 18.6249 25.1199H19.767H19.8233V25.0637V24.6287V24.5724H19.767H16.9531H16.8968V24.6287V25.0637V25.1199H16.9531H17.1027C17.3301 25.1199 17.5188 25.1445 17.6703 25.1921L17.6703 25.1921L17.6707 25.1922C17.8257 25.2396 17.9452 25.3138 18.0322 25.4134L18.0322 25.4134L18.033 25.4143C18.1073 25.4956 18.1617 25.5995 18.1948 25.7278H16.9531H16.8968V25.7841V26.2191V26.2754H16.9531H18.2077C18.1848 26.4177 18.1347 26.5278 18.0602 26.6094C17.9738 26.704 17.8526 26.7741 17.6929 26.8173L17.6925 26.8174C17.5359 26.8609 17.3397 26.8833 17.1027 26.8833H16.9531H16.8968V26.9396V27.2386V27.2536L16.9043 27.2666L18.1889 29.5095Z" fill="#051328" stroke="#051328" stroke-width="0.112555"/>
</svg>
