<svg width="40" height="40" viewBox="0 0 40 40" fill="none" xmlns="http://www.w3.org/2000/svg">
<g clip-path="url(#clip0_2744_29138)">
<ellipse cx="30.1618" cy="29.8706" rx="6.67742" ry="6.96774" fill="#051328"/>
<path d="M21.8207 33.9354H5.48135C4.52329 33.9354 3.73942 33.1515 3.73942 32.1935V15.9354C3.73942 15.616 3.47812 15.3548 3.15877 15.3548C2.83942 15.3548 2.57812 15.616 2.57812 15.9354V32.1935C2.57812 33.796 3.87877 35.0967 5.48135 35.0967H21.8207C22.1401 35.0967 22.4014 34.8354 22.4014 34.516C22.4014 34.1967 22.1401 33.9354 21.8207 33.9354ZM3.15877 14.1935H29.2878C29.6072 14.1935 29.8684 13.9322 29.8684 13.6128C29.8684 13.2935 29.6072 13.0322 29.2878 13.0322H3.73942V8.96766C3.73942 8.17218 4.27361 7.48121 5.05748 7.27799C5.18522 7.24315 5.32458 7.22573 5.48135 7.22573H6.64264V8.96766C6.64264 9.92573 7.42651 10.7096 8.38458 10.7096C9.34264 10.7096 10.1265 9.92573 10.1265 8.96766V4.3225C10.1265 3.36444 9.34264 2.58057 8.38458 2.58057C7.42651 2.58057 6.64264 3.36444 6.64264 4.3225V6.06444H5.48135C5.22006 6.06444 4.97619 6.09347 4.75554 6.15734C3.47232 6.4825 2.57812 7.63799 2.57812 8.96766V13.6128C2.57812 13.9322 2.83942 14.1935 3.15877 14.1935ZM7.80393 4.3225C7.80393 4.00315 8.06522 3.74186 8.38458 3.74186C8.70393 3.74186 8.96522 4.00315 8.96522 4.3225V8.96766C8.96522 9.28702 8.70393 9.54831 8.38458 9.54831C8.06522 9.54831 7.80393 9.28702 7.80393 8.96766V4.3225Z" fill="#051328"/>
<path d="M11.8717 7.22573H15.9362V8.96766C15.9362 9.92573 16.7201 10.7096 17.6782 10.7096C18.6362 10.7096 19.4201 9.92573 19.4201 8.96766V7.22573H23.4846C23.804 7.22573 24.0653 6.96444 24.0653 6.64508C24.0653 6.32573 23.804 6.06444 23.4846 6.06444H19.4201V4.3225C19.4201 3.36444 18.6362 2.58057 17.6782 2.58057C16.7201 2.58057 15.9362 3.36444 15.9362 4.3225V6.06444H11.8717C11.5524 6.06444 11.2911 6.32573 11.2911 6.64508C11.2911 6.96444 11.5524 7.22573 11.8717 7.22573ZM17.0975 4.3225C17.0975 4.00315 17.3588 3.74186 17.6782 3.74186C17.9975 3.74186 18.2588 4.00315 18.2588 4.3225V8.96766C18.2588 9.28702 17.9975 9.54831 17.6782 9.54831C17.3588 9.54831 17.0975 9.28702 17.0975 8.96766V4.3225ZM26.9685 10.7096C27.9266 10.7096 28.7104 9.92573 28.7104 8.96766V7.22573H29.8717C30.0285 7.22573 30.1679 7.24315 30.3072 7.28379C31.0737 7.48121 31.6137 8.17218 31.6137 8.96766V20.8709C31.6137 21.1902 31.8749 21.4515 32.1943 21.4515C32.5137 21.4515 32.7749 21.1902 32.7749 20.8709V8.96766C32.7749 7.63799 31.8808 6.4825 30.6091 6.16315C30.3769 6.09928 30.133 6.06444 29.8717 6.06444H28.7104V4.3225C28.7104 3.36444 27.9266 2.58057 26.9685 2.58057C26.0104 2.58057 25.2266 3.36444 25.2266 4.3225V8.96766C25.2266 9.92573 26.0104 10.7096 26.9685 10.7096ZM26.3879 4.3225C26.3879 4.00315 26.6491 3.74186 26.9685 3.74186C27.2879 3.74186 27.5491 4.00315 27.5491 4.3225V8.96766C27.5491 9.28702 27.2879 9.54831 26.9685 9.54831C26.6491 9.54831 26.3879 9.28702 26.3879 8.96766V4.3225ZM11.8717 17.6773C11.8717 17.358 11.6104 17.0967 11.2911 17.0967H7.80721C7.48785 17.0967 7.22656 17.358 7.22656 17.6773V19.9999C7.22656 20.3193 7.48785 20.5806 7.80721 20.5806H11.2911C11.6104 20.5806 11.8717 20.3193 11.8717 19.9999V17.6773ZM10.7104 19.4193H8.38785V18.258H10.7104V19.4193ZM11.8717 22.9031C11.8717 22.5838 11.6104 22.3225 11.2911 22.3225H7.80721C7.48785 22.3225 7.22656 22.5838 7.22656 22.9031V25.2257C7.22656 25.5451 7.48785 25.8064 7.80721 25.8064H11.2911C11.6104 25.8064 11.8717 25.5451 11.8717 25.2257V22.9031ZM10.7104 24.6451H8.38785V23.4838H10.7104V24.6451ZM11.2911 27.5483H7.80721C7.48785 27.5483 7.22656 27.8096 7.22656 28.129V30.4515C7.22656 30.7709 7.48785 31.0322 7.80721 31.0322H11.2911C11.6104 31.0322 11.8717 30.7709 11.8717 30.4515V28.129C11.8717 27.8096 11.6104 27.5483 11.2911 27.5483ZM10.7104 29.8709H8.38785V28.7096H10.7104V29.8709ZM20.0008 17.6773C20.0008 17.358 19.7395 17.0967 19.4201 17.0967H15.9362C15.6169 17.0967 15.3556 17.358 15.3556 17.6773V19.9999C15.3556 20.3193 15.6169 20.5806 15.9362 20.5806H19.4201C19.7395 20.5806 20.0008 20.3193 20.0008 19.9999V17.6773ZM18.8395 19.4193H16.5169V18.258H18.8395V19.4193ZM20.0008 22.9031C20.0008 22.5838 19.7395 22.3225 19.4201 22.3225H15.9362C15.6169 22.3225 15.3556 22.5838 15.3556 22.9031V25.2257C15.3556 25.5451 15.6169 25.8064 15.9362 25.8064H19.4201C19.7395 25.8064 20.0008 25.5451 20.0008 25.2257V22.9031ZM18.8395 24.6451H16.5169V23.4838H18.8395V24.6451ZM19.4201 27.5483H15.9362C15.6169 27.5483 15.3556 27.8096 15.3556 28.129V30.4515C15.3556 30.7709 15.6169 31.0322 15.9362 31.0322H19.4201C19.7395 31.0322 20.0008 30.7709 20.0008 30.4515V28.129C20.0008 27.8096 19.7395 27.5483 19.4201 27.5483ZM18.8395 29.8709H16.5169V28.7096H18.8395V29.8709ZM24.0653 17.0967C23.7459 17.0967 23.4846 17.358 23.4846 17.6773V19.9999C23.4846 20.3193 23.7459 20.5806 24.0653 20.5806H27.5491C27.8685 20.5806 28.1298 20.3193 28.1298 19.9999V17.6773C28.1298 17.358 27.8685 17.0967 27.5491 17.0967H24.0653ZM26.9685 19.4193H24.6459V18.258H26.9685V19.4193ZM29.8717 22.3225C25.7085 22.3225 22.3233 25.7077 22.3233 29.8709C22.3233 34.0341 25.7085 37.4193 29.8717 37.4193C34.0349 37.4193 37.4201 34.0341 37.4201 29.8709C37.4201 25.7077 34.0349 22.3225 29.8717 22.3225ZM29.8717 36.258C26.3472 36.258 23.4846 33.3954 23.4846 29.8709C23.4846 26.3464 26.3472 23.4838 29.8717 23.4838C33.3962 23.4838 36.2588 26.3464 36.2588 29.8709C36.2588 33.3954 33.3962 36.258 29.8717 36.258Z" fill="#051328"/>
<path d="M30.1051 30.2918C30.4716 29.9852 30.681 29.5588 30.7334 29.0127L30.1051 30.2918ZM30.1051 30.2918C29.7676 30.573 29.3245 30.7584 28.7756 30.848L30.1051 30.2918ZM29.5811 34.4479L29.6098 34.498H29.6675H30.812H30.9887L30.8971 34.3468L28.8311 30.9396C29.3751 30.8455 29.8228 30.6566 30.1688 30.3683L30.169 30.3682C30.5377 30.0596 30.7541 29.6381 30.8224 29.1123H32.192H32.2916V29.0127V28.2946V28.1951H32.192H30.7981C30.7619 27.958 30.691 27.7459 30.584 27.5605C30.5093 27.431 30.4219 27.3124 30.3219 27.2048H32.192H32.2916V27.1053V26.3872V26.2877H32.192H27.5469H27.4473V26.3872V27.1053V27.2048H27.5469H27.7937C28.1687 27.2048 28.4796 27.2454 28.7288 27.3237L28.7288 27.3237L28.7296 27.3239C28.9844 27.4018 29.1805 27.5238 29.3233 27.687L29.3233 27.687L29.3247 27.6885C29.4449 27.8202 29.5335 27.9879 29.588 28.1951H27.5469H27.4473V28.2946V29.0127V29.1123H27.5469H29.6101C29.572 29.3425 29.4901 29.5205 29.3696 29.6525C29.2279 29.8076 29.0291 29.9228 28.7663 29.9938L28.7663 29.9938L28.7657 29.994C28.5078 30.0656 28.1846 30.1025 27.7937 30.1025H27.5469H27.4473V30.2021V30.6958V30.7222L27.4605 30.7452L29.5811 34.4479Z" fill="white" stroke="white" stroke-width="0.199078"/>
</g>
<defs>
<clipPath id="clip0_2744_29138">
<rect width="36" height="36" fill="white" transform="translate(2 2)"/>
</clipPath>
</defs>
</svg>
