<svg width="71" height="66" viewBox="0 0 71 66" fill="none" xmlns="http://www.w3.org/2000/svg">
<path d="M64.7704 15.2138C62.8122 14.3402 59.8298 14.2498 57.0583 14.9728C55.5822 15.3645 54.8592 15.3042 54.6182 14.8825C51.937 9.91178 51.3044 9.0984 48.9847 7.44151C44.5563 4.33861 39.1338 4.2181 32.2652 7.17038C29.7347 8.25489 29.0117 8.37539 28.62 7.86326C28.3489 7.47163 27.2343 6.116 26.1196 4.82061C24.2519 2.65159 23.8904 2.41059 21.2092 1.4767C16.5699 -0.0898118 11.8402 0.904321 7.98421 4.27835C4.2788 7.56201 -0.36049 14.9126 0.66377 15.9368C0.995148 16.2682 2.01941 15.485 6.4177 11.2674C11.5992 6.26662 11.7499 6.17625 14.2201 5.45324C18.3774 4.24823 21.7816 5.54362 23.9807 9.12853L25.1255 10.936L21.0285 15.3946C15.2745 21.6908 12.3524 26.5409 11.298 31.6924C10.1532 37.3559 11.1474 40.6998 14.2201 41.7241C16.8712 42.6278 18.4377 42.1458 21.2092 39.6153C27.2343 34.1325 31.5121 23.1669 30.5179 15.8465C30.3372 14.762 30.3673 13.5871 30.548 13.2256C31.4518 11.418 40.1279 8.94777 43.1404 9.61053C45.8818 10.3034 48.7437 12.9243 49.5872 15.5753L50.25 17.6239L46.6952 20.9979C40.4291 26.8422 35.7296 33.8313 33.3196 40.6998C31.5422 45.7307 31.3012 50.4905 32.7472 52.5391C35.4585 56.5156 40.6701 54.9792 45.3396 48.8035C51.0935 41.1818 54.6483 31.9635 55.3412 22.8958L55.6123 19.6724L57.6307 18.9795C60.0708 18.1059 62.4808 18.2866 64.1377 19.4012C70.0724 23.4682 65.3729 45.7006 55.6725 59.1967C52.2383 63.9565 51.3646 65.5532 51.9973 65.7038C52.6901 65.8544 57.0282 60.9139 60.1612 56.4553C67.6925 45.791 72.3017 28.5895 69.6808 21.0883C68.777 18.4372 66.8791 16.1778 64.7704 15.2138ZM50.2199 26.9326C49.4969 31.0899 47.1471 37.5367 44.9781 41.2722C42.6885 45.2487 38.471 50.0085 37.0852 50.1893C36.1514 50.3399 36.0911 50.2194 36.1514 47.7491C36.302 41.935 40.2484 34.0723 46.5144 27.2639C48.8341 24.7033 50.2801 23.3778 50.4609 23.5585C50.6416 23.7393 50.5211 25.2456 50.2199 26.9326ZM26.2401 19.6422C25.9088 24.9142 22.6251 32.2949 19.0402 35.8798C16.9917 37.9283 16.2988 38.1994 15.4553 37.3559C14.0996 36.0003 15.4553 30.3668 18.3172 25.4564C19.944 22.6247 25.6075 16.1778 26.0895 16.6598C26.2703 16.8406 26.3305 18.1661 26.2401 19.6422Z" fill="#fedc60"/>
</svg>
