<svg width="44" height="45" viewBox="0 0 44 45" fill="none" xmlns="http://www.w3.org/2000/svg">
<g id="customer" clip-path="url(#clip0_732_11947)">
<path id="Vector" d="M1.84023 27.7903V27.9304L1.84539 28.1023C1.84682 28.2198 1.85514 28.3372 1.87031 28.4537C1.92207 28.9246 2.05037 29.3838 2.25016 29.8133C2.34891 30.0285 2.46382 30.2359 2.59391 30.4338C2.66266 30.53 2.73255 30.6257 2.80359 30.7208C2.87492 30.8153 2.95742 30.9004 3.03563 30.9898C3.06914 31.0259 3.10094 31.0628 3.13531 31.098L3.24273 31.1986C3.31492 31.2648 3.38625 31.3327 3.46102 31.3962C3.61311 31.5205 3.77268 31.6353 3.93883 31.74C4.27237 31.952 4.63201 32.1198 5.00875 32.2393L5.29492 32.3166C5.34305 32.3287 5.39031 32.3433 5.4393 32.3519L5.58711 32.3828C5.68508 32.3983 5.78219 32.4146 5.88016 32.4275L6.17578 32.4464L6.32359 32.4533H6.43359H6.64758H7.07727L9.18961 32.4705V32.9491V33.2448C9.18961 33.2723 9.18961 33.3969 9.19649 33.4905C9.20435 33.5894 9.21755 33.6878 9.23602 33.7853C9.30647 34.18 9.46737 34.5529 9.70609 34.875C9.82683 35.0332 9.96491 35.1773 10.1177 35.3047C10.2712 35.4311 10.4381 35.5403 10.6153 35.6304C11.0626 35.8557 11.5653 35.9472 12.0633 35.894C12.5612 35.8408 13.0333 35.6452 13.4229 35.3305C13.4616 35.2995 13.4985 35.2669 13.5355 35.2342L13.6369 35.138L13.7409 35.0331L14.1577 34.6146L14.9895 33.7776L16.2786 32.473C17.7493 32.4593 19.2191 32.4392 20.688 32.4129L23.1639 32.3596L24.4014 32.327L24.7108 32.3184H24.7881H24.8268H24.8784L25.0855 32.3046C25.1542 32.2986 25.223 32.2952 25.2917 32.2866L25.4963 32.2522L25.6999 32.2152C25.767 32.1998 25.8331 32.18 25.9002 32.1611C26.6511 31.9559 27.3267 31.5381 27.8458 30.958C28.2551 30.5005 28.5395 29.9452 28.6716 29.3458C28.7184 29.1267 28.7383 28.9028 28.7309 28.6789C28.7223 28.5815 28.7109 28.493 28.6966 28.4134C28.6891 28.3733 28.6811 28.3357 28.6725 28.3008C28.6626 28.2669 28.6509 28.2336 28.6373 28.2011C28.5376 27.9527 28.4113 27.8573 28.26 27.9055C28.183 27.9331 28.1135 27.9785 28.0572 28.0378C28.0221 28.0725 27.9894 28.1096 27.9592 28.1487L27.9111 28.214C27.8928 28.2363 27.8744 28.2598 27.8561 28.2845C27.7822 28.3816 27.7169 28.4941 27.6275 28.6127C27.5381 28.7313 27.4488 28.8594 27.3491 28.9926C27.1181 29.2891 26.8444 29.5498 26.537 29.766C26.3634 29.8878 26.1783 29.9923 25.9844 30.078C25.7753 30.1652 25.5579 30.2308 25.3355 30.2739C25.2616 30.2868 25.1869 30.2911 25.113 30.3023C25.0759 30.3072 25.0386 30.3089 25.0013 30.3074H24.8887H24.8328H24.7589H24.6059L24.3009 30.2997L23.0788 30.2696L20.6313 30.212C18.9985 30.1759 17.3643 30.1473 15.7286 30.1261C15.4537 30.1235 15.1889 30.2298 14.9921 30.4217L14.9749 30.4389C14.0325 31.3602 13.0963 32.2874 12.1665 33.2207L11.9293 33.4587C11.916 33.4724 11.901 33.4843 11.8846 33.494C11.8532 33.5128 11.8173 33.5229 11.7806 33.5232C11.7621 33.5234 11.7436 33.521 11.7256 33.5163C11.706 33.5105 11.687 33.5028 11.6689 33.4931C11.636 33.4743 11.6087 33.447 11.5898 33.4141C11.5803 33.3976 11.5728 33.38 11.5675 33.3616C11.5683 33.3568 11.5683 33.3519 11.5675 33.347C11.568 33.3419 11.568 33.3367 11.5675 33.3316C11.5658 33.3052 11.5658 33.2788 11.5675 33.2525L11.5623 32.565L11.5503 31.19V31.1677C11.5494 31.031 11.5215 30.8958 11.4683 30.7699C11.415 30.644 11.3374 30.5299 11.2399 30.4341C11.1424 30.3382 11.0269 30.2626 10.9001 30.2115C10.7733 30.1605 10.6377 30.1349 10.501 30.1364L6.35023 30.1811C6.10765 30.1819 5.86614 30.149 5.63266 30.0831C5.40104 30.0116 5.18188 29.9046 4.98297 29.766C4.93484 29.7282 4.8807 29.699 4.83602 29.6569C4.79133 29.6148 4.74492 29.5761 4.69766 29.5366L4.57219 29.4034L4.54039 29.3707L4.51289 29.3337L4.45703 29.2607C4.30922 29.0656 4.1932 28.8484 4.11328 28.617C4.03581 28.3826 3.99183 28.1384 3.98266 27.8917L3.96891 26.8545L3.94055 24.7799L3.88813 20.6309L3.83484 20.7795C3.85203 20.7271 3.87008 20.6764 3.88813 20.6309C3.9351 19.8059 3.9775 18.9797 4.01531 18.1524L4.02906 17.8422L4.03594 17.6866V17.648V17.6196L4.04281 17.5655C4.08188 17.1387 4.24098 16.7317 4.50172 16.3916C4.83798 15.9485 5.32902 15.6487 5.87672 15.552C5.94289 15.5399 6.01078 15.5382 6.07695 15.5279C6.1104 15.5248 6.14406 15.5248 6.1775 15.5279H6.27461H6.32531H6.40266H6.5582L6.87016 15.5356L8.11883 15.5631C11.4498 15.631 14.7919 15.6491 18.1391 15.6551L23.163 15.6491H24.4195H24.8122C24.838 15.6491 24.8466 15.6491 24.8655 15.6491L24.9609 15.6542C25.0244 15.6557 25.0876 15.6626 25.1499 15.6748C25.1809 15.6809 25.2135 15.6809 25.2436 15.6895L25.3355 15.7135C25.8358 15.8442 26.2666 16.1624 26.5387 16.6021C26.6731 16.8189 26.7644 17.0597 26.8077 17.3111C26.8203 17.3737 26.828 17.4372 26.8309 17.501L26.836 17.5973V17.6454V18.3509C26.836 19.188 26.836 20.0247 26.836 20.8612C26.8314 22.5341 26.82 24.205 26.8016 25.8739C26.7948 26.4677 27.0225 27.4002 27.1832 27.6949C27.5012 28.2767 27.7727 27.523 27.9773 26.3904C28.3284 24.3703 28.5779 22.3339 28.7249 20.2888C28.7667 19.7457 28.8043 19.196 28.8375 18.6397L28.8839 17.8027L28.8891 17.6978V17.6445V17.5801V17.3223C28.8874 17.236 28.8805 17.1499 28.8684 17.0645C28.8573 16.9785 28.8504 16.8926 28.8341 16.8066L28.7773 16.5488C28.767 16.5059 28.7593 16.4629 28.7464 16.4199L28.7052 16.2936C28.6768 16.2077 28.6502 16.1217 28.6192 16.0409L28.5109 15.7969C28.492 15.7565 28.4748 15.7109 28.4542 15.6757L28.3889 15.5588C28.3442 15.4815 28.303 15.4024 28.2531 15.3268C28.1544 15.177 28.0465 15.0335 27.93 14.8971C27.5785 14.4787 27.1447 14.1371 26.6555 13.8934C26.5696 13.8538 26.4931 13.8074 26.4072 13.7756L26.1494 13.6768C25.7297 13.5338 25.2907 13.4552 24.8474 13.4439L23.8059 13.4052L21.7279 13.3674L17.5711 13.2909C14.7953 13.2428 12.0213 13.199 9.24891 13.1595L7.16664 13.1328H6.64586H6.38805H6.3193H6.23336L6.05547 13.1405C5.57801 13.1648 5.10774 13.267 4.66328 13.443C4.21769 13.6188 3.80177 13.8619 3.43008 14.1641C3.06409 14.4708 2.74807 14.8326 2.49336 15.2366L2.39969 15.3895C2.36803 15.44 2.33933 15.4922 2.31375 15.5459C2.26047 15.6531 2.20833 15.7608 2.15734 15.8691C2.11352 15.9808 2.07141 16.0934 2.03187 16.2059L2.0018 16.2919L1.97773 16.3778L1.93219 16.5497L1.88836 16.7216L1.85914 16.8986L1.82992 17.0859C1.81985 17.1448 1.81354 17.2042 1.81102 17.2638C1.80357 17.383 1.79755 17.5024 1.79297 17.6222V17.8895C1.79297 20.6704 1.81818 23.4551 1.86859 26.2434L1.84969 27.2747L1.84023 27.7903Z" fill="#051328"/>
<path id="Vector_2" d="M16.2845 1.21244C14.6219 1.69388 13.0394 2.41781 11.588 3.36088C11.3242 3.52588 11.0724 3.70463 10.8283 3.8765C10.5843 4.04838 10.3462 4.234 10.1219 4.42221C9.66475 4.78744 9.25225 5.17158 8.86896 5.53939C8.2017 6.19905 7.59218 6.91466 7.04709 7.67838C6.58647 8.33064 6.29514 8.89182 6.15678 9.28283C6.01842 9.67385 6.03131 9.89728 6.20232 9.90674C6.35959 9.91619 6.61139 9.76408 6.95428 9.48822C7.29717 9.21236 7.72772 8.81533 8.276 8.34439C8.82428 7.87346 9.46107 7.30541 10.213 6.71158L10.4983 6.48728L10.7974 6.26471C10.9959 6.11088 11.2108 5.96736 11.4239 5.81182C11.8596 5.51533 12.3168 5.21025 12.8101 4.9215C14.5739 3.87736 16.5249 3.18811 18.5533 2.89252C19.0594 2.82205 19.5682 2.76533 20.0804 2.74127C20.3382 2.72322 20.596 2.72236 20.8495 2.71463C20.9776 2.71463 21.1073 2.71463 21.2345 2.71463C21.3617 2.71463 21.4923 2.71463 21.6204 2.7215C22.6533 2.75579 23.6822 2.86696 24.6987 3.05408L25.0811 3.12541C25.2091 3.14861 25.3312 3.18041 25.4566 3.20705L25.8296 3.29299L26.1991 3.39096C26.6924 3.51986 27.1745 3.68143 27.6523 3.85416C28.6029 4.20999 29.5169 4.65664 30.3817 5.18791C32.1151 6.24236 33.6293 7.64658 34.9089 9.2476C35.5354 10.0258 36.0951 10.8555 36.5821 11.7278C37.0637 12.5981 37.4663 13.5098 37.7852 14.452C38.4189 16.3531 38.7255 18.3479 38.6919 20.3516V20.3722C38.6908 20.5243 38.7237 20.6746 38.7882 20.8123C38.8528 20.95 38.9473 21.0715 39.0648 21.168C39.325 21.3781 39.5366 21.6419 39.6853 21.9414C39.7567 22.0883 39.8112 22.2428 39.8477 22.4021C39.8662 22.4826 39.8803 22.564 39.8898 22.6461C39.8898 22.6874 39.9001 22.732 39.901 22.7707V22.8335V22.8661V22.9108C39.9062 23.8687 39.9113 24.8266 39.9165 25.7845L39.9251 27.2214V27.5806V27.7603V27.8909C39.9151 28.0555 39.8863 28.2184 39.8391 28.3764C39.7405 28.6995 39.5708 28.9963 39.3424 29.2452C39.2196 29.3815 39.0843 29.5061 38.9385 29.6174C38.7893 29.735 38.6303 29.8396 38.4633 29.9302L38.4426 29.9413C38.3036 30.0194 38.1864 30.1311 38.1017 30.2663C38.017 30.4014 37.9676 30.5556 37.958 30.7148C37.7946 33.4389 36.6539 36.0127 34.7452 37.9632C32.8365 39.9137 30.2881 41.11 27.5681 41.3324C27.6919 41.3478 27.8156 41.3607 27.9411 41.3727C27.8062 41.3642 27.6833 41.3513 27.5681 41.3324C27.2854 41.3504 27.0018 41.3418 26.7182 41.341L25.8038 41.3152C25.6661 41.3118 25.5297 41.3418 25.4061 41.4025C25.2825 41.4633 25.1754 41.553 25.094 41.6641L25.051 41.7242C24.8943 41.9459 24.6758 42.1165 24.4228 42.2149C24.3018 42.2633 24.1739 42.2923 24.0438 42.3009C24.0118 42.3027 23.9796 42.3027 23.9476 42.3009H23.8951H23.8092L23.4723 42.2923L20.7739 42.2304L20.0984 42.2158H20.0125C20.0004 42.2158 19.9798 42.2158 19.9747 42.2158H19.9515C19.9211 42.2124 19.8907 42.2098 19.8604 42.2081L19.7744 42.1909C19.7451 42.1865 19.7163 42.179 19.6885 42.1685C19.5729 42.1378 19.4636 42.0872 19.3654 42.019C19.3156 41.9863 19.2679 41.9504 19.2227 41.9116C19.1791 41.8709 19.138 41.8276 19.0998 41.7818C19.0231 41.6923 18.9613 41.591 18.9168 41.4819C18.8705 41.3758 18.8415 41.2629 18.8308 41.1476C18.826 41.1192 18.8242 41.0904 18.8257 41.0617V40.9568L18.8317 40.6182L18.8429 39.941L18.8532 39.2638L18.8583 38.9253V38.8393C18.8583 38.817 18.8583 38.8092 18.8626 38.7929C18.8669 38.7766 18.8626 38.737 18.8687 38.707C18.8865 38.5983 18.9179 38.4923 18.9623 38.3916C19.0109 38.2925 19.0725 38.2003 19.1454 38.1174C19.2921 37.9546 19.4843 37.8393 19.6971 37.7866C19.7237 37.7823 19.7487 37.772 19.7753 37.7685C19.8019 37.7651 19.8286 37.7634 19.8552 37.7591C19.8821 37.7573 19.9091 37.7573 19.936 37.7591H19.9764H20.0537L20.7326 37.7668L23.4491 37.7943H23.7929H23.9149H23.9338C23.9588 37.7946 23.9838 37.7966 24.0086 37.8003C24.1088 37.8115 24.2066 37.8388 24.2982 37.8811C24.4868 37.9669 24.6459 38.1065 24.7554 38.2824C24.8669 38.457 25.0201 38.6011 25.2012 38.7018C25.3822 38.8024 25.5855 38.8565 25.7926 38.8591H25.8107L26.5687 38.8642H26.7654H26.9863C27.1341 38.8642 27.2811 38.8513 27.428 38.8419C28.0176 38.7973 28.6012 38.6933 29.17 38.5317C30.3085 38.2028 31.3709 37.6525 32.2964 36.9124C33.2219 36.1723 33.9923 35.2568 34.5634 34.2185C35.1377 33.1732 35.4949 32.0227 35.6136 30.836C35.6334 30.6251 35.6018 30.4125 35.5216 30.2165C35.4414 30.0204 35.3149 29.8467 35.153 29.7102L35.1469 29.705C34.9078 29.501 34.7213 29.2425 34.603 28.9513C34.5858 28.9135 34.572 28.8731 34.5565 28.8336C34.5411 28.7941 34.529 28.7545 34.5136 28.7038C34.4844 28.6093 34.4583 28.5136 34.4354 28.4168C34.3907 28.226 34.3602 28.0321 34.3443 27.8367C34.3443 27.7886 34.3374 27.7413 34.3357 27.6949V27.6245V24.8092V23.2545V22.9641V22.8928C34.3357 22.7974 34.346 22.7011 34.3563 22.604C34.3774 22.4116 34.4133 22.2211 34.4637 22.0342C34.5438 21.7048 34.6939 21.3965 34.9037 21.1302C35.0921 20.9021 35.3381 20.7285 35.6162 20.6274L35.6316 20.6223C35.8882 20.5256 36.1073 20.3497 36.257 20.1201C36.4068 19.8904 36.4794 19.619 36.4644 19.3453C36.444 18.7268 36.3918 18.1098 36.3079 17.4967C36.2813 17.3249 36.2487 17.177 36.222 17.0215C36.1954 16.866 36.161 16.7138 36.1266 16.5617L36.0115 16.1063L35.953 15.8785L35.8851 15.6534L35.7468 15.2039C35.6978 15.0553 35.6419 14.9083 35.5895 14.7605C35.489 14.4631 35.3609 14.1761 35.2458 13.8856C35.1865 13.7404 35.1143 13.6003 35.0481 13.456C34.9819 13.3116 34.9183 13.1698 34.841 13.0331C34.6932 12.7564 34.5488 12.4771 34.3829 12.2099C33.0895 10.0404 31.2647 8.2363 29.0806 6.96768L28.6698 6.73736C28.534 6.6583 28.3905 6.59385 28.2505 6.52252C27.972 6.37729 27.6824 6.25439 27.3911 6.12721C25.6478 5.396 23.7812 5.00344 21.8911 4.97049C21.7347 4.96275 21.5774 4.97049 21.421 4.97049L20.9509 4.9808L20.4817 5.0126L20.2471 5.02893C20.1689 5.0358 20.0915 5.04611 20.0142 5.05557L19.5484 5.11057C19.3937 5.12947 19.2425 5.15783 19.0895 5.18104L18.8609 5.21885L18.6323 5.26354C18.4802 5.29533 18.3272 5.32025 18.176 5.35721C17.5646 5.4926 16.9619 5.66479 16.3713 5.87283C16.2244 5.92697 16.0748 5.9751 15.9296 6.03525L15.4922 6.20713C15.2043 6.33432 14.9164 6.46494 14.6328 6.60674C14.0026 6.93666 13.4172 7.3459 12.8908 7.82447C12.6488 8.04309 12.4192 8.27521 12.2033 8.51971C12.0531 8.68767 11.9152 8.86631 11.7908 9.05424C11.4694 9.56986 11.6456 9.61025 12.1037 9.36361C12.2162 9.30002 12.3554 9.22697 12.5067 9.13674C12.6579 9.0465 12.8298 8.94682 13.0154 8.83768L13.1572 8.75174L13.3076 8.6658L13.6162 8.49221C13.837 8.37963 14.063 8.25158 14.3088 8.13643C15.9141 7.34064 17.7291 6.86627 19.6189 6.70471C21.5484 6.53347 23.4924 6.76764 25.326 7.39221C27.2143 8.04108 28.9325 9.10636 30.3533 10.5092C31.7984 11.9368 32.8935 13.6796 33.5528 15.601C33.7679 16.2197 33.934 16.8545 34.0495 17.4993L34.0951 17.7391C34.1071 17.813 34.1183 17.8886 34.1269 17.966C34.1466 18.1198 34.1612 18.2788 34.1733 18.442C34.1827 18.5684 34.1896 18.6999 34.1965 18.8279C34.1054 18.8803 34.0151 18.9353 33.9283 18.9998C33.6438 19.1967 33.3866 19.4305 33.1635 19.695C32.7434 20.2054 32.4378 20.8 32.2672 21.4387C32.1826 21.7386 32.1214 22.0446 32.0841 22.3539C32.0652 22.5086 32.0526 22.6642 32.0463 22.8206V22.9383V23.038V23.2348L32.0308 24.8083L32.0154 26.3827L32.0076 27.1699V27.5635V27.6563V27.7757C32.0076 27.8554 32.0116 27.9347 32.0197 28.0138C32.0424 28.3258 32.0883 28.6358 32.1572 28.941C32.1915 29.0929 32.2311 29.2432 32.2758 29.3922C32.2972 29.4644 32.3239 29.5443 32.3505 29.6234C32.3772 29.7024 32.4081 29.7806 32.4408 29.858C32.6228 30.3013 32.8762 30.7118 33.191 31.0731C33.061 31.7695 32.8184 32.44 32.4726 33.0583C31.6158 34.5876 30.1893 35.7164 28.504 36.1985C28.0889 36.3154 27.663 36.3902 27.233 36.4219C27.1255 36.4279 27.019 36.4382 26.9115 36.4374H26.7508H26.5687H26.3719C26.0587 36.1063 25.6827 35.8411 25.2658 35.657C24.949 35.5172 24.6125 35.4274 24.2681 35.3906C24.1822 35.3803 24.0962 35.3743 24.0103 35.3717H23.945H23.8049H23.4672L20.7619 35.3554H20.0855H19.9437H19.8793C19.7933 35.3554 19.7074 35.3631 19.6215 35.37C19.4493 35.3892 19.2787 35.4205 19.111 35.4637C18.9428 35.5065 18.778 35.5613 18.6177 35.6278C18.4587 35.6968 18.3048 35.7769 18.1571 35.8676C17.8613 36.0475 17.5946 36.2715 17.3665 36.5319C16.9029 37.0557 16.608 37.7071 16.52 38.401C16.5079 38.4865 16.5005 38.5726 16.4976 38.6588C16.4933 38.7448 16.489 38.8445 16.4899 38.8874V39.226V39.9032V40.5804V40.9611C16.4899 40.9774 16.4899 40.9843 16.4899 41.0092L16.4951 41.139C16.5002 41.2249 16.5011 41.3109 16.514 41.3968C16.5933 42.0963 16.8824 42.7553 17.3433 43.2874C17.5705 43.5517 17.8365 43.78 18.1322 43.9646C18.4247 44.1494 18.7438 44.2882 19.0783 44.3763C19.1643 44.3969 19.2502 44.4235 19.3362 44.4356C19.4221 44.4476 19.508 44.4631 19.594 44.4751C19.6799 44.4871 19.7658 44.488 19.8518 44.4931L19.9815 44.4983H23.7929C23.8522 44.4983 23.8934 44.4983 23.9948 44.4983L24.1272 44.4931L24.2587 44.4811C24.6093 44.4454 24.9522 44.3556 25.2753 44.2147C25.6942 44.0346 26.0737 43.7741 26.3925 43.4481H26.5815C26.7053 43.4481 26.8557 43.4481 26.9958 43.4404C27.1358 43.4327 27.2802 43.4352 27.4254 43.4258C27.709 43.4026 27.9944 43.3906 28.2762 43.3493C28.4172 43.3313 28.559 43.3149 28.6999 43.2943L29.121 43.2213C29.1915 43.2084 29.2619 43.1981 29.3315 43.1826L29.5404 43.1362C29.6796 43.1044 29.8188 43.0752 29.9572 43.0408C30.2313 42.9626 30.5089 42.8964 30.7787 42.8019C31.3215 42.6277 31.8526 42.4187 32.3686 42.1763C34.4375 41.1982 36.2226 39.7083 37.5549 37.8476C37.9278 37.3413 38.266 36.8105 38.5672 36.2586C38.8666 35.7042 39.1276 35.13 39.3484 34.5399C39.5648 33.948 39.7408 33.3422 39.8752 32.7266C39.9612 32.3244 40.0282 31.9179 40.0789 31.5097C40.1399 31.4676 40.2001 31.4238 40.2585 31.3808C40.3376 31.3215 40.4166 31.2622 40.494 31.196C40.9561 30.8163 41.3434 30.3538 41.6361 29.8322C41.9362 29.2856 42.1161 28.6811 42.1637 28.0593L42.1749 27.8299V27.658V27.3237L42.1792 26.6551L42.1878 25.317L42.1955 23.979V23.3104V22.9761V22.8042C42.1955 22.7278 42.1904 22.6513 42.1869 22.5748C42.1468 21.9542 41.9782 21.3488 41.6919 20.7967C41.5092 20.4461 41.2818 20.1206 41.0156 19.8282C41.0142 18.2803 40.8316 16.7378 40.4716 15.2323L40.396 14.9143C40.3719 14.8078 40.3376 14.7046 40.3101 14.5989L40.1279 13.9707L39.9156 13.3511C39.8787 13.248 39.8469 13.144 39.8065 13.0426L39.6853 12.7384L39.5641 12.4342C39.5237 12.3328 39.4833 12.2313 39.4369 12.1325L39.1645 11.5378C39.1207 11.4381 39.07 11.341 39.0201 11.2448L38.8697 10.9543L38.7194 10.6638C38.6704 10.5667 38.6119 10.4748 38.5587 10.3794L38.2424 9.81135L37.8901 9.26307C37.8308 9.17197 37.7732 9.08002 37.7122 8.99064L37.5231 8.72596C37.3959 8.55408 37.273 8.37103 37.1424 8.19916C36.8743 7.86057 36.6147 7.51166 36.3277 7.19111C36.1859 7.02869 36.0493 6.86197 35.898 6.70299L35.4555 6.22861C34.2455 4.97175 32.8675 3.8884 31.3605 3.00939C29.8472 2.13513 28.2139 1.48716 26.5128 1.08611C25.6765 0.892181 24.8297 0.746136 23.9768 0.648691C23.1237 0.548589 22.2654 0.498945 21.4064 0.50002C19.6742 0.497502 17.9502 0.737299 16.2845 1.21244Z" fill="#051328"/>
<path id="Vector_3" d="M14.0585 21.6867C13.7931 21.6696 13.5266 21.6838 13.2645 21.7288C12.5899 21.85 12.2942 21.9969 12.216 22.1465C12.0278 22.5057 11.7382 22.8658 11.9531 23.2276C11.9267 23.2708 11.9028 23.3156 11.8817 23.3616C11.7726 23.6452 11.7399 23.9297 12.0089 24.2115C12.0854 24.2915 12.3853 24.3585 12.9791 24.3525C13.5206 24.3473 13.9193 24.2897 13.982 24.2072C14.0955 24.0594 14.2192 23.9099 14.2046 23.7612C14.1814 23.5223 14.0491 23.2834 13.9623 23.0445C14.7116 22.6148 14.282 22.1783 14.4384 21.7451C14.447 21.7262 14.2192 21.697 14.0585 21.6867ZM18.9604 21.6867C18.695 21.6696 18.4285 21.6838 18.1663 21.7288C17.4917 21.85 17.1961 21.9969 17.1179 22.1465C16.9297 22.5057 16.6401 22.8658 16.8549 23.2276C16.8285 23.2708 16.8047 23.3156 16.7836 23.3616C16.6745 23.6452 16.6418 23.9297 16.9108 24.2115C16.9873 24.2915 17.2872 24.3585 17.881 24.3525C18.4224 24.3473 18.8212 24.2897 18.8839 24.2072C18.9974 24.0594 19.1211 23.9099 19.1065 23.7612C19.0833 23.5223 18.9509 23.2834 18.8641 23.0445C19.6135 22.6148 19.1838 22.1783 19.3402 21.7451C19.3488 21.7262 19.1211 21.697 18.9604 21.6867ZM9.16352 21.6867C8.8981 21.6696 8.63159 21.6838 8.36946 21.7288C7.69485 21.85 7.39923 21.9969 7.32102 22.1465C7.13282 22.5057 6.84321 22.8658 7.05806 23.2276C7.03167 23.2708 7.00785 23.3156 6.98673 23.3616C6.87759 23.6452 6.84493 23.9297 7.11391 24.2115C7.1904 24.2915 7.49032 24.3585 8.08415 24.3525C8.62555 24.3473 9.02431 24.2897 9.08704 24.2072C9.20048 24.0594 9.32423 23.9099 9.30962 23.7612C9.28641 23.5223 9.15407 23.2834 9.06727 23.0445C9.81665 22.6148 9.38696 22.1783 9.54337 21.7451C9.55196 21.7262 9.32423 21.697 9.16352 21.6867ZM23.8631 21.6867C23.5977 21.6696 23.3312 21.6838 23.0691 21.7288C22.3945 21.85 22.0988 21.9969 22.0206 22.1465C21.8324 22.5057 21.5428 22.8658 21.7577 23.2276C21.7313 23.2708 21.7075 23.3156 21.6863 23.3616C21.5772 23.6452 21.5445 23.9297 21.8135 24.2115C21.89 24.2915 22.1899 24.3585 22.7838 24.3525C23.3252 24.3473 23.7239 24.2897 23.7866 24.2072C23.9001 24.0594 24.0238 23.9099 24.0092 23.7612C23.986 23.5223 23.8537 23.2834 23.7669 23.0445C24.5163 22.6148 24.0866 22.1783 24.243 21.7451C24.2516 21.7262 24.0238 21.697 23.8631 21.6867Z" fill="#051328"/>
</g>
<defs>
<clipPath id="clip0_732_11947">
<rect width="44" height="44" fill="white" transform="translate(0 0.5)"/>
</clipPath>
</defs>
</svg>
