<svg width="114" height="114" viewBox="0 0 114 114" fill="none" xmlns="http://www.w3.org/2000/svg">
<rect width="80" height="80" rx="20" transform="matrix(-0.707107 -0.707107 -0.707107 0.707107 113.805 56.5684)" fill="#fedc60"/>
<path d="M79.053 62.1472C78.7991 60.7917 78.3752 59.3143 77.1599 58.6342C76.2553 58.1291 75.2126 58.1423 74.2911 58.1525L71.5794 58.1555C70.5738 58.1555 69.7028 59.161 69.098 60.9793C67.0345 60.9289 66.467 60.6381 64.1971 59.2734C62.311 58.1395 60.2237 56.9765 57.9679 57.387C56.1193 57.7164 54.6344 59.0532 52.5917 60.6531C50.7306 60.7197 48.5999 61.1746 45.4036 61.0989C44.7983 59.2044 43.9107 58.1555 42.8825 58.1555L40.1715 58.1525C39.252 58.1406 38.208 58.1288 37.3027 58.6342C36.088 59.3133 35.6641 60.791 35.4089 62.1472C34.8144 65.3172 34.7692 69.4804 35.8036 72.3042C36.2461 73.5535 36.3973 73.8251 37.7577 74.3686C39.414 75.0292 41.173 74.8788 42.8825 74.8788C43.6123 74.8788 44.5999 74.4746 45.2843 72.6189C47.1673 73.0727 49.0447 73.7049 49.7278 74.2271C52.2394 76.1457 53.8206 77.8353 55.4296 77.8353C56.2921 77.8353 57.1071 77.3917 57.3698 76.4831C58.7655 77.6171 60.9532 77.3025 61.3701 75.5725C62.7391 76.4824 64.2128 75.9323 64.601 74.6437C64.694 74.7038 64.7837 74.7674 64.8857 74.8172C65.6795 75.2039 66.6224 75.1002 67.1722 74.5226C67.6086 74.0521 67.7836 73.2377 67.4373 72.4076C67.9314 72.3828 68.5395 72.3505 69.188 72.314C69.7822 73.9657 70.6213 74.8788 71.5794 74.8788C73.28 74.8788 75.0447 75.0305 76.7157 74.3635C78.0613 73.8275 78.2184 73.5502 78.6583 72.3038C79.4454 70.1585 79.8363 66.3203 79.053 62.1472ZM38.1308 73.3977C37.1182 72.9931 37.1406 72.9631 36.78 71.946C36.076 70.0238 35.6712 66.3876 36.4313 62.3392C37.0658 58.9659 38.1084 59.1804 41.2183 59.1955C39.191 62.1456 39.002 70.692 41.2514 73.854C40.1789 73.8527 39.1037 73.7856 38.1308 73.3977ZM66.4146 73.8107C66.1634 74.0751 65.6732 74.045 65.3414 73.8821C64.8437 73.6397 64.4316 73.1097 64.0793 72.6844C63.331 71.7807 62.9646 71.4289 62.2397 70.5475C62.0569 70.3257 61.7291 70.2949 61.5077 70.4767C61.2857 70.6595 61.2545 70.9872 61.4366 71.209C62.0474 71.9493 62.1975 72.0779 63.2946 73.3702C63.5585 73.696 63.6866 74.0674 63.6182 74.3229C63.5356 74.6323 63.2587 74.896 62.9459 74.9644C62.6236 75.0355 62.2173 74.9194 61.8605 74.655C60.8526 73.9233 61.329 74.3811 58.5171 71.0749C58.3315 70.8562 58.0032 70.8302 57.7838 71.0157C57.5651 71.2019 57.5387 71.5299 57.7249 71.7486C60.2827 74.7548 60.2635 74.699 60.3493 74.9374C60.4806 75.3023 60.2206 75.8081 59.8035 75.9987C59.3797 76.1913 58.7926 76.1334 58.272 75.8443C57.7907 75.5759 57.4485 75.0317 57.038 74.516C56.6412 73.8284 56.5965 74.0046 54.4871 71.5621C54.2988 71.3444 53.9718 71.3214 53.7531 71.5079C53.5358 71.6955 53.5114 72.0239 53.6989 72.2412C53.7524 72.3028 55.0091 73.7596 55.7139 74.478C56.2014 74.9746 56.6876 75.9191 56.2427 76.4642C56.0315 76.7228 55.6205 76.8454 55.1926 76.776C54.0862 76.5975 52.3519 74.9221 50.3589 73.4007C48.89 72.2775 43.4558 70.9054 41.1786 70.9979C40.421 67.9798 40.544 64.2512 41.2514 61.748C45.1027 62.3746 47.5739 62.1722 51.1636 61.8049C50.7042 62.2297 50.3245 62.7212 50.2357 63.3738C50.1206 64.2841 50.7022 65.2246 51.6196 65.6105C52.3563 65.9176 53.271 65.879 54.1248 65.5019C54.937 65.141 55.5868 64.5445 56.2482 64.1182C56.7472 63.7953 57.4818 63.4496 58.1433 63.6351C58.6545 63.776 59.0743 64.2235 59.5327 64.7513C66.5454 72.7659 66.0477 72.2812 66.2408 72.3848C66.3604 72.5587 66.4543 72.7191 66.5087 72.8651C66.6157 73.1698 66.6265 73.5815 66.4146 73.8107ZM66.7111 71.4016L60.3174 64.0685C59.5897 63.231 58.8804 62.543 57.7547 62.543C56.0418 62.543 54.9064 64.0157 53.7037 64.5509C53.1106 64.8126 52.4964 64.8495 52.0211 64.6511C51.5424 64.45 51.212 63.9459 51.2669 63.5092C51.3627 62.8058 52.0924 62.3709 54.6766 60.3408C55.7512 59.5049 56.8623 58.6403 58.1521 58.4104C61.075 57.8809 63.6955 60.5498 66.4247 61.6208C67.9007 62.2003 71.4191 62.1402 73.1433 61.5335C73.9786 64.2454 74.0096 68.1659 73.2703 71.054C71.6741 71.13 68.142 71.3359 66.7111 71.4016ZM77.6203 72.1183C77.3261 72.9561 77.2955 73.0132 76.3183 73.4024C75.3554 73.7866 74.2829 73.853 73.2098 73.8544C75.5404 70.5773 75.1781 62.013 73.2443 59.1955L74.3033 59.1921C75.1334 59.185 75.9899 59.1718 76.6521 59.5422C77.493 60.0124 77.8214 61.22 78.0306 62.3389C78.8062 66.4675 78.422 69.448 77.6203 72.1183Z" fill="#051328"/>
<path d="M53.0771 52.9909L51.5078 50.2509V49.8856H51.6905C51.9839 49.8856 52.2302 49.8579 52.4295 49.8025C52.6343 49.7472 52.7948 49.6558 52.911 49.5285C53.0273 49.4012 53.0965 49.2269 53.1186 49.0054H51.5078V48.474H53.1103C53.0716 48.2692 52.9941 48.1032 52.8778 47.9758C52.7616 47.843 52.6038 47.7461 52.4046 47.6852C52.2108 47.6243 51.9728 47.5939 51.6905 47.5939H51.5078V47.0625H54.9453V47.5939H53.376C53.5033 47.6991 53.6085 47.8236 53.6915 47.9675C53.7746 48.1115 53.8272 48.2803 53.8493 48.474H54.9453V49.0054H53.8659C53.8272 49.4095 53.6722 49.725 53.4009 49.952C53.1352 50.1734 52.781 50.3146 52.3381 50.3755L53.924 52.9909H53.0771Z" fill="#051328"/>
<path d="M58.8037 44.3933L57.2344 41.6532V41.2879H57.417C57.7104 41.2879 57.9567 41.2602 58.156 41.2049C58.3608 41.1495 58.5214 41.0582 58.6376 40.9309C58.7538 40.8036 58.823 40.6292 58.8452 40.4078H57.2344V39.8764H58.8369C58.7981 39.6716 58.7206 39.5055 58.6044 39.3782C58.4881 39.2453 58.3304 39.1485 58.1311 39.0876C57.9374 39.0267 57.6994 38.9962 57.417 38.9962H57.2344V38.4648H60.6719V38.9962H59.1026C59.2299 39.1014 59.3351 39.226 59.4181 39.3699C59.5011 39.5138 59.5537 39.6826 59.5759 39.8764H60.6719V40.4078H59.5925C59.5537 40.8119 59.3987 41.1274 59.1275 41.3543C58.8618 41.5758 58.5075 41.7169 58.0647 41.7778L59.6506 44.3933H58.8037Z" fill="#051328"/>
<path d="M59.295 59.1974C59.0398 59.191 58.7649 59.405 58.7513 59.6924C58.7378 59.9791 58.9592 60.2225 59.2463 60.2361C60.2531 60.2838 61.2681 60.6992 61.8944 61.3208C61.9959 61.4217 62.128 61.4718 62.2607 61.4718C62.7211 61.4718 62.9569 60.91 62.627 60.5827C61.826 59.7875 60.549 59.2567 59.295 59.1974ZM57.3945 59.5265C57.32 59.5597 57.2489 59.5949 57.1792 59.6331C56.7097 59.8893 56.8895 60.6095 57.429 60.6095C57.594 60.6095 57.6655 60.5457 57.821 60.4744C58.0831 60.3566 58.1995 60.0485 58.0817 59.7868C57.9632 59.5245 57.6538 59.4087 57.3945 59.5265ZM46.5584 52.3613C46.5652 52.4185 46.5808 52.4855 46.6167 52.538L46.641 52.6054C48.1882 57.127 53.6528 58.6707 57.2259 55.4322C59.1426 53.6876 59.5922 51.6712 59.4716 49.1188C64.0286 48.6538 67.0219 43.2852 64.2906 38.4184C62.3627 35.0208 57.3882 33.9681 54.0713 37.4617C52.4587 39.1294 51.6483 41.2289 52.1961 43.4465C48.0708 44.1402 45.1588 48.1971 46.5584 52.3613ZM54.8222 38.1811C57.8716 34.9684 62.469 36.2705 63.7279 39.689C63.7823 39.9655 64.0008 40.445 64.0008 41.2903C64.0269 44.1473 61.8971 46.8062 58.9659 47.0388C58.0012 44.8334 55.6752 43.368 53.25 43.3594C52.7379 41.3677 53.4014 39.6521 54.8222 38.1811ZM50.2397 45.3003C53.6885 43.1866 57.6237 45.105 58.3377 48.4369C58.7274 49.9838 58.1343 52.107 56.5265 53.5699C53.4938 56.3189 48.9245 54.9733 47.6221 51.1676C46.7658 48.8382 48.0515 46.5953 50.2397 45.3003Z" fill="#051328"/>
<path d="M39.2173 46.0337C38.8921 46.288 39.1996 48.0212 39.5313 48.2028C39.7792 48.3386 39.9912 48.2199 40.2265 48.1368C40.3112 48.1069 39.867 48.2638 43.1948 47.0879C43.4483 46.9983 43.8947 46.9475 43.8132 46.5702C43.7456 46.2579 43.3923 46.277 43.0976 46.2503C39.3613 45.9113 39.4232 45.8727 39.2173 46.0337ZM39.428 41.0234C39.465 41.0333 41.2984 41.5246 41.3355 41.5345C41.5106 41.5815 42.1784 41.8632 42.2983 41.6777C42.4503 41.4428 41.9154 41.0026 41.621 40.6404C41.3907 40.3571 41.1604 40.0737 40.9301 39.7904C40.7011 39.5087 40.1117 38.5414 39.6444 38.864C39.378 39.0479 38.6039 40.3767 38.8126 40.739C38.937 40.9549 39.2062 40.964 39.428 41.0234ZM46.8535 42.8597C47.0167 42.9951 47.2217 42.9785 47.366 42.7882C47.488 42.6276 47.3765 42.9023 48.4478 38.824C48.5144 38.5704 48.6482 38.2472 48.5329 37.9977C48.3626 37.629 46.6323 37.42 46.3671 37.7703C46.1157 38.1024 46.2993 38.749 46.3394 39.1342C46.7301 42.8957 46.6632 42.7016 46.8535 42.8597Z" fill="#051328"/>
</svg>
