<svg width="114" height="114" viewBox="0 0 114 114" fill="none" xmlns="http://www.w3.org/2000/svg">
<rect width="80" height="80" rx="20" transform="matrix(-0.707107 -0.707107 -0.707107 0.707107 113.469 56.5684)" fill="#fedc60"/>
<path d="M79.1196 63.4542C78.8898 62.8796 78.3077 62.1609 77.6571 61.8122C75.3848 60.5651 72.6142 60.1371 69.8618 60.6118C68.4906 60.8455 66.2927 61.5105 65.29 62.5371C65.2912 62.3068 65.3042 60.2332 65.3126 59.4015C65.57 59.4955 65.8447 59.6724 66.3092 59.5203C69.2071 58.5541 72.0901 56.2723 73.3197 53.9709C75.0646 50.7236 75.6407 46.7715 74.9427 42.8427C74.8317 42.211 74.1845 41.8174 73.5662 42.0089C71.5417 42.6406 68.813 41.9839 66.6166 40.3348C66.2273 40.0423 65.7012 40.0416 65.3091 40.3352C63.112 41.9839 60.3834 42.6396 58.3582 42.0086C57.7392 41.8158 57.0935 42.2126 56.9817 42.84C56.3062 46.6141 56.8251 50.4135 58.4217 53.6008C45.3457 55.4363 36.9475 52.7363 35.921 52.7271C35.6834 52.7271 35.4674 52.7935 35.269 52.9303C34.9724 53.1449 34.7382 53.3148 34.5344 64.22C34.4856 66.9973 34.4714 70.2345 34.5337 70.6211C34.7605 72.0389 36.116 72.1459 37.0815 72.2224C46.6283 72.9281 53.4699 72.5992 61.1856 71.8271C61.4542 73.3054 62.6244 74.0587 64.0091 74.5577C64.0813 74.5755 65.8604 75.3248 68.7264 75.3248C69.9106 75.3248 71.1192 75.1934 72.3109 74.9294C73.7004 74.6142 75.0589 74.0471 75.6272 72.7397C75.9926 71.9167 75.831 71.5423 75.892 70.2769C76.642 70.0979 77.4493 69.8286 78.0566 69.3428C78.8123 68.7847 79.2503 67.8887 79.2726 67.0745C79.2735 67.0033 79.3048 64.3026 79.304 64.3738L79.3045 64.3703C79.3045 64.0574 79.2422 63.7494 79.1196 63.4542ZM64.5646 66.7964L64.5664 67.0847C64.9147 70.2891 70.5541 70.9364 73.7459 70.63C71.9534 71.6289 67.2989 72.0574 64.198 70.8127C61.7458 69.7375 62.3539 68.6675 62.2684 68.4883C62.4885 67.6407 63.7333 67.0993 64.5646 66.7964ZM70.0372 61.6369C72.5614 61.2042 75.0903 61.5902 77.1615 62.7263C78.4084 63.3959 78.5831 64.8034 77.6497 65.656C76.8507 66.3966 75.5615 66.6116 74.4843 66.7963C71.541 67.254 68.6806 66.7484 67.0919 65.981C66.4296 65.6575 65.7614 65.1274 65.6532 64.401L65.6599 63.8733C66.0012 62.6333 68.771 61.852 70.0372 61.6369ZM58.0481 43.0012C60.3834 43.7297 63.4776 43.0096 65.9923 41.1666C68.4474 43.0093 71.5403 43.7297 73.9189 43.0242C74.5764 46.7248 74.0381 50.4379 72.4029 53.4794V53.4807C71.3054 55.5336 68.6045 57.659 65.9463 58.5331C63.3246 57.6597 60.6197 55.5343 59.5153 53.4807C57.8815 50.4271 57.3453 46.7133 58.0481 43.0012ZM37.0951 71.1804C36.0348 71.0964 35.6434 70.9745 35.5608 70.4599C35.4374 69.516 35.6684 55.8159 35.9901 53.7692C36.7352 53.8039 45.6162 56.5275 58.9732 54.5697C60.1186 56.3039 62.1158 57.9532 64.2774 58.9705C64.2611 60.2342 64.2434 64.1263 64.2252 65.8169C62.9421 66.2859 61.5304 66.9713 61.2412 68.3116C61.2264 68.381 61.2281 68.2645 61.1756 70.783C53.3049 71.5752 46.6123 71.8842 37.0951 71.1804Z" fill="#051328"/>
<path d="M61.5844 67.21C61.5815 66.5731 61.5786 63.8341 61.5722 58.5129C61.5715 58.2346 61.3514 58.0057 61.0732 57.9949C60.262 57.9624 59.22 57.1892 58.9695 56.4349C58.8902 56.1986 58.6526 56.0537 58.4102 56.0828L57.5252 56.1959C51.9653 56.8287 46.4211 56.9558 40.9529 56.1424C40.6693 56.1065 40.4072 56.2934 40.3625 56.5764C40.2407 57.3523 39.4173 58.4776 38.6651 58.6374C38.4301 58.6869 38.2595 58.8913 38.2527 59.1317C38.2365 59.7381 38.1843 64.2154 38.2033 67.7713C38.2061 68.0953 38.5072 68.3436 38.8316 68.2744C39.691 68.0922 40.5354 68.7922 40.4411 69.7152C40.4262 69.8581 40.4715 70.0009 40.5663 70.1093C40.7935 70.3707 41.0745 70.2637 41.4757 70.3083C47.3409 70.6106 57.6966 70.1044 58.8103 70.007C59.0907 69.9826 59.3012 69.7389 59.2843 69.4579C59.2267 68.5019 59.9909 67.6794 61.0508 67.73C61.367 67.73 61.5844 67.4861 61.5844 67.21ZM60.5423 66.7279C59.2666 66.9354 58.4392 67.8251 58.2687 69.0049C55.2284 69.2063 47.0352 69.5047 41.4682 69.267C41.3204 68.1351 40.3796 67.2708 39.2386 67.2113C39.2269 64.5895 39.2738 60.1264 39.2846 59.5231C40.1689 59.1371 40.9441 58.156 41.2624 57.2379C46.6834 57.996 52.1898 57.8486 57.6498 57.2284L58.1576 57.1634C58.6174 58.0084 59.5822 58.737 60.5335 58.9631C60.5436 69.0445 60.54 66.2076 60.5423 66.7279Z" fill="#051328"/>
<path d="M56.9981 62.224C56.4389 62.4786 55.7767 62.5321 55.1815 62.3723C54.9005 62.2972 54.6189 62.4637 54.5444 62.74C54.4699 63.0169 54.6344 63.3026 54.9121 63.3771C55.7292 63.5967 56.625 63.5348 57.4274 63.172C57.6888 63.0535 57.8052 62.7454 57.6867 62.4834C57.5676 62.222 57.2602 62.1069 56.9981 62.224ZM44.3529 62.4441C43.7564 62.5944 43.0942 62.5294 42.539 62.2674C42.2777 62.1414 41.9696 62.2559 41.8471 62.5152C41.7238 62.7752 41.8355 63.0846 42.0949 63.2072C42.8634 63.5707 43.7552 63.6667 44.6062 63.4529C44.8851 63.3825 45.0537 63.1002 44.984 62.8219C44.9136 62.5429 44.6305 62.3723 44.3529 62.4441ZM65.7907 53.7679C67.3277 53.7679 68.86 52.9304 69.6366 51.5945C70.5479 50.0271 70.3475 47.8942 69.1613 46.5238C66.3486 43.275 60.9291 45.717 61.5062 49.9797C61.7784 51.9858 63.5988 53.7679 65.7907 53.7679ZM68.3745 47.205C69.2798 48.2497 69.4321 49.8761 68.7374 51.0718C68.0421 52.2675 66.5545 52.9372 65.1976 52.6704C63.8414 52.4002 62.7229 51.2099 62.5367 49.8402C62.0992 46.6093 66.2411 44.738 68.3745 47.205Z" fill="#051328"/>
<path d="M64.7456 50.2096C64.814 50.3321 64.9291 50.4215 65.0652 50.4581C65.4341 50.5546 65.5375 50.3156 67.2589 49.2874C67.5054 49.1398 67.586 48.8202 67.4384 48.5744C67.2908 48.3273 66.9712 48.2481 66.7254 48.395C66.4305 48.571 65.7977 48.9728 65.3882 49.2285L65.1343 48.7755C64.9941 48.5257 64.6779 48.437 64.426 48.5765C64.1755 48.7173 64.0868 49.0342 64.227 49.2847L64.7456 50.2096ZM51.8756 43.302C51.5872 43.2455 51.3204 43.4303 51.2649 43.7116C51.2087 43.9933 51.3922 44.2668 51.6738 44.3224C52.1142 44.4093 53.2432 44.5935 53.4641 44.5935C53.7254 44.5935 53.9502 44.3972 53.98 44.1318C54.0125 43.8464 53.8067 43.5887 53.5216 43.5569C52.9738 43.4953 52.42 43.4096 51.8756 43.302ZM55.3558 42.3531C55.8426 42.3531 56.0644 41.7383 55.6835 41.4292L51.9494 38.4036C51.7253 38.2229 51.3989 38.2567 51.2175 38.4801C51.0367 38.7032 51.0712 39.0306 51.294 39.2114C55.2059 42.3253 55.0196 42.3531 55.3558 42.3531ZM56.9212 40.7744H56.9239C57.211 40.7727 57.4426 40.5388 57.4412 40.2517L57.4311 38.3288C57.4297 38.0424 57.1968 37.8115 56.9111 37.8115H56.9084C56.6213 37.8132 56.3897 38.0471 56.3911 38.3342L56.4012 40.2571C56.4026 40.5436 56.6355 40.7744 56.9212 40.7744ZM70.7033 64.8779C70.7033 65.165 70.9362 65.3979 71.2233 65.3979C71.2931 65.3979 71.9824 65.3979 71.9125 65.3979H72.5659C72.853 65.3979 73.0859 65.165 73.0859 64.8779C73.0859 64.5908 72.853 64.3579 72.5659 64.3579H72.3963L72.3432 62.8717C72.3301 62.4851 71.9117 62.25 71.5747 62.4343L71.0675 62.7119C70.5949 62.9711 70.7812 63.6956 71.3316 63.6876L71.3553 64.3579H71.2233C70.9362 64.3579 70.7033 64.5908 70.7033 64.8779Z" fill="#051328"/>
<path d="M50.2152 67.7324L48.2227 64.2534V63.7895H48.4546C48.8271 63.7895 49.1399 63.7544 49.3929 63.6841C49.6529 63.6138 49.8567 63.4979 50.0043 63.3362C50.1519 63.1745 50.2398 62.9532 50.2679 62.672H48.2227V61.9973H50.2574C50.2082 61.7373 50.1098 61.5264 49.9622 61.3648C49.8146 61.1961 49.6143 61.0731 49.3612 60.9958C49.1153 60.9185 48.813 60.8798 48.4546 60.8798H48.2227V60.2051H52.5872V60.8798H50.5947C50.7564 61.0133 50.8899 61.1715 50.9953 61.3542C51.1008 61.5369 51.1675 61.7513 51.1956 61.9973H52.5872V62.672H51.2167C51.1675 63.1851 50.9707 63.5857 50.6263 63.8739C50.289 64.155 49.8392 64.3342 49.2769 64.4115L51.2905 67.7324H50.2152Z" fill="#051328"/>
</svg>
