<svg width="41" height="40" viewBox="0 0 41 40" fill="none" xmlns="http://www.w3.org/2000/svg">
<path d="M34.8986 18.21L36.1617 19.4731V39.2248C36.1617 39.6527 35.8149 39.9995 35.3871 39.9995H3.53511L2.76562 39.021C13.3828 39.021 24.1658 39.3776 34.762 38.7101C34.9076 31.8633 35.1057 25.0552 34.8986 18.21Z" fill="#051328"/>
<path d="M32.7462 6.7042C33.4289 7.69242 33.7694 8.88441 33.9021 10.0781C34.0348 11.2718 33.9703 12.4777 33.9056 13.677C33.8231 15.207 33.7406 16.737 33.6581 18.2671C33.6196 18.9814 33.4979 19.8286 32.8553 20.1429C33.1002 18.0721 33.2281 15.9875 33.2382 13.9023C33.2476 11.9563 33.1488 9.97856 32.5212 8.13657C31.9175 6.36497 30.8306 4.92938 29.2695 3.90625C30.5507 4.34489 31.9859 5.60352 32.7462 6.7042Z" fill="#051328"/>
<path d="M34.7159 39.3336H3.13129C2.8755 39.3336 2.66797 39.126 2.66797 38.8702V18.343C2.66797 18.1744 2.75967 18.0191 2.90747 17.9373C3.05528 17.8562 3.23536 17.8613 3.37834 17.9509C8.90718 21.4334 14.7669 25.6911 19.3142 29.0617C21.4885 27.4648 23.8491 25.8362 26.135 24.2592C28.8423 22.3914 31.6418 20.46 34.2121 18.5291C34.3521 18.4239 34.5385 18.407 34.6954 18.4839C34.8519 18.5611 34.9518 18.7198 34.9539 18.8944L35.1792 38.8651C35.1807 38.9888 35.1325 39.1079 35.0453 39.196C34.9584 39.2841 34.8396 39.3336 34.7159 39.3336ZM3.59462 38.4069H34.2474L34.0375 19.815C31.659 21.5739 29.1222 23.3241 26.6614 25.0217C24.2841 26.6618 21.8263 28.3576 19.5887 30.0103C19.4243 30.1316 19.2011 30.1313 19.0373 30.01C14.6583 26.7607 8.99858 22.6354 3.59462 19.1855V38.4069Z" fill="#051328"/>
<path d="M5.68521 20.2205C5.43062 20.2205 5.2237 20.0151 5.22189 19.7605L5.11329 4.16098C5.11148 3.90488 5.31751 3.69615 5.5733 3.69434H5.57662C5.83121 3.69434 6.03814 3.89976 6.03995 4.15434L6.14854 19.7539C6.15035 20.01 5.94432 20.2187 5.68853 20.2205H5.68521Z" fill="#051328"/>
<path d="M32.8631 20.3842C32.5895 20.3673 32.3991 20.1757 32.3997 19.9196L32.4257 9.91589L29.1308 9.70443C28.4669 9.6616 27.9586 9.11623 27.9731 8.46287C27.9879 7.82097 28.0645 7.18781 28.1387 6.57548C28.2238 5.87415 28.3049 5.2051 28.3001 4.52912L5.57782 4.58251H5.57661C5.32112 4.58251 5.11389 4.37588 5.11328 4.12039C5.11268 3.86429 5.31961 3.65646 5.5754 3.65586L28.7456 3.60156H28.7468C28.9909 3.60156 29.193 3.79069 29.2093 4.03412C29.2699 4.94629 29.1625 5.83132 29.0587 6.68708C28.9839 7.30425 28.913 7.88763 28.8998 8.48398C28.8961 8.63903 29.0237 8.76903 29.1902 8.77959L32.9198 9.0191C33.1641 9.03478 33.3541 9.23779 33.3535 9.48273L33.3264 19.922C33.3258 20.1775 33.1183 20.3842 32.8631 20.3842Z" fill="#051328"/>
<path d="M32.8909 9.7011C32.6789 9.7011 32.4874 9.5548 32.4391 9.33913C31.9622 7.21223 30.5568 5.42619 28.5829 4.43921C28.3539 4.32459 28.2613 4.04647 28.3756 3.81752C28.4903 3.58858 28.7687 3.49688 28.9973 3.61029C31.2213 4.72246 32.8053 6.73654 33.3434 9.13642C33.3992 9.38618 33.2424 9.63383 32.9926 9.68994C32.9585 9.69748 32.9244 9.7011 32.8909 9.7011ZM3.17474 18.593C2.99647 18.593 2.82665 18.4898 2.75033 18.3164C2.64717 18.082 2.75365 17.8087 2.98773 17.7055C3.50233 17.4793 3.93278 17.2754 4.39309 17.0573C4.71464 16.9053 5.05037 16.7463 5.43889 16.568C5.67176 16.4625 5.94656 16.5635 6.05304 16.7961C6.15982 17.0286 6.05786 17.3034 5.82499 17.4102C5.4407 17.5867 5.10798 17.7442 4.78975 17.895C4.3216 18.1164 3.88421 18.3236 3.36116 18.5538C3.30023 18.5803 3.23688 18.593 3.17474 18.593ZM34.6158 19.0409C34.4749 19.0409 34.3358 18.977 34.2447 18.8557C33.985 18.5091 33.6873 18.1586 33.3929 17.8117C33.1353 17.508 32.8801 17.2066 32.6527 16.9134C32.4955 16.7113 32.5323 16.4202 32.7344 16.2634C32.9368 16.1065 33.2282 16.143 33.3844 16.3451C33.6043 16.6284 33.8511 16.9192 34.0996 17.2124C34.401 17.5677 34.7126 17.9348 34.9862 18.2995C35.1397 18.5043 35.0981 18.7948 34.8936 18.9483C34.81 19.0108 34.7126 19.0409 34.6158 19.0409ZM3.29721 39.119C3.16841 39.119 3.04021 39.0656 2.94881 38.9612C2.77989 38.7691 2.7989 38.4762 2.99134 38.3076L15.861 27.0128C16.0532 26.8436 16.3464 26.8632 16.5147 27.0553C16.6836 27.2475 16.6646 27.5404 16.4721 27.709L3.60248 39.0038C3.5147 39.081 3.4055 39.119 3.29721 39.119ZM34.1177 39.1395C33.9898 39.1395 33.8628 39.087 33.7715 38.9841C32.9253 38.0343 32.0913 37.0907 31.2581 36.1487C28.6709 33.2221 25.9954 30.196 23.0519 27.0819C22.8761 26.896 22.8842 26.6025 23.0703 26.427C23.2561 26.2514 23.5493 26.259 23.7252 26.4454C26.6792 29.5704 29.3599 32.6026 31.9525 35.5348C32.7848 36.476 33.6182 37.4189 34.4634 38.3682C34.6336 38.5591 34.6167 38.852 34.4254 39.0222C34.3373 39.1009 34.2272 39.1395 34.1177 39.1395ZM23.5104 9.74182H9.92193C9.66613 9.74182 9.4586 9.53429 9.4586 9.2785C9.4586 9.0227 9.66613 8.81517 9.92193 8.81517H23.5104C23.7662 8.81517 23.9737 9.0227 23.9737 9.2785C23.9737 9.53429 23.7662 9.74182 23.5104 9.74182ZM19.9881 14.0858H9.65045C9.39465 14.0858 9.18712 13.8783 9.18712 13.6225C9.18712 13.3667 9.39465 13.1592 9.65045 13.1592H19.9881C20.2439 13.1592 20.4514 13.3667 20.4514 13.6225C20.4514 13.8783 20.2439 14.0858 19.9881 14.0858ZM16.7029 18.2672H9.70474C9.44895 18.2672 9.24142 18.0597 9.24142 17.8039C9.24142 17.5481 9.44895 17.3405 9.70474 17.3405H16.7029C16.9587 17.3405 17.1662 17.5481 17.1662 17.8039C17.1662 18.0597 16.9587 18.2672 16.7029 18.2672ZM32.9878 3.78917C32.9211 3.78917 32.8535 3.77469 32.7893 3.74422C32.5582 3.63443 32.4599 3.35812 32.5697 3.12706L33.9298 0.264452C34.0393 0.033091 34.3159 -0.0646418 34.547 0.0448551C34.778 0.154654 34.8764 0.43096 34.7666 0.66202L33.4065 3.52463C33.3271 3.69174 33.1609 3.78917 32.9878 3.78917ZM34.5811 5.24822C34.4158 5.24822 34.2559 5.15954 34.1723 5.00359C34.0514 4.77826 34.1364 4.49743 34.3621 4.37647L36.6425 3.15451C36.8681 3.03385 37.149 3.11861 37.2699 3.34394C37.3909 3.56957 37.3058 3.8504 37.0805 3.97136L34.7995 5.19332C34.7298 5.23073 34.655 5.24822 34.5811 5.24822Z" fill="#051328"/>
<path d="M37.5107 7.98072C37.4727 7.98072 37.4341 7.9762 37.3955 7.96624L35.1181 7.38256C34.8702 7.31891 34.7205 7.06644 34.7842 6.81879C34.8478 6.57114 35.0985 6.41971 35.348 6.48486L37.6254 7.06855C37.8733 7.13219 38.0229 7.38467 37.9593 7.63232C37.9056 7.84166 37.7174 7.98072 37.5107 7.98072Z" fill="#051328"/>
</svg>
