<svg width="72" height="72" viewBox="0 0 72 72" fill="none" xmlns="http://www.w3.org/2000/svg">
<g id="empty-folder">
<path id="Vector" d="M62.0451 57.7059L64.7981 29.6471C64.904 28.4824 64.4804 27.3177 63.7393 26.4706C62.9981 25.6236 61.8334 25.0941 60.6687 25.0941V17.7883C60.6687 15.0353 58.551 12.8118 55.7981 12.7059L11.2216 12.0706C8.36279 12.0706 6.24515 14.2941 6.13926 16.9412V18.8471C4.86868 19.1647 3.91574 20.0118 3.38632 21.2824C2.75103 22.0236 2.3275 22.9765 2.11574 23.7177C1.58632 25.6236 1.69221 27.6353 1.90397 29.6471C2.75103 38.9647 3.59809 48.1765 4.33926 57.4941C4.65691 61.5177 5.71573 63.2118 11.5393 63.5294C28.1628 64.3765 44.7863 64.2706 61.4099 63.953C62.0451 63.953 62.7863 63.953 63.3157 63.6353C63.951 63.3177 64.3746 62.6824 64.2687 62.0471C63.951 60.6706 61.6216 60.8824 60.2451 60.7765C61.1981 60.1412 61.8334 59.0824 62.0451 57.7059ZM11.2216 13.7647L55.7981 14.4C57.5981 14.4 59.1863 15.9883 59.0804 17.7883V25.2H43.5157C42.351 25.2 41.1863 24.6706 40.3393 23.8236L37.904 21.0706C36.6334 19.6941 34.8334 18.8471 32.9275 18.8471H7.7275V17.153C7.7275 15.1412 9.31574 13.6589 11.2216 13.7647ZM57.9157 59.9294H10.1628C8.89221 59.9294 7.7275 58.9765 7.62162 57.6L4.55103 23.0824C4.44515 21.6 5.60985 20.3294 7.09221 20.3294H32.9275C34.4099 20.3294 35.7863 20.9647 36.7393 22.0236L39.1746 24.7765C40.2334 26.0471 41.8216 26.7883 43.5157 26.7883H60.6687C61.4099 26.7883 62.0451 27.1059 62.5746 27.6353C63.104 28.1647 63.3157 28.9059 63.2099 29.5412L60.4569 57.6C60.351 58.8706 59.1863 59.9294 57.9157 59.9294Z" fill="#051328"/>
<path id="Vector_2" d="M61.1997 8.04708C60.2468 9.31767 59.5056 10.5883 58.9762 12.0706C58.8703 12.4941 59.0821 12.9177 59.5056 13.0235C59.9291 13.1294 60.3527 12.9177 60.4586 12.4941C60.8821 11.2235 61.5174 9.95296 62.3644 8.89414C62.6821 8.57649 62.5762 8.04708 62.2586 7.72943C61.9409 7.72943 61.5174 7.72943 61.1997 8.04708ZM67.9762 11.1177C67.7644 10.8 67.235 10.5883 66.9174 10.9059L61.9409 14.0824C61.6233 14.2941 61.5174 14.8235 61.7291 15.1412C61.9409 15.4588 62.4703 15.6706 62.788 15.353L67.7644 12.1765C68.0821 11.9647 68.188 11.4353 67.9762 11.1177ZM69.4586 16.8353L63.8468 17.2588C63.4233 17.2588 63.1056 17.6824 63.1056 18.1059C63.1056 18.5294 63.5291 18.8471 63.9527 18.8471L69.5644 18.4235C69.988 18.4235 70.3056 18 70.3056 17.5765C70.1997 17.153 69.8821 16.8353 69.4586 16.8353Z" fill="#051328"/>
<path id="Vector_3" d="M42.5198 44.3037L42.5197 44.3036L42.5269 44.2964C43.0398 43.7835 43.8858 43.7835 44.3987 44.2964C44.9111 44.8088 44.9116 45.6535 44.4004 46.1665C38.3851 52.2895 28.1058 52.4062 22.0815 45.7345C21.5724 45.214 21.5812 44.353 22.2235 43.8476C22.7473 43.3521 23.6005 43.369 24.1 44.0117C29.0913 49.4946 37.6382 49.3887 42.5198 44.3037Z" fill="#051328" stroke="#051328"/>
</g>
</svg>
