<svg width="72" height="80" viewBox="0 0 72 80" fill="none" xmlns="http://www.w3.org/2000/svg">
<path d="M11.2 67.4945C10.5892 63.9273 11.378 61.0666 13.4423 57.9076C13.5076 57.3624 12.7363 57.9196 12.5093 58.0503C10.5417 59.2708 9.69362 61.7847 9.17796 63.8034C7.36618 58.2282 6.46124 51.4414 9.00182 46.015C11.7949 39.6795 19.5232 34.2061 27.9367 35.3729C28.3578 39.7774 30.0285 44.5174 34.0074 47.6255C39.58 51.222 44.4966 46.5153 42.1016 41.2761C40.1583 37.0271 35.4482 33.9801 30.2791 32.6738C31.6219 14.893 52.7385 7.82361 70.6696 15.6113C70.6913 15.6216 70.7152 15.6281 70.7399 15.6305C70.7646 15.6328 70.7897 15.631 70.8135 15.625C70.8373 15.619 70.8595 15.609 70.8785 15.5956C70.8976 15.5823 70.9131 15.5658 70.9243 15.5473C70.9366 15.5298 70.9446 15.5104 70.9479 15.4903C70.9511 15.4702 70.9495 15.4498 70.9432 15.4302C70.9368 15.4106 70.9259 15.3923 70.9109 15.3763C70.896 15.3603 70.8774 15.3469 70.8562 15.337C52.484 6.49704 30.1441 13.9057 27.9779 32.275C21.7206 31.4922 15.3702 33.9322 11.2923 37.8216C3.8819 44.7158 3.81425 55.9176 8.12219 64.0806C7.08532 63.6657 6.27142 62.9359 5.24009 62.5184C4.0325 62.0303 1.57314 61.9122 2.13872 62.5553C3.28431 63.0406 4.38352 63.5983 5.42667 64.2238C6.49456 64.8406 7.67763 65.5651 8.70906 66.2225L8.90168 66.3514L10.8708 67.6375C10.9013 67.6587 10.9386 67.6718 10.978 67.6754C11.0175 67.6789 11.0573 67.6726 11.0925 67.6573C11.1277 67.642 11.1566 67.6184 11.1758 67.5895C11.1949 67.5605 11.2033 67.5275 11.2 67.4945ZM36.7559 39.3979C42.1399 43.5082 39.0992 49.4783 34.3577 44.5928C32.2102 42.0136 30.8605 39.0322 30.4287 35.9137C32.8307 36.655 34.9957 37.8472 36.7559 39.3979Z" fill="#1E293B"/>
<path d="M41.162 11.6243C41.1768 11.6415 41.1861 11.6615 41.1892 11.6825C41.1923 11.7035 41.1891 11.7248 41.1797 11.7444C41.1704 11.7641 41.1552 11.7815 41.1357 11.795C41.1162 11.8085 41.0929 11.8177 41.068 11.8218C36.5332 12.5899 32.4618 15.6656 31.1051 18.8949C31.0934 18.924 31.0687 18.9483 31.0362 18.9628C31.0037 18.9773 30.9658 18.9809 30.9302 18.9729C30.8946 18.9646 30.8633 18.9467 30.8412 18.922C30.819 18.8973 30.8074 18.8672 30.808 18.8364C30.9087 14.7961 36.4756 11.91 40.8968 11.5319C40.9473 11.5273 40.9984 11.5341 41.0446 11.5517C41.0909 11.5692 41.1306 11.5968 41.1596 11.6316L41.162 11.6243Z" fill="#1E293B"/>
<path d="M42.9564 50.1031C42.5471 52.3366 38.8238 52.9466 36.9963 51.4385C36.9836 51.4286 36.9753 51.4155 36.9727 51.4012C36.9702 51.3869 36.9735 51.3723 36.9821 51.3598C36.9907 51.3472 37.0042 51.3375 37.0203 51.3321C37.0365 51.3268 37.0543 51.3262 37.0709 51.3303C39.1957 51.8048 41.4365 51.5835 42.8169 50.0563C42.8268 50.0442 42.8413 50.0352 42.8581 50.0309C42.8749 50.0266 42.893 50.0273 42.9093 50.0328C42.9256 50.0382 42.9392 50.0482 42.9478 50.061C42.9563 50.0738 42.9594 50.0886 42.9564 50.1031Z" fill="#1E293B"/>
<path d="M42.6285 11.5162C42.666 11.3395 42.7813 11.181 42.9517 11.0715C43.0752 10.9873 43.2263 10.936 43.3852 10.9244C43.539 10.9136 43.6931 10.9419 43.8272 11.0056C44.0094 11.0915 44.1554 11.2222 44.2452 11.3798C44.1452 11.5224 44.0114 11.6465 43.8518 11.7444C43.7448 11.8108 43.6177 11.8509 43.4849 11.8601C43.352 11.8694 43.2187 11.8475 43.1 11.797C42.9284 11.7215 42.7698 11.627 42.6285 11.5162Z" fill="#1E293B"/>
<path d="M35.6884 50.8903C35.7002 50.8948 35.7099 50.9023 35.7162 50.9118C35.7225 50.9212 35.725 50.9321 35.7234 50.9428C35.7218 50.9535 35.7161 50.9636 35.7072 50.9714C35.6983 50.9793 35.6866 50.9845 35.6738 50.9865C35.5387 51.0099 35.3993 51.0099 35.2642 50.9867C35.0816 50.9544 34.9083 50.8931 34.7534 50.8063C34.5992 50.7199 34.4671 50.6088 34.3646 50.4796C34.2871 50.3845 34.234 50.277 34.2087 50.1639C34.2069 50.1536 34.2089 50.1432 34.2143 50.1338C34.2197 50.1244 34.2282 50.1166 34.239 50.1113C34.2497 50.106 34.262 50.1034 34.2745 50.1039C34.2869 50.1044 34.2989 50.108 34.3089 50.1141C34.4079 50.185 34.501 50.2448 34.5941 50.3046C34.7202 50.3854 34.8487 50.459 34.9772 50.5325C35.1057 50.6061 35.2353 50.676 35.3771 50.7447C35.4737 50.7936 35.5731 50.8411 35.6884 50.8903Z" fill="#1E293B"/>
<path d="M12.2774 44.7065C10.5204 47.3393 9.3962 51.4397 10.1788 54.3997C10.1816 54.4063 10.1812 54.4135 10.1777 54.4199C10.1741 54.4262 10.1676 54.4311 10.1597 54.4335C10.1518 54.4358 10.1431 54.4355 10.1355 54.4325C10.1279 54.4295 10.122 54.4242 10.1192 54.4176C8.48148 51.6568 9.74175 46.9002 12.2259 44.6774C12.2311 44.6731 12.2379 44.6704 12.2453 44.6698C12.2526 44.6692 12.26 44.6707 12.2661 44.6742C12.2722 44.6776 12.2767 44.6827 12.2787 44.6886C12.2808 44.6945 12.2803 44.7008 12.2774 44.7065Z" fill="#1E293B"/>
</svg>
