<svg width="67" height="87" viewBox="0 0 67 87" fill="none" xmlns="http://www.w3.org/2000/svg">
<path d="M60.1096 32.1338C60.062 33.2661 59.5486 34.2066 59.2057 35.273C58.6081 35.4912 57.9384 35.6055 58.3443 36.3116C58.179 37.1539 57.7184 37.9303 57.1858 38.6026C55.9519 38.503 55.9641 39.1211 56.0484 39.8433C55.8972 39.9854 55.746 40.1275 55.5949 40.2696C55.2803 39.9356 55.0256 39.0874 54.3154 39.9839C53.9866 40.3501 53.9988 40.9683 53.4276 41.1045C52.0883 41.333 51.9949 42.2793 51.6327 43.0776L51.508 43.1377C49.847 43.3823 48.2966 44.267 46.5179 44.2215C45.5793 44.1878 45.5915 44.806 45.3349 45.2762C45.1116 45.3143 44.8884 45.3523 44.6652 45.3904C44.5404 45.4505 44.4156 45.5105 44.2908 45.5706C44.166 45.6306 43.9691 45.5867 43.8443 45.6467C43.1818 45.4109 42.781 45.6731 42.6227 46.1653C42.018 46.7336 41.3676 47.1159 40.6452 47.3942C39.7594 47.1964 38.9984 46.9386 38.0791 47.1729C37.5342 47.2271 36.826 46.8052 36.5429 47.3574C36.1087 48.0518 36.8961 48.2276 37.4339 48.5235C37.9716 48.8195 37.5638 49.4318 37.9768 49.7877C36.4032 53.0412 34.7312 56.2727 31.9573 58.9943C29.6633 61.2077 25.3043 61.6411 22.7472 59.7513C22.0653 59.2474 21.8827 58.5032 21.7 57.759C21.2961 55.7345 21.7322 53.7218 22.1684 51.7091C22.981 48.1978 24.0888 44.7524 25.9576 41.5649C27.517 39.0116 29.4823 37.1645 33.3421 36.9713C35.0487 36.9127 36.7098 36.6682 38.3971 36.3416C40.2093 35.9549 41.3132 35.1463 42.0305 33.8997C42.7214 32.7352 43.2155 31.5267 43.808 30.3401C44.8418 28.1092 44.7402 25.8005 44.317 23.5079C44.6071 22.6056 44.9693 21.8072 46.6759 21.7487C45.5019 21.1349 44.4913 20.9971 43.7567 20.6572C42.4122 19.9174 40.943 19.2377 39.3875 19.1541C39.1907 19.1101 38.9674 19.1482 38.7705 19.1043C35.484 17.8429 33.821 19.4058 33.2388 22.529C33.186 22.693 33.1597 22.7751 33.0085 22.9171C32.4636 22.9713 32.0892 23.1515 31.7605 23.5177C31.0715 23.3639 30.3825 23.21 30.1452 23.9483C29.9219 23.9864 29.6267 23.9205 29.6003 24.0025C29.4948 24.3306 29.8428 24.2325 30.0133 24.3585C30.3085 24.4244 30.6038 24.4903 30.8991 24.5563C30.7936 24.8844 30.8129 25.1525 31.0554 25.3825C31.0484 25.7326 30.8708 25.9567 30.4964 26.1369C30.1027 26.049 29.5385 25.8351 29.3873 25.9771C27.837 26.8619 26.0126 26.6304 24.3252 26.957C23.3339 27.0873 22.369 27.1356 21.1544 27.304C21.8099 27.89 22.5253 27.9618 23.1879 28.1977C23.0682 29.226 21.8537 29.3944 21.1962 30.1269C20.0222 29.513 18.8218 28.9812 17.9502 28.0832C16.6655 26.8292 16.7466 25.2647 16.4797 23.7984C16.6765 23.8423 16.7749 23.8643 16.9982 23.8262C17.3198 23.8101 17.6415 23.794 17.747 23.4659C17.7734 23.3839 17.6029 23.2579 17.5045 23.2359C17.2356 23.0879 16.8876 23.1861 16.71 23.4102C16.6836 23.4922 16.5324 23.6343 16.506 23.7163C15.8242 23.2124 16.8296 22.3818 16.023 21.9379C15.8332 21.5439 15.8667 21.1117 16.097 20.7236C17.4099 20.5771 17.3977 19.9589 16.8934 19.2309C17.2575 17.1141 19.0189 15.5731 20.7276 14.1962C23.1393 12.2729 25.7215 10.4756 28.736 9.30233C33.4977 7.28829 38.6775 6.59853 44.0451 7.62122C46.9258 8.17653 49.7344 8.62782 52.3056 9.81741C54.2406 10.6891 55.5253 11.9431 56.4355 13.3772C58.0398 15.9335 59.2961 18.5879 59.9284 21.5426C59.1989 22.1711 58.5679 22.8214 57.812 23.5319C58.7435 23.9157 59.3269 24.3977 60.2391 24.5134C60.3111 24.6175 60.3568 24.8035 60.4288 24.9075C60.0474 25.4378 60.1387 25.8099 60.8013 26.0457C60.7485 26.2098 60.7222 26.2918 60.6694 26.4559C59.6131 26.1321 58.5427 26.5086 57.3951 25.8127C57.5707 26.907 58.8502 27.1927 58.7569 28.139C58.4789 29.6595 58.6758 29.7035 60.5195 30.2031C60.3612 30.6953 60.2029 31.1875 60.0447 31.6797C59.8214 31.7177 59.5982 31.7558 59.4014 31.7119C59.375 31.7939 59.447 31.8979 59.447 31.8979C59.7423 31.9638 59.8672 31.9038 60.1168 31.7837L60.2152 31.8057L60.1096 32.1338ZM50.9695 12.3326C49.9466 11.5766 48.6408 11.373 47.2821 11.3334C48.0888 11.7773 48.8955 12.2211 49.5246 12.8892C50.4683 13.8912 50.7778 13.2569 51.0152 12.5186C51.2384 12.4805 51.4616 12.4425 51.6848 12.4044C51.7112 12.3223 51.6392 12.2183 51.6392 12.2183C51.3703 12.0704 51.1206 12.1905 50.9695 12.3326ZM34.0321 18.7496C34.1376 18.4215 33.9671 18.2955 33.7702 18.2515C33.6718 18.2295 33.3502 18.2456 33.3238 18.3277C33.1463 18.5518 33.3167 18.6778 33.4872 18.8038C33.6577 18.9298 33.8809 18.8917 34.0321 18.7496Z" fill="#fedc60"/>
<path d="M28.4671 74.1234C27.5439 76.9945 24.4432 78.764 20.6697 78.361C19.6591 78.2233 18.4638 78.6598 17.4937 77.7398C16.1107 76.4638 15.0756 75.0897 14.7894 73.3553C14.4453 70.8166 16.3263 68.2473 19.0192 67.0901C21.1144 66.1512 23.234 66.4486 25.3537 66.7461C26.758 66.9717 27.7017 67.9738 28.0548 68.8439C28.8403 70.3381 29.1986 72.1766 28.4671 74.1234Z" fill="#fedc60"/>
<path d="M16.4022 24.0413C16.6691 25.5077 16.6144 26.9901 17.8726 28.3261C18.7443 29.2242 19.9447 29.756 21.1187 30.3698C21.7498 29.7194 22.9907 29.4689 23.1103 28.4406C23.9048 28.2663 24.2336 27.9001 24.2477 27.1999C25.9351 26.8733 27.7595 27.1048 29.3098 26.2201C29.5594 26.1 30.1236 26.3139 30.4188 26.3798C29.8386 28.1845 28.2091 29.3153 26.5796 30.4462C25.0486 31.599 23.1258 31.3455 21.3014 31.114C17.2853 30.481 16.0483 28.0946 15.5337 25.43C15.3317 24.4177 14.9593 23.2795 15.7943 22.323C16.6274 22.6848 15.6218 23.5154 16.4022 24.0413Z" fill="#fedc60"/>
<path d="M60.2204 30.4884C58.3767 29.9888 58.1799 29.9448 58.4578 28.4243C58.5775 27.3959 57.37 27.2143 57.096 26.098C58.2436 26.7939 59.4125 26.4394 60.3703 26.7412C61.0381 27.9454 60.8393 29.2198 60.2204 30.4884Z" fill="#fedc60"/>
<path d="M39.2415 19.2938C40.797 19.3774 42.2399 20.1392 43.6107 20.797C44.3454 21.1368 45.3296 21.3566 46.53 21.8884C44.8497 21.8649 44.4611 22.7453 44.171 23.6477C43.071 21.8194 41.2942 20.4556 39.2415 19.2938Z" fill="#fedc60"/>
<path d="M37.8571 49.8473C37.4442 49.4914 37.8521 48.8791 37.3143 48.5831C36.7765 48.2872 36.0155 48.0294 36.4233 47.4171C36.7784 46.9688 37.4866 47.3907 37.9595 47.2325C38.8524 47.0802 39.7118 47.36 40.5256 47.4538C39.9594 48.5583 38.9083 49.2028 37.8571 49.8473Z" fill="#fedc60"/>
<path d="M45.4137 45.379C45.6704 44.9087 45.6582 44.2906 46.5968 44.3243C48.3755 44.3698 49.8274 43.4631 51.5868 43.2405C51.6061 43.5085 51.4021 43.8147 51.1525 43.9348C49.727 44.7595 48.0396 45.0861 46.5948 45.6427C46.122 45.8009 45.6826 45.5269 45.4137 45.379Z" fill="#fedc60"/>
<path d="M33.0895 22.6707C33.6982 19.4656 35.3347 17.9846 38.6213 19.246C36.593 19.3207 35.141 20.2274 34.0757 21.5721C33.747 21.9383 33.5887 22.4305 33.0895 22.6707Z" fill="#fedc60"/>
<path d="M51.6375 43.0779C51.9997 42.2796 52.093 41.3333 53.4323 41.1048C54.0036 40.9686 53.9914 40.3504 54.3201 39.9842C55.0303 39.0877 55.2587 40.0179 55.5996 40.2699C54.6591 41.5546 53.3776 42.5872 51.6375 43.0779Z" fill="#fedc60"/>
<path d="M60.0636 24.7355C59.1514 24.6198 58.4695 24.1158 57.6365 23.7539C58.3923 23.0435 59.1219 22.4151 59.753 21.7647C60.303 22.6788 60.4065 23.6691 60.0636 24.7355Z" fill="#fedc60"/>
<path d="M31.6112 23.6607C31.9399 23.2945 32.3143 23.1143 32.8592 23.0601C32.3458 24.0006 31.8588 24.859 30.906 25.5254C30.6635 25.2955 30.6706 24.9454 30.7498 24.6993C31.0785 24.333 31.4072 23.9668 31.6112 23.6607Z" fill="#fedc60"/>
<path d="M16.8165 19.4765C17.1961 20.2646 17.3067 20.9048 16.0201 20.9692C16.1063 20.373 16.363 19.9028 16.8165 19.4765Z" fill="#fedc60"/>
<path d="M56.0504 39.8394C55.9661 39.1172 55.9803 38.417 57.1878 38.5987C57.1016 39.1949 56.7464 39.6431 56.0504 39.8394Z" fill="#fedc60"/>
<path d="M58.351 36.311C57.8466 35.5829 58.6147 35.4907 59.2124 35.2724C59.0805 35.6826 58.9486 36.0927 58.351 36.311Z" fill="#fedc60"/>
<path d="M59.8455 31.9844C60.0038 31.4922 60.1621 31 60.3203 30.5078C60.8774 31.0718 60.4959 31.6021 60.1144 32.1324L60.016 32.1104L59.8455 31.9844Z" fill="#fedc60"/>
<path d="M60.6238 26.271C59.8628 26.0131 59.8962 25.581 60.2513 25.1328C60.5659 25.4668 60.7557 25.8608 60.6238 26.271Z" fill="#fedc60"/>
<path d="M42.6014 46.2459C42.7861 45.6716 43.2589 45.5134 43.823 45.7273C43.5664 46.1976 43.192 46.3777 42.6014 46.2459Z" fill="#fedc60"/>
<path d="M44.3662 45.6719C44.491 45.6118 44.6421 45.4697 44.7406 45.4917C44.6878 45.6558 44.563 45.7158 44.3662 45.6719Z" fill="#fedc60"/>
<path d="M24.1512 27.1803C24.2354 27.9025 23.8083 28.2467 23.0138 28.421C22.3512 28.1851 21.6359 28.1133 20.9804 27.5274C22.1949 27.3589 23.1599 27.3106 24.1512 27.1803Z" fill="#fedc60"/>
<path d="M51.0451 12.4356C50.7093 13.1519 50.4719 13.8902 49.5545 12.8062C48.9254 12.1382 48.0924 11.7763 47.3121 11.2504C48.6707 11.29 49.9766 11.4936 50.9994 12.2496L51.0451 12.4356Z" fill="#fedc60"/>
<path d="M31.6168 23.6588C31.2881 24.025 31.0841 24.3311 30.7554 24.6973C30.4601 24.6314 30.1648 24.5655 29.8696 24.4995C29.9223 24.3355 29.9487 24.2534 30.0015 24.0894C30.3636 23.291 30.9542 23.4229 31.6168 23.6588Z" fill="#fedc60"/>
<path d="M16.4071 24.0409C16.4335 23.9589 16.4863 23.7948 16.6111 23.7347C16.7886 23.5106 17.1367 23.4125 17.4056 23.5604C17.504 23.5824 17.6481 23.7904 17.6481 23.7904C17.5426 24.1186 17.2209 24.1347 16.8992 24.1508C16.7288 24.0248 16.5319 23.9808 16.4071 24.0409Z" fill="#fedc60"/>
<path d="M34.0332 18.7481C33.8821 18.8902 33.6588 18.9282 33.4884 18.8023C33.3179 18.6763 33.1738 18.4682 33.325 18.3262C33.3514 18.2441 33.673 18.228 33.7714 18.25C33.9682 18.294 34.1387 18.4199 34.0332 18.7481Z" fill="#fedc60"/>
<path d="M50.9764 12.3304C51.1275 12.1883 51.3771 12.0682 51.5476 12.1942C51.646 12.2162 51.6197 12.2982 51.5933 12.3803C51.3701 12.4183 51.1468 12.4564 50.9236 12.4945C51.0484 12.4344 50.9764 12.3304 50.9764 12.3304Z" fill="#fedc60"/>
<path d="M29.9998 24.086C29.9471 24.2501 29.9207 24.3321 29.868 24.4962C29.6975 24.3702 29.251 24.4463 29.455 24.1402C29.4813 24.0582 29.7766 24.1241 29.9998 24.086Z" fill="#fedc60"/>
<path d="M59.9194 32.0887C59.7683 32.2308 59.5187 32.3509 59.2498 32.203C59.1514 32.181 59.1777 32.099 59.2041 32.0169C59.4009 32.0609 59.6242 32.0228 59.9194 32.0887Z" fill="#fedc60"/>
</svg>
