<svg width="35" height="40" viewBox="0 0 35 40" fill="none" xmlns="http://www.w3.org/2000/svg">
<g clip-path="url(#clip0_986_4298)">
<path d="M25.9942 0.432799C25.3049 0.0409497 24.4357 0.332606 24.1302 1.05433L23.7298 1.99949C19.3947 0.149985 14.7638 0.642498 11.1611 2.74548C9.22435 1.38896 6.98121 1.26343 5.43983 1.85062V1.84947L5.31136 1.90097C-0.430544 3.86197 -1.40393 10.9538 4.03706 14.0544C3.75609 18.4389 5.70934 22.8283 8.33545 24.8921C9.45857 25.9979 10.8326 27.011 12.2878 27.682C12.1405 28.0638 12.0489 28.3164 12.0261 28.3778C11.7876 29.0213 12.0949 29.7482 12.7251 30.0335C13.7044 30.4763 14.7351 30.8048 15.7855 31.0216C15.8061 31.4265 15.8378 31.6248 15.8465 32.0415C14.1202 32.0851 12.1483 32.2301 10.239 32.8489C9.69652 33.0248 8.89741 33.2891 8.50866 33.8475C8.44761 33.8932 6.19802 35.5763 6.3403 35.4698C5.82105 35.877 5.50239 36.4449 5.76622 37.052C6.08451 37.7847 7.24423 38.3987 9.2124 38.8761C16.1354 40.5548 22.1496 39.2927 23.3119 39.195C25.0711 38.9153 27.7882 38.3893 27.7882 36.607C27.7882 36.6053 27.7882 36.6035 27.7882 36.6018C27.783 36.177 27.5903 35.5676 26.7315 35.0983L24.873 33.6738C24.2582 32.9057 22.8088 32.6647 21.8982 32.5022C20.6942 32.2734 19.4391 32.1354 18.1556 32.0725C18.1568 31.6911 18.1673 31.6041 18.1722 31.3156C20.1434 31.3994 21.9324 31.0947 23.4815 30.5208C29.6545 28.2343 34.2037 22.162 34.544 15.7546C34.8663 9.69206 31.4306 3.53465 25.9942 0.432799ZM26.4375 4.68215C25.0126 4.68873 23.8045 4.6968 22.7422 4.7058C22.2467 3.58796 21.7062 2.7087 21.1229 2.07234C23.523 2.61492 24.9624 3.52404 26.4375 4.68215ZM23.54 27.3038C22.8083 27.6117 22.4807 27.748 20.9691 27.9683C21.8297 27.1428 22.4395 25.9681 22.8947 24.8766C24.3301 24.877 25.7085 24.8749 27.1444 24.8704C26.1148 25.8729 24.8724 26.7423 23.54 27.3038ZM18.1894 1.75246C18.4622 1.75138 18.7349 1.75206 19.0067 1.76834C20.1767 2.03143 21.0988 3.32093 21.7669 4.71466C19.2473 4.73919 17.6483 4.76636 15.2279 4.79279C15.8374 3.48039 16.7635 2.02428 18.1894 1.75246ZM14.3785 7.42933C14.3637 7.35959 14.3386 7.29807 14.3217 7.22986C14.4908 6.64794 14.6525 6.19691 14.8487 5.6858C17.6281 5.6568 19.2799 5.62653 22.1554 5.59997C22.8701 7.37636 23.3331 9.29387 23.575 11.2322C19.7721 11.2841 17.5866 11.3248 13.8403 11.3785C14.5119 10.0218 14.6417 8.52621 14.3785 7.42933ZM13.4063 12.2738C16.9933 12.2233 19.819 12.1722 23.6661 12.1199C23.839 14.0258 23.8189 15.7441 23.6455 17.5909L13.4222 17.6288C13.2713 15.831 13.268 14.0385 13.4063 12.2738ZM31.0415 12.0496C31.4566 13.7751 31.5093 15.6959 31.1276 17.5631L24.5373 17.5876C24.7055 15.7408 24.7283 14.0371 24.558 12.1075C26.6669 12.0804 28.826 12.0596 31.0415 12.0496ZM23.5475 18.4801C23.3041 20.4579 22.9476 22.2356 22.2892 23.9877C19.4879 23.9851 17.502 23.9721 14.7349 23.9687C14.013 22.1241 13.7226 20.3634 13.5191 18.5174L23.5475 18.4801ZM21.9239 24.8759C20.9221 27.1308 19.7539 28.2137 18.441 28.0734C16.871 27.9015 15.7966 26.2817 15.1164 24.8578C17.6753 24.8619 19.0976 24.8726 21.9239 24.8759ZM27.9686 23.9787C26.1035 23.9856 24.5711 23.9882 23.2371 23.9882C23.865 22.2198 24.2173 20.3767 24.4442 18.4768L30.9103 18.4528C30.4302 20.1486 29.3613 22.3328 27.9686 23.9787ZM30.7945 11.1622C28.6349 11.1729 26.5271 11.1932 24.469 11.2197C24.2272 9.22233 23.7702 7.34043 23.1048 5.59176C24.3323 5.58189 25.7526 5.57324 27.4696 5.56666C29.0772 7.17603 30.151 9.01783 30.7945 11.1622ZM16.0953 1.92907C14.9987 2.97814 14.325 4.50423 13.824 5.89811C13.3483 4.9226 12.7385 4.09551 11.9056 3.34202C13.1438 2.66692 14.5477 2.17619 16.0953 1.92907ZM5.62097 2.73373C6.20715 2.49307 6.88085 2.40484 7.51969 2.40907C10.197 2.48557 12.3913 4.49027 13.3189 6.94264C15.2078 12.1224 8.09733 17.0933 3.09666 12.258C-0.230555 9.01551 1.39318 4.17854 5.62097 2.73373ZM12.4616 13.2467C12.3937 14.6981 12.4119 16.1628 12.5322 17.6321L5.18741 17.6594C4.97137 16.6474 4.86576 15.579 4.90388 14.482C7.45591 15.5564 10.3381 15.2132 12.4616 13.2467ZM5.40591 18.5475L12.6251 18.5207C12.8187 20.3194 13.0895 22.0606 13.7875 23.968C12.3538 23.9675 10.6959 23.9698 8.63023 23.9773C7.30348 22.8242 6.0712 20.879 5.40591 18.5475ZM9.61059 24.8629C11.3932 24.8572 12.8596 24.8558 14.1451 24.8566C14.637 25.9722 15.2365 27.0466 16.121 27.864C13.6562 27.4788 11.7384 26.7169 9.61059 24.8629ZM21.9132 33.4079C22.5006 33.5109 23.8768 33.7517 24.213 34.2575C24.2755 34.3532 24.2623 34.3989 24.2709 34.4583C24.1963 35.1589 22.2503 35.3611 21.5787 35.4693C17.5446 36.1168 14.1673 36.0873 11.261 35.3813C9.85997 35.037 9.40453 34.688 9.2749 34.5555C9.17421 34.4513 9.18752 34.4276 9.21182 34.3848C9.39874 34.0555 10.1233 33.8205 10.5509 33.6822C12.3123 33.1112 14.1934 32.9726 15.8497 32.9306C15.847 33.38 15.8164 33.7886 16.0434 34.1556C16.4517 34.816 17.2873 34.8926 17.8351 34.3929C18.2666 34.0042 18.1409 33.5797 18.1565 32.9575C19.3843 33.0196 20.5828 33.1572 21.7356 33.3761L21.9132 33.4079ZM33.6563 15.7071C33.3345 21.7713 29.0232 27.5202 23.1725 29.6874C19.8758 30.9079 16.0032 30.5413 13.0915 29.2233C12.8814 29.1284 12.7813 28.8975 12.8594 28.6863C12.9405 28.4685 12.997 28.3138 13.1092 28.0225C16.084 29.1243 20.6528 29.4819 23.8843 28.1232C30.1361 25.4865 31.9139 18.3802 31.7404 18.7896C31.741 18.7876 31.7425 18.7861 31.7431 18.7841C33.4745 12.8392 30.9005 5.59015 24.5381 2.3703L24.9485 1.40097C25.0456 1.17082 25.3273 1.07446 25.5533 1.20479C30.7055 4.14403 33.9612 9.97215 33.6563 15.7071Z" fill="#051328"/>
</g>
<defs>
<clipPath id="clip0_986_4298">
<rect width="34.4444" height="40" fill="white" transform="translate(0.277832)"/>
</clipPath>
</defs>
</svg>
