<svg width="40" height="40" viewBox="0 0 40 40" fill="none" xmlns="http://www.w3.org/2000/svg">
<path d="M2.57693 36.186C4.95841 37.6613 8.81847 36.7369 11.3072 36.7369H20.1205C21.1213 38.3759 23.592 39.3602 25.3098 39.6753C28.9022 40.5757 34.9568 39.6593 36.1906 36.223C36.4563 35.4554 36.4443 34.4194 36.3712 34.1903C36.4725 34.1406 36.5821 34.0962 36.6807 34.0441C38.6697 33.0496 39.084 31.4648 39.1942 30.1515C39.2047 29.1624 38.851 27.6504 38.6179 27.1275C38.2643 26.3239 37.4888 25.659 36.7446 25.2204C35.4915 24.473 33.9167 24.3023 32.3481 24.1487V19.8622C32.3481 18.6419 32.6067 17.5001 31.6543 16.356C30.9994 15.5715 30.2419 15.3162 29.4778 15.2632C29.4902 12.8621 29.4565 13.3167 29.5037 12.4746C29.5592 11.5126 29.6212 10.4222 28.7262 9.59221C28.05 8.96267 27.3339 8.91434 26.6573 8.95856C26.6811 7.6904 26.6277 7.95327 26.7202 7.0067C26.8531 5.63043 26.9154 5.10293 25.1982 3.55142C23.4359 1.98673 22.8569 0.924278 21.5908 0.487624C20.5051 0.118528 19.9124 0.303614 17.0219 0.122958C15.7525 0.0439971 14.4397 -0.0379773 13.1257 0.0189829C10.7465 0.124511 8.83833 0.54171 8.83833 2.95499C8.83833 2.98238 8.82672 5.67337 8.80939 8.98674C7.38427 8.99475 7.33912 8.96595 7.20487 9.01236C6.13008 9.38494 5.49467 10.368 5.54285 11.5794C5.53856 11.5797 5.53411 11.58 5.52982 11.5804C4.67873 11.6479 3.71372 11.7244 2.83913 12.1141C1.99226 12.4981 1.08029 13.379 0.9501 14.5354C0.97264 30.465 1.08273 28.4336 0.913934 30.3929C0.740342 32.4073 0.524556 34.9148 2.57693 36.186ZM21.8446 31.1776C22.6594 33.4579 25.3553 34.6294 27.7015 35.1233L27.7009 35.1236C29.8779 35.6005 32.156 35.5234 34.1538 35.0013C33.6865 35.4172 33.0654 35.7817 32.2619 36.1016C27.7403 37.8768 22.3306 36.3575 20.7572 34.3644C19.8395 33.1873 20.605 31.9312 21.8446 31.1776ZM36.2732 26.0175C36.8367 26.3446 37.5079 26.9006 37.7656 27.4894C37.9922 28.0944 38.028 28.5778 37.6819 29.2697C36.3973 31.8027 31.3808 32.5873 28.4302 32.1195C27.0651 31.9693 24.6189 31.2069 23.3339 30.0674C22.0192 29.0156 22.2104 27.2719 24.1916 26.1745C26.8962 24.7188 29.9427 24.7807 33.0214 25.1514C34.204 25.2909 35.3426 25.4621 36.2732 26.0175ZM28.0957 10.2706C28.84 10.9601 28.552 12.0231 28.552 13.1466V15.2774C27.8581 15.3359 27.3443 15.4265 26.7871 15.4305H26.617L26.6515 9.88563C27.2493 9.8419 27.6751 9.879 28.0957 10.2706ZM24.8204 4.45946C25.0782 4.6969 25.3546 4.97353 25.5567 5.26003L25.5573 5.26086C25.6058 5.32965 25.6371 5.39957 25.6741 5.469C22.5992 5.72506 22.3376 5.25777 22.3285 5.23852C22.0775 4.36645 22.0507 2.9852 21.9686 1.73449C22.4665 2.14054 23.1709 2.93498 24.8204 4.45946ZM13.1661 0.943908C15.2899 0.851239 17.2658 1.13134 19.1183 1.1389C19.763 1.14172 20.4215 1.15295 21.0023 1.29102C21.1439 3.03603 21.134 4.43662 21.4389 5.49469C21.7921 6.72066 24.4855 6.50046 25.8417 6.38304C25.8312 6.5558 25.8166 6.7323 25.7986 6.91719C25.7061 7.87943 25.692 14.4634 25.6907 15.4329C17.7059 15.4755 17.6654 15.8093 15.1552 13.7497C14.717 13.3911 14.2643 13.0198 13.7682 12.7109C12.6652 12.0216 11.3367 11.6208 9.71774 11.4909C9.71809 11.4265 9.76416 2.89412 9.76416 2.9565C9.76416 1.17129 11.3317 1.02548 13.1661 0.943908ZM7.43934 9.91257H8.80359L8.79233 11.4497C8.0118 11.4304 7.22999 11.4578 6.46785 11.5095C6.44845 10.7423 6.79827 10.1648 7.43934 9.91257ZM1.83675 30.4722C2.01003 28.4604 1.90013 30.287 1.87291 14.5884C1.95429 13.8817 2.61309 13.2331 3.21886 12.9586C4.39483 12.4345 7.93745 12.3139 9.2259 12.3869C9.2259 12.3869 9.22452 12.3869 9.22951 12.3869C11.9999 12.5224 13.1501 13.3038 14.5681 14.4658C17.3729 16.7661 17.5445 16.4007 26.7907 16.3563C28.4761 16.3433 29.8788 15.6743 30.9431 16.9488C31.648 17.7949 31.4223 18.6768 31.4223 19.8622V24.0719C28.7255 23.891 26.0355 24.1312 23.748 25.3617C21.9623 26.3509 21.1999 27.8374 21.6072 30.2415C20.4305 30.8809 19.4209 31.9811 19.4209 33.2997C19.3476 34.1364 19.4016 35.0121 19.6822 35.8111H11.3072C8.83861 35.8111 5.12223 36.6743 3.06395 35.3988C1.49559 34.4274 1.66918 32.4167 1.83675 30.4722Z" fill="#051328"/>
<path d="M11.8575 5.37187H17.477C17.7325 5.37187 17.9399 5.16453 17.9399 4.90896C17.9399 4.65339 17.7325 4.44604 17.477 4.44604H11.8575C11.6019 4.44604 11.3946 4.65339 11.3946 4.90896C11.3946 5.16453 11.6019 5.37187 11.8575 5.37187ZM11.8575 8.23826H21.3888C21.6444 8.23826 21.8517 8.03092 21.8517 7.77535C21.8517 7.51978 21.6444 7.31244 21.3888 7.31244H11.8575C11.6019 7.31244 11.3946 7.51978 11.3946 7.77535C11.3946 8.03092 11.6019 8.23826 11.8575 8.23826ZM19.3684 10.2774H14.4674C14.2118 10.2774 14.0045 10.4847 14.0045 10.7403C14.0045 10.9959 14.2118 11.2032 14.4674 11.2032H19.3684C19.624 11.2032 19.8313 10.9959 19.8313 10.7403C19.8313 10.4847 19.624 10.2774 19.3684 10.2774ZM28.8437 28.1234C29.0106 28.3178 29.303 28.338 29.4965 28.171L30.4169 27.3757L30.7092 29.96C30.7357 30.1963 30.9358 30.3707 31.1685 30.3707C31.186 30.3707 31.2034 30.3698 31.2209 30.3677C31.4753 30.3391 31.6579 30.1098 31.629 29.8557L31.2378 26.3998C31.2185 26.2289 31.1064 26.0831 30.9467 26.0204C30.7851 25.9583 30.6055 25.9893 30.4753 26.1014L28.8913 27.4706C28.6978 27.6376 28.6767 27.9299 28.8437 28.1234ZM4.96682 28.5251C5.22239 28.5251 5.42974 28.3178 5.42974 28.0622V27.2331C5.42974 26.9776 5.22239 26.7702 4.96682 26.7702C4.71125 26.7702 4.50391 26.9776 4.50391 27.2331V28.0622C4.50391 28.3178 4.71125 28.5251 4.96682 28.5251ZM4.96682 24.9387C5.22239 24.9387 5.42974 24.7314 5.42974 24.4758V20.8488C5.42974 20.5932 5.22239 20.3858 4.96682 20.3858C4.71125 20.3858 4.50391 20.5932 4.50391 20.8488V24.4758C4.50391 24.7314 4.71125 24.9387 4.96682 24.9387Z" fill="#051328"/>
</svg>
