<svg width="33" height="38" viewBox="0 0 33 38" fill="none" xmlns="http://www.w3.org/2000/svg">
<path d="M24.383 0.402155C23.7432 0.0384703 22.9365 0.309164 22.653 0.979011L22.2814 1.85624C18.2578 0.139669 13.9598 0.596783 10.616 2.54861C8.81845 1.28959 6.73654 1.17309 5.30595 1.71807V1.717L5.18671 1.7648C-0.142497 3.58486 -1.04592 10.1669 4.00399 13.0447C3.74323 17.1141 5.55608 21.188 7.99344 23.1034C9.03584 24.1298 10.3111 25.07 11.6617 25.6928C11.525 26.0472 11.44 26.2816 11.4188 26.3386C11.1975 26.9359 11.4827 27.6105 12.0676 27.8753C12.9765 28.2863 13.9331 28.5912 14.908 28.7924C14.9271 29.1682 14.9566 29.3522 14.9646 29.739C13.3625 29.7794 11.5322 29.914 9.76019 30.4883C9.25669 30.6516 8.51501 30.8969 8.1542 31.4152C8.09754 31.4576 6.00964 33.0197 6.14169 32.9209C5.65977 33.2988 5.364 33.8259 5.60888 34.3894C5.90429 35.0693 6.98065 35.6392 8.80736 36.0823C15.2328 37.6403 20.8147 36.469 21.8935 36.3783C23.5262 36.1187 26.048 35.6305 26.048 33.9763C26.048 33.9747 26.048 33.9731 26.048 33.9715C26.0432 33.5773 25.8643 33.0117 25.0673 32.5761L23.3423 31.254C22.7718 30.541 21.4265 30.3174 20.5813 30.1666C19.4639 29.9542 18.299 29.8262 17.1078 29.7677C17.1089 29.4137 17.1186 29.333 17.1232 29.0653C18.9527 29.143 20.6131 28.8602 22.0509 28.3275C27.7802 26.2054 32.0024 20.5695 32.3183 14.6227C32.6174 8.99591 29.4286 3.28106 24.383 0.402155ZM24.7944 4.34608C23.4719 4.35219 22.3506 4.35968 21.3647 4.36804C20.9048 3.33054 20.4032 2.51447 19.8617 1.92385C22.0894 2.42744 23.4253 3.27121 24.7944 4.34608ZM22.1051 25.3418C21.4261 25.6275 21.122 25.7541 19.7191 25.9585C20.5178 25.1924 21.0838 24.1021 21.5062 23.089C22.8385 23.0895 24.1178 23.0875 25.4505 23.0833C24.4949 24.0138 23.3418 24.8207 22.1051 25.3418ZM17.1391 1.62697C17.3923 1.62596 17.6454 1.6266 17.8977 1.6417C18.9836 1.88589 19.8395 3.0827 20.4595 4.37626C18.121 4.39902 16.6369 4.42424 14.3905 4.44877C14.9562 3.2307 15.8157 1.87925 17.1391 1.62697ZM13.6021 6.89581C13.5884 6.83109 13.5651 6.77399 13.5494 6.71067C13.7064 6.17059 13.8565 5.75197 14.0385 5.2776C16.6182 5.25068 18.1513 5.22259 20.8201 5.19794C21.4834 6.84665 21.9131 8.62633 22.1376 10.4253C18.6081 10.4735 16.5797 10.5113 13.1026 10.5611C13.726 9.30191 13.8465 7.91385 13.6021 6.89581ZM12.6998 11.3921C16.0291 11.3453 18.6516 11.2978 22.2222 11.2493C22.3827 13.0182 22.364 14.613 22.2031 16.327L12.7146 16.3622C12.5745 14.6936 12.5715 13.0299 12.6998 11.3921ZM29.0675 11.184C29.4527 12.7855 29.5017 14.5682 29.1474 16.3012L23.0308 16.3239C23.1869 14.6099 23.2081 13.0287 23.05 11.2377C25.0073 11.2126 27.0113 11.1933 29.0675 11.184ZM22.1121 17.1523C21.8862 18.988 21.5554 20.6379 20.9442 22.2641C18.3443 22.2616 16.5011 22.2496 13.933 22.2464C13.2629 20.5344 12.9934 18.9003 12.8045 17.1869L22.1121 17.1523ZM20.6052 23.0884C19.6755 25.1812 18.5912 26.1863 17.3726 26.0561C15.9155 25.8965 14.9184 24.3932 14.287 23.0716C16.662 23.0754 17.982 23.0853 20.6052 23.0884ZM26.2154 22.2557C24.4844 22.2621 23.0621 22.2645 21.8241 22.2645C22.4068 20.6232 22.7338 18.9126 22.9444 17.1493L28.9457 17.127C28.5002 18.7009 27.5081 20.7281 26.2154 22.2557ZM28.8383 10.3604C26.8338 10.3703 24.8776 10.3891 22.9674 10.4137C22.7429 8.55994 22.3189 6.8133 21.7012 5.19032C22.8405 5.18115 24.1587 5.17313 25.7523 5.16702C27.2444 6.66071 28.241 8.37014 28.8383 10.3604ZM15.1955 1.79089C14.1778 2.76455 13.5525 4.18095 13.0875 5.47465C12.646 4.56925 12.08 3.80161 11.307 3.10227C12.4562 2.4757 13.7592 2.02024 15.1955 1.79089ZM5.47406 2.5377C6.01811 2.31435 6.64339 2.23246 7.23632 2.23638C9.72124 2.30738 11.7578 4.168 12.6187 6.4441C14.3719 11.2516 7.77243 15.8652 3.13119 11.3774C0.0431173 8.36798 1.55015 3.87867 5.47406 2.5377ZM11.823 12.2951C11.76 13.6421 11.7769 15.0016 11.8886 16.3653L5.07167 16.3906C4.87116 15.4513 4.77313 14.4597 4.80852 13.4416C7.17712 14.4388 9.85219 14.1203 11.823 12.2951ZM5.27446 17.2149L11.9748 17.19C12.1545 18.8594 12.4058 20.4754 13.0536 22.2458C11.723 22.2453 10.1843 22.2475 8.26703 22.2544C7.03564 21.1842 5.89193 19.3788 5.27446 17.2149ZM9.17693 23.0763C10.8315 23.0711 12.1924 23.0697 13.3855 23.0705C13.8421 24.106 14.3985 25.1031 15.2194 25.8618C12.9318 25.5043 11.1518 24.7971 9.17693 23.0763ZM20.5953 31.0072C21.1405 31.1028 22.4177 31.3262 22.7298 31.7957C22.7878 31.8846 22.7755 31.927 22.7835 31.982C22.7143 32.6323 20.9081 32.82 20.2849 32.9204C16.5407 33.5214 13.4061 33.494 10.7087 32.8387C9.40839 32.5191 8.98568 32.1953 8.86537 32.0723C8.77191 31.9756 8.78427 31.9536 8.80683 31.9138C8.98031 31.6082 9.65277 31.3901 10.0497 31.2618C11.6845 30.7318 13.4304 30.6031 14.9676 30.5641C14.9651 30.9812 14.9367 31.3605 15.1474 31.7011C15.5263 32.3141 16.3019 32.3852 16.8103 31.9213C17.2107 31.5606 17.0941 31.1666 17.1086 30.5892C18.2481 30.6468 19.3605 30.7745 20.4304 30.9776L20.5953 31.0072ZM31.4943 14.5786C31.1957 20.207 27.1942 25.5426 21.7641 27.5541C18.7043 28.6869 15.11 28.3466 12.4076 27.1233C12.2126 27.0353 12.1197 26.821 12.1922 26.6249C12.2675 26.4228 12.3199 26.2792 12.4241 26.0089C15.1851 27.0315 19.4255 27.3634 22.4247 26.1023C28.2272 23.6552 29.8772 17.0596 29.7162 17.4396C29.7167 17.4377 29.7181 17.4363 29.7186 17.4344C31.3257 11.9168 28.9367 5.18883 23.0315 2.2004L23.4124 1.30074C23.5026 1.08713 23.764 0.997693 23.9737 1.11866C28.7556 3.84664 31.7774 9.25587 31.4943 14.5786Z" fill="#051328"/>
<path d="M7.04734 11.0976L5.41016 8.19704V7.81029H5.60073C5.9068 7.81029 6.16378 7.78099 6.37168 7.72239C6.58535 7.66379 6.75282 7.5671 6.87409 7.43233C6.99537 7.29755 7.06755 7.11297 7.09065 6.87858H5.41016V6.31603H7.08199C7.04157 6.09922 6.96072 5.92342 6.83944 5.78865C6.71817 5.64801 6.55359 5.54547 6.34569 5.48101C6.14357 5.41655 5.89525 5.38432 5.60073 5.38432H5.41016V4.82178H8.99637V5.38432H7.35918C7.49201 5.49566 7.60173 5.6275 7.68835 5.77986C7.77498 5.93221 7.82984 6.11094 7.85294 6.31603H8.99637V6.87858H7.87026C7.82984 7.30634 7.66814 7.64035 7.38517 7.88061C7.10798 8.115 6.73838 8.26442 6.27639 8.32888L7.9309 11.0976H7.04734Z" fill="#051328"/>
</svg>
