<svg width="38" height="40" viewBox="0 0 38 40" fill="none" xmlns="http://www.w3.org/2000/svg">
<g clip-path="url(#clip0_2744_28408)">
<path d="M35.7241 26.8753C35.7921 25.9494 35.7766 25.0064 35.58 23.8617C36.8677 23.0317 37.6366 21.4738 37.5952 19.6929C37.5628 18.2932 36.984 15.5576 35.0238 15.2236C34.3298 15.1066 33.725 15.315 33.1612 15.451C32.6653 15.5747 32.0099 15.7422 31.365 15.9702C31.3173 15.9246 31.2709 15.8787 31.2218 15.8332C33.8475 14.2126 32.4507 11.3902 29.5816 10.4396C30.6945 8.53373 31.4731 6.63698 31.9734 3.98781C32.0177 3.75468 31.877 3.52634 31.649 3.4608C28.9246 2.67618 26.1186 2.28197 22.8564 1.66788C20.4742 1.19645 19.736 0.757532 19.0581 1.15781C18.8033 1.07432 14.9413 0.684068 14.3461 0.632106C13.9751 0.603938 13.6167 0.763598 13.3796 1.03773C10.4862 2.34545 8.04481 3.68032 4.79166 5.2223C4.46247 5.36954 3.96538 5.59189 3.8364 6.10723C3.54784 7.18477 4.7496 7.03679 6.67796 9.96272C6.85094 10.2284 7.00513 10.5001 7.14882 10.7749C5.71061 11.1168 3.55845 12.2945 3.20943 13.8772C3.07798 14.4732 3.16263 15.3605 4.23873 16.2468C1.8843 18.1233 0.374789 20.6824 0.0877526 23.37C-0.603785 30.0123 3.23768 36.3605 9.8149 38.6291C14.9059 40.3959 20.7498 39.7678 25.1442 38.4079C28.9381 40.8723 34.4289 39.8508 36.7701 36.284C38.5905 33.5099 38.4907 29.6002 35.7241 26.8753ZM33.7561 16.2489C34.1018 16.1552 34.5043 16.0681 34.87 16.1298C36.1302 16.3446 36.6465 18.4422 36.6758 19.7138C36.7072 21.0506 36.2305 22.1947 35.3779 22.8902C34.8433 20.6716 33.7475 18.5168 32.0808 16.6972C32.5872 16.5394 33.0825 16.4176 33.7561 16.2489ZM30.4564 6.25081C29.2277 6.00165 28.5277 4.87984 28.7668 3.70332C29.5055 3.85965 30.25 4.02918 30.9861 4.22992C30.7144 5.502 30.6012 5.79318 30.4564 6.25081ZM27.8558 3.51609C27.5353 5.10156 28.4645 6.71701 30.157 7.13335C29.2376 9.5834 28.0072 11.1613 27.9886 11.2226C27.4542 12.0106 25.5263 14.2361 25.022 14.8004C24.9634 14.866 24.9351 14.9447 24.9204 15.0253C21.1635 16.0845 17.2413 16.3822 13.3737 15.9097C14.3247 14.8986 14.9024 14.4286 16.55 11.4276C17.7146 9.17208 17.9994 8.3641 18.5797 6.45704C20.3813 5.76255 21.8834 4.32804 22.6798 2.56999C25.6617 3.11964 26.1737 3.1867 27.8558 3.51609ZM27.6163 13.8317C27.4706 14.1584 26.9029 14.4056 26.4463 14.5673C26.5833 14.4076 27.3732 13.476 27.4254 13.4144C27.5791 13.581 27.661 13.7364 27.6163 13.8317ZM12.2474 14.4012C12.5963 11.9168 12.3351 13.7885 13.606 4.64519C14.8529 4.14762 15.8159 3.03774 16.134 1.73353C17.0419 1.83083 17.937 1.93381 18.4942 1.99898C18.4233 2.55563 18.561 2.06105 18.3186 3.42698C17.8472 5.9838 17.381 7.80559 15.7482 10.9778C14.03 14.1027 13.6684 14.217 12.2586 15.7684C12.1577 15.7522 12.0579 15.7267 11.9571 15.7094C12.0157 15.3211 12.1941 14.7946 12.2474 14.4012ZM19.4765 1.98091C19.6191 1.85354 19.7215 1.87914 21.765 2.36289C21.15 3.61952 20.1211 4.6725 18.8786 5.31619C19.6269 2.14623 19.2723 2.15456 19.4765 1.98091ZM15.21 1.63739C14.9844 2.4159 14.4498 3.10942 13.7597 3.54134L14.0086 1.75407C14.0248 1.64157 14.1341 1.53488 14.2683 1.54817C14.5551 1.57316 14.8752 1.60376 15.21 1.63739ZM13.0158 2.2179C12.8901 3.12067 11.3247 14.3618 11.3367 14.2755C11.2959 14.5779 11.1341 15.0611 11.0564 15.5329C10.7778 15.4761 10.0912 15.3752 9.45196 15.1425C9.46157 15.0886 9.46442 15.0325 9.45338 14.9755C8.81516 11.6679 7.98856 10.0668 6.70785 8.43446C7.37387 7.47336 7.55601 6.19743 7.16663 5.0926C9.92554 3.72469 11.194 3.06654 13.0158 2.2179ZM8.19118 13.5331C8.27419 13.8516 8.34616 14.1622 8.4093 14.4573C8.11365 14.0818 8.1062 13.7877 8.19118 13.5331ZM5.09901 6.70577C4.92147 6.53883 4.73837 6.4335 4.72642 6.33797C4.7552 6.22327 5.01332 6.14784 6.3317 5.50413C6.55429 6.23102 6.46117 7.04256 6.08757 7.7032C5.88967 7.48273 5.67634 7.22356 5.09901 6.70577ZM4.10724 14.0753C4.33498 13.0419 5.95732 12.0055 7.34712 11.6718L7.56267 11.6637C7.78725 12.1852 7.78661 12.2198 7.86419 12.4496C6.8818 13.2352 7.00964 14.7898 8.38828 15.6521C8.93415 15.993 9.55244 16.1549 10.0899 16.2797C15.4729 17.526 21.099 17.2833 26.3558 15.5668C27.0073 15.3579 28.0981 15.0084 28.4525 14.2138C28.6802 13.7271 28.5182 13.1935 28.0197 12.7046C28.4642 12.158 28.7001 11.821 29.0786 11.2513C29.7231 11.4357 30.2825 11.718 30.7697 12.1231C31.3069 12.5679 31.8243 13.2879 31.6651 13.9786C31.4931 14.7517 30.5792 15.157 29.9123 15.4687C22.7634 18.5305 14.4212 18.9372 7.02511 16.5855C5.76417 16.1847 3.82145 15.3706 4.10724 14.0753ZM10.1154 37.7603C3.93464 35.6277 0.355958 29.6733 1.00202 23.4663C1.27233 20.9357 2.7465 18.5167 5.04698 16.7776C5.61428 17.0824 6.21432 17.2925 6.74649 17.4618C10.0127 18.5003 13.4576 19.0156 16.9094 19.0156C22.0368 19.0153 27.1125 17.7806 30.338 16.2846C33.4266 19.0322 34.8801 22.6967 34.8389 26.1065C33.3639 24.9925 32.3223 24.7386 30.4438 24.5368C24.8526 23.9536 20.244 29.1625 21.9859 34.3253C22.4395 35.6704 23.2182 36.8214 24.2331 37.7157C19.6051 39.009 14.6913 39.3476 10.1154 37.7603ZM36.0015 35.7795C33.0335 40.3015 24.8379 39.9059 22.857 34.0314C21.3319 29.5077 25.4121 24.9328 30.3466 25.4511C31.4539 25.5699 32.5276 25.7243 33.491 26.3034C37.4275 28.6751 37.9039 32.8806 36.0015 35.7795Z" fill="#051328"/>
<path d="M10.672 28.2069C11.4784 26.4573 11.8198 23.8706 10.0766 22.913C10.0869 22.2576 9.4025 22.0266 8.7294 21.8317C7.80989 21.5655 6.84943 21.3011 5.9129 21.5168C5.71654 21.562 5.6773 21.5745 5.62706 21.7116C5.58023 21.8394 5.5384 21.9495 5.46273 22.0615C4.33457 22.1143 3.37135 22.5295 3.14601 23.6221C2.93622 24.6408 2.37479 28.1097 3.94566 29.9795C5.41118 31.7229 9.0743 31.6733 10.672 28.2069ZM4.64954 29.3881C3.61227 28.1537 3.65776 25.6958 4.04621 23.8077C4.07674 23.6601 4.12941 23.5401 4.20722 23.4417C4.35992 23.248 4.60872 23.1309 4.90657 23.0604C5.00126 23.3289 5.35185 23.4061 5.65725 23.4667C9.0079 24.1315 9.16823 24.2091 9.48992 24.0934C9.63862 24.0399 9.73973 23.9438 9.81343 23.8305C10.8175 24.5937 10.3648 26.677 9.83707 27.8221C8.59807 30.5097 5.78966 30.7443 4.64954 29.3881ZM19.7938 35.7294C20.0359 35.6536 20.1708 35.3957 20.0951 35.1533C20.0191 34.9109 19.7617 34.775 19.519 34.8519C17.9272 35.3499 16.184 35.4696 14.4787 35.1976C14.2294 35.1569 13.9924 35.328 13.9523 35.5791C13.9125 35.8299 14.0831 36.0654 14.3339 36.1055C16.2338 36.4086 18.1215 36.2528 19.7938 35.7294ZM12.1349 34.5619C11.2969 34.2345 10.5101 33.8101 9.79607 33.3011C9.58987 33.1536 9.30197 33.2017 9.15503 33.4082C9.00749 33.615 9.05538 33.902 9.26217 34.0493C10.0379 34.6026 10.8917 35.0632 11.8003 35.4184C12.0393 35.5107 12.3041 35.3925 12.3958 35.1575C12.488 34.921 12.3713 34.6544 12.1349 34.5619Z" fill="#051328"/>
<path d="M31.352 35.8375L28.602 33.0683L28.4851 32.6321L28.7032 32.5737C29.0535 32.4798 29.3387 32.368 29.5589 32.2381C29.7857 32.1065 29.9481 31.9461 30.0462 31.757C30.1442 31.5678 30.1711 31.3375 30.1267 31.066L28.2036 31.5813L28.0336 30.9469L29.9468 30.4343C29.835 30.2021 29.6893 30.0287 29.5098 29.9139C29.3286 29.7925 29.1092 29.7273 28.8518 29.7183C28.6011 29.7076 28.3071 29.7474 27.9701 29.8377L27.752 29.8961L27.582 29.2617L31.686 28.1621L31.8559 28.7965L29.9824 29.2985C30.1681 29.3833 30.3335 29.4984 30.4786 29.6437C30.6238 29.7889 30.7406 29.9737 30.829 30.1979L32.1375 29.8473L32.3075 30.4817L31.0188 30.827C31.1018 31.3218 31.0177 31.7481 30.7665 32.1058C30.5201 32.4551 30.1423 32.737 29.6331 32.9513L32.3632 35.5666L31.352 35.8375Z" fill="black"/>
</g>
<defs>
<clipPath id="clip0_2744_28408">
<rect width="38" height="40" fill="white"/>
</clipPath>
</defs>
</svg>
