<svg width="40" height="40" viewBox="0 0 40 40" fill="none" xmlns="http://www.w3.org/2000/svg">
<path d="M39.9635 36.1023C39.7464 35.6199 39.4971 34.9796 39.2851 34.4409C38.9149 33.4992 38.0212 32.891 37.0091 32.891H36.8782C37.2056 32.2565 37.101 31.419 36.4212 31.0301C36.2573 30.9354 36.2605 30.9932 34.6804 30.9757C34.6812 30.9429 34.6783 31.0942 34.6867 30.6561C34.6963 30.2159 34.4373 29.8147 34.0259 29.6328C33.8354 29.549 33.6399 29.3767 33.4756 29.1473C33.1027 28.6272 33.2068 28.1005 33.1968 27.9628V16.4326C33.638 15.8966 34.0325 15.4805 34.5604 14.8436C36.3307 14.905 36.7174 14.426 37.0379 13.1308C37.0835 12.9457 37.1294 12.7568 37.1959 12.5776C37.6256 11.4182 36.8933 11.0853 36.3049 10.8175C36.178 10.76 21.1567 3.48059 20.843 3.29264C20.6446 3.17313 20.42 3.03708 20.1431 3.00667C19.4514 2.93423 18.8328 3.47131 18.4051 3.68104C7.69751 8.92578 4.00445 10.7483 3.7841 10.8362C3.37357 10.9993 2.99019 11.1655 2.89498 11.598C2.82749 11.9091 2.83843 14.0971 3.84972 14.6215C4.28694 14.8484 4.81872 14.8078 5.30145 14.7874C5.82993 15.4326 6.19581 15.8497 6.67127 16.4306C6.67127 18.9796 6.67127 10.1636 6.67127 27.9628C6.66293 28.0769 6.77588 29.1045 5.92487 29.5912C5.48136 29.8438 5.17354 30.3124 5.1881 30.9757C3.756 30.9929 3.73815 30.9353 3.57336 31.0301C2.88214 31.4264 2.80504 32.277 3.12166 32.891H2.98675C1.97491 32.891 1.08179 33.4987 0.710993 34.4393C0.497413 34.9824 0.246865 35.6272 0.0355503 36.1044C-0.0839368 36.3729 0.112068 36.6801 0.410085 36.6801H39.5898C39.8878 36.6801 40.0852 36.3718 39.9635 36.1023ZM12.0639 29.5912C11.9004 29.4978 11.7344 29.3404 11.596 29.1473C11.2222 28.6259 11.3274 28.0981 11.3172 27.9628V16.4306C11.5646 16.1284 12.4551 15.0708 12.6924 14.781H15.3684C16.6313 18.3939 21.0258 19.7633 24.0389 17.0693C24.7239 16.457 25.2133 15.8601 25.584 14.781H27.1758C27.7064 15.4289 28.0735 15.8473 28.5509 16.4306C28.5509 30.7104 28.5499 14.1809 28.5527 28.1101C28.6228 28.8166 28.1549 29.4419 27.7212 29.6333C27.3107 29.8146 27.0514 30.2156 27.061 30.6556C27.0624 30.7281 27.0657 30.9034 27.0672 30.9757H23.3997C23.4048 25.4107 23.3906 26.1277 23.4098 25.1506C23.4397 23.6368 23.5115 21.9234 22.4159 20.9411C21.6719 20.2747 20.81 20.2187 20.0606 20.2187C18.5514 20.2036 17.1654 20.149 16.2224 21.3706C15.8151 21.8993 15.5715 22.5758 15.4984 23.3825C15.4437 23.9893 15.4982 28.7501 15.5116 30.9757H12.8004C12.8148 30.3184 12.5118 29.8466 12.0639 29.5912ZM7.49077 16.6537H10.4978L10.4997 27.5531H7.49077V16.6537ZM24.9405 14.0907C24.6049 15.298 24.1896 15.8353 23.4925 16.4584C22.9718 16.9244 22.3925 17.2661 21.7378 17.4695C17.2733 18.862 13.1996 12.6329 18.2915 9.62131C21.9679 7.36222 25.8851 10.6819 24.9405 14.0907ZM29.3704 16.6537H32.3774L32.3794 27.5531H29.3704V16.6537ZM16.3147 23.4562C16.3726 22.8165 16.5652 22.2685 16.8715 21.8711C17.5928 20.9368 18.7868 21.0256 20.0606 21.0382C20.843 21.0382 21.3899 21.122 21.869 21.5515C22.808 22.3938 22.5802 24.2384 22.5802 25.9114V30.9757H16.3311C16.3192 28.993 16.2647 24.0059 16.3147 23.4562ZM33.6951 30.3824C33.8021 30.4299 33.8696 30.5302 33.8672 30.6385C33.8662 30.6819 33.868 30.5976 33.8599 30.9757H27.8878C27.8865 30.9155 27.8853 30.8553 27.884 30.7953C27.8948 30.7311 27.8177 30.4863 28.052 30.3829C28.796 30.0548 29.3386 29.1811 29.3778 28.3726H32.3717C32.4165 29.2169 32.9734 30.0646 33.6951 30.3824ZM4.22693 13.8938C3.7753 13.6596 3.64192 12.1118 3.67953 11.7986C3.75622 11.7128 4.16772 11.574 4.33363 11.4924C19.8125 3.88692 18.6356 4.51406 19.1835 4.17829C20.1518 3.5878 20.0602 3.8364 20.6862 4.14468C22.3848 4.98257 35.1839 11.1868 35.6881 11.4342C36.5052 11.8291 36.6228 11.7655 36.4276 12.2927C36.1195 13.1224 36.2071 13.8353 35.5313 13.9722C34.8186 14.1166 34.0975 13.9714 33.2408 13.964L33.227 13.2861C33.2227 13.0599 33.0352 12.8812 32.8089 12.8844C32.5827 12.8892 32.4029 13.0759 32.4075 13.3021L32.4209 13.9615H31.3329C31.3372 13.6753 31.3164 13.3243 31.3772 11.3681C31.3844 11.1419 31.2068 10.953 30.9806 10.9455C30.7578 10.9562 30.5652 11.1163 30.5583 11.3425C30.5041 13.053 30.5143 13.9033 30.5135 13.9615H29.6961V10.4659C29.6961 10.2397 29.5126 10.0561 29.2863 10.0561C29.0601 10.0561 28.8766 10.2397 28.8766 10.4659V13.9615H25.8095C26.5747 9.7831 21.942 6.4188 17.8684 8.91919C16.0168 10.0142 14.8168 11.8555 15.1478 13.9615H11.1852V10.4659C11.1852 10.2397 11.0016 10.0561 10.7754 10.0561C10.5492 10.0561 10.3657 10.2397 10.3657 10.4659V13.9615H9.54824C9.5431 13.6215 9.56511 13.2875 9.50349 11.3425C9.49629 11.1163 9.30795 10.9567 9.08121 10.9455C8.85499 10.953 8.67733 11.1419 8.68453 11.3681C8.74799 13.4093 8.72421 13.6582 8.72881 13.9615H7.64082L7.65429 13.3021C7.65883 13.0759 7.47903 12.8892 7.25281 12.8844C7.0322 12.8828 6.8396 13.0599 6.8348 13.2861L6.82099 13.9615C5.41033 13.9664 5.56888 13.9524 5.14832 13.9727C4.81834 13.9893 4.44514 14.0069 4.22693 13.8938ZM6.0065 30.8892C6.0009 30.6449 6.12521 30.4203 6.33115 30.3029C7.00221 29.9191 7.4618 29.1224 7.49824 28.3726H10.4921C10.5324 29.1305 10.9874 29.9202 11.6576 30.3029C11.863 30.4203 11.9873 30.6449 11.982 30.8892C11.9814 30.9178 11.9808 30.9468 11.9802 30.9757H6.0083C6.00767 30.9468 6.00707 30.9178 6.0065 30.8892ZM1.02817 35.8606C1.1632 35.53 1.30193 35.1757 1.4734 34.7402C1.71989 34.1144 2.31397 33.7105 2.98675 33.7105H37.0091C37.6822 33.7105 38.2762 34.1149 38.5227 34.7408C38.6647 35.102 38.8178 35.4939 38.9688 35.8606H1.02817Z" fill="#051328"/>
<path d="M17.2515 25.8556C17.0253 25.8556 16.8418 26.0391 16.8418 26.2653V26.8021C16.8418 27.0283 17.0253 27.2118 17.2515 27.2118C17.4778 27.2118 17.6613 27.0283 17.6613 26.8021V26.2653C17.6613 26.0391 17.4778 25.8556 17.2515 25.8556ZM17.8096 12.9998C17.5834 12.9998 17.3999 13.1833 17.3999 13.4095C17.3999 13.6357 17.5834 13.8193 17.8096 13.8193H17.8384C18.0646 13.8193 18.2338 13.6357 18.2338 13.4095C18.2338 13.1833 18.0358 12.9998 17.8096 12.9998ZM23.4957 12.9998C23.2694 12.9998 23.0859 13.1833 23.0859 13.4095C23.0859 13.9469 23.9198 13.9651 23.9198 13.4095C23.9198 13.1833 23.7219 12.9998 23.4957 12.9998Z" fill="#051328"/>
<path d="M20.7665 16.1737L19.3398 13.6827V13.3506H19.5059C19.7726 13.3506 19.9965 13.3254 20.1777 13.2751C20.3639 13.2248 20.5098 13.1418 20.6155 13.026C20.7212 12.9103 20.7841 12.7518 20.8042 12.5505H19.3398V12.0674H20.7967C20.7614 11.8812 20.691 11.7302 20.5853 11.6145C20.4796 11.4937 20.3362 11.4057 20.1551 11.3503C19.9789 11.2949 19.7625 11.2673 19.5059 11.2673H19.3398V10.7842H22.4648V11.2673H21.0382C21.154 11.3629 21.2496 11.4761 21.325 11.6069C21.4005 11.7378 21.4483 11.8913 21.4685 12.0674H22.4648V12.5505H21.4836C21.4483 12.9178 21.3074 13.2047 21.0609 13.411C20.8193 13.6123 20.4973 13.7406 20.0947 13.796L21.5364 16.1737H20.7665Z" fill="#051328"/>
</svg>
