<svg width="40" height="40" viewBox="0 0 40 40" fill="none" xmlns="http://www.w3.org/2000/svg">
<mask id="path-1-inside-1_4442_38908" fill="white">
<path d="M36.3529 18.8027C34.1509 18.5818 31.8482 19.1071 29.8079 20.2638C29.9576 6.04247 30.2376 5.99175 29.0057 4.80355L27.1504 3.12781C27.1455 3.12336 27.1391 3.12224 27.134 3.11802C26.0041 2.0442 24.4593 2.22777 23.0498 2.20882C3.76031 2.02342 5.28791 2.0596 4.42429 2.02266C3.292 1.97341 1.88524 1.91295 0.942409 2.9198C-0.106976 4.04308 0.237435 6.01147 0.227638 7.25505C-0.0229712 33.3402 -0.0935881 31.5882 0.153302 32.3968C0.601142 33.8267 1.55259 34.4927 1.59592 34.5439L3.14507 35.9529C4.3329 37.1301 5.78109 37.2945 7.03908 37.3006C25.1682 37.4822 25.9244 37.6374 27.289 37.0581C28.2306 36.6584 29.0194 35.8754 29.4054 34.7617C31.9447 34.5598 34.4616 33.5272 36.5402 32.0504C37.2159 31.5666 37.9588 30.953 38.3413 30.076C38.6717 29.3479 38.6677 28.5452 38.4171 27.9549L37.9193 26.744C38.9253 25.9932 39.8283 25.0265 39.8299 23.7724C39.8847 22.904 39.4994 22.4995 38.7089 20.4147C38.7037 20.402 38.7038 20.4026 38.7038 20.4026C38.315 19.4864 37.2002 18.8855 36.3529 18.8027ZM36.173 27.8789C35.5864 28.7547 32.5425 30.8451 29.1665 31.3761C27.9528 31.5614 26.3677 31.644 25.706 30.6363L25.5277 30.1897C25.4538 29.6014 25.7995 29.0587 26.2003 28.6006C26.2676 28.5228 26.4561 28.288 26.8902 27.8733C26.9386 27.9467 27.0703 28.5723 27.9934 29.1113C30.0268 30.2985 34.1739 28.9368 36.2323 27.8056C36.2055 27.837 36.1968 27.8451 36.173 27.8789ZM36.2578 19.7582C38.0076 19.9301 38.9065 21.8715 36.2435 23.7336C36.2154 23.7565 36.1281 23.8063 36.0966 23.8292C32.8832 26.0732 28.6005 26.8411 27.3543 25.8397C26.2716 24.9825 26.8389 24.0026 27.7867 23.0075C29.8312 20.8432 33.102 19.4407 36.2578 19.7582ZM1.07097 32.1133C0.939923 31.6846 0.949413 31.3164 0.961044 30.8509C1.18906 5.55192 1.21417 7.56193 1.16592 6.42472C1.10596 5.01525 1.04553 3.67629 2.22376 3.17616C3.01682 2.83952 4.09208 2.99439 5.04378 3.00357C21.0768 3.14847 23.0872 3.17389 23.6388 3.16737C24.695 3.15584 25.7877 3.14378 26.4957 3.83235C26.5215 3.8569 26.5379 3.88867 26.5619 3.91446C26.7508 4.12042 26.8945 4.35352 26.9833 4.64168C27.2291 5.39473 26.9608 22.418 26.9594 22.4886C26.9079 22.56 25.4019 24.1672 25.8507 25.2803C25.8747 25.3401 26.5335 26.9792 26.5098 26.9193C25.4611 27.903 24.3746 28.9692 24.5851 30.384C24.5974 30.4664 25.7465 33.3417 25.7229 33.2821C25.7678 33.4081 26.0071 33.7059 26.0656 33.7733C25.2815 34.66 24.3719 34.7441 23.2209 34.8041C23.1509 34.8076 4.37169 34.8836 3.02586 34.3133C2.04915 33.887 1.36821 33.06 1.07097 32.1133ZM37.533 28.3302C37.6758 28.6666 37.689 29.1908 37.464 29.6848C37.1717 30.3551 36.5504 30.8613 35.9826 31.2681C33.9201 32.7339 31.5461 33.6357 29.3213 33.8069C28.2687 33.899 27.1783 33.7813 26.6072 32.904L26.3559 32.2464C29.0566 33.0418 33.2433 31.3826 35.5912 29.7026C36.3035 29.1874 36.9254 28.631 37.3328 27.8554L37.533 28.3302Z"/>
<path d="M11.0703 22.6347C11.9613 22.6406 12.5232 22.3312 12.5322 21.3029L12.6098 16.7966L12.6097 16.7932C12.6169 16.0803 12.2575 15.5378 11.7547 15.504C11.6476 15.4965 11.5382 15.498 11.4322 15.4996L6.40467 15.4536L6.09548 15.4422C5.49505 15.4263 5.15858 16.0872 5.15238 16.7141L5.07502 21.2211C5.06978 21.8089 5.31697 22.2936 5.70331 22.4564C6.2297 22.6799 6.37487 22.5531 11.0703 22.6347ZM6.03534 21.2333C6.1389 16.871 6.0552 16.6595 6.17745 16.4067C13.5967 16.4729 11.0423 16.45 11.5913 16.4585C11.711 16.7198 11.6158 16.8625 11.5718 21.2907C11.57 21.4559 11.529 21.5739 11.499 21.628C11.3579 21.6513 11.2171 21.6752 11.0778 21.6744C6.54993 21.6147 6.37436 21.6579 6.12045 21.5986C6.09288 21.5689 6.03374 21.4344 6.03534 21.2333ZM22.1145 15.387C22.0074 15.3795 21.898 15.3811 21.792 15.3826L16.7645 15.3367C16.6018 15.3517 16.2376 15.225 15.8971 15.5547C15.6601 15.7837 15.5163 16.1749 15.5122 16.5972L15.4351 21.1033C15.4293 21.6913 15.6762 22.1769 16.0631 22.3394C16.5895 22.5629 16.7347 22.4361 21.4301 22.5177C21.6439 22.5191 21.8039 22.4951 22.0874 22.4466C22.6218 22.358 22.8866 21.7452 22.8925 21.1857L22.9696 16.6796L22.9695 16.6762C22.9766 15.9633 22.6173 15.4208 22.1145 15.387ZM21.932 21.1729C21.9303 21.3387 21.8888 21.4569 21.8588 21.511C21.7177 21.5344 21.5769 21.5582 21.4376 21.5574C16.9097 21.4978 16.7341 21.5409 16.4802 21.4816C16.4532 21.4517 16.3935 21.3174 16.3957 21.116C16.4988 16.7514 16.4153 16.5419 16.5372 16.2898C16.8489 16.3037 21.3508 16.3322 21.9511 16.3415C22.0713 16.6039 21.9756 16.7472 21.932 21.1729ZM10.8726 31.3937C11.0955 31.3952 11.5305 31.3441 11.6955 31.2741C12.0742 31.1133 12.3297 30.6414 12.3342 30.0614L12.4121 25.5556L12.412 25.5522C12.4192 24.8379 12.0591 24.2951 11.557 24.263C11.4499 24.2555 11.3405 24.2571 11.2345 24.2586L6.20697 24.2127L5.89778 24.2013C5.29723 24.1863 4.96089 24.8454 4.95468 25.4732L4.87707 29.9795C4.87183 30.5673 5.11927 31.0526 5.50643 31.2157C6.03958 31.4396 6.21407 31.3126 10.8726 31.3937ZM5.83739 29.9917L5.91525 25.4859C5.91642 25.3367 5.95023 25.2258 5.97975 25.1658L6.01136 25.1666C6.07589 25.1698 6.13902 25.1729 6.19896 25.1733C6.29131 25.174 11.3064 25.2166 11.3936 25.2175C11.5133 25.4792 11.4182 25.6214 11.3733 30.0494C11.3723 30.2149 11.3313 30.3329 11.3005 30.3867C11.1547 30.4108 11.0214 30.4343 10.8801 30.4334C6.31375 30.3733 6.17726 30.417 5.92275 30.3577C5.89518 30.3279 5.83579 30.1928 5.83739 29.9917ZM21.9168 24.146C21.8097 24.1385 21.7003 24.1401 21.5943 24.1416L16.5668 24.0957L16.2576 24.0843C15.6584 24.0684 15.3204 24.7261 15.3142 25.3556L15.2372 29.8617C15.2275 30.8368 15.747 31.2247 16.5861 31.2327C20.9354 31.2677 21.6483 31.3298 22.0553 31.1571C22.4334 30.9965 22.689 30.5246 22.6946 29.9441L22.7719 25.4386L22.7718 25.4352C22.779 24.7209 22.4189 24.1781 21.9168 24.146ZM21.734 29.9314C21.7326 30.0977 21.6911 30.2159 21.6605 30.2703C21.0369 30.3687 21.709 30.2835 16.5961 30.272C16.288 30.2697 16.1934 30.2733 16.1978 29.8745C16.3024 25.4324 16.2202 25.2979 16.3387 25.0484C16.7375 25.067 21.6826 25.0998 21.7534 25.1005C21.7815 25.162 21.7778 25.5372 21.734 29.9314Z"/>
<path d="M19.9425 26.3507L17.1318 26.3244C16.8677 26.3217 16.6496 26.5345 16.6468 26.7999C16.6446 27.0651 16.8572 27.2826 17.1224 27.2849C20.0957 27.2983 19.9596 27.3434 20.1254 27.273C20.6043 27.0698 20.4587 26.355 19.9425 26.3507ZM19.9265 27.9967L17.1164 27.9701C16.8529 27.9672 16.6342 28.1802 16.6314 28.4457C16.6292 28.7109 16.8418 28.9284 17.107 28.9306L19.9171 28.9572C20.1758 28.9606 20.3994 28.7521 20.4021 28.4817C20.4043 28.2165 20.1917 27.9989 19.9265 27.9967ZM20.0787 18.5688L17.8267 18.5479C17.5632 18.5449 17.3451 18.7577 17.3417 19.0234C17.3395 19.2886 17.5521 19.5061 17.8173 19.5084C20.1787 19.5162 20.0965 19.5613 20.2617 19.4912C20.7405 19.2879 20.5949 18.5732 20.0787 18.5688ZM7.10443 19.6706L7.72853 19.6765L7.72175 20.3759C7.71809 20.7225 8.07188 20.9576 8.38965 20.8227C8.56003 20.7504 8.68033 20.5825 8.68225 20.3854L8.68901 19.6857C9.25992 19.6804 9.34821 19.7202 9.5054 19.6535C9.98425 19.4502 9.83863 18.7355 9.32245 18.7312L8.69834 18.7252L8.70512 18.0258C8.70793 17.7604 8.49503 17.5437 8.22958 17.5409C7.96577 17.5387 7.74744 17.751 7.74463 18.0164L7.73787 18.7161L7.11383 18.7101C6.85011 18.7066 6.63227 18.92 6.62888 19.1857C6.62665 19.4509 6.83922 19.6684 7.10443 19.6706ZM7.17058 29.4385C7.31815 29.3759 7.32597 29.3182 8.05135 28.6211L8.76965 29.3535C8.95589 29.543 9.26003 29.5448 9.44901 29.36C9.63851 29.1742 9.6412 28.8701 9.45547 28.6806L8.73712 27.9482L9.46937 27.2298C9.65886 27.044 9.66156 26.7399 9.47583 26.5504C9.29034 26.3615 8.98439 26.3609 8.79647 26.5439L8.06435 27.2623L7.34644 26.5304C7.16071 26.3409 6.85534 26.3401 6.66708 26.5239C6.47759 26.7097 6.47489 27.0138 6.66062 27.2033L7.37854 27.9352L6.64648 28.6535C6.26922 29.0233 6.68438 29.6449 7.17058 29.4385ZM31.7652 24.6644C31.8688 24.9085 32.1508 25.0224 32.3949 24.9188C32.8176 24.7394 33.1252 24.6088 33.5363 24.4343C33.7804 24.3307 33.8944 24.0486 33.7908 23.8046C33.6872 23.5605 33.4051 23.4466 33.161 23.5502L33.0169 23.6114L32.4351 22.3665C32.2837 22.0409 31.8421 21.9949 31.6239 22.272L31.293 22.691C31.1287 22.8993 31.1643 23.2008 31.3726 23.365C31.5189 23.4809 31.713 23.4916 31.8696 23.4251L32.1318 23.987L32.0196 24.0347C31.7755 24.1383 31.6616 24.4203 31.7652 24.6644Z"/>
<path d="M7.65761 13.0947C7.00264 13.0881 6.48053 13.0536 6.01496 12.9842C5.18147 12.8611 4.60342 12.3395 4.61001 11.7165L4.75401 7.2465C4.7612 6.44624 5.69387 5.98682 6.54744 5.99815C6.62659 5.99878 21.9853 6.13171 23.0583 6.16212C24.0026 6.18929 24.737 6.75593 24.7303 7.45237C24.6092 11.2009 25.1874 13.059 22.9616 13.1698C20.7768 13.2831 22.398 13.1997 7.65761 13.0947Z"/>
</mask>
<path d="M36.3529 18.8027C34.1509 18.5818 31.8482 19.1071 29.8079 20.2638C29.9576 6.04247 30.2376 5.99175 29.0057 4.80355L27.1504 3.12781C27.1455 3.12336 27.1391 3.12224 27.134 3.11802C26.0041 2.0442 24.4593 2.22777 23.0498 2.20882C3.76031 2.02342 5.28791 2.0596 4.42429 2.02266C3.292 1.97341 1.88524 1.91295 0.942409 2.9198C-0.106976 4.04308 0.237435 6.01147 0.227638 7.25505C-0.0229712 33.3402 -0.0935881 31.5882 0.153302 32.3968C0.601142 33.8267 1.55259 34.4927 1.59592 34.5439L3.14507 35.9529C4.3329 37.1301 5.78109 37.2945 7.03908 37.3006C25.1682 37.4822 25.9244 37.6374 27.289 37.0581C28.2306 36.6584 29.0194 35.8754 29.4054 34.7617C31.9447 34.5598 34.4616 33.5272 36.5402 32.0504C37.2159 31.5666 37.9588 30.953 38.3413 30.076C38.6717 29.3479 38.6677 28.5452 38.4171 27.9549L37.9193 26.744C38.9253 25.9932 39.8283 25.0265 39.8299 23.7724C39.8847 22.904 39.4994 22.4995 38.7089 20.4147C38.7037 20.402 38.7038 20.4026 38.7038 20.4026C38.315 19.4864 37.2002 18.8855 36.3529 18.8027ZM36.173 27.8789C35.5864 28.7547 32.5425 30.8451 29.1665 31.3761C27.9528 31.5614 26.3677 31.644 25.706 30.6363L25.5277 30.1897C25.4538 29.6014 25.7995 29.0587 26.2003 28.6006C26.2676 28.5228 26.4561 28.288 26.8902 27.8733C26.9386 27.9467 27.0703 28.5723 27.9934 29.1113C30.0268 30.2985 34.1739 28.9368 36.2323 27.8056C36.2055 27.837 36.1968 27.8451 36.173 27.8789ZM36.2578 19.7582C38.0076 19.9301 38.9065 21.8715 36.2435 23.7336C36.2154 23.7565 36.1281 23.8063 36.0966 23.8292C32.8832 26.0732 28.6005 26.8411 27.3543 25.8397C26.2716 24.9825 26.8389 24.0026 27.7867 23.0075C29.8312 20.8432 33.102 19.4407 36.2578 19.7582ZM1.07097 32.1133C0.939923 31.6846 0.949413 31.3164 0.961044 30.8509C1.18906 5.55192 1.21417 7.56193 1.16592 6.42472C1.10596 5.01525 1.04553 3.67629 2.22376 3.17616C3.01682 2.83952 4.09208 2.99439 5.04378 3.00357C21.0768 3.14847 23.0872 3.17389 23.6388 3.16737C24.695 3.15584 25.7877 3.14378 26.4957 3.83235C26.5215 3.8569 26.5379 3.88867 26.5619 3.91446C26.7508 4.12042 26.8945 4.35352 26.9833 4.64168C27.2291 5.39473 26.9608 22.418 26.9594 22.4886C26.9079 22.56 25.4019 24.1672 25.8507 25.2803C25.8747 25.3401 26.5335 26.9792 26.5098 26.9193C25.4611 27.903 24.3746 28.9692 24.5851 30.384C24.5974 30.4664 25.7465 33.3417 25.7229 33.2821C25.7678 33.4081 26.0071 33.7059 26.0656 33.7733C25.2815 34.66 24.3719 34.7441 23.2209 34.8041C23.1509 34.8076 4.37169 34.8836 3.02586 34.3133C2.04915 33.887 1.36821 33.06 1.07097 32.1133ZM37.533 28.3302C37.6758 28.6666 37.689 29.1908 37.464 29.6848C37.1717 30.3551 36.5504 30.8613 35.9826 31.2681C33.9201 32.7339 31.5461 33.6357 29.3213 33.8069C28.2687 33.899 27.1783 33.7813 26.6072 32.904L26.3559 32.2464C29.0566 33.0418 33.2433 31.3826 35.5912 29.7026C36.3035 29.1874 36.9254 28.631 37.3328 27.8554L37.533 28.3302Z" fill="#051328"/>
<path d="M11.0703 22.6347C11.9613 22.6406 12.5232 22.3312 12.5322 21.3029L12.6098 16.7966L12.6097 16.7932C12.6169 16.0803 12.2575 15.5378 11.7547 15.504C11.6476 15.4965 11.5382 15.498 11.4322 15.4996L6.40467 15.4536L6.09548 15.4422C5.49505 15.4263 5.15858 16.0872 5.15238 16.7141L5.07502 21.2211C5.06978 21.8089 5.31697 22.2936 5.70331 22.4564C6.2297 22.6799 6.37487 22.5531 11.0703 22.6347ZM6.03534 21.2333C6.1389 16.871 6.0552 16.6595 6.17745 16.4067C13.5967 16.4729 11.0423 16.45 11.5913 16.4585C11.711 16.7198 11.6158 16.8625 11.5718 21.2907C11.57 21.4559 11.529 21.5739 11.499 21.628C11.3579 21.6513 11.2171 21.6752 11.0778 21.6744C6.54993 21.6147 6.37436 21.6579 6.12045 21.5986C6.09288 21.5689 6.03374 21.4344 6.03534 21.2333ZM22.1145 15.387C22.0074 15.3795 21.898 15.3811 21.792 15.3826L16.7645 15.3367C16.6018 15.3517 16.2376 15.225 15.8971 15.5547C15.6601 15.7837 15.5163 16.1749 15.5122 16.5972L15.4351 21.1033C15.4293 21.6913 15.6762 22.1769 16.0631 22.3394C16.5895 22.5629 16.7347 22.4361 21.4301 22.5177C21.6439 22.5191 21.8039 22.4951 22.0874 22.4466C22.6218 22.358 22.8866 21.7452 22.8925 21.1857L22.9696 16.6796L22.9695 16.6762C22.9766 15.9633 22.6173 15.4208 22.1145 15.387ZM21.932 21.1729C21.9303 21.3387 21.8888 21.4569 21.8588 21.511C21.7177 21.5344 21.5769 21.5582 21.4376 21.5574C16.9097 21.4978 16.7341 21.5409 16.4802 21.4816C16.4532 21.4517 16.3935 21.3174 16.3957 21.116C16.4988 16.7514 16.4153 16.5419 16.5372 16.2898C16.8489 16.3037 21.3508 16.3322 21.9511 16.3415C22.0713 16.6039 21.9756 16.7472 21.932 21.1729ZM10.8726 31.3937C11.0955 31.3952 11.5305 31.3441 11.6955 31.2741C12.0742 31.1133 12.3297 30.6414 12.3342 30.0614L12.4121 25.5556L12.412 25.5522C12.4192 24.8379 12.0591 24.2951 11.557 24.263C11.4499 24.2555 11.3405 24.2571 11.2345 24.2586L6.20697 24.2127L5.89778 24.2013C5.29723 24.1863 4.96089 24.8454 4.95468 25.4732L4.87707 29.9795C4.87183 30.5673 5.11927 31.0526 5.50643 31.2157C6.03958 31.4396 6.21407 31.3126 10.8726 31.3937ZM5.83739 29.9917L5.91525 25.4859C5.91642 25.3367 5.95023 25.2258 5.97975 25.1658L6.01136 25.1666C6.07589 25.1698 6.13902 25.1729 6.19896 25.1733C6.29131 25.174 11.3064 25.2166 11.3936 25.2175C11.5133 25.4792 11.4182 25.6214 11.3733 30.0494C11.3723 30.2149 11.3313 30.3329 11.3005 30.3867C11.1547 30.4108 11.0214 30.4343 10.8801 30.4334C6.31375 30.3733 6.17726 30.417 5.92275 30.3577C5.89518 30.3279 5.83579 30.1928 5.83739 29.9917ZM21.9168 24.146C21.8097 24.1385 21.7003 24.1401 21.5943 24.1416L16.5668 24.0957L16.2576 24.0843C15.6584 24.0684 15.3204 24.7261 15.3142 25.3556L15.2372 29.8617C15.2275 30.8368 15.747 31.2247 16.5861 31.2327C20.9354 31.2677 21.6483 31.3298 22.0553 31.1571C22.4334 30.9965 22.689 30.5246 22.6946 29.9441L22.7719 25.4386L22.7718 25.4352C22.779 24.7209 22.4189 24.1781 21.9168 24.146ZM21.734 29.9314C21.7326 30.0977 21.6911 30.2159 21.6605 30.2703C21.0369 30.3687 21.709 30.2835 16.5961 30.272C16.288 30.2697 16.1934 30.2733 16.1978 29.8745C16.3024 25.4324 16.2202 25.2979 16.3387 25.0484C16.7375 25.067 21.6826 25.0998 21.7534 25.1005C21.7815 25.162 21.7778 25.5372 21.734 29.9314Z" fill="#051328"/>
<path d="M19.9425 26.3507L17.1318 26.3244C16.8677 26.3217 16.6496 26.5345 16.6468 26.7999C16.6446 27.0651 16.8572 27.2826 17.1224 27.2849C20.0957 27.2983 19.9596 27.3434 20.1254 27.273C20.6043 27.0698 20.4587 26.355 19.9425 26.3507ZM19.9265 27.9967L17.1164 27.9701C16.8529 27.9672 16.6342 28.1802 16.6314 28.4457C16.6292 28.7109 16.8418 28.9284 17.107 28.9306L19.9171 28.9572C20.1758 28.9606 20.3994 28.7521 20.4021 28.4817C20.4043 28.2165 20.1917 27.9989 19.9265 27.9967ZM20.0787 18.5688L17.8267 18.5479C17.5632 18.5449 17.3451 18.7577 17.3417 19.0234C17.3395 19.2886 17.5521 19.5061 17.8173 19.5084C20.1787 19.5162 20.0965 19.5613 20.2617 19.4912C20.7405 19.2879 20.5949 18.5732 20.0787 18.5688ZM7.10443 19.6706L7.72853 19.6765L7.72175 20.3759C7.71809 20.7225 8.07188 20.9576 8.38965 20.8227C8.56003 20.7504 8.68033 20.5825 8.68225 20.3854L8.68901 19.6857C9.25992 19.6804 9.34821 19.7202 9.5054 19.6535C9.98425 19.4502 9.83863 18.7355 9.32245 18.7312L8.69834 18.7252L8.70512 18.0258C8.70793 17.7604 8.49503 17.5437 8.22958 17.5409C7.96577 17.5387 7.74744 17.751 7.74463 18.0164L7.73787 18.7161L7.11383 18.7101C6.85011 18.7066 6.63227 18.92 6.62888 19.1857C6.62665 19.4509 6.83922 19.6684 7.10443 19.6706ZM7.17058 29.4385C7.31815 29.3759 7.32597 29.3182 8.05135 28.6211L8.76965 29.3535C8.95589 29.543 9.26003 29.5448 9.44901 29.36C9.63851 29.1742 9.6412 28.8701 9.45547 28.6806L8.73712 27.9482L9.46937 27.2298C9.65886 27.044 9.66156 26.7399 9.47583 26.5504C9.29034 26.3615 8.98439 26.3609 8.79647 26.5439L8.06435 27.2623L7.34644 26.5304C7.16071 26.3409 6.85534 26.3401 6.66708 26.5239C6.47759 26.7097 6.47489 27.0138 6.66062 27.2033L7.37854 27.9352L6.64648 28.6535C6.26922 29.0233 6.68438 29.6449 7.17058 29.4385ZM31.7652 24.6644C31.8688 24.9085 32.1508 25.0224 32.3949 24.9188C32.8176 24.7394 33.1252 24.6088 33.5363 24.4343C33.7804 24.3307 33.8944 24.0486 33.7908 23.8046C33.6872 23.5605 33.4051 23.4466 33.161 23.5502L33.0169 23.6114L32.4351 22.3665C32.2837 22.0409 31.8421 21.9949 31.6239 22.272L31.293 22.691C31.1287 22.8993 31.1643 23.2008 31.3726 23.365C31.5189 23.4809 31.713 23.4916 31.8696 23.4251L32.1318 23.987L32.0196 24.0347C31.7755 24.1383 31.6616 24.4203 31.7652 24.6644Z" fill="#051328"/>
<path d="M36.3529 18.8027C34.1509 18.5818 31.8482 19.1071 29.8079 20.2638C29.9576 6.04247 30.2376 5.99175 29.0057 4.80355L27.1504 3.12781C27.1455 3.12336 27.1391 3.12224 27.134 3.11802C26.0041 2.0442 24.4593 2.22777 23.0498 2.20882C3.76031 2.02342 5.28791 2.0596 4.42429 2.02266C3.292 1.97341 1.88524 1.91295 0.942409 2.9198C-0.106976 4.04308 0.237435 6.01147 0.227638 7.25505C-0.0229712 33.3402 -0.0935881 31.5882 0.153302 32.3968C0.601142 33.8267 1.55259 34.4927 1.59592 34.5439L3.14507 35.9529C4.3329 37.1301 5.78109 37.2945 7.03908 37.3006C25.1682 37.4822 25.9244 37.6374 27.289 37.0581C28.2306 36.6584 29.0194 35.8754 29.4054 34.7617C31.9447 34.5598 34.4616 33.5272 36.5402 32.0504C37.2159 31.5666 37.9588 30.953 38.3413 30.076C38.6717 29.3479 38.6677 28.5452 38.4171 27.9549L37.9193 26.744C38.9253 25.9932 39.8283 25.0265 39.8299 23.7724C39.8847 22.904 39.4994 22.4995 38.7089 20.4147C38.7037 20.402 38.7038 20.4026 38.7038 20.4026C38.315 19.4864 37.2002 18.8855 36.3529 18.8027ZM36.173 27.8789C35.5864 28.7547 32.5425 30.8451 29.1665 31.3761C27.9528 31.5614 26.3677 31.644 25.706 30.6363L25.5277 30.1897C25.4538 29.6014 25.7995 29.0587 26.2003 28.6006C26.2676 28.5228 26.4561 28.288 26.8902 27.8733C26.9386 27.9467 27.0703 28.5723 27.9934 29.1113C30.0268 30.2985 34.1739 28.9368 36.2323 27.8056C36.2055 27.837 36.1968 27.8451 36.173 27.8789ZM36.2578 19.7582C38.0076 19.9301 38.9065 21.8715 36.2435 23.7336C36.2154 23.7565 36.1281 23.8063 36.0966 23.8292C32.8832 26.0732 28.6005 26.8411 27.3543 25.8397C26.2716 24.9825 26.8389 24.0026 27.7867 23.0075C29.8312 20.8432 33.102 19.4407 36.2578 19.7582ZM1.07097 32.1133C0.939923 31.6846 0.949413 31.3164 0.961044 30.8509C1.18906 5.55192 1.21417 7.56193 1.16592 6.42472C1.10596 5.01525 1.04553 3.67629 2.22376 3.17616C3.01682 2.83952 4.09208 2.99439 5.04378 3.00357C21.0768 3.14847 23.0872 3.17389 23.6388 3.16737C24.695 3.15584 25.7877 3.14378 26.4957 3.83235C26.5215 3.8569 26.5379 3.88867 26.5619 3.91446C26.7508 4.12042 26.8945 4.35352 26.9833 4.64168C27.2291 5.39473 26.9608 22.418 26.9594 22.4886C26.9079 22.56 25.4019 24.1672 25.8507 25.2803C25.8747 25.3401 26.5335 26.9792 26.5098 26.9193C25.4611 27.903 24.3746 28.9692 24.5851 30.384C24.5974 30.4664 25.7465 33.3417 25.7229 33.2821C25.7678 33.4081 26.0071 33.7059 26.0656 33.7733C25.2815 34.66 24.3719 34.7441 23.2209 34.8041C23.1509 34.8076 4.37169 34.8836 3.02586 34.3133C2.04915 33.887 1.36821 33.06 1.07097 32.1133ZM37.533 28.3302C37.6758 28.6666 37.689 29.1908 37.464 29.6848C37.1717 30.3551 36.5504 30.8613 35.9826 31.2681C33.9201 32.7339 31.5461 33.6357 29.3213 33.8069C28.2687 33.899 27.1783 33.7813 26.6072 32.904L26.3559 32.2464C29.0566 33.0418 33.2433 31.3826 35.5912 29.7026C36.3035 29.1874 36.9254 28.631 37.3328 27.8554L37.533 28.3302Z" stroke="#051328" stroke-width="2.40127" mask="url(#path-1-inside-1_4442_38908)"/>
<path d="M11.0703 22.6347C11.9613 22.6406 12.5232 22.3312 12.5322 21.3029L12.6098 16.7966L12.6097 16.7932C12.6169 16.0803 12.2575 15.5378 11.7547 15.504C11.6476 15.4965 11.5382 15.498 11.4322 15.4996L6.40467 15.4536L6.09548 15.4422C5.49505 15.4263 5.15858 16.0872 5.15238 16.7141L5.07502 21.2211C5.06978 21.8089 5.31697 22.2936 5.70331 22.4564C6.2297 22.6799 6.37487 22.5531 11.0703 22.6347ZM6.03534 21.2333C6.1389 16.871 6.0552 16.6595 6.17745 16.4067C13.5967 16.4729 11.0423 16.45 11.5913 16.4585C11.711 16.7198 11.6158 16.8625 11.5718 21.2907C11.57 21.4559 11.529 21.5739 11.499 21.628C11.3579 21.6513 11.2171 21.6752 11.0778 21.6744C6.54993 21.6147 6.37436 21.6579 6.12045 21.5986C6.09288 21.5689 6.03374 21.4344 6.03534 21.2333ZM22.1145 15.387C22.0074 15.3795 21.898 15.3811 21.792 15.3826L16.7645 15.3367C16.6018 15.3517 16.2376 15.225 15.8971 15.5547C15.6601 15.7837 15.5163 16.1749 15.5122 16.5972L15.4351 21.1033C15.4293 21.6913 15.6762 22.1769 16.0631 22.3394C16.5895 22.5629 16.7347 22.4361 21.4301 22.5177C21.6439 22.5191 21.8039 22.4951 22.0874 22.4466C22.6218 22.358 22.8866 21.7452 22.8925 21.1857L22.9696 16.6796L22.9695 16.6762C22.9766 15.9633 22.6173 15.4208 22.1145 15.387ZM21.932 21.1729C21.9303 21.3387 21.8888 21.4569 21.8588 21.511C21.7177 21.5344 21.5769 21.5582 21.4376 21.5574C16.9097 21.4978 16.7341 21.5409 16.4802 21.4816C16.4532 21.4517 16.3935 21.3174 16.3957 21.116C16.4988 16.7514 16.4153 16.5419 16.5372 16.2898C16.8489 16.3037 21.3508 16.3322 21.9511 16.3415C22.0713 16.6039 21.9756 16.7472 21.932 21.1729ZM10.8726 31.3937C11.0955 31.3952 11.5305 31.3441 11.6955 31.2741C12.0742 31.1133 12.3297 30.6414 12.3342 30.0614L12.4121 25.5556L12.412 25.5522C12.4192 24.8379 12.0591 24.2951 11.557 24.263C11.4499 24.2555 11.3405 24.2571 11.2345 24.2586L6.20697 24.2127L5.89778 24.2013C5.29723 24.1863 4.96089 24.8454 4.95468 25.4732L4.87707 29.9795C4.87183 30.5673 5.11927 31.0526 5.50643 31.2157C6.03958 31.4396 6.21407 31.3126 10.8726 31.3937ZM5.83739 29.9917L5.91525 25.4859C5.91642 25.3367 5.95023 25.2258 5.97975 25.1658L6.01136 25.1666C6.07589 25.1698 6.13902 25.1729 6.19896 25.1733C6.29131 25.174 11.3064 25.2166 11.3936 25.2175C11.5133 25.4792 11.4182 25.6214 11.3733 30.0494C11.3723 30.2149 11.3313 30.3329 11.3005 30.3867C11.1547 30.4108 11.0214 30.4343 10.8801 30.4334C6.31375 30.3733 6.17726 30.417 5.92275 30.3577C5.89518 30.3279 5.83579 30.1928 5.83739 29.9917ZM21.9168 24.146C21.8097 24.1385 21.7003 24.1401 21.5943 24.1416L16.5668 24.0957L16.2576 24.0843C15.6584 24.0684 15.3204 24.7261 15.3142 25.3556L15.2372 29.8617C15.2275 30.8368 15.747 31.2247 16.5861 31.2327C20.9354 31.2677 21.6483 31.3298 22.0553 31.1571C22.4334 30.9965 22.689 30.5246 22.6946 29.9441L22.7719 25.4386L22.7718 25.4352C22.779 24.7209 22.4189 24.1781 21.9168 24.146ZM21.734 29.9314C21.7326 30.0977 21.6911 30.2159 21.6605 30.2703C21.0369 30.3687 21.709 30.2835 16.5961 30.272C16.288 30.2697 16.1934 30.2733 16.1978 29.8745C16.3024 25.4324 16.2202 25.2979 16.3387 25.0484C16.7375 25.067 21.6826 25.0998 21.7534 25.1005C21.7815 25.162 21.7778 25.5372 21.734 29.9314Z" stroke="#051328" stroke-width="2.40127" mask="url(#path-1-inside-1_4442_38908)"/>
<path d="M19.9425 26.3507L17.1318 26.3244C16.8677 26.3217 16.6496 26.5345 16.6468 26.7999C16.6446 27.0651 16.8572 27.2826 17.1224 27.2849C20.0957 27.2983 19.9596 27.3434 20.1254 27.273C20.6043 27.0698 20.4587 26.355 19.9425 26.3507ZM19.9265 27.9967L17.1164 27.9701C16.8529 27.9672 16.6342 28.1802 16.6314 28.4457C16.6292 28.7109 16.8418 28.9284 17.107 28.9306L19.9171 28.9572C20.1758 28.9606 20.3994 28.7521 20.4021 28.4817C20.4043 28.2165 20.1917 27.9989 19.9265 27.9967ZM20.0787 18.5688L17.8267 18.5479C17.5632 18.5449 17.3451 18.7577 17.3417 19.0234C17.3395 19.2886 17.5521 19.5061 17.8173 19.5084C20.1787 19.5162 20.0965 19.5613 20.2617 19.4912C20.7405 19.2879 20.5949 18.5732 20.0787 18.5688ZM7.10443 19.6706L7.72853 19.6765L7.72175 20.3759C7.71809 20.7225 8.07188 20.9576 8.38965 20.8227C8.56003 20.7504 8.68033 20.5825 8.68225 20.3854L8.68901 19.6857C9.25992 19.6804 9.34821 19.7202 9.5054 19.6535C9.98425 19.4502 9.83863 18.7355 9.32245 18.7312L8.69834 18.7252L8.70512 18.0258C8.70793 17.7604 8.49503 17.5437 8.22958 17.5409C7.96577 17.5387 7.74744 17.751 7.74463 18.0164L7.73787 18.7161L7.11383 18.7101C6.85011 18.7066 6.63227 18.92 6.62888 19.1857C6.62665 19.4509 6.83922 19.6684 7.10443 19.6706ZM7.17058 29.4385C7.31815 29.3759 7.32597 29.3182 8.05135 28.6211L8.76965 29.3535C8.95589 29.543 9.26003 29.5448 9.44901 29.36C9.63851 29.1742 9.6412 28.8701 9.45547 28.6806L8.73712 27.9482L9.46937 27.2298C9.65886 27.044 9.66156 26.7399 9.47583 26.5504C9.29034 26.3615 8.98439 26.3609 8.79647 26.5439L8.06435 27.2623L7.34644 26.5304C7.16071 26.3409 6.85534 26.3401 6.66708 26.5239C6.47759 26.7097 6.47489 27.0138 6.66062 27.2033L7.37854 27.9352L6.64648 28.6535C6.26922 29.0233 6.68438 29.6449 7.17058 29.4385ZM31.7652 24.6644C31.8688 24.9085 32.1508 25.0224 32.3949 24.9188C32.8176 24.7394 33.1252 24.6088 33.5363 24.4343C33.7804 24.3307 33.8944 24.0486 33.7908 23.8046C33.6872 23.5605 33.4051 23.4466 33.161 23.5502L33.0169 23.6114L32.4351 22.3665C32.2837 22.0409 31.8421 21.9949 31.6239 22.272L31.293 22.691C31.1287 22.8993 31.1643 23.2008 31.3726 23.365C31.5189 23.4809 31.713 23.4916 31.8696 23.4251L32.1318 23.987L32.0196 24.0347C31.7755 24.1383 31.6616 24.4203 31.7652 24.6644Z" stroke="#051328" stroke-width="2.40127" mask="url(#path-1-inside-1_4442_38908)"/>
<path d="M7.65761 13.0947C7.00264 13.0881 6.48053 13.0536 6.01496 12.9842C5.18147 12.8611 4.60342 12.3395 4.61001 11.7165L4.75401 7.2465C4.7612 6.44624 5.69387 5.98682 6.54744 5.99815C6.62659 5.99878 21.9853 6.13171 23.0583 6.16212C24.0026 6.18929 24.737 6.75593 24.7303 7.45237C24.6092 11.2009 25.1874 13.059 22.9616 13.1698C20.7768 13.2831 22.398 13.1997 7.65761 13.0947Z" stroke="#051328" stroke-width="2.40127" mask="url(#path-1-inside-1_4442_38908)"/>
</svg>
