<svg width="72" height="72" viewBox="0 0 72 72" fill="none" xmlns="http://www.w3.org/2000/svg">
<g id="checkmark">
<path id="Vector" d="M29.5059 46.7502C29.7829 46.9958 30.2 47.0009 30.483 46.756C36.6567 41.3994 42.2845 35.7814 48.9993 30.1122C49.5786 29.6229 49.924 28.939 49.9721 28.1848C50.1203 25.841 47.3294 24.3062 45.4326 25.8751C39.6877 30.6198 34.9113 34.9233 30.4561 39.3713C29.5805 38.4967 28.4093 37.2455 26.964 35.6399C25.8467 34.399 23.8302 34.1843 22.4737 35.5243C21.2822 36.7004 21.2254 38.5882 22.3431 39.823C25.0411 42.8006 26.7348 44.2867 29.5059 46.7502Z" fill="#22C55E"/>
<path id="Vector_2" d="M15.0059 60.0647C24.4678 67.4175 38.7833 67.9959 48.6968 61.2644C57.2146 55.4803 62.211 44.3589 61.3074 34.0498C60.7684 18.7259 50.8114 9.18506 34.4345 8.43955C29.6178 8.21128 24.9369 9.40274 20.8098 11.8264C13.9158 15.0713 8.21524 20.9352 5.64288 28.1262C1.60677 39.4091 5.54403 52.7119 15.0059 60.0647ZM11.7179 23.9107C16.3458 15.2533 24.601 9.46654 34.3671 9.91708C50.5645 10.6549 59.8539 19.9323 59.8539 35.3712C59.8539 49.4057 48.4359 60.8243 34.4008 60.8243C15.0626 60.8243 3.10032 40.0335 11.7179 23.9107Z" fill="#22C55E"/>
<path id="Vector_3" d="M54.8991 6.4872C53.9875 8.66111 53.3744 10.9477 53.0763 13.2854C53.0248 13.6909 53.3113 14.0607 53.7168 14.1127C54.1316 14.163 54.4933 13.8708 54.5442 13.4722C54.825 11.2675 55.4034 9.10996 56.263 7.05934C56.4214 6.68273 56.2437 6.2493 55.8671 6.09134C55.4896 5.93145 55.0571 6.1106 54.8991 6.4872ZM64.1915 11.3426C63.9415 11.019 63.4773 10.9593 63.1536 11.2107L58.1899 15.0538C57.8667 15.3032 57.8075 15.7685 58.0579 16.0911C58.3091 16.4172 58.7773 16.4715 59.0952 16.2231L64.059 12.38C64.3822 12.1305 64.4414 11.6653 64.1915 11.3426ZM67.8949 19.9458C67.7687 19.5576 67.3526 19.3438 66.9625 19.4719C65.2977 20.0151 63.5712 20.2781 61.8085 20.2367C61.4242 20.2511 61.0626 20.5526 61.0539 20.9619C61.0457 21.3703 61.3703 21.7075 61.7787 21.7161C63.7977 21.7498 65.6589 21.4527 67.421 20.8782C67.8097 20.752 68.0216 20.334 67.8949 19.9458Z" fill="#22C55E"/>
</g>
</svg>
