<svg width="41" height="40" viewBox="0 0 41 40" fill="none" xmlns="http://www.w3.org/2000/svg">
<g clip-path="url(#clip0_986_4808)">
<rect width="40" height="40" transform="translate(0.5)" fill="white"/>
<g clip-path="url(#clip1_986_4808)">
<path d="M6.28471 22.2317V36.2858C6.28471 38.0217 7.04306 39.1178 8.78134 39.1414C9.46515 39.1414 22.2227 39.9262 22.9525 40.0014C23.7177 40.0803 24.5403 40.157 25.2516 39.8395C27.0077 39.203 28.8659 38.1651 31.3898 36.407C32.0481 35.9277 32.4341 35.1995 32.4481 34.412C32.512 31.7442 32.5206 28.817 32.5347 25.8853C32.6096 25.9135 32.2633 25.7837 33.2673 26.16C34.8953 26.7977 35.6563 26.0249 36.7271 24.5413C37.5089 23.4573 38.5895 22.2522 39.4476 19.7249C39.9554 18.2095 39.3189 17.3747 38.2442 17.2202C36.4323 16.9637 33.998 17.4351 31.8403 17.9382C31.4817 17.8864 31.12 17.8303 30.7578 17.7736C34.323 15.3377 35.1467 11.1255 33.5751 8.14106C31.9202 5.07035 27.9773 3.64682 24.3489 5.05687C24.2882 5.08298 22.5111 5.84806 22.6196 5.80135C20.5407 6.48731 18.6845 8.17012 17.9965 9.50811C16.9577 11.5345 16.7093 13.7245 17.7003 15.8668C17.8826 16.2605 18.1047 16.6306 18.3537 16.98C18.0792 17.0301 17.8107 17.089 17.5465 17.1535C17.0287 16.3017 16.2063 15.1157 15.3879 14.259C14.7162 13.5553 13.6108 12.6785 12.1596 12.4967C11.3433 12.3954 10.5357 12.5347 9.85474 12.6856C6.83744 13.355 4.02363 14.7766 1.71765 16.7964C1.34624 17.1229 0.938689 17.5178 0.814498 18.0787C0.605765 19.0198 1.3958 19.409 1.65526 19.5368C2.66929 20.0366 2.40968 20.0966 4.85623 21.4294C5.3602 21.7039 5.8719 21.9841 6.28471 22.2317ZM17.3777 18.1003C17.3679 19.3895 17.511 20.6723 17.8029 21.9283L8.6417 21.6142C9.54631 21.2382 10.4573 20.8653 11.3555 20.5013C16.4147 18.452 16.1263 18.4486 17.3777 18.1003ZM23.0457 39.1294C22.3292 39.0564 9.56098 38.2654 8.73761 38.2654C7.81229 38.2905 7.18028 37.7331 7.18028 36.2858V22.4413L25.7091 23.0764C25.7213 36.4284 25.6865 35.1456 25.7325 36.1642C25.7874 37.3544 25.8512 38.7108 24.7062 39.1034C24.2301 39.2478 23.6322 39.1903 23.0457 39.1294ZM30.8633 35.6982C29.136 36.9012 27.7368 37.7525 26.4717 38.3666C26.692 37.6498 26.6609 36.854 26.6274 36.1245C26.5828 35.1867 26.6162 36.3602 26.6047 23.351C28.294 24.1382 29.8233 24.8589 31.6408 25.547C31.6262 28.5752 31.6175 31.6875 31.5525 34.3914C31.5525 34.3913 31.5525 34.3915 31.5525 34.3914C31.5525 34.3922 31.5525 34.3932 31.5525 34.394C31.5432 34.9104 31.2895 35.3881 30.8633 35.6982ZM38.1148 18.0876C38.8286 18.1897 38.8375 18.7339 38.5969 19.4501C37.7829 21.849 36.6824 23.0841 35.9959 24.0354C34.8465 25.6272 34.4844 25.6932 33.5949 25.3443C29.0749 23.6303 31.2837 24.4765 27.0545 22.5898C28.8205 21.3668 30.2547 19.8924 32.0388 18.7927C33.3455 18.487 36.2404 17.8224 38.1148 18.0876ZM18.7965 9.90187C20.7513 6.10109 26.7812 4.81776 29.9081 8.36227C33.2991 12.2155 30.1837 18.5159 24.9564 19.167C22.3572 19.4946 19.6489 17.9515 18.5166 15.505C17.6387 13.6074 17.8772 11.6942 18.7965 9.90187ZM24.2678 20.0861C25.9695 20.0861 27.1727 19.462 28.6075 18.8449C28.928 18.7428 29.2429 18.6136 29.5531 18.4689C29.9233 18.5292 30.2942 18.5906 30.6622 18.648C29.0515 19.799 27.7049 21.1496 26.0299 22.2104L18.7263 21.96C18.3962 20.6264 18.2417 19.2583 18.2719 17.8852C18.5085 17.8375 18.7525 17.7988 18.9985 17.7626C20.3678 19.2061 22.305 20.0861 24.2678 20.0861ZM2.05757 18.7539C1.64768 18.5515 1.64943 18.4471 1.69024 18.2645C1.7573 17.9595 2.04824 17.6838 2.31528 17.4493C4.50756 15.5287 7.18319 14.1771 10.053 13.5405C10.6564 13.4067 11.3649 13.2811 12.0464 13.3664C14.0838 13.6215 15.5832 15.6865 16.6566 17.4041C15.4987 17.7751 16.2152 17.5831 11.0133 19.6915C9.59011 20.2679 8.12533 20.8638 6.72644 21.4686C5.81733 20.9252 4.35387 20.184 3.66446 19.7357C3.07789 19.3491 2.57929 19.0105 2.05757 18.7539Z" fill="#051328"/>
<path d="M16.8578 27.7441C17.2694 25.9995 15.0346 24.9238 13.8807 26.1097C13.813 26.1907 13.5999 26.3643 13.4557 26.7517C13.2318 27.3503 13.3682 28.0434 13.8037 28.5176C14.7911 29.5896 16.5459 29.0669 16.8578 27.7441ZM14.5326 26.7123C14.8008 26.4786 15.2433 26.4264 15.557 26.5996C15.8806 26.7771 16.0689 27.1934 15.9855 27.5472C15.8395 28.1668 14.9792 28.4841 14.4696 27.9312C14.1834 27.6197 14.1385 27.0648 14.5326 26.7123ZM18.225 31.0534C17.0398 32.2476 17.9868 34.1313 19.5719 34.0343C20.3433 33.9906 21.0284 33.4245 21.2021 32.6881C21.6044 30.9822 19.4284 29.841 18.225 31.0534ZM20.3299 32.4909C20.2465 32.8447 19.8908 33.1383 19.5206 33.1595C18.8705 33.1983 18.4312 32.5593 18.6402 31.9967C18.8371 31.4719 19.4774 31.3121 19.9013 31.5433C20.2249 31.7208 20.4132 32.1371 20.3299 32.4909ZM19.8838 26.6701C19.6955 26.5145 19.4133 26.5357 19.2524 26.7206L14.3885 32.3337C14.2288 32.5183 14.2521 32.7948 14.4404 32.9514C14.6331 33.1101 14.9144 33.0823 15.0719 32.9004L19.9357 27.2878C20.0955 27.1032 20.0722 26.8264 19.8838 26.6701ZM19.864 36.7598L19.2786 36.7244C19.0372 36.705 18.8192 36.8931 18.804 37.135C18.7889 37.3767 18.9772 37.5844 19.2238 37.5993L19.808 37.6347C20.0549 37.6498 20.2675 37.4662 20.2832 37.2246C20.2984 36.983 20.1106 36.7749 19.864 36.7598ZM23.7337 36.9347C23.2995 36.8962 22.0569 36.9128 21.6709 36.8785C21.4254 36.8568 21.2068 37.0346 21.1846 37.2754C21.1625 37.5165 21.3438 37.73 21.5904 37.7516C22.0291 37.7901 23.2665 37.7734 23.6521 37.8076C23.9104 37.8286 24.1169 37.6433 24.139 37.4112C24.1611 37.1701 23.9798 36.957 23.7337 36.9347ZM22.5507 0.268769C22.3472 0.129525 22.0685 0.178603 21.9274 0.376911C21.1421 1.47603 20.7613 2.81853 20.8552 4.15733C20.8727 4.40474 21.0952 4.58387 21.3327 4.5645C21.5793 4.54795 21.7653 4.3388 21.7484 4.09741C21.6686 2.95778 21.9927 1.81472 22.6609 0.879102C22.8026 0.680794 22.7536 0.407442 22.5507 0.268769ZM19.5602 5.04986C19.78 4.93886 19.8663 4.67464 19.7532 4.4595L17.9347 1.00094C17.8222 0.786083 17.5528 0.701909 17.3312 0.811763C17.1114 0.922759 17.0251 1.18698 17.1382 1.40212L18.9568 4.86068C19.0679 5.07214 19.3353 5.1619 19.5602 5.04986ZM14.1559 5.88561C15.171 5.29068 16.5639 5.32778 17.5452 5.97492C17.7518 6.11049 18.0294 6.056 18.1667 5.85622C18.3049 5.65563 18.2507 5.38313 18.0455 5.24788C16.7674 4.40528 15.0206 4.35878 13.6965 5.13346C13.4842 5.25758 13.4148 5.52694 13.542 5.73467C13.6691 5.94268 13.9448 6.01059 14.1559 5.88561ZM10.6378 15.2663C11.9788 15.0288 12.9378 15.5233 13.2953 16.1403C13.416 16.3489 13.689 16.4254 13.9058 16.3052C14.1209 16.186 14.1961 15.9183 14.0743 15.7077C13.528 14.765 12.2202 14.0942 10.478 14.404C10.2349 14.4471 10.0734 14.6751 10.1171 14.9134C10.1608 15.1519 10.3981 15.3103 10.6378 15.2663ZM8.72943 15.8675C8.92709 15.791 9.12533 15.7149 9.32531 15.6418C9.55679 15.5571 9.67456 15.3048 9.58827 15.078C9.5014 14.8514 9.24543 14.7367 9.01163 14.8206C8.80698 14.8954 8.60291 14.9738 8.40059 15.052C8.17028 15.1411 8.05776 15.3956 8.14871 15.6207C8.24045 15.8486 8.5032 15.9554 8.72943 15.8675Z" fill="#051328"/>
<path d="M23.1477 15.915L22.7548 12.5436L22.9134 12.183L23.0977 12.2606C23.3935 12.3853 23.6539 12.4627 23.8789 12.4927C24.1095 12.5251 24.3111 12.5032 24.4836 12.4269C24.6561 12.3506 24.8016 12.2079 24.92 11.9988L23.2956 11.3143L23.5263 10.7897L25.1424 11.4707C25.1922 11.2521 25.1862 11.0553 25.1242 10.8802C25.0647 10.6997 24.9476 10.537 24.7731 10.3922C24.6042 10.2498 24.3773 10.1186 24.0927 9.99863L23.9084 9.921L24.1392 9.39648L27.6058 10.8573L27.375 11.3818L25.7925 10.7149C25.8752 10.8728 25.9272 11.0405 25.9484 11.2178C25.9697 11.3951 25.9494 11.5841 25.8876 11.7848L26.9929 12.2505L26.7622 12.7751L25.6736 12.3164C25.4591 12.6987 25.1658 12.9443 24.7937 13.0531C24.4296 13.1587 24.0111 13.1475 23.5381 13.0194L24.0018 16.2749L23.1477 15.915Z" fill="#051328"/>
</g>
</g>
<defs>
<clipPath id="clip0_986_4808">
<rect width="40" height="40" fill="white" transform="translate(0.5)"/>
</clipPath>
<clipPath id="clip1_986_4808">
<rect width="40" height="40" fill="white" transform="translate(0.5)"/>
</clipPath>
</defs>
</svg>
