<svg width="40" height="40" viewBox="0 0 40 40" fill="none" xmlns="http://www.w3.org/2000/svg">
<g clip-path="url(#clip0_2744_41414)">
<path d="M5.78617 22.2317V36.2858C5.78617 38.0217 6.54453 39.1178 8.28281 39.1414C8.96661 39.1414 21.7241 39.9262 22.4539 40.0014C23.2192 40.0803 24.0417 40.157 24.753 39.8395C26.5091 39.203 28.3673 38.1651 30.8913 36.407C31.5496 35.9277 31.9355 35.1995 31.9495 34.412C32.0134 31.7442 32.0221 28.817 32.0362 25.8853C32.111 25.9135 31.7647 25.7837 32.7687 26.16C34.3967 26.7977 35.1578 26.0249 36.2286 24.5413C37.0104 23.4573 38.091 22.2522 38.9491 19.7249C39.4569 18.2095 38.8203 17.3747 37.7457 17.2202C35.9338 16.9637 33.4995 17.4351 31.3417 17.9382C30.9832 17.8864 30.6214 17.8303 30.2593 17.7736C33.8245 15.3377 34.6482 11.1255 33.0766 8.14106C31.4217 5.07035 27.4788 3.64682 23.8503 5.05687C23.7897 5.08298 22.0125 5.84806 22.1211 5.80135C20.0421 6.48731 18.186 8.17012 17.498 9.50811C16.4591 11.5345 16.2107 13.7245 17.2018 15.8668C17.3841 16.2605 17.6062 16.6306 17.8551 16.98C17.5806 17.0301 17.3122 17.089 17.0479 17.1535C16.5301 16.3017 15.7078 15.1157 14.8894 14.259C14.2177 13.5553 13.1122 12.6785 11.661 12.4967C10.8447 12.3954 10.0372 12.5347 9.35621 12.6856C6.33891 13.355 3.52509 14.7766 1.21911 16.7964C0.847708 17.1229 0.440154 17.5178 0.315963 18.0787C0.10723 19.0198 0.897268 19.409 1.15673 19.5368C2.17076 20.0366 1.91114 20.0966 4.35769 21.4294C4.86167 21.7039 5.37337 21.9841 5.78617 22.2317ZM16.8791 18.1003C16.8694 19.3895 17.0125 20.6723 17.3044 21.9283L8.14316 21.6142C9.04777 21.2382 9.95879 20.8653 10.857 20.5013C15.9161 18.452 15.6277 18.4486 16.8791 18.1003ZM22.5472 39.1294C21.8306 39.0564 9.06245 38.2654 8.23908 38.2654C7.31375 38.2905 6.68174 37.7331 6.68174 36.2858V22.4413L25.2106 23.0764C25.2227 36.4284 25.188 35.1456 25.2339 36.1642C25.2889 37.3544 25.3526 38.7108 24.2076 39.1034C23.7315 39.2478 23.1337 39.1903 22.5472 39.1294ZM30.3648 35.6982C28.6374 36.9012 27.2383 37.7525 25.9732 38.3666C26.1935 37.6498 26.1624 36.854 26.1289 36.1245C26.0842 35.1867 26.1177 36.3602 26.1062 23.351C27.7954 24.1382 29.3247 24.8589 31.1423 25.547C31.1277 28.5752 31.119 31.6875 31.054 34.3914C31.054 34.3913 31.054 34.3915 31.054 34.3914C31.0539 34.3922 31.054 34.3932 31.054 34.394C31.0446 34.9104 30.791 35.3881 30.3648 35.6982ZM37.6162 18.0876C38.33 18.1897 38.339 18.7339 38.0984 19.4501C37.2844 21.849 36.1838 23.0841 35.4974 24.0354C34.3479 25.6272 33.9859 25.6932 33.0964 25.3443C28.5763 23.6303 30.7852 24.4765 26.5559 22.5898C28.322 21.3668 29.7562 19.8924 31.5403 18.7927C32.847 18.487 35.7419 17.8224 37.6162 18.0876ZM18.2979 9.90187C20.2527 6.10109 26.2826 4.81776 29.4096 8.36227C32.8006 12.2155 29.6852 18.5159 24.4579 19.167C21.8586 19.4946 19.1503 17.9515 18.0181 15.505C17.1402 13.6074 17.3787 11.6942 18.2979 9.90187ZM23.7693 20.0861C25.471 20.0861 26.6742 19.462 28.109 18.8449C28.4295 18.7428 28.7443 18.6136 29.0545 18.4689C29.4247 18.5292 29.7957 18.5906 30.1636 18.648C28.553 19.799 27.2063 21.1496 25.5313 22.2104L18.2278 21.96C17.8977 20.6264 17.7431 19.2583 17.7733 17.8852C18.01 17.8375 18.254 17.7988 18.5 17.7626C19.8692 19.2061 21.8064 20.0861 23.7693 20.0861ZM1.55903 18.7539C1.14915 18.5515 1.1509 18.4471 1.19171 18.2645C1.25876 17.9595 1.5497 17.6838 1.81674 17.4493C4.00902 15.5287 6.68466 14.1771 9.55445 13.5405C10.1579 13.4067 10.8663 13.2811 11.5479 13.3664C13.5853 13.6215 15.0847 15.6865 16.1581 17.4041C15.0002 17.7751 15.7167 17.5831 10.5147 19.6915C9.09157 20.2679 7.6268 20.8638 6.22791 21.4686C5.3188 20.9252 3.85534 20.184 3.16593 19.7357C2.57935 19.3491 2.08076 19.0105 1.55903 18.7539Z" fill="#051328"/>
<path d="M16.3578 27.7443C16.7694 25.9997 14.5346 24.9241 13.3807 26.1099C13.313 26.1909 13.0999 26.3646 12.9557 26.7519C12.7318 27.3505 12.8682 28.0436 13.3037 28.5179C14.2911 29.5899 16.0459 29.0672 16.3578 27.7443ZM14.0326 26.7125C14.3008 26.4788 14.7433 26.4266 15.057 26.5998C15.3806 26.7773 15.5689 27.1936 15.4855 27.5474C15.3395 28.1671 14.4792 28.4843 13.9696 27.9315C13.6834 27.6199 13.6385 27.065 14.0326 26.7125ZM17.725 31.0536C16.5398 32.2479 17.4868 34.1315 19.0719 34.0345C19.8433 33.9909 20.5284 33.4248 20.7021 32.6883C21.1044 30.9825 18.9284 29.8412 17.725 31.0536ZM19.8299 32.4912C19.7465 32.845 19.3908 33.1386 19.0206 33.1597C18.3705 33.1985 17.9312 32.5595 18.1402 31.997C18.3371 31.4721 18.9774 31.3124 19.4013 31.5436C19.7249 31.721 19.9132 32.1373 19.8299 32.4912ZM19.3838 26.6703C19.1955 26.5148 18.9133 26.5359 18.7524 26.7208L13.8885 32.3339C13.7288 32.5185 13.7521 32.795 13.9404 32.9517C14.1331 33.1103 14.4144 33.0826 14.5719 32.9006L19.4357 27.2881C19.5955 27.1034 19.5722 26.8267 19.3838 26.6703ZM19.364 36.7601L18.7786 36.7247C18.5372 36.7053 18.3192 36.8933 18.304 37.1353C18.2889 37.377 18.4772 37.5847 18.7238 37.5995L19.308 37.6349C19.5549 37.65 19.7675 37.4665 19.7832 37.2249C19.7984 36.9832 19.6106 36.7752 19.364 36.7601ZM23.2337 36.935C22.7995 36.8965 21.5569 36.913 21.1709 36.8788C20.9254 36.8571 20.7068 37.0348 20.6846 37.2757C20.6625 37.5168 20.8438 37.7302 21.0904 37.7519C21.5291 37.7903 22.7665 37.7736 23.1521 37.8078C23.4104 37.8289 23.6169 37.6435 23.639 37.4115C23.6611 37.1704 23.4798 36.9572 23.2337 36.935ZM22.0507 0.269013C21.8472 0.129769 21.5685 0.178847 21.4274 0.377155C20.6421 1.47627 20.2613 2.81878 20.3552 4.15757C20.3727 4.40499 20.5952 4.58412 20.8327 4.56475C21.0793 4.5482 21.2653 4.33905 21.2484 4.09765C21.1686 2.95802 21.4927 1.81496 22.1609 0.879347C22.3026 0.681038 22.2536 0.407686 22.0507 0.269013ZM19.0602 5.0501C19.28 4.93911 19.3663 4.67489 19.2532 4.45974L17.4347 1.00119C17.3222 0.786327 17.0528 0.702153 16.8312 0.812007C16.6114 0.923003 16.5251 1.18722 16.6382 1.40237L18.4568 4.86093C18.5679 5.07238 18.8353 5.16214 19.0602 5.0501ZM13.6559 5.88585C14.671 5.29093 16.0639 5.32802 17.0452 5.97516C17.2518 6.11074 17.5294 6.05624 17.6667 5.85646C17.8049 5.65587 17.7507 5.38338 17.5455 5.24813C16.2674 4.40553 14.5206 4.35902 13.1965 5.13371C12.9842 5.25783 12.9148 5.52718 13.042 5.73491C13.1691 5.94292 13.4448 6.01083 13.6559 5.88585ZM10.1378 15.2666C11.4788 15.029 12.4378 15.5235 12.7953 16.1405C12.916 16.3492 13.189 16.4257 13.4058 16.3055C13.6209 16.1862 13.6961 15.9186 13.5743 15.708C13.028 14.7652 11.7202 14.0944 9.97801 14.4043C9.73488 14.4474 9.57337 14.6753 9.6171 14.9136C9.66083 15.1521 9.89813 15.3105 10.1378 15.2666ZM8.22943 15.8678C8.42709 15.7913 8.62533 15.7151 8.82531 15.6421C9.05679 15.5573 9.17456 15.3051 9.08827 15.0782C9.0014 14.8517 8.74543 14.737 8.51163 14.8209C8.30698 14.8956 8.10291 14.9741 7.90059 15.0523C7.67028 15.1413 7.55776 15.3958 7.64871 15.6209C7.74045 15.8488 8.0032 15.9556 8.22943 15.8678Z" fill="#051328"/>
<path d="M22.6492 15.9145L22.2563 12.5431L22.4149 12.1825L22.5991 12.2601C22.895 12.3848 23.1554 12.4622 23.3804 12.4922C23.611 12.5246 23.8125 12.5027 23.985 12.4264C24.1575 12.3501 24.303 12.2074 24.4215 11.9983L22.797 11.3138L23.0278 10.7892L24.6438 11.4703C24.6937 11.2516 24.6876 11.0548 24.6257 10.8797C24.5661 10.6992 24.4491 10.5365 24.2746 10.3917C24.1056 10.2493 23.8788 10.1181 23.5941 9.99814L23.4099 9.92051L23.6406 9.396L27.1072 10.8568L26.8765 11.3813L25.2939 10.7144C25.3766 10.8723 25.4286 11.04 25.4499 11.2173C25.4711 11.3947 25.4509 11.5836 25.3891 11.7843L26.4944 12.2501L26.2636 12.7746L25.1751 12.3159C24.9606 12.6983 24.6673 12.9438 24.2952 13.0526C23.9311 13.1582 23.5126 13.147 23.0395 13.0189L23.5033 16.2745L22.6492 15.9145Z" fill="#051328"/>
</g>
<defs>
<clipPath id="clip0_2744_41414">
<rect width="40" height="40" fill="white"/>
</clipPath>
</defs>
</svg>
