<svg width="35" height="40" viewBox="0 0 35 40" fill="none" xmlns="http://www.w3.org/2000/svg">
<g clip-path="url(#clip0_2744_30414)">
<path d="M0.861488 23.0741C0.885389 23.0969 0.914977 23.1094 0.942549 23.1258C1.09808 23.4433 1.38986 23.6924 1.73268 23.7804C4.51417 22.7962 7.53797 22.655 10.4162 23.2933C10.4755 23.6375 10.4731 23.7238 10.566 23.8456C9.21348 24.4778 8.83352 26.3702 10.1259 27.3803C9.86432 27.6006 9.57102 28.3645 9.70938 29.1035C9.9086 30.1754 10.7379 30.5174 10.8232 30.5954C11.3587 31.1647 11.9523 31.7022 12.4674 32.1366C13.176 32.7341 13.958 33.2969 14.8648 33.4819C15.7716 33.6668 16.8296 33.3827 17.3169 32.593C18.7727 33.1871 20.3139 31.9186 20.0318 30.3745C20.3165 30.3299 20.598 30.2727 20.8776 30.2095C22.1736 32.4956 22.7964 35.1329 22.64 37.7469C22.6331 37.8621 22.6751 37.9705 22.7467 38.0557C22.7429 38.0591 22.7394 38.0628 22.7355 38.0663C22.823 38.1272 22.5107 37.9095 23.4613 38.5728C28.1287 35.1155 30.8224 29.1641 30.351 23.3758C33.6697 18.4657 34.4292 12.2355 33.9273 6.28513C33.8037 4.81955 33.4057 2.52925 32.7283 1.44263C32.0566 -0.28109 28.7575 1.02218 26.9894 1.66594C21.7505 3.47616 16.9209 6.47319 13.6932 10.8977C8.08816 12.1276 2.77063 16.9325 0.748607 22.6042C0.689288 22.7695 0.733634 22.9538 0.861488 23.0741ZM15.2469 31.9312C14.9238 32.0113 14.5984 31.9623 14.33 31.7907L11.0893 29.7151C10.8209 29.5435 10.6395 29.2688 10.5784 28.9416C10.4796 28.4094 10.7235 28.0766 10.806 27.885C12.4005 29.0709 14.1537 30.1774 16.1237 31.2384C16.071 31.2974 15.8557 31.7774 15.2469 31.9312ZM18.5458 30.3354C18.21 30.8353 17.5938 31.023 17.1129 30.7713C14.6445 29.4818 12.5245 28.1348 10.632 26.6546C9.77126 25.982 10.344 24.5352 11.4222 24.5352C11.5909 24.5352 11.7597 24.5738 11.9175 24.6556C14.1123 25.7936 16.2755 27.1822 18.3471 28.7827C18.8055 29.1369 18.893 29.8188 18.5458 30.3354ZM23.5476 36.7828C23.5187 34.4143 22.8931 32.0663 21.7532 29.9781C24.6032 29.1232 27.1328 27.3249 29.0996 25.022C28.8479 29.3586 26.7941 33.7768 23.5476 36.7828ZM27.2785 2.50218C28.2652 2.14415 31.7225 0.831838 31.9313 1.84333C32.1957 3.1236 32.4122 4.93603 32.5257 6.81469C32.9364 13.6116 31.3281 18.7794 28.8208 22.4475C26.859 25.3171 23.1738 27.7456 19.3929 28.676C19.2691 28.4505 19.1015 28.2471 18.8884 28.0823C16.7748 26.4496 14.5661 25.0323 12.3241 23.8701C12.0134 23.7095 11.679 23.6469 11.3491 23.659C11.359 23.6051 11.3605 23.5487 11.349 23.4917C9.86658 16.197 14.7917 6.81727 27.2785 2.50218ZM12.9429 12.0037C10.9128 15.2197 10.0926 18.6228 10.2357 21.6553C7.50032 20.9618 4.60286 21.0737 1.94249 21.9828C3.95156 17.3022 8.27609 13.3831 12.9429 12.0037Z" fill="#051328"/>
<path d="M26.325 12.3373C29.112 12.3373 30.7693 9.38954 29.3993 7.21794C28.6978 6.10411 27.3502 5.41531 26.0353 5.48903C24.8236 5.56274 23.8474 6.25788 23.2865 7.44601C22.3308 9.47193 23.7079 12.3373 26.325 12.3373ZM9.76266 31.7741C9.94523 31.6117 9.96193 31.3324 9.79952 31.1498C9.63711 30.9673 9.35779 30.9517 9.17522 31.113C8.21977 31.9619 7.34609 32.9093 6.57781 33.9298C6.35746 34.2227 6.56998 34.6382 6.93085 34.6382C7.06504 34.6382 7.19808 34.5771 7.28504 34.4619C8.01762 33.4881 8.85098 32.5839 9.76266 31.7741ZM8.43862 38.3362C8.64397 38.4655 8.91767 38.4053 9.04852 38.1974L11.4778 34.3318C11.6079 34.125 11.5457 33.8515 11.339 33.7219C11.1316 33.5906 10.8586 33.6545 10.7291 33.8607L8.29982 37.7263C8.16966 37.9336 8.23186 38.2066 8.43862 38.3362ZM13.509 34.7223L12.902 38.4133C12.8623 38.6547 13.0258 38.8821 13.2666 38.9219C13.5073 38.9611 13.7353 38.7987 13.7751 38.5573L14.3821 34.8662C14.4219 34.6249 14.2583 34.3974 14.0176 34.3577C13.7699 34.3162 13.5488 34.4821 13.509 34.7223Z" fill="#051328"/>
</g>
<defs>
<clipPath id="clip0_2744_30414">
<rect width="34.7949" height="39.5129" fill="white"/>
</clipPath>
</defs>
</svg>
