<svg width="40" height="31" viewBox="0 0 40 31" fill="none" xmlns="http://www.w3.org/2000/svg">
<g clip-path="url(#clip0_2744_30454)">
<path d="M0.760908 5.89496C0.832948 6.01873 0.911292 6.14472 0.984607 6.26878C1.14927 6.54762 1.44166 6.71932 1.76043 6.74217C2.86879 6.82186 3.91546 6.97071 4.9582 7.05708C6.57255 11.5984 8.18694 16.1397 9.80129 20.6809C10.2199 21.8584 10.6741 23.0901 11.6055 23.908C12.4302 24.6323 13.5014 24.9165 14.6058 24.9893C13.1755 26.263 13.2414 28.4053 14.1302 29.4075C15.7603 31.2443 19.1523 30.1325 19.6835 27.746C19.9017 26.7676 19.57 25.7064 18.8399 25.0337C20.8803 25.0908 22.9352 25.1038 25.7118 24.9985C24.2648 26.269 24.3265 28.4252 25.2187 29.4312C25.7476 30.027 26.5714 30.2593 27.3573 30.2593C30.6882 30.2593 32.0484 26.5246 29.5866 24.7851C29.6548 24.7804 29.722 24.7771 29.7902 24.7721C30.8991 24.6914 31.8681 23.9001 32.2016 22.8019C33.4469 18.6907 34.3973 14.2239 34.9505 9.88408C35.034 9.22451 34.5418 8.63176 33.8906 8.60072C32.4666 8.53305 31.0199 8.48275 29.5714 8.44075C29.4746 7.4214 28.9344 6.44656 28.1134 5.85296C27.3549 5.30389 26.172 5.03914 25.21 5.16855C25.0534 3.69819 24.7163 2.24283 23.5635 1.33985C22.3887 0.420367 20.5715 0.45717 19.2416 1.42829C18.2491 2.15367 17.3921 3.48496 17.0126 4.8253C15.8104 3.96236 14.183 3.72655 12.8138 4.30843C11.1479 5.01733 10.0447 6.84887 10.1664 8.68071C9.15716 8.73532 8.14733 8.79572 7.13863 8.86309C6.74859 7.76731 6.34747 6.62701 5.9341 5.43685C5.87172 5.25818 5.70731 5.13709 5.52132 5.13293L0.972582 5.03677C0.460458 5.06989 0.362854 5.68616 0.760908 5.89496ZM18.8102 27.5442C18.3388 29.6644 14.5427 30.3532 14.392 27.6285C14.2748 25.5437 16.6333 24.2518 18.2295 25.6999C18.7233 26.1469 18.9565 26.8883 18.8102 27.5442ZM27.2319 29.3452C26.8908 29.3315 26.2612 29.246 25.8834 28.8198C25.2219 28.0751 25.248 26.1079 26.8046 25.3419C27.6581 24.9216 28.598 25.0702 29.318 25.7224C30.7165 26.9917 29.712 29.4144 27.2319 29.3452ZM13.1589 5.15015C14.473 4.59157 16.1632 4.99997 17.0908 6.0999C17.2523 6.29163 17.5351 6.313 17.7222 6.14917C17.9091 5.98549 17.9307 5.70041 17.7722 5.50927C18.0121 4.23734 18.8313 2.8507 19.764 2.1691C20.7639 1.43779 22.1619 1.39208 23.0178 2.06285C24.0823 2.89583 24.2418 4.44408 24.3693 5.7663C24.3965 6.05743 24.6832 6.24519 24.9535 6.15511C25.7091 5.90579 26.9177 6.10702 27.5945 6.59615C28.1775 7.01745 28.5736 7.69579 28.6723 8.41582C25.4264 8.33253 23.9316 8.44576 21.8355 8.38822C18.7069 8.30274 13.9151 8.49346 11.0584 8.63738C10.9553 7.20087 11.8531 5.70516 13.1589 5.15015ZM21.811 9.29998C24.8747 9.38276 25.9468 9.13466 33.8492 9.5113C33.9774 9.51756 34.0793 9.63556 34.062 9.76714C33.5157 14.0565 32.5765 18.4711 31.3457 22.533C31.1207 23.2744 30.47 23.8087 29.7261 23.8627C24.1979 24.2669 18.9174 24.2669 14.0323 23.8627C13.3682 23.8087 12.784 23.3819 12.5083 22.7503C10.9848 19.2362 9.35236 15.0401 7.45754 9.75527C11.3262 9.50159 17.9511 9.19043 21.811 9.29998ZM32.6418 4.51262L32.2622 6.68459C32.2136 6.96371 32.4245 7.22002 32.7036 7.22002C32.9164 7.22002 33.1053 7.06509 33.1438 6.84368L33.5233 4.67289C33.5664 4.42477 33.4044 4.18793 33.1612 4.144C32.9193 4.10067 32.6849 4.26509 32.6418 4.51262ZM34.8561 7.97863C34.9896 7.97863 35.1208 7.91868 35.2094 7.80352L36.8786 5.62977C37.0308 5.43151 36.9964 5.1448 36.8016 4.98987C36.6046 4.83376 36.3241 4.86997 36.1731 5.06823L34.5039 7.24198C34.2722 7.54396 34.4893 7.97863 34.8561 7.97863ZM38.9547 8.69451L35.8939 9.26793C35.3156 9.37524 35.4694 10.2786 36.056 10.1643L39.1168 9.59084C39.3599 9.54573 39.5209 9.3077 39.476 9.06017C39.4311 8.81264 39.199 8.64524 38.9547 8.69451Z" fill="black"/>
<path d="M16.2564 15.5998H27.3175C27.5647 15.5998 27.7652 15.3956 27.7652 15.1439C27.7652 14.8922 27.5647 14.688 27.3175 14.688H16.2564C16.0092 14.688 15.8086 14.8922 15.8086 15.1439C15.8086 15.3956 16.0092 15.5998 16.2564 15.5998ZM24.3365 19.8547H19.3907C19.1435 19.8547 18.9429 20.0589 18.9429 20.3105C18.9429 20.5622 19.1435 20.7664 19.3907 20.7664H24.3365C24.5837 20.7664 24.7842 20.5622 24.7842 20.3105C24.7842 20.0589 24.5837 19.8547 24.3365 19.8547Z" fill="black"/>
</g>
<defs>
<clipPath id="clip0_2744_30454">
<rect width="40" height="31" fill="white"/>
</clipPath>
</defs>
</svg>
