<svg width="36" height="40" viewBox="0 0 36 40" fill="none" xmlns="http://www.w3.org/2000/svg">
<path d="M17.6003 27.63C17.6017 28.0567 17.6103 28.4811 17.6153 28.9071C17.5628 28.8907 17.5102 28.8859 17.458 28.8642C17.2493 28.7781 17.1101 28.6676 17.066 28.5527C16.971 28.3039 16.6953 28.184 16.4521 28.2782C15.8281 28.5273 16.1906 29.6366 17.6272 29.9142C17.6304 30.0869 17.6294 30.2614 17.6333 30.4338C17.6392 30.697 17.8503 30.9055 18.107 30.9055C18.1107 30.9055 18.1145 30.9055 18.1182 30.9055C18.3799 30.8992 18.5873 30.6788 18.5814 30.4124C18.5776 30.2436 18.5786 30.0729 18.5754 29.9038C19.7218 29.6592 20.567 28.5047 19.8768 27.6162C19.4402 27.0536 19.0977 26.9602 18.5504 26.8423C18.5512 26.5141 18.5565 26.1876 18.5595 25.8599C18.8019 25.983 19.0101 26.1824 19.133 26.4316C19.2502 26.6703 19.5354 26.7664 19.7691 26.647C20.0033 26.5271 20.0978 26.2375 19.9805 25.9995C19.7004 25.4307 19.1672 25.0095 18.569 24.8471C18.5719 24.6689 18.5705 24.489 18.574 24.3111C18.5793 24.0448 18.3712 23.8244 18.1095 23.8187C17.8611 23.7873 17.6311 24.0254 17.6259 24.291C17.6224 24.466 17.6238 24.6432 17.6209 24.8186C16.4161 25.0572 15.7928 26.0743 16.1586 26.8241C16.4336 27.3857 17.0315 27.5129 17.6003 27.63ZM19.133 28.2141C19.1706 28.2625 19.2021 28.3196 19.1419 28.4358C19.0334 28.6451 18.8184 28.8179 18.5638 28.9138C18.5595 28.5515 18.5526 28.1904 18.551 27.8275C18.5768 27.834 18.6029 27.8373 18.6286 27.8442C18.8302 27.8976 18.962 27.9943 19.133 28.2141ZM17.1743 26.0729C17.2986 25.9525 17.4505 25.8665 17.6117 25.8082C17.609 26.0874 17.6049 26.3656 17.6039 26.6452C17.3879 26.5987 17.0701 26.5215 17.0074 26.3939C16.9669 26.3065 17.1027 26.1426 17.1743 26.0729ZM3.7869 34.6571C3.75419 34.9215 3.93844 35.1627 4.19831 35.196C4.46077 35.2289 4.69544 35.0397 4.72763 34.7777C4.87732 33.5642 4.82454 32.3438 4.57022 31.1492C4.51467 30.8898 4.26282 30.7265 4.00665 30.7799C3.75079 30.8364 3.58814 31.0933 3.64369 31.354C3.87486 32.4412 3.92332 33.5523 3.7869 34.6571ZM32.0602 22.4953C32.0195 22.7585 32.196 23.006 32.4547 23.0474C32.7241 23.088 32.9573 22.9004 32.9966 22.6461C33.167 21.5475 33.1062 20.3994 32.8213 19.3266C32.7525 19.0684 32.4935 18.9139 32.2398 18.9868C31.9871 19.0559 31.8377 19.3209 31.9059 19.5778C32.1565 20.5212 32.2096 21.5299 32.0602 22.4953ZM28.5405 5.57699L30.4914 5.33705C30.7513 5.30565 30.9365 5.06509 30.9053 4.80066C30.8741 4.53623 30.6408 4.34404 30.3778 4.37984L28.4269 4.61977C28.1671 4.65118 27.9819 4.89173 28.0131 5.15616C28.0449 5.42467 28.286 5.60987 28.5405 5.57699ZM28.4612 1.47428C28.2686 1.29464 27.9683 1.30783 27.7915 1.5038L26.6384 2.78448C26.3569 3.09741 26.5826 3.59284 26.9881 3.59284C27.3498 3.59284 27.3835 3.3132 28.4902 2.15576C28.6671 1.95916 28.6541 1.65454 28.4612 1.47428ZM24.8937 0.459903L24.8255 1.89384C24.8128 2.16015 25.0147 2.38627 25.2761 2.39883C25.5173 2.41771 25.7593 2.2196 25.7724 1.94032L25.8406 0.506382C25.8532 0.240699 25.6517 0.0145851 25.3903 0.00139518C25.1242 -0.019332 24.9063 0.193592 24.8937 0.459903Z" fill="#051328"/>
<path d="M0.196049 17.1775C0.169282 18.1002 0.144454 16.4471 0.29894 23.4011C0.224078 23.9018 0.598267 24.2064 0.70948 24.6327C0.616929 37.6384 0.636527 35.189 0.622842 36.0245C0.545756 36.7167 0.577021 37.645 0.79337 38.2355C0.99495 38.7858 1.37401 39.1401 1.97474 39.3997C2.95823 39.8247 3.29759 39.6959 33.1027 39.9626C34.031 39.9709 35.0379 40.3162 35.3761 38.7372C35.3978 38.6985 35.4253 38.6658 35.4425 38.6227C35.5469 38.3596 35.4626 37.9749 35.4626 37.8276C35.5814 23.9032 35.6121 24.9968 35.5638 24.8023C35.6777 24.7127 35.7594 24.5761 35.8056 24.4416C35.8514 24.3073 35.8153 24.3267 35.8401 23.7055C35.816 18.1007 35.6443 18.6972 35.6319 17.3999C35.625 16.6864 35.6712 16.4301 35.5405 16.1066C35.5166 15.9209 35.3927 15.7711 35.2197 15.7137C34.9821 15.5676 34.7005 15.5625 34.4401 15.566C34.0765 15.5687 33.3641 15.5191 32.308 15.4926C30.7533 15.4506 29.1564 15.4442 27.5578 15.4538L27.5838 14.1497C27.589 13.883 27.3763 13.6605 27.1049 13.6579L26.5767 13.6541C26.569 13.3806 26.5619 13.1069 26.5528 12.8338C26.4717 10.4739 26.5254 10.059 26.5258 9.93204C26.5512 9.26061 26.5898 8.24498 25.5506 7.85996C24.5269 7.48085 23.5095 7.62628 22.5276 7.63887C13.2842 7.75776 10.9004 7.40439 9.97687 8.88897C8.7529 10.0965 9.93228 11.674 9.70046 13.0886C9.21809 13.005 8.75502 13.3845 8.56851 13.8283C8.38197 14.2785 8.40128 14.7866 8.43343 15.2754C6.86239 15.3266 6.25687 15.3597 4.83479 15.4177C4.08687 15.3923 3.41357 15.396 2.2652 15.4923C1.28265 15.5085 0.740924 15.4581 0.422242 15.7273C0.0121737 16.0737 0.209357 16.7202 0.196049 17.1775ZM13.1579 14.4669L13.1429 15.2231L9.80139 15.2476L9.81741 14.4424L13.1579 14.4669ZM12.3176 26.9993C12.6564 31.1781 17.9936 33.6622 21.4485 31.3827C22.8513 30.456 23.7474 28.8005 23.8872 27.077L33.1855 27.138C33.4063 27.138 33.53 27.0005 33.6204 26.8912C33.6891 26.8343 34.3533 26.1624 34.6123 25.8838C34.5547 35.2499 34.438 38.1848 34.5463 38.266C34.3364 38.781 8.03962 38.2945 4.63843 38.1894C3.80555 38.1667 2.48865 38.3167 2.27333 37.6322C2.10947 37.1134 2.24313 36.4597 2.23156 35.8095L2.05216 25.835C2.27898 26.1508 2.506 26.4662 2.73089 26.7832C2.86468 26.9716 3.13068 27.0369 3.33575 26.9396L12.3176 26.9993ZM14.7828 23.0806C17.3548 20.6715 22.0192 22.1683 22.8215 25.5515C23.2694 27.4389 22.4682 29.5524 20.9165 30.5775C17.9631 32.5307 13.2018 30.1844 13.2606 26.5363C13.2811 25.2638 13.8642 23.9398 14.7828 23.0806ZM34.608 16.5313C34.9859 21.7092 34.8641 24.0133 34.8641 24.142C34.7984 24.2184 34.2417 24.9092 33.3701 25.7807C33.3404 25.8111 33.0152 26.1408 32.9801 26.172L23.8806 26.1122C23.4706 21.4355 17.4146 19.2971 14.1236 22.3758C13.1377 23.2984 12.4774 24.6655 12.3301 26.0346L3.33984 25.9754C1.43406 23.2998 1.53426 23.6155 1.57802 23.068C1.9021 16.2104 1.70331 17.0669 1.86475 16.6005C2.10646 16.286 28.4676 16.4435 34.608 16.5313ZM14.1023 15.5082C14.0893 14.1268 14.2359 13.9001 13.9958 13.6516C13.7895 13.4402 13.5392 13.5255 13.2992 13.5033C13.2992 12.9728 13.2992 11.8829 13.2992 11.3177L23.2342 11.1125L23.3129 13.6308L22.7949 13.6271C22.5323 13.6271 22.3178 13.8997 22.3125 14.1623L22.285 15.5366C19.6767 15.5971 21.5085 15.5373 14.1023 15.5082ZM26.5942 15.3757L23.2527 15.3996L23.2688 14.595L26.6093 14.6189L26.5942 15.3757ZM20.1854 8.61681C24.1113 8.61053 24.3901 8.45832 25.2152 8.76442C25.5487 8.88815 25.5908 9.12934 25.5616 9.89561C25.5649 11.0661 25.487 9.31191 25.6112 13.6472L24.552 13.6397C24.4491 10.6141 24.6174 10.799 24.4273 10.4081C24.0378 9.60571 23.0161 9.83054 21.565 9.80642C19.7625 9.77556 17.903 9.74427 15.9414 9.7857C15.0172 9.80777 12.5901 9.65485 12.0695 10.5036C11.89 10.7968 11.9451 10.9221 12.0199 13.494L10.8535 13.4855C10.7916 11.1534 10.8312 11.4576 10.7234 10.7347C10.3906 8.51613 10.8123 8.66428 20.1854 8.61681Z" fill="#051328"/>
<ellipse cx="18.1325" cy="26.5286" rx="4.97238" ry="4.71514" fill="white"/>
<path d="M18.5028 26.9939C18.7248 26.8082 18.8517 26.5499 18.8834 26.2191L18.5028 26.9939ZM18.5028 26.9939C18.2975 27.165 18.0276 27.2776 17.6932 27.3316L18.5028 26.9939ZM18.1889 29.5095L18.2051 29.5378H18.2377H18.931H19.0309L18.9791 29.4524L17.7246 27.3834C18.0562 27.3268 18.3287 27.2123 18.5388 27.0372L18.5389 27.0371C18.7622 26.8502 18.893 26.5947 18.9338 26.2754H19.767H19.8233V26.2191V25.7841V25.7278H19.767H18.9191C18.8974 25.5832 18.8545 25.4541 18.7894 25.3414C18.7428 25.2605 18.6879 25.1866 18.6249 25.1199H19.767H19.8233V25.0637V24.6287V24.5724H19.767H16.9531H16.8968V24.6287V25.0637V25.1199H16.9531H17.1027C17.3301 25.1199 17.5188 25.1445 17.6703 25.1921L17.6703 25.1921L17.6707 25.1922C17.8257 25.2396 17.9452 25.3138 18.0322 25.4134L18.0322 25.4134L18.033 25.4143C18.1073 25.4956 18.1617 25.5995 18.1948 25.7278H16.9531H16.8968V25.7841V26.2191V26.2754H16.9531H18.2077C18.1848 26.4177 18.1347 26.5278 18.0602 26.6094C17.9738 26.704 17.8526 26.7741 17.6929 26.8173L17.6925 26.8174C17.5359 26.8609 17.3397 26.8833 17.1027 26.8833H16.9531H16.8968V26.9396V27.2386V27.2536L16.9043 27.2666L18.1889 29.5095Z" fill="#051328" stroke="#051328" stroke-width="0.112555"/>
</svg>
