<svg width="40" height="40" viewBox="0 0 40 40" fill="none" xmlns="http://www.w3.org/2000/svg">
<g id="home-loan 2">
<g id="Group 36">
<path id="Vector" d="M37.7981 20.3008C34.0537 17.7893 30.203 15.2186 26.5675 12.6216C26.5519 12.6103 26.5337 12.6079 26.5173 12.5989C27.3441 10.5984 27.167 8.3489 26.0982 6.52296C25.9728 6.30957 25.6994 6.23669 25.4854 6.36262C25.272 6.48739 25.2003 6.762 25.3251 6.9754C27.6402 10.9302 24.7825 15.9513 20.178 15.9513C16.8897 15.9513 14.2147 13.2763 14.2147 9.98855C14.2147 5.24865 19.4742 2.44973 23.3719 4.94992C23.5812 5.08402 23.8581 5.02221 23.9905 4.81523C24.124 4.60709 24.064 4.33015 23.8558 4.19663C21.7126 2.82079 18.8371 2.71037 16.4993 4.20479C13.6149 5.43682 12.2699 8.52103 12.8329 11.5595C6.52287 16.3782 6.0929 16.5753 2.00796 20.4034C1.95621 20.9733 2.14848 21.8179 2.82706 21.8059C3.20382 21.7992 3.58097 21.8298 3.9575 21.8083C3.97848 22.7057 4.05651 38.1856 4.06788 38.2368C4.22046 38.9617 4.79974 39.1434 5.51779 39.1C6.01228 39.063 23.7734 39.1939 23.8341 39.1944C34.3596 39.2581 34.5796 39.2809 34.9099 39.1028C34.9248 39.1008 34.9397 39.1038 34.9546 39.1013C35.0528 39.0846 35.2203 39.0113 35.2235 38.8921C35.2239 38.8746 35.3378 21.5678 35.338 21.55C35.9179 21.55 36.4396 21.5029 37.0173 21.4523C37.2796 21.4293 37.5553 21.3939 37.766 21.236C37.9316 21.1119 38.03 20.8884 37.9918 20.6944C37.9992 20.5402 37.9305 20.3897 37.7981 20.3008ZM15.7685 37.4247L15.7746 38.0235C14.8633 38.0205 13.959 38.0184 13.0573 38.0165V32.1586C14.0122 32.1011 14.7572 32.079 15.7702 32.1237C15.8007 33.2205 15.7241 33.4933 15.7685 37.4247ZM18.6206 38.0349C17.9685 38.0319 17.318 38.0292 16.6702 38.0269L16.664 37.4147C16.6168 33.2561 16.7178 32.9588 16.6489 31.6741C16.6366 31.4473 16.4565 31.2654 16.2297 31.2508C14.277 31.1318 13.1317 31.2782 12.6096 31.2782C12.3624 31.2782 12.1618 31.4788 12.1618 31.726V38.0145C11.5773 38.0135 10.9996 38.0129 10.4197 38.0122V23.7092C11.3232 23.6831 14.4515 23.4231 18.5863 23.6294C18.7193 26.5661 18.4733 25.7608 18.6206 38.0349ZM26.1187 13.4005C29.3719 15.7226 32.7505 17.9933 36.0285 20.1923C35.9681 20.1911 34.32 20.1575 34.4241 20.1596C34.4184 20.1588 34.4193 20.1591 34.4193 20.1591C34.1703 20.1603 33.9789 20.3859 33.9745 20.5964C33.9716 20.7329 34.0614 38.1042 34.0619 38.1762C29.143 38.104 24.2756 38.0623 19.5164 38.0386L19.4953 36.2038C19.3442 23.6855 19.8708 22.8035 19.0376 22.7565C14.2981 22.4897 11.2214 22.8207 9.97189 22.8207C9.72474 22.8207 9.52411 23.0213 9.52411 23.2684V38.011C8.20433 38.0097 6.89336 38.0089 5.59967 38.0089C5.63811 19.3418 5.65642 20.7276 5.62263 20.5774C5.58412 20.4039 5.45609 20.2733 5.26756 20.2386C5.24303 20.2344 5.22077 20.2239 5.19504 20.2238C3.6354 20.4204 4.17333 20.3528 4.05695 20.3672C7.79943 17.5164 9.48701 16.0142 13.9038 12.7485C16.1729 17.8851 23.302 18.285 26.1187 13.4005Z" fill="#051328"/>
<path id="Vector_2" d="M29.5397 4.76801L27.6436 4.99714C27.3982 5.0263 27.2233 5.2496 27.253 5.49506L29.5397 4.76801ZM29.5397 4.76801C29.7793 4.73652 30.0078 4.9126 30.0376 5.15865L29.5397 4.76801ZM23.1683 32.1552L23.1683 32.1548L23.1545 32.1557C23.1274 32.1574 23.0827 32.1454 23.0417 32.1071C23.0033 32.0713 22.9799 32.0228 22.9799 31.968C22.9822 29.0329 22.9612 26.0814 22.9175 23.1946C22.916 23.0951 22.9918 23.0126 23.0901 23.0054L23.0902 23.0054C25.5002 22.8261 27.9536 22.8063 30.594 22.9462L30.5941 22.9463C30.6909 22.9513 30.7683 23.0309 30.7705 23.1285C30.834 26.0673 30.8123 28.9174 30.7899 31.8624L30.7886 32.0413C30.7886 32.0413 30.7885 32.0414 30.7885 32.0415C30.7875 32.1388 30.7134 32.2177 30.6188 32.2261C30.6 32.2235 30.5815 32.2218 30.5669 32.2205C30.5338 32.2175 30.4917 32.2145 30.4417 32.2116C30.3414 32.2057 30.2033 32.1995 30.0292 32.1933C29.6808 32.1809 29.1841 32.1685 28.5499 32.1588C27.2812 32.1393 25.4596 32.1306 23.1683 32.1552ZM27.5123 5.46381L27.5123 5.46365C27.4999 5.36114 27.573 5.26857 27.6744 5.25652L27.675 5.25646L29.571 5.02732L29.571 5.02734L29.5737 5.02699C29.668 5.01459 29.7658 5.08696 29.7783 5.18998L29.7783 5.19006C29.7907 5.29257 29.7176 5.38513 29.6161 5.39718L29.6157 5.39723C28.9139 5.48173 28.4691 5.53561 28.1861 5.56989C28.0702 5.58392 27.9815 5.59467 27.9133 5.6029C27.7949 5.61718 27.74 5.62365 27.7122 5.62661C27.7018 5.62771 27.698 5.62807 27.6967 5.62814C27.6955 5.62821 27.6965 5.62804 27.6967 5.628C27.6967 5.628 27.6967 5.62799 27.6967 5.62799C27.604 5.62799 27.5237 5.55848 27.5123 5.46381ZM27.2259 2.19357L27.226 2.19345C27.2964 2.11642 27.4141 2.11207 27.4889 2.1809L27.4896 2.18148C27.5649 2.25027 27.5708 2.36675 27.5036 2.44277C27.1244 2.83358 26.8672 3.12939 26.6871 3.33656C26.6191 3.41475 26.562 3.48032 26.5136 3.53359C26.4202 3.63637 26.3679 3.68309 26.33 3.70691C26.3044 3.72302 26.2848 3.72961 26.2437 3.72961C26.0821 3.72961 25.9978 3.53564 26.106 3.41722L27.2259 2.19357ZM24.8547 1.04226L24.8547 1.04255L24.7882 2.41208C24.7882 2.41209 24.7882 2.4121 24.7882 2.41211C24.7828 2.52354 24.6814 2.59671 24.602 2.59009L24.602 2.58992L24.5926 2.58948C24.4899 2.58463 24.4105 2.49697 24.4156 2.39458L24.4156 2.39429L24.4821 1.02499C24.4821 1.02495 24.4821 1.02491 24.4821 1.02487C24.4869 0.929365 24.5906 0.842802 24.6763 0.847295L24.6776 0.847358C24.7804 0.852206 24.8598 0.939869 24.8547 1.04226Z" stroke="black" stroke-width="0.522404"/>
</g>
<path id="&#226;&#130;&#185;" d="M20.3691 14.172L18.543 10.9836V10.5585H18.7555C19.0969 10.5585 19.3835 10.5263 19.6154 10.4618C19.8538 10.3974 20.0406 10.2912 20.1758 10.143C20.3111 9.99485 20.3916 9.79196 20.4174 9.53431H18.543V8.91595H20.4077C20.3626 8.67762 20.2724 8.48439 20.1372 8.33624C20.0019 8.18165 19.8183 8.06893 19.5864 7.99808C19.361 7.92722 19.084 7.8918 18.7555 7.8918H18.543V7.27344H22.543V7.8918H20.7169C20.865 8.01418 20.9874 8.15911 21.084 8.32658C21.1806 8.49405 21.2418 8.69051 21.2676 8.91595H22.543V9.53431H21.2869C21.2418 10.0045 21.0615 10.3717 20.7459 10.6358C20.4367 10.8934 20.0245 11.0577 19.5092 11.1285L21.3546 14.172H20.3691Z" fill="black"/>
</g>
</svg>
