<svg width="40" height="40" viewBox="0 0 40 40" fill="none" xmlns="http://www.w3.org/2000/svg">
<path d="M36.5455 18.935L34.5273 20.9371C34.4308 21.0336 34.3021 21.0979 34.1736 21.122V23.7271H31.7614V21.122C31.89 21.0979 32.0186 21.0336 32.1151 20.9371L34.1333 18.935C34.4067 18.6616 34.4147 18.2113 34.1414 17.9379L19.3868 3.01458C19.2985 2.9181 19.1938 2.83771 19.0894 2.76533C19.4351 2.51607 19.8613 2.37939 20.2875 2.37939C20.8583 2.37939 21.405 2.61255 21.799 3.01458L36.5535 17.9379C36.8269 18.2113 36.8188 18.6616 36.5455 18.935Z" fill="#051328"/>
<path d="M34.1739 24.1297H31.7617C31.5395 24.1297 31.3597 23.9498 31.3597 23.7276V21.1223C31.3597 20.9291 31.4971 20.7634 31.6863 20.7273C31.7405 20.7171 31.7939 20.6888 31.8308 20.6527L33.8496 18.6496C33.9674 18.5327 33.9713 18.3363 33.8575 18.2225L19.1009 3.29715C19.0209 3.21 18.9258 3.14168 18.8607 3.09614C18.7531 3.02154 18.6887 2.89984 18.6871 2.76949C18.6864 2.63836 18.7484 2.51508 18.8544 2.43892C19.8139 1.75107 21.2587 1.88848 22.0863 2.73337L36.8397 17.6556C37.2676 18.0835 37.2637 18.7855 36.8295 19.2197C36.8295 19.2205 36.8287 19.2205 36.8287 19.2213L34.8107 21.2228C34.7416 21.2911 34.6623 21.3508 34.5759 21.3987V23.7276C34.5759 23.9498 34.3961 24.1297 34.1739 24.1297ZM32.1638 23.3256H33.7719V21.1223C33.7719 20.9291 33.9093 20.7634 34.0985 20.7273C34.1527 20.7171 34.2061 20.6888 34.243 20.6527L36.261 18.6512C36.3796 18.5327 36.3835 18.3363 36.2696 18.2225L21.5131 3.29715C21.075 2.85037 20.3911 2.67134 19.7966 2.85743L34.4275 17.6556C34.8555 18.0835 34.8515 18.7855 34.4173 19.2197L32.3985 21.2228C32.3294 21.2911 32.2501 21.3508 32.1638 21.3987V23.3256ZM39.2712 25.7536V34.9762C39.2712 36.0938 38.3626 37.0024 37.245 37.0024H34.8328C35.9505 37.0024 36.859 36.0938 36.859 34.9762V25.7536C36.859 24.636 35.9505 23.7274 34.8328 23.7274H37.245C38.3626 23.7274 39.2712 24.636 39.2712 25.7536Z" fill="#051328"/>
<path d="M37.2448 37.4052H34.8326C34.6104 37.4052 34.4306 37.2253 34.4306 37.0031C34.4306 36.7809 34.6104 36.6011 34.8326 36.6011C35.7285 36.6011 36.4572 35.8724 36.4572 34.9765V25.7542C36.4572 24.859 35.7285 24.1303 34.8326 24.1303C34.6104 24.1303 34.4306 23.9505 34.4306 23.7283C34.4306 23.5061 34.6104 23.3263 34.8326 23.3263H37.2448C38.5835 23.3263 39.6734 24.4154 39.6734 25.7542V34.9765C39.6734 36.3153 38.5835 37.4052 37.2448 37.4052ZM36.6362 36.6011H37.2448C38.1407 36.6011 38.8694 35.8724 38.8694 34.9765V25.7542C38.8694 24.859 38.1407 24.1303 37.2448 24.1303H36.637C37.0249 24.5606 37.2612 25.1307 37.2612 25.7542V34.9765C37.2612 35.6007 37.0249 36.1708 36.6362 36.6011ZM26.4222 34.7998H3.98076C3.75855 34.7998 3.57874 34.62 3.57874 34.3978V21.123C3.57874 20.9008 3.75855 20.7209 3.98076 20.7209C4.20298 20.7209 4.38279 20.9008 4.38279 21.123V33.9958H26.4222C26.6444 33.9958 26.8242 34.1756 26.8242 34.3978C26.8242 34.62 26.6444 34.7998 26.4222 34.7998ZM31.7608 24.1303C31.5386 24.1303 31.3588 23.9505 31.3588 23.7283V21.123C31.3588 20.9008 31.5386 20.7209 31.7608 20.7209C31.983 20.7209 32.1629 20.9008 32.1629 21.123V23.7283C32.1629 23.9505 31.983 24.1303 31.7608 24.1303Z" fill="#051328"/>
<path d="M31.6188 21.5432C31.3204 21.5432 31.0393 21.4262 30.8273 21.2142L18.0943 8.32489C17.9757 8.20868 17.7755 8.20789 17.6569 8.32646L4.91921 21.2126C4.49598 21.6366 3.76731 21.6382 3.34879 21.2212L1.32922 19.2229C0.893424 18.7871 0.890284 18.0835 1.3198 17.6524L16.0795 2.73024C17.0178 1.77699 18.7366 1.77856 19.6734 2.73103L34.4268 17.654C34.8555 18.0835 34.8523 18.7871 34.4181 19.2213C34.4173 19.2221 34.4173 19.2221 34.4165 19.2229L32.3946 21.2228C32.1897 21.4285 31.9125 21.5432 31.6188 21.5432ZM17.8768 7.43288C18.1618 7.43288 18.4469 7.54124 18.6644 7.75718L31.3974 20.6472C31.4563 20.7061 31.5356 20.7391 31.6188 20.7391C31.6981 20.7391 31.7719 20.7085 31.8269 20.6527L33.8496 18.6528C33.9705 18.5319 33.9737 18.3379 33.8559 18.2209L19.101 3.29559C18.4618 2.64544 17.291 2.64622 16.6519 3.29481L1.89065 18.2194C1.77208 18.3379 1.77522 18.5319 1.89614 18.6528L3.9165 20.6512C4.03428 20.7689 4.23215 20.7642 4.34836 20.6457L17.0869 7.75953C17.3052 7.54124 17.591 7.43288 17.8768 7.43288ZM28.4489 37.4045H3.59534C2.65544 37.4045 1.89065 36.6397 1.89065 35.6998C1.89065 34.7599 2.65544 33.9951 3.59534 33.9951H26.4223C26.6445 33.9951 26.8243 34.1749 26.8243 34.3971C26.8243 34.6193 26.6445 34.7991 26.4223 34.7991H3.59534C3.09045 34.7991 2.6947 35.1949 2.6947 35.6998C2.6947 36.2047 3.09045 36.6004 3.59534 36.6004H28.4489C28.6711 36.6004 28.851 36.7802 28.851 37.0025C28.851 37.2247 28.6711 37.4045 28.4489 37.4045Z" fill="#051328"/>
<path d="M21.8814 34.7976H13.8707C13.6484 34.7976 13.4686 34.6178 13.4686 34.3956V24.2286C13.4686 23.4277 14.1204 22.776 14.9221 22.776H20.8245C21.6294 22.776 22.2834 23.4277 22.2834 24.2286V34.3956C22.2834 34.6178 22.1036 34.7976 21.8814 34.7976ZM14.2727 33.9936H21.4794V24.2286C21.4794 23.8714 21.1857 23.5801 20.8245 23.5801H14.9221C14.5577 23.5801 14.2727 23.8651 14.2727 24.2286V33.9936Z" fill="#051328"/>
<path d="M34.8327 37.4048H28.4489C27.1101 37.4048 26.0203 36.3149 26.0203 34.9761V25.7538C26.0203 24.415 27.1101 23.3259 28.4489 23.3259H34.8327C36.1715 23.3259 37.2614 24.415 37.2614 25.7538V34.9761C37.2614 36.3149 36.1715 37.4048 34.8327 37.4048ZM28.4489 24.13C27.553 24.13 26.8243 24.8587 26.8243 25.7538V34.9761C26.8243 35.8721 27.553 36.6007 28.4489 36.6007H34.8327C35.7286 36.6007 36.4573 35.8721 36.4573 34.9761V25.7538C36.4573 24.8587 35.7286 24.13 34.8327 24.13H28.4489Z" fill="#051328"/>
<path d="M34.2619 29.1886H29.0198C28.4654 29.1886 28.0147 28.741 28.0147 28.1914V26.4145C28.0147 25.8648 28.4654 25.4172 29.0198 25.4172H34.2619C34.8162 25.4172 35.2669 25.8648 35.2669 26.4145V28.1914C35.2669 28.741 34.8162 29.1886 34.2619 29.1886ZM29.0198 26.2213C28.9106 26.2213 28.8188 26.31 28.8188 26.4145V28.1914C28.8188 28.2958 28.9106 28.3846 29.0198 28.3846H34.2619C34.371 28.3846 34.4629 28.2958 34.4629 28.1914V26.4145C34.4629 26.31 34.371 26.2213 34.2619 26.2213H29.0198Z" fill="#051328"/>
<path d="M29.5678 31.1855H28.9302C28.708 31.1855 28.5282 31.0057 28.5282 30.7835C28.5282 30.5613 28.708 30.3815 28.9302 30.3815H29.5678C29.79 30.3815 29.9699 30.5613 29.9699 30.7835C29.9699 31.0057 29.79 31.1855 29.5678 31.1855ZM31.9596 31.1855H31.322C31.0998 31.1855 30.92 31.0057 30.92 30.7835C30.92 30.5613 31.0998 30.3815 31.322 30.3815H31.9596C32.1818 30.3815 32.3616 30.5613 32.3616 30.7835C32.3616 31.0057 32.1818 31.1855 31.9596 31.1855ZM34.3513 31.1855H33.7137C33.4915 31.1855 33.3117 31.0057 33.3117 30.7835C33.3117 30.5613 33.4915 30.3815 33.7137 30.3815H34.3513C34.5736 30.3815 34.7534 30.5613 34.7534 30.7835C34.7534 31.0057 34.5736 31.1855 34.3513 31.1855Z" fill="#051328"/>
<path d="M29.5678 33.1952H28.9302C28.708 33.1952 28.5282 33.0154 28.5282 32.7931C28.5282 32.5709 28.708 32.3911 28.9302 32.3911H29.5678C29.79 32.3911 29.9699 32.5709 29.9699 32.7931C29.9699 33.0154 29.79 33.1952 29.5678 33.1952ZM31.9596 33.1952H31.322C31.0998 33.1952 30.92 33.0154 30.92 32.7931C30.92 32.5709 31.0998 32.3911 31.322 32.3911H31.9596C32.1818 32.3911 32.3616 32.5709 32.3616 32.7931C32.3616 33.0154 32.1818 33.1952 31.9596 33.1952ZM34.3513 33.1952H33.7137C33.4915 33.1952 33.3117 33.0154 33.3117 32.7931C33.3117 32.5709 33.4915 32.3911 33.7137 32.3911H34.3513C34.5736 32.3911 34.7534 32.5709 34.7534 32.7931C34.7534 33.0154 34.5736 33.1952 34.3513 33.1952Z" fill="#051328"/>
<path d="M29.5678 35.2054H28.9302C28.708 35.2054 28.5282 35.0256 28.5282 34.8034C28.5282 34.5812 28.708 34.4014 28.9302 34.4014H29.5678C29.79 34.4014 29.9699 34.5812 29.9699 34.8034C29.9699 35.0256 29.79 35.2054 29.5678 35.2054ZM31.9596 35.2054H31.322C31.0998 35.2054 30.92 35.0256 30.92 34.8034C30.92 34.5812 31.0998 34.4014 31.322 34.4014H31.9596C32.1818 34.4014 32.3616 34.5812 32.3616 34.8034C32.3616 35.0256 32.1818 35.2054 31.9596 35.2054ZM34.3513 35.2054H33.7137C33.4915 35.2054 33.3117 35.0256 33.3117 34.8034C33.3117 34.5812 33.4915 34.4014 33.7137 34.4014H34.3513C34.5736 34.4014 34.7534 34.5812 34.7534 34.8034C34.7534 35.0256 34.5736 35.2054 34.3513 35.2054Z" fill="#051328"/>
<path d="M17.8729 19.8551C15.9366 19.8551 14.3615 18.28 14.3615 16.3436C14.3615 14.4073 15.9366 12.8322 17.8729 12.8322C19.8085 12.8322 21.3836 14.4073 21.3836 16.3436C21.3836 18.28 19.8085 19.8551 17.8729 19.8551ZM17.8729 13.6362C16.3802 13.6362 15.1655 14.8509 15.1655 16.3436C15.1655 17.8363 16.3802 19.051 17.8729 19.051C19.3656 19.051 20.5796 17.8363 20.5796 16.3436C20.5796 14.8509 19.3656 13.6362 17.8729 13.6362Z" fill="#051328"/>
</svg>
