<svg width="40" height="40" viewBox="0 0 40 40" fill="none" xmlns="http://www.w3.org/2000/svg">
<path d="M38.4846 25.3133V35.8593C38.4846 37.3792 37.2593 38.6121 35.7318 38.6121H33.4054C34.933 38.6121 36.1583 37.3792 36.1583 35.8593V25.3133C36.1583 23.7935 34.933 22.5605 33.4054 22.5605H35.7318C37.2593 22.5605 38.4846 23.7935 38.4846 25.3133Z" fill="#051328"/>
<path d="M35.7319 38.9999H33.4056C33.1913 38.9999 33.0179 38.8265 33.0179 38.6122C33.0179 38.3979 33.1913 38.2245 33.4056 38.2245C34.7096 38.2245 35.7705 37.1635 35.7705 35.8591V25.3135C35.7705 24.0091 34.7096 22.9482 33.4056 22.9482C33.1913 22.9482 33.0179 22.7748 33.0179 22.5604C33.0179 22.3461 33.1913 22.1727 33.4056 22.1727H35.7319C37.4638 22.1727 38.8723 23.5816 38.8723 25.3135V35.8591C38.8723 37.591 37.4638 38.9999 35.7319 38.9999ZM35.4692 38.2245H35.7319C37.0359 38.2245 38.0969 37.1635 38.0969 35.8591V25.3135C38.0969 24.0091 37.0359 22.9482 35.7319 22.9482H35.4692C36.1287 23.5244 36.546 24.3711 36.546 25.3135V35.8591C36.546 36.8016 36.1287 37.6482 35.4692 38.2245Z" fill="#051328"/>
<path d="M33.9016 10.1228V22.6074C33.7388 22.5763 33.576 22.5609 33.4054 22.5609H31.5753V9.29308L23.6814 1.39136H25.1779C25.7052 1.39136 26.2171 1.60074 26.597 1.9807L33.3122 8.70374C33.6923 9.08374 33.9016 9.59551 33.9016 10.1228Z" fill="#051328"/>
<path d="M33.9016 22.9949C33.8774 22.9949 33.8532 22.9926 33.8289 22.9881C33.6903 22.9616 33.551 22.9483 33.4056 22.9483H31.5753C31.361 22.9483 31.1876 22.7749 31.1876 22.5606V9.45347L23.4075 1.66539C23.2961 1.55445 23.2636 1.38747 23.3234 1.24284C23.3832 1.09782 23.5248 1.00354 23.6816 1.00354H25.1779C25.8072 1.00354 26.4244 1.2595 26.8712 1.70628L33.5866 8.42927C34.0334 8.87568 34.2893 9.49285 34.2893 10.1225V22.6072C34.2893 22.7226 34.2378 22.8321 34.1485 22.9059C34.0788 22.9638 33.991 22.9949 33.9016 22.9949ZM31.963 22.1729H33.4056C33.442 22.1729 33.4783 22.1736 33.5139 22.1748V10.1225C33.5139 9.69731 33.3405 9.27968 33.0383 8.97753L26.3229 2.25454C26.0208 1.95239 25.6028 1.77898 25.1779 1.77898H24.6168L31.8494 9.0188C31.9221 9.0915 31.963 9.19032 31.963 9.29293V22.1729Z" fill="#051328"/>
<path d="M28.4274 39H4.53567C2.58647 39 1 37.4139 1 35.464V4.53958C1 2.58963 2.58647 1.00354 4.53567 1.00354H23.6816C23.7846 1.00354 23.883 1.04443 23.9557 1.11713L31.8494 9.0188C31.9221 9.0915 31.963 9.19032 31.963 9.29293V22.5606C31.963 22.7749 31.7896 22.9483 31.5753 22.9483C31.361 22.9483 31.1876 22.7749 31.1876 22.5606V9.45347L23.521 1.77898H4.53567C3.01357 1.77898 1.77544 3.01748 1.77544 4.53958V35.464C1.77544 36.9861 3.01357 38.2246 4.53567 38.2246H28.4274C28.6417 38.2246 28.8151 38.398 28.8151 38.6123C28.8151 38.8266 28.6417 39 28.4274 39Z" fill="#051328"/>
<path d="M19.1743 35.8946H4.53794C4.32363 35.8946 4.15022 35.7212 4.15022 35.5069C4.15022 35.2925 4.32363 35.1191 4.53794 35.1191H19.1743C19.3886 35.1191 19.5621 35.2925 19.5621 35.5069C19.5621 35.7212 19.3886 35.8946 19.1743 35.8946ZM22.9061 32.2843H4.53794C4.32363 32.2843 4.15022 32.1109 4.15022 31.8966C4.15022 31.6823 4.32363 31.5089 4.53794 31.5089H22.9061C23.1204 31.5089 23.2939 31.6823 23.2939 31.8966C23.2939 32.1109 23.1204 32.2843 22.9061 32.2843ZM9.86908 28.6737H4.53794C4.32363 28.6737 4.15022 28.5003 4.15022 28.286C4.15022 28.0717 4.32363 27.8982 4.53794 27.8982H9.86908C10.0834 27.8982 10.2568 28.0717 10.2568 28.286C10.2568 28.5003 10.0834 28.6737 9.86908 28.6737ZM22.9061 28.6737H11.4752C11.2609 28.6737 11.0875 28.5003 11.0875 28.286C11.0875 28.0717 11.2609 27.8982 11.4752 27.8982H22.9061C23.1204 27.8982 23.2939 28.0717 23.2939 28.286C23.2939 28.5003 23.1204 28.6737 22.9061 28.6737ZM21.0395 25.0634H4.53794C4.32363 25.0634 4.15022 24.89 4.15022 24.6757C4.15022 24.4614 4.32363 24.288 4.53794 24.288H21.0395C21.2538 24.288 21.4272 24.4614 21.4272 24.6757C21.4272 24.89 21.2538 25.0634 21.0395 25.0634ZM9.29356 21.4532H4.53794C4.32363 21.4532 4.15022 21.2797 4.15022 21.0654C4.15022 20.8511 4.32363 20.6777 4.53794 20.6777H9.29356C9.50786 20.6777 9.68128 20.8511 9.68128 21.0654C9.68128 21.2797 9.50786 21.4532 9.29356 21.4532ZM23.1 21.4532H10.8384C10.6241 21.4532 10.4507 21.2797 10.4507 21.0654C10.4507 20.8511 10.6241 20.6777 10.8384 20.6777H23.1C23.3143 20.6777 23.4877 20.8511 23.4877 21.0654C23.4877 21.2797 23.3143 21.4532 23.1 21.4532ZM28.4289 21.4532H24.7963C24.582 21.4532 24.4086 21.2797 24.4086 21.0654C24.4086 20.8511 24.582 20.6777 24.7963 20.6777H28.4289C28.6432 20.6777 28.8166 20.8511 28.8166 21.0654C28.8166 21.2797 28.6432 21.4532 28.4289 21.4532ZM31.5776 9.67695H25.2809C24.1859 9.67695 23.2954 8.7864 23.2954 7.69178V1.38755C23.2954 1.2308 23.39 1.08919 23.5347 1.02937C23.6786 0.969543 23.8467 1.00286 23.9572 1.11342L31.8517 9.0151C31.963 9.12604 31.9956 9.29301 31.9358 9.43765C31.8759 9.58267 31.7343 9.67695 31.5776 9.67695ZM24.0708 2.32429V7.69178C24.0708 8.35893 24.6138 8.90151 25.2809 8.90151H30.6424L24.0708 2.32429Z" fill="#051328"/>
<path d="M16.2467 17.6016H6.70135C6.11977 17.6016 5.64648 17.1249 5.64648 16.5392V8.7382C5.64648 8.61666 5.70328 8.50232 5.80021 8.42924L11.2442 4.30404C11.382 4.19878 11.5743 4.19878 11.7122 4.30404L17.1554 8.42924C17.2523 8.50232 17.3091 8.61666 17.3091 8.7382V16.5392C17.3091 17.1249 16.8328 17.6016 16.2467 17.6016ZM6.42192 8.93093V16.5392C6.42192 16.7001 6.5446 16.8262 6.70135 16.8262H16.2467C16.4049 16.8262 16.5337 16.6974 16.5337 16.5392V8.93093L11.4782 5.09955L6.42192 8.93093Z" fill="#051328"/>
<path d="M18.3141 10.1791C18.2323 10.1791 18.1497 10.1533 18.0801 10.1003L11.2412 4.92176C11.0701 4.79264 11.0367 4.54956 11.1662 4.3788C11.295 4.20766 11.5396 4.17585 11.7092 4.30383L18.548 9.48238C18.7192 9.6115 18.7525 9.85458 18.623 10.0253C18.5465 10.1261 18.4307 10.1791 18.3141 10.1791Z" fill="#051328"/>
<path d="M4.63635 10.1797C4.51973 10.1797 4.40386 10.1267 4.32738 10.026C4.19789 9.85519 4.23121 9.61211 4.40235 9.48299L11.2412 4.30444C11.4101 4.17646 11.6539 4.20827 11.7842 4.37941C11.9137 4.55017 11.8803 4.79325 11.7092 4.92237L4.87034 10.1009C4.80067 10.1539 4.71813 10.1797 4.63635 10.1797ZM13.6569 17.599H9.29352C9.07921 17.599 8.9058 17.4256 8.9058 17.2113V14.6157C8.9058 13.1943 10.0584 12.038 11.4752 12.038C12.1628 12.038 12.8095 12.3065 13.2964 12.7941C13.7796 13.2879 14.0446 13.9338 14.0446 14.6157V17.2113C14.0446 17.4256 13.8712 17.599 13.6569 17.599ZM9.68124 16.8235H13.2692V14.6157C13.2692 14.1379 13.0829 13.6847 12.7451 13.3394C12.4074 13.0012 11.9553 12.8134 11.4752 12.8134C10.4862 12.8134 9.68124 13.6218 9.68124 14.6157V16.8235Z" fill="#051328"/>
<path d="M11.4753 10.4027C12.4676 10.4027 13.272 9.5983 13.272 8.60602C13.272 7.61373 12.4676 6.80933 11.4753 6.80933C10.483 6.80933 9.67861 7.61373 9.67861 8.60602C9.67861 9.5983 10.483 10.4027 11.4753 10.4027Z" fill="#051328"/>
<path d="M33.4056 38.9999H25.6588C23.9269 38.9999 22.5184 37.591 22.5184 35.8591V25.3135C22.5184 23.5816 23.9269 22.1727 25.6588 22.1727H33.4056C35.1374 22.1727 36.5459 23.5816 36.5459 25.3135V35.8591C36.5459 37.591 35.1374 38.9999 33.4056 38.9999ZM25.6588 22.9482C24.3547 22.9482 23.2938 24.0091 23.2938 25.3135V35.8591C23.2938 37.1635 24.3547 38.2245 25.6588 38.2245H33.4056C34.7096 38.2245 35.7705 37.1635 35.7705 35.8591V25.3135C35.7705 24.0091 34.7096 22.9482 33.4056 22.9482H25.6588Z" fill="#051328"/>
<path d="M33.0565 29.4311H26.0079C25.3665 29.4311 24.8447 28.9093 24.8447 28.2679V25.6622C24.8447 25.0208 25.3665 24.499 26.0079 24.499H33.0565C33.6979 24.499 34.2196 25.0208 34.2196 25.6622V28.2679C34.2196 28.9093 33.6979 29.4311 33.0565 29.4311ZM26.0079 25.2745C25.7905 25.2745 25.6201 25.4448 25.6201 25.6622V28.2679C25.6201 28.4819 25.7943 28.6556 26.0079 28.6556H33.0565C33.27 28.6556 33.4442 28.4819 33.4442 28.2679V25.6622C33.4442 25.4448 33.2738 25.2745 33.0565 25.2745H26.0079Z" fill="#051328"/>
<path d="M33.8319 36.6736H32.462C32.2477 36.6736 32.0743 36.5001 32.0743 36.2858C32.0743 36.0715 32.2477 35.8981 32.462 35.8981H33.8319C34.0462 35.8981 34.2196 36.0715 34.2196 36.2858C34.2196 36.5001 34.0462 36.6736 33.8319 36.6736ZM30.2167 36.6736H28.8476C28.6333 36.6736 28.4599 36.5001 28.4599 36.2858C28.4599 36.0715 28.6333 35.8981 28.8476 35.8981H30.2167C30.431 35.8981 30.6045 36.0715 30.6045 36.2858C30.6045 36.5001 30.431 36.6736 30.2167 36.6736ZM26.6023 36.6736H25.2324C25.0181 36.6736 24.8447 36.5001 24.8447 36.2858C24.8447 36.0715 25.0181 35.8981 25.2324 35.8981H26.6023C26.8166 35.8981 26.99 36.0715 26.99 36.2858C26.99 36.5001 26.8166 36.6736 26.6023 36.6736ZM33.8319 34.9008H32.462C32.2477 34.9008 32.0743 34.7274 32.0743 34.5131C32.0743 34.2988 32.2477 34.1254 32.462 34.1254H33.8319C34.0462 34.1254 34.2196 34.2988 34.2196 34.5131C34.2196 34.7274 34.0462 34.9008 33.8319 34.9008ZM30.2167 34.9008H28.8476C28.6333 34.9008 28.4599 34.7274 28.4599 34.5131C28.4599 34.2988 28.6333 34.1254 28.8476 34.1254H30.2167C30.431 34.1254 30.6045 34.2988 30.6045 34.5131C30.6045 34.7274 30.431 34.9008 30.2167 34.9008ZM26.6023 34.9008H25.2324C25.0181 34.9008 24.8447 34.7274 24.8447 34.5131C24.8447 34.2988 25.0181 34.1254 25.2324 34.1254H26.6023C26.8166 34.1254 26.99 34.2988 26.99 34.5131C26.99 34.7274 26.8166 34.9008 26.6023 34.9008Z" fill="#051328"/>
<path d="M33.8319 33.1283H32.462C32.2477 33.1283 32.0743 32.9549 32.0743 32.7406C32.0743 32.5263 32.2477 32.3529 32.462 32.3529H33.8319C34.0462 32.3529 34.2196 32.5263 34.2196 32.7406C34.2196 32.9549 34.0462 33.1283 33.8319 33.1283ZM30.2167 33.1283H28.8476C28.6333 33.1283 28.4599 32.9549 28.4599 32.7406C28.4599 32.5263 28.6333 32.3529 28.8476 32.3529H30.2167C30.431 32.3529 30.6045 32.5263 30.6045 32.7406C30.6045 32.9549 30.431 33.1283 30.2167 33.1283ZM26.6023 33.1283H25.2324C25.0181 33.1283 24.8447 32.9549 24.8447 32.7406C24.8447 32.5263 25.0181 32.3529 25.2324 32.3529H26.6023C26.8166 32.3529 26.99 32.5263 26.99 32.7406C26.99 32.9549 26.8166 33.1283 26.6023 33.1283Z" fill="#051328"/>
<path d="M33.8319 31.3555H32.462C32.2477 31.3555 32.0743 31.182 32.0743 30.9677C32.0743 30.7534 32.2477 30.58 32.462 30.58H33.8319C34.0462 30.58 34.2196 30.7534 34.2196 30.9677C34.2196 31.182 34.0462 31.3555 33.8319 31.3555ZM30.2167 31.3555H28.8476C28.6333 31.3555 28.4599 31.182 28.4599 30.9677C28.4599 30.7534 28.6333 30.58 28.8476 30.58H30.2167C30.431 30.58 30.6045 30.7534 30.6045 30.9677C30.6045 31.182 30.431 31.3555 30.2167 31.3555ZM26.6023 31.3555H25.2324C25.0181 31.3555 24.8447 31.182 24.8447 30.9677C24.8447 30.7534 25.0181 30.58 25.2324 30.58H26.6023C26.8166 30.58 26.99 30.7534 26.99 30.9677C26.99 31.182 26.8166 31.3555 26.6023 31.3555Z" fill="#051328"/>
</svg>
