<svg width="36" height="40" viewBox="0 0 36 40" fill="none" xmlns="http://www.w3.org/2000/svg">
<path d="M35.7981 20.3008C32.0537 17.7893 28.203 15.2186 24.5675 12.6216C24.5519 12.6103 24.5337 12.6079 24.5173 12.5989C25.3441 10.5984 25.167 8.3489 24.0982 6.52296C23.9728 6.30957 23.6994 6.23669 23.4854 6.36262C23.272 6.48739 23.2003 6.762 23.3251 6.9754C25.6402 10.9302 22.7825 15.9513 18.178 15.9513C14.8897 15.9513 12.2147 13.2763 12.2147 9.98855C12.2147 5.24865 17.4742 2.44973 21.3719 4.94992C21.5812 5.08402 21.8581 5.02221 21.9905 4.81523C22.124 4.60709 22.064 4.33015 21.8558 4.19663C19.7126 2.82079 16.8371 2.71037 14.4993 4.20479C11.6149 5.43682 10.2699 8.52103 10.8329 11.5595C4.52287 16.3782 4.0929 16.5753 0.00796488 20.4034C-0.0437933 20.9733 0.148485 21.8179 0.827063 21.8059C1.20382 21.7992 1.58097 21.8298 1.9575 21.8083C1.97848 22.7057 2.05651 38.1856 2.06788 38.2368C2.22046 38.9617 2.79974 39.1434 3.51779 39.1C4.01228 39.063 21.7734 39.1939 21.8341 39.1944C32.3596 39.2581 32.5796 39.2809 32.9099 39.1028C32.9248 39.1008 32.9397 39.1038 32.9546 39.1013C33.0528 39.0846 33.2203 39.0113 33.2235 38.8921C33.2239 38.8746 33.3378 21.5678 33.338 21.55C33.9179 21.55 34.4396 21.5029 35.0173 21.4523C35.2796 21.4293 35.5553 21.3939 35.766 21.236C35.9316 21.1119 36.03 20.8884 35.9918 20.6944C35.9992 20.5402 35.9305 20.3897 35.7981 20.3008ZM13.7685 37.4247L13.7746 38.0235C12.8633 38.0205 11.959 38.0184 11.0573 38.0165V32.1586C12.0122 32.1011 12.7572 32.079 13.7702 32.1237C13.8007 33.2205 13.7241 33.4933 13.7685 37.4247ZM16.6206 38.0349C15.9685 38.0319 15.318 38.0292 14.6702 38.0269L14.664 37.4147C14.6168 33.2561 14.7178 32.9588 14.6489 31.6741C14.6366 31.4473 14.4565 31.2654 14.2297 31.2508C12.277 31.1318 11.1317 31.2782 10.6096 31.2782C10.3624 31.2782 10.1618 31.4788 10.1618 31.726V38.0145C9.57732 38.0135 8.99961 38.0129 8.41966 38.0122V23.7092C9.32322 23.6831 12.4515 23.4231 16.5863 23.6294C16.7193 26.5661 16.4733 25.7608 16.6206 38.0349ZM24.1187 13.4005C27.3719 15.7226 30.7505 17.9933 34.0285 20.1923C33.9681 20.1911 32.32 20.1575 32.4241 20.1596C32.4184 20.1588 32.4193 20.1591 32.4193 20.1591C32.1703 20.1603 31.9789 20.3859 31.9745 20.5964C31.9716 20.7329 32.0614 38.1042 32.0619 38.1762C27.143 38.104 22.2756 38.0623 17.5164 38.0386L17.4953 36.2038C17.3442 23.6855 17.8708 22.8035 17.0376 22.7565C12.2981 22.4897 9.22137 22.8207 7.97189 22.8207C7.72474 22.8207 7.52411 23.0213 7.52411 23.2684V38.011C6.20433 38.0097 4.89336 38.0089 3.59967 38.0089C3.63811 19.3418 3.65642 20.7276 3.62263 20.5774C3.58412 20.4039 3.45609 20.2733 3.26756 20.2386C3.24303 20.2344 3.22077 20.2239 3.19504 20.2238C1.6354 20.4204 2.17333 20.3528 2.05695 20.3672C5.79943 17.5164 7.48701 16.0142 11.9038 12.7485C14.1729 17.8851 21.302 18.285 24.1187 13.4005Z" fill="#051328"/>
<path d="M27.5393 4.76777L25.6433 4.9969C25.3978 5.02605 25.2229 5.24936 25.2526 5.49482L27.5393 4.76777ZM27.5393 4.76777C27.7789 4.73628 28.0075 4.91236 28.0372 5.1584L27.5393 4.76777ZM21.168 32.1549L21.168 32.1545L21.1541 32.1554C21.127 32.1572 21.0823 32.1451 21.0414 32.1069C21.003 32.071 20.9795 32.0226 20.9795 31.9677C20.9819 29.0326 20.9609 26.0812 20.9171 23.1944C20.9156 23.0949 20.9914 23.0124 21.0897 23.0051L21.0899 23.0051C23.4998 22.8258 25.9532 22.806 28.5936 22.946L28.5938 22.946C28.6906 22.9511 28.768 23.0306 28.7702 23.1283C28.8337 26.0671 28.812 28.9171 28.7895 31.8622L28.7882 32.041C28.7882 32.0411 28.7882 32.0412 28.7882 32.0413C28.7871 32.1385 28.7131 32.2174 28.6185 32.2259C28.5996 32.2233 28.5812 32.2215 28.5665 32.2202C28.5334 32.2172 28.4914 32.2143 28.4414 32.2113C28.3411 32.2054 28.2029 32.1992 28.0289 32.1931C27.6804 32.1807 27.1837 32.1683 26.5495 32.1585C25.2808 32.1391 23.4592 32.1304 21.168 32.1549ZM25.5119 5.46356L25.5119 5.4634C25.4995 5.3609 25.5726 5.26833 25.6741 5.25628L25.6746 5.25621L27.5706 5.02708L27.5706 5.02709L27.5733 5.02674C27.6676 5.01435 27.7655 5.08671 27.7779 5.18974L27.7779 5.18981C27.7903 5.29232 27.7173 5.38489 27.6158 5.39694L27.6154 5.39699C26.9135 5.48149 26.4687 5.53536 26.1857 5.56964C26.0699 5.58368 25.9811 5.59443 25.9129 5.60265C25.7945 5.61694 25.7397 5.62341 25.7119 5.62636C25.7015 5.62747 25.6976 5.62782 25.6963 5.6279C25.6951 5.62797 25.6962 5.6278 25.6963 5.62776C25.6963 5.62775 25.6963 5.62775 25.6963 5.62775C25.6037 5.62775 25.5234 5.55823 25.5119 5.46356ZM25.2255 2.19333L25.2256 2.1932C25.296 2.11617 25.4138 2.11182 25.4886 2.18065L25.4892 2.18124C25.5645 2.25003 25.5704 2.36651 25.5032 2.44253C25.1241 2.83333 24.8668 3.12914 24.6867 3.33631C24.6187 3.41451 24.5617 3.48007 24.5132 3.53335C24.4198 3.63612 24.3675 3.68285 24.3296 3.70667C24.304 3.72278 24.2844 3.72937 24.2434 3.72937C24.0817 3.72937 23.9974 3.53539 24.1056 3.41698L25.2255 2.19333ZM22.8543 1.04202L22.8543 1.0423L22.7878 2.41183C22.7878 2.41184 22.7878 2.41185 22.7878 2.41187C22.7824 2.5233 22.681 2.59646 22.6017 2.58985L22.6017 2.58968L22.5923 2.58923C22.4895 2.58439 22.4101 2.49672 22.4152 2.39433L22.4152 2.39404L22.4817 1.02474C22.4817 1.0247 22.4817 1.02467 22.4817 1.02463C22.4865 0.929121 22.5902 0.842558 22.6759 0.847051L22.6773 0.847114C22.78 0.851961 22.8594 0.939624 22.8543 1.04202Z" stroke="black" stroke-width="0.522404"/>
</svg>
