<svg width="40" height="40" viewBox="0 0 40 40" fill="none" xmlns="http://www.w3.org/2000/svg">
<g clip-path="url(#clip0_4442_41912)">
<rect x="7.65625" y="6.40625" width="17.1875" height="8.4375" fill="#051328" stroke="#051328" stroke-width="0.3125"/>
<rect x="8.28125" y="6.40625" width="16.5625" height="7.8125" fill="white" stroke="#051328" stroke-width="0.3125"/>
<path d="M31.5 28.8125V33.3125C31.5 34.4375 30.625 35.3125 29.5 35.3125H17.5V37.4375H29.5C31.75 37.4375 33.625 35.625 33.625 33.3125V28.75C33.0625 28.8125 32.5625 28.875 32 28.875C31.8125 28.875 31.6875 28.875 31.5 28.8125ZM29.5 0.6875H6.8125C4.5625 0.6875 2.75 2.5 2.75 4.75V19H4.875V4.75C4.875 3.625 5.75 2.75 6.875 2.75H29.5625C30.6875 2.75 31.5625 3.625 31.5625 4.75V9.25H32C32.5625 9.25 33.125 9.3125 33.625 9.375V4.75C33.625 2.5 31.75 0.6875 29.5 0.6875Z" fill="#051328"/>
<path d="M1.85345 21.2277L1.86641 21.2218L1.87862 21.2145C2.13531 21.0605 2.45779 21.0001 2.875 21.0001H13.4375C13.823 21.0001 14.1595 21.1088 14.4597 21.2283C14.9715 21.4889 15.3125 22.0705 15.3125 22.9376C15.3125 25.6251 15.3125 26.4401 15.375 29.128V37.1876C15.375 37.8311 15.2002 38.2902 14.9013 38.589C14.6025 38.8878 14.1434 39.0626 13.5 39.0626H2.875C2.23156 39.0626 1.77246 38.8878 1.47365 38.589C1.17484 38.2902 1 37.8311 1 37.1876V22.9376C1 22.4612 1.07482 22.0981 1.2147 21.825C1.35166 21.5576 1.55827 21.3619 1.85345 21.2277ZM4.93937 33.3826L4.93005 33.3849L4.92094 33.388C4.698 33.4623 4.50959 33.5811 4.37812 33.7564C4.24582 33.9328 4.1875 34.1447 4.1875 34.3751V34.6876C4.1875 34.8257 4.07557 34.9376 3.9375 34.9376H3.5625C2.98693 34.9376 2.5625 35.3621 2.5625 35.9376C2.5625 36.2262 2.6348 36.4885 2.82322 36.6769C3.01164 36.8653 3.27396 36.9376 3.5625 36.9376H3.875C4.01307 36.9376 4.125 37.0496 4.125 37.1876V37.5001C4.125 38.0273 4.56392 38.4376 5.125 38.4376H5.1875C5.74858 38.4376 6.1875 38.0273 6.1875 37.5001V37.1251C6.1875 36.987 6.29943 36.8751 6.4375 36.8751H6.875C7.14561 36.8751 7.39589 36.7805 7.57371 36.6007C7.75366 36.4187 7.84303 36.1654 7.81557 35.886C7.81367 35.8667 7.81233 35.8479 7.81161 35.8297C7.78982 35.2755 7.37098 34.8751 6.8125 34.8751H6.4375C6.29943 34.8751 6.1875 34.7632 6.1875 34.6251V34.3751C6.1875 33.7249 5.60904 33.2152 4.93937 33.3826ZM7.12407 30.3956L7.11428 30.3858L6.6973 29.9689L7.05178 29.6144C7.24492 29.4212 7.35344 29.1799 7.35914 28.9272C7.36484 28.6744 7.26717 28.4296 7.08307 28.2309C7.07075 28.2176 7.05866 28.2036 7.04692 28.1892L6.85308 28.3471L7.04692 28.1892C6.80838 27.8963 6.49707 27.8126 6.3125 27.8126C6.05794 27.8126 5.80707 27.902 5.57322 28.1358L5.32322 28.3858C5.24827 28.4608 5.12673 28.4608 5.05178 28.3858L4.73928 28.0733C4.34618 27.6802 3.7788 27.6618 3.36891 28.03C3.35047 28.0466 3.32979 28.0634 3.30466 28.0833L3.45993 28.2792L3.30466 28.0833C3.07148 28.2681 3 28.5248 3 28.7501C3 29.0898 3.17097 29.3371 3.32322 29.4894L3.59467 29.7608C3.70294 29.8691 3.69733 30.041 3.61045 30.1263C3.56812 30.1679 3.52802 30.2018 3.48633 30.2296L3.625 30.4376L3.48632 30.2296C3.21267 30.4121 3.13742 30.7366 3.12653 30.9904C3.12364 31.0576 3.13135 31.129 3.15457 31.1997C3.23959 31.4586 3.42468 31.7059 3.67195 31.8601L3.80425 31.6479L3.67196 31.8601C3.67974 31.8649 3.68798 31.8704 3.6998 31.8782L3.70089 31.879C3.71154 31.8861 3.72542 31.8953 3.73998 31.9044C3.76998 31.9231 3.81286 31.9477 3.86549 31.9652L3.94449 31.728L3.8655 31.9652C3.97165 32.0006 4.09675 32.0003 4.17308 32.0001C4.17811 32.0001 4.18292 32.0001 4.1875 32.0001C4.39054 32.0001 4.6389 31.9023 4.86428 31.6769L5.25 31.2912L5.69822 31.7394C5.93207 31.9732 6.18294 32.0626 6.4375 32.0626C6.75799 32.0626 7.08865 31.9066 7.26664 31.6446C7.5464 31.265 7.41667 30.7614 7.13272 30.4064L7.12407 30.3956ZM24.8125 19.0626C24.8125 15.1382 28.0131 11.9376 31.9375 11.9376C35.8619 11.9376 39.0625 15.1382 39.0625 19.0626C39.0625 22.9871 35.8619 26.1876 31.9375 26.1876C28.0131 26.1876 24.8125 22.9871 24.8125 19.0626ZM25.4375 19.0626C25.4375 22.6382 28.3619 25.5626 31.9375 25.5626C35.5131 25.5626 38.4375 22.6382 38.4375 19.0626C38.4375 15.4871 35.5131 12.5626 31.9375 12.5626C28.3619 12.5626 25.4375 15.4871 25.4375 19.0626ZM9.875 29.8751H12.5C12.7885 29.8751 13.0509 29.8028 13.2393 29.6144C13.4277 29.426 13.5 29.1637 13.5 28.8751C13.5 28.5866 13.4277 28.3243 13.2393 28.1358C13.0509 27.9474 12.7885 27.8751 12.5 27.8751H9.875C9.63788 27.8751 9.38072 27.9534 9.19822 28.1358C9.09559 28.2385 9.03287 28.3752 8.99543 28.4969C8.95691 28.6221 8.9375 28.7563 8.9375 28.8751C8.9375 29.1399 9.01336 29.391 9.17973 29.5796C9.34952 29.772 9.59268 29.8751 9.875 29.8751ZM13.5 30.9796C13.5001 30.9398 13.4972 30.8941 13.4871 30.8459C13.4414 30.6264 13.3386 30.4289 13.1758 30.2852C13.0112 30.1399 12.7995 30.0626 12.5625 30.0626H10C9.67956 30.0626 9.34895 30.2186 9.17095 30.4806C8.92287 30.8158 8.92861 31.2289 9.08889 31.5494C9.18144 31.7345 9.44311 32.0626 10 32.0626H12.5C12.6921 32.0626 12.8437 32.0235 12.9713 31.954C13.0892 31.8897 13.1735 31.8052 13.2332 31.7455L13.2393 31.7394C13.4926 31.4861 13.4994 31.2164 13.5 30.9796ZM9.9375 36.8751H12.75C13.0323 36.8751 13.2755 36.772 13.4453 36.5796C13.6116 36.391 13.6875 36.1399 13.6875 35.8751C13.6875 35.2996 13.2631 34.8751 12.6875 34.8751H9.9375C9.70038 34.8751 9.44322 34.9534 9.26072 35.1358C9.15809 35.2385 9.09537 35.3752 9.05793 35.4969C9.01941 35.6221 9 35.7563 9 35.8751C9 36.1399 9.07586 36.391 9.24223 36.5796C9.41202 36.772 9.65518 36.8751 9.9375 36.8751ZM13.3125 26.2501C13.7267 26.2501 14.0625 25.9143 14.0625 25.5001V23.0001C14.0625 22.5859 13.7267 22.2501 13.3125 22.2501H2.99115C2.58216 22.2501 2.24857 22.5778 2.24127 22.9867L2.19663 25.4867C2.18914 25.9061 2.52706 26.2501 2.94651 26.2501H13.3125Z" stroke="#051328" stroke-width="0.5"/>
<path d="M31.986 23.6102L29.9084 19.9827V19.4991H30.1503C30.5387 19.4991 30.8648 19.4624 31.1286 19.3892C31.3997 19.3159 31.6122 19.195 31.7661 19.0264C31.92 18.8579 32.0116 18.627 32.0409 18.3339H29.9084V17.6304H32.0299C31.9786 17.3593 31.8761 17.1394 31.7222 16.9709C31.5683 16.795 31.3594 16.6667 31.0956 16.5861C30.8391 16.5055 30.524 16.4652 30.1503 16.4652H29.9084V15.7617H34.4592V16.4652H32.3817C32.5502 16.6045 32.6895 16.7693 32.7994 16.9599C32.9093 17.1504 32.9789 17.3739 33.0083 17.6304H34.4592V18.3339H33.0302C32.9789 18.8689 32.7738 19.2866 32.4147 19.587C32.0629 19.8801 31.5939 20.067 31.0077 20.1476L33.1072 23.6102H31.986Z" fill="#051328"/>
<path d="M13.598 7.4125V8.11H12.2105V12.625H11.3555V8.11H9.96047V7.4125H13.598ZM17.6064 11.56H15.4239L15.0489 12.625H14.1564L16.0239 7.405H17.0139L18.8814 12.625H17.9814L17.6064 11.56ZM17.3664 10.8625L16.5189 8.44L15.6639 10.8625H17.3664ZM22.0859 10.0225L23.7059 12.625H22.7459L21.5684 10.735L20.4659 12.625H19.5134L21.1334 10.0225L19.5059 7.4125H20.4659L21.6509 9.3175L22.7609 7.4125H23.7134L22.0859 10.0225Z" fill="#051328"/>
</g>
<defs>
<clipPath id="clip0_4442_41912">
<rect width="40" height="40" fill="white"/>
</clipPath>
</defs>
</svg>
