<svg width="40" height="40" viewBox="0 0 40 40" fill="none" xmlns="http://www.w3.org/2000/svg">
<g clip-path="url(#clip0_4442_35800)">
<path d="M2.57543 36.186C4.95691 37.6613 8.81698 36.7369 11.3057 36.7369H20.119C21.1198 38.3759 23.5906 39.3602 25.3083 39.6753C28.9007 40.5757 34.9553 39.6593 36.1892 36.223C36.4549 35.4554 36.4428 34.4194 36.3697 34.1903C36.471 34.1406 36.5806 34.0962 36.6792 34.0441C38.6682 33.0496 39.0825 31.4648 39.1927 30.1515C39.2033 29.1624 38.8495 27.6504 38.6164 27.1275C38.2628 26.3239 37.4873 25.659 36.7431 25.2204C35.49 24.473 33.9152 24.3023 32.3466 24.1487V19.8622C32.3466 18.6419 32.6052 17.5001 31.6528 16.356C30.9979 15.5715 30.2404 15.3162 29.4763 15.2632C29.4887 12.8621 29.455 13.3167 29.5022 12.4746C29.5577 11.5126 29.6198 10.4222 28.7247 9.59221C28.0485 8.96267 27.3324 8.91434 26.6558 8.95856C26.6796 7.6904 26.6262 7.95327 26.7187 7.0067C26.8516 5.63043 26.914 5.10293 25.1968 3.55142C23.4344 1.98673 22.8554 0.924278 21.5893 0.487624C20.5036 0.118528 19.9109 0.303614 17.0204 0.122958C15.751 0.0439971 14.4382 -0.0379773 13.1242 0.0189829C10.745 0.124511 8.83683 0.54171 8.83683 2.95499C8.83683 2.98238 8.82523 5.67337 8.8079 8.98674C7.38277 8.99475 7.33763 8.96595 7.20337 9.01236C6.12859 9.38494 5.49317 10.368 5.54136 11.5794C5.53706 11.5797 5.53262 11.58 5.52832 11.5804C4.67723 11.6479 3.71223 11.7244 2.83763 12.1141C1.99076 12.4981 1.0788 13.379 0.948604 14.5354C0.971144 30.465 1.08124 28.4336 0.912439 30.3929C0.738846 32.4073 0.523061 34.9148 2.57543 36.186ZM21.8431 31.1776C22.6579 33.4579 25.3538 34.6294 27.7 35.1233L27.6994 35.1236C29.8764 35.6005 32.1545 35.5234 34.1523 35.0013C33.685 35.4172 33.0639 35.7817 32.2604 36.1016C27.7388 37.8768 22.3291 36.3575 20.7557 34.3644C19.838 33.1873 20.6035 31.9312 21.8431 31.1776ZM36.2717 26.0175C36.8352 26.3446 37.5064 26.9006 37.7641 27.4894C37.9907 28.0944 38.0265 28.5778 37.6804 29.2697C36.3959 31.8027 31.3794 32.5873 28.4287 32.1195C27.0636 31.9693 24.6174 31.2069 23.3324 30.0674C22.0177 29.0156 22.2089 27.2719 24.1902 26.1745C26.8947 24.7188 29.9412 24.7807 33.0199 25.1514C34.2025 25.2909 35.3411 25.4621 36.2717 26.0175ZM28.0942 10.2706C28.8385 10.9601 28.5505 12.0231 28.5505 13.1466V15.2774C27.8566 15.3359 27.3428 15.4265 26.7856 15.4305H26.6155L26.65 9.88563C27.2478 9.8419 27.6736 9.879 28.0942 10.2706ZM24.8189 4.45946C25.0767 4.6969 25.3531 4.97353 25.5552 5.26003L25.5558 5.26086C25.6043 5.32965 25.6356 5.39957 25.6726 5.469C22.5977 5.72506 22.3361 5.25777 22.327 5.23852C22.076 4.36645 22.0492 2.9852 21.9671 1.73449C22.465 2.14054 23.1694 2.93498 24.8189 4.45946ZM13.1646 0.943908C15.2884 0.851239 17.2643 1.13134 19.1168 1.1389C19.7615 1.14172 20.42 1.15295 21.0008 1.29102C21.1424 3.03603 21.1325 4.43662 21.4374 5.49469C21.7906 6.72066 24.484 6.50046 25.8402 6.38304C25.8297 6.5558 25.8151 6.7323 25.7971 6.91719C25.7046 7.87943 25.6906 14.4634 25.6892 15.4329C17.7044 15.4755 17.6639 15.8093 15.1537 13.7497C14.7155 13.3911 14.2628 13.0198 13.7667 12.7109C12.6637 12.0216 11.3352 11.6208 9.71625 11.4909C9.7166 11.4265 9.76266 2.89412 9.76266 2.9565C9.76266 1.17129 11.3302 1.02548 13.1646 0.943908ZM7.43784 9.91257H8.8021L8.79083 11.4497C8.01031 11.4304 7.2285 11.4578 6.46636 11.5095C6.44695 10.7423 6.79678 10.1648 7.43784 9.91257ZM1.83525 30.4722C2.00853 28.4604 1.89863 30.287 1.87142 14.5884C1.95279 13.8817 2.6116 13.2331 3.21737 12.9586C4.39333 12.4345 7.93595 12.3139 9.2244 12.3869C9.2244 12.3869 9.22302 12.3869 9.22802 12.3869C11.9985 12.5224 13.1486 13.3038 14.5666 14.4658C17.3714 16.7661 17.543 16.4007 26.7892 16.3563C28.4746 16.3433 29.8773 15.6743 30.9416 16.9488C31.6465 17.7949 31.4208 18.6768 31.4208 19.8622V24.0719C28.724 23.891 26.034 24.1312 23.7465 25.3617C21.9608 26.3509 21.1984 27.8374 21.6057 30.2415C20.429 30.8809 19.4194 31.9811 19.4194 33.2997C19.3461 34.1364 19.4001 35.0121 19.6807 35.8111H11.3057C8.83712 35.8111 5.12073 36.6743 3.06246 35.3988C1.4941 34.4274 1.66769 32.4167 1.83525 30.4722Z" fill="#051328"/>
<path d="M11.8578 5.37193H17.4772C17.7328 5.37193 17.9401 5.16459 17.9401 4.90902C17.9401 4.65345 17.7328 4.44611 17.4772 4.44611H11.8578C11.6022 4.44611 11.3949 4.65345 11.3949 4.90902C11.3949 5.16459 11.6022 5.37193 11.8578 5.37193ZM11.8578 8.23833H21.3891C21.6447 8.23833 21.852 8.03098 21.852 7.77541C21.852 7.51984 21.6447 7.3125 21.3891 7.3125H11.8578C11.6022 7.3125 11.3949 7.51984 11.3949 7.77541C11.3949 8.03098 11.6022 8.23833 11.8578 8.23833ZM19.3687 10.2774H14.4677C14.2121 10.2774 14.0048 10.4848 14.0048 10.7404C14.0048 10.9959 14.2121 11.2033 14.4677 11.2033H19.3687C19.6242 11.2033 19.8316 10.9959 19.8316 10.7404C19.8316 10.4848 19.6242 10.2774 19.3687 10.2774ZM28.8439 28.1234C29.0109 28.3178 29.3032 28.338 29.4967 28.1711L30.4171 27.3757L30.7095 29.96C30.736 30.1963 30.9361 30.3708 31.1688 30.3708C31.1862 30.3708 31.2037 30.3699 31.2212 30.3678C31.4756 30.3392 31.6582 30.1098 31.6293 29.8558L31.2381 26.3999C31.2188 26.229 31.1067 26.0831 30.947 26.0204C30.7854 25.9584 30.6058 25.9894 30.4756 26.1015L28.8916 27.4707C28.6981 27.6376 28.677 27.93 28.8439 28.1234ZM4.9671 28.5252C5.22266 28.5252 5.43001 28.3178 5.43001 28.0623V27.2332C5.43001 26.9776 5.22266 26.7703 4.9671 26.7703C4.71153 26.7703 4.50418 26.9776 4.50418 27.2332V28.0623C4.50418 28.3178 4.71153 28.5252 4.9671 28.5252ZM4.9671 24.9388C5.22266 24.9388 5.43001 24.7315 5.43001 24.4759V20.8488C5.43001 20.5933 5.22266 20.3859 4.9671 20.3859C4.71153 20.3859 4.50418 20.5933 4.50418 20.8488V24.4759C4.50418 24.7315 4.71153 24.9388 4.9671 24.9388Z" fill="#051328"/>
</g>
<defs>
<clipPath id="clip0_4442_35800">
<rect width="40" height="40" fill="white"/>
</clipPath>
</defs>
</svg>
