<svg width="114" height="114" viewBox="0 0 114 114" fill="none" xmlns="http://www.w3.org/2000/svg">
<rect width="80" height="80" rx="20" transform="matrix(-0.707107 -0.707107 -0.707107 0.707107 113.137 56.5684)" fill="#fedc60"/>
<path d="M57.0645 72.9714L54.1797 67.9344V67.2628H54.5155C55.0548 67.2628 55.5076 67.212 55.8739 67.1102C56.2504 67.0084 56.5455 66.8405 56.7592 66.6065C56.9729 66.3725 57.1001 66.0519 57.1408 65.6449H54.1797V64.668H57.1255C57.0543 64.2915 56.9119 63.9863 56.6982 63.7522C56.4845 63.508 56.1945 63.3299 55.8281 63.218C55.472 63.1061 55.0344 63.0501 54.5155 63.0501H54.1797V62.0732H60.4988V63.0501H57.614C57.848 63.2434 58.0414 63.4724 58.194 63.737C58.3466 64.0015 58.4433 64.3119 58.484 64.668H60.4988V65.6449H58.5145C58.4433 66.3877 58.1584 66.9677 57.6598 67.3849C57.1713 67.792 56.5201 68.0514 55.706 68.1634L58.6214 72.9714H57.0645Z" fill="#051328"/>
<path d="M57.3789 53.3598V42.7559H61.794C66.08 42.7559 69.5664 39.2694 69.5664 34.9835V33.0059C69.5664 32.5565 69.2032 32.1934 68.7539 32.1934H63.5263C60.4753 32.1934 57.838 33.9638 56.5664 36.5272C55.2948 33.9638 52.6567 32.1934 49.6065 32.1934H44.3789C43.9296 32.1934 43.5664 32.5565 43.5664 33.0059V34.9835C43.5664 39.2694 47.0528 42.7559 51.3388 42.7559H55.7539V53.3598C48.5162 53.7839 42.7539 59.7891 42.7539 67.1309C42.7539 74.7472 48.95 80.9434 56.5664 80.9434C64.1828 80.9434 70.3789 74.7472 70.3789 67.1309C70.3789 59.7891 64.6167 53.7839 57.3789 53.3598ZM68.7125 66.3184H66.8705C66.695 64.0767 65.8062 62.0349 64.4249 60.4204L65.7265 59.1188C67.4368 61.072 68.5297 63.5697 68.7125 66.3184ZM44.4195 67.9434H46.2615C46.4378 70.1932 47.3332 72.2407 48.7225 73.8584C48.6908 73.8819 48.6543 73.8941 48.6258 73.9225L47.4055 75.1429C45.6952 73.1897 44.6032 70.692 44.4203 67.9434H44.4195ZM49.7739 75.0714C49.8023 75.043 49.8145 75.0056 49.8381 74.9747C51.4558 76.3641 53.5033 77.2595 55.7531 77.4358V79.2777C53.0044 79.0949 50.5068 78.0029 48.5535 76.2926L49.7739 75.0714ZM57.3781 77.435C59.6198 77.2595 61.6616 76.3706 63.276 74.9894L64.5777 76.291C62.6244 78.0013 60.1268 79.0933 57.3781 79.2761V77.435ZM56.5656 75.8514C51.7572 75.8514 47.845 71.9392 47.845 67.1309C47.845 62.3225 51.7572 58.4103 56.5656 58.4103C61.374 58.4103 65.2862 62.3225 65.2862 67.1309C65.2862 71.9392 61.374 75.8514 56.5656 75.8514ZM63.276 59.2715C61.6616 57.8911 59.6198 57.0014 57.3781 56.8259V54.984C60.1268 55.1668 62.6244 56.2588 64.5777 57.9691L63.276 59.2715ZM55.7531 55.7559V56.8259C53.5114 57.0014 51.4696 57.8903 49.8552 59.2715L48.5535 57.9699C50.5068 56.2596 53.0044 55.1676 55.7531 54.9848V55.7559ZM63.5255 33.8184H67.9406V34.9835C67.9406 38.3732 65.1822 41.1309 61.7932 41.1309H57.3781V39.9657C57.3781 36.576 60.1365 33.8184 63.5255 33.8184ZM45.1906 34.9835V33.8184H49.6057C52.9955 33.8184 55.7531 36.5768 55.7531 39.9657V41.1309H51.338C47.9482 41.1309 45.1906 38.3724 45.1906 34.9835ZM47.4047 59.1188L48.7063 60.4204C47.3258 62.0349 46.4362 64.0767 46.2607 66.3184H44.4187C44.6015 63.5697 45.6935 61.072 47.4038 59.1188H47.4047ZM65.7265 75.1429L64.4249 73.8413C65.8053 72.2269 66.695 70.185 66.8705 67.9434H68.7125C68.5297 70.692 67.4377 73.1897 65.7273 75.1429H65.7265Z" fill="#051328"/>
</svg>
