<svg width="24" height="24" viewBox="0 0 24 24" fill="none" xmlns="http://www.w3.org/2000/svg">
<path fill-rule="evenodd" clip-rule="evenodd" d="M23.52 12.2739C23.52 11.423 23.4436 10.6048 23.3018 9.81934H12V14.4612H18.4582C18.18 15.9612 17.3345 17.2321 16.0636 18.083V21.0939H19.9418C22.2109 19.0048 23.52 15.9284 23.52 12.2739Z" fill="#4285F4"/>
<path fill-rule="evenodd" clip-rule="evenodd" d="M11.9987 23.9983C15.2387 23.9983 17.955 22.9238 19.9405 21.091L16.0623 18.0801C14.9877 18.8001 13.6132 19.2256 11.9987 19.2256C8.8732 19.2256 6.22775 17.1147 5.28411 14.2783H1.27502V17.3874C3.24957 21.3092 7.30775 23.9983 11.9987 23.9983Z" fill="#34A853"/>
<path fill-rule="evenodd" clip-rule="evenodd" d="M5.28545 14.2804C5.04545 13.5604 4.90909 12.7913 4.90909 12.0004C4.90909 11.2095 5.04545 10.4404 5.28545 9.72042V6.61133H1.27636C0.463636 8.23133 0 10.0641 0 12.0004C0 13.9368 0.463636 15.7695 1.27636 17.3895L5.28545 14.2804Z" fill="#FBBC05"/>
<path fill-rule="evenodd" clip-rule="evenodd" d="M11.9987 4.77273C13.7605 4.77273 15.3423 5.37818 16.5859 6.56727L20.0277 3.12545C17.9496 1.18909 15.2332 0 11.9987 0C7.30775 0 3.24957 2.68909 1.27502 6.61091L5.28411 9.72C6.22775 6.88364 8.8732 4.77273 11.9987 4.77273Z" fill="#EA4335"/>
</svg>
