<svg width="40" height="40" viewBox="0 0 40 40" fill="none" xmlns="http://www.w3.org/2000/svg">
<rect width="40" height="40" fill="white"/>
<path d="M34.2306 18.21L35.4938 19.4731V39.2248C35.4938 39.6527 35.1469 39.9995 34.7191 39.9995H2.86714L2.09766 39.021C12.7149 39.021 23.4978 39.3776 34.094 38.7101C34.2397 31.8633 34.4377 25.0552 34.2306 18.21Z" fill="#051328"/>
<path d="M32.0783 6.7042C32.7609 7.69242 33.1015 8.88441 33.2342 10.0781C33.3669 11.2718 33.3024 12.4777 33.2377 13.677C33.1552 15.207 33.0727 16.737 32.9901 18.2671C32.9516 18.9814 32.8299 19.8286 32.1873 20.1429C32.4322 18.0721 32.5601 15.9875 32.5702 13.9023C32.5797 11.9563 32.4809 9.97856 31.8532 8.13657C31.2496 6.36497 30.1626 4.92938 28.6016 3.90625C29.8828 4.34489 31.318 5.60352 32.0783 6.7042Z" fill="#051328"/>
<path d="M34.0479 39.3336H2.46333C2.20753 39.3336 2 39.126 2 38.8702V18.343C2 18.1744 2.0917 18.0191 2.23951 17.9373C2.38731 17.8562 2.56739 17.8613 2.71037 17.9509C8.23921 21.4334 14.099 25.6911 18.6463 29.0617C20.8205 27.4648 23.1812 25.8362 25.467 24.2592C28.1743 22.3914 30.9739 20.46 33.5442 18.5291C33.6841 18.4239 33.8706 18.407 34.0274 18.4839C34.184 18.5611 34.2838 18.7198 34.2859 18.8944L34.5112 38.8651C34.5128 38.9888 34.4645 39.1079 34.3773 39.196C34.2904 39.2841 34.1716 39.3336 34.0479 39.3336ZM2.92665 38.4069H33.5795L33.3695 19.815C30.9911 21.5739 28.4542 23.3241 25.9934 25.0217C23.6161 26.6618 21.1583 28.3576 18.9207 30.0103C18.7564 30.1316 18.5331 30.1313 18.3693 30.01C13.9904 26.7607 8.33061 22.6354 2.92665 19.1855V38.4069Z" fill="#051328"/>
<path d="M5.01724 20.2205C4.76265 20.2205 4.55573 20.0151 4.55392 19.7605L4.44532 4.16098C4.44351 3.90488 4.64954 3.69615 4.90533 3.69434H4.90865C5.16324 3.69434 5.37017 3.89976 5.37198 4.15434L5.48057 19.7539C5.48238 20.01 5.27636 20.2187 5.02056 20.2205H5.01724Z" fill="#051328"/>
<path d="M32.1951 20.3842C31.9215 20.3673 31.7312 20.1757 31.7318 19.9196L31.7577 9.91589L28.4629 9.70443C27.7989 9.6616 27.2907 9.11623 27.3051 8.46287C27.3199 7.82097 27.3965 7.18781 27.4707 6.57548C27.5558 5.87415 27.637 5.2051 27.6321 4.52912L4.90985 4.58251H4.90864C4.65315 4.58251 4.44592 4.37588 4.44531 4.12039C4.44471 3.86429 4.65164 3.65646 4.90743 3.65586L28.0777 3.60156H28.0789C28.3229 3.60156 28.525 3.79069 28.5413 4.03412C28.6019 4.94629 28.4945 5.83132 28.3908 6.68708C28.316 7.30425 28.2451 7.88763 28.2318 8.48398C28.2282 8.63903 28.3558 8.76903 28.5223 8.77959L32.2518 9.0191C32.4961 9.03478 32.6862 9.23779 32.6856 9.48273L32.6584 19.922C32.6578 20.1775 32.4503 20.3842 32.1951 20.3842Z" fill="#051328"/>
<path d="M32.223 9.7011C32.0109 9.7011 31.8194 9.5548 31.7711 9.33913C31.2942 7.21223 29.8889 5.42619 27.9149 4.43921C27.6859 4.32459 27.5933 4.04647 27.7077 3.81752C27.8223 3.58858 28.1007 3.49688 28.3294 3.61029C30.5534 4.72246 32.1373 6.73654 32.6754 9.13642C32.7313 9.38618 32.5744 9.63383 32.3246 9.68994C32.2906 9.69748 32.2565 9.7011 32.223 9.7011ZM2.50678 18.593C2.3285 18.593 2.15868 18.4898 2.08236 18.3164C1.9792 18.082 2.08568 17.8087 2.31976 17.7055C2.83436 17.4793 3.26481 17.2754 3.72512 17.0573C4.04667 16.9053 4.3824 16.7463 4.77092 16.568C5.00379 16.4625 5.27859 16.5635 5.38507 16.7961C5.49185 17.0286 5.38989 17.3034 5.15702 17.4102C4.77273 17.5867 4.44002 17.7442 4.12178 17.895C3.65363 18.1164 3.21624 18.3236 2.69319 18.5538C2.63226 18.5803 2.56891 18.593 2.50678 18.593ZM33.9478 19.0409C33.8069 19.0409 33.6679 18.977 33.5768 18.8557C33.317 18.5091 33.0193 18.1586 32.7249 17.8117C32.4673 17.508 32.2121 17.2066 31.9847 16.9134C31.8275 16.7113 31.8643 16.4202 32.0664 16.2634C32.2688 16.1065 32.5602 16.143 32.7165 16.3451C32.9364 16.6284 33.1831 16.9192 33.4317 17.2124C33.733 17.5677 34.0446 17.9348 34.3182 18.2995C34.4717 18.5043 34.4301 18.7948 34.2256 18.9483C34.142 19.0108 34.0446 19.0409 33.9478 19.0409ZM2.62924 39.119C2.50044 39.119 2.37224 39.0656 2.28084 38.9612C2.11192 38.7691 2.13093 38.4762 2.32338 38.3076L15.193 27.0128C15.3852 26.8436 15.6784 26.8632 15.8467 27.0553C16.0156 27.2475 15.9966 27.5404 15.8042 27.709L2.93451 39.0038C2.84673 39.081 2.73753 39.119 2.62924 39.119ZM33.4498 39.1395C33.3219 39.1395 33.1949 39.087 33.1035 38.9841C32.2574 38.0343 31.4233 37.0907 30.5902 36.1487C28.003 33.2221 25.3274 30.196 22.3839 27.0819C22.2081 26.896 22.2162 26.6025 22.4023 26.427C22.5882 26.2514 22.8814 26.259 23.0572 26.4454C26.0112 29.5704 28.6919 32.6026 31.2846 35.5348C32.1168 36.476 32.9502 37.4189 33.7955 38.3682C33.9656 38.5591 33.9487 38.852 33.7574 39.0222C33.6694 39.1009 33.5593 39.1395 33.4498 39.1395ZM22.8424 9.74182H9.25396C8.99817 9.74182 8.79063 9.53429 8.79063 9.2785C8.79063 9.0227 8.99817 8.81517 9.25396 8.81517H22.8424C23.0982 8.81517 23.3058 9.0227 23.3058 9.2785C23.3058 9.53429 23.0982 9.74182 22.8424 9.74182ZM19.3201 14.0858H8.98248C8.72669 14.0858 8.51915 13.8783 8.51915 13.6225C8.51915 13.3667 8.72669 13.1592 8.98248 13.1592H19.3201C19.5759 13.1592 19.7835 13.3667 19.7835 13.6225C19.7835 13.8783 19.5759 14.0858 19.3201 14.0858ZM16.0349 18.2672H9.03678C8.78098 18.2672 8.57345 18.0597 8.57345 17.8039C8.57345 17.5481 8.78098 17.3405 9.03678 17.3405H16.0349C16.2907 17.3405 16.4983 17.5481 16.4983 17.8039C16.4983 18.0597 16.2907 18.2672 16.0349 18.2672ZM32.3198 3.78917C32.2531 3.78917 32.1856 3.77469 32.1213 3.74422C31.8903 3.63443 31.7919 3.35812 31.9017 3.12706L33.2618 0.264452C33.3713 0.033091 33.6479 -0.0646418 33.879 0.0448551C34.1101 0.154654 34.2084 0.43096 34.0986 0.66202L32.7385 3.52463C32.6592 3.69174 32.493 3.78917 32.3198 3.78917ZM33.9131 5.24822C33.7478 5.24822 33.5879 5.15954 33.5044 5.00359C33.3834 4.77826 33.4685 4.49743 33.6941 4.37647L35.9745 3.15451C36.2002 3.03385 36.481 3.11861 36.602 3.34394C36.7229 3.56957 36.6379 3.8504 36.4125 3.97136L34.1315 5.19332C34.0618 5.23073 33.987 5.24822 33.9131 5.24822Z" fill="#051328"/>
<path d="M36.8428 7.98072C36.8048 7.98072 36.7662 7.9762 36.7276 7.96624L34.4501 7.38256C34.2022 7.31891 34.0526 7.06644 34.1162 6.81879C34.1799 6.57114 34.4305 6.41971 34.68 6.48486L36.9574 7.06855C37.2054 7.13219 37.355 7.38467 37.2913 7.63232C37.2376 7.84166 37.0494 7.98072 36.8428 7.98072Z" fill="#051328"/>
</svg>
