<svg width="39" height="40" viewBox="0 0 39 40" fill="none" xmlns="http://www.w3.org/2000/svg">
<g clip-path="url(#clip0_986_3120)">
<path d="M36.2231 26.8753C36.2912 25.9494 36.2756 25.0064 36.079 23.8617C37.3667 23.0317 38.1357 21.4738 38.0942 19.6929C38.0619 18.2932 37.4831 15.5576 35.5229 15.2236C34.8289 15.1066 34.2241 15.315 33.6602 15.451C33.1643 15.5747 32.509 15.7422 31.864 15.9702C31.8163 15.9246 31.7699 15.8787 31.7208 15.8332C34.3465 14.2126 32.9498 11.3902 30.0806 10.4396C31.1936 8.53373 31.9721 6.63698 32.4724 3.98781C32.5167 3.75468 32.376 3.52634 32.148 3.4608C29.4237 2.67618 26.6177 2.28197 23.3555 1.66788C20.9733 1.19645 20.235 0.757532 19.5571 1.15781C19.3023 1.07432 15.4403 0.684068 14.8452 0.632106C14.4741 0.603938 14.1157 0.763598 13.8786 1.03773C10.9852 2.34545 8.54383 3.68032 5.29069 5.2223C4.96149 5.36954 4.46441 5.59189 4.33542 6.10723C4.04686 7.18477 5.24862 7.03679 7.17698 9.96272C7.34996 10.2284 7.50416 10.5001 7.64784 10.7749C6.20963 11.1168 4.05748 12.2945 3.70845 13.8772C3.577 14.4732 3.66165 15.3605 4.73775 16.2468C2.38333 18.1233 0.873813 20.6824 0.586776 23.37C-0.104762 30.0123 3.7367 36.3605 10.3139 38.6291C15.4049 40.3959 21.2488 39.7678 25.6432 38.4079C29.4371 40.8723 34.9279 39.8508 37.2691 36.284C39.0895 33.5099 38.9897 29.6002 36.2231 26.8753ZM34.2552 16.2489C34.6008 16.1552 35.0033 16.0681 35.369 16.1298C36.6293 16.3446 37.1455 18.4422 37.1748 19.7138C37.2062 21.0506 36.7295 22.1947 35.8769 22.8902C35.3423 20.6716 34.2465 18.5168 32.5798 16.6972C33.0862 16.5394 33.5816 16.4176 34.2552 16.2489ZM30.9554 6.25081C29.7267 6.00165 29.0267 4.87984 29.2659 3.70332C30.0045 3.85965 30.749 4.02918 31.4851 4.22992C31.2134 5.502 31.1003 5.79318 30.9554 6.25081ZM28.3548 3.51609C28.0343 5.10156 28.9635 6.71701 30.656 7.13335C29.7367 9.5834 28.5063 11.1613 28.4876 11.2226C27.9532 12.0106 26.0254 14.2361 25.521 14.8004C25.4624 14.866 25.4341 14.9447 25.4195 15.0253C21.6625 16.0845 17.7403 16.3822 13.8727 15.9097C14.8237 14.8986 15.4014 14.4286 17.049 11.4276C18.2136 9.17208 18.4984 8.3641 19.0788 6.45704C20.8804 5.76255 22.3825 4.32804 23.1789 2.56999C26.1607 3.11964 26.6727 3.1867 28.3548 3.51609ZM28.1154 13.8317C27.9696 14.1584 27.4019 14.4056 26.9453 14.5673C27.0823 14.4076 27.8723 13.476 27.9245 13.4144C28.0782 13.581 28.16 13.7364 28.1154 13.8317ZM12.7464 14.4012C13.0954 11.9168 12.8341 13.7885 14.105 4.64519C15.3519 4.14762 16.3149 3.03774 16.633 1.73353C17.5409 1.83083 18.4361 1.93381 18.9932 1.99898C18.9223 2.55563 19.06 2.06105 18.8177 3.42698C18.3462 5.9838 17.88 7.80559 16.2472 10.9778C14.5291 14.1027 14.1675 14.217 12.7576 15.7684C12.6567 15.7522 12.5569 15.7267 12.4562 15.7094C12.5147 15.3211 12.6931 14.7946 12.7464 14.4012ZM19.9755 1.98091C20.1181 1.85354 20.2205 1.87914 22.264 2.36289C21.649 3.61952 20.6202 4.6725 19.3776 5.31619C20.1259 2.14623 19.7713 2.15456 19.9755 1.98091ZM15.7091 1.63739C15.4835 2.4159 14.9489 3.10942 14.2587 3.54134L14.5076 1.75407C14.5238 1.64157 14.6331 1.53488 14.7673 1.54817C15.0541 1.57316 15.3743 1.60376 15.7091 1.63739ZM13.5148 2.2179C13.3891 3.12067 11.8237 14.3618 11.8357 14.2755C11.795 14.5779 11.6332 15.0611 11.5554 15.5329C11.2768 15.4761 10.5902 15.3752 9.95098 15.1425C9.9606 15.0886 9.96344 15.0325 9.9524 14.9755C9.31418 11.6679 8.48758 10.0668 7.20687 8.43446C7.87289 7.47336 8.05504 6.19743 7.66565 5.0926C10.4246 3.72469 11.6931 3.06654 13.5148 2.2179ZM8.6902 13.5331C8.77321 13.8516 8.84518 14.1622 8.90833 14.4573C8.61267 14.0818 8.60522 13.7877 8.6902 13.5331ZM5.59804 6.70577C5.42049 6.53883 5.23739 6.4335 5.22545 6.33797C5.25422 6.22327 5.51234 6.14784 6.83073 5.50413C7.05331 6.23102 6.9602 7.04256 6.5866 7.7032C6.38869 7.48273 6.17537 7.22356 5.59804 6.70577ZM4.60626 14.0753C4.834 13.0419 6.45634 12.0055 7.84615 11.6718L8.0617 11.6637C8.28627 12.1852 8.28563 12.2198 8.36321 12.4496C7.38082 13.2352 7.50867 14.7898 8.88731 15.6521C9.43317 15.993 10.0515 16.1549 10.5889 16.2797C15.9719 17.526 21.598 17.2833 26.8548 15.5668C27.5063 15.3579 28.5972 15.0084 28.9515 14.2138C29.1792 13.7271 29.0172 13.1935 28.5187 12.7046C28.9632 12.158 29.1991 11.821 29.5776 11.2513C30.2222 11.4357 30.7815 11.718 31.2687 12.1231C31.8059 12.5679 32.3234 13.2879 32.1642 13.9786C31.9922 14.7517 31.0782 15.157 30.4113 15.4687C23.2624 18.5305 14.9203 18.9372 7.52414 16.5855C6.2632 16.1847 4.32047 15.3706 4.60626 14.0753ZM10.6144 37.7603C4.43366 35.6277 0.854981 29.6733 1.50104 23.4663C1.77136 20.9357 3.24552 18.5167 5.546 16.7776C6.1133 17.0824 6.71334 17.2925 7.24551 17.4618C10.5117 18.5003 13.9566 19.0156 17.4084 19.0156C22.5358 19.0153 27.6115 17.7806 30.837 16.2846C33.9256 19.0322 35.3792 22.6967 35.3379 26.1065C33.8629 24.9925 32.8213 24.7386 30.9428 24.5368C25.3516 23.9536 20.743 29.1625 22.4849 34.3253C22.9385 35.6704 23.7172 36.8214 24.7321 37.7157C20.1042 39.009 15.1904 39.3476 10.6144 37.7603ZM36.5006 35.7795C33.5325 40.3015 25.3369 39.9059 23.3561 34.0314C21.8309 29.5077 25.9111 24.9328 30.8456 25.4511C31.9529 25.5699 33.0267 25.7243 33.99 26.3034C37.9266 28.6751 38.4029 32.8806 36.5006 35.7795Z" fill="#051328"/>
<path d="M11.1725 28.2069C11.9789 26.4573 12.3203 23.8706 10.5771 22.913C10.5874 22.2576 9.90298 22.0266 9.22989 21.8317C8.31038 21.5655 7.34992 21.3011 6.41339 21.5168C6.21703 21.562 6.17779 21.5745 6.12755 21.7116C6.08071 21.8394 6.03889 21.9495 5.96321 22.0615C4.83506 22.1143 3.87184 22.5295 3.6465 23.6221C3.43671 24.6408 2.87528 28.1097 4.44614 29.9795C5.91167 31.7229 9.57479 31.6733 11.1725 28.2069ZM5.15002 29.3881C4.11276 28.1537 4.15825 25.6958 4.5467 23.8077C4.57722 23.6601 4.6299 23.5401 4.70771 23.4417C4.86041 23.248 5.10921 23.1309 5.40706 23.0604C5.50175 23.3289 5.85234 23.4061 6.15774 23.4667C9.50839 24.1315 9.66872 24.2091 9.9904 24.0934C10.1391 24.0399 10.2402 23.9438 10.3139 23.8305C11.318 24.5937 10.8653 26.677 10.3376 27.8221C9.09856 30.5097 6.29015 30.7443 5.15002 29.3881ZM20.2942 35.7294C20.5364 35.6536 20.6713 35.3957 20.5956 35.1533C20.5196 34.9109 20.2622 34.775 20.0195 34.8519C18.4277 35.3499 16.6845 35.4696 14.9792 35.1976C14.7299 35.1569 14.4929 35.328 14.4528 35.5791C14.413 35.8299 14.5836 36.0654 14.8344 36.1055C16.7343 36.4086 18.622 36.2528 20.2942 35.7294ZM12.6353 34.5619C11.7974 34.2345 11.0106 33.8101 10.2966 33.3011C10.0904 33.1536 9.80246 33.2017 9.65552 33.4082C9.50798 33.615 9.55587 33.902 9.76266 34.0493C10.5384 34.6026 11.3922 35.0632 12.3008 35.4184C12.5398 35.5107 12.8045 35.3925 12.8963 35.1575C12.9885 34.921 12.8718 34.6544 12.6353 34.5619Z" fill="#051328"/>
<path d="M31.8506 35.8375L29.1005 33.0683L28.9837 32.6321L29.2017 32.5737C29.552 32.4798 29.8372 32.368 30.0574 32.2381C30.2842 32.1065 30.4467 31.9461 30.5447 31.757C30.6428 31.5678 30.6696 31.3375 30.6252 31.066L28.7021 31.5813L28.5321 30.9469L30.4453 30.4343C30.3335 30.2021 30.1879 30.0287 30.0084 29.9139C29.8271 29.7925 29.6078 29.7273 29.3504 29.7183C29.0996 29.7076 28.8057 29.7474 28.4686 29.8377L28.2506 29.8961L28.0806 29.2617L32.1845 28.1621L32.3545 28.7965L30.481 29.2985C30.6666 29.3833 30.832 29.4984 30.9772 29.6437C31.1223 29.7889 31.2391 29.9737 31.3275 30.1979L32.636 29.8473L32.806 30.4817L31.5174 30.827C31.6004 31.3218 31.5163 31.7481 31.265 32.1058C31.0187 32.4551 30.6409 32.737 30.1317 32.9513L32.8617 35.5666L31.8506 35.8375Z" fill="black"/>
</g>
<defs>
<clipPath id="clip0_986_3120">
<rect width="38" height="40" fill="white" transform="translate(0.5)"/>
</clipPath>
</defs>
</svg>
