<svg width="40" height="40" viewBox="0 0 40 40" fill="none" xmlns="http://www.w3.org/2000/svg">
<g clip-path="url(#clip0_4442_41439)">
<path d="M20.3546 -0.00012207C19.1585 -0.00012198 17.9893 0.354582 16.9949 1.01913C16.0004 1.68367 15.2253 2.62821 14.7677 3.73328C14.3101 4.83834 14.1905 6.05429 14.424 7.22734C14.6575 8.40039 15.2337 9.47784 16.0796 10.3234C16.9255 11.169 18.0032 11.7447 19.1763 11.9778C20.3495 12.2108 21.5654 12.0908 22.6703 11.6327C23.7751 11.1747 24.7194 10.3993 25.3835 9.40456C26.0477 8.40984 26.4019 7.2405 26.4015 6.04444C26.3996 4.44149 25.7619 2.90476 24.6282 1.77152C23.4945 0.63828 21.9575 0.00112041 20.3546 -0.00012207ZM20.3546 11.1524C19.3443 11.1524 18.3568 10.8528 17.5168 10.2915C16.6768 9.73027 16.0221 8.93252 15.6355 7.99916C15.2488 7.06581 15.1477 6.03877 15.3448 5.04793C15.5419 4.05708 16.0284 3.14693 16.7427 2.43257C17.4571 1.71821 18.3672 1.23173 19.3581 1.03464C20.3489 0.837547 21.3759 0.938702 22.3093 1.32531C23.2427 1.71192 24.0404 2.36662 24.6017 3.20661C25.1629 4.04661 25.4625 5.03418 25.4625 6.04444C25.4613 7.39877 24.9227 8.69727 23.9651 9.65493C23.0074 10.6126 21.7089 11.1511 20.3546 11.1524ZM36.784 30.6405H36.7535H32.2653H31.6174V33.3189H36.7394C36.7793 33.3189 36.8175 33.3347 36.8457 33.3629C36.8738 33.3911 36.8897 33.4293 36.8897 33.4691V39.8306L39.5892 39.8165V33.4785C39.5886 32.7317 39.2939 32.0151 38.7689 31.4839C38.2439 30.9528 37.5308 30.6498 36.784 30.6405ZM38.662 38.894H37.8404V33.4809C37.8398 33.1922 37.7248 32.9155 37.5207 32.7114C37.3165 32.5072 37.0399 32.3923 36.7512 32.3917H32.5564V31.5889H36.7535C37.2568 31.5895 37.7392 31.7898 38.0948 32.1459C38.4505 32.502 38.6502 32.9847 38.6502 33.4879L38.662 38.894ZM10.9392 39.84C10.0727 39.8394 9.24197 39.4949 8.62931 38.8822C8.01665 38.2696 7.67219 37.4388 7.67157 36.5724V24.3119H8.61053V36.57C8.61053 37.1876 8.85587 37.7799 9.29257 38.2166C9.72927 38.6533 10.3216 38.8987 10.9392 38.8987C11.5567 38.8987 12.149 38.6533 12.5857 38.2166C13.0224 37.7799 13.2678 37.1876 13.2678 36.57V24.3119H14.2067V36.57C14.2067 37.4369 13.8625 38.2682 13.2498 38.8814C12.6371 39.4946 11.806 39.8394 10.9392 39.84Z" fill="#051328"/>
<path d="M7.66218 21.1853V35.8449H8.60114V21.1853C8.60097 20.9232 8.61743 20.6613 8.65043 20.4013C8.33457 20.4829 8.01276 20.5394 7.688 20.5703C7.67157 20.7722 7.66218 20.9788 7.66218 21.1853ZM37.4554 26.697L32.9085 17.9764C32.2465 16.7008 31.2464 15.6318 30.0176 14.8866C28.7887 14.1413 27.3786 13.7485 25.9414 13.7511H15.0987C14.7904 13.7509 14.4823 13.7697 14.1762 13.8074C13.8598 13.8464 13.5462 13.9052 13.2373 13.9835C13.2513 14.1314 13.256 14.2816 13.256 14.4342C13.256 14.5868 13.256 14.7887 13.2326 14.9624C13.5442 14.8674 13.8629 14.7975 14.1856 14.7535C14.4842 14.711 14.7854 14.6898 15.087 14.6901H16.3476C16.4639 15.6686 16.9351 16.5704 17.6719 17.2247C18.4086 17.8791 19.3598 18.2405 20.3452 18.2405C21.3306 18.2405 22.2817 17.8791 23.0185 17.2247C23.7553 16.5704 24.2264 15.6686 24.3428 14.6901H25.932C27.1975 14.6871 28.4394 15.0327 29.5214 15.689C30.6034 16.3454 31.4837 17.287 32.0658 18.4107L36.6127 27.1313C36.8891 27.6845 36.9384 28.3238 36.7502 28.9129C36.5619 29.5019 36.1509 29.9941 35.6049 30.2844C35.0588 30.5747 34.421 30.6402 33.8273 30.4669C33.2337 30.2936 32.7313 29.8952 32.4273 29.3566L29.054 23.3215C28.9374 23.1112 28.7541 22.9456 28.5331 22.8508C28.312 22.756 28.0658 22.7374 27.833 22.7979C27.6002 22.8584 27.3941 22.9945 27.2472 23.1849C27.1002 23.3753 27.0207 23.6091 27.0212 23.8496V38.9012H14.2044V23.8496H13.2654V39.8401H27.9695V23.8496C27.9688 23.8168 27.9792 23.7846 27.9991 23.7584C28.0189 23.7322 28.0471 23.7135 28.0789 23.7053C28.1107 23.6972 28.1444 23.7 28.1744 23.7134C28.2044 23.7269 28.229 23.75 28.2442 23.7792L31.6151 29.8097C32.0269 30.5695 32.7201 31.1376 33.5461 31.3922C34.372 31.6467 35.2648 31.5674 36.0329 31.1712C36.3065 31.0298 36.5593 30.8513 36.784 30.6407C37.3106 30.1464 37.6611 29.4936 37.7823 28.7816C37.9035 28.0697 37.7887 27.3377 37.4554 26.697ZM20.3546 17.3074C19.6173 17.3071 18.9044 17.0431 18.3447 16.5631C17.7851 16.0831 17.4156 15.4187 17.303 14.6901H23.4062C23.2931 15.4185 22.9235 16.0826 22.3639 16.5625C21.8044 17.0424 21.0918 17.3066 20.3546 17.3074Z" fill="#051328"/>
<path d="M20.3546 22.8003C20.772 22.8003 21.1105 22.4619 21.1105 22.0444C21.1105 21.627 20.772 21.2886 20.3546 21.2886C19.9371 21.2886 19.5987 21.627 19.5987 22.0444C19.5987 22.4619 19.9371 22.8003 20.3546 22.8003Z" fill="#051328"/>
<path d="M20.3546 27.8164C20.772 27.8164 21.1105 27.478 21.1105 27.0606C21.1105 26.6431 20.772 26.3047 20.3546 26.3047C19.9371 26.3047 19.5987 26.6431 19.5987 27.0606C19.5987 27.478 19.9371 27.8164 20.3546 27.8164Z" fill="#051328"/>
<path d="M20.3546 32.8331C20.772 32.8331 21.1105 32.4947 21.1105 32.0773C21.1105 31.6598 20.772 31.3214 20.3546 31.3214C19.9371 31.3214 19.5987 31.6598 19.5987 32.0773C19.5987 32.4947 19.9371 32.8331 20.3546 32.8331Z" fill="#051328"/>
<path d="M14.1739 13.9837C14.0518 12.6115 13.5332 11.3045 12.6814 10.2218C11.8295 9.13918 10.681 8.32771 9.37605 7.88632C8.07106 7.44492 6.66585 7.39266 5.33167 7.7359C3.9975 8.07914 2.79198 8.80306 1.86202 9.81944C0.932066 10.8358 0.31784 12.1008 0.0941976 13.4601C-0.129444 14.8194 0.0471554 16.2145 0.602476 17.4752C1.1578 18.736 2.06785 19.8079 3.22174 20.5605C4.37563 21.3131 5.72352 21.7138 7.10114 21.7137C7.28846 21.7146 7.47571 21.706 7.66217 21.6879C7.97817 21.6666 8.29208 21.6211 8.60113 21.5518C10.1344 21.2191 11.5146 20.3885 12.5264 19.1894C13.5383 17.9903 14.1249 16.4901 14.195 14.9227C14.195 14.8171 14.195 14.7114 14.195 14.6035C14.1984 14.3967 14.1913 14.1898 14.1739 13.9837ZM8.65042 20.5565C8.33456 20.638 8.01275 20.6945 7.68799 20.7255C7.4955 20.7443 7.29832 20.7537 7.10114 20.7537C5.90107 20.7541 4.72696 20.4042 3.72287 19.747C2.71877 19.0897 1.92836 18.1537 1.4486 17.0537C0.968842 15.9537 0.820601 14.7376 1.02207 13.5545C1.22353 12.3715 1.76594 11.273 2.58274 10.3938C3.39955 9.51458 4.45523 8.89291 5.62027 8.60506C6.78531 8.31721 8.00903 8.37568 9.14132 8.77331C10.2736 9.17094 11.2652 9.89043 11.9944 10.8435C12.7237 11.7966 13.1589 12.9418 13.2466 14.1387C13.2607 14.2866 13.2654 14.4368 13.2654 14.5894C13.2654 14.742 13.2654 14.9438 13.2419 15.1175C13.1312 16.3871 12.6305 17.5912 11.8085 18.565C10.9865 19.5387 9.88337 20.2344 8.65042 20.5565Z" fill="#051328"/>
<path d="M14.1739 13.9837C14.0518 12.6115 13.5332 11.3045 12.6814 10.2218C11.8295 9.13918 10.681 8.32771 9.37605 7.88632C8.07106 7.44492 6.66585 7.39266 5.33167 7.7359C3.9975 8.07914 2.79198 8.80305 1.86202 9.81943C0.932066 10.8358 0.31784 12.1007 0.0941976 13.4601C-0.129444 14.8194 0.0471554 16.2145 0.602476 17.4752C1.1578 18.7359 2.06785 19.8079 3.22174 20.5605C4.37563 21.3131 5.72352 21.7137 7.10114 21.7137C7.28846 21.7146 7.47571 21.7059 7.66217 21.6879C7.97817 21.6665 8.29208 21.621 8.60113 21.5517C10.1344 21.2191 11.5146 20.3885 12.5264 19.1894C13.5383 17.9903 14.1249 16.4901 14.195 14.9227C14.195 14.817 14.195 14.7114 14.195 14.6034C14.1984 14.3966 14.1913 14.1898 14.1739 13.9837ZM8.65042 20.5564C8.33456 20.638 8.01275 20.6945 7.68799 20.7254C7.4955 20.7442 7.29832 20.7536 7.10114 20.7536C5.90107 20.754 4.72696 20.4042 3.72287 19.7469C2.71877 19.0897 1.92836 18.1537 1.4486 17.0537C0.968842 15.9537 0.820601 14.7376 1.02207 13.5545C1.22353 12.3715 1.76594 11.273 2.58274 10.3938C3.39955 9.51457 4.45523 8.89291 5.62027 8.60506C6.78531 8.3172 8.00903 8.37568 9.14132 8.77331C10.2736 9.17093 11.2652 9.89042 11.9944 10.8435C12.7237 11.7966 13.1589 12.9418 13.2466 14.1387C13.2607 14.2865 13.2654 14.4368 13.2654 14.5893C13.2654 14.7419 13.2654 14.9438 13.2419 15.1175C13.1312 16.387 12.6305 17.5912 11.8085 18.5649C10.9865 19.5387 9.88337 20.2343 8.65042 20.5564Z" fill="#051328"/>
<path d="M6.82771 18.6766L4.77016 15.0841V14.6051H5.00967C5.39432 14.6051 5.71729 14.5688 5.97857 14.4962C6.2471 14.4237 6.45757 14.3039 6.60998 14.137C6.76239 13.9701 6.85311 13.7414 6.88215 13.4511H4.77016V12.7544H6.87126C6.82046 12.4859 6.71885 12.2681 6.56644 12.1012C6.41403 11.927 6.20718 11.8 5.94591 11.7202C5.69189 11.6403 5.37981 11.6004 5.00967 11.6004H4.77016V10.9037H9.27717V11.6004H7.21963C7.38655 11.7383 7.52445 11.9016 7.63331 12.0903C7.74218 12.279 7.81113 12.5004 7.84016 12.7544H9.27717V13.4511H7.86193C7.81113 13.9809 7.60791 14.3946 7.25229 14.6922C6.90392 14.9825 6.43943 15.1676 5.85881 15.2474L7.93814 18.6766H6.82771Z" fill="#051328"/>
<path d="M13.8688 14.6124C13.8688 17.9312 10.8682 20.6217 7.16663 20.6217C3.46511 20.6217 0.464436 17.9312 0.464436 14.6124" stroke="#051328" stroke-width="0.751168"/>
<path d="M31.9527 31.8823H36.5958C37.4255 31.8823 38.0981 32.5549 38.0981 33.3847V39.6228" stroke="#051328" stroke-width="1.50234"/>
</g>
<defs>
<clipPath id="clip0_4442_41439">
<rect width="40" height="40" fill="white"/>
</clipPath>
</defs>
</svg>
