<svg width="40" height="40" viewBox="0 0 40 40" fill="none" xmlns="http://www.w3.org/2000/svg">
<path d="M3 36.7621C3 36.1753 3.4865 35.6997 4.08664 35.6997H35.9133C36.5135 35.6997 37 36.1753 37 36.7621C37 37.3485 36.5135 37.8242 35.9133 37.8242H4.08664C3.4865 37.8242 3 37.3485 3 36.7621ZM3 2.76656C3 2.17986 3.4865 1.70422 4.08664 1.70422H35.9133C36.5135 1.70422 37 2.17986 37 2.76656C37 3.3533 36.5135 3.82894 35.9133 3.82894H4.08664C3.4865 3.82894 3 3.3533 3 2.76656Z" fill="#051328"/>
<path d="M7.04745 5.68695C7.04745 4.06645 8.3911 2.75281 10.0486 2.75281H29.896C31.5535 2.75281 32.8972 4.06645 32.8972 5.68695V33.9501C32.8972 35.5706 31.5535 36.8843 29.896 36.8843H10.0486C8.3911 36.8843 7.04745 35.5706 7.04745 33.9501V5.68695Z" fill="white"/>
<path fill-rule="evenodd" clip-rule="evenodd" d="M10.0487 2.01917H29.8961C31.968 2.01917 33.6476 3.66122 33.6476 5.68683V33.95C33.6476 35.9755 31.968 37.6175 29.8961 37.6175H10.0487C7.97683 37.6175 6.29727 35.9755 6.29727 33.95V5.68683C6.29727 3.66122 7.97683 2.01917 10.0487 2.01917ZM10.0487 2.75269C8.39123 2.75269 7.04755 4.06633 7.04755 5.68683V33.95C7.04755 35.5705 8.39119 36.8842 10.0487 36.8842H29.8961C31.5536 36.8842 32.8973 35.5705 32.8973 33.95V5.68683C32.8973 4.06633 31.5536 2.75269 29.8961 2.75269H10.0487Z" fill="#051328"/>
<path d="M7.04745 32.741H32.8972V34.0227H7.04745V32.741Z" fill="#051328"/>
<path d="M4.61035 2.93426C4.61035 1.71891 5.61808 0.733643 6.86123 0.733643H33.0838C34.3269 0.733643 35.3345 1.71891 35.3345 2.93426V3.13989C35.3345 4.35527 34.3269 5.3405 33.0838 5.3405H6.86119C5.61808 5.3405 4.61035 4.35527 4.61035 3.13989V2.93426Z" fill="white"/>
<path fill-rule="evenodd" clip-rule="evenodd" d="M6.86132 0H33.0838C34.7414 0 36.085 1.31368 36.085 2.93414V3.13977C36.085 4.76027 34.7414 6.07391 33.0838 6.07391H6.86132C5.20381 6.07391 3.86017 4.76027 3.86017 3.13977V2.93414C3.86017 1.31368 5.20381 0 6.86132 0ZM6.86132 0.733525C5.61818 0.733525 4.61045 1.7188 4.61045 2.93414V3.13977C4.61045 4.35515 5.61818 5.34038 6.86132 5.34038H33.0838C34.3269 5.34038 35.3346 4.35515 35.3346 3.13977V2.93414C35.3346 1.7188 34.327 0.733525 33.0838 0.733525H6.86132Z" fill="#051328"/>
<path fill-rule="evenodd" clip-rule="evenodd" d="M26.9571 1.88277C26.9571 1.6802 27.125 1.51599 27.3322 1.51599H33.9129C34.1201 1.51599 34.288 1.6802 34.288 1.88277C34.288 2.08531 34.1201 2.24952 33.9129 2.24952H27.3322C27.125 2.24952 26.9571 2.08531 26.9571 1.88277Z" fill="#051328"/>
<path d="M6.56025 5.34238H33.3849C34.0985 5.34238 34.7226 4.96757 35.0624 4.40833L4.90274 4.44048C5.2467 4.9819 5.86043 5.34238 6.56025 5.34238Z" fill="#051328"/>
<path d="M4.61035 36.6135C4.61035 35.3981 5.61808 34.4127 6.86123 34.4127H33.0838C34.3269 34.4127 35.3345 35.3981 35.3345 36.6135V37.0682C35.3345 38.2836 34.3269 39.2686 33.0838 39.2686H6.86119C5.61808 39.2686 4.61035 38.2836 4.61035 37.0682V36.6135Z" fill="white"/>
<path fill-rule="evenodd" clip-rule="evenodd" d="M6.86132 33.6758H33.0838C34.7414 33.6758 36.085 34.9893 36.085 36.61V37.0648C36.085 38.6852 34.7414 39.9989 33.0838 39.9989H6.86132C5.20381 39.9989 3.86017 38.6852 3.86017 37.0648V36.61C3.86017 34.9893 5.20381 33.6758 6.86132 33.6758ZM6.86132 34.4093C5.61818 34.4093 4.61045 35.3947 4.61045 36.61V37.0648C4.61045 38.2802 5.61818 39.2652 6.86132 39.2652H33.0838C34.3269 39.2652 35.3346 38.2802 35.3346 37.0648V36.61C35.3346 35.3947 34.327 34.4093 33.0838 34.4093H6.86132Z" fill="#051328"/>
<path d="M6.56025 39.3331H33.3849C34.0985 39.3331 34.7226 38.9582 35.0624 38.399L4.90274 38.4312C5.2467 38.9726 5.86043 39.3331 6.56025 39.3331Z" fill="#051328"/>
<path fill-rule="evenodd" clip-rule="evenodd" d="M9 8.33964C9 8.15207 9.17454 8 9.38982 8H29.6101C29.8255 8 30 8.15207 30 8.33964C30 8.52725 29.8255 8.67932 29.6101 8.67932H9.38982C9.17454 8.67932 9 8.52725 9 8.33964ZM9 14.1876C9 14 9.17454 13.8479 9.38982 13.8479H29.6101C29.8255 13.8479 30 14 30 14.1876C30 14.3752 29.8255 14.5273 29.6101 14.5273H9.38982C9.17454 14.5273 9 14.3752 9 14.1876ZM9 15.9898C9 15.8022 9.17454 15.6502 9.38982 15.6502H29.6101C29.8255 15.6502 30 15.8022 30 15.9898C30 16.1774 29.8255 16.3295 29.6101 16.3295H9.38982C9.17454 16.3295 9 16.1774 9 15.9898ZM9 17.792C9 17.6044 9.17454 17.4524 9.38982 17.4524H29.6101C29.8255 17.4524 30 17.6044 30 17.792C30 17.9796 29.8255 18.1317 29.6101 18.1317H9.38982C9.17454 18.1317 9 17.9796 9 17.792ZM9 19.5574C9 19.3699 9.17454 19.2178 9.38982 19.2178H21.5051C21.7205 19.2178 21.895 19.3699 21.895 19.5574C21.895 19.745 21.7205 19.8971 21.5051 19.8971H9.38982C9.17454 19.8971 9 19.745 9 19.5574ZM9 10.101C9 9.91348 9.17454 9.76141 9.38982 9.76141H20.4275C20.6428 9.76141 20.8174 9.91348 20.8174 10.101C20.8174 10.2887 20.6428 10.4407 20.4275 10.4407H9.38982C9.17454 10.4407 9 10.2887 9 10.101ZM9 26.2473C9 26.0597 9.17454 25.9076 9.38982 25.9076H15.0242C15.2395 25.9076 15.414 26.0597 15.414 26.2473C15.414 26.4349 15.2395 26.587 15.0242 26.587H9.38982C9.17454 26.587 9 26.4349 9 26.2473ZM24.7896 24.4101C24.9358 24.2827 25.1342 24.2111 25.341 24.2111H27.9456C28.3762 24.2111 28.7253 24.5153 28.7253 24.8905V28.3207C28.7253 28.5772 28.5594 28.8119 28.2964 28.9274C28.0334 29.0428 27.7182 29.0193 27.4815 28.8666L26.6433 28.3256L25.805 28.8666C25.5684 29.0193 25.2532 29.0428 24.9902 28.9274C24.7272 28.8119 24.5613 28.5772 24.5613 28.3207V24.8905C24.5613 24.7103 24.6434 24.5375 24.7896 24.4101ZM26.6433 27.4802L27.9456 28.3207V24.8905H25.341V28.3207L26.6433 27.4802Z" fill="#051328"/>
<rect x="21.0793" y="24.9326" width="6.52048" height="4.34699" fill="white"/>
<path d="M30.0411 28.2323L30.0411 28.2323C30.0917 28.1028 30.1715 27.9912 30.2548 27.8927C30.3105 27.8268 30.3736 27.7605 30.4328 27.6982C30.4597 27.6699 30.4858 27.6424 30.5101 27.6162C30.677 27.4359 30.7833 27.2865 30.7833 27.106C30.7833 26.9255 30.677 26.7761 30.5101 26.5958C30.4858 26.5696 30.4597 26.5421 30.4328 26.5138C30.3736 26.4516 30.3105 26.3852 30.2548 26.3193C30.1715 26.2208 30.0917 26.1092 30.0411 25.9798C29.9933 25.8576 29.9818 25.7283 29.9825 25.6073C29.9831 25.514 29.9913 25.4166 29.9989 25.3268C30.001 25.3018 30.0031 25.2773 30.0049 25.2537C30.0233 25.0171 30.0165 24.8602 29.929 24.7551L29.929 24.7551C29.7839 24.5809 29.6235 24.5197 29.4217 24.4728C29.3807 24.4633 29.3369 24.4543 29.2909 24.4449C29.1138 24.4085 28.9032 24.3652 28.6884 24.259L28.6884 24.259C28.5443 24.1878 28.3985 24.0936 28.2552 23.9965C28.2101 23.966 28.1655 23.9354 28.1211 23.9049C28.0212 23.8363 27.922 23.7681 27.8199 23.703C27.5235 23.5141 27.2422 23.3779 26.9666 23.3779C26.691 23.3779 26.4098 23.5141 26.1134 23.703C26.0114 23.7681 25.9122 23.8362 25.8123 23.9048C25.7678 23.9354 25.7232 23.966 25.6781 23.9965C25.5348 24.0936 25.389 24.1878 25.2449 24.259L25.2449 24.259C25.0301 24.3652 24.8195 24.4085 24.6424 24.4449C24.5964 24.4543 24.5526 24.4633 24.5116 24.4728C24.3098 24.5197 24.1494 24.5809 24.0043 24.7551L30.0411 28.2323ZM30.0411 28.2323C29.99 28.3629 29.9717 28.5007 29.9652 28.6316C29.9606 28.7242 29.9618 28.8213 29.9629 28.9121C29.9633 28.9472 29.9637 28.9813 29.9637 29.014C29.9642 29.2657 29.9429 29.4459 29.8303 29.5706L29.8303 29.5706M30.0411 28.2323L29.8303 29.5706M29.8303 29.5706C29.6792 29.738 29.4628 29.8009 29.1841 29.8452C29.1308 29.8537 29.0747 29.8614 29.0167 29.8695C28.7879 29.9011 28.5297 29.9369 28.3007 30.0358L28.3007 30.0358M29.8303 29.5706L28.3007 30.0358M28.3007 30.0358C28.161 30.0962 28.0366 30.1824 27.9231 30.2717C27.8602 30.3213 27.7926 30.3787 27.7278 30.4337C27.6825 30.4722 27.6386 30.5094 27.5987 30.542C27.3864 30.7152 27.196 30.8341 26.9666 30.8341C26.7373 30.8341 26.5469 30.7152 26.3346 30.542C26.2947 30.5094 26.2508 30.4722 26.2055 30.4337C26.1407 30.3787 26.0731 30.3213 26.0101 30.2717C25.8967 30.1823 25.7723 30.0962 25.6325 30.0358L25.6325 30.0358M28.3007 30.0358L25.6325 30.0358M25.6325 30.0358C25.4036 29.9369 25.1454 29.9011 24.9166 29.8695M25.6325 30.0358L24.9166 29.8695M24.9166 29.8695C24.8586 29.8614 24.8025 29.8537 24.7492 29.8452M24.9166 29.8695L24.7492 29.8452M24.7492 29.8452C24.4705 29.8009 24.2541 29.738 24.103 29.5707M24.7492 29.8452L24.103 29.5707M24.103 29.5707C23.9904 29.446 23.9691 29.2657 23.9696 29.014C23.9696 28.9814 23.97 28.9472 23.9705 28.9122C23.9715 28.8213 23.9727 28.7243 23.9681 28.6316C23.9616 28.5006 23.9433 28.3629 23.8922 28.2323L24.103 29.5707ZM23.8922 28.2322C23.8416 28.1028 23.7618 27.9912 23.6785 27.8927C23.6227 27.8268 23.5597 27.7605 23.5005 27.6982C23.4736 27.6699 23.4475 27.6424 23.4232 27.6162C23.2562 27.4359 23.15 27.2865 23.15 27.106C23.15 26.9254 23.2562 26.7761 23.4232 26.5958C23.4475 26.5696 23.4736 26.5421 23.5005 26.5138C23.5597 26.4516 23.6227 26.3852 23.6785 26.3193C23.7618 26.2208 23.8416 26.1092 23.8922 25.9798C23.94 25.8576 23.9515 25.7283 23.9508 25.6073C23.9502 25.514 23.942 25.4166 23.9344 25.3268C23.9323 25.3017 23.9302 25.2773 23.9284 25.2538C23.91 25.0171 23.9168 24.8602 24.0043 24.7551L23.8922 28.2322Z" fill="white" stroke="black" stroke-width="0.3"/>
<path d="M27.0446 28.8495L26.1316 27.4629V27.2781H26.2379C26.4086 27.2781 26.5519 27.2641 26.6678 27.236C26.787 27.208 26.8804 27.1618 26.948 27.0974C27.0156 27.033 27.0559 26.9447 27.0688 26.8327H26.1316V26.5638H27.064C27.0414 26.4601 26.9963 26.3761 26.9287 26.3117C26.8611 26.2444 26.7693 26.1954 26.6533 26.1646C26.5406 26.1338 26.4021 26.1184 26.2379 26.1184H26.1316V25.8495H28.1316V26.1184H27.2185C27.2926 26.1716 27.3538 26.2346 27.4021 26.3075C27.4504 26.3803 27.481 26.4657 27.4939 26.5638H28.1316V26.8327H27.5036C27.481 27.0372 27.3909 27.1968 27.233 27.3117C27.0785 27.4237 26.8723 27.4951 26.6147 27.526L27.5374 28.8495H27.0446Z" fill="black"/>
</svg>
