<svg width="40" height="40" viewBox="0 0 40 40" fill="none" xmlns="http://www.w3.org/2000/svg">
<g clip-path="url(#clip0_4442_29489)">
<path d="M22.1567 1.59651C23.4089 1.85613 25.136 2.5016 26 3.29493C24.6676 2.94087 22.8397 4.67399 21.499 4.99985C21.4027 5.02324 19.7228 2.28483 19.5624 2.19676C19.3547 2.08267 17.159 1.27505 17.0456 1.17191C16.4551 0.634832 21.7919 1.52088 22.1567 1.59651Z" fill="black"/>
<path d="M28.3177 5.54395C29.4869 7.59011 29.8182 10.0065 29.9378 12.3622C30.0996 15.55 29.9156 18.7442 29.7316 21.9308C29.7024 22.4373 29.7121 23.3465 29.4176 23.7589C29.1231 24.1713 28.4268 23.9995 28.0544 23.6563C28.5012 18.3865 28.9449 13.043 28.0035 7.83921C27.7982 6.70404 27.5107 5.54402 26.8164 4.62447C26.1984 3.80617 25.3139 3.26001 24.3923 2.84631C24.1701 2.74653 23.0911 2.47874 23.0184 2.27036C22.8618 1.82202 23.7538 2.05836 23.9145 2.09386C25.7913 2.50832 27.377 3.89785 28.3177 5.54395Z" fill="black"/>
<path d="M31.7725 23.7724C33.3037 24.1029 35.0579 25.317 36.0639 26.5014C36.9287 27.5196 37.541 28.7309 37.7804 30.0376C38.0599 31.5634 38.1122 32.8455 37.7024 34.3425C37.2925 35.8395 36.8441 36.7256 35.5177 37.9171C34.1707 39.1271 31.9947 39.9297 30.173 39.9927C28.3512 40.0556 26.5186 39.7134 24.8639 38.96C26.1241 39.1851 27.392 39.4109 28.6728 39.4185C29.9536 39.426 31.2607 39.2039 32.376 38.5835C33.7693 37.8086 34.7633 36.467 35.4148 35.0272C35.9971 33.7406 36.3398 32.3229 36.2031 30.9206C36.0033 28.8698 34.7651 26.9899 33.0797 25.7704C32.3383 25.2339 31.5126 24.816 30.6479 24.5093C29.8028 24.2095 28.3945 24.2305 27.5592 23.9646C27.7524 23.231 31.1838 23.6453 31.7725 23.7724ZM21.499 6.09653C21.382 6.09653 21.2647 6.0537 21.1735 5.96742C20.6839 5.50528 20.2853 4.79035 19.8634 4.03379C19.2801 2.98824 18.6191 1.80272 17.8089 1.63922C16.1932 1.31403 14.4939 1.27541 12.8507 1.23801C10.8945 1.19276 9.02318 1.13725 7.15183 1.08235C5.28262 1.02685 3.41341 0.971342 1.45939 0.926697C1.19975 0.920664 0.994303 0.708296 1.00012 0.452489C1.00655 0.196682 1.23159 0.00422327 1.48143 0C3.43759 0.0452489 5.30895 0.100754 7.1803 0.155656C9.04951 0.211161 10.9187 0.266667 12.8727 0.311312C14.557 0.349925 16.2992 0.389744 17.9969 0.731825C19.2336 0.980392 19.973 2.30588 20.6876 3.58733C21.074 4.28054 21.439 4.93454 21.8244 5.29894C22.0118 5.47572 22.0182 5.76893 21.8385 5.95354C21.7461 6.04887 21.6227 6.09653 21.499 6.09653Z" fill="black"/>
<path d="M1.48185 37H1.47919C1.25375 36.9982 1.07191 36.7878 1.0735 36.5301L1.12056 29.5255C1.13066 27.8135 1.12428 26.4639 1.11763 25.0711C1.10673 22.7008 1.0953 20.249 1.16017 15.7163C1.23169 10.741 1.12401 5.96564 1.00996 0.910075L1.00013 0.479051C0.994545 0.221288 1.1724 0.0066872 1.39784 0C1.62036 0.0139824 1.81098 0.19697 1.81656 0.454734L1.8264 0.885758C1.94071 5.95166 2.04865 10.7367 1.97687 15.7321C1.912 20.2545 1.92343 22.7008 1.93433 25.0663C1.94098 26.4621 1.94736 27.8154 1.93726 29.5315L1.8902 36.5361C1.88861 36.7927 1.70623 37 1.48185 37Z" fill="black"/>
<path d="M22.6585 37C22.6469 37 22.635 36.9994 22.6235 36.9988C15.7528 36.4967 8.64194 36.3886 1.48604 36.6745C1.22937 36.7021 1.01103 36.4871 1.00038 36.2325C0.990043 35.9779 1.19045 35.7635 1.44833 35.7533C8.63738 35.4638 15.786 35.5737 22.6922 36.0788C22.9495 36.0974 23.1426 36.319 23.1237 36.573C23.1055 36.815 22.9005 37 22.6585 37ZM27.7918 24.6707C27.7769 24.6707 27.7617 24.6701 27.7465 24.6683C27.4898 24.6442 27.3015 24.419 27.3262 24.1656L27.488 22.5417C27.8866 18.5919 28.2984 14.5075 27.9091 10.5787C27.8727 10.2238 27.8301 9.86225 27.7811 9.50553C27.6537 8.58248 27.4883 7.71888 27.2757 6.8673L27.1376 6.36524C26.8125 5.24641 26.3746 4.50053 25.753 3.99726C25.6667 3.9276 25.5326 3.92039 25.4334 3.92339C25.341 3.924 25.2485 3.93721 25.1412 3.96363C25.1226 3.97084 25.1038 3.97744 25.0846 3.98225C24.5165 4.13179 23.7104 4.5786 22.8726 5.20738C22.8631 5.21458 22.8534 5.22119 22.8431 5.22779C22.4748 5.51065 22.1156 5.81333 21.88 6.03974C21.6957 6.2187 21.3995 6.2133 21.2194 6.03133C21.0397 5.84876 21.0437 5.5563 21.2286 5.37913C21.4947 5.1233 21.8797 4.7984 22.2847 4.48791C22.3033 4.4741 22.323 4.46089 22.3434 4.45008C22.9379 4.00567 23.9318 3.33906 24.8182 3.09764C24.838 3.09103 24.8581 3.08502 24.8784 3.08022L24.8775 3.07782C25.077 3.02617 25.2513 3.00155 25.4106 3.00155C25.7558 2.98653 26.0924 3.08082 26.3439 3.28261C27.3642 4.10836 27.7945 5.28064 28.0296 6.09139L28.1813 6.64089C28.4033 7.53031 28.5748 8.42513 28.7068 9.38121C28.757 9.74815 28.8008 10.1205 28.8388 10.4868C29.2372 14.5081 28.8206 18.6387 28.4176 22.633L28.2561 24.2533C28.233 24.4923 28.0296 24.6707 27.7918 24.6707Z" fill="black"/>
<path d="M23.4841 9.94047H12.4661C12.2088 9.94047 12 9.72984 12 9.47024C12 9.21063 12.2088 9 12.4661 9H23.4841C23.7414 9 23.9501 9.21063 23.9501 9.47024C23.9501 9.72984 23.7414 9.94047 23.4841 9.94047ZM21.1869 18.1243H12.7529C12.4955 18.1243 12.2868 17.9136 12.2868 17.654C12.2868 17.3944 12.4955 17.1838 12.7529 17.1838H21.1869C21.4443 17.1838 21.653 17.3944 21.653 17.654C21.653 17.9136 21.4443 18.1243 21.1869 18.1243ZM19.379 26.6571H12.7856C12.5283 26.6571 12.3195 26.4465 12.3195 26.1868C12.3195 25.9272 12.5283 25.7166 12.7856 25.7166H19.379C19.6363 25.7166 19.8451 25.9272 19.8451 26.1868C19.8451 26.4465 19.6363 26.6571 19.379 26.6571ZM28.8733 40C24.3923 40 20.7466 36.322 20.7466 31.8009C20.7466 27.2804 24.3923 23.6024 28.8733 23.6024C33.3544 23.6024 37 27.2804 37 31.8009C37 36.322 33.3544 40 28.8733 40ZM28.8733 24.5429C24.9063 24.5429 21.6788 27.799 21.6788 31.8009C21.6788 35.8034 24.9063 39.0595 28.8733 39.0595C32.8403 39.0595 36.0678 35.8034 36.0678 31.8009C36.0678 27.799 32.8403 24.5429 28.8733 24.5429Z" fill="black"/>
<path d="M8.20815 11.1616H4.87378C4.57023 11.1616 4.32395 10.9511 4.32395 10.6917V7.46987C4.32395 7.21046 4.57023 7 4.87378 7H8.45013C8.60191 7 8.74724 7.05384 8.85105 7.14867C8.95521 7.24289 9.00855 7.37015 8.99888 7.49985L8.7569 10.7217C8.73829 10.9689 8.4981 11.1616 8.20815 11.1616ZM5.4236 10.2218H7.69234L7.8638 7.93975H5.4236V10.2218ZM8.15661 19.1391H4.82223C4.51868 19.1391 4.27241 18.9286 4.27241 18.6692V15.4474C4.27241 15.1879 4.51868 14.9775 4.82223 14.9775H8.39859C8.55036 14.9775 8.69569 15.0313 8.7995 15.1262C8.90367 15.2204 8.957 15.3476 8.94734 15.4773L8.70536 18.6992C8.68674 18.9463 8.44655 19.1391 8.15661 19.1391ZM5.37205 18.1993H7.64079L7.81225 15.9172H5.37205V18.1993ZM7.8842 28H4.54982C4.24628 28 4 27.7895 4 27.5301V24.3083C4 24.0489 4.24628 23.8384 4.54982 23.8384H8.12618C8.27796 23.8384 8.42329 23.8923 8.52709 23.9871C8.63126 24.0813 8.6846 24.2086 8.67493 24.3383L8.43295 27.5601C8.41434 27.8073 8.17415 28 7.8842 28ZM5.09965 27.0602H7.36838L7.53984 24.7782H5.09965V27.0602Z" fill="black"/>
<path d="M36.0762 26.4999C35.0767 25.3154 33.3336 24.1011 31.8122 23.7706C31.5407 23.7116 30.6603 23.5917 29.7758 23.5525C29.8804 23.0352 30.3077 16.481 30.1018 12.4714C29.9329 9.18271 29.3457 5.84777 26.892 3.60417C25.8464 2.44757 23.8365 1.60914 22.3178 1.27407C22.0163 1.20754 18.5846 0.598335 17.2516 0.586418C15.8441 0.381639 14.4195 0.33827 13.0331 0.306289C8.53891 0.202933 1.80675 -0.0439193 1.58497 0.0214091C1.25558 -0.0775597 0.993022 0.182893 1.00014 0.468001L1.0114 0.895811C1.26555 10.6675 1.24383 8.78606 1.08411 36.2502C1.08407 36.2546 1.08646 36.2582 1.08654 36.2626C1.08662 36.2659 1.08487 36.2686 1.08502 36.272C1.08529 36.2784 1.11671 36.4195 1.12632 36.4408C1.14648 36.4873 1.20757 36.567 1.22116 36.5803C1.29695 36.6593 1.39841 36.7041 1.51131 36.709C1.5242 36.7101 1.53519 36.7166 1.54835 36.7167H1.55139C1.55463 36.7167 1.55733 36.7149 1.56056 36.7148C1.56417 36.7145 1.56725 36.7164 1.57086 36.7161C8.66691 36.4314 15.718 36.5368 22.5353 37.03C23.2328 37.833 24.086 38.4961 25.0488 38.9781C25.0151 38.972 24.9813 38.9663 24.9477 38.9603C26.5976 39.7168 28.464 40.0541 30.2229 39.993C32.0331 39.9301 34.1951 39.1274 35.5335 37.9171C36.8515 36.7254 37.297 35.8392 37.7043 34.3421C38.1115 32.8449 38.0595 31.5626 37.7818 30.0366C37.5439 28.7298 36.9355 27.5183 36.0762 26.4999ZM2.02241 35.774C2.18655 7.04842 2.18496 10.0731 1.94707 0.92832C5.73856 1.01776 9.21843 1.1448 13.0112 1.23311C14.6439 1.27052 16.3324 1.30914 17.9378 1.63437C19.4272 1.93693 20.6059 6.09229 21.6043 6.09229C21.9151 6.09229 21.9331 5.89245 22.9657 5.0997C23.8038 4.46794 24.6103 4.01901 25.1786 3.86876C25.3737 3.81962 25.6904 3.75673 25.8473 3.88385C26.9854 4.80936 27.2882 6.55025 27.3705 6.7675C27.6825 8.02288 27.874 9.22491 28.0042 10.4965C28.429 14.8029 27.9001 19.3657 27.4563 23.7924C21.7017 24.6757 18.6873 31.1309 21.8101 36.0531C15.361 35.6156 8.71228 35.5204 2.02241 35.774ZM21.4914 31.767C21.4914 27.8231 24.7271 24.6143 28.7042 24.6143C32.6813 24.6143 35.9171 27.8231 35.9171 31.767C35.9171 35.7114 32.6813 38.9203 28.7042 38.9203C24.7271 38.9203 21.4914 35.7114 21.4914 31.767Z" fill="black"/>
<path d="M23.0865 9.9248C23.3495 9.9248 23.5628 9.71664 23.5628 9.46007C23.5628 9.20351 23.3495 8.99535 23.0865 8.99535H11.8279C11.565 8.99535 11.3516 9.20351 11.3516 9.46007C11.3516 9.71664 11.565 9.9248 11.8279 9.9248H23.0865ZM12.1209 18.0127H20.7393C21.0022 18.0127 21.2155 17.8046 21.2155 17.548C21.2155 17.2915 21.0022 17.0833 20.7393 17.0833H12.1209C11.858 17.0833 11.6447 17.2915 11.6447 17.548C11.6447 17.8046 11.858 18.0127 12.1209 18.0127ZM18.8918 25.5162H12.1544C11.8915 25.5162 11.6782 25.7243 11.6782 25.9809C11.6782 26.2374 11.8915 26.4456 12.1544 26.4456H18.8918C19.1548 26.4456 19.3681 26.2374 19.3681 25.9809C19.3681 25.7243 19.1548 25.5162 18.8918 25.5162ZM4.7569 7.00513C4.49395 7.00513 4.28062 7.21329 4.28062 7.46986V10.6564C4.28062 10.913 4.49395 11.1211 4.7569 11.1211H7.64528C7.89644 11.1211 8.1045 10.9305 8.12063 10.686C8.28064 7.48118 8.45142 7.40958 8.20218 7.15217C7.9539 6.8932 7.87419 7.0546 4.7569 7.00513ZM7.19846 10.1917H5.23318V7.93458H7.34698L7.19846 10.1917ZM4.71225 14.8952C4.4493 14.8952 4.23597 15.1034 4.23597 15.3599V18.5465C4.23597 18.803 4.4493 19.0112 4.71225 19.0112H7.60063C7.85179 19.0112 8.05985 18.8206 8.07598 18.5761C8.23599 15.3713 8.40677 15.2997 8.15753 15.0422C7.90924 14.7833 7.82954 14.9447 4.71225 14.8952ZM7.1538 18.0817H5.18853V15.8247H7.30233L7.1538 18.0817ZM4.47628 23.6591C4.21333 23.6591 4 23.8672 4 24.1238V27.3103C4 27.5669 4.21333 27.775 4.47628 27.775H7.36466C7.61582 27.775 7.82388 27.5844 7.84001 27.34C8.00002 24.1351 8.1708 24.0635 7.92156 23.8061C7.67328 23.5471 7.59357 23.7085 4.47628 23.6591ZM6.91784 26.8456H4.95256V24.5885H7.06636L6.91784 26.8456Z" fill="black"/>
<path d="M28.8625 35.0362L27 31.7842V31.3506H27.2168C27.565 31.3506 27.8574 31.3177 28.0939 31.252C28.337 31.1863 28.5275 31.0779 28.6654 30.9268C28.8034 30.7757 28.8855 30.5688 28.9118 30.306H27V29.6753H28.902C28.856 29.4322 28.764 29.2351 28.626 29.084C28.4881 28.9263 28.3008 28.8114 28.0643 28.7391C27.8344 28.6668 27.5519 28.6307 27.2168 28.6307H27V28H31.0798V28.6307H29.2173C29.3684 28.7555 29.4932 28.9033 29.5918 29.0742C29.6903 29.245 29.7527 29.4454 29.779 29.6753H31.0798V30.306H29.7987C29.7527 30.7856 29.5688 31.1601 29.2469 31.4294C28.9315 31.6922 28.511 31.8597 27.9855 31.932L29.8677 35.0362H28.8625Z" fill="black"/>
</g>
<defs>
<clipPath id="clip0_4442_29489">
<rect width="40" height="40" fill="white"/>
</clipPath>
</defs>
</svg>
