<svg width="48" height="48" viewBox="0 0 48 48" fill="none" xmlns="http://www.w3.org/2000/svg">
<path d="M8.49193 28.686C8.87022 28.8229 9.32641 28.7521 9.61913 28.4762C9.9119 28.2002 10.0046 27.7206 9.80238 27.3728C9.60011 27.0251 9.10375 26.873 8.75793 27.0786L9.01036 27.0315C8.75315 27.1033 8.49153 27.1824 8.27605 27.3401C7.69101 27.7682 7.8526 28.4547 8.49193 28.686Z" fill="#051328"/>
<path d="M8.6366 41.3976C9.0997 41.4679 9.54509 41.187 9.67652 40.7374C9.97828 39.705 10.2749 38.6451 10.5786 37.623C19.5795 44.6288 30.8138 44.4041 39.4946 37.5845C40.1743 37.0505 40.8475 36.4642 41.3288 35.6613C41.6307 35.1578 41.9606 34.3628 41.941 33.6759C42.2449 33.1038 42.3242 32.4893 41.9247 31.8897C41.6682 31.5057 41.2794 31.322 40.7943 31.3079C40.3043 31.3118 39.8067 31.5217 39.3675 31.7067C38.5926 32.0335 39.3848 31.6937 36.4204 32.6422C34.2316 33.3393 31.1942 34.2759 28.8992 34.2835C27.5186 34.2881 24.3586 34.2438 23.2789 33.4032C23.902 33.019 24.0942 32.7986 26.3946 31.0549C32.9083 32.8201 39.2946 27.9081 39.2946 21.2041C39.2946 15.5688 34.7101 10.9841 29.0749 10.9841C20.6387 10.9841 15.8859 20.6566 20.8965 27.3245C19.5867 27.4047 18.3672 26.9536 16.9114 27.1444C15.314 27.3529 13.4148 28.0185 11.7598 28.1259C11.7778 27.189 11.7663 26.2506 11.6942 25.3124C11.6746 25.0562 11.4611 24.8578 11.2036 24.8571C9.27509 24.8529 7.27403 24.3536 5.25209 23.892C4.93649 23.8205 4.63212 24.0716 4.65203 24.4025C4.90246 28.5962 4.47673 32.4284 3.35141 36.1181C3.27179 36.3788 3.41851 36.6542 3.67921 36.7339C3.93735 36.8103 4.21474 36.6664 4.29469 36.4057C5.39625 32.7951 5.84766 29.0573 5.67044 24.9984C7.33701 25.3792 9.02607 25.7694 10.7416 25.8345C11.0232 30.45 10.1714 35.0785 8.26847 39.2722C6.56525 38.9095 4.90088 38.4725 3.17707 38.1202C2.58576 37.9951 2.32837 38.8648 2.9262 39.0635C3.42646 39.6977 3.64081 40.4813 4.53356 40.6907C5.90638 41.0129 7.24524 41.1864 8.6366 41.3976ZM29.0749 11.9704C34.1663 11.9704 38.3083 16.1127 38.3083 21.2041C38.3083 26.9458 33.098 31.2978 27.4368 30.285C29.7727 28.5985 30.1274 28.3477 30.5203 27.7576C30.7486 27.4018 30.9376 26.8922 30.9379 26.358C32.8268 25.1438 32.6835 22.4998 31.2054 21.3865C30.0056 20.4785 28.3144 20.6614 27.4795 19.8133C27.1819 19.5115 27.0303 19.0748 27.0528 18.5836C27.1361 16.7468 29.2332 16.1294 30.7653 16.9937C31.0025 17.1273 31.3037 17.0438 31.4369 16.8062C31.5708 16.5693 31.4867 16.2681 31.2494 16.1345C30.7384 15.8464 30.178 15.6817 29.6196 15.6364L29.543 14.4631C29.5253 14.1908 29.288 13.9956 29.0187 14.0033C28.7471 14.0207 28.5409 14.2557 28.5586 14.5273L28.6344 15.6888C25.9636 16.1701 25.4302 19.137 26.7767 20.5055C27.8826 21.6275 29.5998 21.4081 30.6111 22.1731C31.5001 22.8431 31.668 24.4778 30.6578 25.3503C30.3535 24.8347 29.8754 24.5478 29.5732 24.4199C26.8501 23.3153 24.4079 25.9169 22.2273 27.0012C22.1762 27.025 22.1264 27.0481 22.1281 27.0506C22.077 27.072 22.0263 27.0842 21.9761 27.1026C17.0205 21.1684 21.2207 11.9704 29.0749 11.9704ZM11.7392 29.1146C12.7255 29.0614 13.8146 28.8149 14.8782 28.5641C16.6456 28.1467 17.1834 28.0161 18.407 28.1249C20.3287 28.3057 21.2783 28.644 23.0989 27.6562C24.8924 26.6913 27.1289 24.4914 29.1959 25.3317C29.403 25.419 29.7703 25.6238 29.9013 26.0175C30.0368 26.413 29.8926 26.9094 29.6948 27.2182C29.2482 27.8881 28.5166 28.1972 25.043 30.8366C21.1122 33.8459 24.1501 31.5436 21.5944 33.3473C21.201 33.6239 21.3969 34.2443 21.8779 34.2443C22.1112 34.2443 22.2173 34.0961 22.4394 33.9597C23.2838 34.8512 25.4465 35.29 28.8909 35.2698C29.3631 35.1881 30.5612 35.5467 36.7203 33.5817C39.5902 32.6639 38.9196 32.9663 39.7508 32.6153C40.1056 32.4657 40.5075 32.2961 40.8074 32.2942C40.984 32.2666 41.0444 32.3482 41.1044 32.4374C41.7585 33.4189 38.9049 35.2225 38.0395 35.8272C33.1627 39.1356 27.2186 40.916 21.1751 39.5637C17.8001 38.8259 13.8713 37.0155 10.8177 35.5723C10.7813 35.526 10.7371 35.4889 10.6856 35.4602C11.2624 33.3914 11.6255 31.2647 11.7392 29.1146Z" fill="#051328"/>
<path d="M22.2662 23.5376C21.7422 22.3786 21.6697 21.0211 22.0668 19.8126C22.1519 19.5539 22.0109 19.2752 21.7525 19.1898C21.4931 19.1057 21.215 19.2463 21.13 19.5044C20.6567 20.9447 20.7431 22.5628 21.3672 23.9434C21.4497 24.1258 21.6292 24.2337 21.817 24.2337C22.175 24.2337 22.4133 23.863 22.2662 23.5376ZM32.7855 27.8173C33.3602 27.8173 36.4488 25.7224 36.8501 22.0402C37.1092 19.6598 36.1479 17.2043 34.3413 15.633C34.1355 15.4533 33.8244 15.4757 33.6456 15.6812C33.4667 15.8867 33.4886 16.1981 33.6941 16.3766C37.0691 19.3138 36.477 24.7501 32.5492 26.8914C32.103 27.1345 32.2745 27.8173 32.7855 27.8173ZM35.9376 5.5286L34.5166 9.25933C34.3939 9.58112 34.6313 9.92778 34.9773 9.92778C35.1761 9.92778 35.3633 9.80707 35.4381 9.60993L36.8591 5.88048C36.956 5.62556 36.8286 5.34046 36.574 5.2435C36.3191 5.14718 36.0343 5.27367 35.9376 5.5286ZM38.0637 12.5618C38.3607 12.5618 38.1736 12.5554 42.095 9.7268C42.3146 9.56563 42.3621 9.25677 42.2012 9.03716C42.0401 8.81755 41.7322 8.77004 41.5119 8.93057L37.7719 11.6705C37.3909 11.9501 37.5858 12.5618 38.0637 12.5618ZM44.9739 14.6352C43.3124 14.465 41.6294 14.4875 39.9737 14.7045C39.7034 14.7399 39.5133 14.9871 39.5486 15.2574C39.5825 15.5165 39.8178 15.7164 40.1015 15.6825C41.6814 15.4751 43.2864 15.4533 44.8731 15.6164C45.1412 15.644 45.3865 15.4475 45.4141 15.1765C45.442 14.9055 45.2449 14.6628 44.9739 14.6352Z" fill="#051328"/>
</svg>
