<svg width="41" height="40" viewBox="0 0 41 40" fill="none" xmlns="http://www.w3.org/2000/svg">
<g clip-path="url(#clip0_2356_43149)">
<g clip-path="url(#clip1_2356_43149)">
<path d="M29.1651 0.433287C28.4758 0.0414379 27.6066 0.333094 27.3011 1.05482L26.9007 1.99998C22.5656 0.150473 17.9347 0.642987 14.332 2.74597C12.3952 1.38944 10.1521 1.26392 8.61073 1.85111V1.84995L8.48226 1.90146C2.74035 3.86246 1.76697 10.9543 7.20795 14.0549C6.92699 18.4394 8.88024 22.8288 11.5063 24.8926C12.6295 25.9984 14.0035 27.0114 15.4587 27.6825C15.3114 28.0643 15.2198 28.3169 15.197 28.3783C14.9585 29.0218 15.2658 29.7487 15.896 30.034C16.8753 30.4768 17.906 30.8053 18.9564 31.0221C18.977 31.427 19.0087 31.6253 19.0174 32.042C17.2911 32.0856 15.3192 32.2306 13.4099 32.8494C12.8674 33.0253 12.0683 33.2896 11.6796 33.848C11.6185 33.8937 9.36892 35.5768 9.51119 35.4703C8.99195 35.8774 8.67328 36.4454 8.93712 37.0525C9.25541 37.7851 10.4151 38.3991 12.3833 38.8766C19.3063 40.5552 25.3205 39.2932 26.4828 39.1954C28.242 38.9158 30.9591 38.3898 30.9591 36.6075C30.9591 36.6057 30.9591 36.604 30.9591 36.6023C30.9539 36.1775 30.7612 35.5681 29.9024 35.0988L28.0439 33.6743C27.4291 32.9062 25.9796 32.6652 25.0691 32.5027C23.8651 32.2739 22.61 32.1359 21.3265 32.073C21.3277 31.6916 21.3382 31.6046 21.3431 31.3161C23.3143 31.3998 25.1033 31.0951 26.6524 30.5213C32.8254 28.2348 37.3746 22.1625 37.7149 15.755C38.0372 9.69255 34.6015 3.53514 29.1651 0.433287ZM29.6084 4.68264C28.1835 4.68922 26.9754 4.69729 25.9131 4.70629C25.4176 3.58845 24.8771 2.70918 24.2937 2.07283C26.6939 2.61541 28.1333 3.52452 29.6084 4.68264ZM26.7108 27.3042C25.9792 27.6121 25.6516 27.7485 24.14 27.9688C25.0006 27.1433 25.6104 25.9686 26.0656 24.877C27.501 24.8775 28.8794 24.8754 30.3153 24.8709C29.2857 25.8734 28.0433 26.7428 26.7108 27.3042ZM21.3603 1.75295C21.633 1.75186 21.9058 1.75255 22.1776 1.76883C23.3476 2.03192 24.2697 3.32142 24.9378 4.71515C22.4182 4.73967 20.8192 4.76684 18.3988 4.79328C19.0083 3.48088 19.9344 2.02477 21.3603 1.75295ZM17.5494 7.42982C17.5346 7.36008 17.5095 7.29856 17.4926 7.23034C17.6617 6.64843 17.8234 6.1974 18.0196 5.68629C20.799 5.65728 22.4508 5.62702 25.3263 5.60046C26.041 7.37685 26.504 9.29435 26.7459 11.2327C22.943 11.2846 20.7575 11.3253 17.0112 11.379C17.6828 10.0222 17.8126 8.5267 17.5494 7.42982ZM16.5772 12.2743C20.1642 12.2238 22.9899 12.1727 26.837 12.1204C27.0099 14.0263 26.9898 15.7446 26.8164 17.5913L16.5931 17.6293C16.4422 15.8315 16.4389 14.0389 16.5772 12.2743ZM34.2124 12.05C34.6275 13.7756 34.6802 15.6964 34.2985 17.5636L27.7082 17.5881C27.8764 15.7413 27.8992 14.0376 27.7289 12.108C29.8378 12.0809 31.9969 12.0601 34.2124 12.05ZM26.7184 18.4806C26.475 20.4584 26.1185 22.2361 25.4601 23.9882C22.6588 23.9856 20.6729 23.9726 17.9058 23.9692C17.1839 22.1246 16.8935 20.3639 16.69 18.5179L26.7184 18.4806ZM25.0948 24.8764C24.093 27.1312 22.9248 28.2142 21.6119 28.0739C20.0419 27.902 18.9675 26.2822 18.2873 24.8582C20.8462 24.8624 22.2685 24.8731 25.0948 24.8764ZM31.1395 23.9792C29.2744 23.9861 27.742 23.9887 26.408 23.9887C27.0359 22.2203 27.3882 20.3772 27.6151 18.4773L34.0812 18.4533C33.6011 20.1491 32.5322 22.3333 31.1395 23.9792ZM33.9654 11.1627C31.8058 11.1734 29.698 11.1937 27.6399 11.2202C27.3981 9.22282 26.9411 7.34091 26.2757 5.59225C27.5032 5.58238 28.9235 5.57373 30.6405 5.56715C32.2481 7.17652 33.3219 9.01832 33.9654 11.1627ZM19.2662 1.92956C18.1696 2.97863 17.4959 4.50471 16.9949 5.8986C16.5192 4.92309 15.9094 4.096 15.0765 3.3425C16.3147 2.66741 17.7186 2.17668 19.2662 1.92956ZM8.79187 2.73421C9.37805 2.49356 10.0518 2.40533 10.6906 2.40956C13.3679 2.48606 15.5622 4.49076 16.4898 6.94313C18.3787 12.1229 11.2682 17.0938 6.26756 12.2585C2.94034 9.01599 4.56408 4.17903 8.79187 2.73421ZM15.6325 13.2472C15.5646 14.6986 15.5828 16.1633 15.7031 17.6326L8.35831 17.6599C8.14227 16.6478 8.03666 15.5795 8.07478 14.4825C10.6268 15.5569 13.509 15.2137 15.6325 13.2472ZM8.5768 18.548L15.796 18.5212C15.9896 20.3199 16.2604 22.0611 16.9584 23.9685C15.5247 23.968 13.8668 23.9703 11.8011 23.9778C10.4744 22.8247 9.2421 20.8795 8.5768 18.548ZM12.7815 24.8633C14.5641 24.8577 16.0305 24.8563 17.316 24.8571C17.8079 25.9727 18.4074 27.0471 19.2919 27.8645C16.8271 27.4793 14.9093 26.7174 12.7815 24.8633ZM25.0841 33.4084C25.6715 33.5114 27.0477 33.7522 27.3839 34.2579C27.4464 34.3537 27.4332 34.3994 27.4418 34.4588C27.3672 35.1594 25.4212 35.3616 24.7496 35.4697C20.7155 36.1173 17.3382 36.0878 14.4319 35.3818C13.0309 35.0375 12.5754 34.6885 12.4458 34.556C12.3451 34.4518 12.3584 34.4281 12.3827 34.3853C12.5696 34.056 13.2942 33.821 13.7218 33.6827C15.4832 33.1117 17.3643 32.9731 19.0206 32.931C19.0179 33.3805 18.9873 33.7891 19.2143 34.1561C19.6226 34.8165 20.4582 34.8931 21.006 34.3934C21.4375 34.0047 21.3118 33.5802 21.3274 32.958C22.5552 33.0201 23.7537 33.1576 24.9065 33.3766L25.0841 33.4084ZM36.8272 15.7076C36.5054 21.7718 32.1941 27.5207 26.3434 29.6879C23.0467 30.9084 19.1741 30.5418 16.2624 29.2238C16.0523 29.1289 15.9522 28.898 16.0303 28.6868C16.1114 28.469 16.1679 28.3143 16.2801 28.023C19.2549 29.1248 23.8237 29.4824 27.0552 28.1237C33.307 25.487 35.0848 18.3807 34.9113 18.7901C34.9119 18.7881 34.9134 18.7866 34.914 18.7846C36.6454 12.8397 34.0714 5.59064 27.709 2.37079L28.1194 1.40146C28.2165 1.17131 28.4982 1.07494 28.7242 1.20528C33.8764 4.14451 37.1321 9.97264 36.8272 15.7076Z" fill="#051328"/>
</g>
</g>
<defs>
<clipPath id="clip0_2356_43149">
<rect width="40" height="40" fill="white" transform="translate(0.664062)"/>
</clipPath>
<clipPath id="clip1_2356_43149">
<rect width="34.4444" height="40" fill="white" transform="translate(3.44531)"/>
</clipPath>
</defs>
</svg>
