<svg width="41" height="40" viewBox="0 0 41 40" fill="none" xmlns="http://www.w3.org/2000/svg">
<g clip-path="url(#clip0_2356_43143)">
<path d="M40.2916 36.1023C40.0745 35.6199 39.8252 34.9796 39.6133 34.4409C39.243 33.4992 38.3493 32.891 37.3372 32.891H37.2063C37.5337 32.2565 37.4291 31.419 36.7493 31.0301C36.5854 30.9354 36.5886 30.9932 35.0086 30.9757C35.0093 30.9429 35.0065 31.0942 35.0148 30.6561C35.0244 30.2159 34.7654 29.8147 34.354 29.6328C34.1636 29.549 33.968 29.3767 33.8037 29.1473C33.4309 28.6272 33.535 28.1005 33.5249 27.9628V16.4326C33.9662 15.8966 34.3606 15.4805 34.8885 14.8436C36.6588 14.905 37.0455 14.426 37.3661 13.1308C37.4117 12.9457 37.4576 12.7568 37.524 12.5776C37.9537 11.4182 37.2215 11.0853 36.633 10.8175C36.5061 10.76 21.4848 3.48059 21.1712 3.29264C20.9727 3.17313 20.7481 3.03708 20.4712 3.00667C19.7795 2.93423 19.1609 3.47131 18.7332 3.68104C8.02564 8.92578 4.33258 10.7483 4.11222 10.8362C3.70169 10.9993 3.31832 11.1655 3.2231 11.598C3.15561 11.9091 3.16655 14.0971 4.17785 14.6215C4.61507 14.8484 5.14685 14.8078 5.62957 14.7874C6.15805 15.4326 6.52393 15.8497 6.9994 16.4306C6.9994 18.9796 6.9994 10.1636 6.9994 27.9628C6.99105 28.0769 7.10401 29.1045 6.25299 29.5912C5.80948 29.8438 5.50166 30.3124 5.51623 30.9757C4.08413 30.9929 4.06628 30.9353 3.90148 31.0301C3.21027 31.4264 3.13317 32.277 3.44979 32.891H3.31487C2.30304 32.891 1.40992 33.4987 1.03912 34.4393C0.825538 34.9824 0.57499 35.6272 0.363675 36.1044C0.244188 36.3729 0.440193 36.6801 0.73821 36.6801H39.9179C40.216 36.6801 40.4133 36.3718 40.2916 36.1023ZM12.392 29.5912C12.2285 29.4978 12.0626 29.3404 11.9241 29.1473C11.5503 28.6259 11.6555 28.0981 11.6453 27.9628V16.4306C11.8927 16.1284 12.7832 15.0708 13.0206 14.781H15.6965C16.9594 18.3939 21.3539 19.7633 24.367 17.0693C25.052 16.457 25.5414 15.8601 25.9121 14.781H27.5039C28.0345 15.4289 28.4016 15.8473 28.879 16.4306C28.879 30.7104 28.878 14.1809 28.8809 28.1101C28.9509 28.8166 28.483 29.4419 28.0494 29.6333C27.6388 29.8146 27.3795 30.2156 27.3891 30.6556C27.3905 30.7281 27.3938 30.9034 27.3954 30.9757H23.7278C23.7329 25.4107 23.7187 26.1277 23.738 25.1506C23.7678 23.6368 23.8397 21.9234 22.744 20.9411C22 20.2747 21.1381 20.2187 20.3887 20.2187C18.8796 20.2036 17.4935 20.149 16.5506 21.3706C16.1432 21.8993 15.8997 22.5758 15.8266 23.3825C15.7718 23.9893 15.8263 28.7501 15.8397 30.9757H13.1285C13.1429 30.3184 12.8399 29.8466 12.392 29.5912ZM7.81889 16.6537H10.8259L10.8279 27.5531H7.81889V16.6537ZM25.2686 14.0907C24.9331 15.298 24.5177 15.8353 23.8206 16.4584C23.2999 16.9244 22.7206 17.2661 22.0659 17.4695C17.6015 18.862 13.5277 12.6329 18.6196 9.62131C22.296 7.36222 26.2132 10.6819 25.2686 14.0907ZM29.6985 16.6537H32.7055L32.7075 27.5531H29.6985V16.6537ZM16.6429 23.4562C16.7008 22.8165 16.8934 22.2685 17.1996 21.8711C17.9209 20.9368 19.115 21.0256 20.3887 21.0382C21.1712 21.0382 21.718 21.122 22.1971 21.5515C23.1362 22.3938 22.9083 24.2384 22.9083 25.9114V30.9757H16.6592C16.6473 28.993 16.5929 24.0059 16.6429 23.4562ZM34.0233 30.3824C34.1302 30.4299 34.1977 30.5302 34.1953 30.6385C34.1944 30.6819 34.1962 30.5976 34.188 30.9757H28.216C28.2147 30.9155 28.2134 30.8553 28.2121 30.7953C28.2229 30.7311 28.1458 30.4863 28.3802 30.3829C29.1241 30.0548 29.6667 29.1811 29.706 28.3726H32.6998C32.7447 29.2169 33.3015 30.0646 34.0233 30.3824ZM4.55505 13.8938C4.10342 13.6596 3.97004 12.1118 4.00765 11.7986C4.08434 11.7128 4.49584 11.574 4.66176 11.4924C20.1406 3.88692 18.9637 4.51406 19.5116 4.17829C20.48 3.5878 20.3884 3.8364 21.0143 4.14468C22.713 4.98257 35.5121 11.1868 36.0162 11.4342C36.8333 11.8291 36.9509 11.7655 36.7557 12.2927C36.4476 13.1224 36.5352 13.8353 35.8594 13.9722C35.1467 14.1166 34.4256 13.9714 33.5689 13.964L33.5551 13.2861C33.5508 13.0599 33.3633 12.8812 33.1371 12.8844C32.9109 12.8892 32.7311 13.0759 32.7356 13.3021L32.7491 13.9615H31.661C31.6654 13.6753 31.6445 13.3243 31.7054 11.3681C31.7126 11.1419 31.5349 10.953 31.3087 10.9455C31.0859 10.9562 30.8933 11.1163 30.8864 11.3425C30.8322 13.053 30.8425 13.9033 30.8416 13.9615H30.0242V10.4659C30.0242 10.2397 29.8407 10.0561 29.6145 10.0561C29.3883 10.0561 29.2047 10.2397 29.2047 10.4659V13.9615H26.1376C26.9029 9.7831 22.2701 6.4188 18.1965 8.91919C16.3449 10.0142 15.1449 11.8555 15.4759 13.9615H11.5133V10.4659C11.5133 10.2397 11.3298 10.0561 11.1035 10.0561C10.8773 10.0561 10.6938 10.2397 10.6938 10.4659V13.9615H9.87636C9.87123 13.6215 9.89323 13.2875 9.83162 11.3425C9.82441 11.1163 9.63608 10.9567 9.40933 10.9455C9.18312 10.953 9.00545 11.1419 9.01265 11.3681C9.07611 13.4093 9.05233 13.6582 9.05694 13.9615H7.96895L7.98242 13.3021C7.98695 13.0759 7.80715 12.8892 7.58094 12.8844C7.36033 12.8828 7.16772 13.0599 7.16292 13.2861L7.14912 13.9615C5.73845 13.9664 5.897 13.9524 5.47645 13.9727C5.14646 13.9893 4.77326 14.0069 4.55505 13.8938ZM6.33462 30.8892C6.32902 30.6449 6.45333 30.4203 6.65927 30.3029C7.33034 29.9191 7.78992 29.1224 7.82636 28.3726H10.8202C10.8605 29.1305 11.3155 29.9202 11.9857 30.3029C12.1911 30.4203 12.3154 30.6449 12.3101 30.8892C12.3095 30.9178 12.3089 30.9468 12.3083 30.9757H6.33643C6.33579 30.9468 6.33519 30.9178 6.33462 30.8892ZM1.3563 35.8606C1.49132 35.53 1.63006 35.1757 1.80153 34.7402C2.04802 34.1144 2.6421 33.7105 3.31487 33.7105H37.3372C38.0103 33.7105 38.6044 34.1149 38.8509 34.7408C38.9929 35.102 39.1459 35.4939 39.2969 35.8606H1.3563Z" fill="#051328"/>
<path d="M17.5816 25.8556C17.3554 25.8556 17.1719 26.0391 17.1719 26.2653V26.8021C17.1719 27.0283 17.3554 27.2118 17.5816 27.2118C17.8078 27.2118 17.9914 27.0283 17.9914 26.8021V26.2653C17.9914 26.0391 17.8078 25.8556 17.5816 25.8556ZM18.1397 12.9998C17.9135 12.9998 17.7299 13.1833 17.7299 13.4095C17.7299 13.6357 17.9135 13.8193 18.1397 13.8193H18.1685C18.3947 13.8193 18.5638 13.6357 18.5638 13.4095C18.5638 13.1833 18.3659 12.9998 18.1397 12.9998ZM23.8257 12.9998C23.5995 12.9998 23.416 13.1833 23.416 13.4095C23.416 13.9469 24.2499 13.9651 24.2499 13.4095C24.2499 13.1833 24.052 12.9998 23.8257 12.9998Z" fill="#051328"/>
<path d="M21.0985 16.1737L19.6719 13.6827V13.3506H19.8379C20.1046 13.3506 20.3286 13.3254 20.5097 13.2751C20.6959 13.2248 20.8419 13.1418 20.9475 13.026C21.0532 12.9103 21.1161 12.7518 21.1362 12.5505H19.6719V12.0674H21.1287C21.0935 11.8812 21.023 11.7302 20.9173 11.6145C20.8117 11.4937 20.6683 11.4057 20.4871 11.3503C20.311 11.2949 20.0946 11.2673 19.8379 11.2673H19.6719V10.7842H22.7969V11.2673H21.3702C21.486 11.3629 21.5816 11.4761 21.6571 11.6069C21.7326 11.7378 21.7804 11.8913 21.8005 12.0674H22.7969V12.5505H21.8156C21.7804 12.9178 21.6395 13.2047 21.3929 13.411C21.1513 13.6123 20.8293 13.7406 20.4267 13.796L21.8684 16.1737H21.0985Z" fill="#051328"/>
</g>
<defs>
<clipPath id="clip0_2356_43143">
<rect width="40" height="40" fill="white" transform="translate(0.328125)"/>
</clipPath>
</defs>
</svg>
