<svg width="40" height="40" viewBox="0 0 40 40" fill="none" xmlns="http://www.w3.org/2000/svg">
<g clip-path="url(#clip0_2700_21053)">
<path d="M11.7142 29.4325C11.933 29.5546 12.1405 29.6401 12.349 29.6935C12.9427 29.8465 13.3117 30.0106 14.1522 29.7091C15.4509 29.0942 15.9666 28.9051 18.627 27.3072C19.717 33.5309 19.4287 32.4443 19.768 33.2157C20.0087 33.7626 20.3415 34.0466 20.8724 34.2738C28.5985 37.1548 22.1606 34.7395 26.4081 36.2463C27.6711 36.694 28.6786 37.0089 30.0057 36.5495C31.5713 36.0036 32.9046 34.1622 36.1014 31.2958L36.181 31.2228C37.137 30.3461 37.0794 30.1554 36.8607 29.4638C36.7723 29.1865 36.8794 29.5631 36.3227 26.9869C36.4071 26.8818 36.4888 26.7713 36.5647 26.6524C36.8748 26.3595 36.8957 25.9365 36.7767 25.537C36.614 24.9892 36.2272 24.52 35.7159 24.2156C35.6004 23.692 35.4874 23.17 35.3777 22.6485C35.6213 22.3971 35.8603 22.1255 36.0459 21.829C36.3546 21.543 36.3771 21.1178 36.2606 20.7148C36.0848 20.1205 35.6503 19.6081 35.0697 19.309C34.6046 19.0686 34.0269 18.9273 33.6368 19.2799C33.5443 19.3458 33.3732 19.4903 33.1626 19.666L31.4237 19.0483C30.9393 17.8653 29.6245 17.3981 29.0458 17.6964C28.9537 17.7441 28.7359 17.9302 28.5928 18.0459L26.622 17.3471C26.4032 17.2703 26.1761 17.2817 25.9708 17.3615C25.9265 17.3511 25.8801 17.347 25.8329 17.3542C25.3234 17.4288 24.972 17.7085 24.5732 18.0393C24.1883 11.9483 24.4426 11.8663 24.1703 10.9897C24.0217 10.5087 23.3193 10.3299 23.0482 10.1745C22.9932 10.1435 22.1506 9.66215 20.3724 8.67878C20.3401 8.48814 20.2972 8.29432 20.2384 8.09879C20.2182 7.59416 19.8532 7.2495 19.4013 7.04288C18.7431 6.74192 17.9683 6.71772 17.2527 6.96625C16.6224 6.62101 15.9965 6.27531 15.3737 5.92676C15.3394 5.46476 15.2787 4.98092 15.1439 4.54008C15.1381 4.03936 14.7588 3.6837 14.309 3.47428C12.809 2.78637 11.0794 3.65908 10.8803 4.47159C10.8459 4.61076 10.8339 5.40448 10.8316 5.54819L8.68833 6.75141C8.03321 6.5116 7.28669 6.52384 6.60536 6.79435C6.23426 6.94181 5.5912 7.27189 5.45496 7.8256C5.42523 7.94697 5.43284 8.01581 5.41181 8.59534L3.02235 9.93864C2.77479 10.0787 2.6027 10.3008 2.51942 10.5592C2.47413 10.5875 2.43321 10.6237 2.40223 10.6715C1.78869 11.6202 2.07676 12.6125 2.06678 18.5021C2.06532 19.7279 2.06385 20.9953 2.1327 22.2401C2.21378 23.7483 3.12605 24.2234 4.35438 24.9467C9.78812 28.2086 11.6412 29.3947 11.7142 29.4325ZM35.5966 30.7409C32.4458 33.568 31.1107 35.37 29.7596 35.841C28.6224 36.2348 27.7123 35.9132 26.6586 35.5392C26.6081 35.5213 21.1925 33.6236 20.9548 33.4829C21.161 33.3774 21.3575 33.1841 21.5223 33.0216C21.7394 32.8074 24.835 30.1495 24.8856 30.1061C27.1791 28.0936 27.4902 27.9396 27.7318 27.4681L30.5096 28.498C36.2675 30.6323 35.6573 30.4348 35.9418 30.4164C35.8233 30.5346 35.7108 30.6357 35.5966 30.7409ZM33.9429 25.2506C34.162 25.9132 34.7558 26.562 35.479 26.8174C35.2855 27.0266 35.0473 27.2968 34.7592 27.3839C34.4501 27.4775 34.1493 27.3276 33.9974 27.2309C33.2285 26.7406 33.1248 25.9993 33.9429 25.2506ZM33.4291 20.4283C33.6512 21.0977 34.2393 21.7388 34.9636 21.993C34.7707 22.2044 34.5191 22.4756 34.2435 22.56C33.6729 22.733 32.7948 22.0504 32.8583 21.3866C32.8967 20.9975 33.1143 20.7175 33.4291 20.4283ZM28.6726 18.9612C28.8922 19.6253 29.4866 20.2722 30.2088 20.5278C29.7184 21.0583 29.354 21.3413 28.7274 20.9413C27.9585 20.451 27.8549 19.7098 28.6726 18.9612ZM26.3724 18.0544L27.9569 18.6162C26.3526 20.329 28.3169 22.2317 29.7045 21.8124C30.1093 21.6903 30.4091 21.4145 30.6722 21.1342C30.8852 20.9076 31.1057 20.6588 31.294 20.3632C31.3104 20.3477 31.3295 20.3351 31.3446 20.3183C31.4517 20.1992 31.5172 20.0521 31.5491 19.8885L32.563 20.2486C31.1984 21.9415 33.2531 23.9256 34.7223 23.1678C34.7744 23.412 34.8272 23.6566 34.8806 23.9012C34.3922 23.8443 34.2429 24.0267 33.8764 24.3244C33.3334 24.7648 32.7177 25.2638 32.6307 26.1361C32.5668 26.7817 32.9359 27.4435 33.5941 27.8632C34.2654 28.2911 35.0099 28.2931 35.6992 27.6631C35.8261 28.2565 35.9538 28.8515 36.0741 29.4364C36.1036 29.5924 35.9538 29.7125 35.8129 29.6625C27.2797 26.5077 27.8399 26.7177 27.7958 26.6669C27.7034 26.5612 26.2904 19.0979 26.2279 18.8376L26.2299 18.8368C26.2267 18.8151 26.1236 18.2984 26.1185 18.277C26.0881 18.127 26.2295 18.0054 26.3724 18.0544ZM25.3819 18.383C25.4426 18.7868 27.0046 26.6762 27.0145 26.727C27.034 26.8207 27.0703 26.9072 27.1155 26.9891C27.014 27.3813 26.7188 27.4861 24.3959 29.538C24.1702 29.7314 21.2103 32.2766 20.9955 32.4877C20.4679 33.0091 20.3946 32.9918 20.2514 32.3805C20.2113 32.2187 20.1908 32.0465 20.1688 31.8642C20.1219 31.4693 18.9943 25.0848 19.0668 25.4953C18.9154 24.7057 18.8241 24.2292 19.3788 23.6886C20.0453 23.0392 20.7665 22.4108 21.4642 21.8034C23.7252 19.8328 24.8896 18.6785 25.3819 18.383ZM23.8615 18.6636C19.7395 22.3467 19.7338 22.2951 18.8554 23.1515C18.0116 23.9738 18.1664 24.7812 18.33 25.6361L18.476 26.4583C17.3329 27.1022 14.5503 28.6481 14.2391 28.8376C13.3352 29.2422 13.7779 29.2459 13.702 28.0014C13.6851 27.7361 13.7388 18.5221 13.7391 18.4721C13.7441 18.0059 13.7019 17.6147 13.5391 17.2653C14.3381 16.8314 18.065 14.8121 23.0321 12.1064C23.3053 11.9517 23.4382 11.7602 23.5246 11.533C23.6005 12.0209 23.5722 12.8172 23.622 14.5068C23.646 15.868 23.786 17.1572 23.8615 18.6636ZM19.6234 10.498C19.2662 11.2874 17.7706 11.5309 17.1513 10.8708C16.7412 10.4339 16.6695 9.87638 16.6713 9.27219C17.539 9.72813 18.8603 9.64182 19.6447 9.13322L19.6788 9.15189C19.7292 9.5798 19.8036 10.0998 19.6234 10.498ZM11.5784 5.69782C12.4978 6.1787 13.8228 6.05733 14.582 5.53501C14.6349 5.95858 14.7035 6.54028 14.5302 6.92618C14.182 7.69739 12.6897 7.97562 12.0551 7.30314C11.6352 6.85671 11.5801 6.30298 11.5784 5.69782ZM9.10389 10.2824C8.75024 11.0634 7.25728 11.3225 6.63172 10.6557C6.22151 10.2185 6.14985 9.66114 6.15168 9.05707C7.01547 9.51088 8.36226 9.43433 9.15391 8.89695C9.2076 9.33705 9.28719 9.876 9.10389 10.2824ZM3.391 10.5917L5.41395 9.45463C5.61123 12.5356 9.0616 12.1929 9.78748 10.5915C10.0009 10.1181 9.9867 9.61393 9.93885 9.13981C9.89961 8.74122 9.84861 8.31678 9.71873 7.88465C9.71775 7.85755 9.7219 7.83036 9.71864 7.80338C9.69157 7.58112 9.58347 7.37925 9.41615 7.20276L10.8673 6.3881C11.0262 7.59514 11.8041 8.43058 13.056 8.43058C14.1226 8.43058 15.1556 7.88319 15.3524 6.77195C15.7178 6.97553 16.0848 7.17853 16.4528 7.3808C15.9086 7.79892 15.9575 8.11405 15.934 8.73087C15.9022 9.60587 15.8661 10.5973 16.6044 11.3839C17.5912 12.4349 19.73 12.083 20.307 10.807C20.4851 10.4135 20.5022 9.99726 20.4762 9.59367C21.2138 10.0031 21.9497 10.4139 22.6727 10.8236C22.9145 10.9654 22.9112 11.3124 22.6679 11.4508C18.3067 13.826 13.0389 16.685 13.0892 16.6576C13.0136 16.6916 12.8807 16.6901 12.7797 16.6325C1.61328 10.2577 4.57062 11.7979 4.01893 11.5746L4.02088 11.5702C3.96436 11.5338 3.39429 11.2101 3.39149 11.2087C3.1504 11.0722 3.15066 10.7278 3.391 10.5917ZM4.74159 24.3044C3.6894 23.6681 2.94513 23.3766 2.88172 22.1994C2.81385 20.975 2.81532 19.7184 2.81678 18.5031C2.82523 13.4895 2.68143 12.468 2.85151 11.7321C2.96126 11.8257 10.4817 16.2007 11.9183 17.0024C12.7955 17.4664 13.002 17.2493 12.9891 18.4667C12.989 18.5236 12.959 28.6633 12.9496 28.7143C12.8344 29.1778 12.5105 29.0182 12.0697 28.7721C12.0524 28.7632 9.79262 27.334 4.74159 24.3044Z" fill="#051328"/>
<path d="M15.3176 13.6126C15.5315 13.1402 15.5168 12.6353 15.469 12.1607C15.4297 11.7621 15.3787 11.3377 15.2488 10.9056C15.2479 10.8785 15.252 10.8513 15.2487 10.8243C15.1994 10.4193 14.9021 10.0726 14.4118 9.84848C13.7141 9.52939 12.8845 9.51767 12.1355 9.81552C11.5532 10.0469 10.9358 10.469 10.962 11.0927C10.9613 11.1009 10.9569 11.1074 10.9568 11.1158C10.9414 12.2053 10.7775 13.2978 11.615 14.1898C12.5908 15.2302 14.7335 14.9006 15.3176 13.6126ZM14.634 13.3033C14.2791 14.0871 12.7856 14.3407 12.1618 13.6766C11.7516 13.2395 11.68 12.682 11.6818 12.0779C12.5717 12.5455 13.9155 12.4399 14.684 11.9178C14.7379 12.3592 14.8177 12.8985 14.634 13.3033ZM29.3864 26.3724C29.698 26.5704 30.028 26.672 30.3479 26.672C30.9265 26.672 31.34 26.3526 31.7336 25.933C31.9466 25.7067 32.1673 25.458 32.3566 25.1611C32.6648 24.87 32.6896 24.4497 32.5686 24.0457C32.3918 23.4508 31.9582 22.9388 31.3791 22.6412C30.8797 22.3857 30.3491 22.2659 29.9196 22.6266C29.2443 23.1994 28.5201 23.6654 28.4231 24.6446C28.3586 25.2901 28.7277 25.9522 29.3864 26.3724ZM29.7348 23.7595C29.9542 24.4233 30.5481 25.0707 31.2709 25.3262C31.0766 25.5362 30.8396 25.8055 30.5505 25.8927C29.9656 26.0711 29.1042 25.3672 29.1692 24.7191C29.2085 24.3227 29.4337 24.035 29.7348 23.7595ZM7.69455 17.5008C6.44322 17.6025 5.80032 19.2346 6.55685 19.3263C6.75802 19.3499 6.94894 19.2047 6.97385 18.9989C7.02023 18.6163 7.37082 18.2796 7.7551 18.2484C8.14133 18.2201 8.53976 18.4937 8.64621 18.8641C8.75363 19.2345 8.56271 19.6815 8.2214 19.8602C7.83059 20.0647 7.21562 20.0116 6.71701 20.3829C5.88685 21.0015 6.1359 22.335 6.67551 22.335C6.95968 22.335 7.14416 22.0258 7.0007 21.774C6.85812 21.5247 6.93527 21.1556 7.16525 20.9842C7.4843 20.7466 8.06262 20.7899 8.56906 20.5247C9.22092 20.1834 9.5715 19.3624 9.36691 18.6559C9.1633 17.9496 8.43674 17.4408 7.69455 17.5008ZM6.6799 22.8331C6.47287 22.8331 6.3049 23.0184 6.3049 23.2254C6.3049 23.4325 6.47287 23.6004 6.6799 23.6004C6.88693 23.6004 7.0549 23.4325 7.0549 23.2254V23.1908C7.0549 22.9837 6.88693 22.8331 6.6799 22.8331ZM28.9065 30.2621C28.3567 30.5738 27.9128 31.0772 27.6447 31.7091C27.5256 31.9845 27.2785 32.5572 27.6486 32.888C27.7653 32.9925 27.8986 33.0296 28.0334 33.0296C28.3243 33.0296 28.6248 32.857 28.7424 32.8253C29.1368 32.7245 29.4866 32.6433 29.8132 32.4874C31.6715 31.6043 30.6688 29.2605 28.9065 30.2621ZM26.5964 33.8629C26.656 34.11 26.9143 34.2906 27.1674 34.2668C27.5237 34.2334 27.7655 33.7809 27.5952 33.4661C27.3145 32.9472 26.4578 33.2885 26.5964 33.8629ZM18.7976 16.1707L17.9275 16.6539C17.7463 16.7545 17.6814 16.9828 17.7819 17.1639C17.8503 17.2872 17.9782 17.3568 18.1101 17.3568C18.1716 17.3568 18.2341 17.3416 18.2917 17.3097L19.1618 16.8265C19.3425 16.7262 19.4079 16.4979 19.3078 16.3167C19.2068 16.1358 18.9782 16.0699 18.7976 16.1707ZM21.9162 14.4391L20.0964 15.4496C19.9153 15.5501 19.8503 15.7784 19.9509 15.9596C20.0193 16.0829 20.1472 16.1524 20.279 16.1524C20.3405 16.1524 20.403 16.1373 20.4607 16.1053L22.2805 15.0948C22.4616 14.9942 22.5266 14.766 22.426 14.5851C22.3259 14.4039 22.0974 14.339 21.9162 14.4391ZM23.6189 27.3678L23.1262 27.7523C22.8464 27.9709 23.0013 28.4227 23.3576 28.4227C23.5687 28.4227 23.6288 28.285 24.0798 27.9591C24.2434 27.8319 24.2722 27.596 24.1452 27.4327C24.0173 27.2699 23.7815 27.2401 23.6189 27.3678ZM22.3249 28.3775L21.3215 29.1605C21.1579 29.2879 21.1291 29.5235 21.2566 29.6869C21.3831 29.8494 21.6189 29.8797 21.7824 29.7518L22.7859 28.9688C22.9494 28.8414 22.9782 28.6058 22.8508 28.4425C22.7234 28.2796 22.488 28.2496 22.3249 28.3775Z" fill="#051328"/>
</g>
<defs>
<clipPath id="clip0_2700_21053">
<rect width="40" height="40" fill="white"/>
</clipPath>
</defs>
</svg>
