<svg width="40" height="40" viewBox="0 0 40 40" fill="none" xmlns="http://www.w3.org/2000/svg">
<path d="M19.5925 27.63C19.5938 28.0567 19.6025 28.4811 19.6075 28.9071C19.555 28.8907 19.5024 28.8859 19.4502 28.8642C19.2415 28.7781 19.1023 28.6676 19.0582 28.5527C18.9631 28.3039 18.6875 28.184 18.4443 28.2782C17.8203 28.5273 18.1828 29.6366 19.6194 29.9142C19.6226 30.0869 19.6216 30.2614 19.6255 30.4338C19.6313 30.697 19.8424 30.9055 20.0992 30.9055C20.1029 30.9055 20.1066 30.9055 20.1103 30.9055C20.3721 30.8992 20.5795 30.6788 20.5736 30.4124C20.5698 30.2436 20.5708 30.0729 20.5676 29.9038C21.714 29.6592 22.5592 28.5047 21.869 27.6162C21.4324 27.0536 21.0899 26.9602 20.5426 26.8423C20.5434 26.5141 20.5487 26.1876 20.5517 25.8599C20.7941 25.983 21.0023 26.1824 21.1251 26.4316C21.2424 26.6703 21.5276 26.7664 21.7612 26.647C21.9955 26.5271 22.0899 26.2375 21.9727 25.9995C21.6926 25.4307 21.1594 25.0095 20.5612 24.8471C20.5641 24.6689 20.5627 24.489 20.5662 24.3111C20.5714 24.0448 20.3634 23.8244 20.1017 23.8187C19.8532 23.7873 19.6233 24.0254 19.6181 24.291C19.6146 24.466 19.616 24.6432 19.6131 24.8186C18.4083 25.0572 17.785 26.0743 18.1508 26.8241C18.4258 27.3857 19.0237 27.5129 19.5925 27.63ZM21.1251 28.2141C21.1628 28.2625 21.1943 28.3196 21.1341 28.4358C21.0256 28.6451 20.8106 28.8179 20.556 28.9138C20.5517 28.5515 20.5448 28.1904 20.5432 27.8275C20.569 27.834 20.5951 27.8373 20.6208 27.8442C20.8224 27.8976 20.9542 27.9943 21.1251 28.2141ZM19.1665 26.0729C19.2908 25.9525 19.4427 25.8665 19.6039 25.8082C19.6012 26.0874 19.5971 26.3656 19.5961 26.6452C19.3801 26.5987 19.0623 26.5215 18.9996 26.3939C18.9591 26.3065 19.0948 26.1426 19.1665 26.0729ZM5.77909 34.6571C5.74637 34.9215 5.93063 35.1627 6.1905 35.196C6.45296 35.2289 6.68763 35.0397 6.71981 34.7777C6.8695 33.5642 6.81673 32.3438 6.56241 31.1492C6.50686 30.8898 6.25501 30.7265 5.99884 30.7799C5.74298 30.8364 5.58033 31.0933 5.63588 31.354C5.86705 32.4412 5.91551 33.5523 5.77909 34.6571ZM34.0524 22.4953C34.0117 22.7585 34.1882 23.006 34.4468 23.0474C34.7163 23.088 34.9495 22.9004 34.9888 22.6461C35.1592 21.5475 35.0984 20.3994 34.8135 19.3266C34.7447 19.0684 34.4857 18.9139 34.232 18.9868C33.9793 19.0559 33.8299 19.3209 33.8981 19.5778C34.1487 20.5212 34.2018 21.5299 34.0524 22.4953ZM30.5327 5.57699L32.4836 5.33705C32.7435 5.30565 32.9287 5.06509 32.8975 4.80066C32.8663 4.53623 32.633 4.34404 32.37 4.37984L30.4191 4.61977C30.1593 4.65118 29.9741 4.89173 30.0053 5.15616C30.0371 5.42467 30.2782 5.60987 30.5327 5.57699ZM30.4534 1.47428C30.2608 1.29464 29.9605 1.30783 29.7836 1.5038L28.6306 2.78448C28.3491 3.09741 28.5748 3.59284 28.9803 3.59284C29.3419 3.59284 29.3757 3.3132 30.4824 2.15576C30.6593 1.95916 30.6463 1.65454 30.4534 1.47428ZM26.8859 0.459903L26.8176 1.89384C26.805 2.16015 27.0068 2.38627 27.2683 2.39883C27.5094 2.41771 27.7515 2.2196 27.7645 1.94032L27.8328 0.506382C27.8454 0.240699 27.6439 0.0145851 27.3825 0.00139518C27.1164 -0.019332 26.8985 0.193592 26.8859 0.459903Z" fill="#051328"/>
<path d="M2.19214 17.1775C2.16538 18.1002 2.14055 16.4471 2.29503 23.4011C2.22017 23.9018 2.59436 24.2064 2.70557 24.6327C2.61302 37.6384 2.63262 35.189 2.61894 36.0245C2.54185 36.7167 2.57311 37.645 2.78946 38.2355C2.99104 38.7858 3.3701 39.1401 3.97084 39.3997C4.95432 39.8247 5.29368 39.6959 35.0988 39.9626C36.0271 39.9709 37.034 40.3162 37.3722 38.7372C37.3938 38.6985 37.4214 38.6658 37.4386 38.6227C37.543 38.3596 37.4587 37.9749 37.4587 37.8276C37.5775 23.9032 37.6082 24.9968 37.5599 24.8023C37.6738 24.7127 37.7555 24.5761 37.8017 24.4416C37.8475 24.3073 37.8114 24.3267 37.8362 23.7055C37.8121 18.1007 37.6404 18.6972 37.628 17.3999C37.6211 16.6864 37.6673 16.4301 37.5366 16.1066C37.5127 15.9209 37.3888 15.7711 37.2158 15.7137C36.9782 15.5676 36.6965 15.5625 36.4362 15.566C36.0726 15.5687 35.3602 15.5191 34.3041 15.4926C32.7494 15.4506 31.1525 15.4442 29.5539 15.4538L29.5799 14.1497C29.5851 13.883 29.3724 13.6605 29.101 13.6579L28.5728 13.6541C28.5651 13.3806 28.558 13.1069 28.5489 12.8338C28.4678 10.4739 28.5215 10.059 28.5218 9.93204C28.5473 9.26061 28.5859 8.24498 27.5467 7.85996C26.523 7.48085 25.5056 7.62628 24.5237 7.63887C15.2803 7.75776 12.8965 7.40439 11.973 8.88897C10.749 10.0965 11.9284 11.674 11.6966 13.0886C11.2142 13.005 10.7511 13.3845 10.5646 13.8283C10.3781 14.2785 10.3974 14.7866 10.4295 15.2754C8.85848 15.3266 8.25297 15.3597 6.83088 15.4177C6.08296 15.3923 5.40966 15.396 4.26129 15.4923C3.27875 15.5085 2.73702 15.4581 2.41834 15.7273C2.00827 16.0737 2.20545 16.7202 2.19214 17.1775ZM15.154 14.4669L15.139 15.2231L11.7975 15.2476L11.8135 14.4424L15.154 14.4669ZM14.3136 26.9993C14.6525 31.1781 19.9897 33.6622 23.4446 31.3827C24.8474 30.456 25.7435 28.8005 25.8832 27.077L35.1816 27.138C35.4023 27.138 35.5261 27.0005 35.6165 26.8912C35.6852 26.8343 36.3494 26.1624 36.6084 25.8838C36.5508 35.2499 36.4341 38.1848 36.5423 38.266C36.3325 38.781 10.0357 38.2945 6.63452 38.1894C5.80164 38.1667 4.48474 38.3167 4.26942 37.6322C4.10556 37.1134 4.23923 36.4597 4.22765 35.8095L4.04825 25.835C4.27507 26.1508 4.50209 26.4662 4.72699 26.7832C4.86077 26.9716 5.12677 27.0369 5.33185 26.9396L14.3136 26.9993ZM16.7789 23.0806C19.3509 20.6715 24.0153 22.1683 24.8176 25.5515C25.2655 27.4389 24.4643 29.5524 22.9126 30.5775C19.9592 32.5307 15.1979 30.1844 15.2567 26.5363C15.2771 25.2638 15.8603 23.9398 16.7789 23.0806ZM36.6041 16.5313C36.982 21.7092 36.8602 24.0133 36.8602 24.142C36.7944 24.2184 36.2377 24.9092 35.3662 25.7807C35.3365 25.8111 35.0113 26.1408 34.9762 26.172L25.8767 26.1122C25.4667 21.4355 19.4107 19.2971 16.1197 22.3758C15.1337 23.2984 14.4735 24.6655 14.3262 26.0346L5.33593 25.9754C3.43015 23.2998 3.53036 23.6155 3.57411 23.068C3.89819 16.2104 3.6994 17.0669 3.86084 16.6005C4.10256 16.286 30.4637 16.4435 36.6041 16.5313ZM16.0984 15.5082C16.0853 14.1268 16.232 13.9001 15.9919 13.6516C15.7855 13.4402 15.5353 13.5255 15.2953 13.5033C15.2953 12.9728 15.2953 11.8829 15.2953 11.3177L25.2303 11.1125L25.309 13.6308L24.7909 13.6271C24.5284 13.6271 24.3139 13.8997 24.3086 14.1623L24.2811 15.5366C21.6728 15.5971 23.5046 15.5373 16.0984 15.5082ZM28.5903 15.3757L25.2488 15.3996L25.2648 14.595L28.6054 14.6189L28.5903 15.3757ZM22.1815 8.61681C26.1074 8.61053 26.3862 8.45832 27.2113 8.76442C27.5448 8.88815 27.5869 9.12934 27.5577 9.89561C27.561 11.0661 27.4831 9.31191 27.6073 13.6472L26.5481 13.6397C26.4452 10.6141 26.6135 10.799 26.4234 10.4081C26.0339 9.60571 25.0122 9.83054 23.5611 9.80642C21.7585 9.77556 19.8991 9.74427 17.9375 9.7857C17.0132 9.80777 14.5862 9.65485 14.0655 10.5036C13.8861 10.7968 13.9412 10.9221 14.016 13.494L12.8496 13.4855C12.7876 11.1534 12.8273 11.4576 12.7195 10.7347C12.3867 8.51613 12.8084 8.66428 22.1815 8.61681Z" fill="#051328"/>
<ellipse cx="20.1286" cy="26.5286" rx="4.97238" ry="4.71514" fill="white"/>
<path d="M20.5028 26.9939C20.7248 26.8082 20.8517 26.5499 20.8834 26.2191L20.5028 26.9939ZM20.5028 26.9939C20.2975 27.165 20.0276 27.2776 19.6932 27.3316L20.5028 26.9939ZM20.1889 29.5095L20.2051 29.5378H20.2377H20.931H21.0309L20.9791 29.4524L19.7246 27.3834C20.0562 27.3268 20.3287 27.2123 20.5388 27.0372L20.5389 27.0371C20.7622 26.8502 20.893 26.5947 20.9338 26.2754H21.767H21.8233V26.2191V25.7841V25.7278H21.767H20.9191C20.8974 25.5832 20.8545 25.4541 20.7894 25.3414C20.7428 25.2605 20.6879 25.1866 20.6249 25.1199H21.767H21.8233V25.0637V24.6287V24.5724H21.767H18.9531H18.8968V24.6287V25.0637V25.1199H18.9531H19.1027C19.3301 25.1199 19.5188 25.1445 19.6703 25.1921L19.6703 25.1921L19.6707 25.1922C19.8257 25.2396 19.9452 25.3138 20.0322 25.4134L20.0322 25.4134L20.033 25.4143C20.1073 25.4956 20.1617 25.5995 20.1948 25.7278H18.9531H18.8968V25.7841V26.2191V26.2754H18.9531H20.2077C20.1848 26.4177 20.1347 26.5278 20.0602 26.6094C19.9738 26.704 19.8526 26.7741 19.6929 26.8173L19.6925 26.8174C19.5359 26.8609 19.3397 26.8833 19.1027 26.8833H18.9531H18.8968V26.9396V27.2386V27.2536L18.9043 27.2666L20.1889 29.5095Z" fill="#051328" stroke="#051328" stroke-width="0.112555"/>
</svg>
