<svg width="41" height="40" viewBox="0 0 41 40" fill="none" xmlns="http://www.w3.org/2000/svg">
<g clip-path="url(#clip0_2356_43131)">
<g clip-path="url(#clip1_2356_43131)">
<path fill-rule="evenodd" clip-rule="evenodd" d="M31.5083 40H2.78483C1.60792 40 0.664062 39.0887 0.664062 37.9525V2.05316C0.664062 0.911264 1.60792 0 2.78483 0H25.1053C25.2684 0 25.4082 0.0675011 25.5073 0.163128L33.431 7.81325C33.5301 7.90887 33.6 8.072 33.6 8.20138V11.132C33.6 11.4583 33.3261 11.7171 32.9882 11.7171C32.6561 11.7171 32.3823 11.4583 32.3823 11.132V8.46013L24.8664 1.14189H2.78483C2.24881 1.14189 1.84097 1.53002 1.84097 2.05316V37.9806C1.84097 38.5037 2.24881 38.8919 2.78483 38.8919H31.5083C32.0152 38.8919 32.4522 38.47 32.4522 37.9806V24.8685C32.4522 24.5423 32.7202 24.2779 33.0581 24.2779C33.3961 24.2779 33.6641 24.5423 33.6641 24.8685V37.9525C33.6 39.0887 32.6561 40 31.5083 40Z" fill="#051328"/>
<path fill-rule="evenodd" clip-rule="evenodd" d="M32.443 40H2.84909C1.63652 40 0.664062 39.0887 0.664062 37.9525V2.05316C0.664062 0.911264 1.63652 0 2.84909 0H25.8459C26.014 0 26.1581 0.0675011 26.2601 0.163128L34.4239 7.81325C34.526 7.90887 34.598 8.072 34.598 8.20138V11.132C34.598 11.4583 34.3159 11.7171 33.9677 11.7171C33.6256 11.7171 33.3434 11.4583 33.3434 11.132V8.46013L25.5998 1.14189H2.84909C2.29683 1.14189 1.87663 1.53002 1.87663 2.05316V37.9806C1.87663 38.5037 2.29683 38.8919 2.84909 38.8919H32.443C32.9653 38.8919 33.4155 38.47 33.4155 37.9806V24.8685C33.4155 24.5423 33.6916 24.2779 34.0398 24.2779C34.3879 24.2779 34.6641 24.5423 34.6641 24.8685V37.9525C34.598 39.0887 33.6256 40 32.443 40Z" fill="#051328"/>
<path fill-rule="evenodd" clip-rule="evenodd" d="M31.5083 40H2.78483C1.60792 40 0.664062 39.0887 0.664062 37.9525V2.05316C0.664062 0.911264 1.60792 0 2.78483 0H25.1053C25.2684 0 25.4082 0.0675011 25.5073 0.163128L33.431 7.81325C33.5301 7.90887 33.6 8.072 33.6 8.20138V11.132C33.6 11.4583 33.3261 11.7171 32.9882 11.7171C32.6561 11.7171 32.3823 11.4583 32.3823 11.132V8.46013L24.8664 1.14189H2.78483C2.24881 1.14189 1.84097 1.53002 1.84097 2.05316V37.9806C1.84097 38.5037 2.24881 38.8919 2.78483 38.8919H31.5083C32.0152 38.8919 32.4522 38.47 32.4522 37.9806V24.8685C32.4522 24.5423 32.7202 24.2779 33.0581 24.2779C33.3961 24.2779 33.6641 24.5423 33.6641 24.8685V37.9525C33.6 39.0887 32.6561 40 31.5083 40Z" fill="#051328"/>
<path fill-rule="evenodd" clip-rule="evenodd" d="M32.5757 8.78642H26.6188C25.3869 8.78642 24.3744 7.77953 24.3744 6.50826V0.585043C24.3744 0.36004 24.5037 0.163162 24.7344 0.0675351C24.9594 -0.0337165 25.19 0.0337846 25.3531 0.196912L32.9695 7.81328C33.1326 7.97641 33.1945 8.23516 33.0989 8.43204C32.9976 8.65705 32.8064 8.78642 32.5757 8.78642ZM25.5162 1.95194V6.50826C25.5162 7.12702 26 7.65015 26.6188 7.65015H31.2088L25.5162 1.95194ZM20.1105 15.6884H6.37407C6.05344 15.6884 5.78906 15.4297 5.78906 15.1034C5.78906 14.7771 6.05344 14.5184 6.37407 14.5184H20.1105C20.4368 14.5184 20.6955 14.7771 20.6955 15.1034C20.6955 15.4297 20.4368 15.6884 20.1105 15.6884ZM26.3263 15.6884H23.4631C23.1368 15.6884 22.8781 15.4297 22.8781 15.1034C22.8781 14.7771 23.1368 14.5184 23.4631 14.5184H26.3263C26.6525 14.5184 26.9113 14.7771 26.9113 15.1034C26.9113 15.4297 26.6525 15.6884 26.3263 15.6884ZM20.1105 10.7383H6.37407C6.05344 10.7383 5.78906 10.4796 5.78906 10.1533C5.78906 9.82706 6.05344 9.56831 6.37407 9.56831H20.1105C20.4368 9.56831 20.6955 9.82706 20.6955 10.1533C20.6955 10.4796 20.4368 10.7383 20.1105 10.7383ZM20.1105 5.82763H6.37407C6.05344 5.82763 5.78906 5.56325 5.78906 5.24262C5.78906 4.91636 6.05344 4.68573 6.37407 4.68573H20.1105C20.4368 4.68573 20.6955 4.94449 20.6955 5.24262C20.6955 5.53512 20.4368 5.82763 20.1105 5.82763ZM20.1105 20.571H6.37407C6.05344 20.571 5.78906 20.3122 5.78906 19.986C5.78906 19.6597 6.05344 19.401 6.37407 19.401H20.1105C20.4368 19.401 20.6955 19.6597 20.6955 19.986C20.6955 20.3122 20.4368 20.571 20.1105 20.571ZM26 20.571H23.4968C23.1706 20.571 22.9118 20.3122 22.9118 19.986C22.9118 19.6597 23.1706 19.401 23.4968 19.401H26C26.3263 19.401 26.5906 19.6597 26.5906 19.986C26.5906 20.3122 26.2981 20.571 26 20.571ZM26.3263 35.0837H7.67909C6.63845 35.0837 5.78906 34.24 5.78906 33.1993V26.2973C5.78906 25.2567 6.63845 24.3792 7.67909 24.3792H26.2981C27.3388 24.3792 28.1825 25.2229 28.1825 26.2973V33.1993C28.2163 34.24 27.3669 35.0837 26.3263 35.0837ZM7.67909 25.5492C7.28534 25.5492 6.93096 25.9092 6.93096 26.3311V33.2331C6.93096 33.6549 7.25721 33.9812 7.67909 33.9812H26.2981C26.72 33.9812 27.0463 33.6549 27.0463 33.2331V26.2973C27.0463 25.8754 26.72 25.5154 26.2981 25.5154H7.67909V25.5492Z" fill="#051328"/>
<path fill-rule="evenodd" clip-rule="evenodd" d="M13.6344 33.0979C13.5669 33.0979 13.5051 33.0979 13.4376 33.0698C13.1451 32.9685 13.0157 32.6142 13.1113 32.3217C13.3419 31.7648 13.5332 31.2473 13.6963 30.7916C14.9676 27.501 15.3276 26.4941 16.2051 26.4941C17.0489 26.4941 17.4089 27.4391 18.517 30.201C18.7758 30.8198 19.0345 31.506 19.3608 32.2879C19.4902 32.5804 19.327 32.9067 19.0345 33.036C18.742 33.1654 18.4158 33.0023 18.2864 32.7098C17.9601 31.9279 17.7014 31.2135 17.4426 30.5948C16.9532 29.3572 16.4639 28.1535 16.1714 27.7316C15.8451 28.221 15.3276 29.5879 14.7088 31.1798C14.512 31.6354 14.3151 32.1585 14.1238 32.7098C14.0563 32.9685 13.8594 33.0979 13.6344 33.0979ZM14.0563 27.5685H9.66313C9.33688 27.5685 9.07812 27.3097 9.07812 26.9834C9.07812 26.6572 9.33688 26.3984 9.66313 26.3984H14.0563C14.3826 26.3984 14.6413 26.6572 14.6413 26.9834C14.6413 27.3097 14.3826 27.5685 14.0563 27.5685Z" fill="#051328"/>
<path fill-rule="evenodd" clip-rule="evenodd" d="M11.8741 33.0979C11.5478 33.0979 11.2891 32.8392 11.2891 32.5129V26.9834C11.2891 26.6572 11.5478 26.3984 11.8741 26.3984C12.2003 26.3984 12.4591 26.6572 12.4591 26.9834V32.5467C12.431 32.8392 12.1666 33.0979 11.8741 33.0979ZM20.2386 33.0979C20.1092 33.0979 20.0136 33.0698 19.9123 33.0023C19.6536 32.8054 19.6198 32.451 19.7829 32.2204L23.8836 26.6572C24.0805 26.3984 24.4405 26.3647 24.6655 26.5278C24.9299 26.7191 24.958 27.0791 24.7949 27.3097L20.6942 32.8729C20.5986 33.036 20.4355 33.0979 20.2386 33.0979Z" fill="#051328"/>
<path fill-rule="evenodd" clip-rule="evenodd" d="M24.3398 33.098C24.1767 33.098 23.9854 33.0361 23.8842 32.873L19.7835 27.3098C19.5922 27.0454 19.6541 26.691 19.9129 26.5279C20.1772 26.331 20.5316 26.3985 20.6948 26.6573L24.7954 32.2205C24.9923 32.4848 24.9304 32.8392 24.6661 33.0024C24.6042 33.0699 24.4748 33.098 24.3398 33.098Z" fill="#051328"/>
<path fill-rule="evenodd" clip-rule="evenodd" d="M17.7026 30.3023H14.71C14.3838 30.3023 14.125 30.0436 14.125 29.7173C14.125 29.3911 14.3838 29.1323 14.71 29.1323H17.7026C18.0288 29.1323 18.2876 29.3911 18.2876 29.7173C18.2876 30.0436 18.0288 30.3023 17.7026 30.3023Z" fill="#051328"/>
<path fill-rule="evenodd" clip-rule="evenodd" d="M32.5757 25.4536C28.4751 25.4536 25.1562 22.1348 25.1562 18.0284C25.1562 13.9277 28.4751 10.5752 32.5757 10.5752C36.6764 10.5752 39.9952 13.8996 39.9952 18.0003C39.9952 22.101 36.6764 25.4536 32.5757 25.4536ZM32.5757 11.7171C29.0938 11.7171 26.2981 14.5465 26.2981 18.0003C26.2981 21.4485 29.0938 24.3117 32.5757 24.3117C36.0577 24.3117 38.859 21.4822 38.859 18.0284C38.859 14.5803 36.0577 11.7171 32.5757 11.7171Z" fill="#051328"/>
<path fill-rule="evenodd" clip-rule="evenodd" d="M30.7896 21.516C30.6602 21.516 30.4971 21.4485 30.4014 21.3529L28.0558 19.0072C27.8252 18.7822 27.8252 18.4222 28.0558 18.1916C28.2864 17.9666 28.6408 17.9666 28.8714 18.1916L30.8233 20.1491L36.2909 14.6815C36.5159 14.4509 36.8759 14.4509 37.1066 14.6815C37.3316 14.9065 37.3316 15.2665 37.1066 15.4915L31.2115 21.3529C31.0821 21.4485 30.9527 21.516 30.7896 21.516Z" fill="#051328"/>
</g>
</g>
<defs>
<clipPath id="clip0_2356_43131">
<rect width="40" height="40" fill="white" transform="translate(0.664062)"/>
</clipPath>
<clipPath id="clip1_2356_43131">
<rect width="40" height="40" fill="white" transform="translate(0.664062)"/>
</clipPath>
</defs>
</svg>
