<svg width="48" height="48" viewBox="0 0 48 48" fill="none" xmlns="http://www.w3.org/2000/svg">
<path d="M32.4696 28.0246C32.3284 23.2246 32.1872 18.9187 32.1872 13.9775C32.1872 8.33047 32.6108 7.69518 31.5519 6.354C30.7755 5.29518 29.7166 4.02459 28.6578 2.61283C27.9519 1.76577 26.9637 1.27165 25.9049 1.27165H25.8343C19.0578 2.33047 11.4343 0.495178 3.95193 1.554C3.74017 1.554 3.5284 1.76577 3.5284 2.04812C2.82252 3.10694 2.25781 3.60106 2.25781 4.5893V38.8952C2.25781 39.3893 2.68134 39.8128 3.17546 39.8128H25.6931C26.3284 42.4246 27.599 44.3305 30.3519 45.8128C31.6225 46.5187 32.6813 46.8011 34.0931 46.8717C37.1284 46.8717 40.1637 45.6716 42.0696 43.3422C43.5519 41.5069 44.399 38.754 43.9755 36.354C43.7637 30.4246 38.0461 26.4716 32.4696 28.0246ZM42.5637 34.1658C43.9755 38.4011 41.7166 42.9893 37.5519 44.4011C34.5166 45.4599 31.0578 44.5422 28.9402 42.1422C24.9872 37.6952 26.4696 31.1305 32.399 29.154C36.5637 27.7422 41.1519 30.0011 42.5637 34.1658ZM30.7049 6.9893C30.9166 7.20106 30.9872 7.48341 31.1284 7.83636C26.4696 8.04812 26.6108 8.1893 26.4696 7.97753C26.2578 7.76577 26.4696 7.69518 26.9637 2.54224C27.599 2.82459 27.599 2.89518 30.7049 6.9893ZM4.44605 2.47165C11.646 1.554 19.1284 3.24812 25.9049 2.25988L25.3402 7.554C25.2696 8.1893 25.6225 8.82459 26.3284 9.03636C27.9519 10.0952 30.2108 7.90694 30.9166 11.5775C31.3402 13.7658 30.9166 11.0834 31.3402 23.7893C31.4108 25.3422 31.4108 26.8952 31.4813 28.4481C27.7402 29.9305 25.2696 33.3893 25.4813 37.9069C18.5637 37.8364 11.7872 38.2599 4.51664 38.1187C4.65781 34.0246 4.51664 29.4364 4.30487 24.7069C4.02252 17.2246 3.74017 9.81283 4.44605 2.47165Z" fill="#051328"/>
<path d="M34.2332 32.3995V35.9995H31.0568C30.3509 35.9995 30.3509 37.0583 31.0568 37.0583H34.2332V40.1642C34.2332 40.8701 35.2921 40.8701 35.2921 40.1642V37.0583H38.6803C39.3862 37.0583 39.3862 35.9995 38.6803 35.9995H35.2921V32.3995C35.2921 31.6936 34.2332 31.6936 34.2332 32.3995ZM12.4215 16.0936C16.0215 16.0936 17.2215 13.0583 19.6215 13.0583C20.8921 13.0583 22.1627 14.1172 23.5744 14.5407C25.4803 15.1054 27.6685 14.5407 29.0097 13.1289C29.5038 12.6348 28.7274 11.9289 28.2332 12.423C27.1744 13.5525 25.4097 14.0466 23.8568 13.5525C23.3627 13.4113 22.8685 13.1289 22.3744 12.9172C19.6921 11.576 18.6332 11.7172 16.0215 13.5525C15.5274 13.9054 15.0332 14.2583 14.4685 14.5407C12.1391 15.6701 8.96265 14.6819 7.76265 12.423C7.40971 11.7877 6.49207 12.2819 6.84501 12.9172C7.97442 14.9642 10.2332 16.0936 12.4215 16.0936ZM25.1274 21.4583C23.4332 21.8113 21.5274 20.6113 19.4803 20.8936C18.7038 20.9642 18.0685 21.3172 17.4332 21.5289C14.1156 22.9407 10.8685 22.5877 8.32736 20.9642C7.76265 20.6113 7.19795 21.4583 7.76265 21.8819C10.5156 23.576 14.1156 24.0701 17.7862 22.5172C18.4215 22.2348 18.9862 22.023 19.5509 21.9525C21.3156 21.7407 23.2215 22.9407 25.1979 22.5172C25.4803 22.4466 25.6921 22.1642 25.6215 21.8819C25.6921 21.5995 25.4097 21.3877 25.1274 21.4583ZM24.3509 29.223C22.8685 29.7172 20.9627 27.9525 18.9156 28.376C18.0685 28.5877 17.4332 29.0819 16.7979 29.4348C15.1744 30.2819 13.1274 29.9995 11.7862 28.8701C11.5744 28.6583 11.2215 28.7289 11.0097 28.9407C10.7979 29.1525 10.8685 29.5054 11.0803 29.7172C12.0685 30.5642 13.4097 31.0583 14.7509 31.0583C17.1509 31.0583 17.9979 29.7172 19.1979 29.5054C20.8215 29.1525 22.7274 31.0583 24.7744 30.3525C25.4097 29.9995 25.0568 29.0113 24.3509 29.223ZM37.6215 22.5877L36.2803 25.4819C35.9979 26.1172 36.9862 26.5407 37.2685 25.9054L38.6097 23.0113C38.7509 22.7289 38.6097 22.4466 38.3274 22.3054C38.045 22.2348 37.7626 22.3054 37.6215 22.5877ZM43.2685 24.423C43.7626 23.9289 43.1274 23.1525 42.5626 23.6466C41.5038 24.5642 40.5862 25.5525 39.8097 26.6819C39.3862 27.2466 40.2332 27.8819 40.6568 27.3172C41.3626 26.2583 42.2803 25.2701 43.2685 24.423ZM44.9626 28.0936C44.1156 28.5877 43.1979 28.8701 42.2097 29.0819C41.5038 29.223 41.7156 30.2819 42.4215 30.1407C43.4803 29.9289 44.5391 29.576 45.4568 29.0113C46.0215 28.6583 45.5274 27.7407 44.9626 28.0936Z" fill="#051328"/>
</svg>
