<svg width="41" height="40" viewBox="0 0 41 40" fill="none" xmlns="http://www.w3.org/2000/svg">
<g clip-path="url(#clip0_2356_43161)">
<path d="M37.0522 26.8753C37.1203 25.9494 37.1047 25.0064 36.9081 23.8617C38.1958 23.0317 38.9648 21.4738 38.9233 19.6929C38.891 18.2932 38.3122 15.5576 36.352 15.2236C35.658 15.1066 35.0532 15.315 34.4893 15.451C33.9934 15.5747 33.3381 15.7422 32.6931 15.9702C32.6454 15.9246 32.599 15.8787 32.5499 15.8332C35.1756 14.2126 33.7789 11.3902 30.9097 10.4396C32.0227 8.53373 32.8012 6.63698 33.3015 3.98781C33.3458 3.75468 33.2051 3.52634 32.9771 3.4608C30.2528 2.67618 27.4468 2.28197 24.1846 1.66788C21.8024 1.19645 21.0641 0.757532 20.3862 1.15781C20.1314 1.07432 16.2694 0.684068 15.6743 0.632106C15.3032 0.603938 14.9448 0.763598 14.7077 1.03773C11.8143 2.34545 9.37293 3.68032 6.11979 5.2223C5.79059 5.36954 5.29351 5.59189 5.16452 6.10723C4.87596 7.18477 6.07772 7.03679 8.00608 9.96272C8.17906 10.2284 8.33326 10.5001 8.47695 10.7749C7.03873 11.1168 4.88658 12.2945 4.53755 13.8772C4.4061 14.4732 4.49076 15.3605 5.56685 16.2468C3.21243 18.1233 1.70291 20.6824 1.41588 23.37C0.72434 30.0123 4.5658 36.3605 11.143 38.6291C16.2341 40.3959 22.0779 39.7678 26.4723 38.4079C30.2662 40.8723 35.757 39.8508 38.0982 36.284C39.9186 33.5099 39.8188 29.6002 37.0522 26.8753ZM35.0843 16.2489C35.4299 16.1552 35.8324 16.0681 36.1981 16.1298C37.4584 16.3446 37.9746 18.4422 38.0039 19.7138C38.0354 21.0506 37.5586 22.1947 36.706 22.8902C36.1714 20.6716 35.0756 18.5168 33.4089 16.6972C33.9153 16.5394 34.4107 16.4176 35.0843 16.2489ZM31.7845 6.25081C30.5558 6.00165 29.8558 4.87984 30.095 3.70332C30.8336 3.85965 31.5781 4.02918 32.3142 4.22992C32.0425 5.502 31.9294 5.79318 31.7845 6.25081ZM29.1839 3.51609C28.8635 5.10156 29.7926 6.71701 31.4851 7.13335C30.5658 9.5834 29.3354 11.1613 29.3167 11.2226C28.7823 12.0106 26.8545 14.2361 26.3501 14.8004C26.2915 14.866 26.2632 14.9447 26.2486 15.0253C22.4916 16.0845 18.5694 16.3822 14.7018 15.9097C15.6529 14.8986 16.2306 14.4286 17.8781 11.4276C19.0427 9.17208 19.3275 8.3641 19.9079 6.45704C21.7095 5.76255 23.2116 4.32804 24.008 2.56999C26.9898 3.11964 27.5018 3.1867 29.1839 3.51609ZM28.9445 13.8317C28.7987 14.1584 28.231 14.4056 27.7744 14.5673C27.9114 14.4076 28.7014 13.476 28.7536 13.4144C28.9073 13.581 28.9891 13.7364 28.9445 13.8317ZM13.5755 14.4012C13.9245 11.9168 13.6632 13.7885 14.9341 4.64519C16.181 4.14762 17.144 3.03774 17.4621 1.73353C18.37 1.83083 19.2652 1.93381 19.8223 1.99898C19.7514 2.55563 19.8891 2.06105 19.6468 3.42698C19.1753 5.9838 18.7091 7.80559 17.0763 10.9778C15.3582 14.1027 14.9966 14.217 13.5867 15.7684C13.4858 15.7522 13.386 15.7267 13.2853 15.7094C13.3438 15.3211 13.5222 14.7946 13.5755 14.4012ZM20.8046 1.98091C20.9472 1.85354 21.0496 1.87914 23.0931 2.36289C22.4781 3.61952 21.4493 4.6725 20.2067 5.31619C20.955 2.14623 20.6004 2.15456 20.8046 1.98091ZM16.5382 1.63739C16.3126 2.4159 15.778 3.10942 15.0878 3.54134L15.3367 1.75407C15.3529 1.64157 15.4622 1.53488 15.5964 1.54817C15.8832 1.57316 16.2034 1.60376 16.5382 1.63739ZM14.3439 2.2179C14.2182 3.12067 12.6528 14.3618 12.6648 14.2755C12.6241 14.5779 12.4623 15.0611 12.3845 15.5329C12.1059 15.4761 11.4193 15.3752 10.7801 15.1425C10.7897 15.0886 10.7925 15.0325 10.7815 14.9755C10.1433 11.6679 9.31668 10.0668 8.03597 8.43446C8.702 7.47336 8.88414 6.19743 8.49475 5.0926C11.2537 3.72469 12.5222 3.06654 14.3439 2.2179ZM9.5193 13.5331C9.60231 13.8516 9.67428 14.1622 9.73743 14.4573C9.44178 14.0818 9.43432 13.7877 9.5193 13.5331ZM6.42714 6.70577C6.24959 6.53883 6.06649 6.4335 6.05455 6.33797C6.08332 6.22327 6.34144 6.14784 7.65983 5.50413C7.88241 6.23102 7.7893 7.04256 7.4157 7.7032C7.2178 7.48273 7.00447 7.22356 6.42714 6.70577ZM5.43536 14.0753C5.66311 13.0419 7.28544 12.0055 8.67525 11.6718L8.8908 11.6637C9.11538 12.1852 9.11474 12.2198 9.19231 12.4496C8.20992 13.2352 8.33777 14.7898 9.71641 15.6521C10.2623 15.993 10.8806 16.1549 11.4181 16.2797C16.801 17.526 22.4271 17.2833 27.6839 15.5668C28.3354 15.3579 29.4263 15.0084 29.7806 14.2138C30.0083 13.7271 29.8463 13.1935 29.3478 12.7046C29.7923 12.158 30.0282 11.821 30.4067 11.2513C31.0513 11.4357 31.6106 11.718 32.0979 12.1231C32.635 12.5679 33.1525 13.2879 32.9933 13.9786C32.8213 14.7517 31.9073 15.157 31.2404 15.4687C24.0915 18.5305 15.7494 18.9372 8.35324 16.5855C7.0923 16.1847 5.14957 15.3706 5.43536 14.0753ZM11.4435 37.7603C5.26276 35.6277 1.68408 29.6733 2.33014 23.4663C2.60046 20.9357 4.07462 18.5167 6.3751 16.7776C6.94241 17.0824 7.54244 17.2925 8.07462 17.4618C11.3408 18.5003 14.7857 19.0156 18.2375 19.0156C23.3649 19.0153 28.4406 17.7806 31.6661 16.2846C34.7547 19.0322 36.2083 22.6967 36.167 26.1065C34.692 24.9925 33.6504 24.7386 31.7719 24.5368C26.1807 23.9536 21.5721 29.1625 23.314 34.3253C23.7676 35.6704 24.5463 36.8214 25.5612 37.7157C20.9333 39.009 16.0195 39.3476 11.4435 37.7603ZM37.3297 35.7795C34.3616 40.3015 26.166 39.9059 24.1852 34.0314C22.66 29.5077 26.7402 24.9328 31.6747 25.4511C32.782 25.5699 33.8558 25.7243 34.8191 26.3034C38.7557 28.6751 39.232 32.8806 37.3297 35.7795Z" fill="#051328"/>
<path d="M12.0002 28.2069C12.8066 26.4573 13.148 23.8706 11.4047 22.913C11.415 22.2576 10.7306 22.0266 10.0575 21.8317C9.13802 21.5655 8.17756 21.3011 7.24103 21.5168C7.04467 21.562 7.00543 21.5745 6.95519 21.7116C6.90835 21.8394 6.86653 21.9495 6.79085 22.0615C5.6627 22.1143 4.69948 22.5295 4.47413 23.6221C4.26435 24.6408 3.70292 28.1097 5.27378 29.9795C6.73931 31.7229 10.4024 31.6733 12.0002 28.2069ZM5.97766 29.3881C4.94039 28.1537 4.98588 25.6958 5.37434 23.8077C5.40486 23.6601 5.45753 23.5401 5.53534 23.4417C5.68804 23.248 5.93685 23.1309 6.2347 23.0604C6.32938 23.3289 6.67998 23.4061 6.98538 23.4667C10.336 24.1315 10.4964 24.2091 10.818 24.0934C10.9667 24.0399 11.0679 23.9438 11.1416 23.8305C12.1457 24.5937 11.6929 26.677 11.1652 27.8221C9.9262 30.5097 7.11779 30.7443 5.97766 29.3881ZM21.1219 35.7294C21.364 35.6536 21.499 35.3957 21.4232 35.1533C21.3472 34.9109 21.0899 34.775 20.8472 34.8519C19.2553 35.3499 17.5121 35.4696 15.8069 35.1976C15.5576 35.1569 15.3205 35.328 15.2804 35.5791C15.2406 35.8299 15.4112 36.0654 15.662 36.1055C17.562 36.4086 19.4496 36.2528 21.1219 35.7294ZM13.463 34.5619C12.625 34.2345 11.8382 33.8101 11.1242 33.3011C10.918 33.1536 10.6301 33.2017 10.4832 33.4082C10.3356 33.615 10.3835 33.902 10.5903 34.0493C11.366 34.6026 12.2198 35.0632 13.1284 35.4184C13.3674 35.5107 13.6322 35.3925 13.7239 35.1575C13.8161 34.921 13.6994 34.6544 13.463 34.5619Z" fill="#051328"/>
<path d="M32.6763 35.8375L29.9262 33.0683L29.8093 32.6321L30.0274 32.5737C30.3777 32.4798 30.6629 32.368 30.8831 32.2381C31.1099 32.1065 31.2723 31.9461 31.3704 31.757C31.4685 31.5678 31.4953 31.3375 31.4509 31.066L29.5278 31.5813L29.3578 30.9469L31.271 30.4343C31.1592 30.2021 31.0136 30.0287 30.834 29.9139C30.6528 29.7925 30.4334 29.7273 30.176 29.7183C29.9253 29.7076 29.6314 29.7474 29.2943 29.8377L29.0762 29.8961L28.9062 29.2617L33.0102 28.1621L33.1802 28.7965L31.3066 29.2985C31.4923 29.3833 31.6577 29.4984 31.8029 29.6437C31.948 29.7889 32.0648 29.9737 32.1532 30.1979L33.4617 29.8473L33.6317 30.4817L32.343 30.827C32.426 31.3218 32.3419 31.7481 32.0907 32.1058C31.8443 32.4551 31.4665 32.737 30.9573 32.9513L33.6874 35.5666L32.6763 35.8375Z" fill="black"/>
</g>
<defs>
<clipPath id="clip0_2356_43161">
<rect width="38" height="40" fill="white" transform="translate(1.32812)"/>
</clipPath>
</defs>
</svg>
