<svg width="35" height="40" viewBox="0 0 35 40" fill="none" xmlns="http://www.w3.org/2000/svg">
<path d="M19.5813 17.772C19.4136 17.9301 19.4245 18.1135 19.7828 18.0995C20.1544 18.085 20.5696 17.9709 20.9805 17.3254C21.283 16.8503 21.763 16.0139 21.9694 15.4944C22.0208 15.3648 22.0614 15.3812 22.0741 15.2411C22.0868 15.101 21.8171 15.1141 21.7211 15.0195C20.9493 15.9401 20.2156 16.7366 19.5813 17.772Z" fill="#051328"/>
<path d="M21.5015 15.8637C23.376 16.5403 25.15 16.6316 26.8956 15.8821C28.6412 15.1327 30.0632 13.6466 30.5777 11.6978C30.751 11.0415 30.9334 10.2981 30.7858 9.63642C30.3831 11.566 29.3321 13.4653 27.7449 14.4595C26.8703 15.0075 25.8441 15.2902 24.8531 15.4596C23.8359 15.6335 22.6552 15.3831 21.6795 15.0756C21.6635 15.3954 21.5913 15.7122 21.468 16.0041M16.8498 9.16548C16.6128 11.2789 17.5274 13.4687 19.1901 14.6019C19.1412 14.2858 18.9912 14.0269 19.0008 13.7062C17.7507 12.2575 17.2744 10.0793 17.7901 8.17073C18.3058 6.26214 20.7662 4.29959 22.5462 3.78711C21.9802 3.95007 20.7225 4.23447 20.1689 4.48766C19.614 4.74146 18.8796 5.28465 18.4389 5.72661C17.5252 6.64309 16.9999 7.82686 16.8498 9.16548ZM11.5399 29.58C13.0325 30.9246 14.6587 32.1555 16.5047 32.9478C18.3507 33.7402 20.441 34.0708 22.3914 33.5895C24.3418 33.1082 26.1179 31.7428 26.8293 29.8641C25.6222 32.0165 22.9002 32.9827 20.4483 32.7033C17.9964 32.424 15.7811 31.1164 13.8135 29.6269C8.03423 25.306 3.74984 18.9791 1.65054 12.0964C1.05582 10.1466 0.710924 8.17261 0.39936 6.16475C-0.412706 9.39426 1.00713 13.0813 2.2016 16.0917C3.49313 19.3468 5.2553 22.4155 7.41976 25.1686C8.66481 26.7523 10.0431 28.2316 11.5399 29.58Z" fill="#051328"/>
<path d="M19.6468 18.0887C19.5812 18.0887 19.5153 18.0768 19.4512 18.0523C19.2323 17.97 19.0904 17.7643 19.0895 17.5287C18.9642 16.4976 18.8038 15.2863 18.5023 13.7464C18.231 13.4595 17.9846 13.147 17.769 12.816C16.6547 11.0984 16.5858 8.76297 17.5931 6.86467C18.2954 5.53233 19.4768 4.51072 21.0095 3.91075C22.4814 3.32509 24.1522 3.19329 25.7124 3.54456C26.5405 3.72766 27.3017 4.04076 27.9754 4.47553C29.5501 5.49297 30.6681 7.27021 30.8929 9.11484C30.9719 9.73926 30.9472 10.3565 30.8195 10.9475C30.3231 13.2639 28.2915 15.1986 25.7648 15.761C24.9669 15.9417 24.1468 16.0031 23.3295 15.9405C22.8777 15.9047 22.4737 15.8427 22.0917 15.7497C22.0499 15.7401 22.001 15.727 21.9503 15.7127C21.8752 15.6918 21.7341 15.6471 21.6882 15.6614C21.6003 15.7383 21.3963 16.0276 21.2743 16.2005L21.1828 16.3294C21.0602 16.5023 20.9454 16.6735 20.833 16.8411C20.5956 17.1947 20.3714 17.5281 20.0783 17.8859C19.9599 18.0195 19.8048 18.0887 19.6468 18.0887ZM19.9969 17.4279C19.9987 17.4428 20.0004 17.4583 20.0022 17.4738C20.0028 17.4589 20.0007 17.4434 19.9969 17.4279ZM23.9626 4.26799C23.0662 4.26799 22.1713 4.43497 21.3456 4.76299C20.0186 5.28244 19.0018 6.15675 18.403 7.29287C17.5484 8.90313 17.6012 10.8748 18.5372 12.3169C18.7441 12.6347 18.9848 12.9335 19.2514 13.2031C19.3143 13.2669 19.3572 13.348 19.3748 13.4357C19.6182 14.6619 19.7741 15.6841 19.8934 16.596C19.9527 16.5089 20.0124 16.42 20.0726 16.3306C20.1889 16.157 20.3079 15.9799 20.4376 15.7968L20.5256 15.6727C20.7471 15.3584 20.9475 15.0847 21.1571 14.9225C21.5162 14.6428 21.9408 14.7597 22.1949 14.83L22.3034 14.8587C22.6419 14.9404 22.9991 14.9952 23.3996 15.0269C24.1251 15.0811 24.8536 15.0269 25.5645 14.867C27.7496 14.381 29.5009 12.7284 29.9241 10.7549C30.0299 10.2647 30.0499 9.75119 29.9837 9.22756C29.7908 7.64415 28.8309 6.11858 27.4786 5.24487C26.8965 4.86974 26.2354 4.59839 25.5135 4.43855L25.5126 4.43796C25.0044 4.32464 24.4832 4.26799 23.9626 4.26799Z" fill="#051328"/>
<path d="M23.8646 13.0681C23.8589 13.0681 23.8533 13.0681 23.8473 13.0675C23.5944 13.0585 23.3973 12.8456 23.4066 12.5933L23.6233 6.74336C23.6329 6.48989 23.8383 6.27877 24.0981 6.30262C24.3509 6.31157 24.5481 6.52448 24.5388 6.77675L24.322 12.6267C24.3128 12.8742 24.1097 13.0681 23.8646 13.0681Z" fill="#051328"/>
<path d="M26.9409 10.2435C26.9352 10.2435 26.9292 10.2435 26.9236 10.2429L20.9606 10.0216C20.7077 10.0127 20.5106 9.79977 20.5198 9.54749C20.5294 9.29462 20.7486 9.07396 20.9946 9.10676L26.9576 9.32802C27.2104 9.33697 27.4075 9.54988 27.3983 9.80215C27.3891 10.0497 27.186 10.2435 26.9409 10.2435Z" fill="#051328"/>
<path d="M21.2616 33.4289C20.2537 33.4289 19.2914 33.0734 18.3968 32.6834C12.0253 29.9114 6.63987 24.7323 3.62184 18.4738C2.42906 16.0006 1.58547 13.3592 0.769604 10.8054C0.317839 9.39199 -0.244258 7.63264 0.113576 5.92518C0.465744 4.24098 1.60813 3.00645 2.5045 2.26752L2.8015 2.01823C3.90751 1.08369 5.76049 -0.482429 7.13666 0.14378C8.86291 0.929822 9.80401 2.40708 10.5504 3.72987C11.3317 5.11469 12.1681 6.72196 12.203 8.27913C12.2406 9.96691 11.1778 10.6396 9.99009 11.233C9.02274 11.7161 7.95699 11.8575 6.97295 11.9439C8.01574 17.6979 12.0127 22.8746 17.3143 25.3389C17.6313 24.3572 18.0235 23.3016 18.7418 22.4279C19.5398 21.4576 20.9759 20.6518 22.386 21.0371C23.4473 21.3281 24.1698 22.1565 24.8772 23.0523C25.6286 24.0053 26.3356 25.0049 26.9779 26.0241C27.3772 26.6581 27.7688 27.3415 27.789 28.1234C27.8257 29.5231 26.7755 30.9795 25.7184 31.8019C24.4627 32.7782 23.0018 33.3382 21.4938 33.4223C21.4163 33.4265 21.3388 33.4289 21.2616 33.4289ZM3.08718 2.97484C2.30412 3.62014 1.30785 4.68887 1.00995 6.11245C0.701915 7.58374 1.20139 9.14747 1.64212 10.5263C2.44844 13.0502 3.28219 15.66 4.44724 18.0754C7.37134 24.1395 12.5889 29.1575 18.7624 31.8437C19.6224 32.2176 20.5405 32.5593 21.4432 32.5075C22.7642 32.4341 24.0482 31.9403 25.156 31.0791C26.0028 30.4201 26.9013 29.2214 26.8736 28.1473C26.8593 27.5974 26.5482 27.0606 26.2032 26.5131C25.5776 25.5208 24.8897 24.5474 24.1579 23.6201C23.549 22.8483 22.9368 22.138 22.1442 21.9209C21.1289 21.6418 20.0592 22.268 19.4491 23.01C18.7326 23.8813 18.3667 25.043 18.0437 26.0682C18.0047 26.1923 17.8961 26.3146 17.7774 26.3682C17.6609 26.4219 17.4992 26.4225 17.3814 26.373C11.4432 23.8097 6.97355 18.0247 5.99249 11.6344C5.9734 11.5098 6.01306 11.3571 6.09059 11.2575C6.16842 11.1579 6.30768 11.0816 6.43382 11.0696C7.4608 10.9867 8.61899 10.8937 9.58067 10.4136C10.8036 9.80231 11.3111 9.37351 11.2869 8.29941C11.2568 6.95455 10.4791 5.46775 9.75243 4.17955C8.89064 2.6522 8.0888 1.58406 6.75706 0.977533C5.91138 0.589879 4.20988 2.02778 3.39283 2.7178L3.08718 2.97484Z" fill="#051328"/>
<path d="M34.4879 40.0004C34.4837 40.0004 34.4795 40.0004 34.475 40.0004C33.392 39.9712 32.557 39.8006 31.8476 39.4637C31.4612 39.28 31.118 39.045 30.8302 38.7713C30.4533 38.7862 30.0686 38.745 29.6899 38.6454C28.3507 38.2936 27.3896 37.3531 26.8192 36.6255C26.413 36.1078 26.1351 35.5752 25.9932 35.0587C25.8775 34.9746 25.7674 34.8816 25.6649 34.7796C24.7256 33.8528 24.4915 32.332 25.1081 31.1643C25.2262 30.9413 25.5038 30.8542 25.7269 30.9735C25.9505 31.0916 26.0361 31.3689 25.918 31.5925C25.5829 32.2271 25.6157 33.0376 25.9613 33.6662C25.9842 33.5791 26.0126 33.4938 26.046 33.4103C26.2827 32.8205 26.787 32.3142 27.466 31.9838C28.3725 31.543 29.6589 31.5555 30.2583 32.4466C30.5785 32.9219 30.6262 33.5707 30.3829 34.1397C30.1831 34.6067 29.794 35.0152 29.287 35.2913C28.6546 35.6354 27.9136 35.7285 27.2176 35.5907C27.3339 35.7857 27.452 35.9474 27.5399 36.0601C28.0239 36.6767 28.8296 37.4723 29.9225 37.7592C29.9896 37.7771 30.057 37.792 30.1244 37.8051C30.0588 37.6656 30.0045 37.5218 29.9628 37.3745C29.6649 36.3296 30.0632 35.1816 30.9104 34.6448C31.3842 34.3443 32.0078 34.2691 32.5767 34.4409C33.098 34.5989 33.5134 34.9508 33.7155 35.4064C34.0936 36.2581 33.7143 37.2111 33.1701 37.7783C32.8561 38.1057 32.4652 38.358 32.0307 38.5261C32.0987 38.5655 32.1688 38.6019 32.2407 38.6359C32.8308 38.9162 33.5488 39.0587 34.5001 39.0844C34.753 39.0915 34.9522 39.3021 34.9453 39.5549C34.9387 39.8036 34.7351 40.0004 34.4879 40.0004ZM31.963 35.2663C31.7582 35.2663 31.559 35.3188 31.4006 35.419C30.897 35.738 30.6575 36.471 30.8436 37.1234C30.9125 37.3656 31.0348 37.5994 31.2006 37.8147C31.7117 37.7228 32.1742 37.4932 32.509 37.1437C32.8305 36.8091 33.0828 36.239 32.8782 35.7786C32.7494 35.4881 32.4676 35.3653 32.311 35.3176C32.1974 35.283 32.0793 35.2663 31.963 35.2663ZM26.8081 34.4868C27.4356 34.8083 28.2296 34.8232 28.849 34.4868C29.1761 34.3085 29.4218 34.0574 29.5408 33.7795C29.6613 33.498 29.6446 33.1753 29.4985 32.9583C29.2027 32.5187 28.4208 32.5372 27.867 32.8074C27.3926 33.0382 27.0479 33.3733 26.8961 33.7515C26.7998 33.9918 26.7798 34.2423 26.8081 34.4868Z" fill="#051328"/>
</svg>
