<svg width="1200" height="64" viewBox="0 0 1200 64" fill="none" xmlns="http://www.w3.org/2000/svg">
<path d="M83.7715 52.2015C79.0333 56.1535 72.8744 58.7343 66.4105 59.6851C59.9094 60.6359 53.1479 59.9891 47.1452 57.57C41.3358 55.2285 36.434 51.2895 33.0495 46.5807C31.3536 44.2263 30.037 41.652 29.1742 38.9742C28.3039 36.277 27.8501 33.4051 28.0658 30.6044C28.289 27.7197 29.2857 24.7249 31.7627 22.6745C34.3884 20.5142 37.9514 19.2141 41.5143 18.8195C45.1219 18.425 48.9229 18.729 52.2925 19.9515C53.7876 20.4948 55.2232 21.1804 56.3836 22.17C57.4175 23.0497 58.2729 24.1169 58.9052 25.2488C60.0953 27.3704 60.7871 30.1323 59.3291 32.2926C58.5779 33.4051 57.2836 34.246 56.0563 34.9381C54.6281 35.7401 53.0586 36.3934 51.4371 36.8203C49.8378 37.2407 48.1121 37.3572 46.4534 37.4477C44.6087 37.5447 42.764 37.5318 40.9193 37.4154C37.2373 37.176 33.5851 36.5357 30.0891 35.4943C26.6749 34.4788 23.2979 33.1141 20.3523 31.2901C17.5108 29.5372 15.1306 27.2992 13.204 24.7831C8.91212 19.1882 7.11949 12.5196 6.25664 5.92212C6.03349 4.21454 5.86985 2.50695 5.73596 0.792904C5.70621 0.443626 6.10044 0.146091 6.47979 0.146091C6.90378 0.146091 7.19387 0.443626 7.22363 0.792904C7.74431 7.37098 8.67412 14.1302 11.9247 20.1649C13.3156 22.7457 15.0934 25.1777 17.3249 27.2669C19.6159 29.4078 22.3383 31.0313 25.3285 32.3508C31.5767 35.1127 38.6878 36.4451 45.6873 36.1864C47.2939 36.1282 48.9676 36.0441 50.5296 35.6948C52.0173 35.3585 53.438 34.7958 54.7546 34.1166C55.9001 33.5216 57.2167 32.7519 57.9308 31.7946C58.563 30.9537 58.7192 29.977 58.6374 28.9615C58.444 26.7365 57.0381 24.4597 55.1637 22.9397C54.0926 22.0665 52.6942 21.4456 51.3106 20.9928C49.6891 20.4624 47.9783 20.139 46.26 20.0161C42.8607 19.7704 39.387 20.1714 36.315 21.5103C34.8347 22.1506 33.4066 22.9785 32.2983 24.0522C31.3015 25.0225 30.6246 26.2126 30.1932 27.4545C29.3006 30.0352 29.3601 32.8424 29.8287 35.4879C30.2899 38.088 31.1974 40.6365 32.5065 43.0167C35.1025 47.7514 39.1861 51.8781 44.274 54.7111C49.5106 57.6282 55.6695 58.993 61.8731 58.7925C68.0543 58.592 74.1612 56.852 79.2341 53.7732C80.4689 53.0229 81.6293 52.1885 82.7153 51.283C83.4145 50.7138 84.4633 51.6258 83.7715 52.2015Z" fill="#1E293B"/>
<path d="M0.523578 3.67784C0.620276 3.65197 0.709558 3.61963 0.806256 3.58729C0.746749 3.60669 0.68725 3.63256 0.627743 3.65197C1.24512 3.41912 1.79556 3.06983 2.33856 2.73349C2.91131 2.38421 3.47662 2.02847 4.04193 1.66625C4.36178 1.45927 4.68162 1.24582 5.00147 1.03238C4.9494 1.06472 4.90477 1.09706 4.8527 1.13587C5.22462 0.890083 5.58165 0.624884 5.96101 0.385564C6.42218 0.0880308 7.0619 0.042767 7.54539 0.333832C7.88756 0.540812 8.16277 0.825408 8.46774 1.07766C8.74296 1.31052 9.02561 1.53689 9.3157 1.75034C9.64299 1.99613 9.9777 2.23545 10.3124 2.46183C10.2604 2.42949 10.2157 2.39716 10.1637 2.35835C11.086 2.97929 12.0605 3.52907 13.0869 4.01418C13.377 4.15001 13.6746 4.28584 13.9795 4.4152C14.1432 4.47988 14.2771 4.65452 14.3217 4.80329C14.3738 4.95852 14.3514 5.16551 14.2473 5.30134C14.1432 5.43717 13.9944 5.56006 13.801 5.59887C13.6002 5.63768 13.4142 5.61181 13.2283 5.53419C11.3092 4.71921 9.53143 3.66491 7.9545 2.42303C7.73879 2.25486 7.53052 2.08022 7.32224 1.90558C7.12141 1.73094 6.92799 1.5369 6.70484 1.38166C6.75691 1.414 6.80154 1.44633 6.85361 1.48514C6.7941 1.44633 6.73458 1.414 6.6602 1.38166C6.71971 1.40107 6.77924 1.42694 6.83875 1.44634C6.78668 1.42694 6.73461 1.414 6.68254 1.40753C6.74948 1.414 6.81641 1.42048 6.88335 1.43341C6.83872 1.42694 6.78666 1.42694 6.74203 1.43341C6.80898 1.42694 6.87593 1.42047 6.94288 1.40753C6.89081 1.414 6.84619 1.42693 6.80156 1.43987C6.86107 1.42047 6.92056 1.39459 6.98007 1.37519C6.87593 1.414 6.78665 1.46575 6.69739 1.52396C6.74946 1.49162 6.79409 1.45927 6.84616 1.42046C5.38081 2.41008 3.92292 3.40618 2.37575 4.29231C1.92945 4.55104 1.46082 4.77095 0.947577 4.91972C0.769057 4.97146 0.531016 4.93265 0.374811 4.85504C0.218606 4.77742 0.0698685 4.62218 0.0326768 4.46695C-0.0863365 4.11767 0.129346 3.79427 0.523578 3.67784Z" fill="#1E293B"/>
<path d="M108.84 44.66C108.84 44.086 108.847 43.561 108.861 43.085C108.889 42.595 108.945 42.112 109.029 41.636C109.099 41.314 109.176 40.999 109.26 40.691C109.344 40.383 109.477 40.089 109.659 39.809C109.785 39.571 109.939 39.382 110.121 39.242C110.233 39.172 110.352 39.13 110.478 39.116C110.604 39.102 110.716 39.13 110.814 39.2C110.94 39.256 111.024 39.34 111.066 39.452C111.108 39.564 111.129 39.683 111.129 39.809C111.101 40.159 111.066 40.502 111.024 40.838C110.996 41.16 110.968 41.496 110.94 41.846C110.912 42.378 110.877 42.917 110.835 43.463C110.807 43.995 110.8 44.527 110.814 45.059C110.842 45.829 110.905 46.592 111.003 47.348C111.101 48.09 111.248 48.832 111.444 49.574C111.542 49.952 111.661 50.33 111.801 50.708C111.955 51.072 112.123 51.429 112.305 51.779C112.431 52.031 112.578 52.269 112.746 52.493C112.914 52.703 113.089 52.906 113.271 53.102C113.341 53.2 113.418 53.263 113.502 53.291C113.796 53.529 114.097 53.536 114.405 53.312C114.615 53.172 114.797 53.018 114.951 52.85C115.119 52.668 115.273 52.479 115.413 52.283C116.015 51.429 116.519 50.491 116.925 49.469C117.205 48.811 117.436 48.146 117.618 47.474C117.8 46.788 117.94 46.088 118.038 45.374C118.108 44.982 118.15 44.59 118.164 44.198C118.178 43.806 118.199 43.414 118.227 43.022C118.255 42.56 118.276 42.105 118.29 41.657C118.318 41.195 118.297 40.733 118.227 40.271C118.227 40.131 118.255 39.984 118.311 39.83C118.409 39.55 118.591 39.403 118.857 39.389C119.123 39.361 119.333 39.438 119.487 39.62C119.599 39.718 119.683 39.844 119.739 39.998C119.795 40.138 119.837 40.285 119.865 40.439V40.586C119.865 41.72 119.844 42.861 119.802 44.009C119.774 45.143 119.634 46.27 119.382 47.39C119.312 47.768 119.221 48.139 119.109 48.503C118.997 48.853 118.878 49.21 118.752 49.574C118.584 50.148 118.374 50.715 118.122 51.275C117.884 51.821 117.611 52.353 117.303 52.871C117.121 53.179 116.918 53.48 116.694 53.774C116.47 54.054 116.225 54.32 115.959 54.572C115.609 54.908 115.224 55.153 114.804 55.307C114.398 55.461 113.95 55.503 113.46 55.433C113.124 55.363 112.844 55.244 112.62 55.076C112.27 54.88 111.962 54.635 111.696 54.341C111.444 54.047 111.206 53.725 110.982 53.375C110.59 52.773 110.261 52.143 109.995 51.485C109.729 50.813 109.519 50.12 109.365 49.406C109.183 48.58 109.05 47.768 108.966 46.97C108.882 46.158 108.84 45.388 108.84 44.66ZM126.766 54.509C126.668 54.481 126.57 54.453 126.472 54.425C126.388 54.383 126.297 54.348 126.199 54.32C124.295 53.592 123.266 52.227 123.112 50.225C123.056 49.581 123.154 48.986 123.406 48.44C123.658 47.894 124.05 47.432 124.582 47.054C124.918 46.816 125.268 46.662 125.632 46.592C125.996 46.522 126.374 46.592 126.766 46.802C126.892 46.858 127.011 46.935 127.123 47.033C127.249 47.131 127.347 47.243 127.417 47.369C128.159 48.489 128.285 49.672 127.795 50.918C127.753 51.072 127.655 51.191 127.501 51.275C127.361 51.359 127.221 51.387 127.081 51.359C126.759 51.331 126.577 51.114 126.535 50.708C126.535 50.512 126.535 50.323 126.535 50.141C126.549 49.945 126.542 49.756 126.514 49.574C126.5 49.42 126.465 49.273 126.409 49.133C126.367 48.979 126.297 48.839 126.199 48.713C126.045 48.545 125.884 48.524 125.716 48.65C125.548 48.79 125.415 48.958 125.317 49.154C125.219 49.336 125.142 49.539 125.086 49.763C125.016 50.239 125.114 50.715 125.38 51.191C125.66 51.667 125.996 52.01 126.388 52.22C126.626 52.346 126.864 52.451 127.102 52.535C127.34 52.605 127.592 52.668 127.858 52.724C127.984 52.752 128.103 52.787 128.215 52.829C128.341 52.871 128.467 52.906 128.593 52.934C128.915 53.06 129.146 53.27 129.286 53.564C129.426 53.844 129.454 54.152 129.37 54.488C129.314 54.796 129.16 55.076 128.908 55.328C128.6 55.678 128.25 55.972 127.858 56.21C127.466 56.448 127.067 56.679 126.661 56.903C126.409 57.029 126.157 57.141 125.905 57.239C125.667 57.351 125.408 57.428 125.128 57.47C125.002 57.484 124.876 57.484 124.75 57.47C124.638 57.456 124.519 57.435 124.393 57.407C124.043 57.295 123.833 57.092 123.763 56.798C123.693 56.518 123.707 56.259 123.805 56.021C123.875 55.825 123.98 55.657 124.12 55.517C124.232 55.419 124.344 55.356 124.456 55.328C124.582 55.3 124.701 55.321 124.813 55.391C124.911 55.447 124.995 55.468 125.065 55.454C125.135 55.44 125.205 55.419 125.275 55.391C125.471 55.279 125.667 55.174 125.863 55.076C126.073 54.978 126.276 54.873 126.472 54.761C126.528 54.733 126.584 54.698 126.64 54.656C126.696 54.614 126.738 54.565 126.766 54.509ZM137.791 54.257C137.735 54.355 137.672 54.446 137.602 54.53C137.546 54.614 137.483 54.705 137.413 54.803C137.315 54.943 137.203 55.083 137.077 55.223C136.965 55.349 136.839 55.468 136.699 55.58C136.237 55.916 135.782 56.049 135.334 55.979C134.886 55.909 134.508 55.748 134.2 55.496C133.822 55.174 133.549 54.796 133.381 54.362C132.989 53.48 132.758 52.577 132.688 51.653C132.632 50.729 132.709 49.805 132.919 48.881C133.003 48.447 133.192 48.111 133.486 47.873C133.612 47.761 133.745 47.684 133.885 47.642C134.025 47.586 134.172 47.6 134.326 47.684C134.48 47.74 134.592 47.838 134.662 47.978C134.732 48.104 134.767 48.244 134.767 48.398C134.767 48.524 134.767 48.65 134.767 48.776C134.767 48.902 134.76 49.021 134.746 49.133C134.69 49.567 134.662 50.008 134.662 50.456C134.662 50.89 134.69 51.331 134.746 51.779C134.774 52.087 134.816 52.395 134.872 52.703C134.942 52.997 135.047 53.284 135.187 53.564C135.215 53.62 135.243 53.662 135.271 53.69C135.355 53.844 135.432 53.935 135.502 53.963C135.572 53.991 135.684 53.963 135.838 53.879C136.16 53.683 136.412 53.431 136.594 53.123C136.804 52.857 136.965 52.57 137.077 52.262C137.189 51.954 137.28 51.646 137.35 51.338C137.476 50.834 137.56 50.323 137.602 49.805C137.644 49.287 137.658 48.769 137.644 48.251C137.644 47.817 137.812 47.481 138.148 47.243C138.428 47.047 138.736 47.005 139.072 47.117C139.422 47.229 139.646 47.502 139.744 47.936C139.8 48.16 139.828 48.391 139.828 48.629C139.842 48.853 139.835 49.084 139.807 49.322C139.793 50.05 139.779 50.778 139.765 51.506C139.751 52.22 139.765 52.941 139.807 53.669C139.835 54.019 139.842 54.383 139.828 54.761C139.814 55.139 139.8 55.51 139.786 55.874C139.744 56.182 139.583 56.399 139.303 56.525C139.163 56.581 139.023 56.581 138.883 56.525C138.743 56.469 138.624 56.385 138.526 56.273C138.442 56.175 138.372 56.084 138.316 56C138.274 55.902 138.239 55.804 138.211 55.706C138.127 55.468 138.05 55.23 137.98 54.992C137.924 54.754 137.861 54.509 137.791 54.257ZM147.787 54.488C147.689 54.558 147.612 54.649 147.556 54.761C147.514 54.859 147.458 54.943 147.388 55.013C147.248 55.223 147.094 55.419 146.926 55.601C146.758 55.769 146.555 55.902 146.317 56C145.925 56.182 145.526 56.196 145.12 56.042C144.728 55.874 144.455 55.587 144.301 55.181C143.993 54.397 143.902 53.648 144.028 52.934C144.168 52.22 144.49 51.541 144.994 50.897C145.274 50.547 145.603 50.302 145.981 50.162C146.373 50.008 146.8 49.98 147.262 50.078C147.29 50.078 147.311 50.085 147.325 50.099C147.353 50.099 147.381 50.099 147.409 50.099C147.465 49.987 147.479 49.889 147.451 49.805C147.423 49.707 147.402 49.609 147.388 49.511C147.332 49.203 147.262 48.909 147.178 48.629C147.108 48.349 147.017 48.076 146.905 47.81C146.737 47.446 146.583 47.25 146.443 47.222C146.317 47.194 146.107 47.306 145.813 47.558C145.351 47.95 144.952 48.419 144.616 48.965C144.504 49.105 144.448 49.245 144.448 49.385C144.448 49.693 144.301 49.889 144.007 49.973C143.909 50.001 143.79 49.987 143.65 49.931C143.51 49.875 143.398 49.798 143.314 49.7C143.132 49.42 143.069 49.112 143.125 48.776C143.181 48.454 143.272 48.153 143.398 47.873C143.524 47.579 143.678 47.306 143.86 47.054C144.056 46.774 144.266 46.522 144.49 46.298C144.714 46.06 144.966 45.85 145.246 45.668C145.694 45.388 146.177 45.269 146.695 45.311C147.227 45.339 147.696 45.584 148.102 46.046C148.284 46.228 148.424 46.431 148.522 46.655C148.634 46.865 148.739 47.089 148.837 47.327C148.991 47.761 149.117 48.202 149.215 48.65C149.327 49.098 149.411 49.553 149.467 50.015C149.537 50.645 149.6 51.268 149.656 51.884C149.712 52.5 149.761 53.123 149.803 53.753C149.845 54.117 149.845 54.488 149.803 54.866C149.775 55.286 149.6 55.587 149.278 55.769C148.956 55.937 148.62 55.909 148.27 55.685C148.13 55.587 148.032 55.468 147.976 55.328C147.92 55.188 147.878 55.041 147.85 54.887C147.836 54.817 147.829 54.754 147.829 54.698C147.829 54.628 147.815 54.558 147.787 54.488ZM146.002 54.005C146.226 53.767 146.443 53.536 146.653 53.312C146.863 53.074 147.045 52.815 147.199 52.535C147.241 52.451 147.234 52.353 147.178 52.241C147.136 52.115 147.066 52.024 146.968 51.968C146.87 51.898 146.793 51.891 146.737 51.947C146.695 51.989 146.639 52.024 146.569 52.052C146.555 52.08 146.534 52.108 146.506 52.136C146.478 52.164 146.457 52.192 146.443 52.22C146.261 52.486 146.128 52.766 146.044 53.06C145.96 53.34 145.946 53.655 146.002 54.005ZM155.084 54.11C155.084 54.306 155.091 54.509 155.105 54.719C155.119 54.929 155.112 55.146 155.084 55.37C155.084 55.426 155.084 55.496 155.084 55.58C155.084 55.65 155.077 55.727 155.063 55.811C155.021 56.091 154.874 56.259 154.622 56.315C154.342 56.329 154.118 56.245 153.95 56.063C153.852 55.951 153.775 55.825 153.719 55.685C153.677 55.545 153.628 55.405 153.572 55.265C153.516 55.013 153.467 54.761 153.425 54.509C153.397 54.257 153.376 54.005 153.362 53.753C153.278 52.983 153.222 52.213 153.194 51.443C153.18 50.673 153.159 49.903 153.131 49.133C153.117 48.027 153.103 46.928 153.089 45.836C153.089 44.744 153.096 43.645 153.11 42.539C153.11 42.441 153.11 42.35 153.11 42.266C153.124 42.168 153.145 42.07 153.173 41.972C153.243 41.776 153.355 41.615 153.509 41.489C153.663 41.349 153.845 41.279 154.055 41.279C154.489 41.279 154.769 41.51 154.895 41.972C154.937 42.098 154.958 42.224 154.958 42.35C155.014 43.26 155.049 44.17 155.063 45.08C155.091 45.99 155.112 46.9 155.126 47.81C155.126 47.908 155.126 48.139 155.126 48.503C155.126 48.867 155.126 49.301 155.126 49.805C155.126 50.295 155.119 50.813 155.105 51.359C155.105 51.905 155.105 52.423 155.105 52.913C155.105 53.389 155.098 53.788 155.084 54.11ZM160.353 54.11C160.353 54.306 160.36 54.509 160.374 54.719C160.388 54.929 160.381 55.146 160.353 55.37C160.353 55.426 160.353 55.496 160.353 55.58C160.353 55.65 160.346 55.727 160.332 55.811C160.29 56.091 160.143 56.259 159.891 56.315C159.611 56.329 159.387 56.245 159.219 56.063C159.121 55.951 159.044 55.825 158.988 55.685C158.946 55.545 158.897 55.405 158.841 55.265C158.785 55.013 158.736 54.761 158.694 54.509C158.666 54.257 158.645 54.005 158.631 53.753C158.547 52.983 158.491 52.213 158.463 51.443C158.449 50.673 158.428 49.903 158.4 49.133C158.386 48.027 158.372 46.928 158.358 45.836C158.358 44.744 158.365 43.645 158.379 42.539C158.379 42.441 158.379 42.35 158.379 42.266C158.393 42.168 158.414 42.07 158.442 41.972C158.512 41.776 158.624 41.615 158.778 41.489C158.932 41.349 159.114 41.279 159.324 41.279C159.758 41.279 160.038 41.51 160.164 41.972C160.206 42.098 160.227 42.224 160.227 42.35C160.283 43.26 160.318 44.17 160.332 45.08C160.36 45.99 160.381 46.9 160.395 47.81C160.395 47.908 160.395 48.139 160.395 48.503C160.395 48.867 160.395 49.301 160.395 49.805C160.395 50.295 160.388 50.813 160.374 51.359C160.374 51.905 160.374 52.423 160.374 52.913C160.374 53.389 160.367 53.788 160.353 54.11ZM168.204 53.06C168.078 53.242 167.959 53.417 167.847 53.585C167.749 53.753 167.637 53.914 167.511 54.068C167.357 54.25 167.189 54.418 167.007 54.572C166.839 54.726 166.643 54.852 166.419 54.95C165.887 55.146 165.411 55.097 164.991 54.803C164.809 54.677 164.655 54.523 164.529 54.341C164.417 54.159 164.312 53.963 164.214 53.753C164.032 53.361 163.892 52.955 163.794 52.535C163.71 52.101 163.661 51.667 163.647 51.233C163.647 50.911 163.654 50.582 163.668 50.246C163.696 49.91 163.759 49.588 163.857 49.28C163.913 49.056 164.018 48.846 164.172 48.65C164.256 48.58 164.347 48.524 164.445 48.482C164.557 48.44 164.676 48.433 164.802 48.461C165.026 48.517 165.152 48.685 165.18 48.965C165.208 49.147 165.222 49.336 165.222 49.532C165.222 49.714 165.229 49.903 165.243 50.099C165.243 50.603 165.264 51.1 165.306 51.59C165.348 52.08 165.432 52.57 165.558 53.06C165.586 53.172 165.621 53.298 165.663 53.438C165.705 53.564 165.789 53.641 165.915 53.669C166.041 53.697 166.146 53.669 166.23 53.585C166.314 53.487 166.398 53.396 166.482 53.312C166.678 53.116 166.839 52.906 166.965 52.682C167.105 52.458 167.224 52.22 167.322 51.968C167.504 51.632 167.644 51.289 167.742 50.939C167.854 50.589 167.959 50.239 168.057 49.889C168.085 49.763 168.092 49.637 168.078 49.511C168.078 49.385 168.078 49.259 168.078 49.133C168.078 48.937 168.085 48.748 168.099 48.566C168.113 48.37 168.127 48.181 168.141 47.999C168.183 47.761 168.246 47.572 168.33 47.432C168.512 47.194 168.743 47.082 169.023 47.096C169.303 47.11 169.506 47.25 169.632 47.516C169.73 47.698 169.793 47.887 169.821 48.083C169.849 48.265 169.87 48.454 169.884 48.65C169.954 49.154 169.996 49.665 170.01 50.183C170.024 50.701 170.031 51.219 170.031 51.737C170.031 52.521 170.031 53.319 170.031 54.131C170.031 54.929 170.024 55.72 170.01 56.504C169.996 56.952 169.968 57.4 169.926 57.848C169.884 58.31 169.807 58.765 169.695 59.213C169.611 59.535 169.492 59.836 169.338 60.116C169.198 60.41 168.988 60.676 168.708 60.914C168.526 61.068 168.33 61.173 168.12 61.229C167.91 61.285 167.686 61.271 167.448 61.187C167.196 61.117 167 60.984 166.86 60.788C166.734 60.592 166.65 60.382 166.608 60.158C166.482 59.626 166.447 59.108 166.503 58.604C166.531 58.492 166.566 58.38 166.608 58.268C166.65 58.17 166.713 58.086 166.797 58.016C166.839 57.946 166.895 57.89 166.965 57.848C167.049 57.82 167.126 57.82 167.196 57.848C167.392 57.918 167.497 58.037 167.511 58.205C167.511 58.247 167.518 58.296 167.532 58.352C167.546 58.408 167.553 58.464 167.553 58.52C167.553 58.8 167.623 59.059 167.763 59.297C167.847 59.283 167.903 59.248 167.931 59.192C167.959 59.15 167.98 59.101 167.994 59.045C168.064 58.821 168.113 58.597 168.141 58.373C168.183 58.163 168.204 57.946 168.204 57.722C168.232 57.428 168.26 57.127 168.288 56.819C168.316 56.525 168.33 56.231 168.33 55.937C168.316 55.461 168.309 54.985 168.309 54.509C168.309 54.019 168.274 53.536 168.204 53.06ZM181.802 48.902C181.872 48.832 181.935 48.755 181.991 48.671C182.061 48.587 182.124 48.51 182.18 48.44C182.642 47.936 183.174 47.684 183.776 47.684C184.378 47.67 184.91 47.95 185.372 48.524C185.638 48.86 185.834 49.231 185.96 49.637C186.086 50.029 186.149 50.435 186.149 50.855C186.177 51.723 186.072 52.556 185.834 53.354C185.596 54.138 185.19 54.88 184.616 55.58C184.42 55.818 184.196 56.021 183.944 56.189C183.664 56.371 183.37 56.525 183.062 56.651C182.768 56.791 182.453 56.875 182.117 56.903C181.949 56.931 181.865 57.036 181.865 57.218C181.865 57.484 181.865 57.75 181.865 58.016C181.879 58.282 181.9 58.555 181.928 58.835C181.984 59.381 182.04 59.92 182.096 60.452C182.166 60.998 182.215 61.551 182.243 62.111C182.243 62.237 182.243 62.356 182.243 62.468C182.243 62.58 182.236 62.692 182.222 62.804C182.11 63.266 181.823 63.518 181.361 63.56C180.955 63.588 180.661 63.378 180.479 62.93C180.395 62.622 180.332 62.335 180.29 62.069C180.192 61.327 180.108 60.592 180.038 59.864C179.982 59.15 179.919 58.429 179.849 57.701C179.807 56.875 179.772 56.056 179.744 55.244C179.73 54.432 179.716 53.62 179.702 52.808C179.688 52.29 179.681 51.772 179.681 51.254C179.695 50.736 179.709 50.218 179.723 49.7C179.751 49.462 179.779 49.224 179.807 48.986C179.835 48.748 179.863 48.51 179.891 48.272C179.919 48.132 179.961 47.992 180.017 47.852C180.073 47.698 180.157 47.565 180.269 47.453C180.521 47.201 180.794 47.11 181.088 47.18C181.396 47.25 181.606 47.446 181.718 47.768C181.746 47.88 181.767 47.999 181.781 48.125C181.809 48.251 181.809 48.377 181.781 48.503C181.767 48.559 181.753 48.622 181.739 48.692C181.739 48.748 181.739 48.811 181.739 48.881C181.767 48.881 181.781 48.888 181.781 48.902C181.795 48.902 181.802 48.902 181.802 48.902ZM183.692 49.658C183.16 50.526 182.775 51.436 182.537 52.388C182.299 53.326 182.11 54.285 181.97 55.265C182.096 55.251 182.187 55.216 182.243 55.16C182.313 55.09 182.376 55.034 182.432 54.992C183.118 54.432 183.587 53.795 183.839 53.081C184.091 52.353 184.203 51.562 184.175 50.708C184.161 50.526 184.119 50.351 184.049 50.183C183.993 50.015 183.874 49.84 183.692 49.658ZM189.421 52.346C189.421 51.688 189.512 51.058 189.694 50.456C189.89 49.84 190.142 49.238 190.45 48.65C190.604 48.37 190.786 48.104 190.996 47.852C191.206 47.6 191.444 47.383 191.71 47.201C192.074 46.949 192.452 46.802 192.844 46.76C193.264 46.732 193.642 46.823 193.978 47.033C194.314 47.243 194.573 47.53 194.755 47.894C194.937 48.244 194.993 48.643 194.923 49.091C194.909 49.217 194.881 49.35 194.839 49.49C194.797 49.63 194.741 49.763 194.671 49.889C194.489 50.239 194.272 50.575 194.02 50.897C193.782 51.205 193.488 51.478 193.138 51.716C192.914 51.87 192.676 52.003 192.424 52.115C192.186 52.213 191.927 52.255 191.647 52.241C191.549 52.241 191.486 52.255 191.458 52.283C191.444 52.311 191.437 52.374 191.437 52.472C191.423 52.696 191.437 52.92 191.479 53.144C191.521 53.368 191.577 53.592 191.647 53.816C191.731 53.998 191.808 54.103 191.878 54.131C191.948 54.159 192.074 54.117 192.256 54.005C192.522 53.865 192.76 53.676 192.97 53.438C193.096 53.326 193.222 53.228 193.348 53.144C193.474 53.046 193.6 52.948 193.726 52.85C193.782 52.794 193.866 52.738 193.978 52.682C194.188 52.612 194.363 52.633 194.503 52.745C194.657 52.843 194.734 53.004 194.734 53.228C194.734 53.326 194.727 53.424 194.713 53.522C194.699 53.62 194.678 53.718 194.65 53.816C194.468 54.348 194.209 54.81 193.873 55.202C193.537 55.594 193.082 55.881 192.508 56.063C191.71 56.273 191.017 56.084 190.429 55.496C190.121 55.188 189.904 54.845 189.778 54.467C189.652 54.089 189.554 53.697 189.484 53.291C189.47 53.137 189.456 52.983 189.442 52.829C189.442 52.661 189.435 52.5 189.421 52.346ZM193.348 48.881C193.348 48.783 193.341 48.699 193.327 48.629C193.313 48.545 193.271 48.489 193.201 48.461C193.103 48.405 192.977 48.44 192.823 48.566C192.767 48.594 192.718 48.629 192.676 48.671C192.634 48.713 192.585 48.762 192.529 48.818C192.347 49.042 192.193 49.287 192.067 49.553C191.955 49.819 191.85 50.085 191.752 50.351C191.682 50.449 191.689 50.526 191.773 50.582C191.801 50.61 191.836 50.624 191.878 50.624C191.934 50.61 191.976 50.596 192.004 50.582C192.634 50.232 193.075 49.714 193.327 49.028C193.341 49 193.348 48.972 193.348 48.944C193.348 48.902 193.348 48.881 193.348 48.881ZM204.475 51.464C204.405 52.836 203.901 54.117 202.963 55.307C202.795 55.531 202.599 55.727 202.375 55.895C202.151 56.049 201.899 56.168 201.619 56.252C201.073 56.378 200.548 56.315 200.044 56.063C199.862 55.951 199.687 55.818 199.519 55.664C199.351 55.496 199.211 55.321 199.099 55.139C198.735 54.565 198.49 53.977 198.364 53.375C198.238 52.759 198.196 52.129 198.238 51.485C198.294 50.911 198.42 50.365 198.616 49.847C198.812 49.315 199.099 48.832 199.477 48.398C199.799 48.048 200.184 47.831 200.632 47.747C200.842 47.691 201.031 47.691 201.199 47.747C201.367 47.789 201.528 47.873 201.682 47.999C201.724 48.041 201.773 48.069 201.829 48.083C201.885 48.083 201.948 48.083 202.018 48.083C202.396 48.041 202.732 48.097 203.026 48.251C203.334 48.405 203.6 48.636 203.824 48.944C204.076 49.294 204.244 49.672 204.328 50.078C204.426 50.47 204.475 50.932 204.475 51.464ZM201.493 49.889C201.339 49.889 201.178 49.91 201.01 49.952C200.87 49.952 200.765 49.987 200.695 50.057C200.625 50.127 200.562 50.225 200.506 50.351C200.31 50.869 200.205 51.387 200.191 51.905C200.191 52.423 200.268 52.948 200.422 53.48C200.506 53.704 200.639 53.935 200.821 54.173C200.919 54.271 200.989 54.327 201.031 54.341C201.087 54.341 201.164 54.292 201.262 54.194C201.388 54.068 201.507 53.942 201.619 53.816C201.745 53.676 201.85 53.529 201.934 53.375C202.004 53.207 202.074 53.032 202.144 52.85C202.228 52.668 202.291 52.486 202.333 52.304C202.403 52.038 202.459 51.772 202.501 51.506C202.543 51.226 202.529 50.946 202.459 50.666C202.389 50.372 202.284 50.169 202.144 50.057C202.004 49.945 201.787 49.889 201.493 49.889ZM209.852 48.902C209.922 48.832 209.985 48.755 210.041 48.671C210.111 48.587 210.174 48.51 210.23 48.44C210.692 47.936 211.224 47.684 211.826 47.684C212.428 47.67 212.96 47.95 213.422 48.524C213.688 48.86 213.884 49.231 214.01 49.637C214.136 50.029 214.199 50.435 214.199 50.855C214.227 51.723 214.122 52.556 213.884 53.354C213.646 54.138 213.24 54.88 212.666 55.58C212.47 55.818 212.246 56.021 211.994 56.189C211.714 56.371 211.42 56.525 211.112 56.651C210.818 56.791 210.503 56.875 210.167 56.903C209.999 56.931 209.915 57.036 209.915 57.218C209.915 57.484 209.915 57.75 209.915 58.016C209.929 58.282 209.95 58.555 209.978 58.835C210.034 59.381 210.09 59.92 210.146 60.452C210.216 60.998 210.265 61.551 210.293 62.111C210.293 62.237 210.293 62.356 210.293 62.468C210.293 62.58 210.286 62.692 210.272 62.804C210.16 63.266 209.873 63.518 209.411 63.56C209.005 63.588 208.711 63.378 208.529 62.93C208.445 62.622 208.382 62.335 208.34 62.069C208.242 61.327 208.158 60.592 208.088 59.864C208.032 59.15 207.969 58.429 207.899 57.701C207.857 56.875 207.822 56.056 207.794 55.244C207.78 54.432 207.766 53.62 207.752 52.808C207.738 52.29 207.731 51.772 207.731 51.254C207.745 50.736 207.759 50.218 207.773 49.7C207.801 49.462 207.829 49.224 207.857 48.986C207.885 48.748 207.913 48.51 207.941 48.272C207.969 48.132 208.011 47.992 208.067 47.852C208.123 47.698 208.207 47.565 208.319 47.453C208.571 47.201 208.844 47.11 209.138 47.18C209.446 47.25 209.656 47.446 209.768 47.768C209.796 47.88 209.817 47.999 209.831 48.125C209.859 48.251 209.859 48.377 209.831 48.503C209.817 48.559 209.803 48.622 209.789 48.692C209.789 48.748 209.789 48.811 209.789 48.881C209.817 48.881 209.831 48.888 209.831 48.902C209.845 48.902 209.852 48.902 209.852 48.902ZM211.742 49.658C211.21 50.526 210.825 51.436 210.587 52.388C210.349 53.326 210.16 54.285 210.02 55.265C210.146 55.251 210.237 55.216 210.293 55.16C210.363 55.09 210.426 55.034 210.482 54.992C211.168 54.432 211.637 53.795 211.889 53.081C212.141 52.353 212.253 51.562 212.225 50.708C212.211 50.526 212.169 50.351 212.099 50.183C212.043 50.015 211.924 49.84 211.742 49.658ZM219.445 54.11C219.445 54.306 219.452 54.509 219.466 54.719C219.48 54.929 219.473 55.146 219.445 55.37C219.445 55.426 219.445 55.496 219.445 55.58C219.445 55.65 219.438 55.727 219.424 55.811C219.382 56.091 219.235 56.259 218.983 56.315C218.703 56.329 218.479 56.245 218.311 56.063C218.213 55.951 218.136 55.825 218.08 55.685C218.038 55.545 217.989 55.405 217.933 55.265C217.877 55.013 217.828 54.761 217.786 54.509C217.758 54.257 217.737 54.005 217.723 53.753C217.639 52.983 217.583 52.213 217.555 51.443C217.541 50.673 217.52 49.903 217.492 49.133C217.478 48.027 217.464 46.928 217.45 45.836C217.45 44.744 217.457 43.645 217.471 42.539C217.471 42.441 217.471 42.35 217.471 42.266C217.485 42.168 217.506 42.07 217.534 41.972C217.604 41.776 217.716 41.615 217.87 41.489C218.024 41.349 218.206 41.279 218.416 41.279C218.85 41.279 219.13 41.51 219.256 41.972C219.298 42.098 219.319 42.224 219.319 42.35C219.375 43.26 219.41 44.17 219.424 45.08C219.452 45.99 219.473 46.9 219.487 47.81C219.487 47.908 219.487 48.139 219.487 48.503C219.487 48.867 219.487 49.301 219.487 49.805C219.487 50.295 219.48 50.813 219.466 51.359C219.466 51.905 219.466 52.423 219.466 52.913C219.466 53.389 219.459 53.788 219.445 54.11ZM222.739 52.346C222.739 51.688 222.83 51.058 223.012 50.456C223.208 49.84 223.46 49.238 223.768 48.65C223.922 48.37 224.104 48.104 224.314 47.852C224.524 47.6 224.762 47.383 225.028 47.201C225.392 46.949 225.77 46.802 226.162 46.76C226.582 46.732 226.96 46.823 227.296 47.033C227.632 47.243 227.891 47.53 228.073 47.894C228.255 48.244 228.311 48.643 228.241 49.091C228.227 49.217 228.199 49.35 228.157 49.49C228.115 49.63 228.059 49.763 227.989 49.889C227.807 50.239 227.59 50.575 227.338 50.897C227.1 51.205 226.806 51.478 226.456 51.716C226.232 51.87 225.994 52.003 225.742 52.115C225.504 52.213 225.245 52.255 224.965 52.241C224.867 52.241 224.804 52.255 224.776 52.283C224.762 52.311 224.755 52.374 224.755 52.472C224.741 52.696 224.755 52.92 224.797 53.144C224.839 53.368 224.895 53.592 224.965 53.816C225.049 53.998 225.126 54.103 225.196 54.131C225.266 54.159 225.392 54.117 225.574 54.005C225.84 53.865 226.078 53.676 226.288 53.438C226.414 53.326 226.54 53.228 226.666 53.144C226.792 53.046 226.918 52.948 227.044 52.85C227.1 52.794 227.184 52.738 227.296 52.682C227.506 52.612 227.681 52.633 227.821 52.745C227.975 52.843 228.052 53.004 228.052 53.228C228.052 53.326 228.045 53.424 228.031 53.522C228.017 53.62 227.996 53.718 227.968 53.816C227.786 54.348 227.527 54.81 227.191 55.202C226.855 55.594 226.4 55.881 225.826 56.063C225.028 56.273 224.335 56.084 223.747 55.496C223.439 55.188 223.222 54.845 223.096 54.467C222.97 54.089 222.872 53.697 222.802 53.291C222.788 53.137 222.774 52.983 222.76 52.829C222.76 52.661 222.753 52.5 222.739 52.346ZM226.666 48.881C226.666 48.783 226.659 48.699 226.645 48.629C226.631 48.545 226.589 48.489 226.519 48.461C226.421 48.405 226.295 48.44 226.141 48.566C226.085 48.594 226.036 48.629 225.994 48.671C225.952 48.713 225.903 48.762 225.847 48.818C225.665 49.042 225.511 49.287 225.385 49.553C225.273 49.819 225.168 50.085 225.07 50.351C225 50.449 225.007 50.526 225.091 50.582C225.119 50.61 225.154 50.624 225.196 50.624C225.252 50.61 225.294 50.596 225.322 50.582C225.952 50.232 226.393 49.714 226.645 49.028C226.659 49 226.666 48.972 226.666 48.944C226.666 48.902 226.666 48.881 226.666 48.881ZM237.932 52.661C237.918 51.961 238.023 51.317 238.247 50.729C238.485 50.141 238.8 49.588 239.192 49.07C239.584 48.566 240.109 48.195 240.767 47.957C241.033 47.887 241.299 47.866 241.565 47.894C241.831 47.908 242.09 47.992 242.342 48.146C242.454 48.23 242.545 48.321 242.615 48.419C242.699 48.517 242.755 48.629 242.783 48.755C242.853 49.105 242.783 49.392 242.573 49.616C242.363 49.826 242.097 49.896 241.775 49.826C241.593 49.77 241.432 49.77 241.292 49.826C241.152 49.882 241.019 49.973 240.893 50.099C239.997 51.121 239.703 52.269 240.011 53.543C240.109 53.949 240.263 54.194 240.473 54.278C240.683 54.362 240.977 54.313 241.355 54.131C241.621 54.005 241.845 53.816 242.027 53.564C242.055 53.494 242.09 53.438 242.132 53.396C242.174 53.354 242.223 53.305 242.279 53.249C242.419 53.081 242.587 53.039 242.783 53.123C243.007 53.235 243.119 53.396 243.119 53.606C243.147 53.914 243.091 54.194 242.951 54.446C242.825 54.684 242.664 54.915 242.468 55.139C242.202 55.405 241.908 55.615 241.586 55.769C241.278 55.923 240.942 56.042 240.578 56.126C240.27 56.168 239.976 56.154 239.696 56.084C239.43 56 239.185 55.846 238.961 55.622C238.681 55.342 238.464 55.034 238.31 54.698C238.17 54.348 238.065 53.984 237.995 53.606C237.967 53.452 237.946 53.291 237.932 53.123C237.918 52.955 237.918 52.801 237.932 52.661ZM248.438 49.343C248.494 49.189 248.536 49.035 248.564 48.881C248.606 48.713 248.648 48.545 248.69 48.377C248.746 48.181 248.816 47.999 248.9 47.831C248.984 47.663 249.096 47.509 249.236 47.369C249.474 47.131 249.747 46.984 250.055 46.928C250.363 46.872 250.664 46.935 250.958 47.117C251.322 47.355 251.588 47.691 251.756 48.125C251.924 48.517 252.043 48.923 252.113 49.343C252.197 49.763 252.267 50.183 252.323 50.603C252.365 51.233 252.365 51.856 252.323 52.472C252.281 53.088 252.225 53.704 252.155 54.32C252.141 54.432 252.113 54.544 252.071 54.656C252.043 54.754 251.987 54.852 251.903 54.95C251.833 55.062 251.728 55.146 251.588 55.202C251.462 55.258 251.336 55.258 251.21 55.202C250.972 55.146 250.839 54.957 250.811 54.635C250.755 54.117 250.692 53.599 250.622 53.081C250.566 52.563 250.503 52.045 250.433 51.527C250.377 51.219 250.342 50.918 250.328 50.624C250.314 50.33 250.272 50.043 250.202 49.763C250.146 49.763 250.111 49.784 250.097 49.826C250.083 49.854 250.069 49.882 250.055 49.91C249.747 50.624 249.495 51.352 249.299 52.094C249.117 52.822 248.991 53.578 248.921 54.362C248.907 54.586 248.879 54.81 248.837 55.034C248.809 55.258 248.781 55.482 248.753 55.706C248.683 56.154 248.431 56.399 247.997 56.441C247.829 56.441 247.668 56.371 247.514 56.231C247.36 56.105 247.269 55.944 247.241 55.748C247.199 55.524 247.164 55.307 247.136 55.097C247.122 54.887 247.108 54.67 247.094 54.446C247.038 53.956 246.982 53.466 246.926 52.976C246.87 52.472 246.821 51.975 246.779 51.485C246.723 50.911 246.667 50.344 246.611 49.784C246.555 49.21 246.513 48.643 246.485 48.083C246.457 47.579 246.436 47.082 246.422 46.592C246.408 46.102 246.401 45.605 246.401 45.101C246.401 44.569 246.401 44.03 246.401 43.484C246.415 42.924 246.478 42.378 246.59 41.846C246.618 41.678 246.653 41.517 246.695 41.363C246.751 41.195 246.828 41.041 246.926 40.901C247.038 40.733 247.178 40.607 247.346 40.523C247.528 40.439 247.703 40.432 247.871 40.502C248.249 40.586 248.438 40.859 248.438 41.321C248.466 42.147 248.452 42.98 248.396 43.82C248.354 44.66 248.34 45.493 248.354 46.319C248.368 46.823 248.368 47.327 248.354 47.831C248.354 48.335 248.354 48.839 248.354 49.343H248.438ZM261.885 51.464C261.815 52.836 261.311 54.117 260.373 55.307C260.205 55.531 260.009 55.727 259.785 55.895C259.561 56.049 259.309 56.168 259.029 56.252C258.483 56.378 257.958 56.315 257.454 56.063C257.272 55.951 257.097 55.818 256.929 55.664C256.761 55.496 256.621 55.321 256.509 55.139C256.145 54.565 255.9 53.977 255.774 53.375C255.648 52.759 255.606 52.129 255.648 51.485C255.704 50.911 255.83 50.365 256.026 49.847C256.222 49.315 256.509 48.832 256.887 48.398C257.209 48.048 257.594 47.831 258.042 47.747C258.252 47.691 258.441 47.691 258.609 47.747C258.777 47.789 258.938 47.873 259.092 47.999C259.134 48.041 259.183 48.069 259.239 48.083C259.295 48.083 259.358 48.083 259.428 48.083C259.806 48.041 260.142 48.097 260.436 48.251C260.744 48.405 261.01 48.636 261.234 48.944C261.486 49.294 261.654 49.672 261.738 50.078C261.836 50.47 261.885 50.932 261.885 51.464ZM258.903 49.889C258.749 49.889 258.588 49.91 258.42 49.952C258.28 49.952 258.175 49.987 258.105 50.057C258.035 50.127 257.972 50.225 257.916 50.351C257.72 50.869 257.615 51.387 257.601 51.905C257.601 52.423 257.678 52.948 257.832 53.48C257.916 53.704 258.049 53.935 258.231 54.173C258.329 54.271 258.399 54.327 258.441 54.341C258.497 54.341 258.574 54.292 258.672 54.194C258.798 54.068 258.917 53.942 259.029 53.816C259.155 53.676 259.26 53.529 259.344 53.375C259.414 53.207 259.484 53.032 259.554 52.85C259.638 52.668 259.701 52.486 259.743 52.304C259.813 52.038 259.869 51.772 259.911 51.506C259.953 51.226 259.939 50.946 259.869 50.666C259.799 50.372 259.694 50.169 259.554 50.057C259.414 49.945 259.197 49.889 258.903 49.889ZM271.42 51.464C271.35 52.836 270.846 54.117 269.908 55.307C269.74 55.531 269.544 55.727 269.32 55.895C269.096 56.049 268.844 56.168 268.564 56.252C268.018 56.378 267.493 56.315 266.989 56.063C266.807 55.951 266.632 55.818 266.464 55.664C266.296 55.496 266.156 55.321 266.044 55.139C265.68 54.565 265.435 53.977 265.309 53.375C265.183 52.759 265.141 52.129 265.183 51.485C265.239 50.911 265.365 50.365 265.561 49.847C265.757 49.315 266.044 48.832 266.422 48.398C266.744 48.048 267.129 47.831 267.577 47.747C267.787 47.691 267.976 47.691 268.144 47.747C268.312 47.789 268.473 47.873 268.627 47.999C268.669 48.041 268.718 48.069 268.774 48.083C268.83 48.083 268.893 48.083 268.963 48.083C269.341 48.041 269.677 48.097 269.971 48.251C270.279 48.405 270.545 48.636 270.769 48.944C271.021 49.294 271.189 49.672 271.273 50.078C271.371 50.47 271.42 50.932 271.42 51.464ZM268.438 49.889C268.284 49.889 268.123 49.91 267.955 49.952C267.815 49.952 267.71 49.987 267.64 50.057C267.57 50.127 267.507 50.225 267.451 50.351C267.255 50.869 267.15 51.387 267.136 51.905C267.136 52.423 267.213 52.948 267.367 53.48C267.451 53.704 267.584 53.935 267.766 54.173C267.864 54.271 267.934 54.327 267.976 54.341C268.032 54.341 268.109 54.292 268.207 54.194C268.333 54.068 268.452 53.942 268.564 53.816C268.69 53.676 268.795 53.529 268.879 53.375C268.949 53.207 269.019 53.032 269.089 52.85C269.173 52.668 269.236 52.486 269.278 52.304C269.348 52.038 269.404 51.772 269.446 51.506C269.488 51.226 269.474 50.946 269.404 50.666C269.334 50.372 269.229 50.169 269.089 50.057C268.949 49.945 268.732 49.889 268.438 49.889ZM278.35 54.509C278.252 54.481 278.154 54.453 278.056 54.425C277.972 54.383 277.881 54.348 277.783 54.32C275.879 53.592 274.85 52.227 274.696 50.225C274.64 49.581 274.738 48.986 274.99 48.44C275.242 47.894 275.634 47.432 276.166 47.054C276.502 46.816 276.852 46.662 277.216 46.592C277.58 46.522 277.958 46.592 278.35 46.802C278.476 46.858 278.595 46.935 278.707 47.033C278.833 47.131 278.931 47.243 279.001 47.369C279.743 48.489 279.869 49.672 279.379 50.918C279.337 51.072 279.239 51.191 279.085 51.275C278.945 51.359 278.805 51.387 278.665 51.359C278.343 51.331 278.161 51.114 278.119 50.708C278.119 50.512 278.119 50.323 278.119 50.141C278.133 49.945 278.126 49.756 278.098 49.574C278.084 49.42 278.049 49.273 277.993 49.133C277.951 48.979 277.881 48.839 277.783 48.713C277.629 48.545 277.468 48.524 277.3 48.65C277.132 48.79 276.999 48.958 276.901 49.154C276.803 49.336 276.726 49.539 276.67 49.763C276.6 50.239 276.698 50.715 276.964 51.191C277.244 51.667 277.58 52.01 277.972 52.22C278.21 52.346 278.448 52.451 278.686 52.535C278.924 52.605 279.176 52.668 279.442 52.724C279.568 52.752 279.687 52.787 279.799 52.829C279.925 52.871 280.051 52.906 280.177 52.934C280.499 53.06 280.73 53.27 280.87 53.564C281.01 53.844 281.038 54.152 280.954 54.488C280.898 54.796 280.744 55.076 280.492 55.328C280.184 55.678 279.834 55.972 279.442 56.21C279.05 56.448 278.651 56.679 278.245 56.903C277.993 57.029 277.741 57.141 277.489 57.239C277.251 57.351 276.992 57.428 276.712 57.47C276.586 57.484 276.46 57.484 276.334 57.47C276.222 57.456 276.103 57.435 275.977 57.407C275.627 57.295 275.417 57.092 275.347 56.798C275.277 56.518 275.291 56.259 275.389 56.021C275.459 55.825 275.564 55.657 275.704 55.517C275.816 55.419 275.928 55.356 276.04 55.328C276.166 55.3 276.285 55.321 276.397 55.391C276.495 55.447 276.579 55.468 276.649 55.454C276.719 55.44 276.789 55.419 276.859 55.391C277.055 55.279 277.251 55.174 277.447 55.076C277.657 54.978 277.86 54.873 278.056 54.761C278.112 54.733 278.168 54.698 278.224 54.656C278.28 54.614 278.322 54.565 278.35 54.509ZM284.251 52.346C284.251 51.688 284.342 51.058 284.524 50.456C284.72 49.84 284.972 49.238 285.28 48.65C285.434 48.37 285.616 48.104 285.826 47.852C286.036 47.6 286.274 47.383 286.54 47.201C286.904 46.949 287.282 46.802 287.674 46.76C288.094 46.732 288.472 46.823 288.808 47.033C289.144 47.243 289.403 47.53 289.585 47.894C289.767 48.244 289.823 48.643 289.753 49.091C289.739 49.217 289.711 49.35 289.669 49.49C289.627 49.63 289.571 49.763 289.501 49.889C289.319 50.239 289.102 50.575 288.85 50.897C288.612 51.205 288.318 51.478 287.968 51.716C287.744 51.87 287.506 52.003 287.254 52.115C287.016 52.213 286.757 52.255 286.477 52.241C286.379 52.241 286.316 52.255 286.288 52.283C286.274 52.311 286.267 52.374 286.267 52.472C286.253 52.696 286.267 52.92 286.309 53.144C286.351 53.368 286.407 53.592 286.477 53.816C286.561 53.998 286.638 54.103 286.708 54.131C286.778 54.159 286.904 54.117 287.086 54.005C287.352 53.865 287.59 53.676 287.8 53.438C287.926 53.326 288.052 53.228 288.178 53.144C288.304 53.046 288.43 52.948 288.556 52.85C288.612 52.794 288.696 52.738 288.808 52.682C289.018 52.612 289.193 52.633 289.333 52.745C289.487 52.843 289.564 53.004 289.564 53.228C289.564 53.326 289.557 53.424 289.543 53.522C289.529 53.62 289.508 53.718 289.48 53.816C289.298 54.348 289.039 54.81 288.703 55.202C288.367 55.594 287.912 55.881 287.338 56.063C286.54 56.273 285.847 56.084 285.259 55.496C284.951 55.188 284.734 54.845 284.608 54.467C284.482 54.089 284.384 53.697 284.314 53.291C284.3 53.137 284.286 52.983 284.272 52.829C284.272 52.661 284.265 52.5 284.251 52.346ZM288.178 48.881C288.178 48.783 288.171 48.699 288.157 48.629C288.143 48.545 288.101 48.489 288.031 48.461C287.933 48.405 287.807 48.44 287.653 48.566C287.597 48.594 287.548 48.629 287.506 48.671C287.464 48.713 287.415 48.762 287.359 48.818C287.177 49.042 287.023 49.287 286.897 49.553C286.785 49.819 286.68 50.085 286.582 50.351C286.512 50.449 286.519 50.526 286.603 50.582C286.631 50.61 286.666 50.624 286.708 50.624C286.764 50.61 286.806 50.596 286.834 50.582C287.464 50.232 287.905 49.714 288.157 49.028C288.171 49 288.178 48.972 288.178 48.944C288.178 48.902 288.178 48.881 288.178 48.881ZM301.145 55.181C301.467 54.943 301.719 54.691 301.901 54.425C302.153 54.075 302.398 53.718 302.636 53.354C302.888 52.99 303.105 52.612 303.287 52.22C303.301 52.164 303.315 52.122 303.329 52.094C303.343 52.052 303.35 52.01 303.35 51.968C303.364 51.674 303.532 51.492 303.854 51.422C304.176 51.394 304.414 51.513 304.568 51.779C304.652 51.877 304.701 51.982 304.715 52.094C304.743 52.192 304.757 52.304 304.757 52.43C304.701 53.172 304.505 53.886 304.169 54.572C303.749 55.398 303.189 56.084 302.489 56.63C302.335 56.756 302.174 56.861 302.006 56.945C301.852 57.043 301.677 57.113 301.481 57.155C301.131 57.239 300.781 57.204 300.431 57.05C300.081 56.91 299.801 56.686 299.591 56.378C299.465 56.168 299.353 55.951 299.255 55.727C299.157 55.489 299.073 55.251 299.003 55.013C298.821 54.495 298.688 53.963 298.604 53.417C298.52 52.871 298.443 52.325 298.373 51.779C298.261 50.995 298.177 50.197 298.121 49.385C298.051 48.573 298.016 47.761 298.016 46.949C298.016 46.795 298.002 46.704 297.974 46.676C297.946 46.648 297.848 46.648 297.68 46.676C297.498 46.718 297.316 46.767 297.134 46.823C296.938 46.865 296.742 46.9 296.546 46.928C296.308 46.984 296.056 46.949 295.79 46.823C295.538 46.669 295.398 46.459 295.37 46.193C295.342 45.913 295.426 45.675 295.622 45.479C295.818 45.311 296.028 45.192 296.252 45.122C296.504 45.052 296.756 44.982 297.008 44.912C297.246 44.842 297.491 44.779 297.743 44.723C297.911 44.695 298.016 44.667 298.058 44.639C298.086 44.597 298.107 44.485 298.121 44.303C298.135 43.827 298.177 43.358 298.247 42.896C298.303 42.42 298.394 41.944 298.52 41.468C298.576 41.3 298.625 41.132 298.667 40.964C298.723 40.782 298.8 40.614 298.898 40.46C298.982 40.348 299.066 40.25 299.15 40.166C299.234 40.068 299.332 39.991 299.444 39.935C299.71 39.753 300.004 39.739 300.326 39.893C300.466 39.991 300.55 40.11 300.578 40.25C300.62 40.39 300.627 40.537 300.599 40.691C300.571 40.999 300.515 41.307 300.431 41.615C300.347 41.909 300.291 42.217 300.263 42.539C300.235 42.805 300.2 43.071 300.158 43.337C300.13 43.603 300.102 43.876 300.074 44.156C300.074 44.282 300.081 44.359 300.095 44.387C300.123 44.401 300.207 44.408 300.347 44.408C300.627 44.408 300.893 44.401 301.145 44.387C301.397 44.373 301.656 44.366 301.922 44.366C302.398 44.366 302.797 44.548 303.119 44.912C303.203 44.982 303.266 45.066 303.308 45.164C303.364 45.248 303.399 45.339 303.413 45.437C303.441 45.675 303.364 45.885 303.182 46.067C303 46.235 302.811 46.277 302.615 46.193C302.587 46.193 302.552 46.193 302.51 46.193C302.482 46.179 302.447 46.179 302.405 46.193C302.097 46.305 301.782 46.354 301.46 46.34C301.152 46.326 300.837 46.34 300.515 46.382H300.221C300.053 46.382 299.969 46.466 299.969 46.634C299.997 46.9 300.011 47.166 300.011 47.432C300.011 47.684 300.018 47.943 300.032 48.209C300.06 48.895 300.109 49.581 300.179 50.267C300.249 50.953 300.34 51.632 300.452 52.304C300.494 52.654 300.543 53.004 300.599 53.354C300.669 53.69 300.753 54.033 300.851 54.383C300.879 54.509 300.921 54.635 300.977 54.761C301.033 54.887 301.089 55.027 301.145 55.181ZM310.073 49.343C310.129 49.189 310.171 49.035 310.199 48.881C310.241 48.713 310.283 48.545 310.325 48.377C310.381 48.181 310.451 47.999 310.535 47.831C310.619 47.663 310.731 47.509 310.871 47.369C311.109 47.131 311.382 46.984 311.69 46.928C311.998 46.872 312.299 46.935 312.593 47.117C312.957 47.355 313.223 47.691 313.391 48.125C313.559 48.517 313.678 48.923 313.748 49.343C313.832 49.763 313.902 50.183 313.958 50.603C314 51.233 314 51.856 313.958 52.472C313.916 53.088 313.86 53.704 313.79 54.32C313.776 54.432 313.748 54.544 313.706 54.656C313.678 54.754 313.622 54.852 313.538 54.95C313.468 55.062 313.363 55.146 313.223 55.202C313.097 55.258 312.971 55.258 312.845 55.202C312.607 55.146 312.474 54.957 312.446 54.635C312.39 54.117 312.327 53.599 312.257 53.081C312.201 52.563 312.138 52.045 312.068 51.527C312.012 51.219 311.977 50.918 311.963 50.624C311.949 50.33 311.907 50.043 311.837 49.763C311.781 49.763 311.746 49.784 311.732 49.826C311.718 49.854 311.704 49.882 311.69 49.91C311.382 50.624 311.13 51.352 310.934 52.094C310.752 52.822 310.626 53.578 310.556 54.362C310.542 54.586 310.514 54.81 310.472 55.034C310.444 55.258 310.416 55.482 310.388 55.706C310.318 56.154 310.066 56.399 309.632 56.441C309.464 56.441 309.303 56.371 309.149 56.231C308.995 56.105 308.904 55.944 308.876 55.748C308.834 55.524 308.799 55.307 308.771 55.097C308.757 54.887 308.743 54.67 308.729 54.446C308.673 53.956 308.617 53.466 308.561 52.976C308.505 52.472 308.456 51.975 308.414 51.485C308.358 50.911 308.302 50.344 308.246 49.784C308.19 49.21 308.148 48.643 308.12 48.083C308.092 47.579 308.071 47.082 308.057 46.592C308.043 46.102 308.036 45.605 308.036 45.101C308.036 44.569 308.036 44.03 308.036 43.484C308.05 42.924 308.113 42.378 308.225 41.846C308.253 41.678 308.288 41.517 308.33 41.363C308.386 41.195 308.463 41.041 308.561 40.901C308.673 40.733 308.813 40.607 308.981 40.523C309.163 40.439 309.338 40.432 309.506 40.502C309.884 40.586 310.073 40.859 310.073 41.321C310.101 42.147 310.087 42.98 310.031 43.82C309.989 44.66 309.975 45.493 309.989 46.319C310.003 46.823 310.003 47.327 309.989 47.831C309.989 48.335 309.989 48.839 309.989 49.343H310.073ZM318.522 45.731C318.116 45.913 317.766 45.857 317.472 45.563C317.374 45.451 317.311 45.304 317.283 45.122C317.255 44.94 317.276 44.765 317.346 44.597C317.43 44.415 317.57 44.268 317.766 44.156C317.962 44.03 318.158 43.967 318.354 43.967C318.76 43.967 319.033 44.156 319.173 44.534C319.243 44.702 319.25 44.877 319.194 45.059C319.152 45.227 319.054 45.374 318.9 45.5C318.844 45.556 318.781 45.605 318.711 45.647C318.655 45.675 318.592 45.703 318.522 45.731ZM319.362 54.446C319.418 54.74 319.327 54.95 319.089 55.076C318.837 55.202 318.585 55.174 318.333 54.992C318.221 54.894 318.137 54.782 318.081 54.656C318.025 54.53 317.969 54.397 317.913 54.257C317.871 54.061 317.829 53.858 317.787 53.648C317.759 53.438 317.731 53.235 317.703 53.039C317.619 52.339 317.549 51.639 317.493 50.939C317.451 50.225 317.458 49.518 317.514 48.818C317.528 48.664 317.549 48.51 317.577 48.356C317.605 48.188 317.668 48.034 317.766 47.894C317.836 47.754 317.927 47.642 318.039 47.558C318.165 47.474 318.312 47.432 318.48 47.432C318.802 47.446 319.033 47.614 319.173 47.936C319.299 48.188 319.362 48.461 319.362 48.755V51.653C319.348 51.821 319.334 52.024 319.32 52.262C319.306 52.5 319.299 52.759 319.299 53.039C319.299 53.263 319.299 53.494 319.299 53.732C319.313 53.97 319.334 54.208 319.362 54.446ZM326.308 54.509C326.21 54.481 326.112 54.453 326.014 54.425C325.93 54.383 325.839 54.348 325.741 54.32C323.837 53.592 322.808 52.227 322.654 50.225C322.598 49.581 322.696 48.986 322.948 48.44C323.2 47.894 323.592 47.432 324.124 47.054C324.46 46.816 324.81 46.662 325.174 46.592C325.538 46.522 325.916 46.592 326.308 46.802C326.434 46.858 326.553 46.935 326.665 47.033C326.791 47.131 326.889 47.243 326.959 47.369C327.701 48.489 327.827 49.672 327.337 50.918C327.295 51.072 327.197 51.191 327.043 51.275C326.903 51.359 326.763 51.387 326.623 51.359C326.301 51.331 326.119 51.114 326.077 50.708C326.077 50.512 326.077 50.323 326.077 50.141C326.091 49.945 326.084 49.756 326.056 49.574C326.042 49.42 326.007 49.273 325.951 49.133C325.909 48.979 325.839 48.839 325.741 48.713C325.587 48.545 325.426 48.524 325.258 48.65C325.09 48.79 324.957 48.958 324.859 49.154C324.761 49.336 324.684 49.539 324.628 49.763C324.558 50.239 324.656 50.715 324.922 51.191C325.202 51.667 325.538 52.01 325.93 52.22C326.168 52.346 326.406 52.451 326.644 52.535C326.882 52.605 327.134 52.668 327.4 52.724C327.526 52.752 327.645 52.787 327.757 52.829C327.883 52.871 328.009 52.906 328.135 52.934C328.457 53.06 328.688 53.27 328.828 53.564C328.968 53.844 328.996 54.152 328.912 54.488C328.856 54.796 328.702 55.076 328.45 55.328C328.142 55.678 327.792 55.972 327.4 56.21C327.008 56.448 326.609 56.679 326.203 56.903C325.951 57.029 325.699 57.141 325.447 57.239C325.209 57.351 324.95 57.428 324.67 57.47C324.544 57.484 324.418 57.484 324.292 57.47C324.18 57.456 324.061 57.435 323.935 57.407C323.585 57.295 323.375 57.092 323.305 56.798C323.235 56.518 323.249 56.259 323.347 56.021C323.417 55.825 323.522 55.657 323.662 55.517C323.774 55.419 323.886 55.356 323.998 55.328C324.124 55.3 324.243 55.321 324.355 55.391C324.453 55.447 324.537 55.468 324.607 55.454C324.677 55.44 324.747 55.419 324.817 55.391C325.013 55.279 325.209 55.174 325.405 55.076C325.615 54.978 325.818 54.873 326.014 54.761C326.07 54.733 326.126 54.698 326.182 54.656C326.238 54.614 326.28 54.565 326.308 54.509ZM344.864 51.464C344.794 52.836 344.29 54.117 343.352 55.307C343.184 55.531 342.988 55.727 342.764 55.895C342.54 56.049 342.288 56.168 342.008 56.252C341.462 56.378 340.937 56.315 340.433 56.063C340.251 55.951 340.076 55.818 339.908 55.664C339.74 55.496 339.6 55.321 339.488 55.139C339.124 54.565 338.879 53.977 338.753 53.375C338.627 52.759 338.585 52.129 338.627 51.485C338.683 50.911 338.809 50.365 339.005 49.847C339.201 49.315 339.488 48.832 339.866 48.398C340.188 48.048 340.573 47.831 341.021 47.747C341.231 47.691 341.42 47.691 341.588 47.747C341.756 47.789 341.917 47.873 342.071 47.999C342.113 48.041 342.162 48.069 342.218 48.083C342.274 48.083 342.337 48.083 342.407 48.083C342.785 48.041 343.121 48.097 343.415 48.251C343.723 48.405 343.989 48.636 344.213 48.944C344.465 49.294 344.633 49.672 344.717 50.078C344.815 50.47 344.864 50.932 344.864 51.464ZM341.882 49.889C341.728 49.889 341.567 49.91 341.399 49.952C341.259 49.952 341.154 49.987 341.084 50.057C341.014 50.127 340.951 50.225 340.895 50.351C340.699 50.869 340.594 51.387 340.58 51.905C340.58 52.423 340.657 52.948 340.811 53.48C340.895 53.704 341.028 53.935 341.21 54.173C341.308 54.271 341.378 54.327 341.42 54.341C341.476 54.341 341.553 54.292 341.651 54.194C341.777 54.068 341.896 53.942 342.008 53.816C342.134 53.676 342.239 53.529 342.323 53.375C342.393 53.207 342.463 53.032 342.533 52.85C342.617 52.668 342.68 52.486 342.722 52.304C342.792 52.038 342.848 51.772 342.89 51.506C342.932 51.226 342.918 50.946 342.848 50.666C342.778 50.372 342.673 50.169 342.533 50.057C342.393 49.945 342.176 49.889 341.882 49.889ZM352.299 50.54C352.047 50.764 351.865 50.995 351.753 51.233C351.459 51.751 351.221 52.297 351.039 52.871C350.857 53.445 350.717 54.033 350.619 54.635C350.605 54.775 350.577 54.915 350.535 55.055C350.493 55.195 350.437 55.321 350.367 55.433C350.157 55.783 349.877 55.937 349.527 55.895C349.345 55.895 349.191 55.846 349.065 55.748C348.939 55.65 348.827 55.524 348.729 55.37C348.673 55.244 348.631 55.111 348.603 54.971C348.589 54.831 348.568 54.691 348.54 54.551C348.47 53.991 348.393 53.431 348.309 52.871C348.239 52.297 348.19 51.73 348.162 51.17C348.134 50.792 348.134 50.414 348.162 50.036C348.19 49.658 348.232 49.28 348.288 48.902C348.288 48.832 348.302 48.769 348.33 48.713C348.358 48.643 348.379 48.58 348.393 48.524C348.519 48.174 348.75 48.02 349.086 48.062C349.226 48.076 349.352 48.139 349.464 48.251C349.576 48.363 349.639 48.496 349.653 48.65C349.695 48.986 349.73 49.315 349.758 49.637C349.8 49.959 349.849 50.281 349.905 50.603C349.919 50.659 349.926 50.729 349.926 50.813C349.926 50.883 349.947 50.953 349.989 51.023C350.059 50.995 350.101 50.96 350.115 50.918C350.129 50.862 350.143 50.813 350.157 50.771C350.297 50.491 350.437 50.218 350.577 49.952C350.717 49.672 350.878 49.42 351.06 49.196C351.144 49.084 351.228 48.979 351.312 48.881C351.396 48.769 351.494 48.671 351.606 48.587C351.97 48.293 352.362 48.181 352.782 48.251C353.202 48.307 353.545 48.538 353.811 48.944C353.937 49.168 354.035 49.406 354.105 49.658C354.175 49.896 354.224 50.141 354.252 50.393C354.322 50.813 354.378 51.24 354.42 51.674C354.476 52.094 354.532 52.514 354.588 52.934C354.616 53.186 354.651 53.438 354.693 53.69C354.749 53.928 354.791 54.173 354.819 54.425C354.847 54.523 354.882 54.607 354.924 54.677C354.966 54.747 355.036 54.817 355.134 54.887C355.428 55.041 355.519 55.286 355.407 55.622C355.281 55.972 355.064 56.189 354.756 56.273C354.448 56.357 354.154 56.287 353.874 56.063C353.748 55.951 353.643 55.832 353.559 55.706C353.475 55.58 353.398 55.447 353.328 55.307C353.104 54.901 352.936 54.488 352.824 54.068C352.712 53.648 352.628 53.207 352.572 52.745C352.53 52.423 352.495 52.094 352.467 51.758C352.439 51.422 352.39 51.093 352.32 50.771C352.32 50.743 352.313 50.715 352.299 50.687C352.299 50.645 352.299 50.596 352.299 50.54ZM357.757 52.346C357.757 51.688 357.848 51.058 358.03 50.456C358.226 49.84 358.478 49.238 358.786 48.65C358.94 48.37 359.122 48.104 359.332 47.852C359.542 47.6 359.78 47.383 360.046 47.201C360.41 46.949 360.788 46.802 361.18 46.76C361.6 46.732 361.978 46.823 362.314 47.033C362.65 47.243 362.909 47.53 363.091 47.894C363.273 48.244 363.329 48.643 363.259 49.091C363.245 49.217 363.217 49.35 363.175 49.49C363.133 49.63 363.077 49.763 363.007 49.889C362.825 50.239 362.608 50.575 362.356 50.897C362.118 51.205 361.824 51.478 361.474 51.716C361.25 51.87 361.012 52.003 360.76 52.115C360.522 52.213 360.263 52.255 359.983 52.241C359.885 52.241 359.822 52.255 359.794 52.283C359.78 52.311 359.773 52.374 359.773 52.472C359.759 52.696 359.773 52.92 359.815 53.144C359.857 53.368 359.913 53.592 359.983 53.816C360.067 53.998 360.144 54.103 360.214 54.131C360.284 54.159 360.41 54.117 360.592 54.005C360.858 53.865 361.096 53.676 361.306 53.438C361.432 53.326 361.558 53.228 361.684 53.144C361.81 53.046 361.936 52.948 362.062 52.85C362.118 52.794 362.202 52.738 362.314 52.682C362.524 52.612 362.699 52.633 362.839 52.745C362.993 52.843 363.07 53.004 363.07 53.228C363.07 53.326 363.063 53.424 363.049 53.522C363.035 53.62 363.014 53.718 362.986 53.816C362.804 54.348 362.545 54.81 362.209 55.202C361.873 55.594 361.418 55.881 360.844 56.063C360.046 56.273 359.353 56.084 358.765 55.496C358.457 55.188 358.24 54.845 358.114 54.467C357.988 54.089 357.89 53.697 357.82 53.291C357.806 53.137 357.792 52.983 357.778 52.829C357.778 52.661 357.771 52.5 357.757 52.346ZM361.684 48.881C361.684 48.783 361.677 48.699 361.663 48.629C361.649 48.545 361.607 48.489 361.537 48.461C361.439 48.405 361.313 48.44 361.159 48.566C361.103 48.594 361.054 48.629 361.012 48.671C360.97 48.713 360.921 48.762 360.865 48.818C360.683 49.042 360.529 49.287 360.403 49.553C360.291 49.819 360.186 50.085 360.088 50.351C360.018 50.449 360.025 50.526 360.109 50.582C360.137 50.61 360.172 50.624 360.214 50.624C360.27 50.61 360.312 50.596 360.34 50.582C360.97 50.232 361.411 49.714 361.663 49.028C361.677 49 361.684 48.972 361.684 48.944C361.684 48.902 361.684 48.881 361.684 48.881ZM372.971 50.477C372.971 50.197 373.055 49.959 373.223 49.763C373.391 49.553 373.601 49.434 373.853 49.406C374.091 49.378 374.28 49.455 374.42 49.637C374.672 49.931 374.777 50.267 374.735 50.645C374.707 50.869 374.602 51.058 374.42 51.212C374.252 51.366 374.056 51.436 373.832 51.422C373.58 51.408 373.37 51.31 373.202 51.128C373.034 50.946 372.957 50.729 372.971 50.477ZM373.832 54.383C373.566 54.369 373.349 54.278 373.181 54.11C373.013 53.942 372.936 53.732 372.95 53.48C372.95 53.242 373.034 53.039 373.202 52.871C373.37 52.689 373.566 52.598 373.79 52.598C374.028 52.598 374.231 52.696 374.399 52.892C374.581 53.074 374.672 53.291 374.672 53.543C374.658 53.767 374.567 53.963 374.399 54.131C374.245 54.299 374.056 54.383 373.832 54.383ZM382.172 49.07C382.172 49.672 382.116 50.26 382.004 50.834C381.892 51.408 381.745 51.982 381.563 52.556C381.255 53.592 380.814 54.614 380.24 55.622C380.086 55.888 379.918 56.147 379.736 56.399C379.554 56.651 379.323 56.861 379.043 57.029C378.973 57.085 378.903 57.134 378.833 57.176C378.763 57.218 378.686 57.253 378.602 57.281C378.35 57.407 378.175 57.379 378.077 57.197C377.965 57.043 377.986 56.875 378.14 56.693C378.14 56.651 378.161 56.63 378.203 56.63C378.525 56.322 378.798 55.986 379.022 55.622C379.246 55.244 379.442 54.852 379.61 54.446C379.848 53.872 380.044 53.305 380.198 52.745C380.366 52.171 380.499 51.583 380.597 50.981C380.737 50.113 380.779 49.252 380.723 48.398C380.681 47.53 380.52 46.683 380.24 45.857C380.142 45.507 380.016 45.171 379.862 44.849C379.722 44.513 379.554 44.205 379.358 43.925C379.33 43.883 379.309 43.848 379.295 43.82C379.281 43.778 379.26 43.743 379.232 43.715C379.106 43.407 379.148 43.155 379.358 42.959C379.582 42.735 379.848 42.714 380.156 42.896C380.352 43.022 380.52 43.183 380.66 43.379C380.8 43.561 380.926 43.757 381.038 43.967C381.234 44.289 381.395 44.625 381.521 44.975C381.647 45.325 381.759 45.682 381.857 46.046C381.927 46.27 381.969 46.508 381.983 46.76C382.011 47.012 382.053 47.264 382.109 47.516C382.179 48.02 382.2 48.538 382.172 49.07Z" fill="#1E293B"/>
</svg>
