<svg width="125" height="108" viewBox="0 0 125 108" fill="none" xmlns="http://www.w3.org/2000/svg">
<path d="M10.6739 4.16632C9.3684 4.16632 8.29688 3.23807 8.29688 2.08316C8.29688 0.93904 9.35608 0 10.6739 0C11.9918 0 13.051 0.928247 13.051 2.08316C13.051 3.22728 11.9795 4.16632 10.6739 4.16632Z" fill="#334155"/>
<path d="M33.0177 4.16632C31.7121 4.16632 30.6406 3.23807 30.6406 2.08316C30.6406 0.93904 31.6998 0 33.0177 0C34.3232 0 35.3948 0.928247 35.3948 2.08316C35.3825 3.22728 34.3232 4.16632 33.0177 4.16632Z" fill="#334155"/>
<path d="M55.3458 4.16632C54.0403 4.16632 52.9688 3.23807 52.9688 2.08316C52.9688 0.93904 54.028 0 55.3458 0C56.6514 0 57.7229 0.928247 57.7229 2.08316C57.7229 3.22728 56.6637 4.16632 55.3458 4.16632Z" fill="#334155"/>
<path d="M77.6896 4.16632C76.3841 4.16632 75.3125 3.23807 75.3125 2.08316C75.3125 0.93904 76.3718 0 77.6896 0C78.9952 0 80.0667 0.928247 80.0667 2.08316C80.0667 3.22728 78.9952 4.16632 77.6896 4.16632Z" fill="#334155"/>
<path d="M100.018 4.16632C98.7122 4.16632 97.6406 3.23807 97.6406 2.08316C97.6406 0.93904 98.6999 0 100.018 0C101.323 0 102.395 0.928247 102.395 2.08316C102.395 3.22728 101.336 4.16632 100.018 4.16632Z" fill="#334155"/>
<path d="M122.361 4.16632C121.056 4.16632 119.984 3.23807 119.984 2.08316C119.984 0.93904 121.044 0 122.361 0C123.679 0 124.739 0.928247 124.739 2.08316C124.739 3.22728 123.667 4.16632 122.361 4.16632Z" fill="#334155"/>
<path d="M10.6739 22.0257C9.3684 22.0257 8.29688 21.0974 8.29688 19.9425C8.29688 18.7984 9.35608 17.8594 10.6739 17.8594C11.9918 17.8594 13.051 18.7876 13.051 19.9425C13.051 21.0867 11.9795 22.0257 10.6739 22.0257Z" fill="#334155"/>
<path d="M33.0177 22.0257C31.7121 22.0257 30.6406 21.0974 30.6406 19.9425C30.6406 18.7984 31.6998 17.8594 33.0177 17.8594C34.3232 17.8594 35.3948 18.7876 35.3948 19.9425C35.3825 21.0867 34.3232 22.0257 33.0177 22.0257Z" fill="#334155"/>
<path d="M55.3458 22.0257C54.0403 22.0257 52.9688 21.0974 52.9688 19.9425C52.9688 18.7984 54.028 17.8594 55.3458 17.8594C56.6514 17.8594 57.7229 18.7876 57.7229 19.9425C57.7229 21.0867 56.6637 22.0257 55.3458 22.0257Z" fill="#334155"/>
<path d="M77.6896 22.0257C76.3841 22.0257 75.3125 21.0974 75.3125 19.9425C75.3125 18.7984 76.3718 17.8594 77.6896 17.8594C78.9952 17.8594 80.0667 18.7876 80.0667 19.9425C80.0667 21.0867 78.9952 22.0257 77.6896 22.0257Z" fill="#334155"/>
<path d="M100.018 22.0257C98.7122 22.0257 97.6406 21.0974 97.6406 19.9425C97.6406 18.7984 98.6999 17.8594 100.018 17.8594C101.323 17.8594 102.395 18.7876 102.395 19.9425C102.395 21.0867 101.336 22.0257 100.018 22.0257Z" fill="#334155"/>
<path d="M122.361 22.0257C121.056 22.0257 119.984 21.0974 119.984 19.9425C119.984 18.7984 121.044 17.8594 122.361 17.8594C123.679 17.8594 124.739 18.7876 124.739 19.9425C124.739 21.0867 123.667 22.0257 122.361 22.0257Z" fill="#334155"/>
<path d="M10.6739 39.8616C9.3684 39.8616 8.29688 38.9334 8.29688 37.7785C8.29688 36.6343 9.35608 35.6953 10.6739 35.6953C11.9918 35.6953 13.051 36.6236 13.051 37.7785C13.051 38.9334 11.9795 39.8616 10.6739 39.8616Z" fill="#334155"/>
<path d="M33.0177 39.8616C31.7121 39.8616 30.6406 38.9334 30.6406 37.7785C30.6406 36.6343 31.6998 35.6953 33.0177 35.6953C34.3232 35.6953 35.3948 36.6236 35.3948 37.7785C35.3825 38.9334 34.3232 39.8616 33.0177 39.8616Z" fill="#334155"/>
<path d="M55.3458 39.8616C54.0403 39.8616 52.9688 38.9334 52.9688 37.7785C52.9688 36.6343 54.028 35.6953 55.3458 35.6953C56.6514 35.6953 57.7229 36.6236 57.7229 37.7785C57.7229 38.9334 56.6637 39.8616 55.3458 39.8616Z" fill="#334155"/>
<path d="M77.6896 39.8616C76.3841 39.8616 75.3125 38.9334 75.3125 37.7785C75.3125 36.6343 76.3718 35.6953 77.6896 35.6953C78.9952 35.6953 80.0667 36.6236 80.0667 37.7785C80.0667 38.9334 78.9952 39.8616 77.6896 39.8616Z" fill="#334155"/>
<path d="M100.018 39.8616C98.7122 39.8616 97.6406 38.9334 97.6406 37.7785C97.6406 36.6343 98.6999 35.6953 100.018 35.6953C101.323 35.6953 102.395 36.6236 102.395 37.7785C102.395 38.9334 101.336 39.8616 100.018 39.8616Z" fill="#334155"/>
<path d="M122.361 39.8616C121.056 39.8616 119.984 38.9334 119.984 37.7785C119.984 36.6343 121.044 35.6953 122.361 35.6953C123.679 35.6953 124.739 36.6236 124.739 37.7785C124.739 38.9334 123.667 39.8616 122.361 39.8616Z" fill="#334155"/>
<path d="M10.6739 57.7132C9.3684 57.7132 8.29688 56.785 8.29688 55.63C8.29688 54.4859 9.35608 53.5469 10.6739 53.5469C11.9918 53.5469 13.051 54.4751 13.051 55.63C13.051 56.7742 11.9795 57.7132 10.6739 57.7132Z" fill="#334155"/>
<path d="M33.0177 57.7132C31.7121 57.7132 30.6406 56.785 30.6406 55.63C30.6406 54.4859 31.6998 53.5469 33.0177 53.5469C34.3232 53.5469 35.3948 54.4751 35.3948 55.63C35.3825 56.7742 34.3232 57.7132 33.0177 57.7132Z" fill="#334155"/>
<path d="M55.3458 57.7132C54.0403 57.7132 52.9688 56.785 52.9688 55.63C52.9688 54.4859 54.028 53.5469 55.3458 53.5469C56.6514 53.5469 57.7229 54.4751 57.7229 55.63C57.7229 56.7742 56.6637 57.7132 55.3458 57.7132Z" fill="#334155"/>
<path d="M77.6896 57.7132C76.3841 57.7132 75.3125 56.785 75.3125 55.63C75.3125 54.4859 76.3718 53.5469 77.6896 53.5469C78.9952 53.5469 80.0667 54.4751 80.0667 55.63C80.0667 56.7742 78.9952 57.7132 77.6896 57.7132Z" fill="#334155"/>
<path d="M100.018 57.7132C98.7122 57.7132 97.6406 56.785 97.6406 55.63C97.6406 54.4859 98.6999 53.5469 100.018 53.5469C101.323 53.5469 102.395 54.4751 102.395 55.63C102.395 56.7742 101.336 57.7132 100.018 57.7132Z" fill="#334155"/>
<path d="M122.361 57.7132C121.056 57.7132 119.984 56.785 119.984 55.63C119.984 54.4859 121.044 53.5469 122.361 53.5469C123.679 53.5469 124.739 54.4751 124.739 55.63C124.739 56.7742 123.667 57.7132 122.361 57.7132Z" fill="#334155"/>
<path d="M10.6739 75.5648C9.3684 75.5648 8.29688 74.6365 8.29688 73.4816C8.29688 72.3375 9.35608 71.3984 10.6739 71.3984C11.9918 71.3984 13.051 72.3267 13.051 73.4816C13.051 74.6257 11.9795 75.5648 10.6739 75.5648Z" fill="#334155"/>
<path d="M33.0177 75.5648C31.7121 75.5648 30.6406 74.6365 30.6406 73.4816C30.6406 72.3375 31.6998 71.3984 33.0177 71.3984C34.3232 71.3984 35.3948 72.3267 35.3948 73.4816C35.3825 74.6257 34.3232 75.5648 33.0177 75.5648Z" fill="#334155"/>
<path d="M55.3458 75.5648C54.0403 75.5648 52.9688 74.6365 52.9688 73.4816C52.9688 72.3375 54.028 71.3984 55.3458 71.3984C56.6514 71.3984 57.7229 72.3267 57.7229 73.4816C57.7229 74.6257 56.6637 75.5648 55.3458 75.5648Z" fill="#334155"/>
<path d="M77.6896 75.5648C76.3841 75.5648 75.3125 74.6365 75.3125 73.4816C75.3125 72.3375 76.3718 71.3984 77.6896 71.3984C78.9952 71.3984 80.0667 72.3267 80.0667 73.4816C80.0667 74.6257 78.9952 75.5648 77.6896 75.5648Z" fill="#334155"/>
<path d="M100.018 75.5648C98.7122 75.5648 97.6406 74.6365 97.6406 73.4816C97.6406 72.3375 98.6999 71.3984 100.018 71.3984C101.323 71.3984 102.395 72.3267 102.395 73.4816C102.395 74.6257 101.336 75.5648 100.018 75.5648Z" fill="#334155"/>
<path d="M122.361 75.5648C121.056 75.5648 119.984 74.6365 119.984 73.4816C119.984 72.3375 121.044 71.3984 122.361 71.3984C123.679 71.3984 124.739 72.3267 124.739 73.4816C124.739 74.6257 123.667 75.5648 122.361 75.5648Z" fill="#334155"/>
<path d="M10.6739 93.4007C9.3684 93.4007 8.29688 92.4724 8.29688 91.3175C8.29688 90.1734 9.35608 89.2344 10.6739 89.2344C11.9918 89.2344 13.051 90.1626 13.051 91.3175C13.051 92.4724 11.9795 93.4007 10.6739 93.4007Z" fill="#334155"/>
<path d="M33.0177 93.4007C31.7121 93.4007 30.6406 92.4724 30.6406 91.3175C30.6406 90.1734 31.6998 89.2344 33.0177 89.2344C34.3232 89.2344 35.3948 90.1626 35.3948 91.3175C35.3825 92.4724 34.3232 93.4007 33.0177 93.4007Z" fill="#334155"/>
<path d="M55.3458 93.4007C54.0403 93.4007 52.9688 92.4724 52.9688 91.3175C52.9688 90.1734 54.028 89.2344 55.3458 89.2344C56.6514 89.2344 57.7229 90.1626 57.7229 91.3175C57.7229 92.4724 56.6637 93.4007 55.3458 93.4007Z" fill="#334155"/>
<path d="M77.6896 93.4007C76.3841 93.4007 75.3125 92.4724 75.3125 91.3175C75.3125 90.1734 76.3718 89.2344 77.6896 89.2344C78.9952 89.2344 80.0667 90.1626 80.0667 91.3175C80.0667 92.4724 78.9952 93.4007 77.6896 93.4007Z" fill="#334155"/>
<path d="M100.018 93.4007C98.7122 93.4007 97.6406 92.4724 97.6406 91.3175C97.6406 90.1734 98.6999 89.2344 100.018 89.2344C101.323 89.2344 102.395 90.1626 102.395 91.3175C102.395 92.4724 101.336 93.4007 100.018 93.4007Z" fill="#334155"/>
<path d="M122.361 93.4007C121.056 93.4007 119.984 92.4724 119.984 91.3175C119.984 90.1734 121.044 89.2344 122.361 89.2344C123.679 89.2344 124.739 90.1626 124.739 91.3175C124.739 92.4724 123.667 93.4007 122.361 93.4007Z" fill="#334155"/>
<path d="M104.752 107.409L0 15.6094H104.752V107.409Z" fill="#fedc60"/>
</svg>
