<svg width="20" height="20" viewBox="0 0 20 20" fill="none" xmlns="http://www.w3.org/2000/svg">
<g id="vuesax/bulk/clock">
<g id="clock">
<path id="Vector" opacity="0.4" d="M10.0013 18.3337C14.6037 18.3337 18.3346 14.6027 18.3346 10.0003C18.3346 5.39795 14.6037 1.66699 10.0013 1.66699C5.39893 1.66699 1.66797 5.39795 1.66797 10.0003C1.66797 14.6027 5.39893 18.3337 10.0013 18.3337Z" fill="#3E3EF7"/>
<path id="Vector_2" d="M13.0909 13.2755C12.9826 13.2755 12.8742 13.2505 12.7742 13.1838L10.1909 11.6421C9.54922 11.2588 9.07422 10.4171 9.07422 9.67546V6.25879C9.07422 5.91712 9.35755 5.63379 9.69922 5.63379C10.0409 5.63379 10.3242 5.91712 10.3242 6.25879V9.67546C10.3242 9.97546 10.5742 10.4171 10.8326 10.5671L13.4159 12.1088C13.7159 12.2838 13.8076 12.6671 13.6326 12.9671C13.5076 13.1671 13.2992 13.2755 13.0909 13.2755Z" fill="#3E3EF7"/>
</g>
</g>
</svg>
