<svg width="72" height="72" viewBox="0 0 72 72" fill="none" xmlns="http://www.w3.org/2000/svg">
<g id="exit-button">
<path id="Vector" d="M36.0129 69.9334C45.0874 69.9197 54.0528 66.1267 60.3823 59.6806C66.7435 53.2857 70.4907 44.3064 70.2927 35.3025C70.1945 26.3118 66.3648 17.497 59.9529 11.3449C53.5385 5.2101 44.7057 1.74759 35.983 2.09015C40.3325 2.24647 44.6202 3.22774 48.5554 4.96156C52.4896 6.70216 56.0545 9.21787 58.9993 12.2999C64.9649 18.4089 68.3289 26.8659 68.1723 35.3025C68.0947 39.5163 67.205 43.6893 65.5916 47.5555C63.9677 51.4196 61.5747 54.9541 58.6028 57.9025C52.6666 63.8277 44.363 67.2331 36.0106 67.1673C27.6598 67.2373 19.3545 63.8468 13.4147 57.9243C10.4389 54.98 8.04658 51.4443 6.42007 47.5821C4.80506 43.7164 3.91586 39.543 3.83666 35.3303C3.67217 26.8957 7.02197 18.4348 12.9794 12.319C15.9177 9.23116 19.4809 6.71241 23.4126 4.96807C27.3462 3.23065 31.6335 2.24744 35.983 2.09015C27.2602 1.74524 18.4257 5.21508 12.019 11.3595C5.61741 17.5232 1.79684 26.3404 1.70657 35.3321C1.50995 44.3372 5.27018 53.3145 11.6326 59.7066C17.9665 66.1483 26.9369 69.9378 36.0129 69.9334Z" fill="#E11D48"/>
<path id="Vector_2" d="M7.96079 35.3025C8.02878 42.6588 11.2048 49.8551 16.455 54.8436C21.7012 59.8235 28.9049 62.6214 35.984 62.2816C32.4552 62.1258 28.9881 61.3036 25.8129 59.8802C22.6395 58.4485 19.7729 56.3929 17.4158 53.8846C12.6447 48.9038 10.0078 42.0843 10.1216 35.3025C10.23 28.5219 13.0423 21.8692 17.8787 17.178C22.6507 12.4357 29.3009 9.69527 36.0113 9.7454C42.7238 9.70192 49.3701 12.4563 54.1412 17.1992C58.9721 21.8957 61.7866 28.5481 61.8856 35.3302C61.9972 42.1131 59.3454 48.9307 54.5649 53.9031C52.2019 56.4067 49.3328 58.4588 46.1573 59.8866C42.9802 61.3065 39.5129 62.1266 35.984 62.2816C43.0629 62.6189 50.2654 59.829 55.5186 54.858C60.7764 49.8808 63.9681 42.6883 64.0384 35.3325C64.2011 27.9758 61.1907 20.6113 55.9901 15.3502C50.8069 10.0586 43.4396 6.98046 36.0142 6.97783C28.5864 6.9644 21.2175 10.0394 16.0256 15.3229C10.8213 20.5815 7.80558 27.9449 7.96079 35.3025Z" fill="#E11D48"/>
<path id="Vector_3" d="M53.6144 45.4129L53.6457 45.3778C53.7846 45.2216 53.7705 44.9826 53.6144 44.8437C52.1627 43.5531 50.6976 42.2761 49.2165 41.0148C50.3866 42.3889 51.5734 43.7465 52.7691 45.0953C50.4423 47.1682 48.1444 49.2705 45.8588 51.3845L41.6962 46.9547C40.1184 45.2632 38.4928 43.6198 36.8934 41.9501C36.4229 41.4572 35.6435 41.4406 35.1506 41.9111L35.1096 41.9501C32.0954 44.8265 29.1562 47.7776 26.1924 50.7041L20.5177 45.1054L24.4168 41.0647L29.1848 36.0255L29.2257 35.9822L29.2286 35.9791C29.5927 35.5907 29.5732 34.9805 29.1848 34.6164C25.8935 31.5301 22.5621 28.4839 19.1846 25.4835C20.2572 24.2725 21.3181 23.0493 22.3696 21.817C21.04 22.9516 19.7175 24.0934 18.4133 25.2536C18.2706 25.3802 18.2579 25.5981 18.3844 25.7409L18.4133 25.7734C21.26 28.9831 24.1603 32.1389 27.0857 35.2695L22.7365 39.3844C22.3869 39.7219 17.4209 44.514 17.7352 44.2107C17.2285 44.7104 17.223 45.5265 17.723 46.0332C18.2369 46.5541 25.6377 54.0555 25.2324 53.6446C25.7729 54.1757 26.6414 54.1681 27.1726 53.6277C30.1244 50.6236 33.1081 47.6511 36.0309 44.618C37.3876 45.9287 38.7342 47.2493 40.1143 48.5365C40.2831 48.6953 45.5308 53.6263 45.2155 53.3302L45.2196 53.334C45.5715 53.6602 46.1212 53.6395 46.4474 53.2876C48.8599 50.6864 51.2546 48.0671 53.6144 45.4129ZM35.1668 28.6344L35.1773 28.6454C35.6129 29.0998 36.3346 29.115 36.789 28.6796L36.8362 28.6344C38.5054 27.0344 40.192 25.4519 41.8467 23.8376L45.8092 19.9335C47.7235 21.818 49.6362 23.7037 51.581 25.5575C46.9519 30.4137 44.9282 32.7494 43.0498 34.8479L42.9925 34.912L42.9892 34.9159C42.7635 35.1751 42.7907 35.5682 43.0498 35.7937C45.0791 37.5604 47.1063 39.3289 49.2165 41.0148C47.6772 39.088 46.0675 37.2321 44.4547 35.3792C46.0281 33.9748 47.6119 32.5804 49.15 31.141C50.8557 29.5775 52.5467 27.9993 54.2112 26.3947C54.6915 25.9311 54.7122 25.1654 54.2536 24.6772L54.2112 24.6319C51.7823 22.047 49.2673 19.548 46.787 17.0143L46.7664 16.9938C46.2263 16.465 45.3596 16.4742 44.8309 17.0143L39.9637 21.9545C38.613 23.3392 37.2851 24.7468 35.9499 26.1472C29.3808 20.0318 27.0081 18.0737 26.4815 17.6061C26.2954 17.4454 26.0142 17.4658 25.8535 17.6519C24.6714 19.0195 23.5093 20.4069 22.3696 21.817C23.6471 20.7843 24.9008 19.728 26.1434 18.6605C29.0757 22.0605 32.1098 25.3587 35.1668 28.6344Z" fill="#E11D48"/>
</g>
</svg>
