<svg width="40" height="40" viewBox="0 0 40 40" fill="none" xmlns="http://www.w3.org/2000/svg">
<g clip-path="url(#clip0_2106_33628)">
<path d="M1.75486 6.97428C1.74849 7.00414 1.74268 7.03417 1.73745 7.0644C1.62321 7.72471 1.80343 8.39648 1.93705 9.03857C2.07579 9.70535 2.21416 10.3722 2.35201 11.0392C2.9588 13.975 3.55588 16.9129 4.13376 19.8551C4.71515 22.8151 5.27726 25.7794 5.80926 28.7496C6.33479 31.6837 6.83113 34.6237 7.28469 37.571C7.37253 38.1418 7.85652 38.4148 8.36101 38.1803C8.40551 38.1596 8.45109 38.1376 8.50209 38.1156C8.58617 38.0792 8.54744 37.9391 8.535 37.8447C7.35209 28.8716 5.80661 19.1734 3.97383 10.3303C3.80504 9.51587 3.4251 8.83407 3.18066 8.04192C3.04535 7.60345 3.03166 7.03598 2.87684 6.57631C2.81256 6.38548 2.74716 6.19504 2.67941 6.00553C2.65482 5.93673 2.43388 5.52107 2.4512 5.49308C2.16333 5.95711 1.86952 6.43638 1.75486 6.97428ZM35.9104 7.26709C35.8549 7.26709 35.7989 7.25605 35.7451 7.23223C35.5283 7.13637 35.4268 6.87436 35.5177 6.64778C35.5832 6.48569 35.5327 6.10051 35.2726 5.60378C34.8905 4.8735 34.1291 4.06712 33.4132 3.93872C33.1814 3.89747 33.0255 3.66683 33.0649 3.42398C33.1048 3.18056 33.3289 3.01498 33.5563 3.05914C34.59 3.24388 35.5383 4.25535 36.0196 5.17502C36.3901 5.88206 36.4904 6.5281 36.303 6.99404C36.2342 7.16484 36.0762 7.26709 35.9104 7.26709ZM21.2294 14.5228C21.6755 14.9657 21.9986 15.6158 22.3852 16.1164C21.9212 16.2453 21.4571 16.3743 20.9931 16.5033C20.5027 16.6396 20.671 16.2235 20.7553 15.892C20.8584 15.4868 21.08 14.9119 21.2294 14.5228Z" fill="#051328"/>
<path d="M35.9676 6.74668C36.4883 6.2672 36.9934 5.76933 37.4821 5.25421C37.737 4.98539 38.0011 4.68278 38.0413 4.30615C38.0918 3.83188 37.7736 3.40781 37.4543 3.06748C37.0974 2.68716 36.6895 2.3206 36.1914 2.21085C35.6811 2.09842 35.1438 2.28131 34.7471 2.62283C34.436 2.89062 33.9877 3.40633 34.143 3.86896C34.3001 4.3372 34.8761 4.54594 35.1546 4.9526C35.4889 5.44081 35.7728 6.18143 35.9676 6.74668ZM10.6826 34.4571C10.4987 34.7046 10.7788 35.0064 11.0047 35.132C17.9455 33.3726 25.3357 31.6151 32.3951 30.4874C32.5905 30.2261 32.7696 29.8838 32.5846 29.3957C30.0156 29.8839 27.0179 30.2728 24.4489 30.761C19.7462 31.6547 15.1659 32.7218 10.6826 34.4571Z" fill="#051328"/>
<path d="M8.36112 38.1329C8.27517 38.1329 8.19032 38.1056 8.11822 38.0533C8.02007 37.9819 7.95518 37.8703 7.9391 37.746C7.06345 30.9057 6.19334 24.8776 5.35374 19.8301C5.34875 19.8022 5.34098 19.765 5.33766 19.7197C4.47143 14.541 3.69505 10.6578 2.9658 7.84995C2.96358 7.84356 2.96192 7.83717 2.96025 7.83078L2.94084 7.76862L2.94306 7.76745C2.93862 7.7599 2.93474 7.75235 2.93086 7.74421C2.86487 7.60594 2.8693 7.4363 2.94694 7.30442C3.11387 7.02207 3.56472 7.05983 3.69338 7.34218C3.70614 7.36542 3.71723 7.3904 3.72555 7.41539L3.74607 7.47697L3.77379 7.56818C3.77823 7.58096 3.78211 7.59374 3.78544 7.60653C4.52356 10.4469 5.30771 14.3678 6.18114 19.5925C6.18558 19.6181 6.1878 19.6442 6.1878 19.6698C7.0152 24.6196 7.8659 30.499 8.72325 37.1581C15.6985 35.7231 22.7991 35.091 29.6696 34.4792L29.735 34.4734C29.5553 33.3498 29.3712 32.2042 29.1832 31.0405C29.1439 30.7976 29.3002 30.5676 29.532 30.5263C29.7578 30.4798 29.9835 30.6483 30.0228 30.8917C30.2386 32.2262 30.4493 33.5375 30.6539 34.8185C30.6778 34.9667 30.629 35.1171 30.5242 35.2194C30.4254 35.3152 30.2896 35.3547 30.1576 35.3315L29.7417 35.3681C22.7975 35.9868 15.6164 36.6259 8.59237 38.0946L8.45595 38.1219C8.42434 38.1295 8.39273 38.1329 8.36112 38.1329ZM26.7992 14.4829C26.564 14.4829 26.3733 14.2859 26.3733 14.0396V14.0338C26.3733 13.7875 26.564 13.5876 26.7992 13.5876C27.0343 13.5876 27.2251 13.7875 27.2251 14.0338C27.2251 14.2801 27.0343 14.4829 26.7992 14.4829Z" fill="#051328"/>
<path d="M10.9651 34.8326C10.8764 34.8326 10.7882 34.8035 10.7145 34.7472C10.6208 34.6757 10.5598 34.5676 10.5437 34.4491C10.5431 34.4462 10.5426 34.4433 10.542 34.4404L7.44535 22.4934L4.80841 13.4448L3.73755 10.1094C3.64993 9.84627 3.56176 9.58425 3.47303 9.32282L3.17467 8.45543C3.13142 8.33052 3.08983 8.21084 3.04102 8.08477C3.00442 7.98891 2.9706 7.8948 2.93899 7.8001C2.92512 7.75943 2.91292 7.71528 2.90127 7.67112C2.89185 7.63743 2.88408 7.60257 2.87077 7.57178C2.81144 7.43525 2.75764 7.28536 2.70607 7.13954L2.3273 6.11529C2.32509 6.10948 2.31954 6.09263 2.31455 6.07695C2.21806 5.95785 2.18755 5.79518 2.23469 5.64645C2.28294 5.49598 2.40328 5.38385 2.55135 5.35074C4.86387 4.84181 6.99449 4.40608 9.06467 4.01974C11.6278 3.53986 14.0951 3.15119 16.6067 2.83107C18.7789 2.54756 21.0753 2.30704 23.6252 2.09557L24.8408 2.00029C25.0754 1.98867 25.2789 2.16819 25.295 2.41452C25.3111 2.66027 25.1342 2.87349 24.8996 2.89033L23.689 2.98561C21.1552 3.19534 18.8715 3.4347 16.711 3.71647C14.2138 4.03484 11.7621 4.42119 9.2144 4.89816C7.30671 5.25429 5.348 5.65226 3.24122 6.11122L3.50408 6.82814C3.549 6.95421 3.59503 7.08435 3.64605 7.20228C3.67655 7.27316 3.69929 7.34985 3.72036 7.42712L3.7431 7.50497C3.77027 7.58805 3.79966 7.66938 3.83072 7.75072C3.88285 7.88492 3.92832 8.01506 3.97546 8.15042L4.27548 9.02304C4.36476 9.2868 4.45405 9.55114 4.54167 9.81606L6.42718 15.8291L9.7074 27.6291L11.2696 33.8159C16.1653 32.1996 21.3049 31.2422 26.2805 30.3155C27.3214 30.1215 28.3606 29.928 29.3943 29.7293C30.2079 29.5719 31.0214 29.4104 31.8311 29.2442C30.5173 24.4408 29.0605 19.262 27.6508 14.2494L27.4073 13.385C27.3408 13.1485 27.47 12.9004 27.6957 12.8307C27.9197 12.7627 28.1582 12.8969 28.2247 13.1328L28.4676 13.9973C29.9139 19.1394 31.4096 24.4565 32.7355 29.3186C32.7566 29.3813 32.7738 29.436 32.7871 29.4964C32.816 29.6288 32.7855 29.7677 32.7045 29.874C32.6241 29.9803 32.5015 30.0419 32.3718 30.0419C31.4628 30.2307 30.5062 30.4219 29.5485 30.6066C28.5126 30.8059 27.4722 30.9999 26.4296 31.194C21.3343 32.1433 16.0666 33.1245 11.0966 34.8111C11.0533 34.8256 11.009 34.8326 10.9651 34.8326Z" fill="#051328"/>
<path d="M26.5422 9.14148C26.3575 9.14148 26.1872 9.01483 26.1329 8.81963C25.5473 6.70374 24.9727 4.62445 24.421 2.61604C24.3561 2.37959 24.4864 2.1321 24.7127 2.06412C24.9356 1.99673 25.1741 2.13268 25.2395 2.36971C25.7913 4.37696 26.3658 6.45625 26.9514 8.57097C27.0169 8.80743 26.8865 9.05492 26.6608 9.12405C26.6209 9.13567 26.581 9.14148 26.5422 9.14148Z" fill="#051328"/>
<path d="M20.049 17.1972C19.9358 17.1972 19.8255 17.1495 19.7445 17.063C19.6414 16.9526 19.6003 16.794 19.6353 16.6441C19.8698 15.6512 20.2275 14.7705 20.6412 13.7515C20.8215 13.307 21.0134 12.8347 21.2102 12.3141C21.2396 12.2357 21.2901 12.1683 21.355 12.1183L34.3461 2.16519C35.4253 1.33731 36.9659 1.79976 37.7262 2.75081C38.1648 3.29982 38.3728 4.08762 38.2835 4.85914C38.207 5.51738 37.9191 6.06814 37.4738 6.40917L24.7672 16.1445C24.7328 16.1706 24.6951 16.1915 24.6546 16.206C23.7374 16.5378 22.5617 16.7423 21.5241 16.923C21.0067 17.013 20.5181 17.0984 20.1421 17.1861C20.1111 17.1937 20.08 17.1972 20.049 17.1972ZM21.9567 12.7626C21.7725 13.2437 21.594 13.6841 21.4248 14.1006C21.1259 14.8379 20.857 15.4996 20.6496 16.1735C20.8825 16.1299 21.1298 16.0869 21.3844 16.0428C22.3654 15.872 23.4739 15.6785 24.3174 15.384L36.9714 5.68877C37.2243 5.49472 37.3901 5.16183 37.4378 4.75108C37.4988 4.22821 37.3585 3.68152 37.0729 3.32364C36.5716 2.6962 35.514 2.37608 34.8485 2.88559L21.9567 12.7626Z" fill="#051328"/>
<path d="M24.3584 16.2715C24.2619 16.2715 24.1654 16.2378 24.0861 16.1681C23.9053 16.0106 23.8803 15.7294 24.0312 15.54C24.0927 15.4355 24.0744 14.9719 23.9713 14.6831C23.9092 14.5094 23.5837 14.2468 23.3912 14.2143C23.2287 14.1876 23.0962 14.065 23.0496 13.8994C22.9892 13.6833 22.8505 13.4892 22.6697 13.3666C22.4352 13.2069 21.9399 13.0349 21.7819 13.064C21.5501 13.1011 21.3344 12.9263 21.3027 12.6817C21.2711 12.4377 21.4342 12.2128 21.6676 12.1797C22.1518 12.1118 22.8588 12.4319 23.1334 12.6172C23.419 12.8112 23.6435 13.0866 23.7822 13.4079C24.2048 13.5793 24.629 13.9796 24.7688 14.3694C24.8736 14.6622 25.0832 15.6103 24.6856 16.1106C24.6018 16.2169 24.4804 16.2715 24.3584 16.2715Z" fill="#051328"/>
<path d="M23.8729 13.9047C23.7403 13.9047 23.61 13.8403 23.5268 13.7194C23.3893 13.519 23.4325 13.2407 23.6233 13.0966C24.4069 12.5058 25.2216 11.9004 26.0506 11.284C28.936 9.14022 31.919 6.92382 34.445 4.69406C34.6241 4.53546 34.8937 4.55928 35.0451 4.74751C35.197 4.93574 35.1737 5.21751 34.994 5.37612C32.4408 7.63028 29.4429 9.85771 26.5436 12.0119C25.7157 12.6272 24.9032 13.2308 24.1213 13.8205C24.0459 13.8774 23.9588 13.9047 23.8729 13.9047ZM8.06011 10.3242C7.86435 10.3242 7.688 10.1819 7.64475 9.97332C7.59428 9.7328 7.74013 9.49461 7.96972 9.44232L17.0246 7.37117C17.2492 7.31772 17.4816 7.47051 17.5315 7.71161C17.5819 7.95272 17.4361 8.19033 17.2065 8.24262L8.15162 10.3138C8.12112 10.3207 8.09062 10.3242 8.06011 10.3242ZM8.56643 17.0437C8.36734 17.0437 8.18933 16.8967 8.1494 16.6841C8.10337 16.4424 8.25366 16.2077 8.48435 16.1601L17.2287 14.3503C17.4594 14.3033 17.6834 14.4596 17.7289 14.7012C17.7749 14.9429 17.6246 15.1776 17.3939 15.2253L8.64961 17.035C8.62188 17.0408 8.5936 17.0437 8.56643 17.0437ZM10.869 24.1856C10.6738 24.1856 10.4974 24.0438 10.4536 23.8352C10.4031 23.5947 10.5479 23.3565 10.778 23.3037L24.4313 20.1472C24.6565 20.0944 24.8877 20.2454 24.9387 20.4871C24.9892 20.7276 24.8445 20.9658 24.6143 21.0187L10.961 24.1751C10.9305 24.1821 10.8995 24.1856 10.869 24.1856ZM15.0343 27.7428C14.8302 27.7428 14.6494 27.5883 14.615 27.3704C14.5762 27.127 14.7326 26.8975 14.9644 26.8569C16.3996 26.6047 17.8248 26.2288 19.2012 25.7391C19.4236 25.6583 19.666 25.7844 19.7414 26.0179C19.8174 26.2515 19.6981 26.5048 19.4752 26.5838C18.0555 27.0892 16.5854 27.4773 15.1053 27.7364C15.0814 27.7411 15.0576 27.7428 15.0343 27.7428Z" fill="#051328"/>
<path d="M4.13418 19.8553C5.27775 25.6775 6.37848 31.68 7.28509 37.5712C7.37296 38.142 7.85692 38.415 8.36143 38.1805C8.4185 38.1539 8.36655 38.1786 8.50624 38.1118C10.4033 37.8297 12.5668 36.8984 29.7413 35.3681L30.1572 35.3315C30.4564 35.3842 30.7017 35.1179 30.6535 34.8185C30.3114 32.6769 30.1896 31.9308 30.0216 30.8894C30.8153 30.749 31.6072 30.6129 32.3938 30.4873C32.5102 30.3316 32.6189 30.1463 32.6503 29.9197C32.6678 29.9031 32.69 29.8935 32.7048 29.8739C32.7858 29.7676 32.8163 29.6287 32.7875 29.4963C32.7742 29.4359 32.757 29.3813 32.7359 29.3185C31.41 24.4564 29.9143 19.1394 28.468 13.9972L28.3089 13.431L37.4741 6.40917C37.9194 6.06814 38.2072 5.51738 38.2837 4.85914C38.373 4.08762 38.1651 3.29982 37.7264 2.75081C36.9661 1.79976 35.4255 1.33731 34.3464 2.16519L26.7829 7.95992C26.2708 6.10983 25.7673 4.28718 25.2819 2.52205C25.3377 2.19661 25.089 1.98792 24.8412 2.0002C16.9374 2.71376 12.5729 3.14522 2.55171 5.35064C2.32601 5.40112 2.17582 5.63107 2.22157 5.87366C2.01895 6.22079 1.83899 6.58179 1.75525 6.97445C1.55216 7.93017 1.75436 7.73898 4.13418 19.8553ZM29.7346 34.4734C22.7048 35.0993 15.6726 35.7284 8.72286 37.1581C7.86838 30.5213 6.75558 22.6316 5.56214 16.0299L7.44571 22.4933C10.6939 35.0081 10.5291 34.5032 10.6231 34.6418C10.6302 34.8395 10.8318 35.0365 11.0034 35.1318C16.8989 33.6374 23.1171 32.1484 29.183 31.0415C29.3708 32.2048 29.555 33.3501 29.7346 34.4734ZM24.8963 14.9406C24.8273 14.3885 24.7023 14.0767 24.2649 13.7122C25.2744 12.9523 34.5748 6.09342 35.073 5.27076C35.1465 5.38194 35.2153 5.49356 35.273 5.60395C35.5331 6.10067 35.5836 6.48586 35.5181 6.64795C35.4946 6.70655 35.485 6.76734 35.4859 6.82718L24.8963 14.9406ZM20.6843 16.1674C20.6733 16.1694 20.6607 16.1715 20.6498 16.1735C20.6927 16.0341 20.7481 15.8936 20.796 15.7545C20.7648 15.8627 20.7092 16.058 20.6843 16.1674ZM22.227 15.8919C21.9127 15.4397 21.6219 14.9235 21.2484 14.5446C21.2732 14.4828 21.7133 13.3849 21.8372 13.0681C22.0284 13.0694 22.4546 13.2197 22.6706 13.3669C23.1563 13.6962 22.9511 14.1419 23.3921 14.2145C23.5845 14.247 23.9101 14.5096 23.9722 14.6833C24.0612 14.9323 24.0832 15.298 24.0492 15.4647C23.4945 15.6358 22.8621 15.7739 22.227 15.8919ZM33.4574 3.95167C33.8333 4.03315 34.2171 4.29517 34.5522 4.63199C34.1052 4.83367 34.5632 4.95865 26.0496 11.2841C25.8359 11.4429 23.7665 12.9789 23.6054 13.1157C23.3588 12.7483 23.1146 12.5379 22.5306 12.3231L33.4574 3.95167ZM24.5055 2.92132C25.0055 4.74041 25.5231 6.61425 26.0507 8.52084C21.1663 12.2925 21.2923 12.0958 21.2105 12.3141C20.5698 14.0082 19.9732 15.2149 19.6355 16.6441C19.6006 16.794 19.6416 16.9526 19.7448 17.063C19.8499 17.1754 20.0028 17.2201 20.1424 17.1861C20.9415 16.9997 24.3018 16.4985 24.7674 16.1445L27.5784 13.9908L27.6511 14.2493C29.0608 19.2619 30.5177 24.4407 31.8314 29.2441C24.9048 30.6656 17.923 31.6194 11.27 33.8158L9.70776 27.6291L6.42753 15.829L4.54203 9.81597C4.33802 9.19914 3.75312 7.50215 3.74568 7.47699L3.72516 7.41541C3.69375 7.32108 3.74881 7.51387 3.50444 6.82805L3.24158 6.11113C12.4063 4.11458 16.7244 3.63028 24.5055 2.92132Z" fill="#051328"/>
<path d="M8.15162 10.3139L17.2065 8.24271C17.4361 8.19042 17.5819 7.95281 17.5315 7.7117C17.4816 7.4706 17.2492 7.31781 17.0246 7.37126L7.96972 9.44241C7.74013 9.4947 7.59428 9.73289 7.64475 9.97342C7.69439 10.2128 7.92026 10.3667 8.15162 10.3139ZM8.48435 16.1602C8.25366 16.2078 8.10337 16.4425 8.1494 16.6842C8.19477 16.9258 8.41902 17.0834 8.64961 17.0351L17.3939 15.2254C17.6246 15.1777 17.7749 14.943 17.7289 14.7013C17.6834 14.4597 17.4594 14.3034 17.2287 14.3504L8.48435 16.1602ZM10.869 24.1857C10.8995 24.1857 10.9305 24.1822 10.961 24.1752L24.6143 21.0188C24.8445 20.9659 24.9892 20.7277 24.9387 20.4872C24.8877 20.2455 24.6565 20.0945 24.4313 20.1473L10.778 23.3037C10.2825 23.4176 10.3635 24.1857 10.869 24.1857ZM19.2012 25.7392C17.8248 26.2289 16.3996 26.6048 14.9644 26.8569C14.7326 26.8976 14.5762 27.1271 14.615 27.3705C14.6494 27.5884 14.8302 27.7429 15.0343 27.7429C15.0576 27.7429 15.0814 27.7412 15.1053 27.7365C16.5854 27.4774 18.0555 27.0893 19.4752 26.5839C19.6981 26.5049 19.8174 26.2516 19.7414 26.018C19.666 25.7845 19.4236 25.6584 19.2012 25.7392Z" fill="#051328"/>
</g>
<defs>
<clipPath id="clip0_2106_33628">
<rect width="38" height="38" fill="white" transform="translate(1 1)"/>
</clipPath>
</defs>
</svg>
