<svg width="40" height="40" viewBox="0 0 40 40" fill="none" xmlns="http://www.w3.org/2000/svg">
<rect x="2.89453" y="3" width="34.8947" height="34" rx="1.78947" fill="#051328"/>
<rect x="2" y="3" width="34" height="33.9943" rx="3.39943" fill="white"/>
<path d="M33.36 3H4.64C3.18286 3 2 4.18286 2 5.63429V34.36C2 35.8114 3.18286 36.9943 4.64 36.9943H33.36C34.8171 36.9943 36 35.8114 36 34.36C36 34.36 36 5.64 36 5.63429V5.62857C35.9943 4.17714 34.8114 3 33.36 3ZM35.1429 34.36C35.1429 35.3371 34.3429 36.1371 33.36 36.1429H4.64C3.65714 36.1371 2.85714 35.3371 2.85714 34.36V13.9657H35.1429V34.36ZM35.1429 13.1086H2.85714V5.63429C2.85714 4.65714 3.65714 3.85714 4.64 3.85143H33.36C34.3429 3.85714 35.1429 4.65714 35.1429 5.63429C35.1429 5.64 35.1429 5.65143 35.1429 5.65143C35.1429 5.66286 35.1429 13.1086 35.1429 13.1086Z" fill="#051328"/>
<path d="M33.3595 5.21191H4.63951C4.40522 5.21191 4.21094 5.4062 4.21094 5.64049V11.3319C4.21094 11.5662 4.40522 11.7605 4.63951 11.7605H33.3652C33.5995 11.7605 33.7938 11.5662 33.7938 11.3319V5.64049C33.7881 5.40049 33.5995 5.21191 33.3595 5.21191ZM32.9309 10.9033H5.06808V6.06906H32.9367V10.9033H32.9309Z" fill="#051328"/>
<path d="M4.63951 21.2745H10.1652C10.3995 21.2745 10.5938 21.0802 10.5938 20.8459V15.743C10.5938 15.5087 10.3995 15.3145 10.1652 15.3145H4.63951C4.40522 15.3145 4.21094 15.5087 4.21094 15.743V20.8459C4.21094 21.0859 4.39951 21.2745 4.63951 21.2745ZM5.06808 16.1773H9.73665V20.423H5.06808V16.1773Z" fill="#051328"/>
<path d="M12.37 21.2745H17.8957C18.13 21.2745 18.3243 21.0802 18.3243 20.8459V15.743C18.3243 15.5087 18.13 15.3145 17.8957 15.3145H12.37C12.1357 15.3145 11.9414 15.5087 11.9414 15.743V20.8459C11.9414 21.0859 12.1357 21.2745 12.37 21.2745ZM12.7985 16.1773H17.4671V20.423H12.7985V16.1773Z" fill="#051328"/>
<path d="M20.1024 21.2745H25.6281C25.8624 21.2745 26.0567 21.0802 26.0567 20.8459V15.743C26.0567 15.5087 25.8624 15.3145 25.6281 15.3145H20.1024C19.8681 15.3145 19.6738 15.5087 19.6738 15.743V20.8459C19.6738 21.0859 19.8681 21.2745 20.1024 21.2745ZM20.531 16.1773H25.1995V20.423H20.531V16.1773Z" fill="#051328"/>
<path d="M27.8407 21.2745H33.3664C33.6007 21.2745 33.795 21.0802 33.795 20.8459V15.743C33.795 15.5087 33.6007 15.3145 33.3664 15.3145H27.8407C27.6064 15.3145 27.4121 15.5087 27.4121 15.743V20.8459C27.4121 21.0859 27.6007 21.2745 27.8407 21.2745ZM28.2693 16.1773H32.9378V20.423H28.2693V16.1773Z" fill="#051328"/>
<path d="M4.63951 28.0335H10.1652C10.3995 28.0335 10.5938 27.8392 10.5938 27.6049V22.5021C10.5938 22.2678 10.3995 22.0735 10.1652 22.0735H4.63951C4.40522 22.0735 4.21094 22.2678 4.21094 22.5021V27.6049C4.21094 27.8392 4.39951 28.0335 4.63951 28.0335ZM5.06808 22.9306H9.73665V27.1763H5.06808V22.9306Z" fill="#051328"/>
<path d="M12.37 28.0335H17.8957C18.13 28.0335 18.3243 27.8392 18.3243 27.6049V22.5021C18.3243 22.2678 18.13 22.0735 17.8957 22.0735H12.37C12.1357 22.0735 11.9414 22.2678 11.9414 22.5021V27.6049C11.9414 27.8392 12.1357 28.0335 12.37 28.0335ZM12.7985 22.9306H17.4671V27.1763H12.7985V22.9306Z" fill="#051328"/>
<path d="M4.63951 34.7947H10.1652C10.3995 34.7947 10.5938 34.6004 10.5938 34.3661V29.2633C10.5938 29.029 10.3995 28.8347 10.1652 28.8347H4.63951C4.40522 28.8347 4.21094 29.029 4.21094 29.2633V34.3661C4.21094 34.6004 4.39951 34.7947 4.63951 34.7947ZM5.06808 29.6919H9.73665V33.9376H5.06808V29.6919Z" fill="#051328"/>
<path d="M12.37 34.7947H17.8957C18.13 34.7947 18.3243 34.6004 18.3243 34.3661V29.2633C18.3243 29.029 18.13 28.8347 17.8957 28.8347H12.37C12.1357 28.8347 11.9414 29.029 11.9414 29.2633V34.3661C11.9414 34.6004 12.1357 34.7947 12.37 34.7947ZM12.7985 29.6919H17.4671V33.9376H12.7985V29.6919Z" fill="#051328"/>
<path d="M20.1024 34.7935H25.6281C25.8624 34.7935 26.0567 34.5992 26.0567 34.3649V22.5021C26.0567 22.2678 25.8624 22.0735 25.6281 22.0735H20.1024C19.8681 22.0735 19.6738 22.2678 19.6738 22.5021V34.3592C19.6738 34.5992 19.8681 34.7935 20.1024 34.7935ZM20.531 22.9306H25.1995V33.9306H20.531V22.9306Z" fill="#051328"/>
<path d="M27.8407 34.7935H33.3664C33.6007 34.7935 33.795 34.5992 33.795 34.3649V22.5021C33.795 22.2678 33.6007 22.0735 33.3664 22.0735H27.8407C27.6064 22.0735 27.4121 22.2678 27.4121 22.5021V34.3592C27.4121 34.5992 27.6007 34.7935 27.8407 34.7935ZM28.2693 22.9306H32.9378V33.9306H28.2693V22.9306Z" fill="#051328"/>
<path d="M31.9201 28.0053H31.0287V27.1139C31.0287 26.8796 30.8344 26.6853 30.6001 26.6853C30.3658 26.6853 30.1716 26.8796 30.1716 27.1139V28.0053H29.2801C29.0458 28.0053 28.8516 28.1996 28.8516 28.4339C28.8516 28.6682 29.0458 28.8624 29.2801 28.8624H30.1716V29.7539C30.1716 29.9882 30.3658 30.1824 30.6001 30.1824C30.8344 30.1824 31.0287 29.9882 31.0287 29.7539V28.8624H31.9201C32.1544 28.8624 32.3487 28.6682 32.3487 28.4339C32.3487 28.1996 32.1544 28.0053 31.9201 28.0053Z" fill="#051328"/>
<path d="M24.1838 27.1829H21.5438C21.3095 27.1829 21.1152 27.3771 21.1152 27.6114C21.1152 27.8457 21.3095 28.04 21.5438 28.04H24.1838C24.4181 28.04 24.6124 27.8457 24.6124 27.6114C24.6124 27.3771 24.4238 27.1829 24.1838 27.1829Z" fill="#051328"/>
<path d="M24.1838 28.8281H21.5438C21.3095 28.8281 21.1152 29.0224 21.1152 29.2567C21.1152 29.491 21.3095 29.6853 21.5438 29.6853H24.1838C24.4181 29.6853 24.6124 29.491 24.6124 29.2567C24.6124 29.0224 24.4238 28.8281 24.1838 28.8281Z" fill="#051328"/>
</svg>
