<svg width="40" height="40" viewBox="0 0 40 40" fill="none" xmlns="http://www.w3.org/2000/svg">
<path d="M20.0646 27.7365L16.5114 25.0347C14.914 23.8204 12.8819 23.3529 10.9438 23.7597L8.13062 24.3426C7.85459 23.6504 7.20269 23.1647 6.4392 23.1647H4.17221C3.16793 23.1647 2.3457 24.0147 2.3457 25.0529V32.1322C2.3457 33.1704 3.16793 34.0204 4.17221 34.0204H6.4392C7.1557 34.0204 7.77824 33.5833 8.07777 32.9519L14.8787 35.8479C15.4367 36.0847 16.0298 36.2062 16.6289 36.2062C16.8109 36.2062 16.993 36.194 17.1751 36.1697L28.8271 34.7187C29.4262 34.6458 29.9547 34.3301 30.3189 33.8322C30.6771 33.3344 30.824 32.7272 30.7241 32.114C30.5479 31.0029 29.6082 30.1833 28.51 30.2197L20.7341 30.4262C20.8633 30.1347 20.9338 29.8129 20.9338 29.479C20.9279 28.7869 20.6108 28.1494 20.0646 27.7365ZM5.893 26.8562C5.893 27.1901 5.62872 27.4633 5.3057 27.4633C4.98269 27.4633 4.7184 27.1901 4.7184 26.8562V26.0912C4.7184 25.7572 4.98269 25.484 5.3057 25.484C5.62872 25.484 5.893 25.7572 5.893 26.0912V26.8562ZM28.5452 31.434C29.0444 31.434 29.4849 31.7983 29.5671 32.3083C29.6141 32.5937 29.5436 32.8729 29.3792 33.1037C29.2089 33.3344 28.9681 33.4801 28.6921 33.5165L17.0341 34.9615C16.4586 35.0344 15.8654 34.9554 15.3251 34.7247L8.2657 31.7254V25.5508L11.1728 24.9497C12.7938 24.6097 14.4852 24.9983 15.8125 26.0122L19.3716 28.714C19.6124 28.8962 19.7533 29.1815 19.7592 29.4912C19.7592 29.8069 19.6241 30.0922 19.3892 30.2804C19.2189 30.414 19.0251 30.4747 18.8254 30.4747L18.7725 30.4808C18.5728 30.4687 18.3732 30.3958 18.2087 30.2562L15.7244 28.1251C15.4778 27.9126 15.1078 27.949 14.8963 28.204C14.6908 28.4651 14.726 28.8476 14.9727 29.0601L17.457 31.1912C17.7917 31.4765 18.1852 31.6344 18.5905 31.6769C18.6198 31.6829 18.6492 31.6951 18.6786 31.6951H18.749C18.7725 31.6951 18.7901 31.7012 18.8078 31.7012C18.8489 31.7012 18.89 31.689 18.9311 31.689L28.5452 31.434ZM36.8262 3.79688H18.0913C17.7682 3.79688 17.504 4.07009 17.504 4.40402V23.7658C17.504 24.0997 17.7682 24.3729 18.0913 24.3729H36.8262C37.1492 24.3729 37.4135 24.0997 37.4135 23.7658V4.40402C37.4135 4.07009 37.1492 3.79688 36.8262 3.79688ZM36.2389 23.1587H18.6786V5.01116H24.3754V11.3497C24.3754 11.6837 24.6397 11.9569 24.9627 11.9569H29.9547C30.2778 11.9569 30.542 11.6837 30.542 11.3497V5.01116H36.2389V23.1587Z" fill="#051328"/>
<path d="M30.4346 21.5435C30.4346 21.8787 30.6978 22.1507 31.0219 22.1507C31.3461 22.1507 31.6092 21.8787 31.6092 21.5435V20.2704C31.6092 19.9352 31.3461 19.6632 31.0219 19.6632C30.6978 19.6632 30.4346 19.9352 30.4346 20.2704V21.5435ZM32.8455 22.1507C33.1697 22.1507 33.4328 21.8787 33.4328 21.5435V20.2704C33.4328 19.9352 33.1697 19.6632 32.8455 19.6632C32.5213 19.6632 32.2582 19.9352 32.2582 20.2704V21.5435C32.2582 21.8787 32.5213 22.1507 32.8455 22.1507ZM34.6685 22.1507C34.9927 22.1507 35.2558 21.8787 35.2558 21.5435V20.2704C35.2558 19.9352 34.9927 19.6632 34.6685 19.6632C34.3443 19.6632 34.0812 19.9352 34.0812 20.2704V21.5435C34.0812 21.8787 34.3443 22.1507 34.6685 22.1507ZM25.1842 20.3001H20.1439C19.8198 20.3001 19.5566 20.5721 19.5566 20.9072C19.5566 21.2424 19.8198 21.5144 20.1439 21.5144H25.1842C25.5084 21.5144 25.7715 21.2424 25.7715 20.9072C25.7715 20.5721 25.5084 20.3001 25.1842 20.3001Z" fill="#051328"/>
</svg>
