<svg width="41" height="40" viewBox="0 0 41 40" fill="none" xmlns="http://www.w3.org/2000/svg">
<g clip-path="url(#clip0_986_1019)">
<rect width="40" height="40" transform="translate(0.5)" fill="white"/>
<path d="M40.4635 36.1023C40.2464 35.6199 39.9971 34.9796 39.7851 34.4409C39.4149 33.4992 38.5212 32.891 37.5091 32.891H37.3782C37.7056 32.2565 37.601 31.419 36.9212 31.0301C36.7573 30.9354 36.7605 30.9932 35.1804 30.9757C35.1812 30.9429 35.1783 31.0942 35.1867 30.6561C35.1963 30.2159 34.9373 29.8147 34.5259 29.6328C34.3354 29.549 34.1399 29.3767 33.9756 29.1473C33.6027 28.6272 33.7068 28.1005 33.6968 27.9628V16.4326C34.138 15.8966 34.5325 15.4805 35.0604 14.8436C36.8307 14.905 37.2174 14.426 37.5379 13.1308C37.5835 12.9457 37.6294 12.7568 37.6959 12.5776C38.1256 11.4182 37.3933 11.0853 36.8049 10.8175C36.678 10.76 21.6567 3.48059 21.343 3.29264C21.1446 3.17313 20.92 3.03708 20.6431 3.00667C19.9514 2.93423 19.3328 3.47131 18.9051 3.68104C8.19751 8.92578 4.50445 10.7483 4.2841 10.8362C3.87357 10.9993 3.49019 11.1655 3.39498 11.598C3.32749 11.9091 3.33843 14.0971 4.34972 14.6215C4.78694 14.8484 5.31872 14.8078 5.80145 14.7874C6.32993 15.4326 6.69581 15.8497 7.17127 16.4306C7.17127 18.9796 7.17127 10.1636 7.17127 27.9628C7.16293 28.0769 7.27588 29.1045 6.42487 29.5912C5.98136 29.8438 5.67354 30.3124 5.6881 30.9757C4.256 30.9929 4.23815 30.9353 4.07336 31.0301C3.38214 31.4264 3.30504 32.277 3.62166 32.891H3.48675C2.47491 32.891 1.58179 33.4987 1.21099 34.4393C0.997413 34.9824 0.746865 35.6272 0.53555 36.1044C0.416063 36.3729 0.612068 36.6801 0.910085 36.6801H40.0898C40.3878 36.6801 40.5852 36.3718 40.4635 36.1023ZM12.5639 29.5912C12.4004 29.4978 12.2344 29.3404 12.096 29.1473C11.7222 28.6259 11.8274 28.0981 11.8172 27.9628V16.4306C12.0646 16.1284 12.9551 15.0708 13.1924 14.781H15.8684C17.1313 18.3939 21.5258 19.7633 24.5389 17.0693C25.2239 16.457 25.7133 15.8601 26.084 14.781H27.6758C28.2064 15.4289 28.5735 15.8473 29.0509 16.4306C29.0509 30.7104 29.0499 14.1809 29.0527 28.1101C29.1228 28.8166 28.6549 29.4419 28.2212 29.6333C27.8107 29.8146 27.5514 30.2156 27.561 30.6556C27.5624 30.7281 27.5657 30.9034 27.5672 30.9757H23.8997C23.9048 25.4107 23.8906 26.1277 23.9098 25.1506C23.9397 23.6368 24.0115 21.9234 22.9159 20.9411C22.1719 20.2747 21.31 20.2187 20.5606 20.2187C19.0514 20.2036 17.6654 20.149 16.7224 21.3706C16.3151 21.8993 16.0715 22.5758 15.9984 23.3825C15.9437 23.9893 15.9982 28.7501 16.0116 30.9757H13.3004C13.3148 30.3184 13.0118 29.8466 12.5639 29.5912ZM7.99077 16.6537H10.9978L10.9997 27.5531H7.99077V16.6537ZM25.4405 14.0907C25.1049 15.298 24.6896 15.8353 23.9925 16.4584C23.4718 16.9244 22.8925 17.2661 22.2378 17.4695C17.7733 18.862 13.6996 12.6329 18.7915 9.62131C22.4679 7.36222 26.3851 10.6819 25.4405 14.0907ZM29.8704 16.6537H32.8774L32.8794 27.5531H29.8704V16.6537ZM16.8147 23.4562C16.8726 22.8165 17.0652 22.2685 17.3715 21.8711C18.0928 20.9368 19.2868 21.0256 20.5606 21.0382C21.343 21.0382 21.8899 21.122 22.369 21.5515C23.308 22.3938 23.0802 24.2384 23.0802 25.9114V30.9757H16.8311C16.8192 28.993 16.7647 24.0059 16.8147 23.4562ZM34.1951 30.3824C34.3021 30.4299 34.3696 30.5302 34.3672 30.6385C34.3662 30.6819 34.368 30.5976 34.3599 30.9757H28.3878C28.3865 30.9155 28.3853 30.8553 28.384 30.7953C28.3948 30.7311 28.3177 30.4863 28.552 30.3829C29.296 30.0548 29.8386 29.1811 29.8778 28.3726H32.8717C32.9165 29.2169 33.4734 30.0646 34.1951 30.3824ZM4.72693 13.8938C4.2753 13.6596 4.14192 12.1118 4.17953 11.7986C4.25622 11.7128 4.66772 11.574 4.83363 11.4924C20.3125 3.88692 19.1356 4.51406 19.6835 4.17829C20.6518 3.5878 20.5602 3.8364 21.1862 4.14468C22.8848 4.98257 35.6839 11.1868 36.1881 11.4342C37.0052 11.8291 37.1228 11.7655 36.9276 12.2927C36.6195 13.1224 36.7071 13.8353 36.0313 13.9722C35.3186 14.1166 34.5975 13.9714 33.7408 13.964L33.727 13.2861C33.7227 13.0599 33.5352 12.8812 33.3089 12.8844C33.0827 12.8892 32.9029 13.0759 32.9075 13.3021L32.9209 13.9615H31.8329C31.8372 13.6753 31.8164 13.3243 31.8772 11.3681C31.8844 11.1419 31.7068 10.953 31.4806 10.9455C31.2578 10.9562 31.0652 11.1163 31.0583 11.3425C31.0041 13.053 31.0143 13.9033 31.0135 13.9615H30.1961V10.4659C30.1961 10.2397 30.0126 10.0561 29.7863 10.0561C29.5601 10.0561 29.3766 10.2397 29.3766 10.4659V13.9615H26.3095C27.0747 9.7831 22.442 6.4188 18.3684 8.91919C16.5168 10.0142 15.3168 11.8555 15.6478 13.9615H11.6852V10.4659C11.6852 10.2397 11.5016 10.0561 11.2754 10.0561C11.0492 10.0561 10.8657 10.2397 10.8657 10.4659V13.9615H10.0482C10.0431 13.6215 10.0651 13.2875 10.0035 11.3425C9.99629 11.1163 9.80795 10.9567 9.58121 10.9455C9.35499 10.953 9.17733 11.1419 9.18453 11.3681C9.24799 13.4093 9.22421 13.6582 9.22881 13.9615H8.14082L8.15429 13.3021C8.15883 13.0759 7.97903 12.8892 7.75281 12.8844C7.5322 12.8828 7.3396 13.0599 7.3348 13.2861L7.32099 13.9615C5.91033 13.9664 6.06888 13.9524 5.64832 13.9727C5.31834 13.9893 4.94514 14.0069 4.72693 13.8938ZM6.5065 30.8892C6.5009 30.6449 6.62521 30.4203 6.83115 30.3029C7.50221 29.9191 7.9618 29.1224 7.99824 28.3726H10.9921C11.0324 29.1305 11.4874 29.9202 12.1576 30.3029C12.363 30.4203 12.4873 30.6449 12.482 30.8892C12.4814 30.9178 12.4808 30.9468 12.4802 30.9757H6.5083C6.50767 30.9468 6.50707 30.9178 6.5065 30.8892ZM1.52817 35.8606C1.6632 35.53 1.80193 35.1757 1.9734 34.7402C2.21989 34.1144 2.81397 33.7105 3.48675 33.7105H37.5091C38.1822 33.7105 38.7762 34.1149 39.0227 34.7408C39.1647 35.102 39.3178 35.4939 39.4688 35.8606H1.52817Z" fill="#051328"/>
<path d="M17.7511 25.8558C17.5248 25.8558 17.3413 26.0394 17.3413 26.2656V26.8023C17.3413 27.0285 17.5248 27.212 17.7511 27.212C17.9773 27.212 18.1608 27.0285 18.1608 26.8023V26.2656C18.1608 26.0394 17.9773 25.8558 17.7511 25.8558ZM18.3091 13C18.0829 13 17.8994 13.1835 17.8994 13.4097C17.8994 13.636 18.0829 13.8195 18.3091 13.8195H18.3379C18.5641 13.8195 18.7333 13.636 18.7333 13.4097C18.7333 13.1835 18.5353 13 18.3091 13ZM23.9952 13C23.769 13 23.5854 13.1835 23.5854 13.4097C23.5854 13.9472 24.4193 13.9654 24.4193 13.4097C24.4193 13.1835 24.2214 13 23.9952 13Z" fill="#051328"/>
<path d="M21.267 16.1737L19.8403 13.6827V13.3506H20.0064C20.2731 13.3506 20.497 13.3254 20.6782 13.2751C20.8644 13.2248 21.0103 13.1418 21.116 13.026C21.2217 12.9103 21.2846 12.7518 21.3047 12.5505H19.8403V12.0674H21.2972C21.2619 11.8812 21.1915 11.7302 21.0858 11.6145C20.9801 11.4937 20.8367 11.4057 20.6555 11.3503C20.4794 11.2949 20.263 11.2673 20.0064 11.2673H19.8403V10.7842H22.9653V11.2673H21.5387C21.6544 11.3629 21.7501 11.4761 21.8255 11.6069C21.901 11.7378 21.9488 11.8913 21.969 12.0674H22.9653V12.5505H21.9841C21.9488 12.9178 21.8079 13.2047 21.5613 13.411C21.3198 13.6123 20.9977 13.7406 20.5952 13.796L22.0369 16.1737H21.267Z" fill="#051328"/>
</g>
<defs>
<clipPath id="clip0_986_1019">
<rect width="40" height="40" fill="white" transform="translate(0.5)"/>
</clipPath>
</defs>
</svg>
