<svg width="40" height="40" viewBox="0 0 40 40" fill="none" xmlns="http://www.w3.org/2000/svg">
<g clip-path="url(#clip0_1688_27547)">
<g clip-path="url(#clip1_1688_27547)">
<path d="M28.4933 0.433165C27.8039 0.0413159 26.9347 0.332972 26.6293 1.05469L26.2289 1.99986C21.8937 0.150351 17.2628 0.642865 13.6601 2.74585C11.7234 1.38932 9.48024 1.2638 7.93886 1.85099V1.84983L7.81038 1.90134C2.06848 3.86234 1.09509 10.9541 6.53608 14.0548C6.25512 18.4393 8.20836 22.8287 10.8345 24.8924C11.9576 25.9983 13.3316 27.0113 14.7868 27.6824C14.6396 28.0642 14.5479 28.3168 14.5251 28.3782C14.2867 29.0217 14.5939 29.7486 15.2242 30.0339C16.2034 30.4767 17.2341 30.8052 18.2845 31.022C18.3051 31.4268 18.3369 31.6251 18.3455 32.0419C16.6193 32.0854 14.6473 32.2305 12.738 32.8493C12.1955 33.0252 11.3964 33.2895 11.0077 33.8478C10.9466 33.8935 8.69704 35.5767 8.83932 35.4702C8.32008 35.8773 8.00141 36.4452 8.26525 37.0524C8.58353 37.785 9.74325 38.399 11.7114 38.8765C18.6344 40.5551 24.6487 39.2931 25.811 39.1953C27.5702 38.9156 30.2872 38.3897 30.2872 36.6074C30.2872 36.6056 30.2872 36.6039 30.2872 36.6021C30.282 36.1774 30.0893 35.568 29.2305 35.0987L27.372 33.6742C26.7572 32.906 25.3078 32.6651 24.3972 32.5026C23.1932 32.2738 21.9381 32.1358 20.6546 32.0729C20.6559 31.6914 20.6663 31.6045 20.6712 31.316C22.6424 31.3997 24.4314 31.095 25.9805 30.5211C32.1536 28.2347 36.7027 22.1623 37.043 15.7549C37.3654 9.69243 33.9296 3.53502 28.4933 0.433165ZM28.9365 4.68251C27.5116 4.6891 26.3035 4.69716 25.2413 4.70617C24.7458 3.58833 24.2052 2.70906 23.6219 2.07271C26.022 2.61529 27.4614 3.5244 28.9365 4.68251ZM26.039 27.3041C25.3073 27.612 24.9797 27.7484 23.4682 27.9687C24.3287 27.1432 24.9385 25.9685 25.3937 24.8769C26.8291 24.8774 28.2075 24.8752 29.6435 24.8708C28.6138 25.8733 27.3715 26.7427 26.039 27.3041ZM20.6884 1.75283C20.9612 1.75174 21.2339 1.75243 21.5058 1.7687C22.6757 2.0318 23.5979 3.32129 24.2659 4.71503C21.7463 4.73955 20.1473 4.76672 17.7269 4.79316C18.3364 3.48075 19.2625 2.02465 20.6884 1.75283ZM16.8775 7.42969C16.8627 7.35996 16.8376 7.29844 16.8207 7.23022C16.9899 6.64831 17.1515 6.19727 17.3477 5.68617C20.1271 5.65716 21.7789 5.6269 24.6545 5.60034C25.3691 7.37673 25.8321 9.29423 26.074 11.2325C22.2711 11.2845 20.0856 11.3252 16.3393 11.3788C17.0109 10.0221 17.1408 8.52658 16.8775 7.42969ZM15.9053 12.2742C19.4924 12.2237 22.318 12.1726 26.1651 12.1203C26.338 14.0262 26.3179 15.7445 26.1446 17.5912L15.9212 17.6292C15.7703 15.8314 15.767 14.0388 15.9053 12.2742ZM33.5405 12.0499C33.9556 13.7754 34.0084 15.6962 33.6266 17.5634L27.0364 17.5879C27.2046 15.7412 27.2273 14.0375 27.0571 12.1079C29.1659 12.0808 31.3251 12.06 33.5405 12.0499ZM26.0465 18.4805C25.8031 20.4583 25.4466 22.236 24.7882 23.9881C21.987 23.9855 20.001 23.9725 17.234 23.9691C16.512 22.1244 16.2216 20.3638 16.0181 18.5177L26.0465 18.4805ZM24.4229 24.8763C23.4212 27.1311 22.2529 28.2141 20.94 28.0738C19.3701 27.9018 18.2957 26.2821 17.6154 24.8581C20.1743 24.8623 21.5966 24.8729 24.4229 24.8763ZM30.4676 23.9791C28.6025 23.986 27.0701 23.9886 25.7362 23.9885C26.364 22.2201 26.7163 20.3771 26.9432 18.4772L33.4093 18.4532C32.9293 20.149 31.8604 22.3332 30.4676 23.9791ZM33.2936 11.1626C31.1339 11.1733 29.0261 11.1935 26.968 11.2201C26.7262 9.2227 26.2693 7.34079 25.6038 5.59213C26.8313 5.58225 28.2516 5.57361 29.9686 5.56703C31.5762 7.17639 32.65 9.0182 33.2936 11.1626ZM18.5943 1.92944C17.4977 2.97851 16.824 4.50459 16.323 5.89848C15.8473 4.92297 15.2375 4.09588 14.4046 3.34238C15.6429 2.66729 17.0467 2.17656 18.5943 1.92944ZM8.11999 2.73409C8.70617 2.49344 9.37988 2.40521 10.0187 2.40944C12.6961 2.48593 14.8903 4.49064 15.8179 6.943C17.7068 12.1228 10.5964 17.0936 5.59569 12.2584C2.26847 9.01587 3.89221 4.17891 8.11999 2.73409ZM14.9606 13.2471C14.8927 14.6984 14.9109 16.1632 15.0313 17.6325L7.68643 17.6598C7.4704 16.6477 7.36478 15.5794 7.4029 14.4824C9.95493 15.5568 12.8372 15.2136 14.9606 13.2471ZM7.90493 18.5479L15.1241 18.5211C15.3177 20.3197 15.5885 22.0609 16.2865 23.9684C14.8528 23.9679 13.195 23.9702 11.1292 23.9777C9.8025 22.8246 8.57022 20.8794 7.90493 18.5479ZM12.1096 24.8632C13.8923 24.8576 15.3586 24.8561 16.6441 24.857C17.136 25.9726 17.7356 27.047 18.62 27.8644C16.1552 27.4792 14.2375 26.7173 12.1096 24.8632ZM24.4122 33.4083C24.9996 33.5113 26.3758 33.752 26.712 34.2578C26.7746 34.3536 26.7613 34.3993 26.7699 34.4586C26.6953 35.1592 24.7493 35.3615 24.0777 35.4696C20.0436 36.1172 16.6663 36.0877 13.76 35.3817C12.359 35.0373 11.9036 34.6884 11.7739 34.5559C11.6732 34.4517 11.6865 34.428 11.7108 34.3851C11.8978 34.0559 12.6223 33.8209 13.05 33.6826C14.8113 33.1116 16.6925 32.973 18.3487 32.9309C18.3461 33.3803 18.3154 33.789 18.5424 34.156C18.9507 34.8164 19.7864 34.893 20.3341 34.3932C20.7656 34.0046 20.6399 33.5801 20.6555 32.9579C21.8833 33.0199 23.0818 33.1575 24.2346 33.3765L24.4122 33.4083ZM36.1553 15.7075C35.8335 21.7717 31.5222 27.5206 25.6715 29.6878C22.3748 30.9083 18.5022 30.5417 15.5905 29.2237C15.3804 29.1288 15.2803 28.8979 15.3584 28.6866C15.4396 28.4688 15.496 28.3141 15.6082 28.0229C18.5831 29.1247 23.1518 29.4823 26.3833 28.1236C32.6352 25.4869 34.4129 18.3806 34.2394 18.79C34.24 18.788 34.2415 18.7865 34.2421 18.7844C35.9736 12.8396 33.3995 5.59052 27.0371 2.37067L27.4475 1.40134C27.5446 1.17119 27.8263 1.07482 28.0523 1.20516C33.2045 4.14439 36.4603 9.97252 36.1553 15.7075Z" fill="#051328"/>
<path d="M9.82609 12L8 8.76471V8.33333H8.21256C8.55395 8.33333 8.84058 8.30065 9.07246 8.23529C9.31079 8.16993 9.49758 8.06209 9.63285 7.91176C9.76812 7.76144 9.84863 7.55556 9.8744 7.29412H8V6.66667H9.86473C9.81965 6.42484 9.72947 6.22876 9.5942 6.07843C9.45894 5.92157 9.27536 5.80719 9.04348 5.73529C8.81804 5.6634 8.54106 5.62745 8.21256 5.62745H8V5H12V5.62745H10.1739C10.3221 5.75163 10.4444 5.89869 10.5411 6.06863C10.6377 6.23856 10.6989 6.43791 10.7246 6.66667H12V7.29412H10.744C10.6989 7.77124 10.5185 8.14379 10.2029 8.41176C9.89372 8.6732 9.48148 8.83987 8.96618 8.91176L10.8116 12H9.82609Z" fill="#051328"/>
</g>
</g>
<defs>
<clipPath id="clip0_1688_27547">
<rect width="40" height="40" fill="white"/>
</clipPath>
<clipPath id="clip1_1688_27547">
<rect width="34.4444" height="40" fill="white" transform="translate(2.77734)"/>
</clipPath>
</defs>
</svg>
