<svg width="40" height="40" viewBox="0 0 40 40" fill="none" xmlns="http://www.w3.org/2000/svg">
<path d="M20.0626 27.7365L16.5095 25.0347C14.912 23.8204 12.8799 23.3529 10.9418 23.7597L8.12867 24.3426C7.85264 23.6504 7.20073 23.1647 6.43724 23.1647H4.17026C3.16597 23.1647 2.34375 24.0147 2.34375 25.0529V32.1322C2.34375 33.1704 3.16597 34.0204 4.17026 34.0204H6.43724C7.15375 34.0204 7.77629 33.5833 8.07581 32.9519L14.8768 35.8479C15.4347 36.0847 16.0279 36.2062 16.6269 36.2062C16.809 36.2062 16.9911 36.194 17.1731 36.1697L28.8252 34.7187C29.4242 34.6458 29.9528 34.3301 30.3169 33.8322C30.6752 33.3344 30.822 32.7272 30.7222 32.114C30.546 31.0029 29.6063 30.1833 28.508 30.2197L20.7322 30.4262C20.8614 30.1347 20.9318 29.8129 20.9318 29.479C20.926 28.7869 20.6088 28.1494 20.0626 27.7365ZM5.89105 26.8562C5.89105 27.1901 5.62677 27.4633 5.30375 27.4633C4.98073 27.4633 4.71645 27.1901 4.71645 26.8562V26.0912C4.71645 25.7572 4.98073 25.484 5.30375 25.484C5.62677 25.484 5.89105 25.7572 5.89105 26.0912V26.8562ZM28.5433 31.434C29.0425 31.434 29.483 31.7983 29.5652 32.3083C29.6122 32.5937 29.5417 32.8729 29.3772 33.1037C29.2069 33.3344 28.9661 33.4801 28.6901 33.5165L17.0322 34.9615C16.4566 35.0344 15.8634 34.9554 15.3231 34.7247L8.26375 31.7254V25.5508L11.1709 24.9497C12.7918 24.6097 14.4833 24.9983 15.8106 26.0122L19.3696 28.714C19.6104 28.8962 19.7514 29.1815 19.7572 29.4912C19.7572 29.8069 19.6222 30.0922 19.3872 30.2804C19.2169 30.414 19.0231 30.4747 18.8234 30.4747L18.7706 30.4808C18.5709 30.4687 18.3712 30.3958 18.2068 30.2562L15.7225 28.1251C15.4758 27.9126 15.1058 27.949 14.8944 28.204C14.6888 28.4651 14.7241 28.8476 14.9707 29.0601L17.455 31.1912C17.7898 31.4765 18.1833 31.6344 18.5885 31.6769C18.6179 31.6829 18.6472 31.6951 18.6766 31.6951H18.7471C18.7706 31.6951 18.7882 31.7012 18.8058 31.7012C18.8469 31.7012 18.888 31.689 18.9291 31.689L28.5433 31.434ZM36.8242 3.79688H18.0893C17.7663 3.79688 17.502 4.07009 17.502 4.40402V23.7658C17.502 24.0997 17.7663 24.3729 18.0893 24.3729H36.8242C37.1472 24.3729 37.4115 24.0997 37.4115 23.7658V4.40402C37.4115 4.07009 37.1472 3.79688 36.8242 3.79688ZM36.2369 23.1587H18.6766V5.01116H24.3734V11.3497C24.3734 11.6837 24.6377 11.9569 24.9607 11.9569H29.9528C30.2758 11.9569 30.5401 11.6837 30.5401 11.3497V5.01116H36.2369V23.1587Z" fill="#051328"/>
<path d="M30.4327 21.5434C30.4327 21.8786 30.6958 22.1506 31.02 22.1506C31.3442 22.1506 31.6073 21.8786 31.6073 21.5434V20.2702C31.6073 19.9351 31.3442 19.6631 31.02 19.6631C30.6958 19.6631 30.4327 19.9351 30.4327 20.2702V21.5434ZM32.8436 22.1506C33.1678 22.1506 33.4309 21.8786 33.4309 21.5434V20.2702C33.4309 19.9351 33.1678 19.6631 32.8436 19.6631C32.5194 19.6631 32.2563 19.9351 32.2563 20.2702V21.5434C32.2563 21.8786 32.5194 22.1506 32.8436 22.1506ZM34.6665 22.1506C34.9907 22.1506 35.2538 21.8786 35.2538 21.5434V20.2702C35.2538 19.9351 34.9907 19.6631 34.6665 19.6631C34.3424 19.6631 34.0792 19.9351 34.0792 20.2702V21.5434C34.0792 21.8786 34.3424 22.1506 34.6665 22.1506ZM25.1822 20.3H20.142C19.8178 20.3 19.5547 20.572 19.5547 20.9071C19.5547 21.2423 19.8178 21.5143 20.142 21.5143H25.1822C25.5064 21.5143 25.7695 21.2423 25.7695 20.9071C25.7695 20.572 25.5064 20.3 25.1822 20.3Z" fill="#051328"/>
</svg>
