<svg width="40" height="40" viewBox="0 0 40 40" fill="none" xmlns="http://www.w3.org/2000/svg">
<g clip-path="url(#clip0_2744_29275)">
<path d="M1.75681 6.97428C1.75044 7.00414 1.74463 7.03417 1.7394 7.0644C1.62517 7.72471 1.80538 8.39648 1.939 9.03857C2.07775 9.70535 2.21611 10.3722 2.35397 11.0392C2.96076 13.975 3.55783 16.9129 4.13571 19.8551C4.7171 22.8151 5.27921 25.7794 5.81121 28.7496C6.33675 31.6837 6.83308 34.6237 7.28664 37.571C7.37449 38.1418 7.85848 38.4148 8.36296 38.1803C8.40746 38.1596 8.45304 38.1376 8.50404 38.1156C8.58812 38.0792 8.5494 37.9391 8.53695 37.8447C7.35404 28.8716 5.80856 19.1734 3.97579 10.3303C3.80699 9.51587 3.42705 8.83407 3.18261 8.04192C3.04731 7.60345 3.03361 7.03598 2.87879 6.57631C2.81452 6.38548 2.74912 6.19504 2.68136 6.00553C2.65677 5.93673 2.43583 5.52107 2.45315 5.49308C2.16528 5.95711 1.87147 6.43638 1.75681 6.97428ZM35.9123 7.26709C35.8569 7.26709 35.8008 7.25605 35.7471 7.23223C35.5302 7.13637 35.4287 6.87436 35.5197 6.64778C35.5851 6.48569 35.5347 6.10051 35.2746 5.60378C34.8925 4.8735 34.1311 4.06712 33.4151 3.93872C33.1833 3.89747 33.0275 3.66683 33.0669 3.42398C33.1068 3.18056 33.3308 3.01498 33.5582 3.05914C34.5919 3.24388 35.5402 4.25535 36.0216 5.17502C36.392 5.88206 36.4924 6.5281 36.3049 6.99404C36.2362 7.16484 36.0781 7.26709 35.9123 7.26709ZM21.2313 14.5228C21.6775 14.9657 22.0006 15.6158 22.3872 16.1164C21.9231 16.2453 21.4591 16.3743 20.9951 16.5033C20.5047 16.6396 20.673 16.2235 20.7573 15.892C20.8603 15.4868 21.082 14.9119 21.2313 14.5228Z" fill="#051328"/>
<path d="M35.9657 6.74668C36.4863 6.2672 36.9915 5.76933 37.4801 5.25421C37.7351 4.98539 37.9992 4.68278 38.0393 4.30615C38.0899 3.83188 37.7717 3.40781 37.4523 3.06748C37.0955 2.68716 36.6876 2.3206 36.1894 2.21085C35.6791 2.09842 35.1418 2.28131 34.7451 2.62283C34.4341 2.89062 33.9858 3.40633 34.141 3.86896C34.2982 4.3372 34.8741 4.54594 35.1526 4.9526C35.4869 5.44081 35.7709 6.18143 35.9657 6.74668ZM10.6807 34.4571C10.4968 34.7046 10.7768 35.0064 11.0028 35.132C17.9435 33.3726 25.3338 31.6151 32.3932 30.4874C32.5886 30.2261 32.7676 29.8838 32.5826 29.3957C30.0137 29.8839 27.0159 30.2728 24.447 30.761C19.7443 31.6547 15.1639 32.7218 10.6807 34.4571Z" fill="#051328"/>
<path d="M8.36308 38.1329C8.27712 38.1329 8.19227 38.1056 8.12018 38.0533C8.02202 37.9819 7.95714 37.8703 7.94105 37.746C7.0654 30.9057 6.1953 24.8776 5.35569 19.8301C5.3507 19.8022 5.34294 19.765 5.33961 19.7197C4.47338 14.541 3.697 10.6578 2.96775 7.84995C2.96553 7.84356 2.96387 7.83717 2.96221 7.83078L2.9428 7.76862L2.94501 7.76745C2.94058 7.7599 2.9367 7.75235 2.93281 7.74421C2.86682 7.60594 2.87126 7.4363 2.9489 7.30442C3.11582 7.02207 3.56668 7.05983 3.69534 7.34218C3.70809 7.36542 3.71918 7.3904 3.7275 7.41539L3.74802 7.47697L3.77575 7.56818C3.78018 7.58096 3.78407 7.59374 3.78739 7.60653C4.52551 10.4469 5.30966 14.3678 6.1831 19.5925C6.18753 19.6181 6.18975 19.6442 6.18975 19.6698C7.01716 24.6196 7.86785 30.499 8.7252 37.1581C15.7005 35.7231 22.8011 35.091 29.6715 34.4792L29.737 34.4734C29.5573 33.3498 29.3732 32.2042 29.1852 31.0405C29.1458 30.7976 29.3022 30.5676 29.534 30.5263C29.7597 30.4798 29.9854 30.6483 30.0248 30.8917C30.2405 32.2262 30.4512 33.5375 30.6559 34.8185C30.6797 34.9667 30.6309 35.1171 30.5261 35.2194C30.4274 35.3152 30.2915 35.3547 30.1595 35.3315L29.7436 35.3681C22.7994 35.9868 15.6184 36.6259 8.59433 38.0946L8.45791 38.1219C8.4263 38.1295 8.39469 38.1329 8.36308 38.1329ZM26.8011 14.4829C26.566 14.4829 26.3752 14.2859 26.3752 14.0396V14.0338C26.3752 13.7875 26.566 13.5876 26.8011 13.5876C27.0363 13.5876 27.227 13.7875 27.227 14.0338C27.227 14.2801 27.0363 14.4829 26.8011 14.4829Z" fill="#051328"/>
<path d="M10.9671 34.8326C10.8784 34.8326 10.7902 34.8035 10.7164 34.7472C10.6227 34.6757 10.5617 34.5676 10.5456 34.4491C10.5451 34.4462 10.5445 34.4433 10.544 34.4404L7.4473 22.4934L4.81036 13.4448L3.73951 10.1094C3.65189 9.84627 3.56371 9.58425 3.47498 9.32282L3.17663 8.45543C3.13337 8.33052 3.09178 8.21084 3.04298 8.08477C3.00638 7.98891 2.97255 7.8948 2.94094 7.8001C2.92707 7.75943 2.91487 7.71528 2.90323 7.67112C2.8938 7.63743 2.88604 7.60257 2.87273 7.57178C2.81339 7.43525 2.7596 7.28536 2.70802 7.13954L2.32926 6.11529C2.32704 6.10948 2.32149 6.09263 2.3165 6.07695C2.22001 5.95785 2.18951 5.79518 2.23665 5.64645C2.28489 5.49598 2.40523 5.38385 2.5533 5.35074C4.86582 4.84181 6.99644 4.40608 9.06662 4.01974C11.6298 3.53986 14.097 3.15119 16.6087 2.83107C18.7809 2.54756 21.0773 2.30704 23.6272 2.09557L24.8428 2.00029C25.0774 1.98867 25.2809 2.16819 25.297 2.41452C25.313 2.66027 25.1361 2.87349 24.9016 2.89033L23.6909 2.98561C21.1572 3.19534 18.8735 3.4347 16.7129 3.71647C14.2157 4.03484 11.764 4.42119 9.21635 4.89816C7.30866 5.25429 5.34995 5.65226 3.24317 6.11122L3.50604 6.82814C3.55096 6.95421 3.59698 7.08435 3.648 7.20228C3.6785 7.27316 3.70124 7.34985 3.72232 7.42712L3.74505 7.50497C3.77223 7.58805 3.80162 7.66938 3.83267 7.75072C3.8848 7.88492 3.93028 8.01506 3.97741 8.15042L4.27743 9.02304C4.36672 9.2868 4.456 9.55114 4.54362 9.81606L6.42913 15.8291L9.70936 27.6291L11.2716 33.8159C16.1672 32.1996 21.3069 31.2422 26.2824 30.3155C27.3233 30.1215 28.3626 29.928 29.3963 29.7293C30.2098 29.5719 31.0234 29.4104 31.833 29.2442C30.5193 24.4408 29.0624 19.262 27.6527 14.2494L27.4093 13.385C27.3427 13.1485 27.4719 12.9004 27.6977 12.8307C27.9217 12.7627 28.1602 12.8969 28.2267 13.1328L28.4696 13.9973C29.9159 19.1394 31.4115 24.4565 32.7375 29.3186C32.7586 29.3813 32.7758 29.436 32.7891 29.4964C32.8179 29.6288 32.7874 29.7677 32.7064 29.874C32.626 29.9803 32.5035 30.0419 32.3737 30.0419C31.4648 30.2307 30.5082 30.4219 29.5504 30.6066C28.5145 30.8059 27.4742 30.9999 26.4316 31.194C21.3363 32.1433 16.0685 33.1245 11.0985 34.8111C11.0553 34.8256 11.0109 34.8326 10.9671 34.8326Z" fill="#051328"/>
<path d="M26.5441 9.14148C26.3594 9.14148 26.1892 9.01483 26.1348 8.81963C25.5492 6.70374 24.9747 4.62445 24.4229 2.61604C24.358 2.37959 24.4884 2.1321 24.7146 2.06412C24.9375 1.99673 25.176 2.13268 25.2414 2.36971C25.7932 4.37696 26.3678 6.45625 26.9534 8.57097C27.0188 8.80743 26.8885 9.05492 26.6628 9.12405C26.6229 9.13567 26.5829 9.14148 26.5441 9.14148Z" fill="#051328"/>
<path d="M20.0509 17.1972C19.9378 17.1972 19.8274 17.1495 19.7465 17.063C19.6433 16.9526 19.6023 16.794 19.6372 16.6441C19.8718 15.6512 20.2295 14.7705 20.6432 13.7515C20.8234 13.307 21.0153 12.8347 21.2122 12.3141C21.2416 12.2357 21.292 12.1683 21.3569 12.1183L34.3481 2.16519C35.4272 1.33731 36.9678 1.79976 37.7281 2.75081C38.1668 3.29982 38.3747 4.08762 38.2854 4.85914C38.2089 5.51738 37.9211 6.06814 37.4758 6.40917L24.7691 16.1445C24.7347 16.1706 24.697 16.1915 24.6566 16.206C23.7393 16.5378 22.5636 16.7423 21.5261 16.923C21.0087 17.013 20.5201 17.0984 20.1441 17.1861C20.113 17.1937 20.082 17.1972 20.0509 17.1972ZM21.9586 12.7626C21.7745 13.2437 21.5959 13.6841 21.4268 14.1006C21.1279 14.8379 20.8589 15.4996 20.6515 16.1735C20.8844 16.1299 21.1318 16.0869 21.3863 16.0428C22.3673 15.872 23.4759 15.6785 24.3194 15.384L36.9734 5.68877C37.2262 5.49472 37.392 5.16183 37.4397 4.75108C37.5007 4.22821 37.3604 3.68152 37.0748 3.32364C36.5735 2.6962 35.516 2.37608 34.8505 2.88559L21.9586 12.7626Z" fill="#051328"/>
<path d="M24.3603 16.2715C24.2638 16.2715 24.1673 16.2378 24.088 16.1681C23.9073 16.0106 23.8823 15.7294 24.0331 15.54C24.0947 15.4355 24.0764 14.9719 23.9732 14.6831C23.9111 14.5094 23.5856 14.2468 23.3932 14.2143C23.2307 14.1876 23.0982 14.065 23.0516 13.8994C22.9911 13.6833 22.8525 13.4892 22.6717 13.3666C22.4371 13.2069 21.9419 13.0349 21.7838 13.064C21.552 13.1011 21.3363 12.9263 21.3047 12.6817C21.2731 12.4377 21.4361 12.2128 21.6696 12.1797C22.1537 12.1118 22.8608 12.4319 23.1353 12.6172C23.4209 12.8112 23.6455 13.0866 23.7841 13.4079C24.2067 13.5793 24.631 13.9796 24.7707 14.3694C24.8755 14.6622 25.0851 15.6103 24.6875 16.1106C24.6038 16.2169 24.4823 16.2715 24.3603 16.2715Z" fill="#051328"/>
<path d="M23.8709 13.9047C23.7384 13.9047 23.6081 13.8403 23.5249 13.7194C23.3873 13.519 23.4306 13.2407 23.6214 13.0966C24.405 12.5058 25.2196 11.9004 26.0487 11.284C28.9341 9.14022 31.917 6.92382 34.4431 4.69406C34.6222 4.53546 34.8917 4.55928 35.0431 4.74751C35.195 4.93574 35.1718 5.21751 34.9921 5.37612C32.4389 7.63028 29.4409 9.85771 26.5417 12.0119C25.7137 12.6272 24.9013 13.2308 24.1194 13.8205C24.0439 13.8774 23.9569 13.9047 23.8709 13.9047ZM8.05816 10.3242C7.8624 10.3242 7.68605 10.1819 7.6428 9.97332C7.59233 9.7328 7.73818 9.49461 7.96777 9.44232L17.0226 7.37117C17.2472 7.31772 17.4796 7.47051 17.5295 7.71161C17.58 7.95272 17.4341 8.19033 17.2045 8.24262L8.14966 10.3138C8.11916 10.3207 8.08866 10.3242 8.05816 10.3242ZM8.56448 17.0437C8.36539 17.0437 8.18737 16.8967 8.14745 16.6841C8.10142 16.4424 8.2517 16.2077 8.4824 16.1601L17.2267 14.3503C17.4574 14.3033 17.6814 14.4596 17.7269 14.7012C17.773 14.9429 17.6227 15.1776 17.392 15.2253L8.64766 17.035C8.61993 17.0408 8.59165 17.0437 8.56448 17.0437ZM10.867 24.1856C10.6718 24.1856 10.4955 24.0438 10.4516 23.8352C10.4012 23.5947 10.5459 23.3565 10.7761 23.3037L24.4294 20.1472C24.6545 20.0944 24.8858 20.2454 24.9368 20.4871C24.9872 20.7276 24.8425 20.9658 24.6124 21.0187L10.9591 24.1751C10.9286 24.1821 10.8975 24.1856 10.867 24.1856ZM15.0323 27.7428C14.8282 27.7428 14.6475 27.5883 14.6131 27.3704C14.5743 27.127 14.7306 26.8975 14.9624 26.8569C16.3976 26.6047 17.8229 26.2288 19.1993 25.7391C19.4217 25.6583 19.664 25.7844 19.7394 26.0179C19.8154 26.2515 19.6962 26.5048 19.4732 26.5838C18.0536 27.0892 16.5834 27.4773 15.1033 27.7364C15.0795 27.7411 15.0556 27.7428 15.0323 27.7428Z" fill="#051328"/>
<path d="M4.13418 19.8553C5.27775 25.6775 6.37848 31.68 7.28509 37.5712C7.37296 38.142 7.85692 38.415 8.36143 38.1805C8.4185 38.1539 8.36655 38.1786 8.50624 38.1118C10.4033 37.8297 12.5668 36.8984 29.7413 35.3681L30.1572 35.3315C30.4564 35.3842 30.7017 35.1179 30.6535 34.8185C30.3114 32.6769 30.1896 31.9308 30.0216 30.8894C30.8153 30.749 31.6072 30.6129 32.3938 30.4873C32.5102 30.3316 32.6189 30.1463 32.6503 29.9197C32.6678 29.9031 32.69 29.8935 32.7048 29.8739C32.7858 29.7676 32.8163 29.6287 32.7875 29.4963C32.7742 29.4359 32.757 29.3813 32.7359 29.3185C31.41 24.4564 29.9143 19.1394 28.468 13.9972L28.3089 13.431L37.4741 6.40917C37.9194 6.06814 38.2072 5.51738 38.2837 4.85914C38.373 4.08762 38.1651 3.29982 37.7264 2.75081C36.9661 1.79976 35.4255 1.33731 34.3464 2.16519L26.7829 7.95992C26.2708 6.10983 25.7673 4.28718 25.2819 2.52205C25.3377 2.19661 25.089 1.98792 24.8412 2.0002C16.9374 2.71376 12.5729 3.14522 2.55171 5.35064C2.32601 5.40112 2.17582 5.63107 2.22157 5.87366C2.01895 6.22079 1.83899 6.58179 1.75525 6.97445C1.55216 7.93017 1.75436 7.73898 4.13418 19.8553ZM29.7346 34.4734C22.7048 35.0993 15.6726 35.7284 8.72286 37.1581C7.86838 30.5213 6.75558 22.6316 5.56214 16.0299L7.44571 22.4933C10.6939 35.0081 10.5291 34.5032 10.6231 34.6418C10.6302 34.8395 10.8318 35.0365 11.0034 35.1318C16.8989 33.6374 23.1171 32.1484 29.183 31.0415C29.3708 32.2048 29.555 33.3501 29.7346 34.4734ZM24.8963 14.9406C24.8273 14.3885 24.7023 14.0767 24.2649 13.7122C25.2744 12.9523 34.5748 6.09342 35.073 5.27076C35.1465 5.38194 35.2153 5.49356 35.273 5.60395C35.5331 6.10067 35.5836 6.48586 35.5181 6.64795C35.4946 6.70655 35.485 6.76734 35.4859 6.82718L24.8963 14.9406ZM20.6843 16.1674C20.6733 16.1694 20.6607 16.1715 20.6498 16.1735C20.6927 16.0341 20.7481 15.8936 20.796 15.7545C20.7648 15.8627 20.7092 16.058 20.6843 16.1674ZM22.227 15.8919C21.9127 15.4397 21.6219 14.9235 21.2484 14.5446C21.2732 14.4828 21.7133 13.3849 21.8372 13.0681C22.0284 13.0694 22.4546 13.2197 22.6706 13.3669C23.1563 13.6962 22.9511 14.1419 23.3921 14.2145C23.5845 14.247 23.9101 14.5096 23.9722 14.6833C24.0612 14.9323 24.0832 15.298 24.0492 15.4647C23.4945 15.6358 22.8621 15.7739 22.227 15.8919ZM33.4574 3.95167C33.8333 4.03315 34.2171 4.29517 34.5522 4.63199C34.1052 4.83367 34.5632 4.95865 26.0496 11.2841C25.8359 11.4429 23.7665 12.9789 23.6054 13.1157C23.3588 12.7483 23.1146 12.5379 22.5306 12.3231L33.4574 3.95167ZM24.5055 2.92132C25.0055 4.74041 25.5231 6.61425 26.0507 8.52084C21.1663 12.2925 21.2923 12.0958 21.2105 12.3141C20.5698 14.0082 19.9732 15.2149 19.6355 16.6441C19.6006 16.794 19.6416 16.9526 19.7448 17.063C19.8499 17.1754 20.0028 17.2201 20.1424 17.1861C20.9415 16.9997 24.3018 16.4985 24.7674 16.1445L27.5784 13.9908L27.6511 14.2493C29.0608 19.2619 30.5177 24.4407 31.8314 29.2441C24.9048 30.6656 17.923 31.6194 11.27 33.8158L9.70776 27.6291L6.42753 15.829L4.54203 9.81597C4.33802 9.19914 3.75312 7.50215 3.74568 7.47699L3.72516 7.41541C3.69375 7.32108 3.74881 7.51387 3.50444 6.82805L3.24158 6.11113C12.4063 4.11458 16.7244 3.63028 24.5055 2.92132Z" fill="#051328"/>
<path d="M8.14966 10.3139L17.2045 8.24271C17.4341 8.19042 17.58 7.95281 17.5295 7.7117C17.4796 7.4706 17.2472 7.31781 17.0226 7.37126L7.96777 9.44241C7.73818 9.4947 7.59233 9.73289 7.6428 9.97342C7.69244 10.2128 7.91831 10.3667 8.14966 10.3139ZM8.4824 16.1602C8.2517 16.2078 8.10142 16.4425 8.14745 16.6842C8.19282 16.9258 8.41707 17.0834 8.64766 17.0351L17.392 15.2254C17.6227 15.1777 17.773 14.943 17.7269 14.7013C17.6814 14.4597 17.4574 14.3034 17.2267 14.3504L8.4824 16.1602ZM10.867 24.1857C10.8975 24.1857 10.9286 24.1822 10.9591 24.1752L24.6124 21.0188C24.8425 20.9659 24.9872 20.7277 24.9368 20.4872C24.8858 20.2455 24.6545 20.0945 24.4294 20.1473L10.7761 23.3037C10.2805 23.4176 10.3615 24.1857 10.867 24.1857ZM19.1993 25.7392C17.8229 26.2289 16.3976 26.6048 14.9624 26.8569C14.7306 26.8976 14.5743 27.1271 14.6131 27.3705C14.6475 27.5884 14.8282 27.7429 15.0323 27.7429C15.0556 27.7429 15.0795 27.7412 15.1033 27.7365C16.5834 27.4774 18.0536 27.0893 19.4732 26.5839C19.6962 26.5049 19.8154 26.2516 19.7394 26.018C19.664 25.7845 19.4217 25.6584 19.1993 25.7392Z" fill="#051328"/>
</g>
<defs>
<clipPath id="clip0_2744_29275">
<rect width="38" height="38" fill="white" transform="translate(1 1)"/>
</clipPath>
</defs>
</svg>
