<svg width="32" height="32" viewBox="0 0 32 32" fill="none" xmlns="http://www.w3.org/2000/svg">
<g clip-path="url(#clip0_3734_19513)">
<path d="M4.6305 17.7854V29.0286C4.6305 30.4173 5.23719 31.2942 6.62781 31.3131C7.17485 31.3131 17.3809 31.941 17.9647 32.0011C18.5769 32.0642 19.235 32.1256 19.804 31.8716C21.2089 31.3624 22.6954 30.5321 24.7146 29.1256C25.2412 28.7421 25.55 28.1596 25.5612 27.5296C25.6123 25.3953 25.6192 23.0536 25.6305 20.7083C25.6904 20.7308 25.4134 20.627 26.2165 20.928C27.5189 21.4382 28.1278 20.8199 28.9844 19.633C29.6098 18.7658 30.4743 17.8018 31.1608 15.7799C31.5671 14.5676 31.0578 13.8997 30.1981 13.7761C28.7486 13.5709 26.8012 13.9481 25.075 14.3505C24.7881 14.3091 24.4987 14.2643 24.209 14.2189C27.0611 12.2702 27.7201 8.9004 26.4628 6.51284C25.1389 4.05627 21.9846 2.91744 19.0818 4.04548C19.0333 4.06637 17.6116 4.67843 17.6984 4.64106C16.0353 5.18984 14.5503 6.53608 13.9999 7.60648C13.1689 9.2276 12.9702 10.9796 13.763 12.6934C13.9088 13.0084 14.0865 13.3045 14.2857 13.584C14.0661 13.624 13.8513 13.6712 13.6399 13.7228C13.2257 13.0414 12.5678 12.0926 11.9131 11.4072C11.3757 10.8442 10.4914 10.1428 9.33038 9.99736C8.67736 9.91633 8.03133 10.0277 7.48653 10.1485C5.07269 10.684 2.82163 11.8212 0.976853 13.4371C0.679729 13.6983 0.353685 14.0142 0.254333 14.463C0.0873465 15.2158 0.719377 15.5272 0.926944 15.6294C1.73817 16.0293 1.53048 16.0773 3.48772 17.1435C3.8909 17.3631 4.30026 17.5873 4.6305 17.7854ZM13.5049 14.4803C13.4971 15.5116 13.6116 16.5378 13.845 17.5426L6.51609 17.2914C7.23978 16.9905 7.9686 16.6922 8.68715 16.401C12.7345 14.7616 12.5038 14.7589 13.5049 14.4803ZM18.0393 31.3035C17.4661 31.2451 7.25152 30.6123 6.59282 30.6123C5.85256 30.6324 5.34696 30.1864 5.34696 29.0286V17.953L20.17 18.4611C20.1798 29.1427 20.1519 28.1165 20.1887 28.9314C20.2327 29.8835 20.2837 30.9686 19.3677 31.2827C18.9868 31.3982 18.5085 31.3522 18.0393 31.3035ZM24.2934 28.5586C22.9115 29.521 21.7922 30.202 20.7801 30.6933C20.9563 30.1199 20.9315 29.4832 20.9047 28.8996C20.869 28.1493 20.8957 29.0881 20.8865 18.6808C22.2379 19.3106 23.4613 19.8871 24.9154 20.4376C24.9037 22.8602 24.8967 25.35 24.8447 27.5131C24.8447 27.5131 24.8447 27.5132 24.8447 27.5131C24.8447 27.5137 24.8448 27.5146 24.8447 27.5152C24.8373 27.9283 24.6344 28.3105 24.2934 28.5586ZM30.0945 14.4701C30.6656 14.5518 30.6727 14.9871 30.4803 15.56C29.8291 17.4792 28.9486 18.4673 28.3995 19.2283C27.4799 20.5018 27.1903 20.5545 26.4787 20.2754C22.8626 18.9042 24.6297 19.5812 21.2463 18.0718C22.6591 17.0934 23.8065 15.9139 25.2338 15.0341C26.2791 14.7896 28.5951 14.2579 30.0945 14.4701ZM14.6399 7.92149C16.2037 4.88086 21.0277 3.8542 23.5292 6.68981C26.242 9.77237 23.7497 14.8127 19.5679 15.3336C17.4885 15.5957 15.3218 14.3612 14.416 12.404C13.7137 10.8859 13.9045 9.35533 14.6399 7.92149ZM19.017 16.0689C20.3783 16.0689 21.3409 15.5696 22.4887 15.0759C22.7451 14.9942 22.997 14.8908 23.2452 14.7751C23.5413 14.8234 23.8381 14.8725 24.1325 14.9184C22.844 15.8392 21.7666 16.9197 20.4266 17.7683L14.5838 17.568C14.3197 16.5011 14.1961 15.4067 14.2202 14.3082C14.4095 14.27 14.6047 14.2391 14.8015 14.21C15.897 15.3648 17.4467 16.0689 19.017 16.0689ZM1.24879 15.0031C0.92088 14.8412 0.922279 14.7577 0.95493 14.6116C1.00857 14.3676 1.24133 14.1471 1.45496 13.9594C3.20878 12.4229 5.34929 11.3416 7.64512 10.8324C8.12789 10.7253 8.69462 10.6249 9.23989 10.6931C10.8698 10.8972 12.0693 12.5492 12.9281 13.9232C12.0017 14.2201 12.5749 14.0665 8.41335 15.7532C7.27482 16.2143 6.103 16.691 4.98389 17.1749C4.2566 16.7402 3.08583 16.1472 2.53431 15.7885C2.06505 15.4793 1.66617 15.2084 1.24879 15.0031Z" fill="#64748B"/>
<path d="M13.0862 22.1955C13.4155 20.7999 11.6277 19.9394 10.7046 20.888C10.6504 20.9528 10.4799 21.0918 10.3645 21.4016C10.1854 21.8805 10.2946 22.435 10.643 22.8144C11.4328 23.672 12.8367 23.2538 13.0862 22.1955ZM11.2261 21.3701C11.4406 21.1832 11.7946 21.1414 12.0456 21.28C12.3045 21.4219 12.4551 21.755 12.3884 22.038C12.2716 22.5338 11.5834 22.7876 11.1757 22.3453C10.9468 22.096 10.9108 21.6521 11.2261 21.3701ZM14.18 24.843C13.2318 25.7984 13.9895 27.3053 15.2575 27.2277C15.8746 27.1928 16.4227 26.7399 16.5617 26.1508C16.8835 24.7861 15.1427 23.8731 14.18 24.843ZM15.8639 25.993C15.7972 26.2761 15.5127 26.511 15.2165 26.5279C14.6964 26.5589 14.3449 26.0477 14.5121 25.5977C14.6697 25.1778 15.1819 25.05 15.5211 25.2349C15.7799 25.3769 15.9306 25.71 15.8639 25.993ZM15.5071 21.3363C15.3564 21.2119 15.1306 21.2288 15.0019 21.3767L11.1108 25.8672C10.983 26.0149 11.0017 26.2361 11.1524 26.3615C11.3064 26.4883 11.5316 26.4662 11.6575 26.3206L15.5486 21.8305C15.6764 21.6829 15.6577 21.4614 15.5071 21.3363ZM15.4912 29.4082L15.0229 29.3798C14.8298 29.3643 14.6553 29.5148 14.6432 29.7083C14.6311 29.9017 14.7817 30.0678 14.979 30.0797L15.4464 30.108C15.644 30.1201 15.814 29.9733 15.8266 29.78C15.8387 29.5867 15.6885 29.4203 15.4912 29.4082ZM18.587 29.5481C18.2396 29.5173 17.2455 29.5305 16.9367 29.5031C16.7403 29.4858 16.5654 29.628 16.5477 29.8206C16.53 30.0135 16.675 30.1843 16.8723 30.2016C17.2233 30.2324 18.2132 30.219 18.5217 30.2464C18.7283 30.2632 18.8936 30.1149 18.9112 29.9293C18.9289 29.7364 18.7838 29.5659 18.587 29.5481ZM17.6406 0.215308C17.4778 0.103913 17.2548 0.143175 17.1419 0.301822C16.5136 1.18111 16.2091 2.25512 16.2842 3.32616C16.2981 3.52409 16.4762 3.66739 16.6662 3.6519C16.8635 3.63866 17.0123 3.47133 16.9987 3.27822C16.9348 2.36651 17.1942 1.45207 17.7287 0.703575C17.8421 0.544928 17.8029 0.326247 17.6406 0.215308ZM15.2482 4.04018C15.424 3.95138 15.4931 3.74001 15.4026 3.56789L13.9477 0.801046C13.8577 0.629159 13.6422 0.56182 13.465 0.649704C13.2891 0.7385 13.2201 0.949877 13.3106 1.12199L14.7654 3.88884C14.8543 4.058 15.0682 4.12981 15.2482 4.04018ZM10.9247 4.70878C11.7368 4.23284 12.8511 4.26251 13.6362 4.78023C13.8014 4.88869 14.0235 4.84509 14.1334 4.68527C14.2439 4.5248 14.2006 4.3068 14.0364 4.1986C13.0139 3.52452 11.6165 3.48731 10.5572 4.10706C10.3874 4.20636 10.3319 4.42185 10.4336 4.58803C10.5352 4.75443 10.7559 4.80876 10.9247 4.70878ZM8.11021 12.2133C9.18303 12.0233 9.95024 12.4189 10.2363 12.9125C10.3328 13.0794 10.5512 13.1407 10.7246 13.0445C10.8967 12.9491 10.9569 12.7349 10.8594 12.5665C10.4224 11.8123 9.37613 11.2756 7.98241 11.5235C7.7879 11.558 7.6587 11.7404 7.69368 11.931C7.72866 12.1218 7.91851 12.2485 8.11021 12.2133ZM6.58355 12.6943C6.74167 12.6331 6.90026 12.5722 7.06025 12.5137C7.24543 12.446 7.33965 12.2442 7.27062 12.0627C7.20112 11.8814 6.99635 11.7897 6.8093 11.8568C6.64558 11.9166 6.48233 11.9794 6.32047 12.0419C6.13623 12.1131 6.0462 12.3168 6.11897 12.4969C6.19236 12.6791 6.40256 12.7646 6.58355 12.6943Z" fill="#64748B"/>
<path d="M18.1209 12.7317L17.8066 10.0345L17.9335 9.74605L18.0809 9.80815C18.3175 9.90789 18.5259 9.96978 18.7059 9.99382C18.8903 10.0197 19.0516 10.0022 19.1896 9.94118C19.3276 9.88016 19.444 9.766 19.5387 9.59869L18.2392 9.05106L18.4238 8.63145L19.7166 9.17625C19.7565 9.00135 19.7517 8.84387 19.7021 8.70382C19.6545 8.5594 19.5608 8.42927 19.4212 8.31345C19.2861 8.1995 19.1046 8.09454 18.8769 7.99856L18.7295 7.93646L18.9141 7.51685L21.6873 8.68549L21.5028 9.10511L20.2367 8.57159C20.3029 8.69793 20.3445 8.83203 20.3615 8.9739C20.3785 9.11578 20.3622 9.26697 20.3128 9.42748L21.197 9.80009L21.0125 10.2197L20.1416 9.85274C19.97 10.1586 19.7354 10.3551 19.4377 10.4421C19.1465 10.5266 18.8116 10.5176 18.4332 10.4152L18.8042 13.0196L18.1209 12.7317Z" fill="#64748B"/>
</g>
<defs>
<clipPath id="clip0_3734_19513">
<rect width="32" height="32" fill="white"/>
</clipPath>
</defs>
</svg>
