<svg width="32" height="32" viewBox="0 0 32 32" fill="none" xmlns="http://www.w3.org/2000/svg">
<g clip-path="url(#clip0_2400_91203)">
<g clip-path="url(#clip1_2400_91203)">
<path fill-rule="evenodd" clip-rule="evenodd" d="M24.6754 32H1.69661C0.755085 32 0 31.271 0 30.362V1.64253C0 0.729011 0.755085 0 1.69661 0H19.553C19.6835 0 19.7953 0.0540008 19.8746 0.130502L26.2136 6.2506C26.2928 6.3271 26.3487 6.4576 26.3487 6.5611V8.90564C26.3487 9.16664 26.1297 9.37365 25.8593 9.37365C25.5936 9.37365 25.3746 9.16664 25.3746 8.90564V6.76811L19.3619 0.913514H1.69661C1.2678 0.913514 0.941525 1.22402 0.941525 1.64253V30.3845C0.941525 30.803 1.2678 31.1135 1.69661 31.1135H24.6754C25.0809 31.1135 25.4305 30.776 25.4305 30.3845V19.8948C25.4305 19.6338 25.6449 19.4223 25.9153 19.4223C26.1856 19.4223 26.4 19.6338 26.4 19.8948V30.362C26.3487 31.271 25.5936 32 24.6754 32Z" fill="#64748B"/>
<path fill-rule="evenodd" clip-rule="evenodd" d="M25.4232 32H1.74802C0.777966 32 0 31.271 0 30.362V1.64253C0 0.729011 0.777966 0 1.74802 0H20.1455C20.2799 0 20.3952 0.0540008 20.4768 0.130502L27.0079 6.2506C27.0896 6.3271 27.1472 6.4576 27.1472 6.5611V8.90564C27.1472 9.16664 26.9215 9.37365 26.6429 9.37365C26.3692 9.37365 26.1435 9.16664 26.1435 8.90564V6.76811L19.9486 0.913514H1.74802C1.30621 0.913514 0.970057 1.22402 0.970057 1.64253V30.3845C0.970057 30.803 1.30621 31.1135 1.74802 31.1135H25.4232C25.841 31.1135 26.2011 30.776 26.2011 30.3845V19.8948C26.2011 19.6338 26.422 19.4223 26.7006 19.4223C26.9791 19.4223 27.2 19.6338 27.2 19.8948V30.362C27.1472 31.271 26.3692 32 25.4232 32Z" fill="#64748B"/>
<path fill-rule="evenodd" clip-rule="evenodd" d="M24.6754 32H1.69661C0.755085 32 0 31.271 0 30.362V1.64253C0 0.729011 0.755085 0 1.69661 0H19.553C19.6835 0 19.7953 0.0540008 19.8746 0.130502L26.2136 6.2506C26.2928 6.3271 26.3487 6.4576 26.3487 6.5611V8.90564C26.3487 9.16664 26.1297 9.37365 25.8593 9.37365C25.5936 9.37365 25.3746 9.16664 25.3746 8.90564V6.76811L19.3619 0.913514H1.69661C1.2678 0.913514 0.941525 1.22402 0.941525 1.64253V30.3845C0.941525 30.803 1.2678 31.1135 1.69661 31.1135H24.6754C25.0809 31.1135 25.4305 30.776 25.4305 30.3845V19.8948C25.4305 19.6338 25.6449 19.4223 25.9153 19.4223C26.1856 19.4223 26.4 19.6338 26.4 19.8948V30.362C26.3487 31.271 25.5936 32 24.6754 32Z" fill="#64748B"/>
<path fill-rule="evenodd" clip-rule="evenodd" d="M25.5309 7.02913H20.7653C19.7798 7.02913 18.9698 6.22361 18.9698 5.2066V0.468022C18.9698 0.28802 19.0733 0.130517 19.2578 0.0540159C19.4378 -0.0269854 19.6223 0.0270155 19.7528 0.157518L25.8459 6.25061C25.9764 6.38111 26.0259 6.58812 25.9494 6.74562C25.8684 6.92562 25.7154 7.02913 25.5309 7.02913ZM19.8833 1.56154V5.2066C19.8833 5.7016 20.2703 6.12011 20.7653 6.12011H24.4374L19.8833 1.56154ZM15.5587 12.5507H4.56957C4.31307 12.5507 4.10156 12.3437 4.10156 12.0827C4.10156 11.8217 4.31307 11.6147 4.56957 11.6147H15.5587C15.8197 11.6147 16.0267 11.8217 16.0267 12.0827C16.0267 12.3437 15.8197 12.5507 15.5587 12.5507ZM20.5313 12.5507H18.2408C17.9798 12.5507 17.7728 12.3437 17.7728 12.0827C17.7728 11.8217 17.9798 11.6147 18.2408 11.6147H20.5313C20.7923 11.6147 20.9993 11.8217 20.9993 12.0827C20.9993 12.3437 20.7923 12.5507 20.5313 12.5507ZM15.5587 8.59065H4.56957C4.31307 8.59065 4.10156 8.38365 4.10156 8.12264C4.10156 7.86164 4.31307 7.65463 4.56957 7.65463H15.5587C15.8197 7.65463 16.0267 7.86164 16.0267 8.12264C16.0267 8.38365 15.8197 8.59065 15.5587 8.59065ZM15.5587 4.66209H4.56957C4.31307 4.66209 4.10156 4.45058 4.10156 4.19408C4.10156 3.93308 4.31307 3.74857 4.56957 3.74857H15.5587C15.8197 3.74857 16.0267 3.95558 16.0267 4.19408C16.0267 4.42808 15.8197 4.66209 15.5587 4.66209ZM15.5587 16.4568H4.56957C4.31307 16.4568 4.10156 16.2498 4.10156 15.9888C4.10156 15.7278 4.31307 15.5208 4.56957 15.5208H15.5587C15.8197 15.5208 16.0267 15.7278 16.0267 15.9888C16.0267 16.2498 15.8197 16.4568 15.5587 16.4568ZM20.2703 16.4568H18.2678C18.0068 16.4568 17.7998 16.2498 17.7998 15.9888C17.7998 15.7278 18.0068 15.5208 18.2678 15.5208H20.2703C20.5313 15.5208 20.7428 15.7278 20.7428 15.9888C20.7428 16.2498 20.5088 16.4568 20.2703 16.4568ZM20.5313 28.067H5.61359C4.78107 28.067 4.10156 27.3919 4.10156 26.5594V21.0378C4.10156 20.2053 4.78107 19.5033 5.61359 19.5033H20.5088C21.3413 19.5033 22.0163 20.1783 22.0163 21.0378V26.5594C22.0433 27.3919 21.3638 28.067 20.5313 28.067ZM5.61359 20.4393C5.29858 20.4393 5.01508 20.7273 5.01508 21.0648V26.5864C5.01508 26.9239 5.27608 27.1849 5.61359 27.1849H20.5088C20.8463 27.1849 21.1073 26.9239 21.1073 26.5864V21.0378C21.1073 20.7003 20.8463 20.4123 20.5088 20.4123H5.61359V20.4393Z" fill="#64748B"/>
<path fill-rule="evenodd" clip-rule="evenodd" d="M10.3794 26.4784C10.3254 26.4784 10.2759 26.4784 10.2219 26.4559C9.98793 26.3749 9.88442 26.0914 9.96093 25.8574C10.1454 25.4119 10.2984 24.9979 10.4289 24.6334C11.4459 22.0008 11.734 21.1953 12.436 21.1953C13.111 21.1953 13.399 21.9513 14.2855 24.1609C14.4925 24.6559 14.6995 25.2049 14.9605 25.8304C15.064 26.0644 14.9335 26.3254 14.6995 26.4289C14.4655 26.5324 14.2045 26.4019 14.101 26.1679C13.84 25.5424 13.633 24.9709 13.426 24.4759C13.0345 23.4859 12.643 22.5229 12.409 22.1854C12.148 22.5769 11.734 23.6704 11.2389 24.9439C11.0814 25.3084 10.9239 25.7269 10.7709 26.1679C10.7169 26.3749 10.5594 26.4784 10.3794 26.4784ZM10.7169 22.0548H7.20238C6.94138 22.0548 6.73438 21.8478 6.73438 21.5868C6.73438 21.3258 6.94138 21.1188 7.20238 21.1188H10.7169C10.9779 21.1188 11.1849 21.3258 11.1849 21.5868C11.1849 21.8478 10.9779 22.0548 10.7169 22.0548Z" fill="#64748B"/>
<path fill-rule="evenodd" clip-rule="evenodd" d="M8.96801 26.4784C8.707 26.4784 8.5 26.2714 8.5 26.0104V21.5868C8.5 21.3258 8.707 21.1188 8.96801 21.1188C9.22901 21.1188 9.43601 21.3258 9.43601 21.5868V26.0374C9.41351 26.2714 9.20201 26.4784 8.96801 26.4784ZM15.6596 26.4784C15.5561 26.4784 15.4796 26.4559 15.3986 26.4019C15.1916 26.2444 15.1646 25.9609 15.2951 25.7764L18.5757 21.3258C18.7332 21.1188 19.0212 21.0918 19.2012 21.2223C19.4127 21.3753 19.4352 21.6633 19.3047 21.8478L16.0241 26.2984C15.9476 26.4289 15.8171 26.4784 15.6596 26.4784Z" fill="#64748B"/>
<path fill-rule="evenodd" clip-rule="evenodd" d="M18.9375 26.4784C18.807 26.4784 18.654 26.4289 18.573 26.2984L15.2924 21.8479C15.1394 21.6364 15.1889 21.3529 15.3959 21.2224C15.6074 21.0648 15.8909 21.1188 16.0214 21.3259L19.302 25.7764C19.4595 25.9879 19.41 26.2714 19.1985 26.4019C19.149 26.4559 19.0455 26.4784 18.9375 26.4784Z" fill="#64748B"/>
<path fill-rule="evenodd" clip-rule="evenodd" d="M13.6277 24.2419H11.2336C10.9726 24.2419 10.7656 24.0349 10.7656 23.7739C10.7656 23.5129 10.9726 23.3058 11.2336 23.3058H13.6277C13.8887 23.3058 14.0957 23.5129 14.0957 23.7739C14.0957 24.0349 13.8887 24.2419 13.6277 24.2419Z" fill="#64748B"/>
<path fill-rule="evenodd" clip-rule="evenodd" d="M25.5293 20.3628C22.2488 20.3628 19.5938 17.7078 19.5938 14.4227C19.5938 11.1422 22.2488 8.46014 25.5293 8.46014C28.8099 8.46014 31.4649 11.1197 31.4649 14.4002C31.4649 17.6808 28.8099 20.3628 25.5293 20.3628ZM25.5293 9.37366C22.7438 9.37366 20.5073 11.6372 20.5073 14.4002C20.5073 17.1588 22.7438 19.4493 25.5293 19.4493C28.3149 19.4493 30.5559 17.1858 30.5559 14.4227C30.5559 11.6642 28.3149 9.37366 25.5293 9.37366Z" fill="#64748B"/>
<path fill-rule="evenodd" clip-rule="evenodd" d="M24.0988 17.2128C23.9953 17.2128 23.8648 17.1588 23.7883 17.0823L21.9118 15.2057C21.7273 15.0257 21.7273 14.7377 21.9118 14.5532C22.0963 14.3732 22.3798 14.3732 22.5643 14.5532L24.1258 16.1193L28.4999 11.7452C28.6799 11.5607 28.9679 11.5607 29.1524 11.7452C29.3324 11.9252 29.3324 12.2132 29.1524 12.3932L24.4364 17.0823C24.3329 17.1588 24.2294 17.2128 24.0988 17.2128Z" fill="#64748B"/>
</g>
</g>
<defs>
<clipPath id="clip0_2400_91203">
<rect width="32" height="32" fill="white"/>
</clipPath>
<clipPath id="clip1_2400_91203">
<rect width="32" height="32" fill="white"/>
</clipPath>
</defs>
</svg>
