<svg width="32" height="32" viewBox="0 0 32 32" fill="none" xmlns="http://www.w3.org/2000/svg">
<path d="M15.6818 22.104C15.6829 22.4453 15.6898 22.7849 15.6938 23.1257C15.6518 23.1126 15.6097 23.1087 15.5679 23.0914C15.401 23.0225 15.2897 22.9341 15.2544 22.8421C15.1783 22.6431 14.9578 22.5472 14.7633 22.6225C14.2641 22.8219 14.5541 23.7093 15.7033 23.9313C15.7059 24.0696 15.7051 24.2091 15.7082 24.347C15.7129 24.5576 15.8818 24.7244 16.0872 24.7244C16.0902 24.7244 16.0931 24.7244 16.0961 24.7244C16.3055 24.7194 16.4714 24.543 16.4667 24.33C16.4637 24.1949 16.4645 24.0583 16.4619 23.923C17.379 23.7273 18.0552 22.8038 17.503 22.0929C17.1537 21.6429 16.8797 21.5682 16.4419 21.4738C16.4425 21.2113 16.4468 20.9501 16.4492 20.688C16.6431 20.7864 16.8096 20.9459 16.9079 21.1453C17.0018 21.3362 17.2299 21.4131 17.4168 21.3176C17.6042 21.2216 17.6798 20.99 17.5859 20.7996C17.3619 20.3446 16.9353 20.0076 16.4568 19.8777C16.4591 19.7351 16.4579 19.5912 16.4608 19.4489C16.465 19.2359 16.2986 19.0595 16.0892 19.055C15.8904 19.0299 15.7065 19.2203 15.7023 19.4328C15.6995 19.5728 15.7006 19.7146 15.6983 19.8549C14.7345 20.0458 14.2358 20.8594 14.5285 21.4593C14.7485 21.9085 15.2268 22.0103 15.6818 22.104ZM16.9079 22.5713C16.9381 22.61 16.9632 22.6557 16.9151 22.7487C16.8283 22.9161 16.6563 23.0543 16.4526 23.131C16.4491 22.8412 16.4437 22.5523 16.4424 22.262C16.463 22.2672 16.4839 22.2699 16.5045 22.2753C16.6657 22.318 16.7711 22.3954 16.9079 22.5713ZM15.341 20.8584C15.4405 20.762 15.562 20.6932 15.6909 20.6465C15.6888 20.8699 15.6855 21.0925 15.6847 21.3161C15.5119 21.279 15.2576 21.2172 15.2075 21.1151C15.1751 21.0452 15.2837 20.914 15.341 20.8584ZM4.63108 27.7257C4.60491 27.9372 4.75232 28.1302 4.96021 28.1568C5.17018 28.1831 5.35792 28.0317 5.38366 27.8222C5.50342 26.8514 5.46119 25.8751 5.25774 24.9194C5.2133 24.7118 5.01182 24.5812 4.80688 24.6239C4.6022 24.6691 4.47207 24.8746 4.51652 25.0832C4.70145 25.953 4.74022 26.8418 4.63108 27.7257ZM27.2497 17.9963C27.2171 18.2068 27.3584 18.4048 27.5653 18.4379C27.7809 18.4704 27.9674 18.3203 27.9989 18.1169C28.1352 17.238 28.0865 16.3195 27.8586 15.4613C27.8036 15.2548 27.5964 15.1311 27.3934 15.1894C27.1912 15.2447 27.0717 15.4567 27.1263 15.6623C27.3268 16.417 27.3692 17.224 27.2497 17.9963ZM24.434 4.46159L25.9947 4.26964C26.2026 4.24452 26.3507 4.05207 26.3258 3.84053C26.3009 3.62899 26.1142 3.47523 25.9038 3.50387L24.3431 3.69582C24.1352 3.72094 23.9871 3.91339 24.012 4.12493C24.0375 4.33974 24.2304 4.48789 24.434 4.46159ZM24.3705 1.17942C24.2165 1.03571 23.9762 1.04626 23.8347 1.20304L22.9123 2.22758C22.6871 2.47793 22.8676 2.87427 23.192 2.87427C23.4814 2.87427 23.5084 2.65056 24.3937 1.72461C24.5352 1.56733 24.5248 1.32363 24.3705 1.17942ZM21.5165 0.367923L21.4619 1.51507C21.4518 1.72812 21.6133 1.90901 21.8224 1.91906C22.0154 1.93417 22.209 1.77568 22.2194 1.55226L22.274 0.405106C22.2841 0.192559 22.1229 0.0116681 21.9138 0.00111614C21.7009 -0.0154656 21.5266 0.154873 21.5165 0.367923Z" fill="#64748B"/>
<path d="M1.75528 13.742C1.73386 14.4801 1.714 13.1576 1.83759 18.7208C1.7777 19.1214 2.07705 19.3651 2.16602 19.7061C2.09198 30.1107 2.10766 28.1512 2.09671 28.8196C2.03504 29.3733 2.06005 30.1159 2.23313 30.5884C2.3944 31.0286 2.69764 31.3121 3.17823 31.5197C3.96502 31.8597 4.23651 31.7566 28.0806 31.97C28.8232 31.9767 29.6287 32.2529 29.8993 30.9897C29.9166 30.9588 29.9387 30.9326 29.9525 30.8981C30.0359 30.6876 29.9686 30.3799 29.9686 30.262C30.0635 19.1225 30.0881 19.9974 30.0495 19.8418C30.1406 19.7701 30.206 19.6608 30.2429 19.5533C30.2795 19.4458 30.2507 19.4613 30.2705 18.9644C30.2513 14.4805 30.1139 14.9577 30.1039 13.9199C30.0985 13.349 30.1354 13.144 30.0308 12.8852C30.0117 12.7367 29.9126 12.6168 29.7742 12.5709C29.5841 12.454 29.3588 12.4499 29.1505 12.4528C28.8597 12.4549 28.2897 12.4153 27.4449 12.394C26.2011 12.3604 24.9235 12.3553 23.6446 12.363L23.6655 11.3197C23.6696 11.1063 23.4995 10.9284 23.2823 10.9263L22.8598 10.9233C22.8536 10.7044 22.848 10.4854 22.8406 10.267C22.7758 8.37906 22.8188 8.04712 22.819 7.94558C22.8394 7.40844 22.8703 6.59594 22.0389 6.28792C21.2199 5.98463 20.406 6.10098 19.6205 6.11105C12.2258 6.20616 10.3188 5.92346 9.57993 7.11113C8.60076 8.07716 9.54426 9.33914 9.35881 10.4709C8.97291 10.404 8.60245 10.7076 8.45325 11.0626C8.30401 11.4228 8.31946 11.8292 8.34518 12.2203C7.08835 12.2612 6.60394 12.2877 5.46627 12.3341C4.86793 12.3138 4.32929 12.3168 3.4106 12.3938C2.62456 12.4067 2.19118 12.3664 1.93623 12.5818C1.60818 12.8589 1.76592 13.3761 1.75528 13.742ZM12.1248 11.5735L12.1127 12.1784L9.43955 12.198L9.45236 11.5539L12.1248 11.5735ZM11.4525 21.5994C11.7235 24.9424 15.9933 26.9297 18.7573 25.1061C19.8795 24.3647 20.5963 23.0403 20.7082 21.6616L28.1468 21.7104C28.3234 21.7104 28.4224 21.6003 28.4948 21.5129C28.5498 21.4674 29.0811 20.9299 29.2883 20.707C29.2422 28.1999 29.1488 30.5478 29.2354 30.6127C29.0676 31.0247 8.03013 30.6356 5.30918 30.5514C4.64287 30.5333 3.58935 30.6533 3.4171 30.1057C3.28601 29.6906 3.39295 29.1677 3.38368 28.6476L3.24016 20.668C3.42162 20.9206 3.60323 21.1729 3.78315 21.4265C3.89018 21.5772 4.10298 21.6295 4.26704 21.5516L11.4525 21.5994ZM13.4247 18.4644C15.4823 16.5372 19.2138 17.7346 19.8557 20.4411C20.2139 21.9511 19.573 23.6419 18.3317 24.4619C15.9689 26.0245 12.1599 24.1475 12.207 21.229C12.2233 20.211 12.6898 19.1518 13.4247 18.4644ZM29.2849 13.225C29.5872 17.3673 29.4897 19.2106 29.4897 19.3136C29.4371 19.3747 28.9918 19.9273 28.2945 20.6245C28.2708 20.6488 28.0106 20.9126 27.9825 20.9376L20.7029 20.8897C20.3749 17.1483 15.5301 15.4376 12.8974 17.9006C12.1086 18.6387 11.5803 19.7324 11.4625 20.8277L4.27031 20.7803C2.74568 18.6398 2.82585 18.8924 2.86085 18.4543C3.12012 12.9683 2.96109 13.6535 3.09024 13.2804C3.28361 13.0288 24.3725 13.1547 29.2849 13.225ZM12.8803 12.4065C12.8698 11.3014 12.9872 11.12 12.7951 10.9212C12.63 10.7521 12.4298 10.8203 12.2378 10.8026C12.2378 10.3782 12.2378 9.50627 12.2378 9.05414L20.1858 8.88995L20.2487 10.9046L19.8343 10.9016C19.6243 10.9016 19.4527 11.1197 19.4484 11.3298L19.4265 12.4292C17.3398 12.4776 18.8052 12.4298 12.8803 12.4065ZM22.8738 12.3005L20.2006 12.3196L20.2134 11.676L22.8859 11.6951L22.8738 12.3005ZM17.7468 6.8934C20.8875 6.88837 21.1105 6.76661 21.7706 7.01148C22.0374 7.11047 22.0711 7.30342 22.0477 7.91644C22.0504 8.85281 21.988 7.44948 22.0874 10.9177L21.24 10.9117C21.1577 8.49124 21.2923 8.63919 21.1403 8.32646C20.8287 7.68452 20.0113 7.86438 18.8505 7.84509C17.4084 7.8204 15.9208 7.79536 14.3515 7.82851C13.6122 7.84616 11.6705 7.72383 11.254 8.40284C11.1104 8.63737 11.1545 8.73764 11.2144 10.7952L10.2813 10.7883C10.2317 8.92266 10.2634 9.16607 10.1772 8.58775C9.91095 6.81286 10.2483 6.93138 17.7468 6.8934Z" fill="#64748B"/>
<ellipse cx="16.1029" cy="21.2229" rx="3.9779" ry="3.77211" fill="white"/>
<path d="M16.4038 21.5952C16.5814 21.4466 16.6829 21.24 16.7083 20.9754L16.4038 21.5952ZM16.4038 21.5952C16.242 21.73 16.0301 21.8194 15.7681 21.8634L16.4038 21.5952ZM16.1429 23.6133L16.1591 23.6416H16.1917H16.7464H16.8463L16.7945 23.5561L15.7994 21.915C16.0589 21.8686 16.2733 21.7772 16.4398 21.6385L16.4399 21.6384C16.6187 21.4887 16.7241 21.2849 16.7584 21.0316H17.4152H17.4714V20.9754V20.6274V20.5711H17.4152H16.7465C16.7285 20.4581 16.6942 20.3566 16.6429 20.2676C16.6095 20.2097 16.5709 20.1562 16.5271 20.1073H17.4152H17.4714V20.051V19.703V19.6467H17.4152H15.1641H15.1078V19.703V20.051V20.1073H15.1641H15.2837C15.4649 20.1073 15.6147 20.1269 15.7344 20.1645L15.7344 20.1645L15.7349 20.1646C15.8572 20.202 15.9508 20.2604 16.0189 20.3382L16.0189 20.3382L16.0197 20.3391C16.075 20.3996 16.1164 20.4764 16.1427 20.5711H15.1641H15.1078V20.6274V20.9754V21.0316H15.1641H16.1544C16.1355 21.1375 16.0969 21.2192 16.0414 21.28C15.974 21.3538 15.8791 21.4089 15.7529 21.443L15.7529 21.443L15.7526 21.4431C15.6285 21.4776 15.4727 21.4954 15.2837 21.4954H15.1641H15.1078V21.5517V21.791V21.8059L15.1152 21.8189L16.1429 23.6133Z" fill="#64748B" stroke="#64748B" stroke-width="0.112555"/>
</svg>
