<svg width="32" height="32" viewBox="0 0 32 32" fill="none" xmlns="http://www.w3.org/2000/svg">
<path d="M31.9708 28.8819C31.7971 28.4959 31.5976 27.9837 31.4281 27.5528C31.1319 26.7994 30.417 26.3128 29.6073 26.3128H29.5026C29.7645 25.8052 29.6808 25.1352 29.1369 24.8241C29.0058 24.7484 29.0084 24.7946 27.7444 24.7806C27.7449 24.7543 27.7427 24.8754 27.7493 24.5249C27.757 24.1728 27.5498 23.8518 27.2207 23.7062C27.0684 23.6392 26.9119 23.5014 26.7805 23.3178C26.4822 22.9018 26.5655 22.4804 26.5575 22.3703V13.1461C26.9104 12.7173 27.226 12.3844 27.6483 11.8749C29.0645 11.924 29.3739 11.5408 29.6303 10.5047C29.6668 10.3566 29.7035 10.2055 29.7567 10.0621C30.1005 9.13461 29.5147 8.86827 29.0439 8.65401C28.9424 8.60802 16.9254 2.7845 16.6744 2.63413C16.5157 2.53853 16.336 2.42969 16.1144 2.40536C15.5611 2.34741 15.0662 2.77707 14.7241 2.94486C6.15801 7.14065 3.20356 8.5987 3.02728 8.66895C2.69885 8.79949 2.39215 8.93245 2.31598 9.27844C2.26199 9.52728 2.27074 11.2777 3.07978 11.6972C3.42955 11.8788 3.85498 11.8463 4.24116 11.8299C4.66394 12.3461 4.95664 12.6798 5.33702 13.1445C5.33702 15.1837 5.33702 8.13088 5.33702 22.3703C5.33034 22.4615 5.42071 23.2836 4.7399 23.673C4.38509 23.8751 4.13883 24.2499 4.15048 24.7806C3.0048 24.7943 2.99052 24.7483 2.85869 24.8241C2.30572 25.1411 2.24403 25.8217 2.49733 26.3128H2.3894C1.57993 26.3128 0.865435 26.799 0.568795 27.5515C0.39793 27.9859 0.197492 28.5018 0.0284402 28.8836C-0.0671494 29.0983 0.0896544 29.3441 0.328068 29.3441H31.6718C31.9103 29.3441 32.0681 29.0974 31.9708 28.8819ZM9.6511 23.673C9.52028 23.5983 9.38754 23.4724 9.27678 23.3178C8.97776 22.9008 9.06189 22.4785 9.05377 22.3703V13.1445C9.25166 12.9027 9.96406 12.0567 10.154 11.8249H12.2947C13.305 14.7151 16.8206 15.8106 19.2311 13.6555C19.7791 13.1656 20.1706 12.6881 20.4672 11.8249H21.7406C22.1651 12.3432 22.4588 12.6779 22.8407 13.1445C22.8407 24.5684 22.8399 11.3447 22.8422 22.4881C22.8982 23.0533 22.5239 23.5536 22.177 23.7067C21.8486 23.8517 21.6411 24.1725 21.6488 24.5245C21.6499 24.5825 21.6525 24.7227 21.6538 24.7806H18.7198C18.7238 20.3286 18.7125 20.9022 18.7279 20.1205C18.7518 18.9095 18.8092 17.5387 17.9327 16.7529C17.3375 16.2198 16.648 16.175 16.0485 16.175C14.8411 16.1629 13.7323 16.1192 12.978 17.0965C12.6521 17.5195 12.4572 18.0607 12.3988 18.706C12.355 19.1915 12.3985 23.0001 12.4093 24.7806H10.2403C10.2518 24.2547 10.0095 23.8773 9.6511 23.673ZM5.99261 13.323H8.39823L8.3998 22.0425H5.99261V13.323ZM19.9524 11.2725C19.6839 12.2384 19.3517 12.6683 18.794 13.1668C18.3774 13.5395 17.914 13.8129 17.3902 13.9756C13.8187 15.0897 10.5597 10.1063 14.6332 7.69708C17.5743 5.8898 20.7081 8.54556 19.9524 11.2725ZM23.4963 13.323H25.9019L25.9035 22.0425H23.4963V13.323ZM13.0518 18.7649C13.0981 18.2532 13.2522 17.8148 13.4972 17.4969C14.0743 16.7494 15.0295 16.8205 16.0485 16.8306C16.6744 16.8306 17.1119 16.8976 17.4952 17.2412C18.2464 17.9151 18.0642 19.3907 18.0642 20.7292V24.7806H13.0649C13.0554 23.1944 13.0118 19.2048 13.0518 18.7649ZM26.9561 24.3059C27.0417 24.3439 27.0957 24.4242 27.0938 24.5108C27.093 24.5456 27.0944 24.4781 27.0879 24.7806H22.3103C22.3092 24.7325 22.3082 24.6843 22.3072 24.6363C22.3158 24.5849 22.2542 24.389 22.4416 24.3064C23.0368 24.0439 23.4708 23.3449 23.5023 22.6981H25.8974C25.9332 23.3736 26.3787 24.0517 26.9561 24.3059ZM3.38154 11.1151C3.02024 10.9277 2.91353 9.68947 2.94362 9.43893C3.00497 9.37029 3.33417 9.25925 3.4669 9.19393C15.85 3.10956 14.9085 3.61127 15.3468 3.34266C16.1215 2.87027 16.0482 3.06914 16.5489 3.31577C17.9079 3.98608 28.1472 8.94945 28.5505 9.14741C29.2041 9.46333 29.2982 9.41245 29.1421 9.83416C28.8956 10.4979 28.9656 11.0683 28.425 11.1778C27.8549 11.2933 27.278 11.1771 26.5926 11.1713L26.5816 10.6289C26.5782 10.4479 26.4281 10.3049 26.2472 10.3075C26.0662 10.3113 25.9223 10.4607 25.926 10.6417L25.9368 11.1693H25.0663C25.0698 10.9402 25.0531 10.6595 25.1018 9.09449C25.1075 8.91351 24.9654 8.76242 24.7844 8.75644C24.6062 8.76498 24.4522 8.89303 24.4466 9.074C24.4033 10.4424 24.4115 11.1227 24.4108 11.1693H23.7569V8.37273C23.7569 8.19176 23.61 8.04493 23.4291 8.04493C23.2481 8.04493 23.1013 8.19176 23.1013 8.37273V11.1693H20.6476C21.2598 7.8265 17.5536 5.13507 14.2947 7.13538C12.8134 8.01136 11.8534 9.48443 12.1183 11.1693H8.94813V8.37273C8.94813 8.19176 8.8013 8.04493 8.62033 8.04493C8.43936 8.04493 8.29253 8.19176 8.29253 8.37273V11.1693H7.63859C7.63448 10.8972 7.65209 10.63 7.60279 9.074C7.59703 8.89303 7.44636 8.76541 7.26496 8.75644C7.08399 8.76242 6.94186 8.91351 6.94762 9.09449C6.99839 10.7275 6.97937 10.9265 6.98305 11.1693H6.11266L6.12343 10.6417C6.12706 10.4607 5.98322 10.3113 5.80225 10.3075C5.62576 10.3062 5.47168 10.4479 5.46784 10.6289L5.45679 11.1693C4.32826 11.1731 4.4551 11.162 4.11866 11.1782C3.85467 11.1915 3.55611 11.2055 3.38154 11.1151ZM4.8052 24.7114C4.80072 24.5159 4.90017 24.3362 5.06492 24.2423C5.60177 23.9353 5.96944 23.298 5.99859 22.6981H8.39369C8.42588 23.3044 8.7899 23.9362 9.32608 24.2423C9.49041 24.3362 9.58985 24.5159 9.58559 24.7114C9.58513 24.7343 9.58465 24.7575 9.58415 24.7806H4.80664C4.80613 24.7575 4.80565 24.7343 4.8052 24.7114ZM0.82254 28.6885C0.930559 28.424 1.04155 28.1406 1.17872 27.7922C1.37591 27.2915 1.85118 26.9684 2.3894 26.9684H29.6073C30.1457 26.9684 30.621 27.292 30.8182 27.7926C30.9318 28.0816 31.0543 28.3951 31.175 28.6885H0.82254Z" fill="#64748B"/>
<path d="M13.8044 20.6844C13.6234 20.6844 13.4766 20.8313 13.4766 21.0122V21.4416C13.4766 21.6226 13.6234 21.7694 13.8044 21.7694C13.9853 21.7694 14.1322 21.6226 14.1322 21.4416V21.0122C14.1322 20.8313 13.9853 20.6844 13.8044 20.6844ZM14.2508 10.3998C14.0698 10.3998 13.923 10.5466 13.923 10.7276C13.923 10.9086 14.0698 11.0554 14.2508 11.0554H14.2739C14.4548 11.0554 14.5901 10.9086 14.5901 10.7276C14.5901 10.5466 14.4318 10.3998 14.2508 10.3998ZM18.7997 10.3998C18.6187 10.3998 18.4719 10.5466 18.4719 10.7276C18.4719 11.1575 19.139 11.1721 19.139 10.7276C19.139 10.5466 18.9806 10.3998 18.7997 10.3998Z" fill="#64748B"/>
<path d="M16.6101 12.9389L15.4688 10.9462V10.6805H15.6016C15.815 10.6805 15.9941 10.6603 16.139 10.6201C16.288 10.5798 16.4047 10.5134 16.4893 10.4208C16.5738 10.3282 16.6241 10.2014 16.6402 10.0404H15.4688V9.65389H16.6342C16.606 9.50494 16.5497 9.38416 16.4651 9.29157C16.3806 9.19495 16.2659 9.1245 16.1209 9.08022C15.98 9.03593 15.8069 9.01379 15.6016 9.01379H15.4688V8.62732H17.9688V9.01379H16.8274C16.92 9.09028 16.9965 9.18086 17.0569 9.28553C17.1173 9.3902 17.1555 9.51299 17.1716 9.65389H17.9688V10.0404H17.1837C17.1555 10.3342 17.0428 10.5637 16.8456 10.7288C16.6523 10.8898 16.3947 10.9925 16.0726 11.0367L17.226 12.9389H16.6101Z" fill="#64748B"/>
</svg>
