<svg width="32" height="32" viewBox="0 0 32 32" fill="none" xmlns="http://www.w3.org/2000/svg">
<g clip-path="url(#clip0_2400_91209)">
<g clip-path="url(#clip1_2400_91209)">
<path d="M22.7884 0.346532C22.2369 0.0330527 21.5415 0.266378 21.2972 0.843754L20.9768 1.59989C17.5087 0.120281 13.804 0.514292 10.9218 2.19668C9.37245 1.11146 7.57794 1.01104 6.34483 1.48079V1.47987L6.24206 1.52107C1.64853 3.08987 0.869824 8.76331 5.22261 11.2438C4.99784 14.7514 6.56044 18.2629 8.66133 19.914C9.55982 20.7986 10.659 21.6091 11.8232 22.1459C11.7054 22.4513 11.6321 22.6534 11.6138 22.7026C11.4231 23.2174 11.6689 23.7988 12.1731 24.0271C12.9565 24.3813 13.781 24.6442 14.6214 24.8176C14.6378 25.1415 14.6632 25.3001 14.6702 25.6335C13.2892 25.6684 11.7116 25.7844 10.1842 26.2794C9.75019 26.4201 9.11089 26.6316 8.7999 27.0783C8.75106 27.1148 6.95138 28.4613 7.06521 28.3762C6.64981 28.7019 6.39488 29.1562 6.60595 29.6419C6.86058 30.228 7.78835 30.7192 9.36289 31.1012C14.9013 32.4441 19.7127 31.4345 20.6425 31.3563C22.0499 31.1325 24.2235 30.7117 24.2235 29.2859C24.2235 29.2845 24.2235 29.2831 24.2235 29.2817C24.2194 28.9419 24.0652 28.4544 23.3782 28.0789L21.8913 26.9393C21.3995 26.3248 20.24 26.132 19.5115 26.0021C18.5483 25.819 17.5443 25.7086 16.5174 25.6583C16.5184 25.3531 16.5268 25.2836 16.5307 25.0528C18.1077 25.1198 19.5389 24.876 20.7782 24.4169C25.7166 22.5877 29.3559 17.7299 29.6282 12.6039C29.886 7.75394 27.1374 2.82801 22.7884 0.346532ZM23.143 3.74601C22.003 3.75128 21.0365 3.75773 20.1868 3.76494C19.7904 2.87066 19.3579 2.16725 18.8912 1.65816C20.8113 2.09223 21.9629 2.81952 23.143 3.74601ZM20.8249 21.8433C20.2396 22.0896 19.9775 22.1987 18.7683 22.3749C19.4567 21.7146 19.9446 20.7748 20.3087 19.9015C21.457 19.9019 22.5598 19.9002 23.7085 19.8966C22.8848 20.6986 21.8909 21.3942 20.8249 21.8433ZM16.5445 1.40226C16.7627 1.40139 16.9809 1.40194 17.1984 1.41496C18.1343 1.62544 18.872 2.65704 19.4065 3.77202C17.3908 3.79164 16.1116 3.81338 14.1753 3.83452C14.6629 2.7846 15.4038 1.61972 16.5445 1.40226ZM13.4958 5.94376C13.4839 5.88797 13.4638 5.83875 13.4503 5.78418C13.5856 5.31865 13.715 4.95782 13.8719 4.54893C16.0954 4.52573 17.4169 4.50152 19.7173 4.48027C20.289 5.90138 20.6594 7.43538 20.853 8.98603C17.8107 9.02757 16.0623 9.06013 13.0652 9.10307C13.6025 8.0177 13.7064 6.82126 13.4958 5.94376ZM12.718 9.81936C15.5876 9.77897 17.8482 9.73809 20.9258 9.69624C21.0642 11.221 21.0481 12.5956 20.9094 14.073L12.7307 14.1034C12.61 12.6651 12.6074 11.2311 12.718 9.81936ZM26.8262 9.63994C27.1582 11.0204 27.2004 12.557 26.895 14.0508L21.6228 14.0703C21.7574 12.5929 21.7756 11.23 21.6394 9.68629C23.3265 9.66465 25.0538 9.64801 26.8262 9.63994ZM20.831 14.7844C20.6362 16.3666 20.3511 17.7888 19.8243 19.1905C17.5833 19.1884 15.9945 19.178 13.7809 19.1753C13.2033 17.6995 12.9711 16.291 12.8082 14.8142L20.831 14.7844ZM19.5321 19.901C18.7307 21.7049 17.7961 22.5713 16.7458 22.459C15.4898 22.3215 14.6303 21.0257 14.0861 19.8865C16.1332 19.8898 17.271 19.8983 19.5321 19.901ZM24.3678 19.1833C22.8758 19.1888 21.6498 19.1909 20.5827 19.1908C21.0849 17.7761 21.3668 16.3017 21.5483 14.7817L26.7212 14.7625C26.3372 16.1192 25.482 17.8665 24.3678 19.1833ZM26.6286 8.93007C24.9009 8.9386 23.2147 8.95484 21.5682 8.97605C21.3747 7.37816 21.0092 5.87263 20.4768 4.4737C21.4588 4.4658 22.595 4.45889 23.9686 4.45362C25.2547 5.74111 26.1138 7.21456 26.6286 8.93007ZM14.8692 1.54355C13.9919 2.38281 13.453 3.60367 13.0522 4.71878C12.6716 3.93837 12.1837 3.2767 11.5175 2.6739C12.508 2.13383 13.6311 1.74125 14.8692 1.54355ZM6.48974 2.18727C6.95869 1.99475 7.49765 1.92417 8.00872 1.92755C10.1506 1.98875 11.906 3.59251 12.6481 5.5544C14.1592 9.69824 8.47083 13.6749 4.4703 9.80672C1.80852 7.2127 3.10752 3.34313 6.48974 2.18727ZM11.9623 10.5977C11.9079 11.7587 11.9225 12.9306 12.0188 14.106L6.1429 14.1278C5.97007 13.3182 5.88558 12.4635 5.91607 11.5859C7.9577 12.4454 10.2635 12.1709 11.9623 10.5977ZM6.31769 14.8383L12.093 14.8168C12.2479 16.2558 12.4646 17.6488 13.0229 19.1747C11.876 19.1743 10.5497 19.1762 8.89715 19.1822C7.83575 18.2596 6.84993 16.7035 6.31769 14.8383ZM9.68144 19.8906C11.1076 19.8861 12.2807 19.8849 13.309 19.8856C13.7026 20.7781 14.1822 21.6376 14.8898 22.2915C12.9179 21.9834 11.3837 21.3738 9.68144 19.8906ZM19.5235 26.7266C19.9934 26.809 21.0944 27.0016 21.3634 27.4063C21.4134 27.4829 21.4028 27.5194 21.4097 27.5669C21.35 28.1274 19.7932 28.2892 19.2559 28.3757C16.0286 28.8938 13.3268 28.8701 11.0018 28.3053C9.88095 28.0299 9.51659 27.7507 9.41289 27.6447C9.33233 27.5613 9.34298 27.5424 9.36243 27.5081C9.51196 27.2447 10.0916 27.0567 10.4337 26.9461C11.8428 26.4893 13.3477 26.3784 14.6727 26.3447C14.6706 26.7043 14.6461 27.0312 14.8277 27.3248C15.1543 27.8531 15.8228 27.9144 16.261 27.5146C16.6062 27.2037 16.5057 26.8641 16.5182 26.3663C17.5004 26.416 18.4592 26.526 19.3814 26.7012L19.5235 26.7266ZM28.918 12.566C28.6606 17.4174 25.2115 22.0164 20.5309 23.7502C17.8936 24.7266 14.7955 24.4333 12.4661 23.3789C12.2981 23.303 12.218 23.1183 12.2805 22.9493C12.3454 22.7751 12.3905 22.6513 12.4803 22.4183C14.8602 23.2998 18.5152 23.5858 21.1004 22.4988C26.1019 20.3895 27.5241 14.7045 27.3853 15.032C27.3858 15.0304 27.387 15.0292 27.3874 15.0276C28.7726 10.2717 26.7134 4.47242 21.6234 1.89653L21.9518 1.12107C22.0295 0.936949 22.2548 0.859857 22.4356 0.964125C26.5573 3.31551 29.162 7.97801 28.918 12.566Z" fill="#64748B"/>
<path d="M7.85931 9.6L6.39844 7.01176V6.66667H6.56849C6.84159 6.66667 7.0709 6.64052 7.25641 6.58824C7.44707 6.53595 7.59651 6.44967 7.70472 6.32941C7.81293 6.20915 7.87734 6.04444 7.89795 5.83529H6.39844V5.33333H7.89022C7.85415 5.13987 7.78201 4.98301 7.6738 4.86275C7.56559 4.73726 7.41873 4.64575 7.23322 4.58824C7.05287 4.53072 6.83129 4.50196 6.56849 4.50196H6.39844V4H9.59844V4.50196H8.13757C8.25609 4.60131 8.35399 4.71895 8.43129 4.8549C8.50858 4.99085 8.55754 5.15033 8.57815 5.33333H9.59844V5.83529H8.59361C8.55754 6.21699 8.41325 6.51503 8.16076 6.72941C7.91341 6.93856 7.58362 7.0719 7.17138 7.12941L8.64771 9.6H7.85931Z" fill="#051328"/>
</g>
</g>
<defs>
<clipPath id="clip0_2400_91209">
<rect width="32" height="32" fill="white"/>
</clipPath>
<clipPath id="clip1_2400_91209">
<rect width="27.5556" height="32" fill="white" transform="translate(2.21875)"/>
</clipPath>
</defs>
</svg>
