<svg width="40" height="40" viewBox="0 0 40 40" fill="none" xmlns="http://www.w3.org/2000/svg">
<path d="M19.6003 27.63C19.6017 28.0567 19.6103 28.4811 19.6153 28.9071C19.5628 28.8907 19.5102 28.8859 19.458 28.8642C19.2493 28.7781 19.1101 28.6676 19.066 28.5527C18.971 28.3039 18.6953 28.184 18.4521 28.2782C17.8281 28.5273 18.1906 29.6366 19.6272 29.9142C19.6304 30.0869 19.6294 30.2614 19.6333 30.4338C19.6392 30.697 19.8503 30.9055 20.107 30.9055C20.1107 30.9055 20.1145 30.9055 20.1182 30.9055C20.3799 30.8992 20.5873 30.6788 20.5814 30.4124C20.5776 30.2436 20.5786 30.0729 20.5754 29.9038C21.7218 29.6592 22.567 28.5047 21.8768 27.6162C21.4402 27.0536 21.0977 26.9602 20.5504 26.8423C20.5512 26.5141 20.5565 26.1876 20.5595 25.8599C20.8019 25.983 21.0101 26.1824 21.133 26.4316C21.2502 26.6703 21.5354 26.7664 21.7691 26.647C22.0033 26.5271 22.0978 26.2375 21.9805 25.9995C21.7004 25.4307 21.1672 25.0095 20.569 24.8471C20.5719 24.6689 20.5705 24.489 20.574 24.3111C20.5793 24.0448 20.3712 23.8244 20.1095 23.8187C19.8611 23.7873 19.6311 24.0254 19.6259 24.291C19.6224 24.466 19.6238 24.6432 19.6209 24.8186C18.4161 25.0572 17.7928 26.0743 18.1586 26.8241C18.4336 27.3857 19.0315 27.5129 19.6003 27.63ZM21.133 28.2141C21.1706 28.2625 21.2021 28.3196 21.1419 28.4358C21.0334 28.6451 20.8184 28.8179 20.5638 28.9138C20.5595 28.5515 20.5526 28.1904 20.551 27.8275C20.5768 27.834 20.6029 27.8373 20.6286 27.8442C20.8302 27.8976 20.962 27.9943 21.133 28.2141ZM19.1743 26.0729C19.2986 25.9525 19.4505 25.8665 19.6117 25.8082C19.609 26.0874 19.6049 26.3656 19.6039 26.6452C19.3879 26.5987 19.0701 26.5215 19.0074 26.3939C18.9669 26.3065 19.1027 26.1426 19.1743 26.0729ZM5.7869 34.6571C5.75419 34.9215 5.93844 35.1627 6.19831 35.196C6.46077 35.2289 6.69544 35.0397 6.72763 34.7777C6.87732 33.5642 6.82454 32.3438 6.57022 31.1492C6.51467 30.8898 6.26282 30.7265 6.00665 30.7799C5.75079 30.8364 5.58814 31.0933 5.64369 31.354C5.87486 32.4412 5.92332 33.5523 5.7869 34.6571ZM34.0602 22.4953C34.0195 22.7585 34.196 23.006 34.4547 23.0474C34.7241 23.088 34.9573 22.9004 34.9966 22.6461C35.167 21.5475 35.1062 20.3994 34.8213 19.3266C34.7525 19.0684 34.4935 18.9139 34.2398 18.9868C33.9871 19.0559 33.8377 19.3209 33.9059 19.5778C34.1565 20.5212 34.2096 21.5299 34.0602 22.4953ZM30.5405 5.57699L32.4914 5.33705C32.7513 5.30565 32.9365 5.06509 32.9053 4.80066C32.8741 4.53623 32.6408 4.34404 32.3778 4.37984L30.4269 4.61977C30.1671 4.65118 29.9819 4.89173 30.0131 5.15616C30.0449 5.42467 30.286 5.60987 30.5405 5.57699ZM30.4612 1.47428C30.2686 1.29464 29.9683 1.30783 29.7915 1.5038L28.6384 2.78448C28.3569 3.09741 28.5826 3.59284 28.9881 3.59284C29.3498 3.59284 29.3835 3.3132 30.4902 2.15576C30.6671 1.95916 30.6541 1.65454 30.4612 1.47428ZM26.8937 0.459903L26.8255 1.89384C26.8128 2.16015 27.0147 2.38627 27.2761 2.39883C27.5173 2.41771 27.7593 2.2196 27.7724 1.94032L27.8406 0.506382C27.8532 0.240699 27.6517 0.0145851 27.3903 0.00139518C27.1242 -0.019332 26.9063 0.193592 26.8937 0.459903Z" fill="#051328"/>
<path d="M2.19605 17.1774C2.16928 18.1001 2.14445 16.447 2.29894 23.401C2.22408 23.9016 2.59827 24.2063 2.70948 24.6326C2.61693 37.6383 2.63653 35.1889 2.62284 36.0244C2.54576 36.7166 2.57702 37.6448 2.79337 38.2354C2.99495 38.7857 3.37401 39.14 3.97474 39.3996C4.95823 39.8246 5.29759 39.6957 35.1027 39.9625C36.031 39.9708 37.0379 40.3161 37.3761 38.7371C37.3978 38.6984 37.4253 38.6657 37.4425 38.6226C37.5469 38.3595 37.4626 37.9748 37.4626 37.8275C37.5814 23.9031 37.6121 24.9967 37.5638 24.8022C37.6777 24.7125 37.7594 24.5759 37.8056 24.4415C37.8514 24.3072 37.8153 24.3266 37.8401 23.7054C37.816 18.1005 37.6443 18.6971 37.6319 17.3998C37.625 16.6862 37.6712 16.43 37.5405 16.1065C37.5166 15.9208 37.3927 15.771 37.2197 15.7136C36.9821 15.5675 36.7005 15.5623 36.4401 15.5659C36.0765 15.5685 35.3641 15.519 34.308 15.4924C32.7533 15.4505 31.1564 15.4441 29.5578 15.4536L29.5838 14.1496C29.589 13.8829 29.3763 13.6604 29.1049 13.6578L28.5767 13.654C28.569 13.3805 28.5619 13.1067 28.5528 12.8337C28.4717 10.4738 28.5254 10.0588 28.5258 9.93192C28.5512 9.26049 28.5898 8.24486 27.5506 7.85984C26.5269 7.48073 25.5095 7.62616 24.5276 7.63875C15.2842 7.75763 12.9004 7.40426 11.9769 8.88885C10.7529 10.0964 11.9323 11.6739 11.7005 13.0885C11.2181 13.0049 10.755 13.3844 10.5685 13.8282C10.382 14.2784 10.4013 14.7865 10.4334 15.2753C8.86239 15.3265 8.25687 15.3596 6.83479 15.4176C6.08687 15.3922 5.41357 15.3959 4.2652 15.4922C3.28265 15.5083 2.74092 15.458 2.42224 15.7272C2.01217 16.0736 2.20936 16.7201 2.19605 17.1774ZM15.1579 14.4668L15.1429 15.223L11.8014 15.2475L11.8174 14.4423L15.1579 14.4668ZM14.3176 26.9992C14.6564 31.178 19.9936 33.6621 23.4485 31.3826C24.8513 30.4558 25.7474 28.8003 25.8872 27.0769L35.1855 27.1379C35.4063 27.1379 35.53 27.0004 35.6204 26.8911C35.6891 26.8341 36.3533 26.1623 36.6123 25.8837C36.5547 35.2498 36.438 38.1846 36.5463 38.2659C36.3364 38.7809 10.0396 38.2944 6.63843 38.1892C5.80555 38.1666 4.48865 38.3166 4.27333 37.6321C4.10947 37.1132 4.24313 36.4596 4.23156 35.8094L4.05216 25.8349C4.27898 26.1507 4.506 26.4661 4.73089 26.783C4.86468 26.9715 5.13068 27.0368 5.33575 26.9394L14.3176 26.9992ZM16.7828 23.0804C19.3548 20.6714 24.0192 22.1682 24.8215 25.5514C25.2694 27.4388 24.4682 29.5523 22.9165 30.5774C19.9631 32.5306 15.2018 30.1843 15.2606 26.5362C15.2811 25.2637 15.8642 23.9397 16.7828 23.0804ZM36.608 16.5311C36.9859 21.709 36.8641 24.0132 36.8641 24.1419C36.7984 24.2183 36.2417 24.9091 35.3701 25.7806C35.3404 25.811 35.0152 26.1407 34.9801 26.1719L25.8806 26.112C25.4706 21.4354 19.4146 19.2969 16.1236 22.3757C15.1377 23.2983 14.4774 24.6654 14.3301 26.0345L5.33984 25.9753C3.43406 23.2996 3.53426 23.6154 3.57802 23.0679C3.9021 16.2103 3.70331 17.0668 3.86475 16.6004C4.10646 16.2859 30.4676 16.4434 36.608 16.5311ZM16.1023 15.5081C16.0893 14.1267 16.2359 13.9 15.9958 13.6515C15.7895 13.4401 15.5392 13.5253 15.2992 13.5032C15.2992 12.9727 15.2992 11.8828 15.2992 11.3176L25.2342 11.1124L25.3129 13.6307L24.7949 13.627C24.5323 13.627 24.3178 13.8996 24.3125 14.1621L24.285 15.5364C21.6767 15.597 23.5085 15.5372 16.1023 15.5081ZM28.5942 15.3756L25.2527 15.3995L25.2688 14.5949L28.6093 14.6188L28.5942 15.3756ZM22.1854 8.61669C26.1113 8.61041 26.3901 8.4582 27.2152 8.76429C27.5487 8.88803 27.5908 9.12922 27.5616 9.89549C27.5649 11.066 27.487 9.31178 27.6112 13.6471L26.552 13.6396C26.4491 10.614 26.6174 10.7989 26.4273 10.408C26.0378 9.60559 25.0161 9.83042 23.565 9.8063C21.7625 9.77544 19.903 9.74415 17.9414 9.78557C17.0172 9.80764 14.5901 9.65472 14.0695 10.5035C13.89 10.7967 13.9451 10.922 14.0199 13.4939L12.8535 13.4854C12.7916 11.1533 12.8312 11.4575 12.7234 10.7346C12.3906 8.51601 12.8123 8.66416 22.1854 8.61669Z" fill="#051328"/>
<ellipse cx="20.1325" cy="26.5286" rx="4.97238" ry="4.71514" fill="white"/>
<path d="M20.5048 26.9939C20.7268 26.8082 20.8537 26.5499 20.8854 26.2191L20.5048 26.9939ZM20.5048 26.9939C20.2995 27.165 20.0296 27.2776 19.6951 27.3316L20.5048 26.9939ZM20.1908 29.5095L20.2071 29.5378H20.2397H20.9329H21.0329L20.9811 29.4524L19.7265 27.3834C20.0582 27.3268 20.3306 27.2123 20.5408 27.0372L20.5409 27.0371C20.7642 26.8502 20.895 26.5947 20.9357 26.2754H21.769H21.8252V26.2191V25.7841V25.7278H21.769H20.9211C20.8994 25.5832 20.8564 25.4541 20.7914 25.3414C20.7447 25.2605 20.6898 25.1866 20.6268 25.1199H21.769H21.8252V25.0637V24.6287V24.5724H21.769H18.9551H18.8988V24.6287V25.0637V25.1199H18.9551H19.1046C19.332 25.1199 19.5208 25.1445 19.6723 25.1921L19.6723 25.1921L19.6727 25.1922C19.8276 25.2396 19.9471 25.3138 20.0342 25.4134L20.0342 25.4134L20.035 25.4143C20.1093 25.4956 20.1637 25.5995 20.1967 25.7278H18.9551H18.8988V25.7841V26.2191V26.2754H18.9551H20.2096C20.1868 26.4177 20.1366 26.5278 20.0622 26.6094C19.9757 26.704 19.8545 26.7741 19.6948 26.8173L19.6945 26.8174C19.5378 26.8609 19.3416 26.8833 19.1046 26.8833H18.9551H18.8988V26.9396V27.2386V27.2536L18.9062 27.2666L20.1908 29.5095Z" fill="#051328" stroke="#051328" stroke-width="0.112555"/>
</svg>
