<svg width="88" height="77" viewBox="0 0 88 77" fill="none" xmlns="http://www.w3.org/2000/svg">
<path d="M3 7.35459C10.5718 4.03681 19.2253 2.6149 27.6084 3.08887C35.721 3.56284 43.0224 7.1176 50.3238 9.96142C61.6815 12.8052 73.8505 12.0943 84.397 7.35459" stroke="#334155" stroke-width="5.6082" stroke-miterlimit="10" stroke-linecap="round"/>
<path d="M3 17.3149C10.3014 14.4711 18.1436 12.5752 26.2563 13.0491C34.0985 13.5231 41.1295 16.1299 47.89 19.2107C59.7886 23.0025 73.3097 22.2915 84.397 17.3149" stroke="#334155" stroke-width="5.6082" stroke-miterlimit="10" stroke-linecap="round"/>
<path d="M3 27.5058C11.3831 23.7141 20.8478 22.2922 30.3126 23.4771C37.3436 24.425 43.0224 27.2689 49.2421 29.6387C60.5998 33.4304 73.5801 32.0085 84.397 27.5058" stroke="#334155" stroke-width="5.6082" stroke-miterlimit="10" stroke-linecap="round"/>
<path d="M3 76.1198L12.2755 7L67.4956 49.6185L3 76.1198Z" fill="#fedc60"/>
</svg>
