<svg width="37" height="34" viewBox="0 0 37 34" fill="none" xmlns="http://www.w3.org/2000/svg">
<path d="M19.0626 24.7365L15.5095 22.0347C13.912 20.8204 11.8799 20.3529 9.94184 20.7597L7.12867 21.3426C6.85264 20.6504 6.20073 20.1647 5.43724 20.1647H3.17026C2.16597 20.1647 1.34375 21.0147 1.34375 22.0529V29.1322C1.34375 30.1704 2.16597 31.0204 3.17026 31.0204H5.43724C6.15375 31.0204 6.77629 30.5833 7.07581 29.9519L13.8768 32.8479C14.4347 33.0847 15.0279 33.2062 15.6269 33.2062C15.809 33.2062 15.9911 33.194 16.1731 33.1697L27.8252 31.7187C28.4242 31.6458 28.9528 31.3301 29.3169 30.8322C29.6752 30.3344 29.822 29.7272 29.7222 29.114C29.546 28.0029 28.6063 27.1833 27.508 27.2197L19.7322 27.4262C19.8614 27.1347 19.9318 26.8129 19.9318 26.479C19.926 25.7869 19.6088 25.1494 19.0626 24.7365ZM4.89105 23.8562C4.89105 24.1901 4.62677 24.4633 4.30375 24.4633C3.98073 24.4633 3.71645 24.1901 3.71645 23.8562V23.0912C3.71645 22.7572 3.98073 22.484 4.30375 22.484C4.62677 22.484 4.89105 22.7572 4.89105 23.0912V23.8562ZM27.5433 28.434C28.0425 28.434 28.483 28.7983 28.5652 29.3083C28.6122 29.5937 28.5417 29.8729 28.3772 30.1037C28.2069 30.3344 27.9661 30.4801 27.6901 30.5165L16.0322 31.9615C15.4566 32.0344 14.8634 31.9554 14.3231 31.7247L7.26375 28.7254V22.5508L10.1709 21.9497C11.7918 21.6097 13.4833 21.9983 14.8106 23.0122L18.3696 25.714C18.6104 25.8962 18.7514 26.1815 18.7572 26.4912C18.7572 26.8069 18.6222 27.0922 18.3872 27.2804C18.2169 27.414 18.0231 27.4747 17.8234 27.4747L17.7706 27.4808C17.5709 27.4687 17.3712 27.3958 17.2068 27.2562L14.7225 25.1251C14.4758 24.9126 14.1058 24.949 13.8944 25.204C13.6888 25.4651 13.7241 25.8476 13.9707 26.0601L16.455 28.1912C16.7898 28.4765 17.1833 28.6344 17.5885 28.6769C17.6179 28.6829 17.6472 28.6951 17.6766 28.6951H17.7471C17.7706 28.6951 17.7882 28.7012 17.8058 28.7012C17.8469 28.7012 17.888 28.689 17.9291 28.689L27.5433 28.434ZM35.8242 0.796875H17.0893C16.7663 0.796875 16.502 1.07009 16.502 1.40402V20.7658C16.502 21.0997 16.7663 21.3729 17.0893 21.3729H35.8242C36.1472 21.3729 36.4115 21.0997 36.4115 20.7658V1.40402C36.4115 1.07009 36.1472 0.796875 35.8242 0.796875ZM35.2369 20.1587H17.6766V2.01116H23.3734V8.34973C23.3734 8.68366 23.6377 8.95688 23.9607 8.95688H28.9528C29.2758 8.95688 29.5401 8.68366 29.5401 8.34973V2.01116H35.2369V20.1587Z" fill="#051328"/>
<path d="M29.4327 18.5434C29.4327 18.8786 29.6958 19.1506 30.02 19.1506C30.3442 19.1506 30.6073 18.8786 30.6073 18.5434V17.2702C30.6073 16.9351 30.3442 16.6631 30.02 16.6631C29.6958 16.6631 29.4327 16.9351 29.4327 17.2702V18.5434ZM31.8436 19.1506C32.1678 19.1506 32.4309 18.8786 32.4309 18.5434V17.2702C32.4309 16.9351 32.1678 16.6631 31.8436 16.6631C31.5194 16.6631 31.2563 16.9351 31.2563 17.2702V18.5434C31.2563 18.8786 31.5194 19.1506 31.8436 19.1506ZM33.6665 19.1506C33.9907 19.1506 34.2538 18.8786 34.2538 18.5434V17.2702C34.2538 16.9351 33.9907 16.6631 33.6665 16.6631C33.3424 16.6631 33.0792 16.9351 33.0792 17.2702V18.5434C33.0792 18.8786 33.3424 19.1506 33.6665 19.1506ZM24.1822 17.3H19.142C18.8178 17.3 18.5547 17.572 18.5547 17.9071C18.5547 18.2423 18.8178 18.5143 19.142 18.5143H24.1822C24.5064 18.5143 24.7695 18.2423 24.7695 17.9071C24.7695 17.572 24.5064 17.3 24.1822 17.3Z" fill="#051328"/>
</svg>
