<svg width="40" height="40" viewBox="0 0 40 40" fill="none" xmlns="http://www.w3.org/2000/svg">
<g clip-path="url(#clip0_1688_27557)">
<path d="M36.7241 26.8753C36.7921 25.9494 36.7766 25.0064 36.58 23.8617C37.8677 23.0317 38.6366 21.4738 38.5952 19.6929C38.5628 18.2932 37.984 15.5576 36.0238 15.2236C35.3298 15.1066 34.725 15.315 34.1612 15.451C33.6653 15.5747 33.0099 15.7422 32.365 15.9702C32.3173 15.9246 32.2709 15.8787 32.2218 15.8332C34.8475 14.2126 33.4507 11.3902 30.5816 10.4396C31.6945 8.53373 32.4731 6.63698 32.9734 3.98781C33.0177 3.75468 32.877 3.52634 32.649 3.4608C29.9246 2.67618 27.1186 2.28197 23.8564 1.66788C21.4742 1.19645 20.736 0.757532 20.0581 1.15781C19.8033 1.07432 15.9413 0.684068 15.3461 0.632106C14.9751 0.603938 14.6167 0.763598 14.3796 1.03773C11.4862 2.34545 9.04481 3.68032 5.79166 5.2223C5.46247 5.36954 4.96538 5.59189 4.8364 6.10723C4.54784 7.18477 5.7496 7.03679 7.67796 9.96272C7.85094 10.2284 8.00513 10.5001 8.14882 10.7749C6.71061 11.1168 4.55845 12.2945 4.20943 13.8772C4.07798 14.4732 4.16263 15.3605 5.23873 16.2468C2.8843 18.1233 1.37479 20.6824 1.08775 23.37C0.396215 30.0123 4.23768 36.3605 10.8149 38.6291C15.9059 40.3959 21.7498 39.7678 26.1442 38.4079C29.9381 40.8723 35.4289 39.8508 37.7701 36.284C39.5905 33.5099 39.4907 29.6002 36.7241 26.8753ZM34.7561 16.2489C35.1018 16.1552 35.5043 16.0681 35.87 16.1298C37.1302 16.3446 37.6465 18.4422 37.6758 19.7138C37.7072 21.0506 37.2305 22.1947 36.3779 22.8902C35.8433 20.6716 34.7475 18.5168 33.0808 16.6972C33.5872 16.5394 34.0825 16.4176 34.7561 16.2489ZM31.4564 6.25081C30.2277 6.00165 29.5277 4.87984 29.7668 3.70332C30.5055 3.85965 31.25 4.02918 31.9861 4.22992C31.7144 5.502 31.6012 5.79318 31.4564 6.25081ZM28.8558 3.51609C28.5353 5.10156 29.4645 6.71701 31.157 7.13335C30.2376 9.5834 29.0072 11.1613 28.9886 11.2226C28.4542 12.0106 26.5263 14.2361 26.022 14.8004C25.9634 14.866 25.9351 14.9447 25.9204 15.0253C22.1635 16.0845 18.2413 16.3822 14.3737 15.9097C15.3247 14.8986 15.9024 14.4286 17.55 11.4276C18.7146 9.17208 18.9994 8.3641 19.5797 6.45704C21.3813 5.76255 22.8834 4.32804 23.6798 2.56999C26.6617 3.11964 27.1737 3.1867 28.8558 3.51609ZM28.6163 13.8317C28.4706 14.1584 27.9029 14.4056 27.4463 14.5673C27.5833 14.4076 28.3732 13.476 28.4254 13.4144C28.5791 13.581 28.661 13.7364 28.6163 13.8317ZM13.2474 14.4012C13.5963 11.9168 13.3351 13.7885 14.606 4.64519C15.8529 4.14762 16.8159 3.03774 17.134 1.73353C18.0419 1.83083 18.937 1.93381 19.4942 1.99898C19.4233 2.55563 19.561 2.06105 19.3186 3.42698C18.8472 5.9838 18.381 7.80559 16.7482 10.9778C15.03 14.1027 14.6684 14.217 13.2586 15.7684C13.1577 15.7522 13.0579 15.7267 12.9571 15.7094C13.0157 15.3211 13.1941 14.7946 13.2474 14.4012ZM20.4765 1.98091C20.6191 1.85354 20.7215 1.87914 22.765 2.36289C22.15 3.61952 21.1211 4.6725 19.8786 5.31619C20.6269 2.14623 20.2723 2.15456 20.4765 1.98091ZM16.21 1.63739C15.9844 2.4159 15.4498 3.10942 14.7597 3.54134L15.0086 1.75407C15.0248 1.64157 15.1341 1.53488 15.2683 1.54817C15.5551 1.57316 15.8752 1.60376 16.21 1.63739ZM14.0158 2.2179C13.8901 3.12067 12.3247 14.3618 12.3367 14.2755C12.2959 14.5779 12.1341 15.0611 12.0564 15.5329C11.7778 15.4761 11.0912 15.3752 10.452 15.1425C10.4616 15.0886 10.4644 15.0325 10.4534 14.9755C9.81516 11.6679 8.98856 10.0668 7.70785 8.43446C8.37387 7.47336 8.55601 6.19743 8.16663 5.0926C10.9255 3.72469 12.194 3.06654 14.0158 2.2179ZM9.19118 13.5331C9.27419 13.8516 9.34616 14.1622 9.4093 14.4573C9.11365 14.0818 9.1062 13.7877 9.19118 13.5331ZM6.09901 6.70577C5.92147 6.53883 5.73837 6.4335 5.72642 6.33797C5.7552 6.22327 6.01332 6.14784 7.3317 5.50413C7.55429 6.23102 7.46117 7.04256 7.08757 7.7032C6.88967 7.48273 6.67634 7.22356 6.09901 6.70577ZM5.10724 14.0753C5.33498 13.0419 6.95732 12.0055 8.34712 11.6718L8.56267 11.6637C8.78725 12.1852 8.78661 12.2198 8.86419 12.4496C7.8818 13.2352 8.00964 14.7898 9.38828 15.6521C9.93415 15.993 10.5524 16.1549 11.0899 16.2797C16.4729 17.526 22.099 17.2833 27.3558 15.5668C28.0073 15.3579 29.0981 15.0084 29.4525 14.2138C29.6802 13.7271 29.5182 13.1935 29.0197 12.7046C29.4642 12.158 29.7001 11.821 30.0786 11.2513C30.7231 11.4357 31.2825 11.718 31.7697 12.1231C32.3069 12.5679 32.8243 13.2879 32.6651 13.9786C32.4931 14.7517 31.5792 15.157 30.9123 15.4687C23.7634 18.5305 15.4212 18.9372 8.02511 16.5855C6.76417 16.1847 4.82145 15.3706 5.10724 14.0753ZM11.1154 37.7603C4.93464 35.6277 1.35596 29.6733 2.00202 23.4663C2.27233 20.9357 3.7465 18.5167 6.04698 16.7776C6.61428 17.0824 7.21432 17.2925 7.74649 17.4618C11.0127 18.5003 14.4576 19.0156 17.9094 19.0156C23.0368 19.0153 28.1125 17.7806 31.338 16.2846C34.4266 19.0322 35.8801 22.6967 35.8389 26.1065C34.3639 24.9925 33.3223 24.7386 31.4438 24.5368C25.8526 23.9536 21.244 29.1625 22.9859 34.3253C23.4395 35.6704 24.2182 36.8214 25.2331 37.7157C20.6051 39.009 15.6913 39.3476 11.1154 37.7603ZM37.0015 35.7795C34.0335 40.3015 25.8379 39.9059 23.857 34.0314C22.3319 29.5077 26.4121 24.9328 31.3466 25.4511C32.4539 25.5699 33.5276 25.7243 34.491 26.3034C38.4275 28.6751 38.9039 32.8806 37.0015 35.7795Z" fill="#051328"/>
<path d="M11.672 28.2069C12.4784 26.4573 12.8198 23.8706 11.0766 22.913C11.0869 22.2576 10.4025 22.0266 9.7294 21.8317C8.80989 21.5655 7.84943 21.3011 6.9129 21.5168C6.71654 21.562 6.6773 21.5745 6.62706 21.7116C6.58023 21.8394 6.5384 21.9495 6.46273 22.0615C5.33457 22.1143 4.37135 22.5295 4.14601 23.6221C3.93622 24.6408 3.37479 28.1097 4.94566 29.9795C6.41118 31.7229 10.0743 31.6733 11.672 28.2069ZM5.64954 29.3881C4.61227 28.1537 4.65776 25.6958 5.04621 23.8077C5.07674 23.6601 5.12941 23.5401 5.20722 23.4417C5.35992 23.248 5.60872 23.1309 5.90657 23.0604C6.00126 23.3289 6.35185 23.4061 6.65725 23.4667C10.0079 24.1315 10.1682 24.2091 10.4899 24.0934C10.6386 24.0399 10.7397 23.9438 10.8134 23.8305C11.8175 24.5937 11.3648 26.677 10.8371 27.8221C9.59807 30.5097 6.78966 30.7443 5.64954 29.3881ZM20.7938 35.7294C21.0359 35.6536 21.1708 35.3957 21.0951 35.1533C21.0191 34.9109 20.7617 34.775 20.519 34.8519C18.9272 35.3499 17.184 35.4696 15.4787 35.1976C15.2294 35.1569 14.9924 35.328 14.9523 35.5791C14.9125 35.8299 15.0831 36.0654 15.3339 36.1055C17.2338 36.4086 19.1215 36.2528 20.7938 35.7294ZM13.1349 34.5619C12.2969 34.2345 11.5101 33.8101 10.7961 33.3011C10.5899 33.1536 10.302 33.2017 10.155 33.4082C10.0075 33.615 10.0554 33.902 10.2622 34.0493C11.0379 34.6026 11.8917 35.0632 12.8003 35.4184C13.0393 35.5107 13.3041 35.3925 13.3958 35.1575C13.488 34.921 13.3713 34.6544 13.1349 34.5619Z" fill="#051328"/>
<path d="M32.3501 35.8375L29.6 33.0683L29.4832 32.6321L29.7013 32.5737C30.0515 32.4798 30.3367 32.368 30.5569 32.2381C30.7837 32.1065 30.9462 31.9461 31.0442 31.757C31.1423 31.5678 31.1691 31.3375 31.1247 31.066L29.2016 31.5813L29.0316 30.9469L30.9448 30.4343C30.833 30.2021 30.6874 30.0287 30.5079 29.9139C30.3266 29.7925 30.1073 29.7273 29.8499 29.7183C29.5991 29.7076 29.3052 29.7474 28.9682 29.8377L28.7501 29.8961L28.5801 29.2617L32.684 28.1621L32.854 28.7965L30.9805 29.2985C31.1661 29.3833 31.3315 29.4984 31.4767 29.6437C31.6218 29.7889 31.7386 29.9737 31.8271 30.1979L33.1355 29.8473L33.3055 30.4817L32.0169 30.827C32.0999 31.3218 32.0158 31.7481 31.7645 32.1058C31.5182 32.4551 31.1404 32.737 30.6312 32.9513L33.3612 35.5666L32.3501 35.8375Z" fill="black"/>
</g>
<defs>
<clipPath id="clip0_1688_27557">
<rect width="38" height="40" fill="white" transform="translate(1)"/>
</clipPath>
</defs>
</svg>
