<svg width="40" height="40" viewBox="0 0 40 40" fill="none" xmlns="http://www.w3.org/2000/svg">
<g clip-path="url(#clip0_2744_24578)">
<path d="M0.760908 10.895C0.832948 11.0187 0.911292 11.1447 0.984607 11.2688C1.14927 11.5476 1.44166 11.7193 1.76043 11.7422C2.86879 11.8219 3.91546 11.9707 4.9582 12.0571C6.57255 16.5984 8.18694 21.1397 9.80129 25.6809C10.2199 26.8584 10.6741 28.0901 11.6055 28.908C12.4302 29.6323 13.5014 29.9165 14.6058 29.9893C13.1755 31.263 13.2414 33.4053 14.1302 34.4075C15.7603 36.2443 19.1523 35.1325 19.6835 32.746C19.9017 31.7676 19.57 30.7064 18.8399 30.0337C20.8803 30.0908 22.9352 30.1038 25.7118 29.9985C24.2648 31.269 24.3265 33.4252 25.2187 34.4312C25.7476 35.027 26.5714 35.2593 27.3573 35.2593C30.6882 35.2593 32.0484 31.5246 29.5866 29.7851C29.6548 29.7804 29.722 29.7771 29.7902 29.7721C30.8991 29.6914 31.8681 28.9001 32.2016 27.8019C33.4469 23.6907 34.3973 19.2239 34.9505 14.8841C35.034 14.2245 34.5418 13.6318 33.8906 13.6007C32.4666 13.5331 31.0199 13.4827 29.5714 13.4408C29.4746 12.4214 28.9344 11.4466 28.1134 10.853C27.3549 10.3039 26.172 10.0391 25.21 10.1685C25.0534 8.69819 24.7163 7.24283 23.5635 6.33985C22.3887 5.42037 20.5715 5.45717 19.2416 6.42829C18.2491 7.15367 17.3921 8.48496 17.0126 9.8253C15.8104 8.96236 14.183 8.72655 12.8138 9.30843C11.1479 10.0173 10.0447 11.8489 10.1664 13.6807C9.15716 13.7353 8.14733 13.7957 7.13863 13.8631C6.74859 12.7673 6.34747 11.627 5.9341 10.4369C5.87172 10.2582 5.70731 10.1371 5.52132 10.1329L0.972582 10.0368C0.460458 10.0699 0.362854 10.6862 0.760908 10.895ZM18.8102 32.5442C18.3388 34.6644 14.5427 35.3532 14.392 32.6285C14.2748 30.5437 16.6333 29.2518 18.2295 30.6999C18.7233 31.1469 18.9565 31.8883 18.8102 32.5442ZM27.2319 34.3452C26.8908 34.3315 26.2612 34.246 25.8834 33.8198C25.2219 33.0751 25.248 31.1079 26.8046 30.3419C27.6581 29.9216 28.598 30.0702 29.318 30.7224C30.7165 31.9917 29.712 34.4144 27.2319 34.3452ZM13.1589 10.1501C14.473 9.59157 16.1632 9.99997 17.0908 11.0999C17.2523 11.2916 17.5351 11.313 17.7222 11.1492C17.9091 10.9855 17.9307 10.7004 17.7722 10.5093C18.0121 9.23734 18.8313 7.8507 19.764 7.1691C20.7639 6.43779 22.1619 6.39208 23.0178 7.06285C24.0823 7.89583 24.2418 9.44408 24.3693 10.7663C24.3965 11.0574 24.6832 11.2452 24.9535 11.1551C25.7091 10.9058 26.9177 11.107 27.5945 11.5961C28.1775 12.0175 28.5736 12.6958 28.6723 13.4158C25.4264 13.3325 23.9316 13.4458 21.8355 13.3882C18.7069 13.3027 13.9151 13.4935 11.0584 13.6374C10.9553 12.2009 11.8531 10.7052 13.1589 10.1501ZM21.811 14.3C24.8747 14.3828 25.9468 14.1347 33.8492 14.5113C33.9774 14.5176 34.0793 14.6356 34.062 14.7671C33.5157 19.0565 32.5765 23.4711 31.3457 27.533C31.1207 28.2744 30.47 28.8087 29.7261 28.8627C24.1979 29.2669 18.9174 29.2669 14.0323 28.8627C13.3682 28.8087 12.784 28.3819 12.5083 27.7503C10.9848 24.2362 9.35236 20.0401 7.45754 14.7553C11.3262 14.5016 17.9511 14.1904 21.811 14.3ZM32.6418 9.51262L32.2622 11.6846C32.2136 11.9637 32.4245 12.22 32.7036 12.22C32.9164 12.22 33.1053 12.0651 33.1438 11.8437L33.5233 9.67289C33.5664 9.42477 33.4044 9.18793 33.1612 9.144C32.9193 9.10067 32.6849 9.26509 32.6418 9.51262ZM34.8561 12.9786C34.9896 12.9786 35.1208 12.9187 35.2094 12.8035L36.8786 10.6298C37.0308 10.4315 36.9964 10.1448 36.8016 9.98987C36.6046 9.83376 36.3241 9.86997 36.1731 10.0682L34.5039 12.242C34.2722 12.544 34.4893 12.9786 34.8561 12.9786ZM38.9547 13.6945L35.8939 14.2679C35.3156 14.3752 35.4694 15.2786 36.056 15.1643L39.1168 14.5908C39.3599 14.5457 39.5209 14.3077 39.476 14.0602C39.4311 13.8126 39.199 13.6452 38.9547 13.6945Z" fill="black"/>
<path d="M16.2564 20.5998H27.3175C27.5647 20.5998 27.7652 20.3956 27.7652 20.1439C27.7652 19.8922 27.5647 19.688 27.3175 19.688H16.2564C16.0092 19.688 15.8086 19.8922 15.8086 20.1439C15.8086 20.3956 16.0092 20.5998 16.2564 20.5998ZM24.3365 24.8547H19.3907C19.1435 24.8547 18.9429 25.0589 18.9429 25.3105C18.9429 25.5622 19.1435 25.7664 19.3907 25.7664H24.3365C24.5837 25.7664 24.7842 25.5622 24.7842 25.3105C24.7842 25.0589 24.5837 24.8547 24.3365 24.8547Z" fill="black"/>
</g>
<defs>
<clipPath id="clip0_2744_24578">
<rect width="40" height="31" fill="white" transform="translate(0 5)"/>
</clipPath>
</defs>
</svg>
