<svg width="40" height="40" viewBox="0 0 40 40" fill="none" xmlns="http://www.w3.org/2000/svg">
<path d="M20.0891 4.32959C17.0911 4.32959 14.6523 6.76914 14.6523 9.76635C14.6523 12.7636 17.0911 15.2031 20.0891 15.2031C23.0871 15.2031 25.5259 12.7636 25.5259 9.76635C25.5259 6.76914 23.0871 4.32959 20.0891 4.32959ZM20.0891 14.4264C17.5191 14.4264 15.429 12.3364 15.429 9.76635C15.429 7.19632 17.5191 5.10627 20.0891 5.10627C22.6591 5.10627 24.7492 7.19632 24.7492 9.76635C24.7492 12.3364 22.6591 14.4264 20.0891 14.4264Z" fill="#051328"/>
<path d="M28.0481 9.7668C28.0481 5.37695 24.477 1.80583 20.0871 1.80583C15.6973 1.80583 12.1261 5.37695 12.1261 9.7668C12.1261 14.1566 15.6973 17.7278 20.0871 17.7278C24.477 17.7278 28.0481 14.1566 28.0481 9.7668ZM20.0871 16.5627C16.3404 16.5627 13.2912 13.5142 13.2912 9.7668C13.2912 6.01939 16.3404 2.97085 20.0871 2.97085C23.8338 2.97085 26.8831 6.01939 26.8831 9.7668C26.8831 13.5142 23.8338 16.5627 20.0871 16.5627Z" fill="#051328" stroke="#051328" stroke-width="0.38834"/>
<path d="M22.417 7.81896C22.6314 7.81896 22.8053 7.64499 22.8053 7.43062C22.8053 7.21626 22.6314 7.04228 22.417 7.04228H20.087H19.3103C19.0959 7.04228 18.9219 7.21626 18.9219 7.43062C18.9219 7.64499 19.0959 7.81896 19.3103 7.81896H20.087C20.5972 7.81896 21.0267 8.1506 21.1844 8.60807H19.3103C19.0959 8.60807 18.9219 8.78205 18.9219 8.99641C18.9219 9.21077 19.0959 9.38475 19.3103 9.38475H21.1766C21.0128 9.82979 20.5879 10.149 20.087 10.149H19.3103C19.0959 10.149 18.9219 10.323 18.9219 10.5373C18.9219 10.5397 18.9227 10.5412 18.9235 10.5436C18.9219 10.6453 18.9584 10.747 19.0361 10.8239L21.3661 13.154C21.4423 13.2301 21.5417 13.2674 21.6411 13.2674C21.7405 13.2674 21.8399 13.2293 21.916 13.154C22.0675 13.0025 22.0675 12.7563 21.916 12.6049L20.2229 10.9117C21.0943 10.8503 21.8112 10.2197 21.9867 9.38397H22.417C22.6314 9.38397 22.8053 9.21 22.8053 8.99563C22.8053 8.78127 22.6314 8.60729 22.417 8.60729H21.9906C21.9323 8.31371 21.8042 8.04808 21.6302 7.81819H22.417V7.81896ZM18.9219 31.5139H17.7569V22.8322C17.7569 21.7495 17.2435 20.7118 16.383 20.054L10.6588 15.6836C10.1688 15.3015 9.55906 15.1306 8.93849 15.2083C8.45385 15.2673 8.01347 15.4762 7.66008 15.7978V8.9902C7.66008 7.70557 6.61467 6.66016 5.33004 6.66016C4.04541 6.66016 3 7.70557 3 8.9902V19.087V22.5821C3 24.1626 3.75493 25.6725 5.01937 26.6208L8.74743 29.4177C9.03946 29.6359 9.21344 29.9839 9.21344 30.3489V31.5139H8.04842C7.83405 31.5139 7.66008 31.6879 7.66008 31.9023V37.339C7.66008 37.5534 7.83405 37.7274 8.04842 37.7274H18.9219C19.1363 37.7274 19.3103 37.5534 19.3103 37.339V31.9023C19.3103 31.6879 19.1363 31.5139 18.9219 31.5139ZM9.21344 28.7955L5.48538 25.9987C4.41511 25.1972 3.77668 23.9195 3.77668 22.5821V19.087V8.9902C3.77668 8.13352 4.47336 7.43684 5.33004 7.43684C6.18672 7.43684 6.8834 8.13352 6.8834 8.9902V17.1453C6.8834 17.1912 6.89505 17.2339 6.90981 17.2743C6.89117 17.449 6.88728 17.6269 6.90903 17.8055C6.98514 18.423 7.29737 18.9736 7.78901 19.3581L12.6394 23.1087C12.9252 23.3293 13.0906 23.664 13.0922 24.0244L13.0945 24.4927C13.0953 24.7063 13.2693 24.8795 13.4828 24.8795C13.6972 24.9005 13.872 24.704 13.8712 24.4896L13.8689 24.0205C13.8658 23.4194 13.5908 22.8625 13.1147 22.4943L8.26511 18.7445C7.93813 18.4898 7.72998 18.1216 7.6795 17.71C7.62901 17.2991 7.74163 16.8914 7.99716 16.5636C8.25269 16.2366 8.62083 16.0292 9.03325 15.978C9.44334 15.9291 9.85342 16.0393 10.1843 16.298L15.9115 20.6707C16.581 21.1825 16.9802 21.9903 16.9802 22.8322V31.5139H9.99012V30.3489C9.99012 29.7408 9.69964 29.1598 9.21344 28.7955ZM18.5336 36.9507H8.43676V32.2906H9.60178H17.3686H18.5336V36.9507Z" fill="#051328"/>
<path d="M13.875 35.009C13.875 35.6513 14.3977 36.174 15.04 36.174C15.6823 36.174 16.205 35.6513 16.205 35.009C16.205 34.3667 15.6823 33.844 15.04 33.844C14.3977 33.844 13.875 34.3667 13.875 35.009ZM15.4284 35.009C15.4284 35.2226 15.2544 35.3973 15.04 35.3973C14.8257 35.3973 14.6517 35.2226 14.6517 35.009C14.6517 34.7954 14.8257 34.6206 15.04 34.6206C15.2544 34.6206 15.4284 34.7954 15.4284 35.009ZM34.8454 6.66016C33.5607 6.66016 32.5153 7.70557 32.5153 8.9902V15.7978C32.1619 15.4762 31.7215 15.2681 31.2369 15.2083C30.6194 15.1314 30.0074 15.3007 29.5204 15.6813L23.7924 20.054C22.9319 20.7118 22.4185 21.7503 22.4185 22.8322V31.5139H21.2535C21.0391 31.5139 20.8651 31.6879 20.8651 31.9023V37.339C20.8651 37.5534 21.0391 37.7274 21.2535 37.7274H32.127C32.3413 37.7274 32.5153 37.5534 32.5153 37.339V31.9023C32.5153 31.6879 32.3413 31.5139 32.127 31.5139H30.962V30.3489C30.962 29.9839 31.1359 29.6359 31.428 29.4177L35.156 26.6208C36.4205 25.6725 37.1754 24.1626 37.1754 22.5821V19.087V8.9902C37.1754 7.70557 36.13 6.66016 34.8454 6.66016ZM31.7386 36.9507H21.6418V32.2906H22.8068H30.5736H31.7386V36.9507ZM36.3987 22.5821C36.3987 23.9195 35.7603 25.1972 34.69 25.9987L30.962 28.7955C30.4758 29.1598 30.1853 29.7408 30.1853 30.3489V31.5139H23.1952V22.8322C23.1952 21.9903 23.5944 21.1825 24.2631 20.6715L29.9934 16.2964C30.3204 16.0409 30.729 15.9306 31.1414 15.9788C31.5546 16.0292 31.9227 16.2374 32.1775 16.5644C32.433 16.8921 32.5456 17.2991 32.4951 17.7108C32.4446 18.1224 32.2365 18.4905 31.9111 18.7445L27.0599 22.4951C26.5846 22.8633 26.3096 23.4194 26.3058 24.0221L26.3034 24.4904C26.3027 24.704 26.4751 24.8795 26.6902 24.8803H26.6918C26.9054 24.8803 27.0793 24.7071 27.0801 24.4935L27.0824 24.0259C27.084 23.6648 27.2494 23.33 27.5352 23.1095L32.3879 19.3581C32.8788 18.9744 33.191 18.4237 33.2664 17.8063C33.2881 17.6269 33.2842 17.4498 33.2656 17.275C33.2803 17.2339 33.292 17.1912 33.292 17.1453V8.9902C33.292 8.13352 33.9887 7.43684 34.8454 7.43684C35.702 7.43684 36.3987 8.13352 36.3987 8.9902V19.087V22.5821Z" fill="#051328"/>
<path d="M24.3603 33.8442C23.718 33.8442 23.1953 34.3669 23.1953 35.0093C23.1953 35.6516 23.718 36.1743 24.3603 36.1743C25.0026 36.1743 25.5254 35.6516 25.5254 35.0093C25.5254 34.3669 25.0026 33.8442 24.3603 33.8442ZM24.3603 35.3976C24.146 35.3976 23.972 35.2228 23.972 35.0093C23.972 34.7957 24.146 34.6209 24.3603 34.6209C24.5747 34.6209 24.7487 34.7957 24.7487 35.0093C24.7487 35.2228 24.5747 35.3976 24.3603 35.3976Z" fill="#051328"/>
<circle cx="20.0859" cy="9.76701" r="4.66008" fill="#051328"/>
<path d="M19.9149 12.8611L19.8957 12.8276L18.4774 10.3512L18.4686 10.3358V10.3181V9.98794V9.92136H18.5352H18.7002C18.9617 9.92136 19.1779 9.89665 19.3503 9.84875L19.3507 9.84863C19.5265 9.80114 19.6595 9.72413 19.7542 9.62037C19.8348 9.53212 19.8896 9.41306 19.9151 9.25907H18.5352H18.4686V9.1925V8.71223V8.64566H18.5352H19.9003C19.8638 8.5071 19.8046 8.39491 19.7242 8.30687L19.7232 8.30583L19.7232 8.30582C19.6277 8.19666 19.4966 8.11507 19.3262 8.063L19.3256 8.06285L19.3256 8.06284C19.159 8.01046 18.9511 7.98336 18.7002 7.98336H18.5352H18.4686V7.91679V7.43652V7.36995H18.5352H21.6419H21.7084V7.43652V7.91679V7.98336H21.6419H20.3911C20.458 8.0553 20.5165 8.13461 20.5664 8.22121M19.9149 12.8611L20.5664 8.22121M19.9149 12.8611H19.9534H20.7189H20.8371L20.7758 12.76L19.3941 10.4812M19.9149 12.8611L19.3941 10.4812M20.5664 8.22121C20.638 8.34524 20.6854 8.48707 20.7096 8.64566H21.6419H21.7084V8.71223V9.1925V9.25907H21.6419H20.7258C20.6802 9.61075 20.5355 9.89266 20.2888 10.099L20.2887 10.0991C20.0573 10.2919 19.7579 10.4183 19.3941 10.4812M20.5664 8.22121L19.3941 10.4812" fill="white" stroke="white" stroke-width="0.133145"/>
</svg>
