<svg width="40" height="40" viewBox="0 0 40 40" fill="none" xmlns="http://www.w3.org/2000/svg">
<g clip-path="url(#clip0_2744_17287)">
<g clip-path="url(#clip1_2744_17287)">
<path d="M3.78132 15.4695C3.61266 15.4703 3.48516 15.3101 3.52783 15.1469C3.93411 13.5931 4.66051 12.3744 5.75764 11.2924C6.97423 10.0927 8.13613 9.49106 9.66562 9.153C10.1704 9.04144 11.2387 8.97349 11.6314 9.21638C11.926 9.3986 11.2979 9.4324 11.0964 9.45697C10.7621 9.49775 10.2703 9.43715 9.94053 9.51353C9.29527 9.66298 8.67655 9.93427 8.10235 10.2627C6.96331 10.9143 6.14916 11.9191 5.34262 12.9344C5.0811 13.2636 4.84195 13.6194 4.71519 14.0203C4.66427 14.1813 4.6422 14.3827 4.76749 14.4959C4.86071 14.5802 4.99996 14.5812 5.12557 14.5776C8.27088 14.4873 11.4256 14.5009 14.5716 14.4389C14.8011 14.4344 15.0231 14.3543 15.2505 14.3854C15.4886 14.4179 16.4515 14.3548 16.6099 14.5355C16.7867 14.7374 16.5859 15.2477 16.2952 15.3571C16.0958 15.4322 15.285 15.4204 15.0737 15.4213C14.765 15.4226 14.4563 15.424 14.1476 15.4253C13.3296 15.4288 12.5115 15.4323 11.6935 15.4358C9.86549 15.4436 8.0375 15.4514 6.20951 15.4592L3.78132 15.4695ZM12.2968 7.62097C12.3425 7.63186 12.3846 7.65178 12.4193 7.68502C12.6752 7.92995 11.8311 8.25408 11.6831 8.311C10.2877 8.84759 8.54723 8.20274 7.99501 6.84229C7.44278 5.48184 8.15673 3.7247 9.55211 3.18812C9.69359 3.13371 10.8334 2.83555 10.6136 3.27857C10.5581 3.39041 10.2939 3.34006 10.1795 3.38995C9.66836 3.61269 9.15014 4.04326 8.8734 4.54674C8.56758 5.10313 8.50954 5.79781 8.7445 6.39044C8.96662 6.95067 9.44207 7.39789 10.0033 7.61032C10.7087 7.8773 11.2395 7.8208 11.9618 7.70674C12.0449 7.69362 12.2167 7.6019 12.2968 7.62097ZM24.0946 38.3787C23.9259 38.3794 23.7984 38.2193 23.8411 38.0561C24.2473 36.5023 24.9738 35.2835 26.0709 34.2016C27.2875 33.0018 28.4494 32.4002 29.9789 32.0622C30.4836 31.9506 31.5519 31.8827 31.9446 32.1256C32.2393 32.3078 31.6111 32.3416 31.4096 32.3662C31.0753 32.4069 30.5835 32.3463 30.2538 32.4227C29.6085 32.5722 28.9898 32.8435 28.4156 33.1719C27.2766 33.8235 26.4624 34.8282 25.6559 35.8435C25.3943 36.1728 25.1552 36.5286 25.0284 36.9295C24.9775 37.0905 24.9554 37.2919 25.0807 37.4051C25.174 37.4893 25.3132 37.4904 25.4388 37.4868C28.5841 37.3964 31.7389 37.4101 34.8849 37.3481C35.1144 37.3436 35.3363 37.2635 35.5638 37.2945C35.8018 37.327 36.7648 37.264 36.9231 37.4447C37.1 37.6465 36.8991 38.1569 36.6085 38.2663C36.4091 38.3414 35.5983 38.3296 35.3869 38.3305C35.0782 38.3318 34.7695 38.3331 34.4609 38.3345C33.6428 38.338 32.8248 38.3414 32.0067 38.3449C30.1787 38.3527 28.3507 38.3605 26.5228 38.3684L24.0946 38.3787ZM32.61 30.5301C32.6558 30.541 32.6978 30.561 32.7326 30.5942C32.9884 30.8391 32.1443 31.1633 31.9963 31.2202C30.6009 31.7568 28.8605 31.1119 28.3082 29.7515C27.756 28.391 28.47 26.6339 29.8653 26.0973C30.0068 26.0429 31.1467 25.7447 30.9268 26.1878C30.8713 26.2996 30.6072 26.2492 30.4927 26.2991C29.9816 26.5219 29.4634 26.9524 29.1866 27.4559C28.8808 28.0123 28.8228 28.707 29.0577 29.2996C29.2799 29.8599 29.7553 30.3071 30.3166 30.5195C31.022 30.7865 31.5528 30.73 32.275 30.6159C32.3581 30.6028 32.53 30.5111 32.61 30.5301Z" fill="#051328"/>
<path d="M8.45327 22.193C7.80358 26.7034 9.84247 31.4986 13.5415 34.16C17.2405 36.8213 22.4351 37.2304 26.5051 35.1808C26.4738 34.8626 26.5884 34.5852 26.5571 34.2669C24.4897 34.7333 21.949 35.1264 19.835 34.9765C16.6585 34.7512 13.6498 33.0777 11.6279 30.6174C9.60612 28.1571 8.48785 25.3773 8.45327 22.193ZM33.7296 27.1553C33.766 27.0567 33.7919 26.958 33.8179 26.8594C34.3163 25.037 34.4461 23.1057 34.1398 21.2314C33.6362 18.1993 31.9332 15.3438 29.3944 13.6149C29.9499 14.186 30.4484 14.7986 30.8897 15.4632C30.8949 15.4684 30.9001 15.4788 30.9053 15.484C32.1461 17.3219 32.9405 19.4661 33.1741 21.6779C33.3402 23.2303 33.226 24.8086 32.8522 26.3246L33.7296 27.1553ZM11.1577 8.44207C9.93512 8.44207 8.7724 7.7453 8.29243 6.60685C7.99474 5.90037 7.99798 5.12379 8.30268 4.42108C8.62356 3.68009 9.2335 3.11167 10.0203 2.82045C11.5881 2.23963 13.3704 2.97469 13.9955 4.45722C14.2932 5.16423 14.2899 5.94028 13.9852 6.64298C13.6644 7.38397 13.0544 7.95239 12.2676 8.24361C11.9036 8.37844 11.5277 8.44207 11.1577 8.44207ZM11.1372 3.44873C10.8611 3.44873 10.5801 3.49619 10.3083 3.59704C9.73505 3.80898 9.29282 4.21885 9.06254 4.75059C8.84898 5.24351 8.84683 5.78874 9.05607 6.28543C9.5107 7.3651 10.8244 7.89523 11.9796 7.46703C12.5529 7.25508 12.9951 6.84522 13.2254 6.31401C13.4389 5.82056 13.4411 5.27533 13.2318 4.77864C12.884 3.95298 12.0346 3.44873 11.1372 3.44873ZM4.81667 15.0932C4.69587 15.0932 4.581 15.0404 4.50226 14.9487C4.42244 14.8554 4.38793 14.7324 4.40788 14.6116C4.72175 12.7106 5.86668 11.4907 6.82878 10.6402C8.17486 9.45163 9.45084 8.89778 10.8449 8.89724C10.99 8.89778 11.1329 8.90317 11.2764 8.91557C12.5647 9.02937 13.804 9.58592 14.7667 10.4828C15.3486 11.0248 15.8064 11.6908 16.2071 12.579C16.4056 13.0191 16.5782 13.4839 16.7378 13.9219C16.7491 13.9531 16.7653 13.9898 16.7826 14.0281C16.8494 14.1807 16.933 14.3706 16.9314 14.5706C16.9298 14.7977 16.7464 14.9805 16.5199 14.9821L16.0103 14.9853L4.82045 15.0932H4.81667ZM10.8433 9.7256C9.64876 9.72614 8.57934 10.1996 7.37725 11.261C6.24904 12.2581 5.61483 13.1787 5.329 14.26L15.9418 14.1575C15.787 13.7326 15.6322 13.3189 15.4521 12.9198C15.0929 12.1244 14.7074 11.5597 14.202 11.0889C13.3737 10.3172 12.3086 9.83831 11.2041 9.7407C11.0844 9.73045 10.9641 9.72614 10.8433 9.7256Z" fill="#051328"/>
<path d="M31.4741 31.3513C30.2515 31.3513 29.0888 30.6545 28.6088 29.516C28.3111 28.8096 28.3144 28.033 28.6191 27.3303C28.94 26.5893 29.5499 26.0209 30.3367 25.7296C31.9045 25.1488 33.6868 25.8839 34.3119 27.3664C34.6096 28.0729 34.6063 28.8495 34.3016 29.5522C33.9808 30.2932 33.3708 30.8616 32.584 31.1528C32.22 31.2876 31.8441 31.3513 31.4741 31.3513ZM31.4536 26.3579C31.1775 26.3579 30.8965 26.4054 30.6247 26.5062C30.0515 26.7182 29.6092 27.128 29.379 27.6598C29.1654 28.1527 29.1632 28.6979 29.3725 29.1946C29.8271 30.2743 31.1408 30.8049 32.296 30.3762C32.8693 30.1643 33.3115 29.7544 33.5418 29.2227C33.7553 28.7297 33.7575 28.1845 33.5482 27.6878C33.2004 26.8622 32.351 26.3579 31.4536 26.3579ZM25.1331 38.0024C25.0123 38.0024 24.8974 37.9495 24.8187 37.8579C24.7389 37.7646 24.7043 37.6416 24.7243 37.5208C25.0382 35.6198 26.1831 34.3999 27.1452 33.5494C28.4918 32.3603 29.7678 31.8064 31.1613 31.8059C31.308 31.807 31.4509 31.8118 31.5944 31.8248C32.8817 31.9385 34.121 32.4951 35.0836 33.3919C35.6661 33.935 36.1239 34.601 36.5235 35.4882C36.7215 35.9266 36.8876 36.3732 37.0542 36.8305C37.0655 36.8629 37.0823 36.8995 37.0995 36.9384C37.1664 37.0904 37.25 37.2797 37.2484 37.4798C37.2467 37.7069 37.0634 37.8897 36.8369 37.8913L36.3267 37.8945L25.1369 38.0024C25.1358 38.0024 25.1342 38.0024 25.1331 38.0024ZM31.1581 32.6342C29.9657 32.6348 28.8963 33.1083 27.6937 34.1702C26.5654 35.1673 25.9312 36.0879 25.6454 37.1692L36.2582 37.0667C36.1029 36.6412 35.9481 36.2265 35.7685 35.829C35.4104 35.0346 35.0248 34.47 34.5184 33.9981C33.6906 33.2264 32.6255 32.7475 31.5205 32.6499C31.3992 32.6391 31.2789 32.6353 31.1581 32.6342Z" fill="#051328"/>
<path d="M32.959 26.7957C32.9202 26.7957 32.8802 26.7903 32.8409 26.7785C32.6219 26.7132 32.4968 26.4829 32.5621 26.2635C32.9013 25.1218 33.0631 23.9849 33.0431 22.8848C33.0221 22.0672 32.9331 21.2917 32.7778 20.5825C32.4035 18.7947 31.6436 17.1202 30.5796 15.7364C30.3639 15.449 30.1439 15.1858 29.8872 14.908C26.9167 11.7273 21.994 10.3262 17.9137 11.5051C17.211 11.7062 16.5407 11.9629 15.9205 12.2676C15.7145 12.3701 15.4664 12.2838 15.3661 12.0789C15.2652 11.8734 15.3494 11.6253 15.5548 11.5245C16.2187 11.1977 16.9354 10.9232 17.6851 10.7091C22.0496 9.44929 27.3174 10.9431 30.4944 14.3445C30.7721 14.6454 31.01 14.9291 31.2241 15.2144C31.2322 15.2251 31.2392 15.2354 31.2451 15.244C32.376 16.7136 33.1893 18.5041 33.5878 20.4094C33.7534 21.166 33.8488 21.9938 33.8715 22.8664C33.893 24.055 33.7194 25.2765 33.3559 26.4997C33.3025 26.6792 33.1375 26.7957 32.959 26.7957ZM20.8615 35.5399C20.2499 35.5399 19.6605 35.5016 19.1136 35.4218C15.3618 34.8809 12.0796 32.5964 10.1096 29.1535C8.11848 25.6735 7.80677 21.6465 9.25478 18.1055C9.63283 17.1898 10.4989 15.6501 11.0733 14.8751C11.2081 14.6923 11.4686 14.6513 11.6525 14.7889C11.8364 14.9248 11.8752 15.1842 11.7388 15.3681C11.2065 16.0869 10.3717 17.5705 10.0211 18.4205C8.67072 21.7226 8.96518 25.4852 10.8284 28.7421C12.6712 31.9622 15.7339 34.0978 19.2323 34.602C21.4671 34.9278 24.4527 34.5217 26.6589 33.593C26.8676 33.5051 27.1125 33.6022 27.2015 33.8141C27.2899 34.025 27.1912 34.2677 26.9804 34.3567C25.1856 35.1122 22.9006 35.5399 20.8615 35.5399Z" fill="#051328"/>
<path d="M15.181 18.3538C15.1158 18.3538 15.05 18.3501 14.9831 18.3414C13.7589 18.1942 13.0573 16.1551 13.0999 15.138C13.1091 14.9093 13.293 14.7114 13.5308 14.7416C13.7595 14.7508 13.9369 14.9439 13.9272 15.1725C13.8921 16.0198 14.5172 17.451 15.084 17.519C15.626 17.5934 16.1146 17.0477 16.3395 16.5186C16.4635 16.2279 16.5465 15.9157 16.6344 15.5851C16.7428 15.1779 16.855 14.7562 17.0529 14.3533C17.4623 13.5147 18.3737 12.8061 19.318 13.079C19.8023 13.2138 20.1372 13.56 20.4322 13.8653C20.5341 13.9699 20.6355 14.0756 20.7433 14.1705C21.4682 14.7988 22.6282 14.8862 23.4409 14.3717C24.2078 13.8863 24.6683 12.5073 24.389 11.5339C24.3259 11.3139 24.4526 11.0847 24.6727 11.0216C24.8927 10.9558 25.1213 11.0852 25.185 11.3052C25.5663 12.6319 24.9579 14.3922 23.8842 15.0717C22.7549 15.7857 21.2044 15.6687 20.1987 14.7945C20.0719 14.6828 19.9544 14.562 19.8368 14.4412C19.5828 14.1786 19.3633 13.9516 19.0926 13.8761C18.6045 13.7364 18.0523 14.1948 17.7966 14.7179C17.6343 15.0479 17.5372 15.4125 17.4348 15.7981C17.3431 16.1422 17.2487 16.4976 17.102 16.8427C16.772 17.6188 16.0617 18.3538 15.181 18.3538ZM18.6498 35.2332C18.488 35.2332 18.3343 35.1378 18.268 34.9792C18.1795 34.7684 18.2788 34.5257 18.4896 34.4372C19.2058 34.1363 20.0077 32.945 19.8152 32.1846C19.6227 31.4253 18.7943 30.8558 18.0226 30.9264C17.9261 30.9361 17.8301 30.9534 17.7335 30.9701C17.4865 31.0133 17.2072 31.0623 16.9079 31.0089C16.511 30.9372 16.1782 30.7037 15.9463 30.3343C15.6411 29.8478 15.5521 29.1829 15.715 28.5988C15.8611 28.0757 16.1372 27.6313 16.4047 27.201C16.5616 26.948 16.7105 26.7091 16.8302 26.4605C17.0961 25.9083 17.1878 25.1484 16.7617 24.7833C16.3977 24.4711 15.4367 24.3821 14.8521 24.5126C13.8452 24.7391 13.0347 25.1964 12.0553 26.0922C11.1876 26.886 10.8052 28.08 11.1261 28.9952C11.2016 29.2109 11.0878 29.4471 10.8721 29.5232C10.6547 29.5971 10.4196 29.4849 10.3441 29.2692C9.8431 27.839 10.5614 26.3359 11.4966 25.4806C12.5913 24.4797 13.5108 23.9652 14.6709 23.7047C15.3633 23.5483 16.6361 23.5861 17.301 24.1545C18.0636 24.8076 17.9886 25.9638 17.5766 26.8197C17.4375 27.1088 17.2703 27.3779 17.108 27.6383C16.861 28.0369 16.6269 28.4128 16.5131 28.8216C16.4139 29.1764 16.4683 29.6079 16.6479 29.8937C16.7542 30.063 16.8912 30.1639 17.0551 30.1935C17.2072 30.2216 17.3938 30.1881 17.5906 30.1542C17.7071 30.1337 17.8241 30.1137 17.9412 30.1024C19.1157 29.9848 20.3259 30.8283 20.6182 31.9813C20.9213 33.1791 19.8772 34.7527 18.81 35.2009C18.7577 35.223 18.7032 35.2332 18.6498 35.2332Z" fill="#051328"/>
<path d="M29.7366 24.7958C29.5112 24.7958 29.2911 24.7553 29.0867 24.6728C28.3878 24.3902 27.9855 23.5888 28.2082 22.9234C28.3134 22.6079 28.5232 22.3803 28.7081 22.1797C28.7712 22.1117 28.8343 22.0438 28.8915 21.972C29.0274 21.8027 29.0781 21.6021 29.0312 21.5433C29.0004 21.5045 28.9012 21.4667 28.7103 21.4748C28.1225 21.4958 27.5627 21.8022 26.9695 22.1257C26.2635 22.5113 25.5295 22.9115 24.6742 22.8667C23.4338 22.8042 22.3418 21.7169 22.1881 20.3924C22.0549 19.2454 22.5909 18.0179 23.5875 17.1896C24.4013 16.5133 25.4751 16.0959 26.7791 15.9497C28.7491 15.7297 30.7693 16.1719 32.4654 17.1987C32.6612 17.3174 32.7237 17.5719 32.6051 17.7677C32.487 17.9629 32.2335 18.0255 32.0361 17.9074C30.4959 16.9738 28.6607 16.5715 26.8718 16.7727C25.7469 16.8989 24.7945 17.2634 24.1171 17.827C23.333 18.4779 22.9096 19.4244 23.011 20.297C23.1173 21.2159 23.8825 21.9974 24.7163 22.0394C25.3386 22.0777 25.9394 21.7445 26.5725 21.3988C27.2235 21.0428 27.897 20.6756 28.6806 20.647C29.1148 20.6254 29.4664 20.7619 29.6778 21.0261C30.0337 21.4721 29.8644 22.0821 29.5387 22.4898C29.4691 22.576 29.3936 22.6591 29.317 22.7416C29.1698 22.9012 29.0425 23.0393 28.9934 23.186C28.9093 23.4373 29.1056 23.7868 29.3974 23.9049C29.7058 24.0289 30.1168 23.9626 30.4716 23.7301C30.593 23.6498 30.7068 23.5549 30.82 23.461C31.0552 23.2663 31.3216 23.0463 31.6608 22.9255C32.4401 22.6494 33.3542 23.0355 33.6999 23.7851C33.7959 23.9928 33.7053 24.2392 33.4976 24.3347C33.2884 24.4291 33.0435 24.3401 32.9481 24.1325C32.7847 23.7798 32.3031 23.577 31.938 23.7064C31.7368 23.7776 31.5481 23.934 31.348 24.099C31.2116 24.2123 31.074 24.325 30.9274 24.4215C30.5525 24.6685 30.1362 24.7958 29.7366 24.7958Z" fill="#051328"/>
<path d="M34.9769 14.4542C34.8092 14.4542 34.6512 14.3517 34.5891 14.185C33.5979 11.5333 31.7222 9.25696 29.3084 7.77552C26.895 6.29353 24.0135 5.65177 21.2027 5.96888C20.9816 5.98991 20.7702 5.83136 20.7449 5.60377C20.719 5.37619 20.8829 5.17126 21.11 5.14591C24.1063 4.80939 27.1717 5.49214 29.7419 7.06904C32.3122 8.64702 34.3092 11.0712 35.3646 13.8949C35.445 14.109 35.3361 14.3479 35.122 14.4277C35.074 14.4461 35.0249 14.4542 34.9769 14.4542Z" fill="#051328"/>
<path d="M9.24339 36.406C9.16304 36.406 9.0816 36.3828 9.01041 36.3337C5.0439 33.6237 2.99942 28.4557 4.03757 23.766C4.08718 23.5427 4.3083 23.4025 4.53156 23.451C4.75483 23.5006 4.89613 23.7217 4.84651 23.945C3.87956 28.3128 5.78381 33.126 9.47744 35.6499C9.6662 35.7788 9.71473 36.0365 9.58584 36.2253C9.50549 36.3429 9.37552 36.406 9.24339 36.406Z" fill="#051328"/>
<path d="M2.16813 26.3715C2.06997 26.3715 1.97182 26.337 1.89255 26.2669C1.72213 26.1148 1.70649 25.8527 1.85857 25.6817L4.35605 22.8785C4.44072 22.7836 4.56422 22.7248 4.69095 22.741C4.81823 22.7485 4.93417 22.8143 5.00644 22.9195L6.9328 25.7222C7.06224 25.9109 7.01478 26.1687 6.82602 26.2981C6.63727 26.4281 6.38003 26.3801 6.25006 26.1914L4.623 23.8239L2.47768 26.2329C2.39571 26.3246 2.28192 26.3715 2.16813 26.3715Z" fill="#051328"/>
<path d="M35.4593 15.0538C35.4242 15.0538 35.3892 15.0495 35.3546 15.0403L32.8135 14.3775C32.5924 14.3198 32.4597 14.0933 32.5174 13.8722C32.5751 13.6506 32.8032 13.5174 33.0227 13.5761L35.0866 14.1144L35.2705 11.8752C35.2888 11.6476 35.4825 11.4772 35.717 11.4966C35.9446 11.515 36.1145 11.715 36.0956 11.9432L35.8718 14.6736C35.8621 14.7955 35.7985 14.9066 35.6987 14.9778C35.6281 15.0279 35.5445 15.0538 35.4593 15.0538Z" fill="#051328"/>
<path d="M8.82121 3.6453C7.93488 4.41197 7.55303 5.74949 7.9964 6.84177C8.48914 8.05572 9.92674 8.69344 11.2224 8.43687C13.3878 8.39601 14.7841 6.32286 13.9987 4.45741C13.1673 2.48559 10.3643 1.92953 8.82121 3.6453ZM11.9828 7.46722C10.1469 8.14774 8.33711 6.43246 9.06572 4.75078C9.42641 3.91789 10.278 3.44892 11.1404 3.44892C12.0378 3.44892 12.8872 3.95317 13.235 4.77883C13.6732 5.81898 13.1533 7.03448 11.9828 7.46722ZM35.0835 33.3922C34.1209 32.4954 32.8816 31.9388 31.5943 31.825C31.4508 31.8121 31.3079 31.8073 31.1612 31.8062C30.3047 31.8065 29.4927 32.018 28.6813 32.4553C28.0077 32.7201 27.3916 33.0782 26.785 33.568C26.7428 33.5716 26.7001 33.5761 26.6592 33.5934C24.5761 34.4702 21.806 34.8728 19.6212 34.6418C20.333 33.9519 20.8438 32.8644 20.6201 31.9804C20.3278 30.8274 19.1176 29.9839 17.9431 30.1015C17.6668 30.1282 17.2831 30.2343 17.057 30.1926C16.5486 30.1006 16.3727 29.3296 16.515 28.8206C16.6288 28.4118 16.8629 28.036 17.1099 27.6374C17.2722 27.3769 17.4394 27.1078 17.5785 26.8188C17.9905 25.9629 18.0655 24.8067 17.3029 24.1536C16.638 23.5851 15.3652 23.5474 14.6728 23.7038C13.5127 23.9643 12.5933 24.4788 11.4985 25.4797C10.9258 26.0035 10.4379 26.7712 10.258 27.6152C8.52883 23.7592 8.79171 19.4556 11.6922 15.4352C11.7533 15.4349 11.7996 15.4348 13.1098 15.4292C13.1886 16.5002 13.8684 18.2062 14.985 18.3405C15.0519 18.3491 15.1177 18.3529 15.1829 18.3529C16.0636 18.3529 16.7739 17.6178 17.1039 16.8418C17.401 16.1429 17.4978 15.3285 17.7985 14.717C18.0542 14.1939 18.6064 13.7355 19.0945 13.8751C19.489 13.9852 19.7797 14.4229 20.2006 14.7935C21.2063 15.6677 22.7568 15.7848 23.8861 15.0707C24.8067 14.4881 25.3802 13.1119 25.286 11.8948C27.7586 12.8152 29.7381 14.3509 31.1336 16.5344C29.7593 15.9892 28.2561 15.7823 26.781 15.9471C23.5253 16.312 21.9643 18.4465 22.19 20.3898C22.3437 21.7143 23.4358 22.8016 24.6762 22.8641C26.2577 22.9469 27.4153 21.5186 28.7123 21.4722C28.9032 21.4641 29.0024 21.5019 29.0331 21.5407C29.0801 21.5995 29.0294 21.8001 28.8935 21.9694C28.6897 22.2251 28.354 22.4891 28.2102 22.9207C27.9874 23.5862 28.3898 24.3876 29.0887 24.6702C29.6893 24.9127 30.3805 24.7806 30.9293 24.4189C31.2863 24.1839 31.6153 23.8187 31.9399 23.7038C32.305 23.5744 32.7866 23.7771 32.95 24.1298C32.9569 24.1447 32.9695 24.1542 32.9778 24.1679C32.9213 24.701 32.8245 25.2389 32.6875 25.7797C31.5039 25.2872 30.068 25.5163 29.1343 26.5546C28.2481 27.3214 27.8663 28.6587 28.3096 29.7509C28.8023 30.9647 30.2397 31.6025 31.5351 31.3462C31.8853 31.3395 32.2398 31.2805 32.5839 31.1531C33.3707 30.8619 33.9806 30.2934 34.3015 29.5525C34.6062 28.8498 34.6095 28.0732 34.3118 27.3667C34.2013 27.1047 34.0445 26.8758 33.8693 26.6637C34.3247 24.8989 34.4384 23.0391 34.143 21.2315C33.7657 18.9601 32.715 16.788 31.1443 15.1142C27.8288 10.8139 21.158 8.80945 15.6175 11.4977C14.1449 9.27166 11.0775 8.08762 8.37009 9.54539C6.2964 10.3594 4.25168 12.3833 3.52921 15.1464C3.48653 15.3095 3.61404 15.4697 3.78271 15.469C6.39722 15.4579 8.21309 15.4501 10.6903 15.4395C9.1647 17.8154 8.2729 20.108 8.36467 23.0775C8.08066 27.3192 10.0866 31.6722 13.5447 34.1601C16.7248 36.4482 21.0087 37.0661 24.7347 35.8937C24.3481 36.5438 24.0519 37.2545 23.8424 38.0555C23.7998 38.2187 23.9273 38.3789 24.096 38.3782C24.3902 38.3775 36.358 38.3605 36.6098 38.2658C36.7613 38.2088 36.8868 38.0428 36.9487 37.8684C37.1195 37.8181 37.2469 37.6674 37.2482 37.4801C37.2499 37.28 37.1663 37.0907 37.0994 36.9386C36.7755 36.2099 36.3918 34.6121 35.0835 33.3922ZM16.3414 16.5177C16.1165 17.0467 15.6279 17.5925 15.0859 17.5181C14.5723 17.4565 14.0128 16.2772 13.9378 15.4256C14.0082 15.4253 14.0786 15.4251 14.149 15.4247C14.4577 15.4234 14.7663 15.4221 15.0751 15.4208C15.2864 15.4199 16.0972 15.4317 16.2966 15.3566C16.4481 15.2995 16.5736 15.1334 16.6355 14.959C16.7469 14.9261 16.838 14.8519 16.8887 14.7494C16.7867 15.0275 16.7096 15.309 16.6363 15.5842C16.5484 15.9147 16.4654 16.227 16.3414 16.5177ZM31.6627 22.9229C31.3235 23.0437 31.0571 23.2637 30.822 23.4584C30.7087 23.5523 30.5949 23.6472 30.4736 23.7275C30.1187 23.96 29.7078 24.0263 29.3993 23.9023C29.1076 23.7841 28.9113 23.4347 28.9954 23.1834C29.0445 23.0367 29.1717 22.8986 29.319 22.739C29.3955 22.6565 29.471 22.5734 29.5406 22.4871C29.8664 22.0794 30.0357 21.4695 29.6798 21.0235C29.4684 20.7592 29.1167 20.6228 28.6826 20.6444C27.1515 20.7002 25.9481 22.1125 24.7182 22.0368C23.8845 21.9948 23.1192 21.2133 23.013 20.2944C22.6525 17.1922 27.7228 15.4629 31.8317 17.7912C32.5669 19.3292 32.9954 21.0211 33.0433 22.8851C33.0444 22.9465 33.0392 23.0091 33.0391 23.0707C32.6294 22.8325 32.1237 22.7596 31.6627 22.9229ZM32.2959 30.3765C31.1407 30.8052 29.827 30.2746 29.3724 29.1949C28.7978 27.8312 29.878 26.3582 31.4535 26.3582C32.3509 26.3582 33.2003 26.8624 33.5481 27.6881C33.9855 28.7263 33.4683 29.9431 32.2959 30.3765ZM24.4033 11.5996C24.6451 12.5686 24.193 13.896 23.4428 14.3707C22.6301 14.8852 21.4701 14.7979 20.7452 14.1696C20.3492 13.8211 19.9705 13.2592 19.3199 13.078C18.5237 12.848 17.4384 13.3082 16.91 14.6891C16.9773 14.4732 16.8768 14.2361 16.7857 14.0283C16.6482 13.7231 16.4925 13.1313 16.0311 12.22C18.7723 10.9094 21.6266 10.7889 24.4033 11.5996ZM15.945 14.1577L5.33217 14.2602C5.618 13.1789 6.25221 12.2583 7.38042 11.2612C8.51175 10.2623 9.70975 9.61272 11.2073 9.74089C12.3117 9.8385 13.3768 10.3174 14.2052 11.0891C15.0981 11.921 15.5179 12.9851 15.945 14.1577ZM36.2581 37.067L25.6453 37.1695C25.9311 36.0882 26.5653 35.1676 27.6935 34.1704C28.8152 33.18 30.0227 32.517 31.5204 32.6502C32.6254 32.7478 33.6905 33.2267 34.5183 33.9984C35.4159 34.8348 35.8313 35.8977 36.2581 37.067ZM12.0572 26.0913C13.0366 25.1955 13.8471 24.7382 14.854 24.5117C15.4386 24.3811 16.3996 24.4701 16.7636 24.7824C17.1897 25.1475 17.098 25.9074 16.8321 26.4596C16.7124 26.7082 16.5635 26.9471 16.4066 27.2C16.1391 27.6304 15.863 28.0748 15.7169 28.5979C15.4392 29.5935 15.891 30.8239 16.9098 31.008C17.3281 31.0826 17.7035 30.9578 18.0245 30.9255C18.7962 30.8549 19.6246 31.4244 19.8171 32.1837C20.0096 32.9441 19.2077 34.1354 18.4915 34.4363C18.4783 34.4418 18.4697 34.4528 18.4574 34.4595C15.4638 33.8093 12.8479 31.9478 11.1296 29.2368C11.1508 29.1589 11.1567 29.0763 11.128 28.9943C10.8071 28.0791 11.1895 26.8851 12.0572 26.0913ZM4.81735 24.1063L6.25006 26.191C6.38003 26.3798 6.63727 26.4278 6.82602 26.2978C7.01478 26.1684 7.06223 25.9106 6.9328 25.7218L5.00644 22.9191C4.93417 22.814 4.81823 22.7482 4.69095 22.7406C4.56422 22.7244 4.44072 22.7832 4.35605 22.8781L1.85857 25.6814C1.70649 25.8523 1.72213 26.1144 1.89255 26.2665C2.06585 26.4198 2.32662 26.4015 2.47768 26.2326L3.87749 24.6606C3.26569 29.0996 5.29436 33.7954 9.01017 36.3341C9.08136 36.3832 9.16279 36.4064 9.24315 36.4064C9.65028 36.4064 9.81215 35.879 9.4772 35.6503C5.82866 33.1572 3.93132 28.4311 4.81735 24.1063ZM32.5159 13.8665C32.4582 14.0876 32.5909 14.3141 32.812 14.3718C35.5038 15.0691 35.359 15.0481 35.4578 15.0481C35.543 15.0481 35.6266 15.0222 35.6972 14.9721C35.9738 14.7747 35.8207 14.6648 36.0941 11.9374C36.113 11.7093 35.9431 11.5092 35.7156 11.4909C35.481 11.4715 35.2873 11.6419 35.269 11.8695L35.1452 13.3766C32.7318 7.66342 26.9375 4.49044 21.1093 5.14501C20.8822 5.17036 20.7183 5.37529 20.7442 5.60287C20.7695 5.83045 20.9809 5.98901 21.202 5.96797C26.9148 5.32348 32.3597 8.58189 34.4911 13.9537L33.0212 13.5704C32.8017 13.5116 32.5736 13.6448 32.5159 13.8665Z" fill="#051328"/>
</g>
</g>
<defs>
<clipPath id="clip0_2744_17287">
<rect width="40" height="40" fill="white"/>
</clipPath>
<clipPath id="clip1_2744_17287">
<rect width="37" height="37" fill="white" transform="translate(1 2)"/>
</clipPath>
</defs>
</svg>
