<svg width="116" height="116" viewBox="0 0 116 116" fill="none" xmlns="http://www.w3.org/2000/svg">
<path d="M35.8069 21.3695C36.7535 22.9355 37.8671 24.4134 39.1709 25.6917C39.8205 26.332 40.5049 26.9329 41.238 27.4688C41.9711 28.0024 42.7391 28.4803 43.5418 28.891C44.2192 29.2413 44.9268 29.5197 45.6437 29.7656L45.7203 29.7911C46.4859 30.0556 46.8942 30.8908 46.6297 31.6564C46.4951 32.0485 46.2075 32.3478 45.8595 32.5102C44.667 33.0623 43.4629 33.5495 42.3099 34.046C41.3053 34.4799 40.3402 34.9091 39.4447 35.3986C38.5468 35.8835 37.7279 36.4449 36.9646 37.0875C36.7743 37.2476 36.5841 37.41 36.4055 37.5863L36.1317 37.8439C36.0435 37.9297 35.9832 38.0109 35.909 38.0921C35.7651 38.2568 35.6143 38.4053 35.4798 38.6118C35.3429 38.809 35.1967 38.9853 35.0668 39.1987L34.6771 39.8344C34.5495 40.0502 34.4335 40.2822 34.3128 40.5049L34.1319 40.8413L33.9648 41.1939L33.6307 41.8969C32.7816 43.8132 32.0787 45.8363 31.4894 47.8871C31.2063 48.9149 30.9303 49.9473 30.7145 50.982C30.4987 52.0121 30.3039 53.0538 30.2087 54.0375C30.1159 55.0003 29.2599 55.7055 28.2971 55.6127C27.5639 55.5408 26.9793 55.0281 26.7844 54.3599L26.7798 54.3391C26.4155 53.0816 26.1859 51.8868 25.9608 50.7013L25.3321 47.1958C24.9887 45.2957 24.6222 43.4211 24.1141 41.6719C23.8543 40.8065 23.5503 39.9759 23.1954 39.2591L22.9147 38.7626C22.8033 38.5932 22.6803 38.4192 22.5643 38.2475C22.3138 37.9088 22.0539 37.5724 21.7616 37.2523C21.1886 36.6073 20.5459 35.9971 19.8569 35.4241C19.1632 34.858 18.4278 34.3267 17.6622 33.8326C16.131 32.8466 14.4768 32.0114 12.7832 31.3502C11.832 30.979 11.3611 29.9048 11.7346 28.9536C11.9248 28.4641 12.3007 28.1022 12.7507 27.9166L12.767 27.9096C14.1056 27.3621 15.4419 26.8123 16.6878 26.165C17.9568 25.5432 19.1238 24.8147 20.1979 24.0051L20.9844 23.3787L21.7059 22.6943C21.9588 22.4762 22.163 22.2163 22.3834 21.9704C22.5945 21.7175 22.8358 21.4879 23.0167 21.2071L23.5991 20.4021C23.7823 20.1237 23.9424 19.8267 24.1164 19.5437L24.3739 19.1122C24.4528 18.9614 24.5224 18.8059 24.5967 18.6551L25.0398 17.7387C25.7984 15.9848 26.4619 14.101 27.028 12.1986C27.1533 11.7392 27.2879 11.3216 27.4317 10.9458C27.5036 10.7579 27.5779 10.5792 27.6544 10.4099C27.6753 10.3588 27.6869 10.3472 27.7031 10.324C27.7171 10.3031 27.7333 10.2823 27.7495 10.2637C27.782 10.2243 27.8168 10.1871 27.8563 10.15C28.0094 10.0015 28.2205 9.84841 28.4247 9.63497C28.6311 9.42385 28.8237 9.16169 28.9768 8.88561C29.4223 8.06665 29.4826 7.57713 29.7679 7.89497C29.8375 7.97617 29.9211 8.11305 30.0139 8.32649C30.1067 8.53761 30.2064 8.83225 30.2783 9.20809C30.3503 9.58161 30.3851 10.0317 30.3688 10.5027C30.3642 10.6187 30.3572 10.7439 30.3503 10.853C30.3433 10.9319 30.3387 11.0131 30.3317 11.0966C30.3178 11.2636 30.2992 11.4353 30.276 11.6139C30.2203 12.0663 30.1531 12.5257 30.0788 12.992C29.9999 13.4583 29.8793 13.927 29.7703 14.3979C29.5684 15.3422 29.2274 16.2795 28.9211 17.1843C28.7611 17.5926 28.5847 17.9963 28.4177 18.4023L28.1648 19.0101L27.8679 19.604C27.6637 19.9984 27.4781 20.3998 27.2577 20.7849L26.5594 21.9287C25.5687 23.4227 24.3693 24.7939 23.0121 25.9585L21.9681 26.7914C21.6131 27.0559 21.2443 27.2925 20.88 27.5454C20.5204 27.8052 20.1423 28.0163 19.7664 28.2391C19.3906 28.4595 19.0194 28.6938 18.6343 28.8817L17.4905 29.4803L16.3351 30.0278L15.7575 30.2992L15.1775 30.5521L14.0151 31.0602L14.0012 28.1787C15.7714 28.826 17.4743 29.6125 19.1122 30.5498C20.1771 31.1599 21.2396 31.8397 22.2349 32.6285C23.2302 33.415 24.1559 34.3128 24.9122 35.329C25.1581 35.6816 25.4156 36.018 25.6383 36.3915C25.752 36.5795 25.8727 36.7442 25.9794 36.953L26.2972 37.5608C26.4132 37.765 26.4759 37.9622 26.5663 38.164C26.6475 38.3635 26.7403 38.5654 26.8099 38.7626C26.9399 39.157 27.0976 39.556 27.2043 39.9458C27.6776 41.5141 27.9978 43.0546 28.2924 44.5811C28.5824 46.1077 28.833 47.6227 29.0905 49.1121C29.3503 50.5969 29.6102 52.0794 29.9675 53.418L26.8981 53.6871C27.0373 52.4668 27.2809 51.3347 27.5547 50.2071C27.8864 48.8615 28.2692 47.5438 28.6938 46.233C29.116 44.9222 29.5777 43.623 30.1113 42.34C30.6449 41.0571 31.2156 39.7834 31.9487 38.5422C32.3176 37.9227 32.712 37.3079 33.1876 36.7094C33.2456 36.6351 33.299 36.5586 33.3639 36.4843L33.5658 36.2639L33.9741 35.8278C34.111 35.6816 34.2432 35.5772 34.3801 35.4519C34.517 35.3313 34.6469 35.206 34.7884 35.0923C35.5285 34.459 36.3382 33.8952 37.1757 33.4011C38.0132 32.9069 38.8763 32.4916 39.73 32.1204C41.4422 31.3827 43.094 30.7795 44.667 30.0394L44.8503 32.3756C43.3191 31.8838 41.8667 31.1855 40.5258 30.3363C39.1918 29.4756 37.9715 28.4664 36.8648 27.3575C35.7651 26.2415 34.7838 25.0212 33.9138 23.7313C33.0461 22.4437 32.313 21.0494 31.6959 19.6435C30.9094 17.8362 30.3642 16.0127 30.0115 14.2425C29.6543 12.4723 29.4919 10.7509 29.4895 9.11761C29.4919 8.50281 29.6241 8.13161 29.8167 8.02953L29.6055 8.56313C29.5545 8.60953 29.4779 8.65129 29.4014 8.66985C29.3248 8.68841 29.2529 8.68841 29.2019 8.68377C29.0975 8.67217 29.058 8.65825 29.0487 8.67217C29.0441 8.68377 29.0719 8.72785 29.1879 8.77193C29.2459 8.79281 29.3295 8.81137 29.4269 8.80209C29.5243 8.79513 29.6311 8.76033 29.7099 8.71161L29.993 7.99473C30.2435 8.02257 30.5382 8.41465 30.7887 9.17329C31.5381 11.4469 32.313 13.7994 33.2178 16.0382C33.9555 17.8756 34.7258 19.7339 35.7489 21.3719C35.7651 21.3672 35.7814 21.3626 35.8023 21.3579L35.8069 21.3695Z" fill="#fedc60"/>
<path d="M76.2909 44.9783C76.6041 45.8877 76.9382 46.7902 77.2862 47.6787C77.3743 47.8968 77.4625 48.1288 77.5507 48.333C77.6388 48.5255 77.7154 48.7251 77.8128 48.9153C78.0007 49.2958 78.2072 49.6693 78.4369 50.0266C79.3579 51.4627 80.6386 52.6923 82.1535 53.6527C83.4435 54.4903 84.9027 55.1399 86.42 55.6317C87.1856 55.8799 87.6032 56.7012 87.3573 57.4645C87.2367 57.838 86.9791 58.128 86.6613 58.2997L86.6219 58.3206C86.3017 58.4923 85.9769 58.6477 85.6683 58.8426C83.8889 59.9121 82.2904 61.3575 80.9007 62.9791C79.5087 64.6031 78.3255 66.4197 77.3743 68.336C76.4255 70.2523 75.7039 72.2777 75.3235 74.3309C74.9453 76.3795 74.9082 78.4651 75.3768 80.3583L71.927 81.0635C71.5627 79.0498 71.2078 77.0499 70.7763 75.0942C70.3888 73.3333 69.948 71.6003 69.3959 69.9252C68.8414 68.2525 68.1779 66.6355 67.3705 65.1135C67.1663 64.7377 66.9506 64.3619 66.7371 63.9953C66.5191 63.638 66.294 63.2877 66.0527 62.9536C65.5725 62.2808 65.0482 61.6567 64.4821 61.1092C63.3476 60.0095 62.0368 59.2741 60.6935 59.0955C59.682 58.9609 58.9698 58.0306 59.1043 57.0191C59.1832 56.4321 59.5266 55.9472 59.9975 55.6688L60.0115 55.6619C61.2387 54.9473 62.3732 54.0958 63.3546 53.0797C63.6098 52.8361 63.8325 52.56 64.0715 52.3002C64.2919 52.0218 64.5239 51.755 64.7303 51.465C65.1595 50.8989 65.5423 50.2911 65.8973 49.6647C67.3218 47.1544 68.1755 44.2591 68.7091 41.2848C69.0548 39.3383 69.3889 37.3385 69.6325 35.3503C69.7462 34.3991 69.9155 33.6126 70.1267 32.9676C70.2311 32.6451 70.3494 32.3575 70.477 32.1023C70.5396 31.8981 70.6231 31.6707 70.7229 31.5014C70.8227 31.3251 70.934 31.1951 71.0245 31.1139C71.5442 30.7172 71.1451 31.4155 71.7646 31.9816C71.9154 32.1092 72.1358 32.1533 72.2796 32.1324C72.3515 32.1301 72.4049 32.1046 72.4397 32.1231C72.4722 32.2322 72.5047 32.3459 72.5325 32.4688C72.6531 32.9583 72.732 33.5639 72.7575 34.2738C72.8202 36.0718 72.6763 38.0461 72.3794 39.8998C72.094 41.6839 71.7275 43.461 71.224 45.2195C70.9711 46.0965 70.6904 46.9711 70.3587 47.8295C70.0315 48.6903 69.665 49.5417 69.2427 50.3699C68.4099 52.0311 67.3589 53.6133 66.0922 55.0215C65.4542 55.7222 64.7698 56.3811 64.0367 56.9889C63.2989 57.5875 62.5217 58.135 61.712 58.6315L61.1297 55.7013C62.8117 55.8892 64.3963 56.5736 65.7001 57.497C66.7975 58.2695 67.7719 59.1999 68.5839 60.2091C68.9968 60.7125 69.3657 61.2368 69.6998 61.7727L69.9434 62.1764C70.0176 62.311 70.0895 62.4455 70.1638 62.5801C70.3053 62.8492 70.4515 63.116 70.5767 63.3875C71.8875 66.1599 72.7993 69.0367 73.5162 71.9065C74.2307 74.781 74.7458 77.6601 75.2191 80.4998L75.2237 80.5276C75.3652 81.3837 74.7875 82.1957 73.9291 82.3372C73.1032 82.4741 72.3191 81.9382 72.1358 81.1308C71.7831 79.5625 71.688 77.971 71.8156 76.4282C72.0615 73.5375 72.8782 70.7859 74.0405 68.2223C75.2144 65.6634 76.741 63.2784 78.6039 61.1695C80.5017 59.0259 82.7567 57.1374 85.4247 55.8498L85.6034 58.244C84.7589 57.9517 83.9167 57.6501 83.0978 57.2673C82.2765 56.9007 81.4761 56.4692 80.7035 55.9843C79.9287 55.5064 79.1955 54.9473 78.5065 54.3371C77.8175 53.727 77.1795 53.0472 76.6227 52.3048C76.0635 51.5647 75.5763 50.769 75.1796 49.9315C75.0868 49.7227 74.9801 49.5069 74.8966 49.3051L74.6483 48.7042C74.4836 48.3028 74.3282 47.9015 74.1727 47.4978C73.5579 45.8854 72.9942 44.2614 72.4838 42.6142C71.9154 40.7767 71.4769 38.9463 71.2426 37.1529C71.0152 35.3665 70.9688 33.5917 71.3238 31.9909C71.4351 31.5803 71.5743 31.3065 71.7205 31.1766L71.688 30.9933C71.6741 30.9098 71.63 30.81 71.5651 30.7311C71.5001 30.6499 71.4259 30.5943 71.3679 30.5548C71.2519 30.4759 71.1915 30.4342 71.1799 30.3878C71.173 30.346 71.2031 30.288 71.3887 30.2741C71.4792 30.2695 71.6231 30.288 71.7831 30.3739C71.9432 30.4551 72.0917 30.6059 72.1822 30.7474L72.2703 31.2346C72.3469 31.3297 72.4119 31.4689 72.4652 31.6452C72.5209 31.8239 72.5418 32.0327 72.5905 32.3064C72.6346 32.5802 72.6555 32.847 72.7158 33.1277C72.7691 33.4061 72.8225 33.6868 72.8782 33.9675C73.0127 34.5359 73.1357 35.1043 73.2958 35.682C73.5997 36.8327 73.9477 37.9997 74.3259 39.1597C74.9383 41.0667 75.5323 43.055 76.2515 44.9713C76.27 44.9713 76.2863 44.9713 76.3071 44.9713L76.2909 44.9783Z" fill="#fedc60"/>
<path d="M46.2701 78.9905C46.8454 80.64 47.8198 82.0297 49.2188 83.0227C49.3487 83.1317 49.5018 83.2129 49.648 83.3011L50.0911 83.5679C50.402 83.7256 50.7268 83.8602 51.047 84.004L51.1606 84.0551C51.8891 84.3822 52.2139 85.2359 51.8868 85.9644C51.7244 86.3287 51.4228 86.5931 51.0771 86.7254C50.8219 86.8228 50.569 86.9203 50.3231 87.0223C49.8127 87.2335 49.3278 87.4446 48.8986 87.6719C48.4694 87.9016 48.0936 88.1429 47.7572 88.4306C47.089 89.0013 46.4998 89.7947 46.0033 90.6601C45.5114 91.5301 45.1078 92.4674 44.8665 93.3838C44.6206 94.2909 44.5718 95.2073 44.7574 95.7664L41.3563 96.6179C41.0942 95.4718 40.8158 94.3582 40.4747 93.3003C39.9504 91.6763 39.2637 90.1845 38.2962 88.9874C37.3311 87.7833 36.0946 86.8669 34.7768 86.5119C33.7931 86.2475 33.2131 85.2359 33.4776 84.2523C33.6075 83.772 33.9161 83.3869 34.3128 83.1503L34.3963 83.1015L34.8464 82.8347L35.0714 82.7025L35.2849 82.5494L35.7164 82.2455L36.1247 81.9021L36.3289 81.7304L36.5214 81.5425L36.9089 81.1643L37.2708 80.756L37.4518 80.5519C37.5098 80.4823 37.5654 80.4057 37.6211 80.3338C38.5375 79.1784 39.2962 77.8467 39.8924 76.4176C40.2752 75.5198 40.7253 74.6173 41.1127 73.6939C41.3099 73.2578 41.5257 72.9051 41.7994 72.636C42.0616 72.3623 42.3609 72.1651 42.6834 72.0282C43.152 71.8287 43.5766 71.9029 43.8689 72.2277C44.1589 72.5502 44.3306 73.1279 44.2424 73.8819C44.1357 74.8354 43.8341 75.8469 43.4327 76.7587C43.2471 77.2134 43.0244 77.6588 42.8202 78.1066L42.4838 78.7678L42.3145 79.0972L42.1312 79.422C41.6626 80.2943 41.1104 81.1342 40.5188 81.9462C39.9249 82.7605 39.2382 83.5215 38.5004 84.2407C37.7464 84.9483 36.9066 85.5793 36.0018 86.1361L35.6723 83.1967C36.3892 83.3591 37.0852 83.6096 37.7394 83.9275C39.0317 84.5446 40.2474 85.454 41.006 86.5676C41.521 87.3054 41.9618 88.0849 42.347 88.8621C42.7321 89.6393 43.0522 90.4304 43.3376 91.2192C43.899 92.8015 44.2934 94.3837 44.5974 95.9335L44.6043 95.9729C44.7714 96.822 44.2192 97.6479 43.3701 97.815C42.5604 97.9751 41.7716 97.4763 41.5535 96.6944C41.3285 95.8801 41.3215 95.1029 41.405 94.3883C41.5048 93.5508 41.7136 92.7806 41.9688 92.0498C42.2263 91.319 42.5372 90.6253 42.8922 89.9548C43.2471 89.2867 43.6462 88.644 44.1102 88.0269C44.5765 87.4121 45.1008 86.8182 45.7434 86.2985C46.4209 85.7394 47.2004 85.3032 47.9382 84.9854C48.6829 84.6583 49.3858 84.4193 50.0726 84.1711L50.1004 86.5815C48.3372 85.8995 46.6784 84.7719 45.4442 83.2895C45.2957 83.1015 45.1565 82.9067 45.0126 82.7141L44.8015 82.4241C44.7366 82.3243 44.6786 82.2223 44.6159 82.1202L44.2517 81.51L43.9431 80.8767L43.79 80.5611L43.6624 80.2387L43.4095 79.5914L43.203 78.9348C43.1334 78.7167 43.0662 78.4987 43.0174 78.2759C42.9548 78.0254 42.8968 77.7748 42.8458 77.5266C42.8063 77.2783 42.7692 77.0301 42.739 76.7842C42.7042 76.5383 42.688 76.2947 42.681 76.0534C42.6718 75.8121 42.6648 75.5731 42.6694 75.3365C42.7019 74.3899 42.8458 73.4898 43.1404 72.6499C43.4072 71.8774 44.1798 71.8983 44.4094 72.7311C44.7412 73.912 45.0358 75.1184 45.3653 76.2599C45.6274 77.1995 45.8432 78.1483 46.2074 79.0044C46.2237 78.9998 46.2399 78.9975 46.2585 78.9928L46.2701 78.9905Z" fill="#fedc60"/>
<path d="M100.259 21.5571C100.468 22.2809 100.753 22.9746 101.085 23.6404C101.173 23.8028 101.247 23.9768 101.347 24.1322L101.632 24.6102C101.841 24.9118 102.045 25.225 102.282 25.5034C102.623 25.9395 103.02 26.3246 103.437 26.6796L103.456 26.6958C104.082 27.2271 104.161 28.1644 103.63 28.7931C103.546 28.8929 103.444 28.9834 103.342 29.0553C103.159 29.1829 102.976 29.3128 102.797 29.445C101.637 30.4102 100.679 31.6862 100.013 33.099C99.6765 33.802 99.4051 34.5374 99.2241 35.2682C99.1847 35.4492 99.1313 35.6325 99.1081 35.8111C99.0779 35.9898 99.0431 36.1707 99.0315 36.3401L99.006 36.5953V36.8319L98.9991 36.9502C98.9991 36.9874 99.006 37.0198 99.0083 37.0523C99.0153 37.1196 99.0199 37.1869 99.0223 37.2542L99.0269 37.3354C99.0687 38.2935 98.3263 39.1078 97.3681 39.1496C96.5955 39.1844 95.9158 38.7042 95.6606 38.0174C95.4146 37.3516 95.2058 36.6881 95.0295 36.0663C94.8509 35.4469 94.6908 34.8414 94.5122 34.3031C94.4704 34.1662 94.4263 34.034 94.3799 33.911C94.3335 33.7858 94.2918 33.6558 94.2431 33.5352C94.141 33.3032 94.0482 33.0596 93.9322 32.8578C93.8301 32.635 93.6978 32.4564 93.5819 32.2592C93.5169 32.1687 93.445 32.0875 93.38 31.9994L93.2803 31.8694L93.1643 31.7558C92.575 31.1363 91.7699 30.6677 90.777 30.3498C89.8095 30.0413 89.2759 29.0066 89.5845 28.0391C89.726 27.5937 90.023 27.241 90.3942 27.0183L90.4846 26.965L90.9394 26.6935C91.0159 26.6471 91.0925 26.6054 91.1667 26.559L91.3778 26.4035C91.517 26.2991 91.6655 26.204 91.8024 26.095L92.1968 25.7539C92.7002 25.2737 93.1805 24.761 93.5586 24.1531C93.9461 23.5569 94.2895 22.9142 94.5493 22.2182C94.6978 21.8818 94.7929 21.513 94.9158 21.158L95.0597 20.6058L95.1316 20.3298L95.1873 20.0467C95.3636 19.2695 95.5794 18.4645 95.7835 17.6571C95.8253 17.4622 95.8879 17.2859 95.9645 17.1235C96.0457 16.9472 96.1269 16.8822 96.2498 16.5296C96.3751 16.2535 96.5375 16.0378 96.6976 15.9102C96.8577 15.7802 97.0062 15.7292 97.1268 15.7292C97.4771 15.7408 97.5607 16.221 97.9063 16.6108C98.0687 16.8057 98.3193 16.9588 98.542 16.9658C98.6511 16.9727 98.7392 16.9495 98.7926 16.9286L98.8019 16.924C98.8019 16.924 98.8088 16.924 98.8088 16.9356L98.8227 16.989C98.8297 17.0238 98.839 17.0609 98.8459 17.098C98.8599 17.1723 98.8714 17.2488 98.8807 17.33C98.9016 17.5319 98.9155 17.7406 98.9225 17.9494C98.9225 18.1606 98.9109 18.374 98.8946 18.5874C98.8714 19.0143 98.7879 19.4435 98.7021 19.8588C98.4817 20.81 98.2404 21.7589 97.8947 22.6915C97.556 23.6219 97.1663 24.5452 96.6489 25.4198C95.6536 27.1807 94.2083 28.7699 92.459 29.9183C92.3592 29.9856 92.2618 30.0552 92.1597 30.1225L91.8859 26.9557C92.3917 27.1088 92.9114 27.2248 93.4148 27.4731C93.6677 27.5867 93.9159 27.7004 94.1503 27.8651C94.2686 27.9417 94.3823 28.0206 94.4959 28.1041C94.6096 28.183 94.7187 28.2688 94.8184 28.3709C95.5051 28.9834 96.0851 29.7258 96.5468 30.4844C97.0131 31.25 97.331 32.0458 97.5815 32.7998C97.8344 33.5538 98.0293 34.2892 98.2079 34.9736C98.3889 35.658 98.5652 36.3053 98.7531 36.9131L95.7511 37.5929C95.7441 37.2913 95.7255 36.9688 95.7603 36.6974C95.8137 35.9735 95.9598 35.3286 96.1339 34.6952L96.2684 34.2266L96.4262 33.7695C96.5259 33.461 96.6535 33.171 96.7719 32.874C97.266 31.6978 97.911 30.5958 98.7044 29.5958C99.5814 28.5031 100.63 27.5194 101.855 26.7654L101.771 28.8627C100.542 27.8442 99.521 26.6146 98.7717 25.269L98.491 24.7633L98.2404 24.2459L98.1151 23.9884L98.0061 23.7239L97.788 23.195C97.5259 22.4827 97.2892 21.7635 97.1199 21.0304C96.7069 19.3461 96.7974 17.6548 97.4586 16.2721C97.5467 16.0865 97.6767 15.9589 97.8182 15.8986C97.8437 15.887 97.8553 15.8591 97.8437 15.8336C97.8437 15.829 97.8391 15.8243 97.8344 15.8197L97.621 15.5854C97.5328 15.4879 97.3727 15.4369 97.2753 15.4183C97.1732 15.3974 97.1129 15.3812 97.0897 15.3418C97.0688 15.3047 97.0804 15.2397 97.1964 15.1631C97.2544 15.126 97.3449 15.0866 97.4655 15.0726C97.5838 15.0564 97.7277 15.0726 97.8553 15.1121L98.3471 15.8986C98.5142 15.9774 98.6557 16.1398 98.723 16.3811C98.9944 17.3439 99.2519 18.316 99.535 19.2556C99.7647 20.0258 99.9317 20.8262 100.205 21.5802C100.222 21.5756 100.238 21.5733 100.256 21.5686L100.259 21.5571Z" fill="#fedc60"/>
<path d="M95.4517 91.8342C95.4958 92.0245 95.5399 92.2217 95.5886 92.4026C95.6118 92.4978 95.6373 92.5836 95.6605 92.6625C95.6837 92.7437 95.7069 92.8272 95.7371 92.9061C95.8461 93.2286 95.983 93.5487 96.1477 93.8434C96.4772 94.4373 96.9087 94.9616 97.4098 95.3398C97.6882 95.5462 97.9875 95.711 98.3053 95.8154L98.4074 95.8502C99.1661 96.1007 99.579 96.9197 99.3261 97.6783C99.2078 98.0356 98.9596 98.3186 98.6557 98.488C98.3309 98.669 98.0246 98.8754 97.7485 99.1167C97.1755 99.6202 96.6976 100.233 96.2475 100.945C96.0225 101.3 95.8021 101.68 95.5793 102.077L95.2383 102.685C95.1339 102.875 95.0457 103.038 94.9599 103.221C94.6189 103.933 94.3706 104.675 94.2662 105.404C94.1572 106.132 94.185 106.835 94.3521 107.473L90.9486 108.211C90.6818 107.009 90.3965 105.847 90.0253 104.759C89.5821 103.453 89.0184 102.258 88.2574 101.26C87.4988 100.258 86.5615 99.4554 85.5291 99.0123C84.5941 98.6086 84.1603 97.5229 84.564 96.5879C84.7426 96.1726 85.0558 95.8571 85.4317 95.6692L85.5198 95.6251L85.9397 95.414L86.1509 95.3119L86.3504 95.189L86.7494 94.943L87.1253 94.66L87.3155 94.5208L87.4918 94.3607L87.8445 94.0452L88.1693 93.6949C88.2226 93.6369 88.2806 93.5812 88.3317 93.5209L88.4801 93.3306C88.5799 93.203 88.682 93.0801 88.7794 92.9502L89.0532 92.5442C89.1483 92.4119 89.2295 92.2681 89.3107 92.1242C89.3919 91.9804 89.4777 91.8389 89.5543 91.6927C89.6935 91.3888 89.8559 91.0988 89.9719 90.7786C90.0345 90.6209 90.0995 90.4678 90.1598 90.3077L90.3199 89.8228C90.5565 89.0502 90.8721 88.273 91.0971 87.4657C91.2131 87.0852 91.3685 86.7558 91.5913 86.5122C91.6794 86.5586 91.8557 86.6653 92.0831 86.6467C92.3105 86.6328 92.5193 86.4727 92.6237 86.2709C92.9206 85.6607 92.6701 85.1596 93.0111 85.0993C93.0969 85.09 93.2338 85.1178 93.4171 85.2501C93.5981 85.3777 93.8138 85.6352 93.9391 85.9577C94.0041 86.1178 94.0481 86.2848 94.0783 86.4472C94.0899 86.5214 94.1015 86.5957 94.1131 86.6722C94.1224 86.707 94.1317 86.7418 94.1409 86.779C94.1757 86.9251 94.1989 87.0829 94.2105 87.2546C94.25 87.6884 94.2036 88.1408 94.1525 88.5932C94.1177 88.8182 94.069 89.0433 94.0203 89.266C93.9948 89.3774 93.9693 89.4887 93.9414 89.5978C93.9066 89.7068 93.8741 89.8158 93.8417 89.9226C93.2872 91.7206 92.4775 93.4513 91.343 95.008C90.7746 95.7852 90.1065 96.4974 89.3733 97.1494C88.6286 97.7943 87.7957 98.3349 86.9141 98.8058L86.9049 95.82C87.2853 95.9685 87.6658 96.1262 88.0254 96.3165C89.1437 96.8872 90.2109 97.6922 90.8605 98.6806C92.7536 101.548 93.6653 104.638 94.1804 107.566L94.1966 107.654C94.3451 108.499 93.7813 109.306 92.9345 109.455C92.0993 109.601 91.3036 109.051 91.1389 108.225C91.0669 107.865 91.0159 107.501 90.9997 107.142C90.9254 105.664 91.2247 104.251 91.7305 102.98C91.9833 102.344 92.2942 101.729 92.6445 101.161C92.9531 100.66 93.2709 100.135 93.6305 99.6086C94.0783 98.952 94.591 98.2838 95.2035 97.6806C95.809 97.0728 96.5189 96.5531 97.259 96.1355L97.5629 98.4486C96.7185 98.1841 95.9529 97.7433 95.3195 97.1934C94.6815 96.6459 94.1665 96.001 93.7558 95.3166C93.547 94.9732 93.373 94.6159 93.2129 94.2517C93.0621 93.8898 92.9253 93.5 92.8278 93.1474C92.6213 92.4305 92.4705 91.7298 92.3383 91.0246C92.1782 90.1592 92.1086 89.3078 92.162 88.4795C92.2153 87.6536 92.3847 86.8462 92.7304 86.1317C92.8093 85.9762 92.9137 85.8626 93.0297 85.7976L93.025 85.8347C93.0482 85.8626 93.0482 85.9298 93.0134 85.9902C92.9786 86.0528 92.9183 86.0992 92.8742 86.1294C92.7814 86.1897 92.7327 86.2245 92.7257 86.2825C92.7257 86.3335 92.7489 86.424 92.9438 86.4611C93.0389 86.4774 93.199 86.4611 93.3591 86.3567C93.5192 86.257 93.6329 86.083 93.6769 85.9554L93.6909 85.8254C93.8301 85.9136 93.9345 86.0574 93.9901 86.2686C94.2546 87.2453 94.533 88.2684 94.8091 89.2869C95.0365 90.129 95.1641 91.0199 95.3961 91.8412C95.4123 91.8389 95.4285 91.8366 95.4471 91.8342H95.4517Z" fill="#fedc60"/>
</svg>
