<svg width="40" height="40" viewBox="0 0 40 40" fill="none" xmlns="http://www.w3.org/2000/svg">
<path d="M36.3306 16.6466C36.1997 15.5863 36.1434 14.8164 35.4611 13.975C34.6011 12.9174 33.24 13.0105 32.5671 14.16C32.3056 14.6067 32.2143 15.1048 32.1594 15.5333C31.9773 16.9532 32.1033 18.4032 32.5174 19.7717C31.1447 19.7809 30.2707 20.8086 29.483 21.8506C27.0995 25.0055 27.5873 24.7067 26.4211 25.4228C26.0557 25.6469 25.6778 25.8787 25.3495 26.2053C23.5195 28.0239 23.0762 30.6875 24.0204 32.9353C24.0264 32.9496 24.0365 32.9605 24.0438 32.9738C23.6096 33.3162 23.3842 33.8027 23.3444 34.3281C23.4515 36.7963 23.4534 37.2422 23.7035 37.8276C24.2239 39.0422 25.575 38.9716 26.8601 38.8158C27.483 38.74 31.5098 38.4786 31.0519 38.5064C31.6159 38.4676 32.3182 38.4193 32.7349 37.7042C32.9936 37.2621 32.9559 36.7876 32.9262 36.4065C32.7495 34.3427 33.1418 32.404 31.4651 32.1251C31.4075 31.758 31.4319 31.3389 31.5406 30.9288C31.6361 30.5668 31.9181 30.2797 32.192 29.9751C35.6786 26.0662 36.1948 25.8327 36.8884 24.3909C38.177 21.7142 36.6575 19.0624 36.3306 16.6466ZM36.0982 24.0107C35.479 25.2975 35.0635 25.4407 31.5377 29.391C31.1669 29.8035 30.838 30.1549 30.6927 30.7047C30.5686 31.1731 30.5384 31.6557 30.5861 32.1025C30.5273 32.1069 25.1575 32.5851 24.8378 32.6403C24.8333 32.6255 24.8349 32.6103 24.8288 32.5956C24.0275 30.6867 24.3807 28.4045 25.9672 26.827C26.5991 26.2 27.6129 25.9239 28.2201 25.0563C28.8875 24.1029 29.5869 23.168 30.1829 22.3792C30.5974 21.8312 31.0256 21.2645 31.5914 20.9237C31.9804 20.6899 32.5218 20.561 32.9658 20.7201C32.992 20.7344 33.0188 20.7437 33.0473 20.7524C33.6945 21.0468 33.8251 21.9213 33.6033 22.5731C33.4023 23.1625 32.9884 23.6612 32.4289 24.2285C32.2588 24.4009 32.2611 24.6786 32.4335 24.8488C32.6053 25.0186 32.8839 25.0166 33.0535 24.8445C33.6107 24.279 34.164 23.647 34.4334 22.856C34.7755 21.8507 34.5385 20.559 33.5227 20.0134C32.6545 17.6373 32.9419 15.2551 33.3241 14.6027C33.7028 13.9562 34.3329 13.9767 34.78 14.5276C35.3203 15.1938 35.3446 15.8178 35.4617 16.7642C35.7982 19.244 37.212 21.6978 36.0982 24.0107Z" fill="#051328"/>
<path d="M31.2053 25.5358C30.9627 25.849 30.78 26.1524 30.6458 26.4639C30.5206 26.7542 30.7346 27.0759 31.0483 27.0759C31.2179 27.0759 31.3795 26.9768 31.4508 26.811C31.5559 26.568 31.702 26.3265 31.8984 26.0725C32.0469 25.8809 32.0115 25.6055 31.8202 25.4573C31.6278 25.3089 31.3532 25.3446 31.2053 25.5358ZM12.7314 27.0208C12.5767 26.6628 12.3552 26.3117 12.0554 25.9475C11.9007 25.7605 11.625 25.7345 11.4383 25.8875C11.251 26.0414 11.2247 26.318 11.3783 26.5047C11.6255 26.8047 11.8048 27.0873 11.9264 27.3691C12.0249 27.5958 12.2861 27.6917 12.503 27.5974C12.7251 27.5012 12.8273 27.2432 12.7314 27.0208Z" fill="#051328"/>
<path d="M11.1865 32.5637C10.1346 33.2987 10.2398 34.4577 10.1223 35.4098C9.98156 36.4472 9.74472 37.7112 10.3997 38.4559C10.7654 38.8719 11.292 39 11.8442 39C18.8927 38.9444 17.8859 38.9288 18.4035 38.9532C18.8991 38.98 19.7606 38.7976 19.9998 37.3263C20.1844 36.1905 20.2437 35.6266 20.3298 34.8711C20.4023 34.206 20.4936 33.3778 19.9832 32.7544C19.8956 32.6474 19.7898 32.5678 19.6739 32.5074C20.1503 30.4561 19.5784 28.3032 18.0273 26.7617C17.3259 26.064 16.3367 25.7679 15.8749 25.1095C15.1875 24.1278 14.4875 23.1926 13.8938 22.407C13.0933 21.3469 12.2254 20.3368 10.8594 20.3279C11.2735 18.9593 11.3994 17.5093 11.2173 16.0894C11.1619 15.6604 11.0706 15.1617 10.8096 14.7164C10.1391 13.5689 8.77385 13.4728 7.91678 14.5311C7.23435 15.3724 7.17726 16.1457 7.04612 17.203C6.72467 19.5786 5.20975 22.2892 6.48833 24.947C7.14874 26.3194 7.88045 26.9076 10.5933 29.7819C11.3714 30.6019 11.9391 31.2115 11.8717 32.2952C11.6308 32.3398 11.3938 32.4189 11.1865 32.5637ZM11.2298 29.1787C8.83171 26.6408 7.88919 25.8358 7.27849 24.5668C6.16082 22.2433 7.57694 19.8116 7.91507 17.3209C8.03222 16.3764 8.061 15.745 8.59789 15.0835C9.04929 14.525 9.67967 14.5199 10.0526 15.1594C10.4358 15.8132 10.7214 18.1959 9.85403 20.5699C8.85038 21.1089 8.59757 22.3965 8.9433 23.4121C9.18994 24.1355 9.66951 24.7084 10.06 25.1266C10.225 25.3041 10.5031 25.3124 10.6795 25.148C10.8565 24.9827 10.8662 24.7052 10.7006 24.5283C10.37 24.174 9.96582 23.695 9.77342 23.1295C9.57817 22.5557 9.65181 21.7521 10.1742 21.393C10.539 21.1422 11.1861 21.1193 11.7854 21.4801C12.3528 21.8221 12.7805 22.3881 13.1938 22.9359C13.7836 23.715 14.4773 24.6424 15.1567 25.6124C15.7621 26.4775 16.7817 26.7606 17.4095 27.3834C18.7411 28.7075 19.2348 30.5557 18.8142 32.3293C18.6549 32.3249 12.8967 32.2474 12.7503 32.2443C12.7666 31.7434 12.6812 31.2489 12.467 30.7978C12.1667 30.167 11.6906 29.6646 11.2298 29.1787ZM26.3022 19.0528C31.205 16.479 33.9744 9.74652 29.3361 4.58163C27.6951 2.66941 26.1474 1.95052 23.7279 1.34564C16.8947 -0.482273 10.2486 5.2337 11.2727 11.5752C11.2732 11.5866 11.2749 11.5946 11.2761 11.5971C11.2761 11.5986 11.2767 11.6 11.2767 11.6014C11.2767 13.1116 12.9574 16.5583 14.6537 17.77C15.7561 18.8724 18.5162 20.2683 21.2787 20.2683C22.6542 20.2683 24.8776 19.8036 26.3022 19.0528ZM14.2466 16.1106C14.2466 16.1103 14.1895 16.0458 14.1889 16.0455C12.2713 13.6975 12.1136 11.2736 12.1279 11.3322C11.2666 5.67066 17.3186 0.540624 23.5081 2.1946C25.0129 2.57305 26.2514 2.98362 27.4343 3.95704C33.4146 9.05134 30.5637 15.8253 25.894 18.2766C24.8492 18.8273 23.6474 19.0902 22.6089 19.2749C19.5608 19.8234 16.0926 18.3719 14.2466 16.1106Z" fill="#051328"/>
<path d="M8.64354 6.09766C8.80226 5.91468 8.78285 5.63778 8.59958 5.47935L5.73355 2.99298C5.55142 2.83427 5.27395 2.85339 5.11524 3.03666C4.95652 3.21964 4.97593 3.49654 5.1592 3.65525L8.02523 6.14162C8.20616 6.29947 8.48389 6.28199 8.64354 6.09766ZM2.60318 7.54895C2.62471 7.78763 2.83474 7.96758 3.07933 7.94631L7.25848 7.56836C7.49998 7.54638 7.67754 7.33342 7.65585 7.09221C7.63415 6.85099 7.41492 6.67201 7.1797 6.69485L3.00054 7.0728C2.75904 7.09478 2.58148 7.30773 2.60318 7.54895ZM5.68102 11.1849L7.78259 9.25087C7.96072 9.08701 7.97214 8.80955 7.80828 8.63142C7.645 8.45329 7.36639 8.44216 7.18883 8.60573L5.08726 10.5397C4.90913 10.7036 4.89772 10.9811 5.06157 11.1592C5.22406 11.3362 5.50128 11.35 5.68102 11.1849ZM27.2773 11.9068C28.0229 11.9068 28.6293 11.2965 28.6293 10.546C28.6293 9.79581 28.0229 9.1855 27.2773 9.1855C26.5266 9.1855 25.9162 9.79581 25.9162 10.546C25.9162 11.2965 26.5266 11.9068 27.2773 11.9068ZM15.5603 9.1855C14.8101 9.1855 14.1998 9.79581 14.1998 10.546C14.1998 11.2965 14.8101 11.9068 15.5603 11.9068C16.3059 11.9068 16.9122 11.2965 16.9122 10.546C16.9122 9.79581 16.3059 9.1855 15.5603 9.1855Z" fill="#051328"/>
<path d="M21.1856 14.1181L19.5343 11.2347V10.8503H19.7265C20.0352 10.8503 20.2944 10.8211 20.5041 10.7629C20.7196 10.7046 20.8886 10.6085 21.0109 10.4745C21.1332 10.3406 21.206 10.1571 21.2293 9.92409H19.5343V9.36489H21.2206C21.1798 9.14936 21.0983 8.97461 20.9759 8.84064C20.8536 8.70084 20.6876 8.5989 20.4779 8.53483C20.274 8.47075 20.0236 8.43871 19.7265 8.43871H19.5343V7.87952H23.1516V8.43871H21.5002C21.6342 8.54939 21.7448 8.68045 21.8322 8.8319C21.9196 8.98335 21.9749 9.16101 21.9982 9.36489H23.1516V9.92409H22.0157C21.9749 10.3493 21.8118 10.6813 21.5264 10.9202C21.2468 11.1532 20.874 11.3017 20.408 11.3658L22.0769 14.1181H21.1856Z" fill="black"/>
</svg>
