<svg width="36" height="40" viewBox="0 0 36 40" fill="none" xmlns="http://www.w3.org/2000/svg">
<g id="Group 1321314508">
<path id="Vector" d="M32.2306 18.2104L33.4938 19.4736V39.2253C33.4938 39.6531 33.1469 39.9999 32.7191 39.9999H0.867141L0.0976562 39.0215C10.7149 39.0215 21.4978 39.3781 32.094 38.7106C32.2397 31.8638 32.4377 25.0557 32.2306 18.2104Z" fill="#051328"/>
<path id="Vector_2" d="M30.0783 6.7042C30.7609 7.69242 31.1015 8.88441 31.2342 10.0781C31.3669 11.2718 31.3024 12.4777 31.2377 13.677C31.1552 15.207 31.0727 16.737 30.9901 18.2671C30.9516 18.9814 30.8299 19.8286 30.1873 20.1429C30.4322 18.0721 30.5601 15.9875 30.5702 13.9023C30.5797 11.9563 30.4809 9.97856 29.8532 8.13657C29.2496 6.36497 28.1626 4.92938 26.6016 3.90625C27.8828 4.34489 29.318 5.60352 30.0783 6.7042Z" fill="#051328"/>
<path id="Vector_3" d="M32.0479 39.3338H0.463326C0.207531 39.3338 0 39.1263 0 38.8705V18.3433C0 18.1747 0.0916996 18.0193 0.239505 17.9376C0.387311 17.8564 0.567393 17.8616 0.710373 17.9512C6.23921 21.4336 12.099 25.6914 16.6463 29.0619C18.8205 27.465 21.1812 25.8365 23.467 24.2595C26.1743 22.3917 28.9739 20.4602 31.5442 18.5294C31.6841 18.4241 31.8706 18.4072 32.0274 18.4842C32.184 18.5614 32.2838 18.7201 32.2859 18.8947L32.5112 38.8654C32.5128 38.9891 32.4645 39.1082 32.3773 39.1963C32.2904 39.2844 32.1716 39.3338 32.0479 39.3338ZM0.926652 38.4072H31.5795L31.3695 19.8153C28.9911 21.5742 26.4542 23.3244 23.9934 25.022C21.6161 26.6621 19.1583 28.3579 16.9207 30.0106C16.7564 30.1319 16.5331 30.1316 16.3693 30.0103C11.9904 26.761 6.33061 22.6357 0.926652 19.1858V38.4072Z" fill="#051328"/>
<path id="Vector_4" d="M3.01724 20.2206C2.76265 20.2206 2.55573 20.0152 2.55392 19.7606L2.44532 4.16107C2.44351 3.90498 2.64954 3.69624 2.90533 3.69443H2.90865C3.16324 3.69443 3.37017 3.89985 3.37198 4.15444L3.48057 19.754C3.48238 20.0101 3.27636 20.2188 3.02056 20.2206H3.01724Z" fill="#051328"/>
<path id="Vector_5" d="M30.1951 20.3844C29.9215 20.3675 29.7312 20.1759 29.7318 19.9198L29.7577 9.9161L26.4629 9.70465C25.7989 9.66181 25.2907 9.11644 25.3051 8.46308C25.3199 7.82118 25.3965 7.18803 25.4707 6.57569C25.5558 5.87437 25.637 5.20532 25.6321 4.52933L2.90985 4.58272H2.90864C2.65315 4.58272 2.44592 4.3761 2.44531 4.1206C2.44471 3.86451 2.65164 3.65668 2.90743 3.65607L26.0777 3.60178H26.0789C26.3229 3.60178 26.525 3.79091 26.5413 4.03433C26.6019 4.94651 26.4945 5.83153 26.3908 6.6873C26.316 7.30446 26.2451 7.88784 26.2318 8.48419C26.2282 8.63924 26.3558 8.76925 26.5223 8.77981L30.2518 9.01931C30.4961 9.035 30.6862 9.238 30.6856 9.48294L30.6584 19.9223C30.6578 20.1777 30.4503 20.3844 30.1951 20.3844Z" fill="#051328"/>
<path id="Vector_6" d="M30.223 9.7011C30.0109 9.7011 29.8194 9.5548 29.7711 9.33913C29.2942 7.21223 27.8889 5.42619 25.9149 4.43921C25.6859 4.32459 25.5933 4.04647 25.7077 3.81752C25.8223 3.58858 26.1007 3.49688 26.3294 3.61029C28.5534 4.72246 30.1373 6.73654 30.6754 9.13642C30.7313 9.38618 30.5744 9.63383 30.3246 9.68994C30.2906 9.69748 30.2565 9.7011 30.223 9.7011ZM0.506776 18.593C0.328504 18.593 0.158678 18.4898 0.0823622 18.3164C-0.0208 18.082 0.0856803 17.8087 0.319756 17.7055C0.834362 17.4793 1.26481 17.2754 1.72512 17.0573C2.04667 16.9053 2.3824 16.7463 2.77092 16.568C3.00379 16.4625 3.27859 16.5635 3.38507 16.7961C3.49185 17.0286 3.38989 17.3034 3.15702 17.4102C2.77273 17.5867 2.44002 17.7442 2.12178 17.895C1.65363 18.1164 1.21624 18.3236 0.693192 18.5538C0.63226 18.5803 0.568915 18.593 0.506776 18.593ZM31.9478 19.0409C31.8069 19.0409 31.6679 18.977 31.5768 18.8557C31.317 18.5091 31.0193 18.1586 30.7249 17.8117C30.4673 17.508 30.2121 17.2066 29.9847 16.9134C29.8275 16.7113 29.8643 16.4202 30.0664 16.2634C30.2688 16.1065 30.5602 16.143 30.7165 16.3451C30.9364 16.6284 31.1831 16.9192 31.4317 17.2124C31.733 17.5677 32.0446 17.9348 32.3182 18.2995C32.4717 18.5043 32.4301 18.7948 32.2256 18.9483C32.142 19.0108 32.0446 19.0409 31.9478 19.0409ZM0.629244 39.119C0.500441 39.119 0.372243 39.0656 0.280844 38.9612C0.111923 38.7691 0.130927 38.4762 0.323376 38.3076L13.193 27.0128C13.3852 26.8436 13.6784 26.8632 13.8467 27.0553C14.0156 27.2475 13.9966 27.5404 13.8042 27.709L0.934508 39.0038C0.846729 39.081 0.737534 39.119 0.629244 39.119ZM31.4498 39.1395C31.3219 39.1395 31.1949 39.087 31.1035 38.9841C30.2574 38.0343 29.4233 37.0907 28.5902 36.1487C26.003 33.2221 23.3274 30.196 20.3839 27.0819C20.2081 26.896 20.2162 26.6025 20.4023 26.427C20.5882 26.2514 20.8814 26.259 21.0572 26.4454C24.0112 29.5704 26.6919 32.6026 29.2846 35.5348C30.1168 36.476 30.9502 37.4189 31.7955 38.3682C31.9656 38.5591 31.9487 38.852 31.7574 39.0222C31.6694 39.1009 31.5593 39.1395 31.4498 39.1395ZM20.8424 9.74182H7.25396C6.99817 9.74182 6.79063 9.53429 6.79063 9.2785C6.79063 9.0227 6.99817 8.81517 7.25396 8.81517H20.8424C21.0982 8.81517 21.3058 9.0227 21.3058 9.2785C21.3058 9.53429 21.0982 9.74182 20.8424 9.74182ZM17.3201 14.0858H6.98248C6.72669 14.0858 6.51915 13.8783 6.51915 13.6225C6.51915 13.3667 6.72669 13.1592 6.98248 13.1592H17.3201C17.5759 13.1592 17.7835 13.3667 17.7835 13.6225C17.7835 13.8783 17.5759 14.0858 17.3201 14.0858ZM14.0349 18.2672H7.03678C6.78098 18.2672 6.57345 18.0597 6.57345 17.8039C6.57345 17.5481 6.78098 17.3405 7.03678 17.3405H14.0349C14.2907 17.3405 14.4983 17.5481 14.4983 17.8039C14.4983 18.0597 14.2907 18.2672 14.0349 18.2672ZM30.3198 3.78917C30.2531 3.78917 30.1856 3.77469 30.1213 3.74422C29.8903 3.63443 29.7919 3.35812 29.9017 3.12706L31.2618 0.264452C31.3713 0.033091 31.6479 -0.0646418 31.879 0.0448551C32.1101 0.154654 32.2084 0.43096 32.0986 0.66202L30.7385 3.52463C30.6592 3.69174 30.493 3.78917 30.3198 3.78917ZM31.9131 5.24822C31.7478 5.24822 31.5879 5.15954 31.5044 5.00359C31.3834 4.77826 31.4685 4.49743 31.6941 4.37647L33.9745 3.15451C34.2002 3.03385 34.481 3.11861 34.602 3.34394C34.7229 3.56957 34.6379 3.8504 34.4125 3.97136L32.1315 5.19332C32.0618 5.23073 31.987 5.24822 31.9131 5.24822Z" fill="#051328"/>
<g id="Group">
<path id="Vector_7" d="M34.8428 7.98035C34.8048 7.98035 34.7662 7.97583 34.7276 7.96587L32.4501 7.38219C32.2022 7.31855 32.0526 7.06607 32.1162 6.81842C32.1799 6.57077 32.4305 6.41934 32.68 6.4845L34.9574 7.06818C35.2054 7.13183 35.355 7.3843 35.2913 7.63195C35.2376 7.8413 35.0494 7.98035 34.8428 7.98035Z" fill="#051328"/>
</g>
</g>
</svg>
