<svg width="115" height="59" viewBox="0 0 115 59" fill="none" xmlns="http://www.w3.org/2000/svg">
<path d="M31.2124 22.074C31.8679 22.1982 32.5004 22.419 33.0961 22.7042C33.6918 22.9917 34.2576 23.3436 34.759 23.7806C35.2903 24.236 35.7733 24.7811 36.185 25.3538C36.7416 26.1151 37.1694 27.0075 37.3166 28.0448C37.3902 28.56 37.3856 29.1097 37.2798 29.6571C37.174 30.2045 36.9647 30.7427 36.6864 31.2004C36.1275 32.125 35.3731 32.7828 34.6003 33.2842C33.8229 33.7879 32.965 34.1536 32.0726 34.3721C30.9732 34.6435 29.8209 34.7033 28.6847 34.5308C28.1235 34.4457 27.5416 34.2985 26.9804 34.0777C26.4215 33.8546 25.8787 33.5602 25.3681 33.1738C24.8598 32.7805 24.3791 32.2952 24.0042 31.688C23.8179 31.3844 23.6592 31.0578 23.5419 30.7105C23.4315 30.3655 23.3441 30.0182 23.3073 29.6617C23.2268 28.9487 23.3096 28.2426 23.4844 27.6239C23.6592 27.0029 23.9145 26.4486 24.1997 25.9587C24.547 25.3607 25.0438 24.9099 25.536 24.5304C26.0098 24.167 26.5802 24.2084 27.1322 24.4522C27.9395 24.8156 28.3259 25.6597 28.0522 26.2784C27.8751 26.674 27.6106 27.0098 27.353 27.3065C27.0563 27.6469 26.8171 28.0103 26.6791 28.3599C26.5411 28.7118 26.4997 29.0407 26.5503 29.3305C26.5549 29.4041 26.5848 29.4754 26.6055 29.5467C26.6216 29.6203 26.6607 29.6801 26.6883 29.7445C26.755 29.871 26.8516 29.986 26.9597 30.0964C27.1851 30.3149 27.4956 30.4966 27.8544 30.6116C28.0522 30.6737 28.2661 30.7151 28.4731 30.7565C28.6824 30.8002 28.8779 30.8416 29.0849 30.9428C29.7381 31.2556 30.5178 31.2786 31.2377 31.1222C31.9645 30.9681 32.643 30.6438 33.2594 30.2873C33.7148 30.0251 34.0529 29.6686 34.2231 29.3213C34.3933 28.9832 34.4347 28.5922 34.3726 28.1299C34.322 27.7228 34.1518 27.2835 33.908 26.8856C33.7838 26.6878 33.6458 26.4923 33.4871 26.3221C33.4089 26.2347 33.3146 26.1519 33.2295 26.0645C33.1421 25.9794 33.0409 25.9081 32.9466 25.8253C32.1623 25.2158 31.1273 24.8501 30.0716 24.811C29.6507 24.7995 29.2367 24.765 28.8043 24.7236C28.3719 24.6753 27.9119 24.5948 27.3852 24.4959C26.8999 24.3993 26.4744 23.7645 26.8907 23.3436C27.4726 22.7686 28.2569 22.3546 29.0849 22.1476C29.7703 21.9751 30.4971 22.0349 31.1894 22.1223C31.194 22.1062 31.1986 22.0901 31.2032 22.0717L31.2124 22.074Z" fill="#475569"/>
<path d="M24.2828 51.3387C24.7934 51.5963 25.3086 51.916 25.787 52.3415C26.2654 52.7647 26.6978 53.3282 26.9715 53.9538L27.0796 54.2022C27.1095 54.2873 27.1325 54.3724 27.1601 54.4575C27.2084 54.63 27.2636 54.7956 27.2912 54.9796L27.3372 55.2487L27.3625 55.5201C27.3832 55.7018 27.3786 55.8789 27.3832 56.056C27.3786 56.5298 27.3004 56.9898 27.1693 57.4199C27.0336 57.8477 26.8473 58.2433 26.6265 58.6113C26.1803 59.3427 25.5984 59.9637 24.8877 60.4536C23.4847 61.415 21.7965 61.7715 20.1658 61.5898C19.163 61.4702 18.1694 61.1505 17.277 60.6031C17.0493 60.4743 16.84 60.311 16.6261 60.1569C16.4145 59.989 16.2098 59.8096 16.0189 59.6141C15.6371 59.2231 15.2921 58.7769 15.0184 58.2456C14.7447 57.7212 14.5423 57.0979 14.4986 56.4217C14.4549 55.7386 14.5837 55.0693 14.8436 54.4552C15.1058 53.8434 15.4922 53.3328 15.897 52.9349C16.3041 52.5393 16.7296 52.2357 17.1505 51.9804C17.6611 51.6722 18.2269 51.548 18.7536 51.4721C19.2619 51.3985 19.6966 51.7113 20.0531 52.1874C20.5683 52.8866 20.5821 53.8066 20.1405 54.1976C19.8599 54.4483 19.5287 54.5955 19.2159 54.7059C18.8548 54.8324 18.5328 54.998 18.2913 55.1843C18.0475 55.3729 17.8957 55.5753 17.8313 55.7639C17.806 55.8099 17.8129 55.8605 17.7968 55.9065C17.7876 55.9548 17.7968 56.0077 17.7876 56.0537C17.7899 56.1457 17.8129 56.2331 17.852 56.3274C17.9256 56.5137 18.0866 56.7161 18.3051 56.8909C18.4247 56.9875 18.5696 57.068 18.7053 57.1531C18.7743 57.1968 18.8364 57.2405 18.8985 57.2911C18.9652 57.3394 19.0227 57.3992 19.071 57.4705C19.2412 57.6867 19.4666 57.8661 19.7196 57.9995C19.9772 58.126 20.2601 58.2088 20.5499 58.2571C20.842 58.2962 21.1364 58.3077 21.4308 58.2939C21.7229 58.2732 22.0127 58.2387 22.3002 58.195C22.728 58.1283 23.1397 57.9443 23.4594 57.7143C23.7929 57.4728 24.0781 57.1554 24.2943 56.8288C24.4852 56.5367 24.6117 56.2285 24.6416 55.9433C24.6669 55.7984 24.6508 55.6604 24.6347 55.5178C24.6117 55.4465 24.5979 55.3683 24.5795 55.2947C24.5473 55.228 24.5243 55.1544 24.4921 55.0831C24.3564 54.8071 24.1172 54.5403 23.7837 54.308C23.4525 54.0734 23.0385 53.8779 22.5923 53.7238C21.877 53.48 21.1778 53.1189 20.5223 52.3806C20.221 52.0379 20.2831 51.2789 20.7063 51.1432C21.302 50.9523 21.9483 50.8764 22.6084 50.9178C23.1535 50.9546 23.694 51.157 24.2529 51.3847C24.2621 51.3686 24.269 51.3548 24.2759 51.3387H24.2828Z" fill="#475569"/>
<path d="M54.4773 42.2356C54.7993 42.4127 55.1236 42.6243 55.4433 42.9003C55.763 43.1855 56.0758 43.5466 56.3058 43.9905C56.3633 44.1124 56.4162 44.2343 56.4645 44.3562C56.5059 44.4827 56.5404 44.6115 56.5749 44.738C56.6117 44.8668 56.6209 44.991 56.6416 45.1175L56.6692 45.3061L56.6807 45.5016C56.7106 45.8512 56.6577 46.2123 56.5634 46.5481C56.4622 46.8793 56.3127 47.1852 56.1379 47.4451C55.786 47.9741 55.3536 48.3421 54.9005 48.6388C54.4428 48.9332 53.9529 49.1402 53.4101 49.2644C52.8788 49.384 52.3659 49.4139 51.8415 49.3679C51.1998 49.3012 50.5535 49.1402 49.921 48.7906C49.6059 48.625 49.3 48.3973 49.0148 48.1328C48.7319 47.8637 48.4789 47.5371 48.2788 47.176C48.2305 47.0863 48.1868 46.992 48.1431 46.8977L48.081 46.7551C48.0603 46.7022 48.0396 46.6378 48.0212 46.5803C47.9844 46.4607 47.9499 46.3411 47.92 46.2192C47.8993 46.0996 47.8832 45.98 47.8694 45.8604C47.8533 45.7385 47.851 45.6235 47.8533 45.5085C47.8556 45.3935 47.8579 45.2762 47.8694 45.1658C47.8993 44.9496 47.9338 44.7265 47.9982 44.5287C48.2397 43.7168 48.6951 43.0498 49.4012 42.5116C49.8359 42.1919 50.4845 42.0516 51.1009 42.1459C51.3953 42.1804 51.623 42.369 51.7495 42.5829C51.8737 42.8106 51.8967 43.0935 51.8576 43.3764C51.7978 43.7927 51.5724 44.163 51.4229 44.485C51.3838 44.5655 51.3493 44.6414 51.3217 44.7127C51.3102 44.7449 51.2964 44.7794 51.2849 44.8162L51.2711 44.8599V44.8484L51.278 44.8231C51.278 44.8231 51.278 44.8231 51.278 44.8208C51.2711 44.8438 51.2895 45.0071 51.3884 45.1819L51.4091 45.2233L51.3953 45.2072C51.3838 45.1957 51.37 45.2026 51.3539 45.2003C51.3355 45.1957 51.3217 45.2072 51.3033 45.2118C51.2849 45.2164 51.2665 45.2256 51.2527 45.2394C51.186 45.2854 51.1331 45.3705 51.1308 45.4372C51.1216 45.4556 51.1308 45.4671 51.1308 45.4809C51.1308 45.4947 51.1331 45.5062 51.1446 45.5131C51.1538 45.5177 51.1492 45.5315 51.1653 45.5292H51.1791L51.1331 45.5384C51.1216 45.5384 51.1055 45.543 51.0848 45.5522H51.0802V45.5545C50.9514 45.6051 51.255 45.4855 51.2251 45.497L51.232 45.5016L51.2481 45.5085L51.2757 45.52C51.2895 45.5292 51.3171 45.5315 51.3378 45.5361C51.3562 45.5407 51.3792 45.543 51.4045 45.5407C51.5103 45.543 51.6322 45.474 51.6529 45.6235C51.6713 45.7454 51.7541 45.8374 51.853 45.9064C51.9565 45.9708 52.0807 46.0122 52.2118 46.0306C52.4694 46.0674 52.7592 46.0352 52.9777 46.0444C53.164 46.0536 53.3595 45.9869 53.5067 45.8995C53.6562 45.8121 53.762 45.7109 53.8287 45.6603C53.8862 45.612 53.9138 45.6074 53.946 45.5706C53.969 45.5154 53.9943 45.4648 53.9759 45.3889C53.9575 45.3084 53.8701 45.1842 53.7206 45.0646C53.5734 44.9427 53.3641 44.8323 53.1364 44.738C52.773 44.5839 52.4326 44.2711 52.0876 43.5581C51.9289 43.2269 51.9726 42.4679 52.2371 42.3184C52.6074 42.1068 53.0122 42.0033 53.4285 41.9941C53.7735 41.9872 54.107 42.1459 54.4566 42.2793C54.4635 42.2632 54.4704 42.2494 54.4773 42.2333V42.2356Z" fill="#475569"/>
<path d="M70.1585 13.495C70.8531 13.6215 71.6029 13.8561 72.2883 14.2678L72.424 14.3483L72.5712 14.4472C72.6701 14.5139 72.769 14.5806 72.8564 14.6565C73.0404 14.7991 73.2037 14.9486 73.3739 15.0958C73.8155 15.4914 74.1743 15.9629 74.4365 16.5264C74.6941 17.0853 74.8459 17.7753 74.7355 18.5412C74.6297 19.3071 74.1651 20.0799 73.5901 20.5422C73.0105 21.0206 72.3872 21.2529 71.8283 21.3817C71.1268 21.5335 70.5104 21.5496 69.8526 21.4898C69.1994 21.4185 68.5255 21.2529 67.8677 20.9194C67.5411 20.7515 67.2191 20.5445 66.9224 20.2915C66.7729 20.165 66.6349 20.0293 66.4969 19.8821C66.352 19.7188 66.2209 19.5509 66.1059 19.3738C65.6528 18.6677 65.409 17.8834 65.4044 17.0393C65.3998 16.5287 65.6252 15.9997 65.9541 15.5719C66.1151 15.3672 66.3405 15.2545 66.5912 15.2407C66.835 15.2223 67.1064 15.3028 67.3594 15.4385C67.732 15.6386 68.0149 15.9629 68.2541 16.2251C68.3714 16.3562 68.4795 16.4735 68.5646 16.5609C68.6566 16.6552 68.7256 16.715 68.7647 16.7518C68.8659 16.8438 68.859 16.8622 68.7992 16.9266C68.6612 17.0761 68.6865 17.4142 68.8383 17.5844C68.8567 17.6074 68.8728 17.6281 68.8958 17.6419L68.9257 17.6672L68.9694 17.6971C69.0246 17.7385 69.089 17.7684 69.158 17.7937C69.296 17.8443 69.457 17.865 69.6295 17.8535C69.8227 17.842 70.0274 17.7523 70.1953 17.8926C70.469 18.1157 70.8692 18.1456 71.1475 18.0973C71.2855 18.072 71.4051 18.0329 71.481 17.9984C71.5615 17.9662 71.596 17.9478 71.642 17.957C71.6949 17.957 71.7317 17.98 71.7432 17.8995C71.757 17.8236 71.7432 17.6787 71.6949 17.5062C71.6512 17.3521 71.5707 17.1888 71.4695 17.0485C71.4419 17.0163 71.4166 16.9841 71.389 16.9473C71.3591 16.9197 71.3315 16.8898 71.3039 16.8576C71.274 16.8346 71.2464 16.807 71.2142 16.7794L71.0785 16.692C70.7059 16.4666 70.1953 16.3332 69.6134 16.2872C69.1534 16.2458 68.6612 16.0388 68.1414 15.4132C67.9022 15.1234 67.8217 14.3667 68.0402 14.1666C68.3507 13.886 68.7118 13.6882 69.1074 13.5686C69.434 13.4697 69.7974 13.5249 70.1654 13.5433C70.1654 13.5249 70.17 13.5088 70.1723 13.4927L70.1585 13.495Z" fill="#475569"/>
<path d="M93.5675 45.2339C94.108 45.7974 94.545 46.4782 94.8394 47.2096C95.1292 47.941 95.2764 48.7046 95.2833 49.4521C95.2925 50.2456 95.1591 51.0184 94.9544 51.7682C94.8187 52.2696 94.6163 52.7595 94.3564 53.2241C94.2299 53.4587 94.0735 53.6795 93.9171 53.9003C93.7469 54.1142 93.5744 54.3235 93.3835 54.5098C92.6314 55.2757 91.6976 55.8116 90.7431 56.152C90.2647 56.3176 89.7771 56.4395 89.2895 56.52C88.8019 56.5959 88.312 56.635 87.8244 56.6396C87.3368 56.6396 86.8515 56.6051 86.3708 56.5361C85.8947 56.4671 85.4163 56.3636 84.9379 56.2164C84.3491 56.0347 83.7557 55.7863 83.1876 55.4436C82.6195 55.0986 82.0744 54.6639 81.6121 54.1142C80.6783 53.0148 80.2091 51.644 80.1355 50.3123C80.0596 48.976 80.3586 47.6213 81.0509 46.4299C81.7294 45.2661 82.7184 44.3484 83.8201 43.7159C84.4894 43.3318 85.2622 43.1616 85.9982 43.1041C86.7135 43.0535 87.2172 43.4445 87.4978 43.9896C87.7048 44.3875 87.7071 44.8153 87.6105 45.1764C87.5093 45.5352 87.3138 45.825 87.0309 45.9906C86.6721 46.1999 86.2834 46.3264 85.8993 46.4529C85.0138 46.7335 84.2479 47.3545 83.8385 48.1227C83.4452 48.8656 83.3923 49.8408 83.7074 50.5952C83.7856 50.8068 83.9098 50.9931 84.0156 51.1702C84.126 51.345 84.2249 51.5037 84.2893 51.6877C84.3882 51.9729 84.5975 52.2489 84.8804 52.4697C85.1587 52.6951 85.5129 52.8699 85.897 53.001C86.2811 53.1321 86.702 53.2264 87.1252 53.2862C87.5461 53.3483 87.9693 53.3805 88.3902 53.3943C88.703 53.4081 89.0158 53.3874 89.3171 53.3345C89.6207 53.2862 89.9105 53.2034 90.1819 53.0976C90.4579 52.9964 90.7086 52.8607 90.9409 52.7089C91.1755 52.5617 91.3871 52.38 91.5757 52.1937C91.9115 51.8648 92.1714 51.4278 92.3485 50.9494C92.5141 50.4664 92.5969 49.9397 92.5555 49.4199C92.5371 49.1623 92.4957 48.9047 92.4175 48.6609C92.3485 48.4125 92.2427 48.1825 92.1139 47.9571C91.9897 47.7294 91.8172 47.5247 91.6401 47.3246C91.4538 47.1314 91.2445 46.952 91.0191 46.7956C90.658 46.5449 90.2877 46.3172 89.9036 46.0642C89.5172 45.8158 89.1101 45.5444 88.6248 45.2431C88.1809 44.9763 88.0061 44.2265 88.6386 43.9873C89.0756 43.8401 89.5494 43.7642 90.0347 43.7573C90.5154 43.7619 91.0053 43.8309 91.4745 43.9689C92.2519 44.1989 92.9327 44.7072 93.5353 45.2638C93.5491 45.2523 93.5606 45.2431 93.5767 45.2316L93.5675 45.2339Z" fill="#475569"/>
<path d="M106.887 24.2915C107.11 24.6503 107.275 25.0206 107.365 25.4208C107.457 25.8187 107.496 26.2304 107.441 26.6651C107.432 26.7778 107.409 26.8905 107.381 27.0055C107.351 27.1205 107.33 27.2309 107.287 27.3436L107.163 27.6771L107.031 27.96C106.801 28.4637 106.443 28.9007 106.038 29.2273C105.631 29.5562 105.18 29.7885 104.715 29.9403C104.248 30.0921 103.765 30.1657 103.266 30.1542C102.774 30.145 102.245 30.0392 101.774 29.8391C101.194 29.5953 100.679 29.2411 100.237 28.7627C99.8026 28.2889 99.4323 27.6702 99.2782 26.9204C99.2368 26.7364 99.2184 26.5409 99.2046 26.3477C99.2046 26.1476 99.1977 25.9728 99.2368 25.7336C99.2644 25.5036 99.3265 25.2966 99.3955 25.0896C99.4737 24.8941 99.5588 24.6963 99.6646 24.5284C99.8716 24.1765 100.127 23.8844 100.419 23.6406C100.709 23.3922 101.04 23.1898 101.419 23.0449C101.875 22.8655 102.457 22.9 102.967 23.1047C103.213 23.199 103.379 23.406 103.446 23.6406C103.512 23.8752 103.48 24.1535 103.386 24.4249C103.248 24.8205 102.97 25.1517 102.774 25.4461C102.682 25.5749 102.569 25.7888 102.609 25.7129C102.613 25.6991 102.604 25.7267 102.606 25.7221C102.59 25.7704 102.581 25.9222 102.618 26.0625C102.622 26.0832 102.627 26.1039 102.634 26.1223C102.636 26.1315 102.641 26.1407 102.643 26.1499L102.648 26.1637C102.648 26.1637 102.636 26.1338 102.627 26.1338C102.609 26.12 102.586 26.1177 102.56 26.12C102.512 26.1269 102.475 26.1637 102.473 26.1867C102.468 26.1913 102.475 26.1959 102.477 26.2005C102.491 26.2097 102.45 26.1913 102.427 26.1844L102.356 26.1683C102.356 26.1683 102.335 26.166 102.323 26.166H102.319C102.756 26.1959 102.441 26.1752 102.537 26.1821H102.542L102.551 26.1913C102.592 26.2212 102.652 26.2373 102.73 26.2419C102.822 26.2534 102.951 26.2097 102.905 26.3339C102.841 26.5432 102.986 26.7042 103.135 26.7755C103.285 26.8537 103.43 26.856 103.618 26.9319C103.759 26.9871 103.915 26.9779 104.048 26.9457C104.184 26.9135 104.294 26.856 104.391 26.8169C104.478 26.7801 104.547 26.741 104.61 26.6881C104.619 26.6766 104.651 26.6536 104.651 26.6536C104.656 26.649 104.669 26.649 104.679 26.6444C104.683 26.6352 104.695 26.6283 104.706 26.6191C104.711 26.6053 104.718 26.5915 104.729 26.5754C104.794 26.4328 104.729 26.1223 104.593 25.9452C104.538 25.8808 104.531 25.7796 104.497 25.6071C104.462 25.4438 104.384 25.177 104.143 24.8872C103.926 24.6135 103.588 23.9097 103.954 23.6521C104.074 23.5601 104.214 23.5003 104.363 23.4474C104.515 23.3899 104.669 23.3623 104.83 23.3485C104.996 23.3301 105.15 23.3393 105.309 23.3577C105.472 23.3738 105.617 23.4129 105.764 23.4635C106.245 23.6268 106.581 23.9948 106.847 24.3329C106.861 24.3237 106.875 24.3145 106.891 24.303L106.887 24.2915Z" fill="#475569"/>
<path d="M11.4763 7.68716C12.1387 7.26626 12.8586 7.05696 13.6015 7.02246C14.0017 7.01556 14.3996 7.05236 14.8136 7.12366C15.361 7.20416 15.9429 7.44336 16.3937 7.81826C16.8514 8.19086 17.1941 8.67846 17.4103 9.18446C17.6311 9.69276 17.73 10.2218 17.7277 10.7462C17.7277 11.2706 17.6311 11.7996 17.4195 12.3125C17.1573 12.9381 16.6973 13.5545 16.0418 13.9846C15.3909 14.417 14.6112 14.6079 13.8959 14.5826C13.176 14.5596 12.5251 14.3503 11.957 14.0329C11.3889 13.7109 10.8921 13.2739 10.5011 12.7127C10.3769 12.5517 10.3079 12.3355 10.2504 12.1354C10.209 11.9192 10.1837 11.7053 10.1906 11.4891C10.1975 11.0682 10.6207 10.76 11.175 10.6266C11.5798 10.5254 12.0099 10.5415 12.3641 10.5553C12.7229 10.5737 12.9874 10.5783 13.1024 10.5898C13.176 10.599 13.2036 10.6082 13.2289 10.6266C13.2381 10.6358 13.2427 10.6473 13.2404 10.6611C13.2427 10.6749 13.245 10.691 13.2404 10.7117C13.2197 10.8037 13.2565 10.9003 13.3071 10.9923C13.3715 11.0751 13.452 11.1579 13.5555 11.1947C13.6544 11.243 13.7648 11.2453 13.8568 11.2315C13.9005 11.2108 13.9465 11.2085 13.9787 11.1717L14.0247 11.1303C14.0362 11.1096 14.0454 11.0912 14.0523 11.0728C14.0615 11.0544 14.0684 11.0314 14.0661 11.0038C14.0661 10.9785 14.0661 10.9624 14.0661 10.9486C14.0615 10.9302 14.0592 10.921 14.0615 10.9256L14.0661 10.9302V10.9325L14.0776 10.9555V10.9509V10.9463L14.0845 10.9624C14.1834 11.1211 14.3007 11.0682 14.3582 10.9532C14.4226 10.8336 14.4364 10.668 14.4985 10.5047C14.5514 10.3782 14.5307 10.2563 14.5031 10.1689C14.4732 10.0769 14.441 10.024 14.4065 9.96646C14.3789 9.91356 14.349 9.85606 14.2685 9.81466C14.2363 9.78246 14.1811 9.77786 14.1305 9.75256C14.073 9.74796 14.0132 9.72496 13.9465 9.72956C13.6774 9.70886 13.3439 9.82386 13.1162 10.0033C13.0748 10.0401 13.0127 10.0654 12.9552 10.093C12.923 10.1045 12.8885 10.116 12.8448 10.1275C12.808 10.139 12.7689 10.1505 12.7206 10.162L12.5619 10.2011L12.3825 10.2563C12.2422 10.2977 12.095 10.3552 11.9202 10.4334C11.5959 10.576 10.83 10.668 10.6759 10.3069C10.5609 10.0608 10.5287 9.78936 10.5218 9.50876C10.5333 9.23736 10.5839 8.95446 10.6874 8.70836C10.7633 8.49216 10.899 8.32656 11.0416 8.15866C11.1888 8.00456 11.3498 7.86656 11.5062 7.73546C11.497 7.72166 11.4855 7.70786 11.4763 7.69406V7.68716Z" fill="#475569"/>
<path d="M46.0346 11.7761C46.0507 11.8704 46.0392 11.9785 46.0047 12.1027C45.9863 12.1671 45.9679 12.2453 45.9035 12.289C45.8115 12.3534 45.7195 12.4339 45.6367 12.5627C45.5562 12.6892 45.5033 12.8364 45.478 12.9675C45.432 13.2343 45.4619 13.4229 45.5332 13.5632C45.5769 13.6483 45.6344 13.7242 45.7195 13.7932C45.7379 13.8093 45.7701 13.83 45.7816 13.8392C45.7931 13.8484 45.8092 13.8576 45.8207 13.8645C45.846 13.8783 45.869 13.8898 45.8851 13.8967C45.9587 13.9243 45.9472 13.899 45.8598 13.8829C45.8345 13.8783 45.8115 13.7449 45.7816 13.6115C45.754 13.4827 45.7563 13.048 45.7816 12.4799C45.8184 11.6542 45.9104 10.7733 46.0047 10.5732C46.0645 10.4444 46.1243 10.449 46.1795 10.5065C46.306 10.633 46.4509 10.6997 46.6303 10.7204C46.8097 10.7411 47.0282 10.7158 47.318 10.6859C47.4813 10.6721 47.6768 10.6215 47.7711 10.8262C47.9045 11.139 48.0494 11.3276 48.2035 11.5323C48.353 11.7347 48.5048 11.9601 48.5232 12.2568C48.5347 12.4707 48.5577 12.6961 48.5416 12.9353C48.5278 13.1745 48.4703 13.4344 48.3415 13.6529C48.2311 13.8369 48.0908 13.9979 47.9367 14.1198C47.7872 14.2394 47.6285 14.3245 47.4882 14.3751C47.2053 14.4763 46.9753 14.4832 46.789 14.474C46.6372 14.4648 46.4647 14.2325 46.2669 13.5747C46.1749 13.2711 46.0507 12.519 46.0484 12.3442C46.0484 12.0981 46.0484 11.9371 46.0415 11.8405C46.0369 11.76 46.053 11.8198 46.0507 11.8221C46.0461 11.806 46.0392 11.7899 46.0346 11.7738V11.7761Z" fill="#475569"/>
<path d="M78.1574 33.4499C78.2471 33.6293 78.3736 33.7052 78.4725 33.7397C78.5277 33.7604 78.5783 33.7581 78.576 33.7903C78.5622 33.8731 78.5484 33.9766 78.6151 34.1031C78.6473 34.1629 78.7048 34.2319 78.7876 34.2848C78.8313 34.3262 78.8612 34.3538 78.9003 34.3722C78.9463 34.3929 78.9854 34.4044 79.013 34.4067C79.0383 34.4136 79.0567 34.4067 79.0567 34.4067C79.0613 34.4044 79.0176 34.4067 78.9601 34.432C78.944 34.4389 78.8566 34.34 78.7623 34.248C78.6726 34.156 78.4058 33.8133 78.0585 33.3648C77.5502 32.7116 77.0488 31.9848 77.0258 31.7433C77.0097 31.5938 77.0787 31.5478 77.1707 31.5501C77.5939 31.5616 77.8492 31.3868 78.2103 30.9912C78.3092 30.8831 78.4311 30.7244 78.5829 30.821C79.0406 31.1361 79.4546 30.9222 79.9353 31.2557C80.2734 31.511 80.5816 31.7042 80.7633 32.0078C80.9197 32.2746 81.0094 32.5621 81.0439 32.8634C81.0761 33.1647 81.0508 33.4913 80.9289 33.811C80.8369 34.064 80.4344 34.248 79.8341 33.8892C79.5604 33.7282 79.0245 33.1785 78.8497 33.121C78.6151 33.0267 78.4081 33.0727 78.277 33.1624C78.1689 33.2452 78.2103 33.3625 78.208 33.4453C78.1896 33.4453 78.1735 33.4453 78.1574 33.4453V33.4499Z" fill="#475569"/>
<path d="M101.144 12.993C100.886 13.0229 100.642 13.0022 100.421 12.97C100.304 12.9539 100.191 12.9217 100.086 12.9539C99.8072 13.0367 99.4967 13.0919 99.1586 13.0689C98.8251 13.0505 98.4525 12.9332 98.1581 12.7331C97.797 12.487 97.5256 12.1535 97.3485 11.7855C97.1714 11.4175 97.0817 11.0081 97.084 10.578C97.084 10.4469 97.2243 10.3181 97.3692 10.2169C97.5118 10.118 97.9534 10.1364 98.51 10.2468C98.9148 10.3273 99.3265 10.4423 99.6669 10.5274C99.7014 10.5366 99.7336 10.5435 99.7589 10.5504C99.7635 10.5504 99.7681 10.5504 99.7704 10.5504C99.7842 10.5527 99.798 10.5527 99.8141 10.555C99.8854 10.5596 99.9429 10.532 99.9176 10.5435C99.913 10.5458 99.9015 10.5527 99.8923 10.5619C99.8739 10.5757 99.8532 10.5964 99.8348 10.6194C99.8256 10.6286 99.8164 10.6447 99.8118 10.6516C99.8118 10.6539 99.8026 10.6677 99.8049 10.6631L99.8118 10.647C99.8279 10.6125 99.8394 10.5619 99.8394 10.5297C99.8394 10.4653 99.8279 10.5044 99.8739 10.5757C99.8371 10.5205 100 10.8034 100.536 11.2151C100.787 11.4106 101.376 11.8982 101.433 12.0845C101.523 12.3444 101.507 12.5675 101.438 12.7331C101.38 12.8734 101.233 12.8895 101.123 12.9493C101.13 12.9654 101.137 12.9792 101.146 12.9953L101.144 12.993Z" fill="#475569"/>
<path d="M9.62462 37.1824C9.33253 37.0306 9.10023 36.8328 8.90473 36.6327C8.79893 36.5269 8.71383 36.4096 8.59193 36.3429C8.26763 36.1589 7.94793 35.9059 7.69263 35.5379C7.43733 35.1768 7.27402 34.6662 7.29242 34.1878C7.31542 33.6013 7.52932 33.0792 7.84672 32.6698C8.16413 32.2581 8.59423 31.9292 9.13243 31.7291C9.29803 31.6693 9.50963 31.7452 9.69133 31.8464C9.87073 31.943 10.0041 32.3754 10.057 32.9389C10.0984 33.3506 10.0915 33.7784 10.1053 34.128C10.1053 34.1763 10.1076 34.22 10.1099 34.2568C10.1099 34.2614 10.1099 34.2637 10.1099 34.2683C10.1099 34.2867 10.1168 34.3005 10.1237 34.3258C10.1398 34.3764 10.172 34.4339 10.1973 34.4661C10.2226 34.4983 10.2364 34.5029 10.218 34.4914C10.2065 34.4845 10.1881 34.473 10.1628 34.4615C10.1237 34.4431 10.0708 34.4293 10.0248 34.4247C10.011 34.4224 9.97883 34.4247 9.97423 34.4247C9.97193 34.4247 9.95583 34.4247 9.96043 34.4247C9.96733 34.4247 9.97423 34.4224 9.97883 34.4201C10.0179 34.4109 10.103 34.3672 10.149 34.3235C10.1904 34.2867 10.2019 34.2614 10.1904 34.2821C10.1789 34.3005 10.1559 34.3672 10.1513 34.4316C10.1513 34.4615 10.1168 34.7513 10.3698 35.3884C10.4871 35.6851 10.7355 36.4096 10.6504 36.6051C10.5423 36.8834 10.3468 37.0651 10.1421 37.1571C9.96732 37.2376 9.79943 37.1571 9.63843 37.1272C9.63383 37.1433 9.63153 37.1594 9.62693 37.1778L9.62462 37.1824Z" fill="#475569"/>
</svg>
