<svg width="218" height="226" viewBox="0 0 218 226" fill="none" xmlns="http://www.w3.org/2000/svg">
<g id="spark, sparkle, 27" clip-path="url(#clip0_463_679)">
<path id="Vector" d="M103.51 68.4772C102.82 70.088 102.123 71.6952 101.382 73.2862C101 74.1338 100.605 74.981 100.281 75.8517C98.5556 80.5007 96.8849 85.1737 95.0462 89.7805C93.9008 92.6112 92.726 95.4299 91.5216 98.2365L89.7023 102.441L87.836 106.624C87.4362 107.46 86.9698 108.263 86.4411 109.023C86.2387 109.345 85.9623 109.613 85.6347 109.805C85.3071 109.998 84.9378 110.109 84.5572 110.13C83.5043 110.212 82.8081 109.335 83.0879 108.11C83.2894 107.318 83.5895 106.556 83.9811 105.84C84.8416 104.192 85.6281 102.514 86.3407 100.805C87.0595 99.0985 87.7082 97.3623 88.2866 95.5963C88.6067 94.6219 88.8841 93.5843 89.3935 92.7224C91.0177 89.9669 92.0149 86.9183 93.4003 84.0523C94.4285 81.9214 95.2962 79.7088 96.2608 77.5446L98.8359 71.7528C99.683 69.8175 100.58 67.9018 101.433 65.9679C101.787 65.2243 102.19 64.5051 102.639 63.8151C103.08 63.1733 103.556 62.5568 104.065 61.9683C104.515 61.4467 104.923 61.6534 104.859 62.4406C104.765 63.5697 104.592 64.6901 104.341 65.7937C104.239 66.247 104.11 66.6963 103.962 67.1398C103.796 67.5762 103.63 68.0142 103.464 68.4495L103.51 68.4772Z" fill="#080808"/>
<path id="Vector_2" d="M143.701 100.081L141.974 101.507L140.209 102.893C139.586 103.384 138.96 103.878 138.383 104.421C137.611 105.142 136.847 105.874 136.087 106.608L133.794 108.797L129.221 113.183L123.576 118.57L117.96 123.988C117.376 124.521 116.754 125.011 116.099 125.455C115.838 125.648 115.535 125.776 115.214 125.831C114.893 125.885 114.564 125.864 114.251 125.769C113.384 125.524 113.095 124.623 113.692 123.721C114.092 123.143 114.566 122.619 115.101 122.163C117.49 120.044 119.741 117.776 121.841 115.37C122.383 114.668 123.003 114.03 123.691 113.469C125.923 111.851 127.776 109.807 129.897 108.067C131.473 106.777 132.958 105.37 134.53 104.07C137.342 101.763 140.174 99.4846 143.091 97.311C144.189 96.4739 145.419 95.8252 146.733 95.3914C147.301 95.2024 147.568 95.5818 147.192 96.1384C146.647 96.9315 146.051 97.6877 145.406 98.402C144.863 98.9822 144.285 99.5295 143.676 100.041L143.701 100.081Z" fill="#080808"/>
<path id="Vector_3" d="M158.546 145.758C157.255 145.892 155.962 146.021 154.668 146.144C153.978 146.179 153.291 146.256 152.611 146.373C150.807 146.725 149.011 147.116 147.216 147.508C145.42 147.897 143.624 148.274 141.823 148.622C139.605 149.056 137.384 149.466 135.164 149.881L128.496 151.089C127.809 151.186 127.111 151.198 126.42 151.126C125.753 151.081 125.224 150.582 124.813 149.874C124.214 148.842 124.344 147.589 125.192 147.133C125.742 146.859 126.344 146.703 126.96 146.674C129.736 146.448 132.472 145.895 135.113 145.028C135.846 144.79 136.599 144.481 137.361 144.514C139.792 144.607 142.098 143.919 144.484 143.75C146.255 143.619 148.007 143.322 149.774 143.157C151.35 143.009 152.927 142.874 154.505 142.752L159.249 142.481C160.486 142.403 161.726 142.622 162.867 143.12C162.985 143.163 163.088 143.241 163.162 143.342C163.236 143.444 163.279 143.565 163.284 143.691C163.289 143.816 163.256 143.94 163.19 144.046C163.124 144.152 163.028 144.236 162.913 144.286C162.155 144.668 161.374 145.005 160.575 145.293C159.91 145.478 159.231 145.614 158.544 145.698L158.546 145.758Z" fill="#080808"/>
<path id="Vector_4" d="M139.176 179.3C138.846 179.185 138.511 179.082 138.187 178.947L137.216 178.538C136.876 178.384 136.525 178.259 136.165 178.165C135.196 177.946 134.216 177.764 133.252 177.529C132.285 177.305 131.32 177.076 130.366 176.811C129.19 176.488 128.02 176.144 126.862 175.761L123.389 174.615C123.034 174.469 122.708 174.259 122.429 173.994C122.141 173.751 122.074 173.216 122.134 172.562C122.221 171.611 122.716 170.723 123.257 170.651C123.589 170.618 123.924 170.692 124.214 170.862C125.543 171.558 126.995 171.985 128.486 172.118C128.902 172.159 129.354 172.14 129.692 172.394C130.773 173.191 132.066 173.348 133.225 173.908C134.084 174.331 135.008 174.566 135.877 174.963C137.43 175.664 138.994 176.325 140.53 177.079C141.17 177.381 141.702 177.874 142.052 178.49C142.093 178.566 142.118 178.65 142.124 178.737C142.129 178.823 142.116 178.909 142.085 178.99C142.053 179.07 142.005 179.143 141.942 179.202C141.88 179.261 141.805 179.306 141.723 179.334C141.486 179.377 141.245 179.412 141.005 179.439C140.77 179.469 140.532 179.48 140.295 179.47C139.922 179.432 139.553 179.361 139.193 179.256L139.176 179.3Z" fill="#080808"/>
<path id="Vector_5" d="M52.9468 84.8124C53.1801 85.6159 53.4048 86.4203 53.6206 87.2256C53.7244 87.6548 53.8538 88.0775 54.0084 88.4916C54.4665 89.5749 54.9135 90.6651 55.3404 91.765C55.7627 92.8663 56.1426 93.9825 56.4803 95.1137C56.8809 96.5091 57.24 97.9173 57.539 99.3382C57.8384 100.759 58.0991 102.187 58.3209 103.621C58.369 104.069 58.3414 104.52 58.2391 104.957C58.1623 105.385 57.7333 105.71 57.1449 105.949C56.2876 106.297 55.3003 106.179 54.995 105.655C54.8184 105.319 54.7312 104.944 54.7419 104.566C54.7225 102.862 54.3642 101.175 53.6879 99.6046C53.5055 99.1665 53.2535 98.7277 53.2686 98.2601C53.3222 96.7599 52.6968 95.4076 52.4389 93.9729C52.3396 93.4395 52.2115 92.9115 52.0552 92.3915C51.9101 91.8681 51.7489 91.3493 51.6097 90.8238C51.1114 88.9503 50.594 87.0725 49.9895 85.2167C49.76 84.4283 49.789 83.5893 50.0724 82.8232C50.1789 82.446 50.5589 82.2974 51.0102 82.4887L51.4327 82.7225C51.5002 82.7555 51.5606 82.8015 51.6106 82.8577L51.7592 83.0073C51.9537 83.2062 52.136 83.4166 52.3053 83.6373C52.4396 83.8159 52.5547 84.008 52.6485 84.2106C52.7327 84.4158 52.8083 84.6253 52.8957 84.8286L52.9468 84.8124Z" fill="#080808"/>
</g>
<defs>
<clipPath id="clip0_463_679">
<rect width="160.4" height="159.005" fill="white" transform="translate(111) rotate(44.1069)"/>
</clipPath>
</defs>
</svg>
