<svg width="40" height="41" viewBox="0 0 40 41" fill="none" xmlns="http://www.w3.org/2000/svg">
<path d="M6.78927 13.7746C7.68946 14.2207 8.58946 14.7605 9.34458 15.5073C9.7166 15.8813 10.0435 16.2966 10.3188 16.7448C10.5865 17.1858 10.814 17.6494 10.9985 18.1302C11.3809 19.1407 11.5884 20.1862 11.7494 21.2106C11.7916 21.4648 11.8297 21.7188 11.8655 21.972L11.9686 22.7302L11.0294 22.8456C10.8788 21.653 10.7608 20.4276 10.8642 19.1844C10.9626 17.9467 11.2923 16.6855 11.9613 15.5809C12.1292 15.3031 12.3181 15.0383 12.5265 14.7887C12.7355 14.5344 12.9676 14.2996 13.2201 14.0873C13.2816 14.0315 13.3484 13.983 13.4138 13.9325C13.4801 13.8833 13.5439 13.8299 13.6126 13.7844C13.7495 13.6928 13.8854 13.5983 14.0288 13.5187C14.31 13.3536 14.6032 13.2091 14.9059 13.0864C15.2031 12.9651 15.507 12.8602 15.816 12.7722C16.122 12.6878 16.4293 12.6099 16.7358 12.5489C17.3493 12.4204 17.9589 12.3337 18.56 12.2485L18.6193 13.3723L18.0836 13.3609C17.5016 13.3501 16.9143 13.3193 16.3224 13.2722C15.7166 13.2292 15.1149 13.1415 14.5224 13.0097C13.8978 12.872 13.2992 12.6375 12.7491 12.3148C12.4649 12.1416 12.2022 11.9364 11.9662 11.7031C11.7312 11.4686 11.5266 11.2062 11.3572 10.9219C11.0226 10.3665 10.8173 9.78546 10.6419 9.22651C10.4647 8.6641 10.3172 8.09303 10.1999 7.51558C10.0796 6.93912 9.99374 6.3562 9.94266 5.76983C9.91805 5.47676 9.89888 5.18335 9.88961 4.88964L9.88278 4.66941C9.88102 4.59601 9.8829 4.52247 9.87665 4.44919C9.86809 4.30249 9.86625 4.15557 9.86079 4.00865L10.8707 4.05581C10.7858 5.12775 10.695 6.21802 10.4856 7.31361C10.457 7.4503 10.4309 7.5876 10.4 7.72397L10.2965 8.13245L10.1781 8.53929L10.0436 8.94348C9.85286 9.48636 9.60942 10.0098 9.31665 10.5065C8.75051 11.4454 7.97403 12.244 7.04669 12.8412C6.68817 13.079 6.29594 13.2632 5.88274 13.3876C5.73186 13.4302 5.57777 13.4609 5.42194 13.4794C5.3525 13.4869 5.28706 13.4917 5.22562 13.494L5.18023 13.4953L5.14351 13.4908C5.11773 13.4873 5.09286 13.4839 5.0689 13.4807C4.77179 13.4379 4.60683 13.3869 4.83574 13.1649C4.86885 13.1341 4.90387 13.1054 4.94058 13.0788C4.95978 13.0641 4.98691 13.0474 5.00422 13.0335C5.0203 13.0202 5.0371 13.0063 5.05462 12.9919C5.12462 12.9347 5.20919 12.8787 5.30255 12.8125C5.39513 12.7446 5.50274 12.6802 5.61575 12.6005C5.6731 12.5627 5.733 12.5233 5.79548 12.4822C5.85677 12.4393 5.92092 12.3959 5.98794 12.3517C6.33472 12.1171 6.66556 11.8604 6.97833 11.5831C7.29778 11.3044 7.59496 11.0019 7.86725 10.6781C8.23837 10.2316 8.55032 9.74031 8.79556 9.21604C9.04346 8.68061 9.24069 8.12374 9.38473 7.55251C9.69395 6.40125 9.83376 5.19031 9.96497 3.96978L9.96505 3.96908C9.97596 3.86796 10.0256 3.77479 10.1039 3.70863C10.1822 3.64248 10.2832 3.60836 10.3862 3.61326C10.4891 3.61815 10.5863 3.6617 10.6578 3.73498C10.7293 3.80826 10.7696 3.90572 10.7706 4.0074C10.7725 4.20541 10.7658 4.40379 10.7799 4.60163C10.7926 4.7994 10.8077 4.99693 10.828 5.19394C10.8668 5.58812 10.9245 5.97993 10.9903 6.36969C11.1205 7.14873 11.3114 7.91671 11.5612 8.66682C11.721 9.1798 11.9285 9.67709 12.1812 10.1523C12.3 10.3671 12.4401 10.5698 12.5994 10.7574C12.7549 10.9336 12.9271 11.0948 13.1137 11.2387C13.2888 11.368 13.4748 11.4824 13.6695 11.5806C13.8732 11.6796 14.0835 11.7648 14.2989 11.8357C14.7497 11.9776 15.2129 12.0776 15.6826 12.1344C16.6445 12.2579 17.6442 12.2759 18.6497 12.3125L18.6556 12.3127C18.7816 12.3173 18.9012 12.3684 18.9907 12.4559C19.0803 12.5435 19.1332 12.661 19.139 12.7852C19.1448 12.9094 19.1031 13.0312 19.0221 13.1265C18.9411 13.2218 18.8268 13.2836 18.7018 13.2996C17.9384 13.3973 17.1872 13.4996 16.4653 13.6655C15.7464 13.835 15.0503 14.0571 14.4355 14.4058C14.1733 14.5536 13.9257 14.7252 13.6959 14.9186C13.4676 15.1163 13.2585 15.3346 13.0712 15.5705C12.6973 16.0585 12.4034 16.6014 12.2001 17.1792C11.9921 17.7656 11.8579 18.375 11.8006 18.9936C11.741 19.6225 11.7277 20.2547 11.761 20.8855C11.7876 21.4995 11.851 22.1172 11.9244 22.737L11.9249 22.7411C11.938 22.8523 11.9059 22.9641 11.8357 23.052C11.7654 23.1398 11.6627 23.1966 11.55 23.2099C11.4374 23.2232 11.324 23.1919 11.2347 23.1228C11.1454 23.0538 11.0875 22.9526 11.0737 22.8415C10.9504 21.8459 10.8202 20.8589 10.5869 19.9074C10.4773 19.4338 10.3372 18.9676 10.1676 18.5116C9.99819 18.0637 9.78646 17.6324 9.53518 17.2236C9.46924 17.1248 9.40798 17.0223 9.33861 16.9261L9.12421 16.6419C8.97342 16.459 8.81306 16.2841 8.64378 16.1177C8.29344 15.7865 7.90949 15.4917 7.49801 15.238C7.29081 15.1082 7.07721 14.9859 6.85903 14.8692C6.74996 14.811 6.63983 14.754 6.52863 14.6984L6.36117 14.6158L6.27746 14.5753L6.19793 14.5401C6.09417 14.4909 5.98033 14.4511 5.86972 14.408C5.75464 14.371 5.64214 14.3289 5.52402 14.2971C5.29148 14.2257 5.05136 14.1716 4.8114 14.1203C4.34598 14.0246 3.87377 13.9644 3.39898 13.9404C2.93878 13.9181 2.48468 13.9448 2.10726 14.0737L1.99878 13.648L1.99843 13.6198H1.99886H2.00152H2.00507H2.01218L2.0264 13.6199C2.03562 13.6201 2.04507 13.6203 2.05835 13.6197L2.13179 13.6173L2.28117 13.6112C2.38136 13.6068 2.48098 13.6024 2.58003 13.598C2.77891 13.5902 2.97535 13.5825 3.16937 13.5749C3.55804 13.561 3.9375 13.5527 4.30824 13.545C4.43438 13.5403 4.5607 13.5452 4.68609 13.5596C4.73472 13.5634 4.76378 13.5779 4.80863 13.5777C4.83783 13.5769 4.86658 13.5849 4.89103 13.6007L4.96463 13.5159C4.95423 13.5546 4.93983 13.5717 4.9467 13.5751C4.95138 13.5786 4.97694 13.5676 5.0003 13.5307C5.00312 13.5262 5.00491 13.5212 5.00555 13.516C5.00618 13.5108 5.00564 13.5055 5.00396 13.5005C5.00228 13.4956 4.9995 13.491 4.99583 13.4872C4.99216 13.4834 4.98768 13.4805 4.98272 13.4786C4.97776 13.4767 4.97243 13.4759 4.96713 13.4763C4.96182 13.4766 4.95667 13.4782 4.95203 13.4808C4.94739 13.4833 4.94339 13.4869 4.94031 13.4912C4.93723 13.4954 4.93515 13.5003 4.93421 13.5055L4.91128 13.6332C4.90702 13.6569 4.87467 13.693 4.81463 13.7331C4.77295 13.7666 4.72756 13.7953 4.67932 13.8188C4.53065 13.8905 4.37384 13.9445 4.21222 13.9796C3.8621 14.059 3.50948 14.1293 3.15162 14.196C2.9728 14.2293 2.79274 14.2613 2.61143 14.2921L2.33703 14.3369L2.19602 14.3582L2.12262 14.3685C2.09504 14.3721 2.05382 14.3757 2.01993 14.3786C1.89853 14.3889 1.7773 14.357 1.67724 14.2884C1.57718 14.2198 1.5046 14.1188 1.47207 14.003C1.43954 13.8872 1.44912 13.7638 1.49913 13.6542C1.54915 13.5446 1.63646 13.4557 1.74594 13.4029L1.78094 13.3863C2.06292 13.2568 2.36245 13.1684 2.67018 13.1238C2.81271 13.1067 2.9581 13.0848 3.09787 13.0797C3.16827 13.0759 3.23939 13.0702 3.30931 13.0685L3.51802 13.0668C4.07185 13.0722 4.62352 13.1358 5.16369 13.2565C5.43662 13.3146 5.70644 13.3861 5.97213 13.4708L6.17365 13.5372L6.37605 13.6132C6.443 13.6368 6.51191 13.6688 6.57995 13.698L6.6821 13.7426L6.77312 13.7859C6.77837 13.782 6.78329 13.7784 6.78927 13.7746Z" fill="#475569"/>
<path d="M30.7185 16.0783C31.1878 16.6334 31.5663 17.2575 31.8402 17.9279C31.8738 18.0118 31.91 18.0946 31.9409 18.1795L32.0233 18.4381C32.0494 18.5246 32.0802 18.6096 32.1021 18.6973L32.1625 18.962C32.1809 19.0505 32.2059 19.1375 32.2184 19.2272L32.2557 19.4962L32.274 19.6306C32.2802 19.675 32.2863 19.7198 32.2895 19.7691C32.2969 19.8658 32.3006 19.9658 32.2981 20.0698C32.2956 20.2567 32.2648 20.4422 32.2067 20.6202C32.1706 20.7239 32.1223 20.823 32.0628 20.9156C31.9966 21.0144 31.9163 21.1032 31.8244 21.1794L31.8179 21.1848C31.7419 21.2478 31.6483 21.2866 31.5495 21.2961C31.4506 21.3057 31.3512 21.2855 31.2642 21.2383C31.1772 21.1911 31.1067 21.1191 31.062 21.0316C31.0172 20.9442 31.0003 20.8455 31.0135 20.7484C31.0751 20.2986 31.1625 19.8527 31.2754 19.4128C31.459 18.6772 31.7435 17.9698 32.121 17.3102C32.5078 16.6357 33.0133 16.0347 33.6138 15.5351C34.2287 15.034 34.9388 14.6591 35.7026 14.4324C36.4871 14.2023 37.3166 14.1639 38.1196 14.3204C38.2375 14.3444 38.345 14.4039 38.4271 14.4908C38.5092 14.5777 38.562 14.6876 38.5781 14.8053C38.5941 14.923 38.5727 15.0428 38.5168 15.148C38.4609 15.2532 38.3733 15.3387 38.266 15.3926L38.2553 15.3979C37.994 15.5253 37.714 15.6113 37.4255 15.6527C37.1603 15.6894 36.8921 15.7 36.6248 15.6842C36.3686 15.6717 36.1245 15.6417 35.8899 15.6085C35.6559 15.5746 35.4326 15.5416 35.1903 15.4979C34.8417 15.4401 34.5006 15.3449 34.1729 15.2141C33.9936 15.1398 33.8221 15.0483 33.6609 14.9409C33.4964 14.8301 33.3445 14.7021 33.2079 14.559C32.9543 14.2849 32.7471 13.9723 32.5942 13.6332C32.4526 13.3199 32.3415 12.9941 32.2623 12.6602C31.9426 11.366 31.9696 10.0121 32.3406 8.73132L32.3412 8.72944C32.3737 8.61782 32.4385 8.518 32.5278 8.44228C32.617 8.36656 32.7268 8.31825 32.8436 8.3033C32.9603 8.28834 33.0789 8.3074 33.1848 8.35812C33.2907 8.40884 33.3793 8.48901 33.4396 8.58876C33.6286 8.91273 33.731 9.27884 33.7369 9.6526C33.7431 9.98026 33.7019 10.3071 33.6148 10.6233C33.5763 10.7759 33.5264 10.917 33.4788 11.0596C33.4257 11.2002 33.3739 11.3416 33.3108 11.478C33.1905 11.7529 33.0494 12.0185 32.8886 12.2725C32.2499 13.2985 31.3239 14.1202 30.2224 14.6388C29.5216 14.9628 28.7607 15.1409 27.987 15.1618C27.6835 15.1721 27.3804 15.1311 27.0909 15.0404C27.0322 15.021 26.9773 15.001 26.9261 14.9799C26.8751 14.9567 26.8276 14.9331 26.7839 14.909C26.7038 14.8667 26.6293 14.8149 26.562 14.7547C26.3851 14.5974 26.4187 14.4708 26.5944 14.3881C26.7708 14.3071 27.0896 14.2643 27.5226 14.2214L27.73 14.1993L27.9399 14.1717C28.0804 14.1505 28.2228 14.1329 28.3645 14.1067C28.6475 14.0574 28.9273 13.9914 29.2023 13.9091C29.7331 13.7463 30.2314 13.4943 30.6753 13.1643C31.5723 12.4992 32.2238 11.5626 32.5302 10.4977C32.6034 10.2551 32.6405 10.0033 32.6405 9.75016C32.6437 9.54124 32.5869 9.3357 32.4765 9.15738L33.42 9.03498C33.3239 9.41173 33.2639 9.79654 33.2406 10.1843C33.1957 10.9004 33.2946 11.6367 33.4196 12.3132C33.5062 12.7953 33.6579 13.2517 33.9043 13.6026C34.0204 13.7713 34.1675 13.9171 34.3379 14.0324C34.5238 14.149 34.7264 14.2375 34.9388 14.2952C35.181 14.3612 35.4271 14.4128 35.6756 14.4496C35.9404 14.4919 36.2039 14.5342 36.452 14.5592C36.9509 14.6122 37.4105 14.5921 37.7618 14.4223L37.8832 15.3856L37.709 15.353L37.622 15.336L37.5337 15.3258L37.357 15.3047L37.1785 15.2958C36.7727 15.2806 36.367 15.3275 35.9758 15.4348C35.5775 15.5451 35.1957 15.7065 34.84 15.9149C34.4821 16.1237 34.1517 16.3753 33.8564 16.664C33.5582 16.9572 33.2934 17.2815 33.0666 17.6314C32.4438 18.5805 32.0765 19.7044 31.924 20.853L31.235 20.4868C31.2761 20.4526 31.3072 20.4083 31.325 20.3583C31.3537 20.2804 31.3701 20.1986 31.3735 20.1159C31.379 20.013 31.3762 19.9099 31.3653 19.8075L31.3157 19.4649C31.2988 19.3504 31.2753 19.237 31.2454 19.1252L31.206 18.9558C31.194 18.899 31.1715 18.8449 31.1548 18.7893C31.1175 18.6792 31.0857 18.5671 31.0444 18.4581L30.9091 18.135C30.7131 17.708 30.4694 17.304 30.1825 16.9304C29.8888 16.5592 29.5564 16.2196 29.1907 15.9169C28.7289 15.5445 28.2263 15.2243 27.6923 14.9622C27.6602 14.9456 27.6286 14.9278 27.5963 14.9121L27.4978 14.8693L27.3021 14.7819C27.1735 14.7175 27.0397 14.6748 26.9085 14.6227L26.7118 14.5453C26.6475 14.5224 26.5837 14.5019 26.5195 14.4858C26.3927 14.4469 26.257 14.4463 26.1299 14.4842C26.0988 14.4959 26.0705 14.5103 26.0482 14.5203C26.0477 14.5205 26.0473 14.5208 26.0469 14.5212C26.0466 14.5215 26.0463 14.522 26.0461 14.5224L26.0436 14.5295C26.0352 14.5553 26.037 14.5833 26.0486 14.6079C26.0591 14.6304 26.0742 14.6506 26.0929 14.6672C26.1268 14.697 26.1691 14.7158 26.2141 14.721C26.2354 14.7238 26.2571 14.7222 26.2777 14.7162C26.2961 14.7127 26.3142 14.7078 26.3319 14.7017C26.3618 14.6906 26.3835 14.6836 26.3959 14.6914C26.4078 14.6988 26.4114 14.7219 26.3938 14.7614C26.3809 14.7855 26.3637 14.8072 26.3431 14.8254C26.3183 14.8546 26.2861 14.8767 26.2497 14.8895C26.1625 14.9243 26.0657 14.9274 25.9764 14.8983C25.9103 14.8767 25.8511 14.8386 25.8044 14.7878C25.7709 14.7509 25.7444 14.7083 25.7263 14.6621C25.7055 14.6073 25.6961 14.5489 25.6986 14.4905C25.7003 14.4461 25.715 14.4032 25.7408 14.3668L25.8055 14.2753C25.8394 14.2272 25.8792 14.1834 25.9239 14.1447C25.9488 14.1232 25.9753 14.1036 26.0031 14.0859C26.0328 14.0694 26.0635 14.055 26.0952 14.0427C26.2448 13.9866 26.404 13.9595 26.564 13.9627C26.689 13.9632 26.8138 13.974 26.937 13.995L27.2758 14.0482L27.3611 14.0627L27.4446 14.0835L27.6122 14.1261C28.0641 14.242 28.5005 14.4102 28.9123 14.6273C29.5925 15.0029 30.1984 15.4966 30.7008 16.0845C30.7065 16.0825 30.7118 16.0806 30.7185 16.0783Z" fill="#475569"/>
<path d="M20.1699 28.0052L20.5268 28.2022L20.8702 28.4219L20.9556 28.4773L21.0376 28.5379L21.2013 28.6594C21.2555 28.7003 21.3108 28.7397 21.364 28.7819L21.519 28.9143C21.7264 29.09 21.9237 29.2771 22.1098 29.4747L22.3775 29.781C22.4651 29.8842 22.5424 29.9952 22.6248 30.1021C22.9411 30.5373 23.2092 31.0046 23.4247 31.496C23.6331 31.9869 23.7911 32.4971 23.8962 33.0191C23.9201 33.1578 23.9493 33.2958 23.9675 33.4354L24.0146 33.8553L24.0354 34.2775C24.0428 34.4182 24.0334 34.5594 24.033 34.7002C24.0144 35.2645 23.9329 35.8251 23.79 36.3718L23.6782 36.7565C23.6461 36.867 23.5746 36.9624 23.4768 37.025C23.379 37.0877 23.2616 37.1133 23.1462 37.0974C23.0308 37.0814 22.9251 37.0248 22.8486 36.938C22.7721 36.8513 22.7299 36.7402 22.7299 36.6252L22.73 36.6029C22.7311 35.3615 22.7284 34.0814 22.9703 32.7955C23.0892 32.1447 23.2837 31.5095 23.5499 30.9026C23.8219 30.2789 24.1948 29.7028 24.654 29.197C25.125 28.6961 25.6783 28.2772 26.2907 27.9579C26.8851 27.6518 27.5103 27.4081 28.1562 27.2306C28.4737 27.1412 28.792 27.0648 29.1115 26.9972C29.4317 26.9304 29.7598 26.8715 30.0986 26.835C30.445 26.7946 30.7942 26.7844 31.1424 26.8045C31.5076 26.8257 31.8686 26.8931 32.2165 27.0049C32.3311 27.0418 32.4314 27.1126 32.5037 27.2078C32.576 27.303 32.6167 27.4179 32.6203 27.5368C32.6239 27.6557 32.5903 27.7727 32.5239 27.872C32.4576 27.9714 32.3618 28.048 32.2496 28.0917L32.2371 28.0965C31.6893 28.2976 31.1102 28.4027 30.5257 28.407C29.9056 28.4107 29.2863 28.3622 28.6745 28.2618C28.068 28.1788 27.4675 28.0575 26.8767 27.8986C26.5714 27.8151 26.2716 27.7134 25.9788 27.5939C25.6773 27.4732 25.3864 27.3283 25.109 27.1605C24.8244 26.9892 24.5574 26.7911 24.3116 26.569C24.067 26.3456 23.8456 26.0988 23.6507 25.8321C23.2801 25.3166 22.9792 24.7557 22.7556 24.1635C22.3161 23.0258 22.0446 21.8317 21.9494 20.6179C21.9383 20.4665 21.9287 20.315 21.9234 20.1632C21.92 20.0874 21.9175 20.0116 21.9166 19.9356C21.9153 19.8591 21.9126 19.7882 21.9142 19.6951C21.9141 19.4907 21.9448 19.2873 22.0051 19.0917C22.0465 18.9624 22.1082 18.8404 22.1881 18.7301C22.2835 18.5997 22.4069 18.4916 22.5494 18.4135L22.5555 18.4102C22.6252 18.3727 22.7018 18.3491 22.7808 18.3408C22.8598 18.3325 22.9397 18.3395 23.0159 18.3617C23.0921 18.3838 23.1632 18.4205 23.225 18.4697C23.2868 18.5189 23.3383 18.5797 23.3763 18.6485C23.4171 18.723 23.4417 18.8052 23.4485 18.8897C23.6269 21.3082 22.9941 23.7174 21.6475 25.7461C21.334 26.2175 20.9623 26.6487 20.5411 27.0297C20.3254 27.222 20.0943 27.3969 19.8502 27.5525C19.6049 27.709 19.3455 27.8426 19.0753 27.9517C18.6466 28.1312 18.1825 28.2129 17.7173 28.1907C17.4192 28.1799 17.128 28.0984 16.8685 27.9532C16.5893 27.7778 16.6446 27.6567 16.8877 27.6003C17.0114 27.5651 17.1841 27.5433 17.4011 27.5025C17.6633 27.4542 17.9221 27.3892 18.1757 27.3079C18.5651 27.1781 18.9333 26.993 19.2685 26.7584C19.6174 26.512 19.9361 26.2264 20.2181 25.9075C20.6254 25.4412 20.975 24.9289 21.2597 24.3812C21.5547 23.8313 21.7943 23.2543 21.9751 22.6583C22.3392 21.4661 22.4696 20.2163 22.3591 18.976L23.0785 19.357C23.0787 19.3574 23.0797 19.3588 23.0787 19.3572L23.076 19.3534C23.0764 19.3541 23.077 19.3549 23.0776 19.3556C23.079 19.3575 23.0804 19.3588 23.0797 19.3578V19.3593C23.0756 19.365 23.0721 19.3713 23.0694 19.3778C23.0507 19.4214 23.0386 19.4676 23.0334 19.5147C23.0239 19.5886 23.0201 19.6631 23.0222 19.7375L23.0328 20.0196C23.0526 20.4032 23.0938 20.7852 23.1501 21.1645C23.2659 21.922 23.4595 22.6659 23.728 23.3848C23.9134 23.8953 24.1553 24.3842 24.4493 24.8424C24.5896 25.0578 24.747 25.262 24.9199 25.453C25.0031 25.545 25.0909 25.6328 25.1831 25.716C25.2296 25.7566 25.273 25.8002 25.3207 25.8393L25.4638 25.9563C25.8927 26.2805 26.3734 26.532 26.8862 26.7003C27.4285 26.8812 27.9854 27.0169 28.5507 27.106C29.1173 27.2099 29.6905 27.2748 30.2661 27.3002C30.8008 27.3257 31.3355 27.2492 31.8408 27.0749L31.859 28.0403C31.3587 27.8725 30.7937 27.845 30.2133 27.9027C29.923 27.9298 29.6283 27.9771 29.3305 28.0337C29.0324 28.0911 28.7361 28.1557 28.445 28.2301C27.8212 28.3817 27.2194 28.6104 26.6537 28.9108C26.104 29.2018 25.6163 29.5947 25.2175 30.0679C24.8222 30.5539 24.51 31.1002 24.2931 31.6853C24.0695 32.2844 23.9134 32.9059 23.8275 33.5387C23.6833 34.5353 23.6679 35.5647 23.6545 36.608L22.8006 36.4697C23.3694 34.8158 23.171 32.9094 22.3198 31.3589C22.2641 31.2634 22.2147 31.1639 22.1542 31.0713L21.9721 30.7937C21.9102 30.7019 21.8393 30.6168 21.7734 30.5278C21.7394 30.4842 21.7078 30.4384 21.6717 30.3966L21.5618 30.2722C21.416 30.1055 21.2618 29.946 21.0998 29.7946C20.9298 29.6514 20.765 29.5015 20.5808 29.3747C20.4925 29.3064 20.4008 29.2426 20.3059 29.1835C20.2109 29.1245 20.1182 29.0616 20.0215 29.0053L19.7261 28.8442C19.6284 28.789 19.5233 28.7478 19.4224 28.6987C19.0128 28.5108 18.5846 28.3653 18.1446 28.2647C17.0961 28.0219 16.0073 28.001 14.9501 28.2035L14.939 27.7896C15.5721 27.9795 16.2367 28.046 16.8956 27.9853C17.2695 27.9506 17.4594 27.9407 17.4578 28.0201C17.4553 28.0551 17.4059 28.1159 17.2994 28.1851C17.2348 28.227 17.1672 28.2643 17.0971 28.2965C17.0562 28.3162 17.0115 28.3361 16.9627 28.3546C16.9383 28.3639 16.9133 28.3745 16.8868 28.3829C16.8601 28.3906 16.8326 28.3981 16.8041 28.4055C16.1433 28.5767 15.453 28.6062 14.7796 28.4919C14.6682 28.4726 14.5665 28.4171 14.4907 28.3342C14.415 28.2513 14.3695 28.1458 14.3616 28.0345C14.3537 27.9231 14.3837 27.8124 14.447 27.7199C14.5103 27.6273 14.6031 27.5584 14.7108 27.5239L14.7535 27.5104C15.4224 27.3001 16.1203 27.1933 16.8224 27.1941C17.399 27.1925 17.9733 27.2649 18.5308 27.4096C19.0922 27.5529 19.6361 27.7561 20.1529 28.0157C20.1584 28.0119 20.1636 28.0086 20.1699 28.0052Z" fill="#475569"/>
</svg>
