<svg width="82" height="82" viewBox="0 0 82 82" fill="none" xmlns="http://www.w3.org/2000/svg">
<g clip-path="url(#clip0_867_15225)">
<path d="M33.5752 25.9471C33.4708 26.5885 33.3635 27.2292 33.2391 27.8681C33.1771 28.2073 33.1109 28.5476 33.0719 28.8898C32.8658 30.7164 32.6814 32.5467 32.4309 34.3686C32.2715 35.4895 32.1004 36.6088 31.9177 37.7264L31.6386 39.402L31.3407 41.0743C31.2716 41.4112 31.1757 41.7419 31.0538 42.0635C31.0098 42.1974 30.9345 42.3189 30.8343 42.418C30.7341 42.5171 30.6117 42.5909 30.4773 42.6334C30.1076 42.7592 29.7806 42.5081 29.7724 42.0429C29.7745 41.7403 29.8144 41.4391 29.8912 41.1463C30.0534 40.4761 30.1864 39.8017 30.2902 39.123C30.3965 38.4447 30.475 37.7621 30.5258 37.0753C30.5541 36.6963 30.5616 36.2984 30.6676 35.9424C31.0052 34.8046 31.0923 33.6191 31.3345 32.4635C31.514 31.6045 31.6288 30.7309 31.7825 29.8658L32.1917 27.5511C32.3237 26.7789 32.475 26.0092 32.6094 25.2369C32.6703 24.9375 32.7508 24.6425 32.8504 24.3537C32.9514 24.083 33.0674 23.8181 33.1977 23.5602C33.3125 23.3318 33.4769 23.3686 33.5237 23.6569C33.5899 24.0708 33.6272 24.4888 33.6352 24.9078C33.6387 25.0799 33.6322 25.253 33.6185 25.4257C33.5977 25.5976 33.5769 25.77 33.5562 25.9414L33.5752 25.9471Z" fill="#051328"/>
<path d="M50.7649 33.6061L50.2728 34.2762L49.7638 34.9352C49.5844 35.1687 49.404 35.4032 49.2452 35.6509C49.0326 35.9807 48.8241 36.3132 48.6169 36.6464L47.9899 37.6421L46.7407 39.6355L45.1966 42.086L43.6657 44.5452C43.5038 44.79 43.3246 45.0229 43.1293 45.2421C43.053 45.3352 42.9559 45.4092 42.8459 45.4582C42.7359 45.5072 42.6159 45.5297 42.4956 45.5241C42.1634 45.5157 41.9802 45.219 42.1139 44.8404C42.2061 44.5962 42.3294 44.3649 42.4806 44.1522C43.1483 43.1729 43.7534 42.1523 44.2924 41.0966C44.4241 40.7948 44.5898 40.5089 44.7863 40.2446C45.4423 39.4596 45.9247 38.556 46.5298 37.7373C46.9798 37.1297 47.387 36.4889 47.8347 35.8783C48.6371 34.7924 49.4496 33.7152 50.3012 32.6678C50.6203 32.2667 51.0035 31.9211 51.4353 31.6451C51.6219 31.5252 51.7511 31.6369 51.6658 31.8711C51.5409 32.2057 51.3943 32.5317 51.2269 32.8472C51.0836 33.1052 50.9251 33.3546 50.7523 33.5939L50.7649 33.6061Z" fill="#051328"/>
<path d="M60.1226 48.6399C59.6721 48.8065 59.2207 48.9711 58.7682 49.1338C58.5244 49.2099 58.2852 49.3004 58.0521 49.4048C57.4374 49.6962 56.829 50.0013 56.221 50.3063C55.6126 50.6105 55.0029 50.9105 54.3888 51.2005C53.6333 51.5592 52.8744 51.9099 52.1163 52.2623L49.836 53.3069C49.5985 53.4047 49.35 53.4731 49.0959 53.5106C48.8531 53.5557 48.6196 53.425 48.4098 53.2085C48.1041 52.8931 48.0396 52.4313 48.3029 52.1898C48.4756 52.0411 48.6773 51.9299 48.8952 51.8632C49.8689 51.5277 50.7997 51.0786 51.6683 50.5254C51.9099 50.3728 52.1521 50.1929 52.4278 50.1347C53.3064 49.9454 54.071 49.4871 54.9102 49.208C55.5325 48.9986 56.1335 48.7314 56.7518 48.5102C57.303 48.3129 57.8556 48.12 58.4096 47.9314L60.084 47.3993C60.5201 47.2581 60.9835 47.2231 61.4358 47.2972C61.482 47.3019 61.5256 47.3203 61.5612 47.35C61.5968 47.3797 61.6227 47.4194 61.6356 47.464C61.6485 47.5085 61.6478 47.5559 61.6336 47.6C61.6194 47.6442 61.5923 47.683 61.5558 47.7117C61.3182 47.9182 61.0684 48.1104 60.8079 48.2873C60.5859 48.4147 60.3548 48.5255 60.1165 48.6188L60.1226 48.6399Z" fill="#051328"/>
<path d="M56.1546 62.4529C56.0261 62.4419 55.8973 62.4356 55.7693 62.4168L55.3853 62.3588C55.2502 62.3349 55.1132 62.3224 54.9759 62.3214C54.6097 62.3318 54.2427 62.3562 53.877 62.3602C53.511 62.3683 53.1451 62.3744 52.78 62.3671C52.3303 62.3586 51.881 62.3424 51.4327 62.3112L50.0877 62.2181C49.9475 62.1983 49.8124 62.1526 49.689 62.0832C49.5644 62.0224 49.493 61.8363 49.4566 61.5964C49.4036 61.2469 49.5024 60.883 49.6894 60.8074C49.8056 60.7653 49.9321 60.7611 50.0508 60.7956C50.5884 60.9237 51.146 60.9438 51.6914 60.855C51.844 60.8315 52.0043 60.7832 52.1476 60.8434C52.6054 61.0303 53.0821 60.9681 53.5465 61.063C53.8915 61.1359 54.2431 61.1359 54.5895 61.1987C55.2075 61.3077 55.8262 61.4018 56.4427 61.5317C56.6986 61.5816 56.9326 61.7098 57.1124 61.8985C57.1341 61.9221 57.1503 61.9501 57.16 61.9805C57.1697 62.011 57.1726 62.0433 57.1685 62.075C57.1644 62.1067 57.1534 62.1371 57.1363 62.1642C57.1192 62.1912 57.0964 62.2142 57.0696 62.2315C56.9883 62.2689 56.9052 62.3036 56.8215 62.335C56.7401 62.3676 56.656 62.3931 56.5702 62.4113C56.4334 62.432 56.2951 62.44 56.1569 62.4354L56.1546 62.4529Z" fill="#051328"/>
<path d="M16.9173 36.4425C17.072 36.7095 17.2236 36.9776 17.3722 37.2469C17.4473 37.3914 17.5311 37.5313 17.6231 37.6657C17.883 38.0125 18.1396 38.3629 18.3898 38.7185C18.6384 39.0751 18.8733 39.4409 19.0943 39.8159C19.3613 40.28 19.6145 40.7525 19.8474 41.2351C20.0804 41.7175 20.3001 42.206 20.5065 42.7007C20.5634 42.8568 20.5934 43.0214 20.5955 43.1875C20.6059 43.348 20.481 43.504 20.2916 43.6439C20.0154 43.8473 19.6516 43.8956 19.4958 43.7352C19.4028 43.6309 19.3384 43.5043 19.3088 43.3678C19.151 42.7578 18.8734 42.1853 18.4922 41.6836C18.3881 41.543 18.259 41.4087 18.223 41.2395C18.1094 40.6961 17.7658 40.2681 17.5464 39.7768C17.4637 39.5945 17.3711 39.4167 17.2691 39.2444C17.1708 39.0699 17.0671 38.8984 16.9708 38.7225C16.6265 38.0958 16.275 37.4693 15.8943 36.8586C15.7423 36.5967 15.6785 36.2929 15.7121 35.992C15.7168 35.8469 15.8397 35.7587 16.0182 35.786L16.1902 35.8312C16.2173 35.8369 16.243 35.8478 16.2658 35.8634L16.3323 35.9035C16.4195 35.9571 16.5034 36.0159 16.5836 36.0796C16.6475 36.1313 16.7057 36.1898 16.7572 36.2539C16.8055 36.3198 16.8511 36.3881 16.9004 36.453L16.9173 36.4425Z" fill="#051328"/>
</g>
<defs>
<clipPath id="clip0_867_15225">
<rect width="59.0262" height="59.0262" fill="white" transform="translate(30.1953 0.683594) rotate(30)"/>
</clipPath>
</defs>
</svg>
