<svg width="218" height="226" viewBox="0 0 218 226" fill="none" xmlns="http://www.w3.org/2000/svg">
<g clip-path="url(#clip0_1721_10062)">
<path d="M103.26 68.4772C102.57 70.088 101.873 71.6952 101.132 73.2862C100.75 74.1338 100.355 74.981 100.031 75.8517C98.3056 80.5007 96.6349 85.1737 94.7962 89.7805C93.6508 92.6112 92.476 95.4299 91.2716 98.2365L89.4523 102.441L87.586 106.624C87.1862 107.46 86.7198 108.263 86.1911 109.023C85.9887 109.345 85.7123 109.613 85.3847 109.805C85.0571 109.998 84.6878 110.109 84.3072 110.13C83.2543 110.212 82.5581 109.335 82.8379 108.11C83.0394 107.318 83.3395 106.556 83.7311 105.84C84.5916 104.192 85.3781 102.514 86.0907 100.805C86.8095 99.0985 87.4582 97.3623 88.0366 95.5963C88.3567 94.6219 88.6341 93.5843 89.1435 92.7224C90.7677 89.9669 91.7649 86.9183 93.1503 84.0523C94.1785 81.9214 95.0462 79.7088 96.0108 77.5446L98.5859 71.7528C99.433 69.8175 100.33 67.9018 101.183 65.9679C101.537 65.2243 101.94 64.5051 102.389 63.8151C102.83 63.1733 103.306 62.5568 103.815 61.9683C104.265 61.4467 104.673 61.6534 104.609 62.4406C104.515 63.5697 104.342 64.6901 104.091 65.7937C103.989 66.247 103.86 66.6963 103.712 67.1398C103.546 67.5762 103.38 68.0142 103.214 68.4495L103.26 68.4772Z" fill="#051328"/>
<path d="M143.451 100.081L141.724 101.507L139.959 102.893C139.336 103.384 138.71 103.878 138.133 104.421C137.361 105.142 136.597 105.874 135.837 106.608L133.544 108.797L128.971 113.183L123.326 118.57L117.71 123.988C117.126 124.521 116.504 125.011 115.849 125.455C115.588 125.648 115.285 125.776 114.964 125.831C114.643 125.885 114.314 125.864 114.001 125.769C113.134 125.524 112.845 124.623 113.442 123.721C113.842 123.143 114.316 122.619 114.851 122.163C117.24 120.044 119.491 117.776 121.591 115.37C122.133 114.668 122.753 114.03 123.441 113.469C125.673 111.851 127.526 109.807 129.647 108.067C131.223 106.777 132.708 105.37 134.28 104.07C137.092 101.763 139.924 99.4846 142.841 97.311C143.939 96.4739 145.169 95.8252 146.483 95.3914C147.051 95.2024 147.318 95.5818 146.942 96.1384C146.397 96.9315 145.801 97.6877 145.156 98.402C144.613 98.9822 144.035 99.5295 143.426 100.041L143.451 100.081Z" fill="#051328"/>
<path d="M158.296 145.758C157.004 145.892 155.712 146.021 154.418 146.144C153.727 146.179 153.041 146.256 152.36 146.373C150.557 146.725 148.76 147.116 146.965 147.508C145.17 147.897 143.374 148.274 141.572 148.622C139.355 149.056 137.134 149.466 134.913 149.881L128.246 151.089C127.558 151.186 126.861 151.198 126.169 151.126C125.502 151.081 124.973 150.582 124.562 149.874C123.964 148.842 124.094 147.589 124.942 147.133C125.492 146.859 126.094 146.703 126.71 146.674C129.485 146.448 132.222 145.895 134.862 145.028C135.596 144.79 136.349 144.481 137.111 144.514C139.542 144.607 141.848 143.919 144.233 143.75C146.004 143.619 147.756 143.322 149.524 143.157C151.1 143.009 152.677 142.874 154.255 142.752L158.999 142.481C160.236 142.403 161.476 142.622 162.616 143.12C162.734 143.163 162.837 143.241 162.911 143.342C162.986 143.444 163.028 143.565 163.033 143.691C163.038 143.816 163.006 143.94 162.94 144.046C162.874 144.152 162.777 144.236 162.663 144.286C161.905 144.668 161.124 145.005 160.325 145.293C159.659 145.478 158.98 145.614 158.293 145.698L158.296 145.758Z" fill="#051328"/>
<path d="M138.925 179.3C138.595 179.185 138.26 179.082 137.936 178.947L136.965 178.538C136.625 178.384 136.274 178.259 135.914 178.165C134.945 177.946 133.965 177.764 133.001 177.529C132.035 177.305 131.069 177.076 130.115 176.811C128.939 176.488 127.769 176.144 126.611 175.761L123.138 174.615C122.783 174.469 122.457 174.259 122.178 173.994C121.89 173.751 121.823 173.216 121.883 172.562C121.97 171.611 122.465 170.723 123.006 170.651C123.338 170.618 123.673 170.692 123.963 170.862C125.292 171.558 126.744 171.985 128.235 172.118C128.651 172.159 129.103 172.14 129.441 172.394C130.522 173.191 131.815 173.348 132.974 173.908C133.833 174.331 134.757 174.566 135.626 174.963C137.179 175.664 138.743 176.325 140.279 177.079C140.919 177.381 141.451 177.874 141.801 178.49C141.842 178.566 141.867 178.65 141.873 178.737C141.878 178.823 141.865 178.909 141.834 178.99C141.802 179.07 141.754 179.143 141.691 179.202C141.629 179.261 141.554 179.306 141.472 179.334C141.235 179.377 140.994 179.412 140.754 179.439C140.519 179.469 140.281 179.48 140.044 179.47C139.671 179.432 139.303 179.361 138.942 179.256L138.925 179.3Z" fill="#051328"/>
<path d="M52.6968 84.8124C52.9301 85.6159 53.1548 86.4203 53.3706 87.2256C53.4744 87.6548 53.6038 88.0775 53.7584 88.4916C54.2165 89.5749 54.6635 90.6651 55.0904 91.765C55.5127 92.8663 55.8926 93.9825 56.2303 95.1137C56.6309 96.5091 56.99 97.9173 57.289 99.3382C57.5884 100.759 57.8491 102.187 58.0709 103.621C58.119 104.069 58.0914 104.52 57.9891 104.957C57.9123 105.385 57.4833 105.71 56.8949 105.949C56.0376 106.297 55.0503 106.179 54.745 105.655C54.5684 105.319 54.4812 104.944 54.4919 104.566C54.4725 102.862 54.1142 101.175 53.4379 99.6046C53.2555 99.1665 53.0035 98.7277 53.0186 98.2601C53.0722 96.7599 52.4468 95.4076 52.1889 93.9729C52.0896 93.4395 51.9615 92.9115 51.8052 92.3915C51.6601 91.8681 51.4989 91.3493 51.3597 90.8238C50.8614 88.9503 50.344 87.0725 49.7395 85.2167C49.51 84.4283 49.539 83.5893 49.8224 82.8232C49.9289 82.446 50.3089 82.2974 50.7602 82.4887L51.1827 82.7225C51.2502 82.7555 51.3106 82.8015 51.3606 82.8577L51.5092 83.0073C51.7037 83.2062 51.886 83.4166 52.0553 83.6373C52.1896 83.8159 52.3047 84.008 52.3985 84.2106C52.4827 84.4158 52.5583 84.6253 52.6457 84.8286L52.6968 84.8124Z" fill="#051328"/>
</g>
<defs>
<clipPath id="clip0_1721_10062">
<rect width="160.4" height="159.005" fill="white" transform="translate(110.75) rotate(44.1069)"/>
</clipPath>
</defs>
</svg>
