<svg width="153" height="154" viewBox="0 0 153 154" fill="none" xmlns="http://www.w3.org/2000/svg">
<path d="M45.564 78.414C46.5694 79.0654 47.5716 79.721 48.5582 80.4041C49.085 80.7599 49.6104 81.1237 50.1592 81.4428C53.0905 83.1435 56.0438 84.8102 58.9341 86.5821C60.7084 87.6813 62.4714 88.799 64.223 89.9351L66.845 91.6471L69.4477 93.3883C69.9653 93.7544 70.4527 94.1613 70.9053 94.6052C71.0987 94.7787 71.2481 94.9957 71.3412 95.2383C71.4343 95.4809 71.4683 95.7422 71.4405 96.0005C71.3791 96.7179 70.713 97.0839 69.9217 96.7533C69.4123 96.5257 68.9333 96.2353 68.496 95.8888C67.4846 95.1187 66.4445 94.3947 65.3756 93.7169C64.3091 93.0351 63.2149 92.3971 62.093 91.8029C61.474 91.4743 60.8079 91.1672 60.2854 90.7244C58.6145 89.3121 56.6776 88.287 54.9061 87.0224C53.5887 86.0833 52.1988 85.2426 50.8522 84.3424L47.2474 81.9376C46.0414 81.1429 44.8541 80.3174 43.6498 79.5186C43.1895 79.1942 42.7511 78.8398 42.3373 78.4578C41.955 78.0867 41.5936 77.6948 41.2547 77.2838C40.9541 76.921 41.138 76.6706 41.6595 76.8051C42.4073 76.9998 43.1405 77.2464 43.8539 77.5432C44.147 77.6647 44.4344 77.8038 44.7159 77.9549C44.9906 78.1172 45.2663 78.28 45.5403 78.4419L45.564 78.414Z" fill="#fedc60"/>
<path d="M71.2225 55.0698L71.9894 56.3968L72.7249 57.7442C72.9862 58.22 73.2486 58.6983 73.5491 59.1496C73.9485 59.7528 74.3554 60.351 74.7647 60.9476L75.9814 62.7434L78.4216 66.3285L81.4152 70.75L84.4333 75.1555C84.7267 75.6102 84.9872 76.0853 85.2126 76.5773C85.3133 76.7751 85.3664 76.9938 85.3675 77.2158C85.3687 77.4378 85.318 77.657 85.2194 77.8559C84.9592 78.4106 84.3227 78.5 83.7825 77.994C83.4385 77.6575 83.1393 77.2782 82.8923 76.8653C81.7333 75.0129 80.4584 73.2356 79.0753 71.5439C78.6633 71.098 78.3034 70.6066 78.0025 70.0792C77.1631 68.3902 75.9947 66.9068 75.0608 65.2789C74.3682 64.0693 73.588 62.9073 72.8886 61.6994C71.6495 59.5406 70.4326 57.3712 69.295 55.1579C68.8541 54.3222 68.5545 53.4194 68.4082 52.4859C68.344 52.082 68.6283 51.9466 68.9605 52.2642C69.4329 52.7228 69.8747 53.2117 70.2833 53.7279C70.6129 54.1609 70.9165 54.6131 71.1926 55.0821L71.2225 55.0698Z" fill="#fedc60"/>
<path d="M103.533 50.4038C103.48 51.2877 103.424 52.1718 103.364 53.0561C103.312 53.5241 103.287 53.9949 103.291 54.4658C103.328 55.7193 103.392 56.9724 103.457 58.2247C103.52 59.477 103.575 60.7285 103.61 61.98C103.656 63.5211 103.686 65.062 103.719 66.6029L103.794 71.2262C103.784 71.6995 103.715 72.1697 103.59 72.6264C103.487 73.0698 103.093 73.3672 102.572 73.561C101.813 73.8436 100.986 73.6104 100.773 72.9872C100.65 72.5855 100.612 72.1626 100.661 71.7454C100.815 69.853 100.746 67.9491 100.455 66.0729C100.377 65.5522 100.252 65.01 100.358 64.5014C100.689 62.8779 100.482 61.2478 100.632 59.6243C100.739 58.4186 100.733 57.2061 100.818 55.9985C100.893 54.9219 100.976 53.8461 101.068 52.7711L101.41 49.5503C101.494 48.7096 101.778 47.9012 102.238 47.1925C102.281 47.1181 102.344 47.058 102.42 47.0199C102.497 46.9818 102.583 46.9675 102.668 46.9787C102.753 46.9899 102.832 47.0261 102.896 47.0828C102.96 47.1395 103.006 47.214 103.027 47.2968C103.2 47.851 103.339 48.415 103.445 48.9857C103.496 49.4549 103.512 49.9271 103.493 50.3986L103.533 50.4038Z" fill="#fedc60"/>
<path d="M123.916 67.3278C123.802 67.5365 123.697 67.7492 123.57 67.9514L123.188 68.5568C123.047 68.7673 122.925 68.9892 122.821 69.2202C122.568 69.8462 122.337 70.4839 122.073 71.1042C121.816 71.7281 121.555 72.3504 121.272 72.9614C120.925 73.7143 120.565 74.4607 120.18 75.1946L119.027 77.3963C118.89 77.6182 118.713 77.8126 118.504 77.9694C118.309 78.1349 117.942 78.1176 117.51 78.0014C116.881 77.8319 116.34 77.3958 116.351 77.024C116.365 76.7967 116.452 76.58 116.598 76.4052C117.213 75.5925 117.66 74.666 117.913 73.6794C117.987 73.4044 118.024 73.0979 118.232 72.9007C118.886 72.2662 119.134 71.4154 119.638 70.7015C120.017 70.1731 120.277 69.5796 120.64 69.0412C121.282 68.0786 121.898 67.1038 122.574 66.1592C122.848 65.7642 123.238 65.4639 123.69 65.3001C123.745 65.281 123.805 65.2744 123.863 65.2806C123.922 65.2868 123.978 65.3058 124.029 65.3362C124.079 65.3666 124.123 65.4077 124.156 65.4565C124.189 65.5054 124.211 65.5609 124.22 65.6191C124.223 65.7841 124.22 65.9499 124.211 66.1145C124.206 66.2761 124.187 66.437 124.154 66.5954C124.087 66.8415 123.998 67.081 123.888 67.3109L123.916 67.3278Z" fill="#fedc60"/>
<path d="M50.9495 114.308C51.5148 114.244 52.0797 114.187 52.6443 114.135C52.9439 114.115 53.2421 114.078 53.5372 114.022C54.3152 113.84 55.0966 113.666 55.8823 113.507C56.6684 113.351 57.4599 113.226 58.2567 113.13C59.2379 113.023 60.2231 112.946 61.2102 112.91C62.1972 112.874 63.1847 112.865 64.1727 112.882C64.4783 112.902 64.7785 112.973 65.0605 113.093C65.3391 113.194 65.51 113.52 65.6058 113.944C65.7447 114.56 65.5568 115.211 65.1707 115.355C64.9258 115.434 64.6644 115.449 64.412 115.398C63.2653 115.213 62.0932 115.258 60.9639 115.53C60.6496 115.601 60.3271 115.72 60.0148 115.655C59.0134 115.445 58.0363 115.708 57.0445 115.714C56.6753 115.719 56.3067 115.744 55.9402 115.789C55.5728 115.825 55.2066 115.873 54.8384 115.906C53.5254 116.023 52.2073 116.152 50.8944 116.343C50.3397 116.405 49.7796 116.288 49.2964 116.009C49.0549 115.893 48.9971 115.62 49.1754 115.339L49.379 115.082C49.4086 115.041 49.4461 115.006 49.4894 114.979L49.6063 114.896C49.7613 114.788 49.9227 114.69 50.0896 114.602C50.2244 114.533 50.3661 114.478 50.5124 114.438C50.6596 114.405 50.8086 114.379 50.9547 114.344L50.9495 114.308Z" fill="#fedc60"/>
</svg>
