<svg width="16" height="16" viewBox="0 0 16 16" fill="none" xmlns="http://www.w3.org/2000/svg">
<path d="M4.84769 12.8245L7.99769 10.9245L11.1477 12.8495L10.3227 9.2495L13.0977 6.8495L9.44769 6.5245L7.99769 3.1245L6.54769 6.4995L2.89769 6.8245L5.67269 9.2495L4.84769 12.8245ZM7.99769 12.688L4.10744 15.034C3.96244 15.1187 3.81719 15.1543 3.67169 15.1407C3.52619 15.1273 3.39452 15.0782 3.27669 14.9938C3.15869 14.9091 3.06761 14.7985 3.00344 14.662C2.93944 14.5255 2.92919 14.3745 2.97269 14.209L4.00544 9.79175L0.570939 6.81875C0.442606 6.70725 0.360856 6.57808 0.325689 6.43125C0.290356 6.28442 0.299606 6.14175 0.353439 6.00325C0.407273 5.86492 0.484856 5.75183 0.586189 5.664C0.687523 5.57617 0.826023 5.51875 1.00169 5.49175L5.53419 5.09575L7.29394 0.9245C7.35794 0.769333 7.45502 0.654582 7.58519 0.580249C7.71536 0.505916 7.85286 0.46875 7.99769 0.46875C8.14252 0.46875 8.28002 0.505916 8.41019 0.580249C8.54036 0.654582 8.63744 0.769333 8.70144 0.9245L10.4612 5.09575L14.9937 5.49175C15.1694 5.51875 15.3079 5.57617 15.4092 5.664C15.5105 5.75183 15.5881 5.86492 15.6419 6.00325C15.6958 6.14175 15.705 6.28442 15.6697 6.43125C15.6345 6.57808 15.5528 6.70725 15.4244 6.81875L11.9899 9.79175L13.0227 14.209C13.0662 14.3745 13.0559 14.5255 12.9919 14.662C12.9278 14.7985 12.8367 14.9091 12.7187 14.9938C12.6009 15.0782 12.4692 15.1273 12.3237 15.1407C12.1782 15.1543 12.0329 15.1187 11.8879 15.034L7.99769 12.688Z" fill="#DF9C00"/>
</svg>
