<svg width="38" height="38" viewBox="0 0 38 38" fill="none" xmlns="http://www.w3.org/2000/svg">
<path d="M23.9158 10.187C21.3873 10.187 19.3281 12.2426 19.3281 14.7711C19.3281 17.2995 21.3873 19.3587 23.9158 19.3587C26.4443 19.3587 28.4999 17.2995 28.4999 14.7711C28.4999 12.2425 26.4443 10.187 23.9158 10.187ZM23.9158 18.631C21.7875 18.631 20.0558 16.8993 20.0558 14.771C20.0558 12.6463 21.7875 10.9146 23.9158 10.9146C26.0405 10.9146 27.7722 12.6463 27.7722 14.771C27.7722 16.8993 26.0405 18.631 23.9158 18.631Z" fill="#051328"/>
<path d="M19.593 5.65039H10.1375C9.32624 5.65039 8.66406 6.30886 8.66406 7.12386V8.16069C8.66406 8.97198 9.32617 9.63416 10.1375 9.63416H19.593C20.4043 9.63416 21.0665 8.97205 21.0665 8.16069V7.12386C21.0664 6.30886 20.4043 5.65039 19.593 5.65039ZM20.3388 8.16062C20.3388 8.57171 20.0041 8.90644 19.593 8.90644H10.1375C9.72643 8.90644 9.3917 8.57171 9.3917 8.16062V7.12378C9.3917 6.71268 9.72643 6.37796 10.1375 6.37796H19.593C20.0041 6.37796 20.3388 6.71268 20.3388 7.12378V8.16062ZM9.30999 13.1276H15.6836C15.8845 13.1276 16.0474 12.9649 16.0474 12.7637C16.0474 12.5627 15.8845 12.3999 15.6836 12.3999H9.30999C9.10908 12.3999 8.94617 12.5626 8.94617 12.7637C8.94617 12.9649 9.10908 13.1276 9.30999 13.1276ZM9.30999 16.8832H18.7385C18.9394 16.8832 19.1023 16.7206 19.1023 16.5194C19.1023 16.3183 18.9394 16.1556 18.7385 16.1556H9.30999C9.10908 16.1556 8.94617 16.3183 8.94617 16.5194C8.94617 16.7206 9.10908 16.8832 9.30999 16.8832ZM9.30999 20.639H23.1124C23.3133 20.639 23.4762 20.4763 23.4762 20.2752C23.4762 20.0741 23.3133 19.9114 23.1124 19.9114H9.30999C9.10908 19.9114 8.94617 20.0741 8.94617 20.2752C8.94617 20.4763 9.10908 20.639 9.30999 20.639ZM25.5717 24.0309C25.5717 23.8298 25.4088 23.6671 25.2079 23.6671H9.30999C9.10908 23.6671 8.94617 23.8298 8.94617 24.0309C8.94617 24.232 9.10908 24.3947 9.30999 24.3947H25.2079C25.4088 24.3947 25.5717 24.2319 25.5717 24.0309ZM18.9781 27.4228H9.30999C9.10908 27.4228 8.94617 27.5854 8.94617 27.7866C8.94617 27.9877 9.10908 28.1504 9.30999 28.1504H18.9782C19.1791 28.1504 19.342 27.9877 19.342 27.7866C19.342 27.5854 19.179 27.4228 18.9781 27.4228Z" fill="#051328"/>
<path d="M24.2691 14.5952C24.48 14.4187 24.6005 14.1733 24.6307 13.8591L24.2691 14.5952ZM24.2691 14.5952C24.074 14.7577 23.8177 14.8646 23.4999 14.9159L24.2691 14.5952ZM23.9708 16.985L23.9863 17.0119H24.0172H24.6759H24.7708L24.7216 16.9307L23.5298 14.9651C23.8448 14.9114 24.1037 14.8026 24.3033 14.6362L24.3034 14.6362C24.5155 14.4586 24.6398 14.2159 24.6785 13.9125H25.4701H25.5235V13.8591V13.4458V13.3924H25.4701H24.6646C24.644 13.255 24.6032 13.1323 24.5414 13.0252C24.497 12.9484 24.4449 12.8782 24.385 12.8149H25.4701H25.5235V12.7614V12.3481V12.2947H25.4701H22.7969H22.7434V12.3481V12.7614V12.8149H22.7969H22.9389C23.155 12.8149 23.3343 12.8382 23.4782 12.8834L23.4782 12.8834L23.4786 12.8835C23.6258 12.9285 23.7393 12.9991 23.822 13.0936L23.822 13.0936L23.8228 13.0945C23.8934 13.1718 23.945 13.2704 23.9764 13.3924H22.7969H22.7434V13.4458V13.8591V13.9125H22.7969H23.9887C23.967 14.0477 23.9193 14.1524 23.8486 14.2298C23.7665 14.3197 23.6514 14.3863 23.4996 14.4273L23.4993 14.4274C23.3505 14.4688 23.1641 14.49 22.9389 14.49H22.7969H22.7434V14.5435V14.8276V14.8418L22.7505 14.8542L23.9708 16.985Z" fill="#051328" stroke="#051328" stroke-width="0.106927"/>
<path d="M35.3275 25.0231H30.1068V9.0082C30.1068 8.93911 30.0704 8.82266 30.0049 8.75356L23.3763 1.88847C23.3108 1.81937 23.1944 1.7793 23.1144 1.7793H9.12215C7.42314 1.7793 6.0443 3.15813 6.0443 4.85351V24.4847H2.8428C1.52215 24.4847 0.445312 25.5616 0.445312 26.8822V30.5421C0.445312 32.2811 1.84961 33.7072 3.60681 33.7072C21.5754 33.7072 22.2121 33.7072 22.2121 33.7072V33.9873C22.2121 35.217 23.2126 36.2175 24.4386 36.2175H35.3275C36.5571 36.2175 37.554 35.217 37.554 33.9873V27.2496C37.5539 26.0236 36.5571 25.0231 35.3275 25.0231ZM22.212 27.2496V32.9796H5.62593C6.32448 32.3975 6.77194 31.5207 6.77194 30.542V4.85344C6.77194 3.55825 7.82704 2.50686 9.12215 2.50686H22.7505V6.54518C22.7505 8.10229 24.0202 9.37202 25.5773 9.37202H29.3791V25.0232H24.4386C23.2125 25.0231 22.212 26.0236 22.212 27.2496ZM36.8264 33.9874C36.8264 34.8169 36.1533 35.49 35.3275 35.49H24.4386C23.6128 35.49 22.9397 34.817 22.9397 33.9874V27.2497C22.9397 26.4239 23.6128 25.7508 24.4386 25.7508H35.3275C36.1533 25.7508 36.8264 26.4238 36.8264 27.2497V33.9874Z" fill="#051328"/>
<path d="M29.8861 27.5663C28.9438 27.5663 28.1762 28.3339 28.1762 29.2762V33.3109C28.1762 33.511 28.3399 33.6747 28.54 33.6747C28.7401 33.6747 28.9038 33.511 28.9038 33.3109V30.9825H30.8648V33.3109C30.8648 33.511 31.0285 33.6747 31.2286 33.6747C31.4323 33.6747 31.5924 33.511 31.5924 33.3109V29.2762C31.5924 28.3339 30.8284 27.5663 29.8861 27.5663ZM30.8648 30.2549H28.9038V29.2762C28.9038 28.7341 29.344 28.2939 29.8861 28.2939C30.4246 28.2939 30.8648 28.7341 30.8648 29.2762V30.2549ZM35.4275 27.6043C35.2472 27.5148 35.029 27.5876 34.9394 27.767L33.9198 29.8063L32.9003 27.767C32.8104 27.5876 32.5921 27.5147 32.4122 27.6043C32.2324 27.6942 32.1595 27.9127 32.2495 28.0924L33.5131 30.6199L32.2495 33.1475C32.1596 33.3272 32.2324 33.5457 32.4122 33.6356C32.594 33.7259 32.8113 33.651 32.9003 33.4729L33.9198 31.4336L34.9394 33.4729C35.0285 33.6511 35.2459 33.7259 35.4275 33.6356C35.6073 33.5457 35.6802 33.3272 35.5902 33.1475L34.3266 30.6199L35.5902 28.0924C35.6802 27.9127 35.6073 27.6942 35.4275 27.6043ZM27.1945 27.5659H24.5044C24.3035 27.5659 24.1406 27.7286 24.1406 27.9297C24.1406 28.1308 24.3035 28.2936 24.5044 28.2936H25.4855V33.3102C25.4855 33.5112 25.6485 33.674 25.8494 33.674C26.0503 33.674 26.2132 33.5113 26.2132 33.3102V28.2936H27.1945C27.3954 28.2936 27.5583 28.1309 27.5583 27.9297C27.5583 27.7287 27.3954 27.5659 27.1945 27.5659Z" fill="#051328"/>
</svg>
