<svg width="40" height="40" viewBox="0 0 40 40" fill="none" xmlns="http://www.w3.org/2000/svg">
<g clip-path="url(#clip0_1549_14553)">
<rect width="40" height="40" fill="white"/>
<g clip-path="url(#clip1_1549_14553)">
<path fill-rule="evenodd" clip-rule="evenodd" d="M30.8443 40H2.12076C0.943856 40 0 39.0887 0 37.9525V2.05316C0 0.911264 0.943856 0 2.12076 0H24.4412C24.6043 0 24.7442 0.0675011 24.8432 0.163128L32.7669 7.81325C32.866 7.90887 32.9359 8.072 32.9359 8.20138V11.132C32.9359 11.4583 32.6621 11.7171 32.3242 11.7171C31.9921 11.7171 31.7182 11.4583 31.7182 11.132V8.46013L24.2023 1.14189H2.12076C1.58475 1.14189 1.17691 1.53002 1.17691 2.05316V37.9806C1.17691 38.5037 1.58475 38.8919 2.12076 38.8919H30.8443C31.3512 38.8919 31.7881 38.47 31.7881 37.9806V24.8685C31.7881 24.5423 32.0561 24.2779 32.3941 24.2779C32.732 24.2779 33 24.5423 33 24.8685V37.9525C32.9359 39.0887 31.9921 40 30.8443 40Z" fill="#051328"/>
<path fill-rule="evenodd" clip-rule="evenodd" d="M31.779 40H2.18503C0.972457 40 0 39.0887 0 37.9525V2.05316C0 0.911264 0.972457 0 2.18503 0H25.1819C25.3499 0 25.494 0.0675011 25.596 0.163128L33.7599 7.81325C33.8619 7.90887 33.934 8.072 33.934 8.20138V11.132C33.934 11.4583 33.6518 11.7171 33.3037 11.7171C32.9615 11.7171 32.6794 11.4583 32.6794 11.132V8.46013L24.9357 1.14189H2.18503C1.63277 1.14189 1.21257 1.53002 1.21257 2.05316V37.9806C1.21257 38.5037 1.63277 38.8919 2.18503 38.8919H31.779C32.3012 38.8919 32.7514 38.47 32.7514 37.9806V24.8685C32.7514 24.5423 33.0275 24.2779 33.3757 24.2779C33.7239 24.2779 34 24.5423 34 24.8685V37.9525C33.934 39.0887 32.9615 40 31.779 40Z" fill="#051328"/>
<path fill-rule="evenodd" clip-rule="evenodd" d="M30.8443 40H2.12076C0.943856 40 0 39.0887 0 37.9525V2.05316C0 0.911264 0.943856 0 2.12076 0H24.4412C24.6043 0 24.7442 0.0675011 24.8432 0.163128L32.7669 7.81325C32.866 7.90887 32.9359 8.072 32.9359 8.20138V11.132C32.9359 11.4583 32.6621 11.7171 32.3242 11.7171C31.9921 11.7171 31.7182 11.4583 31.7182 11.132V8.46013L24.2023 1.14189H2.12076C1.58475 1.14189 1.17691 1.53002 1.17691 2.05316V37.9806C1.17691 38.5037 1.58475 38.8919 2.12076 38.8919H30.8443C31.3512 38.8919 31.7881 38.47 31.7881 37.9806V24.8685C31.7881 24.5423 32.0561 24.2779 32.3941 24.2779C32.732 24.2779 33 24.5423 33 24.8685V37.9525C32.9359 39.0887 31.9921 40 30.8443 40Z" fill="#051328"/>
<path fill-rule="evenodd" clip-rule="evenodd" d="M31.9117 8.78618H25.9547C24.7228 8.78618 23.7103 7.77929 23.7103 6.50802V0.584799C23.7103 0.359796 23.8397 0.162917 24.0703 0.067291C24.2953 -0.0339606 24.5259 0.0335404 24.6891 0.196668L32.3054 7.81304C32.4686 7.97617 32.5304 8.23492 32.4348 8.4318C32.3336 8.6568 32.1423 8.78618 31.9117 8.78618ZM24.8522 1.9517V6.50802C24.8522 7.12678 25.3359 7.64991 25.9547 7.64991H30.5448L24.8522 1.9517ZM19.4465 15.6882H5.71001C5.38938 15.6882 5.125 15.4294 5.125 15.1032C5.125 14.7769 5.38938 14.5181 5.71001 14.5181H19.4465C19.7727 14.5181 20.0315 14.7769 20.0315 15.1032C20.0315 15.4294 19.7727 15.6882 19.4465 15.6882ZM25.6622 15.6882H22.799C22.4728 15.6882 22.214 15.4294 22.214 15.1032C22.214 14.7769 22.4728 14.5181 22.799 14.5181H25.6622C25.9885 14.5181 26.2472 14.7769 26.2472 15.1032C26.2472 15.4294 25.9885 15.6882 25.6622 15.6882ZM19.4465 10.7381H5.71001C5.38938 10.7381 5.125 10.4793 5.125 10.1531C5.125 9.82682 5.38938 9.56807 5.71001 9.56807H19.4465C19.7727 9.56807 20.0315 9.82682 20.0315 10.1531C20.0315 10.4793 19.7727 10.7381 19.4465 10.7381ZM19.4465 5.82738H5.71001C5.38938 5.82738 5.125 5.563 5.125 5.24237C5.125 4.91612 5.38938 4.68549 5.71001 4.68549H19.4465C19.7727 4.68549 20.0315 4.94424 20.0315 5.24237C20.0315 5.53488 19.7727 5.82738 19.4465 5.82738ZM19.4465 20.5707H5.71001C5.38938 20.5707 5.125 20.312 5.125 19.9857C5.125 19.6595 5.38938 19.4007 5.71001 19.4007H19.4465C19.7727 19.4007 20.0315 19.6595 20.0315 19.9857C20.0315 20.312 19.7727 20.5707 19.4465 20.5707ZM25.3359 20.5707H22.8328C22.5065 20.5707 22.2478 20.312 22.2478 19.9857C22.2478 19.6595 22.5065 19.4007 22.8328 19.4007H25.3359C25.6622 19.4007 25.9266 19.6595 25.9266 19.9857C25.9266 20.312 25.6341 20.5707 25.3359 20.5707ZM25.6622 35.0835H7.01503C5.97439 35.0835 5.125 34.2397 5.125 33.1991V26.2971C5.125 25.2564 5.97439 24.3789 7.01503 24.3789H25.6341C26.6747 24.3789 27.5185 25.2227 27.5185 26.2971V33.1991C27.5522 34.2397 26.7028 35.0835 25.6622 35.0835ZM7.01503 25.5489C6.62127 25.5489 6.26689 25.9089 6.26689 26.3308V33.2328C6.26689 33.6547 6.59315 33.981 7.01503 33.981H25.6341C26.056 33.981 26.3822 33.6547 26.3822 33.2328V26.2971C26.3822 25.8752 26.056 25.5152 25.6341 25.5152H7.01503V25.5489Z" fill="#051328"/>
<path fill-rule="evenodd" clip-rule="evenodd" d="M12.9704 33.0979C12.9029 33.0979 12.841 33.0979 12.7735 33.0698C12.481 32.9685 12.3516 32.6142 12.4473 32.3217C12.6779 31.7648 12.8691 31.2473 13.0323 30.7916C14.3035 27.501 14.6635 26.4941 15.541 26.4941C16.3848 26.4941 16.7448 27.4391 17.853 30.201C18.1117 30.8198 18.3705 31.506 18.6967 32.2879C18.8261 32.5804 18.663 32.9067 18.3705 33.036C18.078 33.1654 17.7517 33.0023 17.6223 32.7098C17.2961 31.9279 17.0373 31.2135 16.7786 30.5948C16.2892 29.3572 15.7998 28.1535 15.5073 27.7316C15.181 28.221 14.6635 29.5879 14.0448 31.1798C13.8479 31.6354 13.651 32.1585 13.4598 32.7098C13.3923 32.9685 13.1954 33.0979 12.9704 33.0979ZM13.3923 27.5685H8.99907C8.67282 27.5685 8.41406 27.3097 8.41406 26.9834C8.41406 26.6572 8.67282 26.3984 8.99907 26.3984H13.3923C13.7185 26.3984 13.9773 26.6572 13.9773 26.9834C13.9773 27.3097 13.7185 27.5685 13.3923 27.5685Z" fill="#051328"/>
<path fill-rule="evenodd" clip-rule="evenodd" d="M11.21 33.0979C10.8838 33.0979 10.625 32.8392 10.625 32.5129V26.9834C10.625 26.6572 10.8838 26.3984 11.21 26.3984C11.5363 26.3984 11.795 26.6572 11.795 26.9834V32.5467C11.7669 32.8392 11.5025 33.0979 11.21 33.0979ZM19.5745 33.0979C19.4451 33.0979 19.3495 33.0698 19.2483 33.0023C18.9895 32.8054 18.9558 32.451 19.1189 32.2204L23.2196 26.6572C23.4165 26.3984 23.7765 26.3647 24.0015 26.5278C24.2658 26.7191 24.294 27.0791 24.1308 27.3097L20.0301 32.8729C19.9345 33.036 19.7714 33.0979 19.5745 33.0979Z" fill="#051328"/>
<path fill-rule="evenodd" clip-rule="evenodd" d="M23.6758 33.0982C23.5126 33.0982 23.3214 33.0363 23.2201 32.8732L19.1194 27.31C18.9282 27.0456 18.9901 26.6912 19.2488 26.5281C19.5132 26.3312 19.8676 26.3987 20.0307 26.6575L24.1314 32.2207C24.3283 32.4851 24.2664 32.8395 24.002 33.0026C23.9401 33.0701 23.8108 33.0982 23.6758 33.0982Z" fill="#051328"/>
<path fill-rule="evenodd" clip-rule="evenodd" d="M17.0385 30.3023H14.0459C13.7197 30.3023 13.4609 30.0436 13.4609 29.7173C13.4609 29.3911 13.7197 29.1323 14.0459 29.1323H17.0385C17.3647 29.1323 17.6235 29.3911 17.6235 29.7173C17.6235 30.0436 17.3647 30.3023 17.0385 30.3023Z" fill="#051328"/>
<path fill-rule="evenodd" clip-rule="evenodd" d="M31.9117 25.4536C27.811 25.4536 24.4922 22.1348 24.4922 18.0284C24.4922 13.9277 27.811 10.5752 31.9117 10.5752C36.0124 10.5752 39.3312 13.8996 39.3312 18.0003C39.3312 22.101 36.0124 25.4536 31.9117 25.4536ZM31.9117 11.7171C28.4297 11.7171 25.6341 14.5465 25.6341 18.0003C25.6341 21.4485 28.4297 24.3117 31.9117 24.3117C35.3936 24.3117 38.1949 21.4822 38.1949 18.0284C38.1949 14.5803 35.3936 11.7171 31.9117 11.7171Z" fill="#051328"/>
<path fill-rule="evenodd" clip-rule="evenodd" d="M30.1255 21.5158C29.9961 21.5158 29.833 21.4483 29.7374 21.3526L27.3917 19.007C27.1611 18.782 27.1611 18.422 27.3917 18.1913C27.6224 17.9663 27.9767 17.9663 28.2074 18.1913L30.1593 20.1489L35.6269 14.6813C35.8519 14.4506 36.2119 14.4506 36.4425 14.6813C36.6675 14.9063 36.6675 15.2663 36.4425 15.4913L30.5474 21.3526C30.418 21.4483 30.2886 21.5158 30.1255 21.5158Z" fill="#051328"/>
</g>
</g>
<defs>
<clipPath id="clip0_1549_14553">
<rect width="40" height="40" fill="white"/>
</clipPath>
<clipPath id="clip1_1549_14553">
<rect width="40" height="40" fill="white"/>
</clipPath>
</defs>
</svg>
