<svg width="40" height="40" viewBox="0 0 40 40" fill="none" xmlns="http://www.w3.org/2000/svg">
<g clip-path="url(#clip0_1549_17021)">
<path d="M3.77742 15.4695C3.60875 15.4703 3.48126 15.3101 3.52392 15.1469C3.9302 13.5931 4.65661 12.3744 5.75373 11.2924C6.97033 10.0927 8.13223 9.49106 9.66172 9.153C10.1665 9.04144 11.2348 8.97349 11.6275 9.21638C11.9221 9.3986 11.2939 9.4324 11.0925 9.45697C10.7581 9.49775 10.2664 9.43715 9.93663 9.51353C9.29136 9.66298 8.67264 9.93427 8.09844 10.2627C6.95941 10.9143 6.14525 11.9191 5.33872 12.9344C5.0772 13.2636 4.83805 13.6194 4.71128 14.0203C4.66037 14.1813 4.6383 14.3827 4.76358 14.4959C4.85681 14.5802 4.99606 14.5812 5.12166 14.5776C8.26697 14.4873 11.4217 14.5009 14.5677 14.4389C14.7972 14.4344 15.0192 14.3543 15.2466 14.3854C15.4847 14.4179 16.4476 14.3548 16.606 14.5355C16.7828 14.7374 16.582 15.2477 16.2913 15.3571C16.0919 15.4322 15.2811 15.4204 15.0698 15.4213C14.7611 15.4226 14.4524 15.424 14.1437 15.4253C13.3257 15.4288 12.5076 15.4323 11.6896 15.4358C9.86158 15.4436 8.03359 15.4514 6.2056 15.4592L3.77742 15.4695ZM12.2929 7.62097C12.3386 7.63186 12.3807 7.65178 12.4154 7.68502C12.6713 7.92995 11.8272 8.25408 11.6792 8.311C10.2838 8.84759 8.54333 8.20274 7.9911 6.84229C7.43887 5.48184 8.15283 3.7247 9.5482 3.18812C9.68968 3.13371 10.8295 2.83555 10.6097 3.27857C10.5542 3.39041 10.29 3.34006 10.1756 3.38995C9.66445 3.61269 9.14624 4.04326 8.8695 4.54674C8.56367 5.10313 8.50564 5.79781 8.7406 6.39044C8.96271 6.95067 9.43816 7.39789 9.99942 7.61032C10.7048 7.8773 11.2356 7.8208 11.9579 7.70674C12.0409 7.69362 12.2128 7.6019 12.2929 7.62097ZM24.0907 38.3787C23.922 38.3794 23.7945 38.2193 23.8372 38.0561C24.2434 36.5023 24.9698 35.2835 26.067 34.2016C27.2836 33.0018 28.4455 32.4002 29.975 32.0622C30.4797 31.9506 31.548 31.8827 31.9407 32.1256C32.2354 32.3078 31.6072 32.3416 31.4057 32.3662C31.0714 32.4069 30.5796 32.3463 30.2499 32.4227C29.6046 32.5722 28.9859 32.8435 28.4117 33.1719C27.2726 33.8235 26.4585 34.8282 25.652 35.8435C25.3904 36.1728 25.1513 36.5286 25.0245 36.9295C24.9736 37.0905 24.9515 37.2919 25.0768 37.4051C25.17 37.4893 25.3093 37.4904 25.4349 37.4868C28.5802 37.3964 31.735 37.4101 34.881 37.3481C35.1105 37.3436 35.3324 37.2635 35.5598 37.2945C35.7979 37.327 36.7609 37.264 36.9192 37.4447C37.0961 37.6465 36.8952 38.1569 36.6046 38.2663C36.4052 38.3414 35.5944 38.3296 35.383 38.3305C35.0743 38.3318 34.7656 38.3331 34.457 38.3345C33.6389 38.338 32.8209 38.3414 32.0028 38.3449C30.1748 38.3527 28.3468 38.3605 26.5188 38.3684L24.0907 38.3787ZM32.6061 30.5301C32.6519 30.541 32.6939 30.561 32.7287 30.5942C32.9845 30.8391 32.1404 31.1633 31.9924 31.2202C30.597 31.7568 28.8566 31.1119 28.3043 29.7515C27.7521 28.391 28.4661 26.6339 29.8614 26.0973C30.0029 26.0429 31.1428 25.7447 30.9229 26.1878C30.8674 26.2996 30.6033 26.2492 30.4888 26.2991C29.9777 26.5219 29.4595 26.9524 29.1827 27.4559C28.8769 28.0123 28.8189 28.707 29.0538 29.2996C29.276 29.8599 29.7514 30.3071 30.3127 30.5195C31.0181 30.7865 31.5489 30.73 32.2711 30.6159C32.3542 30.6028 32.5261 30.5111 32.6061 30.5301Z" fill="#051328"/>
<path d="M8.45717 22.193C7.80749 26.7034 9.84637 31.4986 13.5454 34.16C17.2444 36.8213 22.4391 37.2304 26.5091 35.1808C26.4777 34.8626 26.5923 34.5852 26.561 34.2669C24.4937 34.7333 21.9529 35.1264 19.8389 34.9765C16.6625 34.7512 13.6537 33.0777 11.6318 30.6174C9.61003 28.1571 8.49176 25.3773 8.45717 22.193ZM33.7335 27.1553C33.7699 27.0567 33.7958 26.958 33.8218 26.8594C34.3202 25.037 34.45 23.1057 34.1437 21.2314C33.6401 18.1993 31.9372 15.3438 29.3983 13.6149C29.9539 14.186 30.4523 14.7986 30.8936 15.4632C30.8988 15.4684 30.904 15.4788 30.9092 15.484C32.15 17.3219 32.9444 19.4661 33.178 21.6779C33.3442 23.2303 33.2299 24.8086 32.8561 26.3246L33.7335 27.1553ZM11.1616 8.44207C9.93903 8.44207 8.77631 7.7453 8.29634 6.60685C7.99865 5.90037 8.00188 5.12379 8.30658 4.42108C8.62746 3.68009 9.23741 3.11167 10.0242 2.82045C11.592 2.23963 13.3743 2.97469 13.9994 4.45722C14.2971 5.16423 14.2938 5.94028 13.9891 6.64298C13.6683 7.38397 13.0583 7.95239 12.2715 8.24361C11.9075 8.37844 11.5316 8.44207 11.1616 8.44207ZM11.1411 3.44873C10.865 3.44873 10.584 3.49619 10.3122 3.59704C9.73895 3.80898 9.29673 4.21885 9.06645 4.75059C8.85289 5.24351 8.85073 5.78874 9.05998 6.28543C9.51461 7.3651 10.8283 7.89523 11.9835 7.46703C12.5568 7.25508 12.999 6.84522 13.2293 6.31401C13.4428 5.82056 13.445 5.27533 13.2357 4.77864C12.8879 3.95298 12.0385 3.44873 11.1411 3.44873ZM4.82058 15.0932C4.69977 15.0932 4.5849 15.0404 4.50617 14.9487C4.42635 14.8554 4.39184 14.7324 4.41179 14.6116C4.72566 12.7106 5.87059 11.4907 6.83269 10.6402C8.17877 9.45163 9.45474 8.89778 10.8488 8.89724C10.9939 8.89778 11.1368 8.90317 11.2803 8.91557C12.5686 9.02937 13.8079 9.58592 14.7706 10.4828C15.3525 11.0248 15.8103 11.6908 16.211 12.579C16.4095 13.0191 16.5821 13.4839 16.7417 13.9219C16.753 13.9531 16.7692 13.9898 16.7865 14.0281C16.8533 14.1807 16.9369 14.3706 16.9353 14.5706C16.9337 14.7977 16.7503 14.9805 16.5238 14.9821L16.0142 14.9853L4.82435 15.0932H4.82058ZM10.8472 9.7256C9.65267 9.72614 8.58324 10.1996 7.38115 11.261C6.25295 12.2581 5.61873 13.1787 5.33291 14.26L15.9457 14.1575C15.7909 13.7326 15.6362 13.3189 15.456 12.9198C15.0969 12.1244 14.7113 11.5597 14.2059 11.0889C13.3776 10.3172 12.3125 9.83831 11.208 9.7407C11.0883 9.73045 10.968 9.72614 10.8472 9.7256Z" fill="#051328"/>
<path d="M31.4741 31.3513C30.2515 31.3513 29.0888 30.6545 28.6088 29.516C28.3111 28.8096 28.3144 28.033 28.6191 27.3303C28.94 26.5893 29.5499 26.0209 30.3367 25.7296C31.9045 25.1488 33.6868 25.8839 34.3119 27.3664C34.6096 28.0729 34.6063 28.8495 34.3016 29.5522C33.9808 30.2932 33.3708 30.8616 32.584 31.1528C32.22 31.2876 31.8441 31.3513 31.4741 31.3513ZM31.4536 26.3579C31.1775 26.3579 30.8965 26.4054 30.6247 26.5062C30.0515 26.7182 29.6092 27.128 29.379 27.6598C29.1654 28.1527 29.1632 28.6979 29.3725 29.1946C29.8271 30.2743 31.1408 30.8049 32.296 30.3762C32.8693 30.1643 33.3115 29.7544 33.5418 29.2227C33.7553 28.7297 33.7575 28.1845 33.5482 27.6878C33.2004 26.8622 32.351 26.3579 31.4536 26.3579ZM25.1331 38.0024C25.0123 38.0024 24.8974 37.9495 24.8187 37.8579C24.7389 37.7646 24.7043 37.6416 24.7243 37.5208C25.0382 35.6198 26.1831 34.3999 27.1452 33.5494C28.4918 32.3603 29.7678 31.8064 31.1613 31.8059C31.308 31.807 31.4509 31.8118 31.5944 31.8248C32.8817 31.9385 34.121 32.4951 35.0836 33.3919C35.6661 33.935 36.1239 34.601 36.5235 35.4882C36.7215 35.9266 36.8876 36.3732 37.0542 36.8305C37.0655 36.8629 37.0823 36.8995 37.0995 36.9384C37.1664 37.0904 37.25 37.2797 37.2484 37.4798C37.2467 37.7069 37.0634 37.8897 36.8369 37.8913L36.3267 37.8945L25.1369 38.0024C25.1358 38.0024 25.1342 38.0024 25.1331 38.0024ZM31.1581 32.6342C29.9657 32.6348 28.8963 33.1083 27.6937 34.1702C26.5654 35.1673 25.9312 36.0879 25.6454 37.1692L36.2582 37.0667C36.1029 36.6412 35.9481 36.2265 35.7685 35.829C35.4104 35.0346 35.0248 34.47 34.5184 33.9981C33.6906 33.2264 32.6255 32.7475 31.5205 32.6499C31.3992 32.6391 31.2789 32.6353 31.1581 32.6342Z" fill="#051328"/>
<path d="M32.9551 26.7957C32.9162 26.7957 32.8763 26.7903 32.837 26.7785C32.618 26.7132 32.4929 26.4829 32.5582 26.2635C32.8974 25.1218 33.0592 23.9849 33.0392 22.8848C33.0182 22.0672 32.9292 21.2917 32.7739 20.5825C32.3996 18.7947 31.6397 17.1202 30.5757 15.7364C30.36 15.449 30.14 15.1858 29.8832 14.908C26.9128 11.7273 21.9901 10.3262 17.9098 11.5051C17.2071 11.7062 16.5368 11.9629 15.9166 12.2676C15.7106 12.3701 15.4625 12.2838 15.3622 12.0789C15.2613 11.8734 15.3455 11.6253 15.5509 11.5245C16.2148 11.1977 16.9315 10.9232 17.6811 10.7091C22.0457 9.44929 27.3135 10.9431 30.4905 14.3445C30.7682 14.6454 31.0061 14.9291 31.2202 15.2144C31.2283 15.2251 31.2353 15.2354 31.2412 15.244C32.3721 16.7136 33.1854 18.5041 33.5839 20.4094C33.7495 21.166 33.8449 21.9938 33.8676 22.8664C33.8891 24.055 33.7155 25.2765 33.352 26.4997C33.2986 26.6792 33.1336 26.7957 32.9551 26.7957ZM20.8576 35.5399C20.246 35.5399 19.6566 35.5016 19.1097 35.4218C15.3579 34.8809 12.0757 32.5964 10.1057 29.1535C8.11458 25.6735 7.80286 21.6465 9.25087 18.1055C9.62892 17.1898 10.495 15.6501 11.0694 14.8751C11.2042 14.6923 11.4647 14.6513 11.6486 14.7889C11.8325 14.9248 11.8713 15.1842 11.7349 15.3681C11.2026 16.0869 10.3678 17.5705 10.0172 18.4205C8.66682 21.7226 8.96127 25.4852 10.8245 28.7421C12.6673 31.9622 15.73 34.0978 19.2284 34.602C21.4632 34.9278 24.4488 34.5217 26.655 33.593C26.8637 33.5051 27.1086 33.6022 27.1976 33.8141C27.286 34.025 27.1873 34.2677 26.9764 34.3567C25.1817 35.1122 22.8967 35.5399 20.8576 35.5399Z" fill="#051328"/>
<path d="M15.181 18.3538C15.1158 18.3538 15.05 18.3501 14.9831 18.3414C13.7589 18.1942 13.0573 16.1551 13.0999 15.138C13.1091 14.9093 13.293 14.7114 13.5308 14.7416C13.7595 14.7508 13.9369 14.9439 13.9272 15.1725C13.8921 16.0198 14.5172 17.451 15.084 17.519C15.626 17.5934 16.1146 17.0477 16.3395 16.5186C16.4635 16.2279 16.5465 15.9157 16.6344 15.5851C16.7428 15.1779 16.855 14.7562 17.0529 14.3533C17.4623 13.5147 18.3737 12.8061 19.318 13.079C19.8023 13.2138 20.1372 13.56 20.4322 13.8653C20.5341 13.9699 20.6355 14.0756 20.7433 14.1705C21.4682 14.7988 22.6282 14.8862 23.4409 14.3717C24.2078 13.8863 24.6683 12.5073 24.389 11.5339C24.3259 11.3139 24.4526 11.0847 24.6727 11.0216C24.8927 10.9558 25.1213 11.0852 25.185 11.3052C25.5663 12.6319 24.9579 14.3922 23.8842 15.0717C22.7549 15.7857 21.2044 15.6687 20.1987 14.7945C20.0719 14.6828 19.9544 14.562 19.8368 14.4412C19.5828 14.1786 19.3633 13.9516 19.0926 13.8761C18.6045 13.7364 18.0523 14.1948 17.7966 14.7179C17.6343 15.0479 17.5372 15.4125 17.4348 15.7981C17.3431 16.1422 17.2487 16.4976 17.102 16.8427C16.772 17.6188 16.0617 18.3538 15.181 18.3538ZM18.6498 35.2332C18.488 35.2332 18.3343 35.1378 18.268 34.9792C18.1795 34.7684 18.2788 34.5257 18.4896 34.4372C19.2058 34.1363 20.0077 32.945 19.8152 32.1846C19.6227 31.4253 18.7943 30.8558 18.0226 30.9264C17.9261 30.9361 17.8301 30.9534 17.7335 30.9701C17.4865 31.0133 17.2072 31.0623 16.9079 31.0089C16.511 30.9372 16.1782 30.7037 15.9463 30.3343C15.6411 29.8478 15.5521 29.1829 15.715 28.5988C15.8611 28.0757 16.1372 27.6313 16.4047 27.201C16.5616 26.948 16.7105 26.7091 16.8302 26.4605C17.0961 25.9083 17.1878 25.1484 16.7617 24.7833C16.3977 24.4711 15.4367 24.3821 14.8521 24.5126C13.8452 24.7391 13.0347 25.1964 12.0553 26.0922C11.1876 26.886 10.8052 28.08 11.1261 28.9952C11.2016 29.2109 11.0878 29.4471 10.8721 29.5232C10.6547 29.5971 10.4196 29.4849 10.3441 29.2692C9.8431 27.839 10.5614 26.3359 11.4966 25.4806C12.5913 24.4797 13.5108 23.9652 14.6709 23.7047C15.3633 23.5483 16.6361 23.5861 17.301 24.1545C18.0636 24.8076 17.9886 25.9638 17.5766 26.8197C17.4375 27.1088 17.2703 27.3779 17.108 27.6383C16.861 28.0369 16.6269 28.4128 16.5131 28.8216C16.4139 29.1764 16.4683 29.6079 16.6479 29.8937C16.7542 30.063 16.8912 30.1639 17.0551 30.1935C17.2072 30.2216 17.3938 30.1881 17.5906 30.1542C17.7071 30.1337 17.8241 30.1137 17.9412 30.1024C19.1157 29.9848 20.3259 30.8283 20.6182 31.9813C20.9213 33.1791 19.8772 34.7527 18.81 35.2009C18.7577 35.223 18.7032 35.2332 18.6498 35.2332Z" fill="#051328"/>
<path d="M29.7327 24.7958C29.5073 24.7958 29.2872 24.7553 29.0828 24.6728C28.3839 24.3902 27.9816 23.5888 28.2043 22.9234C28.3095 22.6079 28.5193 22.3803 28.7042 22.1797C28.7673 22.1117 28.8304 22.0438 28.8876 21.972C29.0235 21.8027 29.0742 21.6021 29.0273 21.5433C28.9965 21.5045 28.8973 21.4667 28.7064 21.4748C28.1186 21.4958 27.5588 21.8022 26.9656 22.1257C26.2596 22.5113 25.5256 22.9115 24.6703 22.8667C23.4299 22.8042 22.3379 21.7169 22.1842 20.3924C22.051 19.2454 22.587 18.0179 23.5836 17.1896C24.3974 16.5133 25.4712 16.0959 26.7752 15.9497C28.7452 15.7297 30.7654 16.1719 32.4615 17.1987C32.6573 17.3174 32.7198 17.5719 32.6012 17.7677C32.4831 17.9629 32.2296 18.0255 32.0322 17.9074C30.492 16.9738 28.6568 16.5715 26.8679 16.7727C25.743 16.8989 24.7906 17.2634 24.1132 17.827C23.3291 18.4779 22.9057 19.4244 23.0071 20.297C23.1134 21.2159 23.8786 21.9974 24.7124 22.0394C25.3347 22.0777 25.9355 21.7445 26.5686 21.3988C27.2196 21.0428 27.8931 20.6756 28.6767 20.647C29.1109 20.6254 29.4625 20.7619 29.6739 21.0261C30.0298 21.4721 29.8605 22.0821 29.5348 22.4898C29.4652 22.576 29.3897 22.6591 29.3131 22.7416C29.1659 22.9012 29.0386 23.0393 28.9895 23.186C28.9054 23.4373 29.1017 23.7868 29.3935 23.9049C29.7019 24.0289 30.1129 23.9626 30.4677 23.7301C30.5891 23.6498 30.7029 23.5549 30.8161 23.461C31.0513 23.2663 31.3177 23.0463 31.6569 22.9255C32.4362 22.6494 33.3503 23.0355 33.696 23.7851C33.792 23.9928 33.7014 24.2392 33.4937 24.3347C33.2845 24.4291 33.0396 24.3401 32.9442 24.1325C32.7808 23.7798 32.2992 23.577 31.9341 23.7064C31.7329 23.7776 31.5442 23.934 31.3441 24.099C31.2077 24.2123 31.0701 24.325 30.9234 24.4215C30.5486 24.6685 30.1323 24.7958 29.7327 24.7958Z" fill="#051328"/>
<path d="M34.9769 14.4542C34.8092 14.4542 34.6512 14.3517 34.5891 14.185C33.5979 11.5333 31.7222 9.25696 29.3084 7.77552C26.895 6.29353 24.0135 5.65177 21.2027 5.96888C20.9816 5.98991 20.7702 5.83136 20.7449 5.60377C20.719 5.37619 20.8829 5.17126 21.11 5.14591C24.1063 4.80939 27.1717 5.49214 29.7419 7.06904C32.3122 8.64702 34.3092 11.0712 35.3646 13.8949C35.445 14.109 35.3361 14.3479 35.122 14.4277C35.074 14.4461 35.0249 14.4542 34.9769 14.4542Z" fill="#051328"/>
<path d="M9.2473 36.406C9.16694 36.406 9.08551 36.3828 9.01432 36.3337C5.0478 33.6237 3.00333 28.4557 4.04148 23.766C4.09109 23.5427 4.3122 23.4025 4.53547 23.451C4.75874 23.5006 4.90003 23.7217 4.85042 23.945C3.88346 28.3128 5.78771 33.126 9.48135 35.6499C9.6701 35.7788 9.71864 36.0365 9.58975 36.2253C9.50939 36.3429 9.37942 36.406 9.2473 36.406Z" fill="#051328"/>
<path d="M2.17203 26.3715C2.07388 26.3715 1.97573 26.337 1.89645 26.2669C1.72603 26.1148 1.7104 25.8527 1.86248 25.6817L4.35996 22.8785C4.44462 22.7836 4.56812 22.7248 4.69486 22.741C4.82213 22.7485 4.93808 22.8143 5.01035 22.9195L6.93671 25.7222C7.06614 25.9109 7.01868 26.1687 6.82993 26.2981C6.64118 26.4281 6.38393 26.3801 6.25396 26.1914L4.62691 23.8239L2.48159 26.2329C2.39962 26.3246 2.28582 26.3715 2.17203 26.3715Z" fill="#051328"/>
<path d="M35.4554 15.0538C35.4203 15.0538 35.3852 15.0495 35.3507 15.0403L32.8096 14.3775C32.5885 14.3198 32.4558 14.0933 32.5135 13.8722C32.5712 13.6506 32.7993 13.5174 33.0188 13.5761L35.0827 14.1144L35.2666 11.8752C35.2849 11.6476 35.4785 11.4772 35.7131 11.4966C35.9407 11.515 36.1106 11.715 36.0917 11.9432L35.8679 14.6736C35.8582 14.7955 35.7946 14.9066 35.6948 14.9778C35.6242 15.0279 35.5406 15.0538 35.4554 15.0538Z" fill="#051328"/>
<path d="M8.81731 3.6453C7.93098 4.41197 7.54912 5.74949 7.99249 6.84177C8.48524 8.05572 9.92283 8.69344 11.2185 8.43687C13.3839 8.39601 14.7802 6.32286 13.9947 4.45741C13.1634 2.48559 10.3604 1.92953 8.81731 3.6453ZM11.9789 7.46722C10.143 8.14774 8.33321 6.43246 9.06181 4.75078C9.42251 3.91789 10.2741 3.44892 11.1365 3.44892C12.0339 3.44892 12.8833 3.95317 13.2311 4.77883C13.6693 5.81898 13.1493 7.03448 11.9789 7.46722ZM35.0796 33.3922C34.1169 32.4954 32.8776 31.9388 31.5903 31.825C31.4469 31.8121 31.304 31.8073 31.1573 31.8062C30.3008 31.8065 29.4888 32.018 28.6774 32.4553C28.0038 32.7201 27.3877 33.0782 26.7811 33.568C26.7388 33.5716 26.6962 33.5761 26.6553 33.5934C24.5722 34.4702 21.8021 34.8728 19.6173 34.6418C20.329 33.9519 20.8399 32.8644 20.6162 31.9804C20.3239 30.8274 19.1137 29.9839 17.9392 30.1015C17.6629 30.1282 17.2792 30.2343 17.0531 30.1926C16.5447 30.1006 16.3688 29.3296 16.5111 28.8206C16.6249 28.4118 16.8589 28.036 17.1059 27.6374C17.2683 27.3769 17.4355 27.1078 17.5746 26.8188C17.9866 25.9629 18.0616 24.8067 17.299 24.1536C16.6341 23.5851 15.3613 23.5474 14.6689 23.7038C13.5088 23.9643 12.5893 24.4788 11.4946 25.4797C10.9219 26.0035 10.4339 26.7712 10.2541 27.6152C8.52493 23.7592 8.78781 19.4556 11.6883 15.4352C11.7494 15.4349 11.7957 15.4348 13.1059 15.4292C13.1847 16.5002 13.8645 18.2062 14.9811 18.3405C15.048 18.3491 15.1138 18.3529 15.179 18.3529C16.0597 18.3529 16.77 17.6178 17.1 16.8418C17.3971 16.1429 17.4939 15.3285 17.7946 14.717C18.0503 14.1939 18.6025 13.7355 19.0906 13.8751C19.4851 13.9852 19.7758 14.4229 20.1966 14.7935C21.2024 15.6677 22.7529 15.7848 23.8822 15.0707C24.8028 14.4881 25.3762 13.1119 25.2821 11.8948C27.7547 12.8152 29.7341 14.3509 31.1297 16.5344C29.7554 15.9892 28.2522 15.7823 26.7771 15.9471C23.5214 16.312 21.9604 18.4465 22.1861 20.3898C22.3398 21.7143 23.4319 22.8016 24.6723 22.8641C26.2538 22.9469 27.4113 21.5186 28.7084 21.4722C28.8993 21.4641 28.9985 21.5019 29.0292 21.5407C29.0762 21.5995 29.0255 21.8001 28.8896 21.9694C28.6858 22.2251 28.3501 22.4891 28.2063 22.9207C27.9835 23.5862 28.3859 24.3876 29.0848 24.6702C29.6854 24.9127 30.3766 24.7806 30.9254 24.4189C31.2824 24.1839 31.6114 23.8187 31.936 23.7038C32.3011 23.5744 32.7827 23.7771 32.9461 24.1298C32.953 24.1447 32.9656 24.1542 32.9739 24.1679C32.9174 24.701 32.8206 25.2389 32.6836 25.7797C31.5 25.2872 30.064 25.5163 29.1304 26.5546C28.2442 27.3214 27.8624 28.6587 28.3057 29.7509C28.7984 30.9647 30.2358 31.6025 31.5312 31.3462C31.8814 31.3395 32.2359 31.2805 32.58 31.1531C33.3668 30.8619 33.9767 30.2934 34.2976 29.5525C34.6023 28.8498 34.6055 28.0732 34.3079 27.3667C34.1974 27.1047 34.0406 26.8758 33.8654 26.6637C34.3208 24.8989 34.4345 23.0391 34.1391 21.2315C33.7618 18.9601 32.7111 16.788 31.1404 15.1142C27.8249 10.8139 21.1541 8.80945 15.6136 11.4977C14.141 9.27166 11.0736 8.08762 8.36619 9.54539C6.2925 10.3594 4.24777 12.3833 3.5253 15.1464C3.48263 15.3095 3.61014 15.4697 3.7788 15.469C6.39331 15.4579 8.20918 15.4501 10.6864 15.4395C9.16079 17.8154 8.269 20.108 8.36076 23.0775C8.07675 27.3192 10.0827 31.6722 13.5408 34.1601C16.7209 36.4482 21.0048 37.0661 24.7308 35.8937C24.3442 36.5438 24.048 37.2545 23.8385 38.0555C23.7959 38.2187 23.9234 38.3789 24.092 38.3782C24.3863 38.3775 36.3541 38.3605 36.6059 38.2658C36.7574 38.2088 36.8829 38.0428 36.9448 37.8684C37.1156 37.8181 37.243 37.6674 37.2443 37.4801C37.2459 37.28 37.1624 37.0907 37.0955 36.9386C36.7716 36.2099 36.3879 34.6121 35.0796 33.3922ZM16.3374 16.5177C16.1126 17.0467 15.624 17.5925 15.082 17.5181C14.5684 17.4565 14.0089 16.2772 13.9339 15.4256C14.0043 15.4253 14.0747 15.4251 14.1451 15.4247C14.4538 15.4234 14.7624 15.4221 15.0712 15.4208C15.2825 15.4199 16.0933 15.4317 16.2927 15.3566C16.4442 15.2995 16.5697 15.1334 16.6316 14.959C16.743 14.9261 16.8341 14.8519 16.8848 14.7494C16.7828 15.0275 16.7057 15.309 16.6324 15.5842C16.5445 15.9147 16.4615 16.227 16.3374 16.5177ZM31.6588 22.9229C31.3196 23.0437 31.0532 23.2637 30.8181 23.4584C30.7048 23.5523 30.591 23.6472 30.4697 23.7275C30.1148 23.96 29.7039 24.0263 29.3954 23.9023C29.1037 23.7841 28.9074 23.4347 28.9915 23.1834C29.0406 23.0367 29.1678 22.8986 29.3151 22.739C29.3916 22.6565 29.4671 22.5734 29.5367 22.4871C29.8624 22.0794 30.0318 21.4695 29.6758 21.0235C29.4644 20.7592 29.1128 20.6228 28.6787 20.6444C27.1476 20.7002 25.9441 22.1125 24.7143 22.0368C23.8806 21.9948 23.1153 21.2133 23.0091 20.2944C22.6486 17.1922 27.7189 15.4629 31.8278 17.7912C32.563 19.3292 32.9915 21.0211 33.0394 22.8851C33.0405 22.9465 33.0353 23.0091 33.0352 23.0707C32.6255 22.8325 32.1198 22.7596 31.6588 22.9229ZM32.292 30.3765C31.1368 30.8052 29.8231 30.2746 29.3685 29.1949C28.7939 27.8312 29.8741 26.3582 31.4496 26.3582C32.347 26.3582 33.1964 26.8624 33.5442 27.6881C33.9816 28.7263 33.4643 29.9431 32.292 30.3765ZM24.3994 11.5996C24.6412 12.5686 24.1891 13.896 23.4389 14.3707C22.6262 14.8852 21.4662 14.7979 20.7413 14.1696C20.3453 13.8211 19.9666 13.2592 19.316 13.078C18.5198 12.848 17.4344 13.3082 16.9061 14.6891C16.9734 14.4732 16.8729 14.2361 16.7818 14.0283C16.6443 13.7231 16.4886 13.1313 16.0272 12.22C18.7684 10.9094 21.6227 10.7889 24.3994 11.5996ZM15.9411 14.1577L5.32827 14.2602C5.61409 13.1789 6.24831 12.2583 7.37651 11.2612C8.50785 10.2623 9.70585 9.61272 11.2034 9.74089C12.3078 9.8385 13.3729 10.3174 14.2013 11.0891C15.0942 11.921 15.514 12.9851 15.9411 14.1577ZM36.2542 37.067L25.6414 37.1695C25.9272 36.0882 26.5614 35.1676 27.6896 34.1704C28.8113 33.18 30.0188 32.517 31.5165 32.6502C32.6215 32.7478 33.6866 33.2267 34.5144 33.9984C35.412 34.8348 35.8274 35.8977 36.2542 37.067ZM12.0533 26.0913C13.0326 25.1955 13.8432 24.7382 14.8501 24.5117C15.4347 24.3811 16.3957 24.4701 16.7597 24.7824C17.1858 25.1475 17.0941 25.9074 16.8282 26.4596C16.7085 26.7082 16.5596 26.9471 16.4027 27.2C16.1352 27.6304 15.8591 28.0748 15.7129 28.5979C15.4353 29.5935 15.8871 30.8239 16.9059 31.008C17.3242 31.0826 17.6996 30.9578 18.0206 30.9255C18.7923 30.8549 19.6207 31.4244 19.8132 32.1837C20.0057 32.9441 19.2038 34.1354 18.4876 34.4363C18.4744 34.4418 18.4658 34.4528 18.4535 34.4595C15.4599 33.8093 12.844 31.9478 11.1257 29.2368C11.1469 29.1589 11.1528 29.0763 11.1241 28.9943C10.8032 28.0791 11.1856 26.8851 12.0533 26.0913ZM4.81344 24.1063L6.24615 26.191C6.37612 26.3798 6.63336 26.4278 6.82212 26.2978C7.01087 26.1684 7.05833 25.9106 6.9289 25.7218L5.00253 22.9191C4.93027 22.814 4.81432 22.7482 4.68705 22.7406C4.56031 22.7244 4.43681 22.7832 4.35214 22.8781L1.85466 25.6814C1.70258 25.8523 1.71822 26.1144 1.88864 26.2665C2.06195 26.4198 2.32271 26.4015 2.47378 26.2326L3.87358 24.6606C3.26179 29.0996 5.29045 33.7954 9.00626 36.3341C9.07745 36.3832 9.15888 36.4064 9.23924 36.4064C9.64637 36.4064 9.80825 35.879 9.47329 35.6503C5.82476 33.1572 3.92741 28.4311 4.81344 24.1063ZM32.512 13.8665C32.4543 14.0876 32.587 14.3141 32.8081 14.3718C35.4999 15.0691 35.3551 15.0481 35.4539 15.0481C35.5391 15.0481 35.6227 15.0222 35.6933 14.9721C35.9699 14.7747 35.8167 14.6648 36.0902 11.9374C36.1091 11.7093 35.9392 11.5092 35.7116 11.4909C35.4771 11.4715 35.2834 11.6419 35.2651 11.8695L35.1413 13.3766C32.7279 7.66342 26.9336 4.49044 21.1054 5.14501C20.8783 5.17036 20.7144 5.37529 20.7403 5.60287C20.7656 5.83045 20.977 5.98901 21.1981 5.96797C26.9109 5.32348 32.3558 8.58189 34.4872 13.9537L33.0173 13.5704C32.7978 13.5116 32.5697 13.6448 32.512 13.8665Z" fill="#051328"/>
</g>
<defs>
<clipPath id="clip0_1549_17021">
<rect width="37" height="37" fill="white" transform="translate(1 2)"/>
</clipPath>
</defs>
</svg>
