<svg width="35" height="40" viewBox="0 0 35 40" fill="none" xmlns="http://www.w3.org/2000/svg">
<g clip-path="url(#clip0_1549_14276)">
<path d="M0.865395 23.0744C0.889295 23.0971 0.918883 23.1096 0.946456 23.1261C1.10199 23.4435 1.39377 23.6926 1.73658 23.7806C4.51807 22.7965 7.54188 22.6552 10.4201 23.2935C10.4794 23.6377 10.477 23.7241 10.5699 23.8458C9.21739 24.478 8.83743 26.3704 10.1298 27.3805C9.86822 27.6008 9.57492 28.3647 9.71329 29.1037C9.91251 30.1756 10.7418 30.5176 10.8271 30.5956C11.3626 31.1649 11.9562 31.7024 12.4713 32.1368C13.1799 32.7343 13.9619 33.2971 14.8687 33.4822C15.7755 33.667 16.8335 33.3829 17.3208 32.5932C18.7766 33.1874 20.3178 31.9188 20.0357 30.3748C20.3204 30.3301 20.6019 30.273 20.8815 30.2098C22.1775 32.4959 22.8003 35.1332 22.6439 37.7471C22.6371 37.8623 22.679 37.9707 22.7507 38.056C22.7468 38.0593 22.7433 38.063 22.7394 38.0665C22.8269 38.1275 22.5146 37.9097 23.4652 38.573C28.1326 35.1158 30.8263 29.1643 30.3549 23.376C33.6736 18.4659 34.4332 12.2357 33.9312 6.28537C33.8076 4.8198 33.4096 2.5295 32.7322 1.44288C32.0605 -0.280846 28.7614 1.02242 26.9933 1.66619C21.7544 3.4764 16.9248 6.47344 13.6971 10.8979C8.09207 12.1278 2.77454 16.9327 0.752513 22.6044C0.693194 22.7697 0.73754 22.954 0.865395 23.0744ZM15.2508 31.9315C14.9277 32.0115 14.6023 31.9626 14.3339 31.791L11.0932 29.7153C10.8248 29.5437 10.6434 29.269 10.5824 28.9419C10.4835 28.4097 10.7274 28.0768 10.8099 27.8852C12.4044 29.0712 14.1576 30.1777 16.1276 31.2386C16.0749 31.2976 15.8596 31.7777 15.2508 31.9315ZM18.5497 30.3356C18.2139 30.8355 17.5977 31.0233 17.1168 30.7716C14.6484 29.4821 12.5284 28.135 10.6359 26.6549C9.77516 25.9823 10.3479 24.5355 11.4261 24.5355C11.5948 24.5355 11.7636 24.5741 11.9214 24.6559C14.1162 25.7939 16.2794 27.1824 18.351 28.7829C18.8094 29.1371 18.8969 29.819 18.5497 30.3356ZM23.5515 36.7831C23.5226 34.4146 22.897 32.0665 21.7572 29.9784C24.6071 29.1234 27.1367 27.3251 29.1035 25.0223C28.8518 29.3588 26.798 33.777 23.5515 36.7831ZM27.2824 2.50243C28.2691 2.14439 31.7265 0.832083 31.9352 1.84357C32.1996 3.12385 32.4161 4.93628 32.5296 6.81493C32.9403 13.6119 31.332 18.7797 28.8247 22.4478C26.8629 25.3173 23.1777 27.7458 19.3968 28.6762C19.273 28.4508 19.1054 28.2473 18.8923 28.0826C16.7787 26.4499 14.57 25.0325 12.328 23.8703C12.0173 23.7098 11.6829 23.6471 11.353 23.6592C11.3629 23.6054 11.3645 23.5489 11.3529 23.4919C9.87048 16.1972 14.7956 6.81752 27.2824 2.50243ZM12.9468 12.004C10.9167 15.22 10.0965 18.6231 10.2396 21.6556C7.50423 20.962 4.60677 21.0739 1.9464 21.983C3.95547 17.3025 8.28 13.3833 12.9468 12.004Z" fill="#051328"/>
<path d="M26.3211 12.3376C29.1081 12.3376 30.7654 9.38979 29.3954 7.21819C28.6939 6.10436 27.3463 5.41555 26.0314 5.48927C24.8197 5.56299 23.8435 6.25813 23.2826 7.44625C22.3269 9.47218 23.704 12.3376 26.3211 12.3376ZM9.75875 31.7744C9.94132 31.612 9.95802 31.3326 9.79561 31.1501C9.6332 30.9675 9.35388 30.9519 9.17131 31.1132C8.21586 31.9621 7.34218 32.9095 6.5739 33.93C6.35355 34.223 6.56607 34.6384 6.92694 34.6384C7.06113 34.6384 7.19417 34.5774 7.28114 34.4622C8.01371 33.4883 8.84707 32.5841 9.75875 31.7744ZM8.43471 38.3364C8.64006 38.4658 8.91377 38.4055 9.04461 38.1976L11.4739 34.332C11.604 34.1253 11.5418 33.8517 11.3351 33.7221C11.1277 33.5908 10.8547 33.6547 10.7252 33.8609L8.29591 37.7265C8.16575 37.9338 8.22795 38.2068 8.43471 38.3364ZM13.5051 34.7225L12.8981 38.4136C12.8584 38.6549 13.0219 38.8824 13.2627 38.9221C13.5034 38.9613 13.7314 38.7989 13.7712 38.5576L14.3782 34.8665C14.418 34.6252 14.2544 34.3977 14.0137 34.3579C13.766 34.3165 13.5449 34.4823 13.5051 34.7225Z" fill="#051328"/>
</g>
<defs>
<clipPath id="clip0_1549_14276">
<rect width="34.7949" height="39.5129" fill="white"/>
</clipPath>
</defs>
</svg>
