<svg width="41" height="40" viewBox="0 0 41 40" fill="none" xmlns="http://www.w3.org/2000/svg">
<g clip-path="url(#clip0_986_2565)">
<path fill-rule="evenodd" clip-rule="evenodd" d="M31.3443 40H2.62076C1.44386 40 0.5 39.0887 0.5 37.9525V2.05316C0.5 0.911264 1.44386 0 2.62076 0H24.9412C25.1043 0 25.2442 0.0675011 25.3432 0.163128L33.2669 7.81325C33.366 7.90887 33.4359 8.072 33.4359 8.20138V11.132C33.4359 11.4583 33.1621 11.7171 32.8242 11.7171C32.4921 11.7171 32.2182 11.4583 32.2182 11.132V8.46013L24.7023 1.14189H2.62076C2.08475 1.14189 1.67691 1.53002 1.67691 2.05316V37.9806C1.67691 38.5037 2.08475 38.8919 2.62076 38.8919H31.3443C31.8512 38.8919 32.2881 38.47 32.2881 37.9806V24.8685C32.2881 24.5423 32.5561 24.2779 32.8941 24.2779C33.232 24.2779 33.5 24.5423 33.5 24.8685V37.9525C33.4359 39.0887 32.4921 40 31.3443 40Z" fill="#051328"/>
<path fill-rule="evenodd" clip-rule="evenodd" d="M32.279 40H2.68503C1.47246 40 0.5 39.0887 0.5 37.9525V2.05316C0.5 0.911264 1.47246 0 2.68503 0H25.6819C25.8499 0 25.994 0.0675011 26.096 0.163128L34.2599 7.81325C34.3619 7.90887 34.434 8.072 34.434 8.20138V11.132C34.434 11.4583 34.1518 11.7171 33.8037 11.7171C33.4615 11.7171 33.1794 11.4583 33.1794 11.132V8.46013L25.4357 1.14189H2.68503C2.13277 1.14189 1.71257 1.53002 1.71257 2.05316V37.9806C1.71257 38.5037 2.13277 38.8919 2.68503 38.8919H32.279C32.8012 38.8919 33.2514 38.47 33.2514 37.9806V24.8685C33.2514 24.5423 33.5275 24.2779 33.8757 24.2779C34.2239 24.2779 34.5 24.5423 34.5 24.8685V37.9525C34.434 39.0887 33.4615 40 32.279 40Z" fill="#051328"/>
<path fill-rule="evenodd" clip-rule="evenodd" d="M31.3443 40H2.62076C1.44386 40 0.5 39.0887 0.5 37.9525V2.05316C0.5 0.911264 1.44386 0 2.62076 0H24.9412C25.1043 0 25.2442 0.0675011 25.3432 0.163128L33.2669 7.81325C33.366 7.90887 33.4359 8.072 33.4359 8.20138V11.132C33.4359 11.4583 33.1621 11.7171 32.8242 11.7171C32.4921 11.7171 32.2182 11.4583 32.2182 11.132V8.46013L24.7023 1.14189H2.62076C2.08475 1.14189 1.67691 1.53002 1.67691 2.05316V37.9806C1.67691 38.5037 2.08475 38.8919 2.62076 38.8919H31.3443C31.8512 38.8919 32.2881 38.47 32.2881 37.9806V24.8685C32.2881 24.5423 32.5561 24.2779 32.8941 24.2779C33.232 24.2779 33.5 24.5423 33.5 24.8685V37.9525C33.4359 39.0887 32.4921 40 31.3443 40Z" fill="#051328"/>
<path fill-rule="evenodd" clip-rule="evenodd" d="M32.4112 8.78618H26.4542C25.2223 8.78618 24.2098 7.77929 24.2098 6.50802V0.584799C24.2098 0.359796 24.3392 0.162917 24.5698 0.067291C24.7948 -0.0339606 25.0254 0.0335404 25.1886 0.196668L32.8049 7.81304C32.9681 7.97617 33.0299 8.23492 32.9343 8.4318C32.8331 8.6568 32.6418 8.78618 32.4112 8.78618ZM25.3517 1.9517V6.50802C25.3517 7.12678 25.8355 7.64991 26.4542 7.64991H31.0443L25.3517 1.9517ZM19.946 15.6882H6.20952C5.88889 15.6882 5.62451 15.4294 5.62451 15.1032C5.62451 14.7769 5.88889 14.5181 6.20952 14.5181H19.946C20.2722 14.5181 20.531 14.7769 20.531 15.1032C20.531 15.4294 20.2722 15.6882 19.946 15.6882ZM26.1617 15.6882H23.2985C22.9723 15.6882 22.7135 15.4294 22.7135 15.1032C22.7135 14.7769 22.9723 14.5181 23.2985 14.5181H26.1617C26.488 14.5181 26.7467 14.7769 26.7467 15.1032C26.7467 15.4294 26.488 15.6882 26.1617 15.6882ZM19.946 10.7381H6.20952C5.88889 10.7381 5.62451 10.4793 5.62451 10.1531C5.62451 9.82682 5.88889 9.56807 6.20952 9.56807H19.946C20.2722 9.56807 20.531 9.82682 20.531 10.1531C20.531 10.4793 20.2722 10.7381 19.946 10.7381ZM19.946 5.82738H6.20952C5.88889 5.82738 5.62451 5.563 5.62451 5.24237C5.62451 4.91612 5.88889 4.68549 6.20952 4.68549H19.946C20.2722 4.68549 20.531 4.94424 20.531 5.24237C20.531 5.53488 20.2722 5.82738 19.946 5.82738ZM19.946 20.5707H6.20952C5.88889 20.5707 5.62451 20.312 5.62451 19.9857C5.62451 19.6595 5.88889 19.4007 6.20952 19.4007H19.946C20.2722 19.4007 20.531 19.6595 20.531 19.9857C20.531 20.312 20.2722 20.5707 19.946 20.5707ZM25.8355 20.5707H23.3323C23.006 20.5707 22.7473 20.312 22.7473 19.9857C22.7473 19.6595 23.006 19.4007 23.3323 19.4007H25.8355C26.1617 19.4007 26.4261 19.6595 26.4261 19.9857C26.4261 20.312 26.1336 20.5707 25.8355 20.5707ZM26.1617 35.0835H7.51454C6.4739 35.0835 5.62451 34.2397 5.62451 33.1991V26.2971C5.62451 25.2564 6.4739 24.3789 7.51454 24.3789H26.1336C27.1742 24.3789 28.018 25.2227 28.018 26.2971V33.1991C28.0517 34.2397 27.2024 35.0835 26.1617 35.0835ZM7.51454 25.5489C7.12079 25.5489 6.7664 25.9089 6.7664 26.3308V33.2328C6.7664 33.6547 7.09266 33.981 7.51454 33.981H26.1336C26.5555 33.981 26.8817 33.6547 26.8817 33.2328V26.2971C26.8817 25.8752 26.5555 25.5152 26.1336 25.5152H7.51454V25.5489Z" fill="#051328"/>
<path fill-rule="evenodd" clip-rule="evenodd" d="M13.4714 33.0979C13.4039 33.0979 13.342 33.0979 13.2745 33.0698C12.982 32.9685 12.8526 32.6142 12.9482 32.3217C13.1789 31.7648 13.3701 31.2473 13.5332 30.7916C14.8045 27.501 15.1645 26.4941 16.042 26.4941C16.8858 26.4941 17.2458 27.4391 18.3539 30.201C18.6127 30.8198 18.8714 31.506 19.1977 32.2879C19.3271 32.5804 19.1639 32.9067 18.8714 33.036C18.5789 33.1654 18.2527 33.0023 18.1233 32.7098C17.7971 31.9279 17.5383 31.2135 17.2795 30.5948C16.7902 29.3572 16.3008 28.1535 16.0083 27.7316C15.682 28.221 15.1645 29.5879 14.5458 31.1798C14.3489 31.6354 14.152 32.1585 13.9607 32.7098C13.8932 32.9685 13.6964 33.0979 13.4714 33.0979ZM13.8932 27.5685H9.50005C9.17379 27.5685 8.91504 27.3097 8.91504 26.9834C8.91504 26.6572 9.17379 26.3984 9.50005 26.3984H13.8932C14.2195 26.3984 14.4783 26.6572 14.4783 26.9834C14.4783 27.3097 14.2195 27.5685 13.8932 27.5685Z" fill="#051328"/>
<path fill-rule="evenodd" clip-rule="evenodd" d="M11.711 33.0979C11.3847 33.0979 11.126 32.8392 11.126 32.5129V26.9834C11.126 26.6572 11.3847 26.3984 11.711 26.3984C12.0372 26.3984 12.296 26.6572 12.296 26.9834V32.5467C12.2679 32.8392 12.0035 33.0979 11.711 33.0979ZM20.0755 33.0979C19.9461 33.0979 19.8505 33.0698 19.7492 33.0023C19.4905 32.8054 19.4567 32.451 19.6199 32.2204L23.7205 26.6572C23.9174 26.3984 24.2774 26.3647 24.5024 26.5278C24.7668 26.7191 24.7949 27.0791 24.6318 27.3097L20.5311 32.8729C20.4355 33.036 20.2724 33.0979 20.0755 33.0979Z" fill="#051328"/>
<path fill-rule="evenodd" clip-rule="evenodd" d="M24.1758 33.0982C24.0126 33.0982 23.8214 33.0363 23.7201 32.8732L19.6194 27.31C19.4282 27.0456 19.4901 26.6912 19.7488 26.5281C20.0132 26.3312 20.3676 26.3987 20.5307 26.6575L24.6314 32.2207C24.8283 32.4851 24.7664 32.8395 24.502 33.0026C24.4401 33.0701 24.3108 33.0982 24.1758 33.0982Z" fill="#051328"/>
<path fill-rule="evenodd" clip-rule="evenodd" d="M17.5385 30.3028H14.5459C14.2197 30.3028 13.9609 30.0441 13.9609 29.7178C13.9609 29.3916 14.2197 29.1328 14.5459 29.1328H17.5385C17.8647 29.1328 18.1235 29.3916 18.1235 29.7178C18.1235 30.0441 17.8647 30.3028 17.5385 30.3028Z" fill="#051328"/>
<path fill-rule="evenodd" clip-rule="evenodd" d="M32.4112 25.4536C28.3105 25.4536 24.9917 22.1348 24.9917 18.0284C24.9917 13.9277 28.3105 10.5752 32.4112 10.5752C36.5119 10.5752 39.8307 13.8996 39.8307 18.0003C39.8307 22.101 36.5119 25.4536 32.4112 25.4536ZM32.4112 11.7171C28.9293 11.7171 26.1336 14.5465 26.1336 18.0003C26.1336 21.4485 28.9293 24.3117 32.4112 24.3117C35.8931 24.3117 38.6944 21.4822 38.6944 18.0284C38.6944 14.5803 35.8931 11.7171 32.4112 11.7171Z" fill="#051328"/>
<path fill-rule="evenodd" clip-rule="evenodd" d="M30.6226 21.5162C30.4932 21.5162 30.3301 21.4487 30.2345 21.3531L27.8888 19.0075C27.6582 18.7824 27.6582 18.4224 27.8888 18.1918C28.1194 17.9668 28.4738 17.9668 28.7044 18.1918L30.6563 20.1493L36.1239 14.6818C36.3489 14.4511 36.7089 14.4511 36.9396 14.6818C37.1646 14.9068 37.1646 15.2668 36.9396 15.4918L31.0445 21.3531C30.9151 21.4487 30.7857 21.5162 30.6226 21.5162Z" fill="#051328"/>
</g>
<defs>
<clipPath id="clip0_986_2565">
<rect width="40" height="40" fill="white" transform="translate(0.5)"/>
</clipPath>
</defs>
</svg>
