<svg width="40" height="40" viewBox="0 0 40 40" fill="none" xmlns="http://www.w3.org/2000/svg">
<g clip-path="url(#clip0_1106_10224)">
<rect width="40" height="40" fill="white"/>
<g clip-path="url(#clip1_1106_10224)">
<rect x="7.65625" y="6.40625" width="17.1875" height="8.4375" fill="#051328" stroke="black" stroke-width="0.3125"/>
<rect x="8.28125" y="6.40625" width="16.5625" height="7.8125" fill="white" stroke="black" stroke-width="0.3125"/>
<path d="M31.5 28.8125V33.3125C31.5 34.4375 30.625 35.3125 29.5 35.3125H17.5V37.4375H29.5C31.75 37.4375 33.625 35.625 33.625 33.3125V28.75C33.0625 28.8125 32.5625 28.875 32 28.875C31.8125 28.875 31.6875 28.875 31.5 28.8125ZM29.5 0.6875H6.8125C4.5625 0.6875 2.75 2.5 2.75 4.75V19H4.875V4.75C4.875 3.625 5.75 2.75 6.875 2.75H29.5625C30.6875 2.75 31.5625 3.625 31.5625 4.75V9.25H32C32.5625 9.25 33.125 9.3125 33.625 9.375V4.75C33.625 2.5 31.75 0.6875 29.5 0.6875Z" fill="#051328"/>
<path d="M1.85345 21.2276L1.86641 21.2217L1.87862 21.2144C2.13531 21.0604 2.45779 21 2.875 21H13.4375C13.823 21 14.1595 21.1086 14.4597 21.2281C14.9715 21.4888 15.3125 22.0703 15.3125 22.9375C15.3125 25.625 15.3125 26.44 15.375 29.1279V37.1875C15.375 37.8309 15.2002 38.29 14.9013 38.5888C14.6025 38.8877 14.1434 39.0625 13.5 39.0625H2.875C2.23156 39.0625 1.77246 38.8877 1.47365 38.5888C1.17484 38.29 1 37.8309 1 37.1875V22.9375C1 22.4611 1.07482 22.098 1.2147 21.8249C1.35166 21.5575 1.55827 21.3618 1.85345 21.2276ZM4.93937 33.3825L4.93005 33.3848L4.92094 33.3878C4.698 33.4621 4.50959 33.581 4.37812 33.7563C4.24582 33.9327 4.1875 34.1445 4.1875 34.375V34.6875C4.1875 34.8256 4.07557 34.9375 3.9375 34.9375H3.5625C2.98693 34.9375 2.5625 35.3619 2.5625 35.9375C2.5625 36.226 2.6348 36.4884 2.82322 36.6768C3.01164 36.8652 3.27396 36.9375 3.5625 36.9375H3.875C4.01307 36.9375 4.125 37.0494 4.125 37.1875V37.5C4.125 38.0271 4.56392 38.4375 5.125 38.4375H5.1875C5.74858 38.4375 6.1875 38.0271 6.1875 37.5V37.125C6.1875 36.9869 6.29943 36.875 6.4375 36.875H6.875C7.14561 36.875 7.39589 36.7804 7.57371 36.6005C7.75366 36.4185 7.84303 36.1653 7.81557 35.8859C7.81367 35.8666 7.81233 35.8478 7.81161 35.8296C7.78982 35.2754 7.37098 34.875 6.8125 34.875H6.4375C6.29943 34.875 6.1875 34.7631 6.1875 34.625V34.375C6.1875 33.7248 5.60904 33.215 4.93937 33.3825ZM7.12407 30.3955L7.11428 30.3857L6.6973 29.9688L7.05178 29.6143C7.24492 29.4211 7.35344 29.1798 7.35914 28.9271C7.36484 28.6743 7.26717 28.4295 7.08307 28.2307C7.07075 28.2174 7.05866 28.2035 7.04692 28.1891L6.85308 28.347L7.04692 28.1891C6.80838 27.8962 6.49707 27.8125 6.3125 27.8125C6.05794 27.8125 5.80707 27.9019 5.57322 28.1357L5.32322 28.3857C5.24827 28.4607 5.12673 28.4607 5.05178 28.3857L4.73928 28.0732C4.34618 27.6801 3.7788 27.6617 3.36891 28.0299C3.35047 28.0465 3.32979 28.0633 3.30466 28.0832L3.45993 28.2791L3.30466 28.0832C3.07148 28.268 3 28.5247 3 28.75C3 29.0897 3.17097 29.337 3.32322 29.4893L3.59467 29.7607C3.70294 29.869 3.69733 30.0409 3.61045 30.1262C3.56812 30.1678 3.52802 30.2017 3.48633 30.2295L3.625 30.4375L3.48632 30.2295C3.21267 30.4119 3.13742 30.7365 3.12653 30.9902C3.12364 31.0575 3.13135 31.1289 3.15457 31.1996C3.23959 31.4585 3.42468 31.7057 3.67195 31.8599L3.80425 31.6478L3.67196 31.86C3.67974 31.8648 3.68798 31.8703 3.6998 31.8781L3.70089 31.8788C3.71154 31.8859 3.72542 31.8952 3.73998 31.9043C3.76998 31.923 3.81286 31.9476 3.86549 31.9651L3.94449 31.7279L3.8655 31.9651C3.97165 32.0005 4.09675 32.0002 4.17308 32C4.17811 32 4.18292 32 4.1875 32C4.39054 32 4.6389 31.9022 4.86428 31.6768L5.25 31.2911L5.69822 31.7393C5.93207 31.9731 6.18294 32.0625 6.4375 32.0625C6.75799 32.0625 7.08865 31.9065 7.26664 31.6444C7.5464 31.2648 7.41667 30.7613 7.13272 30.4063L7.12407 30.3955ZM24.8125 19.0625C24.8125 15.1381 28.0131 11.9375 31.9375 11.9375C35.8619 11.9375 39.0625 15.1381 39.0625 19.0625C39.0625 22.9869 35.8619 26.1875 31.9375 26.1875C28.0131 26.1875 24.8125 22.9869 24.8125 19.0625ZM25.4375 19.0625C25.4375 22.6381 28.3619 25.5625 31.9375 25.5625C35.5131 25.5625 38.4375 22.6381 38.4375 19.0625C38.4375 15.4869 35.5131 12.5625 31.9375 12.5625C28.3619 12.5625 25.4375 15.4869 25.4375 19.0625ZM9.875 29.875H12.5C12.7885 29.875 13.0509 29.8027 13.2393 29.6143C13.4277 29.4259 13.5 29.1635 13.5 28.875C13.5 28.5865 13.4277 28.3241 13.2393 28.1357C13.0509 27.9473 12.7885 27.875 12.5 27.875H9.875C9.63788 27.875 9.38072 27.9532 9.19822 28.1357C9.09559 28.2384 9.03287 28.3751 8.99543 28.4968C8.95691 28.622 8.9375 28.7561 8.9375 28.875C8.9375 29.1398 9.01336 29.3909 9.17973 29.5795C9.34952 29.7719 9.59268 29.875 9.875 29.875ZM13.5 30.9795C13.5001 30.9396 13.4972 30.894 13.4871 30.8458C13.4414 30.6263 13.3386 30.4288 13.1758 30.2851C13.0112 30.1398 12.7995 30.0625 12.5625 30.0625H10C9.67956 30.0625 9.34895 30.2184 9.17095 30.4804C8.92287 30.8157 8.92861 31.2287 9.08889 31.5493C9.18144 31.7344 9.44311 32.0625 10 32.0625H12.5C12.6921 32.0625 12.8437 32.0234 12.9713 31.9538C13.0892 31.8895 13.1735 31.8051 13.2332 31.7454L13.2393 31.7393C13.4926 31.486 13.4994 31.2163 13.5 30.9795ZM9.9375 36.875H12.75C13.0323 36.875 13.2755 36.7719 13.4453 36.5795C13.6116 36.3909 13.6875 36.1398 13.6875 35.875C13.6875 35.2994 13.2631 34.875 12.6875 34.875H9.9375C9.70038 34.875 9.44322 34.9532 9.26072 35.1357C9.15809 35.2384 9.09537 35.3751 9.05793 35.4968C9.01941 35.622 9 35.7561 9 35.875C9 36.1398 9.07586 36.3909 9.24223 36.5795C9.41202 36.7719 9.65518 36.875 9.9375 36.875ZM13.3125 26.25C13.7267 26.25 14.0625 25.9142 14.0625 25.5V23C14.0625 22.5858 13.7267 22.25 13.3125 22.25H2.99115C2.58216 22.25 2.24857 22.5777 2.24127 22.9866L2.19663 25.4866C2.18914 25.906 2.52706 26.25 2.94651 26.25H13.3125Z" stroke="black" stroke-width="0.5"/>
<path d="M31.9877 23.6102L29.9102 19.9827V19.4991H30.152C30.5404 19.4991 30.8665 19.4624 31.1303 19.3892C31.4014 19.3159 31.614 19.195 31.7678 19.0264C31.9217 18.8579 32.0133 18.627 32.0426 18.3339H29.9102V17.6304H32.0317C31.9804 17.3593 31.8778 17.1394 31.7239 16.9709C31.57 16.795 31.3611 16.6667 31.0973 16.5861C30.8408 16.5055 30.5257 16.4652 30.152 16.4652H29.9102V15.7617H34.4609V16.4652H32.3834C32.552 16.6045 32.6912 16.7693 32.8011 16.9599C32.911 17.1504 32.9807 17.3739 33.01 17.6304H34.4609V18.3339H33.0319C32.9807 18.8689 32.7755 19.2866 32.4164 19.587C32.0646 19.8801 31.5956 20.067 31.0094 20.1476L33.1089 23.6102H31.9877Z" fill="#051328"/>
<path d="M13.598 7.4125V8.11H12.2105V12.625H11.3555V8.11H9.96047V7.4125H13.598ZM17.6064 11.56H15.4239L15.0489 12.625H14.1564L16.0239 7.405H17.0139L18.8814 12.625H17.9814L17.6064 11.56ZM17.3664 10.8625L16.5189 8.44L15.6639 10.8625H17.3664ZM22.0859 10.0225L23.7059 12.625H22.7459L21.5684 10.735L20.4659 12.625H19.5134L21.1334 10.0225L19.5059 7.4125H20.4659L21.6509 9.3175L22.7609 7.4125H23.7134L22.0859 10.0225Z" fill="black"/>
</g>
</g>
<defs>
<clipPath id="clip0_1106_10224">
<rect width="40" height="40" fill="white"/>
</clipPath>
<clipPath id="clip1_1106_10224">
<rect width="40" height="40" fill="white"/>
</clipPath>
</defs>
</svg>
