<svg width="72" height="72" viewBox="0 0 72 72" fill="none" xmlns="http://www.w3.org/2000/svg">
<mask id="mask0_732_11999" style="mask-type:luminance" maskUnits="userSpaceOnUse" x="0" y="0" width="72" height="72">
<path d="M0 0.046875H71.939V71.9859H0V0.046875Z" fill="white"/>
</mask>
<g mask="url(#mask0_732_11999)">
<path d="M9.42533 68.0294C9.64606 67.8282 9.90218 67.6697 10.1807 67.562C10.3246 67.5259 10.7202 67.4179 10.6483 67.2025C10.5764 66.9866 10.1807 67.1303 10.0728 67.1303C9.28145 67.3822 8.59805 67.9576 8.70594 68.821C8.81387 69.684 9.53326 68.821 9.64115 68.7488L12.3748 66.6985H11.5116C10.9733 67.4094 10.6042 68.2337 10.4325 69.1087C10.3605 69.4682 11.2598 69.1805 11.3677 69.0726C12.5253 68.0186 13.7913 67.0902 15.1445 66.3029L14.3532 66.195C13.4579 67.2426 12.7958 68.4688 12.4108 69.792C12.3029 70.1519 13.2381 69.8642 13.31 69.7563C14.6862 68.5967 15.9952 67.3598 17.2307 66.0514C17.3746 65.8712 17.0869 65.8355 16.943 65.8355C16.6918 65.8313 16.448 65.921 16.2595 66.0871C15.1542 67.2097 14.3072 68.5601 13.7777 70.0439C13.7057 70.2237 14.0654 70.2237 14.1374 70.2237C14.3705 70.194 14.5928 70.1076 14.7848 69.9721L19.209 65.5117H18.2379C17.1833 66.9348 16.2221 68.4247 15.3603 69.9721C15.2884 70.1519 15.6121 70.1519 15.6481 70.1519C15.8757 70.148 16.0985 70.0861 16.2955 69.9721C18.1249 68.5561 19.8667 67.0309 21.5111 65.4038L20.5039 65.5117C19.8562 67.2209 19.0367 68.8598 18.058 70.4034C17.8062 70.7633 18.7774 70.5475 18.9213 70.4395L23.8131 65.9435H22.9139C21.928 67.3106 21.0956 68.7822 20.432 70.3316C20.2881 70.6193 21.2953 70.4395 21.4032 70.2237C22.5759 68.3021 24.0173 66.558 25.6835 65.0443H24.7483L22.6262 70.6554C22.5182 70.9792 23.5254 70.7633 23.6333 70.5836C25.0001 68.6413 26.367 66.6985 28.1295 65.08H27.1943C26.4789 67.098 25.5377 69.0286 24.3886 70.8351C24.1369 71.2307 25.18 71.0149 25.3238 70.7994L29.5683 66.1232L28.5611 66.2311C27.88 67.8267 27.0742 69.3662 26.1512 70.8351C25.9354 71.195 26.9425 71.0149 27.1223 70.7994L31.6905 64.5765L30.7193 64.6483L28.2374 71.2669C28.1295 71.5906 29.1007 71.3748 29.2445 71.195L33.3451 65.08L32.3739 65.1879L29.9999 70.4034C29.892 70.5836 30.2876 70.5836 30.3596 70.5836C30.5914 70.5639 30.8084 70.4617 30.9711 70.2955C32.3564 68.8563 33.6197 67.3044 34.7479 65.6558L33.7407 65.7276C32.9618 67.7044 32.2894 69.7216 31.7264 71.7704C31.6185 72.0942 32.5897 71.8422 32.7336 71.6625L37.3016 65.0082L36.2946 65.08C35.4704 67.2316 34.4968 69.3229 33.381 71.3387C33.3091 71.5188 33.7048 71.5188 33.7767 71.5188C34.0003 71.4943 34.2123 71.407 34.3882 71.2669C35.7445 69.7319 36.9829 68.0967 38.0928 66.3752L37.0858 66.447L35.6111 70.8713C35.4672 71.195 36.5104 70.9431 36.6184 70.7272L39.1721 66.3391L38.1289 66.4831C37.9139 67.9541 37.5527 69.4002 37.0501 70.7994L38.0928 70.6554C38.5601 69.2957 39.201 68.0021 39.9994 66.8065L38.9924 66.8787C38.5968 67.9937 38.2369 69.1448 37.9492 70.2955C37.8774 70.6193 38.8483 70.3677 38.9563 70.1876L41.3664 66.2311L40.3951 66.3391C40.1456 67.7244 39.7724 69.0847 39.2801 70.4034C39.1721 70.6915 40.1435 70.4757 40.2871 70.2955L42.4814 66.7708L41.4743 66.8426L40.5748 70.9431C40.503 71.3387 41.4743 71.0149 41.5823 70.8713L44.4598 67.0946L43.4523 67.2025L43.1286 70.8713C43.0929 71.2669 44.0638 70.9431 44.1717 70.6915L46.0422 67.1303L44.9991 67.2743L44.7114 71.0871C44.7114 71.4466 45.6105 71.1589 45.7184 70.9792C46.4794 69.7763 47.1642 68.5268 47.7687 67.2382L46.7255 67.3822C46.4409 68.5523 46.2486 69.7429 46.1502 70.9431C46.1502 71.3387 47.0493 71.0149 47.1572 70.8351C47.9022 69.9021 48.4969 68.8583 48.9198 67.7417L47.8766 67.8858L47.4449 70.7633C47.4092 71.1589 48.2722 70.8351 48.3801 70.7633C49.2013 70.2181 49.8996 69.5075 50.4304 68.677L49.4233 68.7849L49.2436 70.3677C49.2075 70.7633 50.1427 70.4757 50.2506 70.2955L51.4379 68.3893L50.4304 68.5333L50.5026 70.6193C50.5383 70.9069 51.3299 70.6193 51.4379 70.5475C52.085 70.0496 52.6759 69.4827 53.2 68.8567L52.193 69.0008L52.3731 70.3677C52.4449 70.7272 53.2723 70.3316 53.3802 70.2237L54.8908 68.7849L53.8837 68.9646L54.1353 70.3677C54.1714 70.6915 54.9269 70.4034 55.0348 70.2955C55.7534 69.7066 56.3207 68.9544 56.6895 68.1016L55.6463 68.2452C55.5022 68.8604 55.5022 69.5006 55.6463 70.1157C55.7542 70.4395 56.5454 70.1157 56.6533 69.9721L58.0203 68.3893L57.0489 68.5333V69.8642C57.0489 70.1519 57.8045 69.8999 57.8763 69.8642C58.452 69.5804 58.9848 69.217 59.4591 68.7849H58.5238L58.3437 70.6915C58.308 71.0871 59.1353 70.7633 59.2789 70.6915C60.3945 69.972 61.3101 68.9821 61.9406 67.814L60.8979 68.0294C60.8893 68.9165 60.7684 69.7988 60.538 70.6554C60.43 71.051 61.4371 70.7272 61.545 70.5836L63.8834 67.562L62.912 67.6338L62.3005 70.2237C62.2287 70.6193 63.1997 70.2598 63.3076 70.1519C64.3555 69.1604 65.0928 67.8858 65.4296 66.4831L64.4226 66.6267L64.027 70.1157C63.9909 70.5113 64.9261 70.1519 65.034 70.0078C65.9254 69.0136 66.6538 67.8847 67.1922 66.6628L66.149 66.8065L66.0054 69.5404C65.9693 69.936 66.8684 69.6122 66.9764 69.4325L68.7389 67.2743L67.768 67.3461C67.7246 67.9352 67.6037 68.5157 67.4081 69.0726C67.2645 69.4325 68.2354 69.1448 68.3072 69.0726L69.8182 67.6699C70.25 67.31 69.2068 67.3822 69.0266 67.562L67.516 68.9646H68.4151C68.6241 68.4117 68.7458 67.829 68.7751 67.2382C68.8112 66.8426 67.9116 67.1664 67.8037 67.31L66.0415 69.5043L67.0125 69.4325L67.1922 66.6985C67.2283 66.3029 66.257 66.6267 66.149 66.8426C65.6338 68.0195 64.9424 69.1111 64.0988 70.0801L65.0702 70.0078L65.4296 66.5188C65.4658 66.1593 64.4948 66.3752 64.4226 66.6628C64.0729 68.013 63.3644 69.2434 62.3723 70.2237L63.3437 70.1157L63.9191 67.5259C64.027 67.1303 63.056 67.454 62.9481 67.5981L60.5741 70.6554L61.5811 70.5475C61.809 69.6539 61.9299 68.7359 61.9406 67.814C61.9767 67.4902 61.0058 67.8496 60.8979 68.0294C60.3089 69.0815 59.4685 69.9713 58.4516 70.6193H59.3512L59.5309 68.7131C59.567 68.3532 58.7397 68.6052 58.5957 68.7131C58.1876 69.0889 57.7271 69.4041 57.2287 69.6483H58.056V68.3175C58.056 67.9937 57.1208 68.3532 57.0489 68.4611L55.6463 70.0078L56.6533 69.8642C56.5102 69.2975 56.5102 68.704 56.6533 68.1373C56.7252 67.814 55.7181 68.0294 55.6102 68.2814C55.3032 69.0308 54.8224 69.6966 54.2075 70.2237L55.1428 70.1519L54.8908 68.7131C54.819 68.3532 53.9916 68.7488 53.8837 68.8567L52.4088 70.2955L53.3802 70.1519L53.2 68.7488C53.1643 68.4254 52.3009 68.7849 52.193 68.9289C51.7201 69.4976 51.1899 70.0159 50.6106 70.4757L51.5097 70.3677L51.4379 68.2814C51.4379 67.9937 50.5383 68.2814 50.4304 68.4254L49.2436 70.3677L50.2506 70.2598L50.4304 68.6413C50.4665 68.2814 49.5313 68.569 49.4233 68.7488C48.9409 69.5305 48.2896 70.1943 47.5171 70.6915H48.4524L48.8837 67.814C48.9559 67.454 47.9489 67.706 47.8409 67.9576C47.4407 69.0294 46.883 70.0356 46.1863 70.9431L47.1572 70.8351C47.2584 69.6471 47.4509 68.4685 47.733 67.31C47.8048 66.9505 46.7977 67.2025 46.6898 67.454C46.1231 68.7133 45.4618 69.9278 44.7114 71.0871L45.7184 70.9792L46.0061 67.2025C46.0061 66.8065 45.0713 67.1303 44.9634 67.3461L43.0929 70.9431L44.1361 70.7633L44.4598 67.1303C44.4955 66.7347 43.5964 67.0584 43.4523 67.2025L40.5748 70.9431L41.5823 70.8713L42.4814 66.7708C42.5532 66.4109 41.5823 66.6628 41.4743 66.8426L39.2801 70.4034L40.2871 70.2955C40.7937 68.984 41.1557 67.6213 41.3664 66.2311C41.4382 65.8712 40.503 66.1593 40.3951 66.3391L37.9492 70.2955L38.9563 70.1876C39.2328 69.0398 39.5812 67.9105 39.9994 66.8065C40.1074 66.4831 39.1003 66.6985 38.9924 66.8787C38.1767 68.1263 37.5126 69.4666 37.014 70.8713C36.9421 71.1589 37.9492 71.051 38.0571 70.7272C38.5599 69.328 38.9213 67.882 39.136 66.4109C39.2082 66.0153 38.2369 66.3752 38.0928 66.5549L35.5752 70.9431L36.5822 70.7994L38.0928 66.3752C38.2008 66.0514 37.1937 66.2672 37.0858 66.4831C36.0043 68.1813 34.7767 69.782 33.417 71.2669L34.4242 71.195C35.5264 69.1724 36.4995 67.082 37.3377 64.9364C37.4457 64.6126 36.4743 64.8285 36.3307 65.0082L31.7624 71.6986L32.7696 71.5906C33.3218 69.5503 33.9944 67.5444 34.7838 65.5835C34.8917 65.2598 33.8846 65.5117 33.7767 65.6558C32.6702 67.3218 31.4184 68.8865 30.0359 70.3316L31.007 70.2598L33.381 65.0082C33.5249 64.7205 32.5177 64.9364 32.4099 65.1161L28.2733 71.195L29.2805 71.1228L31.7264 64.5404C31.8703 64.217 30.8632 64.4686 30.7553 64.6126L26.1512 70.8713H27.1223C28.0628 69.3504 28.8923 67.7636 29.6042 66.1232C29.6762 65.9435 29.3165 65.9435 29.2086 65.9435C28.9768 65.963 28.7598 66.065 28.5971 66.2311L24.3886 70.9069H25.3238C26.5222 69.0741 27.5002 67.1063 28.2374 65.0443C28.3813 64.6844 27.4101 64.9721 27.3022 65.0443C25.5037 66.6985 24.1009 68.677 22.6981 70.6915L23.6693 70.5836L25.7915 64.9364C25.8994 64.6126 24.9642 64.8642 24.8563 64.9721C23.1353 66.5169 21.656 68.3114 20.468 70.2955L21.4391 70.2237C22.107 68.7361 22.9139 67.3149 23.8491 65.9791C24.1369 65.6197 23.1297 65.7994 22.9859 65.9435L18.1299 70.3316H18.9932C20.0349 68.7694 20.892 67.0917 21.5471 65.332C21.619 65.1518 21.2593 65.1518 21.1874 65.1518C20.9543 65.1819 20.732 65.2684 20.5399 65.4038C18.9624 67.0254 17.2672 68.5281 15.4682 69.8999H16.4034C17.2353 68.3737 18.1728 66.9074 19.209 65.5117C19.3529 65.332 19.1011 65.2598 18.9573 65.2598C18.6901 65.2635 18.4338 65.3661 18.2379 65.5479L13.8136 69.936L14.8208 69.8642C15.3348 68.4213 16.1572 67.1079 17.2307 66.0153H16.2595C15.075 67.2661 13.8264 68.4547 12.5187 69.5761H13.418C13.8155 68.3054 14.4501 67.1215 15.2884 66.0871C15.5761 65.7637 14.6409 65.9073 14.4971 65.9791C13.0814 66.8116 11.7555 67.788 10.5404 68.8928H11.4756C11.6486 68.0814 11.9785 67.3116 12.4468 66.6267C12.5906 66.447 12.3748 66.4109 12.231 66.3752C11.9975 66.3752 11.7703 66.4509 11.5835 66.5906L8.81387 68.6413L9.74908 68.569C9.71309 68.2452 9.82102 67.6699 10.1807 67.562L10.0728 67.1303C9.53939 67.3075 9.04051 67.5753 8.59805 67.9219C8.45418 68.0655 8.49012 68.1734 8.70594 68.2096C8.83167 68.2349 8.96149 68.2319 9.08593 68.2005C9.21037 68.1696 9.3263 68.1111 9.42533 68.0294Z" fill="#1E1D1C"/>
<path d="M64.8563 66.3401C66.078 66.4738 67.291 66.6781 68.489 66.9516C69.232 67.0793 69.9566 67.2969 70.6472 67.5992C70.7946 67.6869 70.9279 67.7957 71.0427 67.9229C71.115 67.9586 71.0789 68.0666 71.115 67.9948C71.1507 67.9229 71.0071 68.1384 71.0789 68.0304L71.0071 68.1384H70.863C70.7912 68.2106 70.9709 68.1027 70.863 68.1745L69.9278 68.5344L68.489 68.8939C67.1224 69.1816 65.7194 69.3617 64.3524 69.5415C60.1801 70.045 55.9356 70.2965 51.7272 70.4767C46.4038 70.6926 41.0442 70.7644 35.6849 70.6926C30.3254 70.6203 25.8292 70.4767 20.9374 70.1168C17.6282 69.8653 14.2471 69.6133 11.0098 68.93C10.1588 68.7812 9.32658 68.54 8.52793 68.2106L8.16824 67.9948C8.16824 67.9586 8.0963 67.9586 8.06031 67.8507C8.02436 67.7428 8.02436 67.7428 8.06031 67.7071H8.0963L8.24018 67.5992H8.31211L8.56388 67.4912L9.64296 67.1313C10.8392 66.8311 12.0523 66.6029 13.2759 66.448C17.1246 65.9084 21.0453 65.6207 24.93 65.441C30.2175 65.1529 35.5051 65.0454 40.7927 65.0811H44.8214C44.9504 65.0961 45.0811 65.0772 45.2006 65.0269C45.3202 64.9766 45.4251 64.8962 45.5046 64.7934C45.6126 64.5414 45.4328 64.3617 45.1808 64.3617C39.4975 64.2899 33.8145 64.326 28.0953 64.5414C23.7071 64.7216 19.2828 64.9731 14.8945 65.4767C13.4198 65.6568 11.9091 65.8723 10.4703 66.1961C9.54742 66.3405 8.65067 66.6192 7.80854 67.0234C7.37691 67.2754 6.72946 67.7428 7.08915 68.2824C7.44885 68.8221 8.20418 69.0379 8.74375 69.2177C9.93875 69.55 11.1517 69.8142 12.3766 70.0089C14.1392 70.2609 15.8657 70.4406 17.5922 70.6203C22.4122 71.0521 27.268 71.2679 32.0879 71.3758C37.7711 71.5199 43.4183 71.4838 49.1016 71.3397C53.7056 71.1961 58.3457 70.9441 62.9136 70.4406C64.5682 70.2609 66.1872 70.0811 67.8057 69.7573C68.8786 69.609 69.9291 69.3312 70.9348 68.93C71.4027 68.7498 72.1582 68.3904 72.1582 67.815C72.1582 67.2392 71.6185 67.0595 71.2586 66.9155C70.4856 66.5842 69.677 66.3428 68.8489 66.1961C67.6617 65.9445 66.4387 65.7648 65.2158 65.5846C64.7484 65.5128 64.137 66.1961 64.8563 66.304V66.3401Z" fill="#1E1D1C"/>
<path d="M22.3384 60.1517C28.303 62.6256 34.4327 64.6808 40.683 66.3024C42.4455 66.7341 44.172 67.1297 45.9346 67.4896C46.0601 67.515 46.19 67.512 46.3142 67.4806C46.4389 67.4496 46.5546 67.3912 46.6539 67.3095C46.7976 67.1658 46.7976 67.0218 46.5817 66.95C40.2876 65.6528 34.1056 63.8607 28.0936 61.5905C26.439 60.979 24.8203 60.3314 23.2017 59.6482C23.0764 59.6042 22.9423 59.5911 22.8108 59.6099C22.6794 59.6287 22.5543 59.6788 22.4463 59.7561C22.3384 59.8279 22.1226 60.0438 22.3384 60.1517Z" fill="#1E1D1C"/>
<path d="M24.0634 31.8449C14.0279 32.888 12.6251 42.7796 15.9703 48.6065C19.3155 54.4339 43.9545 68.6058 44.0624 68.4261C44.1703 68.2459 45.7888 66.9151 44.9976 64.9371C43.595 61.4837 47.4435 58.822 47.4435 58.822C47.4435 58.822 44.71 57.2035 43.343 55.4048C41.976 53.6066 43.5589 50.2255 43.5589 50.2255C43.5589 50.2255 47.5875 48.9303 44.0624 47.0241C40.5372 45.1175 42.6236 37.6359 42.6236 37.6359L42.4077 36.8086L40.7531 35.0462C40.4288 37.0315 40.2845 39.0419 40.3218 41.0531C40.3218 41.0531 34.0629 30.7659 24.0634 31.8449Z" fill="#FFD809"/>
<path d="M48.0579 68.3154C52.1222 69.2863 56.2945 69.8978 60.4311 69.1427C62.0858 68.8546 63.7043 68.3154 64.9994 67.2C66.1312 66.2641 66.9579 65.0116 67.3735 63.603C67.813 61.9505 67.6206 60.1935 66.8338 58.6752L65.7906 59.9343C68.3087 59.7907 70.0709 57.6682 71.114 55.5461C72.1572 53.4241 72.5171 51.158 71.5096 48.9998C70.8843 47.7317 69.8434 46.7161 68.5603 46.1222L68.6682 47.3452C69.4547 46.7474 70.1062 45.9902 70.58 45.1234C71.0537 44.2565 71.339 43.2994 71.4172 42.3146C71.495 41.3299 71.3643 40.3396 71.0332 39.4091C70.7021 38.4783 70.1781 37.628 69.4955 36.9138C68.6634 36.052 67.6225 35.4201 66.4739 35.0795L66.5818 36.3023C67.3722 35.787 68.0397 35.1043 68.537 34.3025C69.0343 33.5007 69.3492 32.5994 69.4594 31.6623C69.6021 29.8733 69.1739 28.0851 68.2365 26.5547C66.0065 22.706 61.1505 21.5189 56.9782 21.8067C54.3883 21.9506 51.8346 22.598 49.3165 23.2815C48.9209 23.4253 48.3455 23.821 48.4892 24.3246C48.6332 24.8281 49.3165 24.9001 49.7121 24.7922C53.4531 23.7131 57.6615 22.634 61.4743 23.821C63.2295 24.3192 64.7797 25.3652 65.8986 26.8065C66.829 28.0422 67.3452 29.5403 67.3735 31.0868C67.4052 31.9185 67.2196 32.7442 66.8351 33.4823C66.4502 34.2203 65.8794 34.8452 65.1792 35.2953C64.7118 35.619 64.6756 36.3385 65.2871 36.5182C66.0572 36.741 66.7689 37.1303 67.3718 37.6586C67.9748 38.1869 68.4542 38.8413 68.7761 39.5755C69.1018 40.2958 69.2821 41.0734 69.3067 41.8635C69.3316 42.6536 69.2002 43.4408 68.9202 44.1799C68.5802 45.0391 68.0071 45.7864 67.2655 46.3377C66.7977 46.7337 66.8338 47.309 67.3735 47.561C69.6034 48.6399 70.5026 51.4457 69.7475 53.7118C69.4048 54.7805 68.8948 55.7882 68.2365 56.6972C67.908 57.1753 67.5077 57.5998 67.0497 57.9558C66.8631 58.0936 66.657 58.2027 66.4382 58.2796L66.2224 58.3519H65.9704C65.3232 58.4237 64.5677 58.9272 64.9272 59.6105C65.4479 60.6747 65.6135 61.8779 65.3998 63.0432C65.1861 64.2085 64.6047 65.2749 63.7404 66.085C62.6972 67.0202 61.6184 67.344 60.2153 67.6317C58.4927 67.9252 56.7385 67.9858 54.9998 67.8119C52.8867 67.6303 50.793 67.2693 48.7411 66.7326C48.4797 66.6917 48.2118 66.7317 47.974 66.8474C47.7361 66.9632 47.5394 67.1491 47.4103 67.3802C47.1583 67.9194 47.59 68.2075 48.0579 68.3154Z" fill="#1E1D1C"/>
<path d="M50.1409 23.6787C50.3924 22.3479 51.1118 21.1969 51.7594 20.0458C52.4782 18.7939 52.9884 17.4332 53.27 16.0173C53.7915 13.4206 53.8281 10.7499 53.3779 8.13992C52.9466 5.80192 51.9034 3.49987 49.925 2.09704C47.9466 0.694253 45.069 0.406497 42.7311 1.23377C41.4456 1.6825 40.2947 2.44977 39.3861 3.46388C38.5351 4.5265 37.8331 5.70037 37.2998 6.95295C36.724 8.31979 36.2205 9.72258 36.4725 11.1973C36.724 12.6721 37.3716 13.5713 37.6954 14.7943C38.0192 16.0173 37.8033 16.8445 36.8681 17.456C36.4849 17.6869 36.0739 17.8682 35.6451 17.9956L33.9905 18.4991C31.8323 19.1106 29.5663 19.3984 27.444 20.2257C26.3515 20.6368 25.3315 21.2196 24.4226 21.9522C23.5898 22.6891 22.8087 23.4823 22.0846 24.3262C21.5674 24.8724 21.098 25.4621 20.6818 26.0887C20.2092 26.9562 19.8697 27.8899 19.6746 28.8584C19.5672 29.5255 19.4951 30.1979 19.4588 30.8726C19.3869 31.9158 21.5091 31.592 21.545 30.6928C21.5846 29.5656 21.7907 28.4505 22.1566 27.3836C22.2997 26.9953 22.4804 26.6218 22.6961 26.2685C22.8404 26.004 23.0221 25.7617 23.2356 25.5492C24.3867 24.1464 25.6816 22.6716 27.2642 21.8443L27.9117 21.5206L28.2354 21.4127L28.4512 21.3048C28.3433 21.3407 28.4512 21.3048 28.4872 21.3048C28.9685 21.1279 29.4612 20.9837 29.9619 20.8731L32.9834 20.1897C34.0775 19.9328 35.1579 19.6207 36.2205 19.2545C37.3355 18.8948 38.4866 18.3912 39.2421 17.42C40.8967 15.1899 38.9901 12.9239 38.5588 10.6218C38.343 9.29094 38.9183 7.99604 39.4579 6.80907C39.9455 5.60936 40.6531 4.5114 41.5443 3.57181C42.9831 2.16898 45.1051 1.84528 47.0474 2.56467C48.9898 3.28406 50.3924 5.29835 50.9682 7.34859C51.5435 9.39887 51.6515 12.1326 51.3999 14.5425C51.3065 15.9152 50.9906 17.2637 50.4647 18.5351C49.925 19.7221 49.1695 20.8012 48.6303 22.0241C48.3568 22.6102 48.1517 23.2257 48.0188 23.8586C47.8386 24.8658 49.9611 24.578 50.1409 23.6787Z" fill="#1E1D1C"/>
<path d="M8.56012 38.574L8.3443 39.581C8.33812 39.7629 8.31402 39.9436 8.27236 40.1207C8.23065 40.3344 8.20657 40.5507 8.20043 40.7683L8.09254 41.5233C8.0492 41.8092 8.02517 42.0977 8.0206 42.3868C7.86651 45.4749 8.01106 48.5706 8.45223 51.6309C8.704 53.4653 9.02775 55.2997 9.35145 57.2063C9.6752 59.1125 10.6823 61.5226 12.5528 63.0332C13.5188 63.8331 14.7172 64.2999 15.9698 64.3641H16.8331L17.6604 64.2562C18.2081 64.1598 18.7404 63.9905 19.2431 63.7526C20.2357 63.3329 21.103 62.6638 21.7609 61.8103C22.3481 61.0684 22.7988 60.228 23.0918 59.3284C23.4583 58.24 23.6288 57.0952 23.5954 55.9473C23.5234 55.3358 23.3796 55.1561 23.1997 55.4076C23.0199 55.6596 22.7681 56.2711 22.3724 57.1702C21.9406 58.2901 21.3336 59.3343 20.5739 60.2636C20.0838 60.7893 19.4978 61.2167 18.8474 61.5226C18.1202 61.828 17.3328 61.9633 16.5453 61.9183H15.9698L15.4303 61.7742C15.062 61.6462 14.7205 61.4511 14.4232 61.1989C13.7137 60.6303 13.147 59.9035 12.7686 59.0768C12.5734 58.6193 12.4053 58.1508 12.265 57.6737C12.1571 57.2063 12.0851 56.7028 11.9772 56.0913L11.3298 52.4944C10.9341 50.0842 10.5385 47.6384 10.3226 45.2282C10.0999 43.1095 10.1361 40.9716 10.4305 38.8616C10.4791 38.4265 10.5511 37.9943 10.6464 37.5669C10.7074 37.3665 10.7554 37.1623 10.7902 36.9555C10.8286 36.7574 10.8889 36.5643 10.9701 36.3797C11.078 35.9842 11.1859 35.6245 11.2579 35.2648C11.3298 34.9051 11.5456 34.6174 11.6535 34.2937C11.893 33.7247 12.1693 33.172 12.4808 32.6391C12.6247 32.3873 12.7326 32.1355 12.8765 31.9197L13.3081 31.2003C13.7634 30.5167 14.2683 29.8675 14.8188 29.2579L14.9987 29.0781L15.1066 28.9342C15.2224 28.875 15.3311 28.8026 15.4303 28.7184L15.79 28.5386L16.1137 28.4306C16.5557 28.2944 17.0199 28.2455 17.4806 28.2867C17.9519 28.3564 18.4117 28.4895 18.8474 28.6824C19.425 28.9735 19.9386 29.3771 20.3581 29.8694L20.6459 30.2651L20.8257 30.5528C20.9456 30.6967 21.0176 30.7327 21.0416 30.6607C21.1135 30.5888 21.0775 30.0493 20.7178 29.2939C20.2029 28.3005 19.3279 27.5414 18.2719 27.1717C17.5785 26.9355 16.8401 26.8616 16.1137 26.9559L15.5023 27.0998L14.9627 27.3156L14.4232 27.6033L14.1354 27.8192L13.9915 27.927L13.8836 28.0709C13.416 28.5745 12.9125 29.1141 12.4808 29.6536L11.8693 30.5169C11.6448 30.7814 11.4517 31.0711 11.2938 31.3801L10.7543 32.2794L10.2867 33.1426L9.56727 34.8332C9.38744 35.3728 9.20757 35.8763 9.06369 36.344C8.91982 36.8114 8.84788 37.1713 8.77594 37.5308L8.59611 38.2863C8.57551 38.3809 8.56348 38.4772 8.56012 38.574ZM66.0032 35.4087L59.9965 36.4876C56.4353 37.0991 52.8383 37.6749 49.2057 38.0705L48.0546 38.1784L47.1555 38.2502H45.7167C45.5286 38.2412 45.3447 38.1922 45.177 38.1066L44.5294 37.7828C44.1369 37.5248 43.7752 37.2229 43.4506 36.8836C42.6909 36.0488 42.1361 35.0487 41.8299 33.9623C41.5242 32.8759 41.4756 31.7332 41.688 30.6248C42.2995 27.5674 44.9612 25.6969 47.8026 24.8697C48.3328 24.6923 48.8735 24.5481 49.4216 24.438C49.6731 24.402 50.2489 24.2941 50.3207 23.9345C50.3925 23.5748 49.8172 23.6107 49.637 23.6467C46.0762 24.3301 42.1554 25.8768 40.573 29.4018C39.5298 31.7398 39.9254 34.4376 41.2563 36.5237C41.8455 37.4382 42.664 38.1823 43.6303 38.6819C44.7092 39.2216 45.8603 39.1497 47.0475 39.0775C50.6802 38.826 54.3494 38.2145 57.9463 37.603C60.5001 37.1713 63.09 36.7396 65.6437 36.2361H65.7517C66.0393 36.1999 66.579 36.092 66.6508 35.7325C66.7226 35.3728 66.183 35.4087 66.0032 35.4447V35.4087Z" fill="#1E1D1C"/>
<path d="M68.3056 46.4425C62.8743 47.3421 57.4068 48.0615 51.9037 47.8456C50.5367 47.7738 49.2059 47.6659 47.8389 47.4857C46.4724 47.306 45.7169 47.2342 44.7816 46.7306C44.1029 46.3334 43.5234 45.787 43.087 45.1328C42.6507 44.4783 42.3692 43.733 42.264 42.9535C41.9733 41.052 42.3822 39.1096 43.4147 37.4865C43.5587 37.2345 42.8393 37.3063 42.7675 37.3063C42.6953 37.3063 42.012 37.4865 41.8684 37.7742C40.1415 40.5438 39.9256 44.932 42.8754 47.0183C43.6687 47.5245 44.5664 47.8443 45.501 47.9536C46.868 48.1694 48.2706 48.3492 49.6737 48.4571C52.55 48.6188 55.4344 48.5827 58.3064 48.3492C61.5434 48.0615 64.7809 47.5937 68.018 47.0544C68.2338 47.0544 68.8814 46.9104 68.9171 46.6227C68.9532 46.335 68.4497 46.4069 68.3056 46.4425Z" fill="#1E1D1C"/>
<path d="M66.4722 58.6425C62.4579 59.0618 58.4164 59.158 54.3866 58.9301C51.7967 58.7861 48.991 58.5707 46.5813 57.5275C45.6957 57.1315 44.9413 56.4915 44.4063 55.6823C43.8714 54.8734 43.5777 53.9288 43.5597 52.9592C43.4882 51.8872 43.8366 50.8295 44.531 50.0098C45.394 49.0384 46.6892 48.6789 48.0557 48.6789C48.4157 48.6428 48.9192 48.571 49.0989 48.2111C49.2787 47.8516 48.9553 47.6719 48.6315 47.6719C45.8619 47.7076 42.8403 48.7869 42.1209 51.7724C41.8887 52.8458 41.9536 53.9623 42.3088 55.0017C42.6637 56.0409 43.295 56.9637 44.135 57.6711C45.0346 58.3905 46.2214 58.7504 47.3363 59.0381C48.7993 59.4148 50.2914 59.6675 51.7967 59.7936C54.87 60.0692 57.9591 60.129 61.0409 59.9733C62.8034 59.9015 64.566 59.8293 66.2925 59.6495C66.6163 59.6134 67.1198 59.4337 67.1555 59.0381C67.1916 58.6425 66.7242 58.6063 66.4722 58.6425Z" fill="#1E1D1C"/>
<path d="M49.6393 67.3454C48.7342 67.2393 47.8727 66.8979 47.1406 66.3552C46.4083 65.8125 45.8311 65.0874 45.4666 64.252C45.2703 63.7343 45.1878 63.1804 45.225 62.6279C45.2624 62.0754 45.4184 61.5374 45.6825 61.0507C46.0063 60.4035 46.438 59.6841 47.0495 59.3242C47.499 59.1152 48.0062 59.0646 48.4882 59.1806C48.8727 59.215 49.2592 59.1402 49.6032 58.9647C49.7112 58.9286 50.1429 58.6048 49.783 58.5691C48.4323 58.3494 47.0473 58.6035 45.8622 59.2885C44.8069 60.0246 44.0633 61.1272 43.7763 62.3815C43.3085 64.3243 44.3516 66.0507 46.0063 67.0578C46.7996 67.5639 47.6972 67.8837 48.6319 67.993C49.0275 67.9969 49.4153 67.8842 49.7473 67.6692C49.9627 67.5252 49.9627 67.3816 49.6393 67.3454Z" fill="#1E1D1C"/>
<path d="M20.503 5.84246C20.503 5.44407 20.3848 5.05463 20.1635 4.72339C19.9422 4.39214 19.6276 4.13395 19.2595 3.98146C18.9844 3.86748 18.6873 3.81594 18.3899 3.83055C18.0924 3.84516 17.8018 3.92557 17.5392 4.06597C17.2765 4.20638 17.0482 4.40329 16.8708 4.64252C16.6934 4.88176 16.5712 5.15736 16.5131 5.44948C16.4583 5.72522 16.4619 6.00937 16.5235 6.28365C16.5852 6.55794 16.7035 6.81628 16.871 7.04206C17.0385 7.26785 17.2514 7.45607 17.496 7.59462C17.7406 7.73317 18.0115 7.81899 18.2913 7.84654C18.5711 7.8741 18.8535 7.84279 19.1205 7.75462C19.3874 7.66645 19.6329 7.52338 19.8413 7.33461C20.0496 7.14584 20.2161 6.91556 20.3301 6.65857C20.444 6.40158 20.5029 6.12359 20.503 5.84246ZM61.5442 13.1083C61.5442 12.8698 61.4496 12.6411 61.2806 12.4724C61.1971 12.3889 61.098 12.3227 60.9889 12.2775C60.8798 12.2323 60.7629 12.2091 60.6448 12.2091C60.5268 12.2091 60.4099 12.2323 60.3008 12.2775C60.1917 12.3227 60.0926 12.3889 60.0091 12.4724C59.8404 12.6411 59.7456 12.8698 59.7455 13.1083C59.7455 13.3468 59.8405 13.5755 60.0091 13.7441C60.0926 13.8276 60.1917 13.8939 60.3008 13.9391C60.4099 13.9842 60.5268 14.0075 60.6448 14.0075C60.7629 14.0075 60.8798 13.9842 60.9889 13.9391C61.098 13.8939 61.1971 13.8276 61.2806 13.7441C61.3642 13.6607 61.4305 13.5616 61.4757 13.4525C61.521 13.3433 61.5442 13.2264 61.5442 13.1083ZM1.90675 43.1068C1.91316 42.937 1.93724 42.768 1.97869 42.6033C2.08657 42.4235 2.05063 42.4592 2.15851 42.6033L2.8779 43.2148C3.27359 43.5385 3.70522 44.0782 4.24474 44.0059C4.48249 43.9802 4.70134 43.8643 4.85625 43.6822C4.96413 43.5385 5.03607 43.2866 5.17995 43.1786C5.32383 43.0707 6.22309 43.6465 6.47485 43.898C6.72666 44.15 7.33812 44.0782 7.44605 43.7183C7.55394 43.3588 7.69782 42.8191 7.91363 42.783C8.12945 42.7473 8.59703 43.5385 8.7769 43.7183C9.64017 44.4738 10.4315 43.3588 10.7912 42.6751L9.89194 42.9271L10.7912 43.4667C11.1509 43.7183 12.0861 43.2147 11.5825 42.891L10.7193 42.3156C10.5654 42.2356 10.3869 42.2172 10.2199 42.264C10.053 42.3107 9.91001 42.419 9.82 42.5672C9.73275 42.7051 9.63663 42.8373 9.53224 42.9628C9.49629 43.035 9.31642 43.2148 9.38836 43.2148H9.78405C9.56823 43.1786 9.4603 42.891 9.35241 42.7112C9.25208 42.5628 9.13094 42.4296 8.99272 42.3156C8.68474 42.0818 8.29715 41.9784 7.91363 42.0279C7.12231 42.1716 6.69067 42.891 6.43886 43.6103L7.41006 43.4306C6.90649 42.891 6.33098 42.3874 5.53965 42.3874C5.21026 42.3805 4.88575 42.4679 4.60444 42.6394C4.44038 42.7182 4.30287 42.8431 4.2088 42.9989C4.14587 43.1323 4.06072 43.254 3.95699 43.3588L4.35267 43.2148C4.42461 43.2148 4.02893 42.891 3.92104 42.8191L3.41747 42.3874C3.09372 42.0998 2.77002 41.7398 2.33838 41.7042C1.90675 41.668 0.935551 42.3874 0.827664 43.2148C0.719734 44.0421 1.83481 43.5742 1.90675 43.1068ZM2.41015 63.4656C2.32648 62.9301 2.31439 62.3858 2.3742 61.8471L1.403 62.1709L3.12954 62.4585C3.5838 62.595 4.05988 62.6437 4.53237 62.6022C4.89207 62.5303 5.35965 62.3863 5.50353 62.0268C5.68333 61.5196 5.7568 60.9808 5.71934 60.444L4.96401 60.7678C5.53364 60.6829 6.11551 60.7447 6.65455 60.9475C7.05763 61.1437 7.51946 61.1822 7.94945 61.0554C8.38109 60.9118 8.48902 60.696 8.5969 60.2642C8.63857 60.0385 8.66261 59.8102 8.66884 59.581C8.66884 59.329 8.56096 58.9334 8.77677 58.7893L8.20126 59.0052C8.37472 59.0061 8.54621 59.043 8.70483 59.1131L9.28035 59.1854C9.69323 59.2086 10.1071 59.16 10.5033 59.0413C11.0428 58.8616 11.6543 58.466 11.6903 57.8545C11.6903 57.7823 11.7263 57.6744 11.6903 57.6387C11.6543 57.6025 11.2586 57.7466 11.0788 57.6025H11.4745C11.7608 57.6623 12.0574 57.6499 12.3377 57.5664C12.6373 57.5234 12.9149 57.3845 13.1291 57.1708C13.3566 56.806 13.5493 56.4206 13.7046 56.0197C13.7765 55.8761 13.3449 55.9479 13.3089 55.9479C13.2729 55.9479 12.7694 56.0558 12.6974 56.1999L12.3737 56.8113C12.3377 56.9193 12.1939 57.099 12.1939 57.2431C12.1939 57.3867 12.1219 57.3867 12.4457 57.2431H11.9061C11.666 57.208 11.4211 57.2287 11.1904 57.3037C10.9596 57.3785 10.7492 57.5053 10.5752 57.6744V57.7466C10.7911 58.1061 10.6472 58.7893 10.1436 58.8255C9.64004 58.8616 9.06453 58.5739 8.48902 58.6818C7.9135 58.7893 7.6617 58.8973 7.62575 59.329C7.58976 59.7607 7.6617 59.8325 7.6617 60.1206C7.6617 60.4083 7.62575 60.84 7.40993 61.0198L7.84157 60.84H7.69769L8.16527 60.7678C7.69769 60.696 7.302 60.444 6.79843 60.3722C6.35644 60.3184 5.90957 60.3184 5.46758 60.3722C5.3237 60.4083 4.74819 60.4801 4.7122 60.696C4.70609 61.0447 4.6821 61.393 4.64026 61.7391C4.57957 61.9275 4.53151 62.1197 4.49638 62.3145C4.85608 62.2668 4.92801 62.2306 4.7122 62.2066H4.46043L2.30226 61.811C2.12239 61.811 1.403 61.8828 1.36706 62.1709C1.30087 62.7106 1.32519 63.2576 1.43899 63.7894C1.43899 63.9691 2.51808 63.7176 2.44614 63.5017L2.41015 63.4656ZM28.5241 63.7171C27.8047 63.5374 27.0134 63.2497 26.33 63.6453C25.6466 64.0409 25.8624 64.4727 26.0782 64.9762C26.1594 65.1357 26.2199 65.3049 26.258 65.4797V65.8396C26.1502 65.9476 26.2221 65.9476 26.4019 65.8396H25.5027C24.9991 65.8753 24.3517 66.0912 24.0999 66.5947C24.0038 66.842 23.9699 67.1091 24.0012 67.3726C24.0326 67.6361 24.1283 67.8878 24.2797 68.1057C24.3807 68.2464 24.4539 68.4051 24.4956 68.5731C24.5321 68.7146 24.5321 68.8634 24.4956 69.0049C24.5315 69.1489 24.8193 69.0767 24.7473 68.933C24.6754 68.789 24.6034 68.8251 24.5675 68.789L24.1359 68.4295C23.6682 68.1414 22.841 68.1057 22.5532 68.6811C22.2654 69.2568 22.8769 69.9762 23.0568 70.5877C23.2366 71.1991 22.9848 70.9472 23.0208 71.0912V71.1991H23.3445L23.0208 71.019C22.9039 70.9304 22.7706 70.8658 22.6287 70.8289C22.4867 70.7917 22.3388 70.7831 22.1935 70.8035C21.9057 70.8392 21.4741 70.9472 21.3302 71.2348C21.1864 71.5229 21.4022 71.8106 21.4022 72.0983C21.4022 72.3859 22.4453 72.1701 22.4453 71.8463C22.442 71.7232 22.4177 71.6017 22.3733 71.4868C22.3014 71.2348 22.3733 71.1992 22.0496 71.2348C21.7259 71.271 21.9417 71.3071 22.1216 71.4507L22.3733 71.5947C22.6023 71.6673 22.845 71.6856 23.0822 71.6481C23.3195 71.6107 23.5448 71.5186 23.7402 71.3789C23.9228 71.2487 24.0549 71.0595 24.114 70.8431C24.173 70.6267 24.1553 70.3965 24.0639 70.1917C23.9734 69.9383 23.8526 69.6967 23.7042 69.4723L23.5603 69.1128C23.5603 69.0049 23.4884 68.6093 23.5603 68.5731L22.9129 68.7172C23.4165 68.7529 23.7042 69.4005 24.1718 69.5084C24.4065 69.5492 24.6477 69.5312 24.8737 69.4559C25.0998 69.3807 25.3036 69.2503 25.4667 69.0767C25.7545 68.6811 25.5746 68.2493 25.3588 67.8537C25.2312 67.6731 25.1429 67.4678 25.0995 67.2509C25.0562 67.034 25.0587 66.8105 25.107 66.5947C25.1327 66.5001 25.1822 66.4132 25.2509 66.3432C25.2869 66.2713 25.2869 66.2713 25.2149 66.307H26.0422C26.2644 66.3113 26.4848 66.2683 26.6893 66.1819C26.8938 66.095 27.0778 65.9661 27.2292 65.8035C27.517 65.3718 27.1932 64.9405 27.0494 64.5088C27.0127 64.4165 26.9885 64.3198 26.9774 64.2211C26.9774 64.1489 27.0134 63.8973 27.0134 63.8612C27.0134 63.8251 26.6537 63.9691 26.9055 64.0052H27.1213L27.6968 64.1489C27.9457 64.176 28.1968 64.1256 28.4162 64.0052C28.5241 63.9691 28.7759 63.7894 28.5601 63.7171H28.5241ZM8.63298 21.9208C9.02867 21.705 9.35237 21.705 9.56819 22.1366C9.64582 22.4541 9.67013 22.7823 9.64013 23.1078C9.62566 23.4178 9.72302 23.7227 9.91448 23.967C10.1059 24.2113 10.3788 24.3786 10.6833 24.4387C10.994 24.4747 11.3078 24.4747 11.6185 24.4387C12.0619 24.4 12.4915 24.2649 12.8774 24.043H12.9493C12.8414 24.007 12.8054 24.043 12.9134 24.1149C13.0213 24.1869 13.0213 24.3307 13.0213 24.4027C13.1207 24.6122 13.2048 24.8285 13.2731 25.0501C13.3949 25.4523 13.5639 25.8387 13.7766 26.2012C14.1003 26.7407 14.7478 26.6688 15.2874 26.4889C15.5312 26.3316 15.7834 26.1875 16.0427 26.0573C16.1506 26.0213 15.9708 26.0213 16.0427 26.0933L16.1866 26.2371C16.32 26.3666 16.4189 26.5273 16.4743 26.7047C16.6901 27.2802 16.5823 27.9637 16.906 28.5032C17.2297 29.0428 17.8412 29.0068 18.4167 28.9708C18.9922 28.9348 19.1361 28.791 19.28 29.1866C19.4238 29.5823 19.28 29.978 19.4598 30.3377C19.6396 30.6974 20.5389 31.1649 21.2223 31.0571C21.3302 31.0211 21.8338 30.9132 21.8338 30.7693C21.8338 30.6254 21.5101 30.6614 21.4022 30.6614C21.2942 30.6614 20.6828 30.3736 20.5389 30.1219C20.395 29.87 20.467 29.3665 20.359 28.9708C20.2512 28.5751 19.4598 28.4673 18.9562 28.5032C18.4527 28.5392 18.3447 28.6111 18.093 28.3593C17.869 28.1091 17.7305 27.7942 17.6973 27.4601C17.6254 26.8846 17.6254 26.1292 17.0858 25.7695C16.5463 25.4098 15.8269 25.6976 15.3233 25.9853L14.9996 26.2012C14.7478 26.417 15.1435 26.0933 15.1435 26.2012L14.9277 26.0573C14.6039 25.7695 14.496 25.23 14.3522 24.8343C14.2751 24.4626 14.1286 24.1087 13.9205 23.7912C13.797 23.6893 13.6485 23.6223 13.4905 23.597C13.3324 23.5717 13.1704 23.5891 13.0213 23.6473C12.6256 23.7552 12.2659 23.971 11.8702 24.043C11.6669 24.0626 11.4621 24.026 11.2782 23.9372C11.0942 23.8484 10.9382 23.7108 10.8271 23.5394C10.4674 22.9279 10.971 21.9208 10.2876 21.4532C9.60418 20.9856 8.63298 21.4532 8.05747 21.7769C7.48196 22.1006 7.73377 21.9568 7.91359 22.0287C8.09346 22.1006 8.4891 21.9927 8.63298 21.9208Z" fill="#FFD809"/>
</g>
</svg>
