<svg width="14" height="18" viewBox="0 0 14 18" fill="none" xmlns="http://www.w3.org/2000/svg">
<path d="M13.1737 5.17533L9.1487 1.15033C8.84036 0.841992 8.41536 0.666992 7.9737 0.666992H1.9987C1.08203 0.666992 0.340365 1.41699 0.340365 2.33366L0.332031 15.667C0.332031 16.5837 1.0737 17.3337 1.99036 17.3337H11.9987C12.9154 17.3337 13.6654 16.5837 13.6654 15.667V6.35866C13.6654 5.91699 13.4904 5.49199 13.1737 5.17533ZM9.33203 11.5003H7.83203V14.0003C7.83203 14.4587 7.45703 14.8337 6.9987 14.8337C6.54036 14.8337 6.16536 14.4587 6.16536 14.0003V11.5003H4.6737C4.2987 11.5003 4.11536 11.0503 4.38203 10.792L6.71536 8.46699C6.88203 8.30866 7.14036 8.30866 7.30703 8.46699L9.63203 10.792C9.88203 11.0503 9.6987 11.5003 9.33203 11.5003ZM8.66536 6.50033C8.20703 6.50033 7.83203 6.12533 7.83203 5.66699V1.91699L12.4154 6.50033H8.66536Z" fill="#fedc60"/>
</svg>
