<svg width="20" height="20" viewBox="0 0 20 20" fill="none" xmlns="http://www.w3.org/2000/svg">
<g id="upload_file">
<path id="Vector" d="M16.175 6.17533L12.15 2.15033C11.8417 1.84199 11.4167 1.66699 10.975 1.66699H5.00004C4.08337 1.66699 3.34171 2.41699 3.34171 3.33366L3.33337 16.667C3.33337 17.5837 4.07504 18.3337 4.99171 18.3337H15C15.9167 18.3337 16.6667 17.5837 16.6667 16.667V7.35866C16.6667 6.91699 16.4917 6.49199 16.175 6.17533ZM12.3334 12.5003H10.8334V15.0003C10.8334 15.4587 10.4584 15.8337 10 15.8337C9.54171 15.8337 9.16671 15.4587 9.16671 15.0003V12.5003H7.67504C7.30004 12.5003 7.11671 12.0503 7.38337 11.792L9.71671 9.46699C9.88337 9.30866 10.1417 9.30866 10.3084 9.46699L12.6334 11.792C12.8834 12.0503 12.7 12.5003 12.3334 12.5003ZM11.6667 7.50033C11.2084 7.50033 10.8334 7.12533 10.8334 6.66699V2.91699L15.4167 7.50033H11.6667Z" fill="#3E3EF7"/>
</g>
</svg>
