<svg width="48" height="48" viewBox="0 0 48 48" fill="none" xmlns="http://www.w3.org/2000/svg">
<g id="user-password">
<path id="Vector" d="M32.0544 29.8809C32.4811 29.7176 32.8037 29.1276 32.8124 28.6609C32.8693 28.6155 32.9153 28.558 32.9472 28.4927C32.9792 28.4273 32.9962 28.3557 32.9971 28.2829C32.9971 28.0049 32.1764 25.8722 31.5084 24.4162C31.4532 24.2957 31.3523 24.202 31.2279 24.1558C31.1036 24.1096 30.966 24.1147 30.8454 24.1699C30.7248 24.2252 30.6311 24.3261 30.5849 24.4504C30.5387 24.5747 30.5438 24.7123 30.5991 24.8329C31.1331 25.9976 31.5697 27.1262 31.8097 27.7922L9.42841 28.1616C11.2611 19.5516 24.2057 14.0196 29.4724 22.7056C29.5427 22.8156 29.6533 22.8938 29.7805 22.9234C29.9078 22.953 30.0415 22.9316 30.1532 22.8638C30.2648 22.7961 30.3455 22.6873 30.378 22.5608C30.4105 22.4343 30.3922 22.3001 30.3271 22.1869C24.6897 12.8849 8.94441 17.1682 6.06641 30.2922C31.5924 30.0056 31.5791 30.0642 32.0544 29.8809Z" fill="#051328"/>
<path id="Vector_2" d="M23.4893 15.2973C26.766 14.1866 28.1466 10.7993 26.9413 7.99597C25.726 5.16997 22.3013 3.79197 19.3066 4.92264C18.684 5.15864 18.45 5.35197 18.1973 5.45197C15.3813 6.55664 14.006 10.0266 15.1426 12.7713C16.3033 15.5753 20.1526 17.1086 23.4893 15.2973ZM26.0226 8.39064C26.9933 10.6486 25.8953 13.3293 23.336 14.2966C20.8353 15.242 17.9806 14.1066 16.974 11.764C15.6886 8.77597 18.0473 5.52531 21.4853 5.52531C23.4206 5.52531 25.2566 6.60864 26.0226 8.39064ZM2.41797 34.7706C2.65397 37.882 2.9933 40.3166 3.2293 43.428C16.0353 43.2026 28.2553 43.4733 41.016 43.4733C41.076 43.2633 41.3213 42.8166 41.502 42.46C41.7293 42.3993 41.9086 42.1966 41.8726 41.88C41.5233 39.0186 41.7393 37.1386 41.0953 34.516C41.0637 34.3872 40.9823 34.2762 40.8689 34.2074C40.7555 34.1386 40.6194 34.1177 40.4906 34.1493C40.3618 34.1809 40.2508 34.2623 40.1821 34.3757C40.1133 34.4891 40.0924 34.6252 40.124 34.754C40.6973 37.0866 40.5546 38.916 40.8206 41.4853C31.952 41.4866 24.5073 41.5333 5.03797 41.5553C4.81464 39.2113 4.7013 36.5366 4.46397 34.0233C16.0806 34.0213 27.7673 33.9633 39.4973 33.9633C39.6299 33.9633 39.7571 33.9106 39.8509 33.8169C39.9446 33.7231 39.9973 33.5959 39.9973 33.4633C39.9973 33.3307 39.9446 33.2035 39.8509 33.1098C39.7571 33.016 39.6299 32.9633 39.4973 32.9633C27.6906 32.9633 15.9853 33.022 4.1433 33.0233C3.7853 32.8286 3.1873 33.1613 3.29864 33.6366C3.30597 33.6693 3.3213 33.6966 3.33464 33.726C3.0293 34.0153 2.76064 34.3593 2.41797 34.7706Z" fill="#051328"/>
<path id="Vector_3" d="M11.7967 36.9432C11.7481 36.82 11.6526 36.721 11.5311 36.6681C11.4096 36.6153 11.2721 36.6128 11.1487 36.6612L10.3581 36.9726L10.5474 36.0926C10.5628 36.0278 10.5651 35.9607 10.5542 35.895C10.5433 35.8294 10.5194 35.7666 10.4839 35.7103C10.4484 35.654 10.402 35.6054 10.3475 35.5672C10.293 35.5291 10.2314 35.5022 10.1663 35.4882C10.1013 35.4742 10.0341 35.4733 9.96867 35.4856C9.90327 35.4979 9.84098 35.5231 9.78545 35.5597C9.72992 35.5964 9.68227 35.6438 9.64529 35.6991C9.6083 35.7544 9.58274 35.8166 9.57008 35.8819L9.33408 36.9772C9.03075 36.7312 8.72341 36.4892 8.43141 36.2332C8.38204 36.1899 8.32461 36.1567 8.26241 36.1356C8.2002 36.1144 8.13444 36.1057 8.06889 36.11C7.93649 36.1186 7.81293 36.1795 7.72541 36.2792C7.63789 36.379 7.59357 36.5094 7.6022 36.6418C7.61082 36.7742 7.67169 36.8977 7.77141 36.9852C8.03941 37.2199 8.32141 37.4399 8.59808 37.6666L7.52741 38.0886C7.40737 38.1395 7.31197 38.2353 7.26155 38.3555C7.21113 38.4758 7.20968 38.611 7.2575 38.7323C7.30533 38.8536 7.39865 38.9514 7.51757 39.0049C7.63649 39.0584 7.77159 39.0633 7.89408 39.0186L8.98675 38.5879L8.77541 39.5679C8.75868 39.6331 8.75528 39.7009 8.76539 39.7674C8.7755 39.8339 8.79894 39.8977 8.83428 39.9549C8.86962 40.0122 8.91615 40.0617 8.97108 40.1005C9.02601 40.1394 9.08821 40.1667 9.15396 40.1809C9.21971 40.1952 9.28765 40.196 9.35372 40.1833C9.41979 40.1707 9.48263 40.1448 9.53847 40.1073C9.59432 40.0698 9.64202 40.0214 9.67872 39.9651C9.71543 39.9087 9.74038 39.8455 9.75208 39.7792L9.97808 38.7332C10.2547 38.9359 10.5274 39.1466 10.8094 39.3386C10.8637 39.3756 10.9247 39.4015 10.989 39.4149C11.0533 39.4283 11.1196 39.4289 11.1842 39.4167C11.2487 39.4044 11.3102 39.3796 11.3652 39.3436C11.4201 39.3076 11.4674 39.2612 11.5044 39.2069C11.5414 39.1526 11.5673 39.0916 11.5807 39.0273C11.5941 38.963 11.5947 38.8967 11.5825 38.8321C11.5703 38.7676 11.5455 38.7061 11.5095 38.6512C11.4735 38.5962 11.427 38.5489 11.3727 38.5119C11.1114 38.3339 10.8594 38.1386 10.6021 37.9519L11.5154 37.5919C11.6387 37.5432 11.7376 37.4475 11.7904 37.3258C11.8432 37.2042 11.8454 37.0666 11.7967 36.9432ZM21.1154 36.8832C21.0668 36.76 20.9713 36.661 20.8498 36.6081C20.7283 36.5553 20.5907 36.5528 20.4674 36.6012L19.6767 36.9126L19.8661 36.0326C19.8815 35.9678 19.8838 35.9007 19.8729 35.835C19.8619 35.7694 19.838 35.7066 19.8026 35.6503C19.7671 35.594 19.7207 35.5454 19.6662 35.5072C19.6116 35.4691 19.55 35.4422 19.485 35.4282C19.4199 35.4142 19.3527 35.4133 19.2873 35.4256C19.2219 35.4379 19.1596 35.4631 19.1041 35.4997C19.0486 35.5364 19.0009 35.5838 18.964 35.6391C18.927 35.6944 18.9014 35.7566 18.8887 35.8219L18.6527 36.9172C18.3494 36.6712 18.0421 36.4292 17.7501 36.1732C17.7011 36.1278 17.6435 36.0926 17.5807 36.0698C17.5179 36.0469 17.4511 36.0369 17.3844 36.0404C17.3176 36.0438 17.2522 36.0605 17.1921 36.0897C17.1319 36.1188 17.0782 36.1597 17.0341 36.2099C16.99 36.2601 16.9565 36.3187 16.9354 36.3821C16.9143 36.4456 16.9062 36.5126 16.9115 36.5792C16.9168 36.6458 16.9354 36.7107 16.9661 36.77C16.9969 36.8294 17.0393 36.8819 17.0907 36.9246C17.3581 37.1592 17.6407 37.3799 17.9174 37.6059L16.8461 38.0279C16.7227 38.0765 16.6236 38.1722 16.5707 38.2938C16.5179 38.4155 16.5155 38.5532 16.5641 38.6766C16.6127 38.8 16.7084 38.899 16.83 38.9519C16.9517 39.0048 17.0893 39.0072 17.2127 38.9586L18.3054 38.5279L18.0941 39.5086C18.0771 39.5738 18.0735 39.6418 18.0835 39.7085C18.0936 39.7752 18.1169 39.8391 18.1523 39.8965C18.1877 39.9539 18.2343 40.0036 18.2893 40.0425C18.3443 40.0814 18.4067 40.1088 18.4726 40.1231C18.5385 40.1373 18.6066 40.138 18.6728 40.1252C18.739 40.1125 18.8019 40.0864 18.8578 40.0487C18.9137 40.011 18.9613 39.9623 18.9979 39.9057C19.0345 39.8491 19.0593 39.7857 19.0707 39.7192L19.2967 38.6732C19.5734 38.8759 19.8461 39.0859 20.1281 39.2779C20.1823 39.3164 20.2436 39.3438 20.3085 39.3583C20.3733 39.3728 20.4404 39.3743 20.5059 39.3626C20.5713 39.3509 20.6338 39.3262 20.6896 39.2901C20.7454 39.2539 20.7934 39.207 20.8309 39.1521C20.8683 39.0972 20.8945 39.0353 20.9077 38.9702C20.921 38.9051 20.9212 38.8379 20.9082 38.7727C20.8952 38.7075 20.8693 38.6456 20.8321 38.5905C20.7949 38.5354 20.7471 38.4883 20.6914 38.4519C20.4294 38.2732 20.1781 38.0786 19.9207 37.8912L20.8341 37.5312C20.9572 37.4825 21.056 37.3869 21.1088 37.2654C21.1615 37.1439 21.1639 37.0065 21.1154 36.8832ZM29.2921 36.7632C29.2681 36.7021 29.2323 36.6462 29.1867 36.5989C29.1411 36.5516 29.0866 36.5137 29.0263 36.4874C28.9661 36.4612 28.9013 36.4471 28.8356 36.4459C28.7699 36.4447 28.7046 36.4565 28.6434 36.4806L27.8527 36.7926L28.0427 35.9126C28.0581 35.8478 28.0604 35.7807 28.0495 35.715C28.0386 35.6494 28.0147 35.5866 27.9792 35.5303C27.9437 35.474 27.8974 35.4254 27.8428 35.3872C27.7883 35.3491 27.7267 35.3222 27.6616 35.3082C27.5966 35.2942 27.5294 35.2933 27.464 35.3056C27.3986 35.3179 27.3363 35.3431 27.2808 35.3797C27.2253 35.4164 27.1776 35.4638 27.1406 35.5191C27.1036 35.5744 27.0781 35.6366 27.0654 35.7019L26.8294 36.7972C26.5261 36.5506 26.2187 36.3092 25.9267 36.0526C25.827 35.965 25.6966 35.9207 25.5642 35.9293C25.4318 35.938 25.3083 35.9988 25.2207 36.0986C25.1332 36.1983 25.0889 36.3287 25.0975 36.4611C25.1062 36.5935 25.167 36.717 25.2667 36.8046C25.5347 37.0392 25.8167 37.2599 26.0934 37.4859L25.0227 37.9079C24.9616 37.932 24.9059 37.9679 24.8586 38.0135C24.8114 38.0591 24.7736 38.1136 24.7474 38.1738C24.7212 38.2341 24.7072 38.2989 24.706 38.3645C24.7049 38.4302 24.7167 38.4955 24.7407 38.5566C24.7648 38.6177 24.8007 38.6734 24.8463 38.7207C24.892 38.7679 24.9464 38.8057 25.0067 38.8319C25.0669 38.8581 25.1317 38.8722 25.1974 38.8733C25.2631 38.8744 25.3283 38.8626 25.3894 38.8386L26.4821 38.4079L26.2707 39.3879C26.2559 39.4524 26.2541 39.5192 26.2653 39.5845C26.2765 39.6497 26.3006 39.712 26.3361 39.7679C26.3716 39.8238 26.4178 39.872 26.4721 39.9099C26.5264 39.9477 26.5877 39.9744 26.6524 39.9884C26.7171 40.0024 26.7839 40.0034 26.849 39.9914C26.9141 39.9793 26.9762 39.9545 27.0316 39.9183C27.087 39.8821 27.1346 39.8352 27.1718 39.7805C27.209 39.7257 27.2349 39.6641 27.2481 39.5992L27.4734 38.5532C27.7501 38.7559 28.0227 38.9659 28.3047 39.1579C28.359 39.1949 28.4201 39.2208 28.4844 39.2342C28.5487 39.2476 28.615 39.2482 28.6795 39.236C28.7441 39.2238 28.8055 39.199 28.8605 39.163C28.9154 39.127 28.9628 39.0805 28.9997 39.0262C29.0367 38.972 29.0627 38.9109 29.0761 38.8466C29.0895 38.7823 29.0901 38.716 29.0779 38.6515C29.0656 38.5869 29.0408 38.5254 29.0048 38.4705C28.9688 38.4155 28.9224 38.3682 28.8681 38.3312C28.6061 38.1532 28.3541 37.9579 28.0967 37.7712L29.0101 37.4112C29.0712 37.3872 29.127 37.3513 29.1742 37.3057C29.2215 37.2601 29.2593 37.2056 29.2855 37.1453C29.3117 37.0851 29.3257 37.0203 29.3269 36.9546C29.328 36.8889 29.3162 36.8243 29.2921 36.7632ZM37.6494 36.6432C37.6254 36.5821 37.5896 36.5262 37.544 36.4789C37.4984 36.4316 37.4439 36.3937 37.3837 36.3674C37.3234 36.3412 37.2586 36.3271 37.1929 36.3259C37.1272 36.3247 37.0619 36.3365 37.0007 36.3606L36.2094 36.6726L36.3994 35.7926C36.4142 35.7281 36.4161 35.6612 36.4048 35.596C36.3936 35.5308 36.3696 35.4684 36.3341 35.4126C36.2986 35.3567 36.2523 35.3084 36.198 35.2706C36.1437 35.2327 36.0824 35.206 36.0177 35.1921C35.9531 35.1781 35.8862 35.1771 35.8211 35.1891C35.7561 35.2011 35.694 35.226 35.6386 35.2622C35.5832 35.2984 35.5355 35.3452 35.4983 35.4C35.4612 35.4548 35.4353 35.5164 35.4221 35.5812L35.1861 36.6766C34.8827 36.4306 34.5761 36.1892 34.2834 35.9326C34.234 35.8893 34.1766 35.8561 34.1144 35.835C34.0522 35.8139 33.9865 35.8053 33.921 35.8096C33.7886 35.8183 33.6652 35.8792 33.5777 35.9789C33.4903 36.0786 33.4461 36.209 33.4548 36.3413C33.4635 36.4737 33.5244 36.5971 33.6241 36.6846C33.8914 36.9192 34.1741 37.1392 34.4507 37.3659L33.3794 37.7872C33.3183 37.8113 33.2625 37.8472 33.2153 37.8928C33.168 37.9384 33.1303 37.9929 33.1041 38.0532C33.0512 38.1748 33.0488 38.3125 33.0974 38.4359C33.146 38.5593 33.2417 38.6584 33.3633 38.7112C33.485 38.7641 33.6227 38.7665 33.7461 38.7179L34.8394 38.2872L34.6274 39.2679C34.6126 39.3324 34.6108 39.3992 34.622 39.4645C34.6332 39.5297 34.6573 39.592 34.6928 39.6479C34.7283 39.7038 34.7745 39.752 34.8288 39.7899C34.8831 39.8277 34.9444 39.8544 35.0091 39.8684C35.0738 39.8824 35.1406 39.8834 35.2057 39.8714C35.2708 39.8593 35.3328 39.8345 35.3882 39.7983C35.4436 39.7621 35.4913 39.7152 35.5285 39.6605C35.5656 39.6057 35.5916 39.5441 35.6047 39.4792L35.8301 38.4326C36.1067 38.6352 36.3794 38.8459 36.6614 39.0372C36.7156 39.0758 36.7769 39.1031 36.8418 39.1176C36.9067 39.1322 36.9738 39.1336 37.0392 39.1219C37.1047 39.1102 37.1671 39.0855 37.2229 39.0494C37.2787 39.0133 37.3267 38.9664 37.3642 38.9114C37.4017 38.8565 37.4278 38.7947 37.4411 38.7295C37.4543 38.6644 37.4545 38.5973 37.4415 38.5321C37.4285 38.4669 37.4027 38.4049 37.3654 38.3498C37.3282 38.2947 37.2804 38.2476 37.2247 38.2112C36.9634 38.0332 36.7114 37.8379 36.4541 37.6512L37.3674 37.2912C37.4285 37.2672 37.4843 37.2313 37.5316 37.1857C37.5788 37.1401 37.6166 37.0856 37.6428 37.0253C37.669 36.9651 37.6831 36.9003 37.6842 36.8346C37.6853 36.7689 37.6735 36.7043 37.6494 36.6432ZM38.8094 31.2472C38.8746 31.2556 38.9408 31.2511 39.0042 31.2339C39.0677 31.2167 39.1271 31.1872 39.1791 31.147C39.2311 31.1068 39.2747 31.0568 39.3074 30.9997C39.34 30.9427 39.3611 30.8798 39.3694 30.8146C39.5374 29.5026 39.8374 28.2012 40.2614 26.9472C40.2834 26.8848 40.2927 26.8186 40.2889 26.7525C40.2851 26.6864 40.2683 26.6218 40.2393 26.5623C40.2103 26.5028 40.1698 26.4496 40.1201 26.4059C40.0704 26.3622 40.0125 26.3287 39.9498 26.3075C39.8871 26.2864 39.8208 26.2778 39.7547 26.2825C39.6887 26.2871 39.6243 26.3048 39.5651 26.3346C39.506 26.3643 39.4534 26.4055 39.4103 26.4557C39.3672 26.506 39.3345 26.5643 39.3141 26.6272C38.8682 27.9463 38.5542 29.3062 38.3767 30.6872C38.3683 30.7525 38.3729 30.8187 38.3901 30.8822C38.4074 30.9457 38.437 31.0051 38.4772 31.0572C38.5175 31.1092 38.5676 31.1527 38.6247 31.1854C38.6818 31.218 38.7442 31.239 38.8094 31.2472ZM41.7094 31.5166L44.5514 28.5866C44.6425 28.4911 44.6922 28.3635 44.6896 28.2316C44.6871 28.0997 44.6325 27.9742 44.5377 27.8823C44.443 27.7905 44.3158 27.7398 44.1839 27.7414C44.0519 27.7429 43.926 27.7965 43.8334 27.8906L40.9914 30.8206C40.9003 30.916 40.8506 31.0436 40.8532 31.1755C40.8558 31.3074 40.9104 31.433 41.0051 31.5248C41.0998 31.6166 41.227 31.6673 41.359 31.6658C41.4909 31.6642 41.6169 31.6106 41.7094 31.5166ZM42.3581 33.3312C42.3888 33.3893 42.4307 33.4407 42.4813 33.4826C42.5319 33.5245 42.5902 33.556 42.653 33.5753C42.7158 33.5946 42.7817 33.6014 42.8471 33.5952C42.9125 33.589 42.976 33.57 43.0341 33.5392L45.3167 32.3326C45.434 32.2705 45.5217 32.1644 45.5607 32.0376C45.5998 31.9109 45.5868 31.7738 45.5247 31.6566C45.4627 31.5393 45.3566 31.4516 45.2298 31.4126C45.1031 31.3736 44.966 31.3865 44.8487 31.4486L42.5667 32.6552C42.5086 32.6859 42.4571 32.7277 42.4152 32.7783C42.3732 32.8289 42.3417 32.8872 42.3223 32.95C42.3029 33.0128 42.2961 33.0788 42.3022 33.1442C42.3084 33.2096 42.3274 33.2732 42.3581 33.3312Z" fill="#051328"/>
</g>
</svg>
