<svg width="41" height="40" viewBox="0 0 41 40" fill="none" xmlns="http://www.w3.org/2000/svg">
<g clip-path="url(#clip0_1162_7182)">
<path d="M21.0806 27.4942C21.3709 27.2796 22.071 26.725 22.9565 25.8647L23.0164 25.8745C23.7463 25.9943 24.3621 26.1793 24.7794 26.4059C25.2201 26.6452 25.2872 26.8393 25.2872 26.9289C25.2872 26.9959 25.2574 27.1069 25.0706 27.2614C24.8796 27.4194 24.5743 27.5769 24.1592 27.7144C23.3339 27.9877 22.2122 28.1372 21.1051 28.1372C19.9959 28.1372 18.8742 27.9877 18.0495 27.7144C17.6347 27.577 17.3299 27.4195 17.1392 27.2616C16.9528 27.1073 16.923 26.9962 16.923 26.9289C16.923 26.8563 16.9636 26.713 17.2475 26.5194C17.527 26.3288 17.9568 26.1541 18.5043 26.0173L18.8563 25.9293C19.5803 26.7213 20.1454 27.244 20.3774 27.457L20.7136 27.7655L21.0806 27.4942Z" stroke="#051328" stroke-width="1.10675"/>
<path d="M21.0806 27.4942C21.3709 27.2796 22.071 26.725 22.9565 25.8647L23.0164 25.8745C23.7463 25.9943 24.3621 26.1793 24.7794 26.4059C25.2201 26.6452 25.2872 26.8393 25.2872 26.9289C25.2872 26.9959 25.2574 27.1069 25.0706 27.2614C24.8796 27.4194 24.5743 27.5769 24.1592 27.7144C23.3339 27.9877 22.2122 28.1372 21.1051 28.1372C19.9959 28.1372 18.8742 27.9877 18.0495 27.7144C17.6347 27.577 17.3299 27.4195 17.1392 27.2616C16.9528 27.1073 16.923 26.9962 16.923 26.9289C16.923 26.8563 16.9636 26.713 17.2475 26.5194C17.527 26.3288 17.9568 26.1541 18.5043 26.0173L18.8563 25.9293C19.5803 26.7213 20.1454 27.244 20.3774 27.457L20.7136 27.7655L21.0806 27.4942Z" stroke="#051328" stroke-width="1.10675"/>
<path d="M17.7778 15.9133H18.0539L18.0545 15.6373C18.06 13.2482 18.0558 12.1822 18.0539 11.7022L18.0538 11.6839C18.0531 11.5027 18.0528 11.4153 18.0533 11.3724C18.0547 11.3682 18.056 11.3641 18.0571 11.3602L18.1645 10.9962L17.785 11.0054L17.727 11.0068L21.1728 7.83914L24.5444 10.8415L24.4127 10.8447L24.1428 10.8513V11.1213V15.6367V15.9133H24.4195H24.9452V16.3605H17.265V15.9133H17.7778ZM18.0541 11.3422C18.0544 11.336 18.0548 11.338 18.0539 11.3456C18.054 11.3444 18.054 11.3433 18.0541 11.3422ZM17.4463 11.2648L17.4464 11.2648C17.4463 11.2648 17.4463 11.2648 17.4462 11.2649L17.4463 11.2648ZM21.0605 7.73909L21.0608 7.73932L21.0605 7.73909Z" stroke="#051328" stroke-width="0.553375"/>
<path d="M5.73653 32.3492L5.58863 32.2161M5.73653 32.3492L5.73666 32.3493L5.58863 32.2161M5.73653 32.3492L5.58863 32.2161M5.73653 32.3492L5.58863 32.2161M22.8264 11.4407V15.3639H19.4981C19.4931 13.5067 19.4976 12.5028 19.5 11.9545C19.5004 11.8785 19.5007 11.8113 19.5009 11.7517C19.5012 11.6593 19.5015 11.5835 19.5014 11.5213L22.8264 11.4407ZM5.53124 32.1644C5.5313 32.1644 5.53135 32.1643 5.5314 32.1643L5.53125 32.1644L5.53124 32.1644ZM10.0278 27.3367C10.0278 27.3367 10.0277 27.3368 10.0277 27.3368L10.0278 27.3367L9.97044 27.285L10.0278 27.3367Z" stroke="#051328" stroke-width="0.553375"/>
<path d="M0.515625 36.056C5.38715 34.4882 13.0875 32.0166 13.0875 32.0166L20.2096 36.4196L28.4539 32.4916L39.923 38.0652" stroke="#051328" stroke-width="1.10675"/>
</g>
<defs>
<clipPath id="clip0_1162_7182">
<rect width="40" height="40" fill="white" transform="translate(0.332031)"/>
</clipPath>
</defs>
</svg>
