<svg width="36" height="36" viewBox="0 0 36 36" fill="none" xmlns="http://www.w3.org/2000/svg">
<g id="Timely Updates and Notifications">
<path id="Vector" d="M12.2359 24.9175L21.2152 25.0326C21.2171 25.0326 21.2186 25.0326 21.22 25.0326C21.4223 25.0326 21.5875 24.8703 21.5899 24.6676C21.5923 24.4634 21.429 24.2958 21.2248 24.2929L12.2455 24.1778C12.2436 24.1778 12.2422 24.1778 12.2407 24.1778C12.0385 24.1778 11.8733 24.3401 11.8709 24.5429C11.8685 24.7471 12.0317 24.9151 12.2359 24.9175ZM21.457 11.4951C21.4897 11.6737 21.6453 11.7985 21.8201 11.7985C22.0519 11.7985 22.2261 11.5892 22.1842 11.3617C21.9347 10.0002 21.1401 8.76493 20.004 7.97223C19.8369 7.8552 19.6052 7.8971 19.4892 8.06421C19.3721 8.23132 19.4136 8.46201 19.5812 8.57903C20.5583 9.26097 21.2422 10.3238 21.457 11.4951ZM21.8654 13.0126C21.8654 13.2168 22.031 13.3824 22.2352 13.3824H22.3797C22.5839 13.3824 22.7496 13.2168 22.7496 13.0126C22.7496 12.8084 22.5839 12.6427 22.3797 12.6427H22.2352C22.031 12.6427 21.8654 12.8084 21.8654 13.0126ZM29.057 10.0696C29.0584 10.2733 29.2236 10.437 29.4268 10.437H29.4292C29.6334 10.4356 29.7981 10.2689 29.7967 10.0647C29.7803 7.60622 28.2758 5.24786 26.0533 4.19654C25.8693 4.10937 25.6487 4.18787 25.5611 4.37281C25.4734 4.55726 25.5524 4.77782 25.7374 4.86499C27.7085 5.79784 29.0425 7.88939 29.057 10.0696ZM6.45295 8.15138C7.03375 6.24138 8.43952 4.5534 10.2137 3.63693C10.3948 3.5435 10.4661 3.32004 10.3721 3.13848C10.2787 2.95741 10.0557 2.88468 9.8737 2.98004C7.89725 4.00102 6.39275 5.80747 5.74501 7.93659C5.68577 8.13164 5.79606 8.33824 5.99159 8.39796C6.1934 8.45796 6.39505 8.3417 6.45295 8.15138Z" fill="#051328"/>
<path id="Vector_2" d="M5.40798 25.1666C4.85205 26.037 4.73394 27.2037 5.21568 28.1173C5.64556 28.9326 6.48817 29.4672 7.37231 29.7274C8.25645 29.9876 9.19101 30.0069 10.1125 30.0214C11.2006 30.0387 12.2903 30.0507 13.3798 30.0486C13.6754 31.9121 15.1684 33.5307 17.3195 33.7198C19.967 34.297 22.3232 32.345 22.3922 29.7557H28.2035C29.7933 29.7557 31.0863 28.4626 31.0863 26.8729C31.0863 25.2832 29.7933 23.9896 28.2035 23.9896H27.5442C27.2394 23.9896 26.9827 23.7618 26.9471 23.4618C26.5483 19.8706 26.1356 16.1565 25.5177 12.4916C25.3135 11.2823 25.0886 10.1082 24.5839 9.03713C23.9469 7.68734 22.7164 6.56283 21.2445 5.88264C21.3373 4.45318 20.7481 3.01452 19.4573 2.41096C19.4596 2.41138 19.4619 2.41138 19.4641 2.4118L19.4509 2.40825C18.1286 1.79433 15.734 2.31577 14.7773 5.15128C13.432 5.52253 12.4663 6.56584 11.6371 7.74959C10.7218 9.05639 10.3723 10.5091 9.9472 12.0468C8.91922 15.7656 8.88496 19.6757 8.45042 23.4901C7.44377 23.7211 5.96392 24.2962 5.40798 25.1666ZM20.0352 32.5803C18.9993 33.2208 17.5916 33.2468 16.5326 32.6448C15.5993 32.1147 14.9481 31.1022 14.8197 30.0361C16.5141 30.0082 18.2053 29.9258 19.8876 29.7557H21.6534C21.6138 30.8796 20.9919 31.9887 20.0352 32.5803ZM18.7653 2.9498C19.7111 3.15236 20.5293 4.18099 20.5237 5.59603C19.0159 5.07396 17.4963 5.04799 16.0608 5.48418C15.9571 4.15698 17.3376 2.64439 18.7653 2.9498ZM6.89644 25.6506C7.26678 25.288 7.75271 25.09 8.26898 25.09C8.29583 25.09 8.27041 25.0898 8.49677 25.0944C8.49918 25.0891 8.51796 25.0953 8.52904 25.0949C9.30922 25.0949 9.9584 24.516 10.0446 23.7358C10.3374 21.1462 10.6397 18.6223 10.7776 16.2533C10.8956 14.2263 11.1181 12.0924 11.9411 10.2204C13.5246 6.61961 17.1994 4.99898 20.6708 6.44989C20.7216 6.48156 22.9393 7.28595 23.9145 9.35305C24.3802 10.3398 24.5858 11.4143 24.7886 12.6149C25.4026 16.2591 25.8144 19.9621 26.2121 23.5461C26.2921 24.2208 26.8647 24.7293 27.5442 24.7293H28.2035C29.3854 24.7293 30.3466 25.6911 30.3466 26.8729C30.3466 28.0547 29.3854 29.016 28.2035 29.016H8.26994C6.52076 29.016 5.64392 26.8777 6.89644 25.6506Z" fill="#051328"/>
</g>
</svg>
