<svg width="36" height="36" viewBox="0 0 36 36" fill="none" xmlns="http://www.w3.org/2000/svg">
<g id="Customized Solutions for Every Need">
<path id="Vector" d="M33.8891 17.9978C33.3939 17.1244 32.6492 16.3935 31.7384 15.9709C29.8482 15.0964 27.4854 15.7591 26.1058 17.318C24.9325 16.9052 23.7484 16.5141 22.5535 16.1447C24.3729 12.2994 23.8635 7.27204 20.3808 4.07019C18.3213 2.17938 14.3306 0.838397 11.912 1.22903C8.37473 1.04546 4.92137 2.73612 2.59682 5.80693C0.31942 8.80193 0.0242111 12.9721 1.86216 16.1847C2.99744 18.166 4.67329 19.8006 5.07585 21.8919C5.1977 22.5125 5.18758 23.2299 5.31936 23.9036C5.53266 25.0406 6.27323 25.9171 7.30456 26.2729C7.12073 26.5857 6.93836 26.953 6.9045 27.3634C6.87112 27.7594 6.99019 28.1346 7.22271 28.4115C6.74422 29.0251 6.78545 29.8069 7.24504 30.3722C6.9687 31.1235 7.33426 31.8578 7.84018 32.1248C7.85313 32.1363 7.86816 32.1444 7.8827 32.1543C7.9348 32.2348 9.10222 33.6585 9.85171 34.2782C9.89779 34.395 9.99166 34.4909 10.1228 34.5218C10.481 34.6066 10.8238 34.6495 11.1588 34.6724C13.588 35.0323 17.509 34.7405 17.509 34.4492C17.509 34.1772 13.9828 34.1652 13.465 34.1707C14.213 33.9311 14.9069 33.411 15.5412 32.9013C15.9541 32.5754 16.3831 32.2278 16.6221 31.7552C16.8666 31.2827 16.8666 30.6472 16.4809 30.2833C17.1382 29.8108 17.1707 28.6972 16.5461 28.1813C16.9806 27.7359 17.0186 26.9591 16.633 26.4648C17.5346 26.5409 18.2136 25.6012 18.3657 24.7104C18.6727 22.9123 17.8523 22.0085 19.9529 19.6554C20.0454 19.5878 20.1414 19.5175 20.2256 19.4501C22.0617 19.9979 21.8657 19.9387 21.926 19.9563C22.0868 20.2479 22.2621 20.5643 22.4208 20.8404C22.4751 20.9345 22.5656 21.0022 22.671 21.028C23.2599 21.1718 24.0355 21.498 24.7375 21.7022C25.1053 26.2378 30.7107 28.0294 33.5938 24.5219C34.7607 23.0955 35.1525 21.0658 34.5921 19.3498C34.4316 18.8636 34.1876 18.411 33.8891 17.9978ZM6.09952 23.7547C5.97644 23.1247 5.98987 22.4224 5.8555 21.7405C5.41266 19.4408 3.66914 17.7408 2.55133 15.7903C0.869512 12.8511 1.14197 9.032 3.22912 6.28723C9.67999 -2.23303 22.0846 3.13984 21.7172 12.3155L21.7167 12.345C21.6627 13.8746 21.3482 14.803 20.8747 15.6308C18.8504 15.0213 16.8083 14.4528 14.7754 13.9069C13.233 14.5776 13.1911 14.5068 13.1513 14.8194C13.1321 14.9734 13.1062 15.144 13.0807 15.3136V13.1265C13.1241 13.1157 13.1676 13.0994 13.2056 13.0831C16.0498 11.9345 14.222 7.40984 10.9298 9.00938C9.15743 9.87276 8.66093 12.6679 11.1796 13.2189V17.5588C11.1796 18.0837 11.6052 18.5093 12.1302 18.5093C12.6551 18.5093 13.0807 18.0837 13.0807 17.5588V16.0651C13.4655 16.6222 13.6924 17.0786 14.0686 17.5951C14.1738 17.7395 14.2255 17.7016 14.718 17.9265C14.8364 17.9808 14.9573 18.0367 15.0907 18.0878C15.1926 18.4637 15.4532 18.8308 15.7086 19.1513C15.8409 19.3173 16.0813 19.3514 16.254 19.2247C16.4146 19.1071 16.6526 19.0294 16.8853 18.9176C17.0926 19.1264 17.3884 19.4016 17.5646 19.5985C17.655 19.6987 17.7519 19.7234 17.8701 19.7304C17.198 20.7881 16.8816 21.7286 16.877 22.6845C16.877 23.6984 17.1811 24.5643 16.3553 25.161C15.9707 25.4417 15.4971 25.6247 14.9853 25.6909C12.683 25.9856 10.0732 26.3206 7.62623 25.5482C6.83418 25.3011 6.26393 24.6321 6.09952 23.7547ZM8.25562 31.4588C7.93387 31.2251 7.87113 30.9177 8.01609 30.6027C8.42462 30.6982 8.81287 30.7221 9.27548 30.6231C9.49003 30.5771 9.62652 30.3656 9.58051 30.1516C9.53398 29.9365 9.31994 29.8011 9.109 29.8466C8.75847 29.9231 8.39295 29.9055 8.04811 29.7975C7.96565 29.7716 7.88344 29.7807 7.80725 29.806C7.56573 29.4334 7.67707 28.9949 7.98297 28.7598C7.9923 28.7526 7.99667 28.7421 8.0052 28.7342C10.1463 29.1431 11.3086 29.2017 13.6788 28.8405C13.8954 28.8074 14.0443 28.6052 14.0112 28.3881C13.9781 28.1715 13.7719 28.0241 13.5589 28.0557C11.1894 28.4171 10.1306 28.3416 7.94678 27.9145C7.91485 27.9089 7.8837 27.9144 7.85223 27.9164C7.51909 27.5589 7.77138 27.0339 8.02226 26.6168C8.0472 26.5755 8.06045 26.5308 8.06898 26.486C10.4292 27.0537 12.6812 26.7868 15.0866 26.4788C15.0964 26.4775 15.1057 26.4746 15.1155 26.4733C15.1259 26.5002 15.1318 26.5283 15.1486 26.5533C15.4188 26.9545 15.6463 27.6226 15.2526 27.9011C15.1425 27.979 15.0914 28.1031 15.0923 28.2285C15.0429 28.3891 15.0945 28.5684 15.2396 28.6693C15.6033 28.9228 15.7084 29.4304 15.4038 29.806C15.135 29.9277 15.1117 30.2278 15.2536 30.4075C15.4274 30.6271 15.4793 30.9757 15.2245 31.2595C12.9397 31.943 10.2109 32.0192 8.25562 31.4588ZM9.18264 32.4662C10.8145 32.7233 12.4443 32.6529 14.0546 32.349C12.7923 33.6621 12.7996 33.5708 12.6543 33.7262C12.0109 33.9302 11.2724 33.9482 10.452 33.7751C10.3074 33.5598 10.2184 33.6649 9.18264 32.4662ZM32.9801 24.0184C30.4332 27.1108 25.6595 25.247 25.5223 21.5238C25.5228 21.5228 25.5228 21.5218 25.5233 21.5207C25.5916 21.303 25.4639 21.0536 25.2002 21.0084C24.1574 20.722 23.9109 20.5429 23.0267 20.3001C22.5161 19.4019 22.5302 19.3034 22.3045 19.2392C22.2507 19.2237 22.3878 19.2664 20.2504 18.6281C20.1114 18.5862 19.9614 18.6203 19.8565 18.7201C19.7318 18.8399 19.5741 18.9474 19.3974 19.0779C19.2641 18.9053 19.1166 18.736 18.9833 18.5278C18.8448 18.3102 18.5564 18.2985 18.3913 18.4384C18.2405 18.5658 18.074 18.6682 17.8955 18.7972C17.6312 18.5348 17.4109 18.3292 17.2539 18.155C17.1195 18.0067 16.8961 17.9813 16.7312 18.0951C16.5773 18.2031 16.3651 18.2737 16.1253 18.3861C15.9893 18.1923 15.845 17.9498 15.8404 17.7792C15.8352 17.6086 15.7225 17.4607 15.5591 17.4111C15.2478 17.3155 14.9681 17.1536 14.6404 17.0295C14.3729 16.6474 14.1691 16.2752 13.9037 15.8627C14.0792 15.7857 14.3106 15.687 14.5737 15.5747C14.7004 15.5395 14.8425 15.4971 14.9867 15.4439C23.1568 17.7405 25.365 18.4841 26.0662 18.6922C26.2404 18.7429 26.4286 18.6726 26.5227 18.5164C27.0216 17.6841 27.885 17.0549 28.9025 16.786C29.4855 16.612 30.2052 16.675 30.2627 16.6712C30.3325 16.6883 30.3982 16.6847 30.4799 16.6997C31.9973 16.9453 33.3467 18.1101 33.8378 19.5975C34.316 21.0616 33.9789 22.7972 32.9801 24.0184Z" fill="#051328"/>
<path id="Vector_2" d="M29.737 21.6563C29.53 23.463 31.9719 24.2307 32.9631 22.7348C33.4341 22.0249 33.3131 21.0147 32.6875 20.4351C31.5833 19.4147 29.8968 20.2573 29.737 21.6563ZM31.4116 20.7898C31.8145 20.7101 32.2866 20.968 32.4182 21.4939C32.2943 22.3224 31.3764 22.7981 30.7223 22.3855C30.7061 22.3753 30.6938 22.3598 30.6783 22.3485C30.2788 21.7969 30.6785 20.935 31.4116 20.7898ZM28.7133 10.2429C28.4977 10.2827 28.3555 10.4895 28.3954 10.7056L28.8477 13.1495C28.8829 13.3408 29.0499 13.4742 29.2376 13.4742C29.2619 13.4742 29.2861 13.4721 29.3104 13.4675C29.526 13.4277 29.6682 13.2203 29.6284 13.0048L29.176 10.5609C29.1362 10.3458 28.933 10.2016 28.7133 10.2429ZM31.7652 10.5247L30.3072 13.2359C30.2038 13.4287 30.2762 13.6696 30.4696 13.7735C30.6589 13.8756 30.9017 13.8072 31.0073 13.6112L32.4642 10.9011C32.5681 10.7077 32.4957 10.4673 32.3029 10.3634C32.1095 10.2584 31.8691 10.3313 31.7652 10.5247ZM34.6966 12.5834C33.9893 13.1366 33.2035 13.5729 32.3608 13.8816C31.8695 14.0618 32.1391 14.8091 32.6337 14.6271C33.5545 14.2905 34.4128 13.8133 35.1857 13.209C35.3584 13.074 35.3889 12.8243 35.2539 12.6516C35.1195 12.479 34.8693 12.4474 34.6966 12.5834Z" fill="#051328"/>
</g>
</svg>
