<svg width="36" height="36" viewBox="0 0 36 36" fill="none" xmlns="http://www.w3.org/2000/svg">
<path d="M28.2709 7.82253L30.3921 8.16455C30.5938 8.19898 30.7994 8.06174 30.8341 7.84513C30.868 7.6347 30.7251 7.43682 30.5147 7.40317L28.394 7.06115C28.1823 7.027 27.9854 7.17013 27.9518 7.38057C27.9179 7.5905 28.0608 7.78888 28.2709 7.82253ZM29.1448 4.29234C29.3266 4.18085 29.3836 3.94379 29.2724 3.76198C29.1609 3.57967 28.9226 3.52292 28.742 3.63442L27.1507 4.60825C26.8195 4.81074 26.9643 5.32292 27.3524 5.32292C27.4212 5.32292 27.4986 5.27666 29.1448 4.29234ZM26.2972 3.31952L26.7949 1.86003C26.8637 1.65864 26.756 1.43916 26.5543 1.37036C26.3522 1.30155 26.1334 1.40953 26.0646 1.61092L25.5669 3.07041C25.4981 3.27231 25.6059 3.49128 25.8075 3.56009C26.0065 3.62803 26.2276 3.52309 26.2972 3.31952ZM22.9104 21.875C23.373 20.9903 24.1644 20.2864 24.8174 19.4658C25.4612 18.6562 26.0378 17.5769 26.5797 16.1666C27.9583 12.6008 26.9933 8.18615 24.233 5.43241C20.3338 1.52374 12.8944 0.964211 8.96323 5.7873C6.60415 8.04111 5.31958 10.6078 5.16959 13.8689C4.98052 17.9791 8.01198 19.4407 9.15983 22.1598C9.99112 24.1289 9.71977 26.6999 11.4597 27.972C11.4284 28.0086 11.3885 28.0373 11.3606 28.0767C11.0901 28.4595 10.98 28.9216 10.9778 29.3889C10.9708 30.9067 11.9376 32.0585 13.0764 33.0634C13.8729 33.7663 15.4724 34.9645 16.455 34.5743C17.3467 34.7182 18.1568 34.2311 18.8835 33.691C19.6044 33.1556 20.3417 32.5489 20.8515 31.7449C21.5119 30.7012 21.7424 29.3507 21.4685 28.1318C21.4548 28.0713 21.4237 28.0198 21.3859 27.9741C21.5123 27.8052 21.608 27.6178 21.6518 27.4046C21.8513 26.4403 21.7106 24.1646 22.9104 21.875ZM23.6876 5.97783C26.2387 8.52314 27.1321 12.5988 25.8597 15.8894C24.4089 19.6652 23.2373 19.5839 22.2268 21.5174C20.9388 23.9762 21.0995 26.2649 20.8962 27.2494C20.8487 27.4816 20.6904 27.6561 20.425 27.786C17.6766 27.6066 15.1589 27.543 12.7691 27.5883C11.4068 26.7018 12.311 24.0262 10.5417 21.1231C9.89731 20.0663 9.04933 19.2634 8.36448 18.2921C5.48066 14.2004 7.12321 9.00077 9.86992 5.90099C13.3397 1.98621 20.0646 2.34569 23.6876 5.97783ZM20.1998 31.332C19.782 31.9909 19.1876 32.5042 18.4234 33.0717C16.9954 34.1327 16.5049 33.9331 15.6946 33.3982C15.1845 33.0622 14.6811 32.6961 14.1977 32.3104C12.716 31.1274 12.4041 30.3822 12.5654 28.3623C15.1105 28.3046 17.8012 28.3769 20.7679 28.5808C20.9082 29.527 20.7031 30.5365 20.1998 31.332Z" fill="#051328"/>
<path d="M18.1205 30.067C17.4683 30.501 16.55 30.514 15.8868 30.0972C15.707 29.9852 15.4687 30.0384 15.3552 30.2192C15.2419 30.3995 15.2964 30.6376 15.477 30.7511C16.395 31.3267 17.6296 31.3207 18.5479 30.7089C18.7251 30.5909 18.7734 30.3518 18.6553 30.174C18.5371 29.9967 18.2975 29.9495 18.1205 30.067ZM12.8287 18.6644C13.6734 19.8135 14.9446 20.7235 16.4078 21.2262C16.4483 21.2403 16.4907 21.2473 16.5331 21.2473C16.5691 21.2473 16.605 21.2423 16.6399 21.2323C18.0283 20.833 19.3311 19.8275 20.214 18.475C20.9769 17.3068 21.4616 15.883 21.6547 14.2437C21.8119 12.9088 21.8033 11.5136 21.6273 9.85319C21.6087 9.6764 21.4713 9.53528 21.2948 9.51167C16.1585 8.83234 16.4328 8.84956 16.3297 8.8653C16.2781 8.87315 11.6722 9.56692 11.724 9.56692C11.5209 9.56692 11.3526 9.72462 11.3391 9.92702C11.1407 12.9344 10.9769 16.1437 12.8287 18.6644ZM12.0881 10.2926L16.3918 9.63623L20.8905 10.2359C21.0304 11.7059 21.0294 12.9575 20.8888 14.1533C20.7097 15.6736 20.2652 16.9854 19.5681 18.0531C18.8098 19.2148 17.7124 20.0847 16.5424 20.4558C15.2756 19.9963 14.1807 19.2007 13.4502 18.2073C11.808 15.9718 11.9131 12.9799 12.0881 10.2926ZM9.32938 11.7335C9.43109 11.5462 9.36153 11.3122 9.1742 11.2107C8.98736 11.1098 8.75307 11.1781 8.65137 11.3659C7.91761 12.7194 7.94071 14.4546 8.71064 15.7876C8.81723 15.9722 9.05361 16.0351 9.23748 15.9287C9.42205 15.8222 9.48508 15.5862 9.3786 15.4019C8.74002 14.2964 8.72068 12.8565 9.32938 11.7335ZM23.9182 9.40972C23.9795 9.55888 24.1234 9.64878 24.2753 9.64878C24.5473 9.64878 24.7365 9.37116 24.6319 9.11642C24.3602 8.45498 23.8861 7.86887 23.2967 7.46558C23.1209 7.34454 22.8809 7.39075 22.7606 7.56603C22.6403 7.74181 22.6852 7.98187 22.8613 8.10241C23.3276 8.42133 23.703 8.88589 23.9182 9.40972Z" fill="#051328"/>
<path d="M14.8225 17.0164C14.8966 17.3686 15.3695 17.4347 15.5392 17.1204C16.16 15.9724 18.9414 12.8269 19.7371 11.9444C19.8798 11.7862 19.8672 11.5426 19.709 11.4C19.5503 11.2563 19.3065 11.2699 19.1641 11.4281C18.0577 12.6549 16.0285 15.0228 15.3298 16.0079C14.9579 15.0175 14.3216 14.1371 13.4866 13.4737C13.3199 13.3406 13.0773 13.3687 12.9447 13.5355C12.8121 13.7022 12.8397 13.9448 13.0065 14.0774C13.92 14.8036 14.582 15.8748 14.8225 17.0164Z" fill="#051328"/>
</svg>
