<svg width="36" height="36" viewBox="0 0 36 36" fill="none" xmlns="http://www.w3.org/2000/svg">
<path d="M11.9373 26.9955C12.0311 26.9856 12.1215 26.9683 12.2119 26.9511C12.5255 26.9999 12.8004 27.0135 13.1324 26.9776C15.8096 26.6914 17.6606 23.3983 17.2585 19.6375C16.9075 16.3545 14.9548 13.7815 12.6827 13.3726L13.2397 11.2609C14.3568 7.02693 18.6963 4.51287 22.9253 5.65098C27.2456 6.81421 29.7452 11.327 28.4128 15.6159L27.9166 17.2134C27.7211 17.1621 27.522 17.1325 27.3197 17.1227C27.1971 17.0529 27.0704 16.9909 26.9385 16.9397C24.5915 16.0603 21.4379 18.685 19.8974 22.8039C18.4203 26.747 18.9659 30.6273 21.082 31.7158C19.1694 32.7 17.0895 32.8917 15.0633 32.5704C15.2158 31.8436 14.5987 30.9532 13.5661 30.4887C12.4317 29.9784 11.2364 30.1779 10.8961 30.9342C10.5559 31.6905 11.1997 32.7173 12.3341 33.2276C13.418 33.7152 14.5489 33.5486 14.945 32.8737C17.2276 33.2485 19.4724 32.986 21.4711 31.8771C21.5038 31.8877 21.5373 31.8932 21.5701 31.9025C22.1035 32.3997 22.7323 32.6764 23.5022 32.6764C25.7591 32.6764 28.3905 30.1813 29.7534 26.5426C30.7785 23.8005 30.8703 20.956 30.0026 19.0922L30.9155 16.1417C32.6818 10.4333 29.3618 4.39925 23.5716 2.85198C17.9262 1.34495 12.1618 4.70507 10.6708 10.3302L9.73601 13.8578C7.57461 14.6259 6.1735 17.5381 6.52922 20.8403C6.91928 24.5163 9.34565 27.2732 11.9373 26.9955ZM14.6575 31.5366C14.7561 31.5366 14.7562 31.636 14.6575 31.636C14.5587 31.636 14.5587 31.5366 14.6575 31.5366ZM14.266 31.1814C14.4111 31.1814 14.4108 31.4003 14.266 31.4003C14.1212 31.4003 14.1211 31.1814 14.266 31.1814ZM11.1312 31.4057C11.5146 31.7872 11.9998 32.0469 12.5368 32.1117C12.3838 32.1467 12.2307 32.1818 12.0776 32.2169C12.397 32.4292 12.7646 32.5687 13.1446 32.6217C12.9766 32.6841 12.8087 32.7464 12.6407 32.8088C13.208 33.0105 13.7802 33.1429 14.3755 33.053C13.0207 33.6578 11.4424 32.856 11.1312 31.4057ZM16.939 19.6714C17.3222 23.2564 15.5993 26.3903 13.0985 26.6581C10.5886 26.9262 8.25066 24.2263 7.8674 20.6417C7.48382 17.0567 9.20679 13.9224 11.7079 13.6547C11.8228 13.6424 11.9367 13.6365 12.0504 13.6365C14.4196 13.6365 16.5733 16.2509 16.939 19.6714ZM28.9689 20.5208C30.1562 22.7788 28.8861 27.7838 26.3295 30.143C25.3466 31.0499 24.0704 31.5988 23.1654 30.6307C23.8801 29.9461 24.4482 29.1458 24.825 28.2586C25.638 28.5392 26.773 27.4864 27.3719 25.8863C27.9757 24.2732 27.8051 22.7184 26.9908 22.4137C26.1766 22.1089 25.0271 23.1695 24.4233 24.7826C23.8902 26.2069 23.9626 27.5825 24.547 28.0955C24.1915 28.9483 23.6481 29.7173 22.9647 30.3773C21.5754 28.3154 22.7525 23.0297 25.4659 20.5258C27.0465 19.0675 28.3645 19.3564 28.9689 20.5208ZM26.0949 23.9356C26.0613 23.8414 26.0277 23.7473 25.9942 23.6532C25.7365 24.2304 25.5748 24.8504 25.5176 25.48C25.4301 25.3458 25.3425 25.2116 25.255 25.0774C24.8803 25.9618 24.6578 26.8763 24.7353 27.8337C24.3755 27.2319 24.3908 26.4748 24.5409 25.7899C24.8901 24.1967 25.8948 22.9873 26.349 22.7753C26.5534 22.6799 26.809 22.6665 26.9957 22.793C26.5856 23.0553 26.2458 23.4727 26.0949 23.9356ZM26.9541 25.6779C26.8616 25.6779 26.8615 25.433 26.9541 25.433C27.0465 25.433 27.0466 25.6779 26.9541 25.6779ZM26.5983 26.3135C26.5367 26.3135 26.5367 26.0278 26.5983 26.0278C26.6601 26.0278 26.6601 26.3135 26.5983 26.3135ZM27.2914 19.2264C26.6462 19.291 25.945 19.6469 25.2481 20.2898C22.5499 22.7786 21.1138 28.3117 22.7316 30.6034C22.3767 30.9175 21.9847 31.1993 21.5656 31.4513C20.2129 29.9159 20.0222 26.6612 21.2578 23.3625C22.6914 19.5253 25.6019 16.9611 27.821 17.521L27.2914 19.2264ZM29.4524 26.4299C27.946 30.4512 24.8818 33.0402 22.6249 32.2005C22.317 32.0851 22.0426 31.9074 21.797 31.6842C22.2034 31.4346 22.586 31.159 22.9337 30.8523C23.9663 31.9549 25.4204 31.4188 26.5473 30.379C28.8706 28.2359 30.4085 23.6036 29.4577 20.8537L29.8503 19.5845C30.5204 21.3699 30.3857 23.9336 29.4524 26.4299ZM10.9815 10.4125C12.4296 4.94777 18.0274 1.70475 23.489 3.16273C29.0856 4.65804 32.3255 10.4957 30.6085 16.0469L29.2653 20.3877C29.257 20.3715 29.2459 20.3605 29.2374 20.3446C28.8913 19.7027 28.3736 19.2727 27.6345 19.2207C27.6329 19.2205 27.6315 19.2199 27.6299 19.2197L28.7198 15.7113C30.1039 11.2554 27.5135 6.55294 23.0088 5.34085C18.6123 4.15628 14.0925 6.76971 12.929 11.1787L12.3834 13.2469C11.5569 13.2083 10.791 13.364 10.1061 13.7165L10.9815 10.4125Z" fill="#051328"/>
<path d="M9.62424 20.5068C9.84016 22.5541 11.2287 24.7531 13.2055 24.5281C14.9247 24.3419 16.1134 22.2382 15.8557 19.8385C15.6005 17.4394 13.9952 15.6329 12.2741 15.8172C11.9584 15.8526 11.6561 15.9506 11.3767 16.1078C10.1221 16.8094 9.4177 18.5773 9.62424 20.5068ZM13.2493 18.3328C13.2493 18.1745 13.3949 18.1743 13.3949 18.3328C13.3949 18.4912 13.2493 18.4913 13.2493 18.3328ZM13.1361 17.6923C13.1361 17.4483 13.3625 17.4482 13.3625 17.6923C13.3625 17.7941 13.1361 17.9363 13.1361 17.6923ZM10.6554 18.0977C10.6046 18.9983 10.6759 19.9253 10.8187 20.8159C10.89 20.5808 10.9613 20.3456 11.0326 20.1104C11.0479 20.8464 11.1383 21.5809 11.3018 22.2987C11.3319 22.1183 11.3619 21.9379 11.392 21.7574C11.4577 22.4212 11.6937 22.9879 12.1127 23.5068C10.2244 22.4163 9.56998 19.9901 10.6554 18.0977ZM12.5171 16.1257C13.9802 16.1257 15.3104 17.7498 15.5361 19.8727C15.7639 21.9931 14.8086 23.8564 13.3817 24.17C14.3639 23.4172 14.9495 21.8651 14.7652 20.1339C14.541 18.0378 13.2729 16.422 11.8239 16.2609C12.1016 16.1565 12.3013 16.1257 12.5171 16.1257ZM13.7458 17.9673C13.7752 17.9673 13.799 18.0165 13.799 18.0773C13.799 18.138 13.7752 18.1873 13.7458 18.1873C13.6754 18.1873 13.6754 17.9673 13.7458 17.9673ZM9.21684 22.299C9.19793 22.4992 9.17898 22.6994 9.16003 22.8996C8.73847 21.5826 8.41927 20.1872 8.19653 18.8224C8.17342 20.1078 8.27053 21.4128 8.69558 22.6261C9.12059 23.8395 9.90039 24.9614 11.0087 25.6129C10.0868 24.7864 9.39553 23.5241 9.21684 22.299ZM13.6925 14.5528C13.6925 14.4748 13.6486 14.4117 13.5945 14.4117C13.5404 14.4117 13.4965 14.4748 13.4965 14.5528C13.4965 14.7395 13.6925 14.7396 13.6925 14.5528ZM14.262 15.0961C14.3186 15.0961 14.3644 15.0155 14.3644 14.9161C14.3644 14.8168 14.3186 14.7362 14.262 14.7362C14.2055 14.7362 14.1597 14.8168 14.1597 14.9161C14.1597 15.0155 14.2055 15.0961 14.262 15.0961ZM13.8775 15.1984C13.8775 15.0256 13.7458 15.0256 13.7458 15.1984C13.7458 15.3711 13.8775 15.3711 13.8775 15.1984ZM17.3399 4.62461C18.6949 3.76097 20.2399 3.34408 21.8387 3.18399C19.0895 2.94257 16.2536 4.03355 14.375 6.05531C15.5306 5.33731 16.8186 4.85415 18.1537 4.59209C17.8824 4.60292 17.6112 4.61378 17.3399 4.62461ZM30.1639 11.9403C30.2673 11.9403 30.3512 11.7436 30.3512 11.5009C30.3512 11.2582 30.2673 11.0614 30.1639 11.0614C30.0604 11.0614 29.9766 11.2582 29.9766 11.5009C29.9766 11.7436 30.0604 11.9403 30.1639 11.9403Z" fill="#051328"/>
<path d="M30.7546 12.5021C30.7944 12.5021 30.8266 12.4215 30.8266 12.3221C30.8266 12.2227 30.7944 12.1421 30.7546 12.1421C30.7149 12.1421 30.6826 12.2227 30.6826 12.3221C30.6826 12.4215 30.7149 12.5021 30.7546 12.5021Z" fill="#051328"/>
<path d="M21.2907 27.1147C21.1819 27.3352 21.0731 27.5557 20.9643 27.7762C20.9516 26.9244 21.0398 26.0581 21.1888 25.2193C20.5896 26.8673 20.6574 28.7472 21.3739 30.3478C21.0269 29.3598 21.0665 28.1375 21.2907 27.1147ZM26.4992 18.2143C26.4992 18.4699 26.689 18.4709 26.689 18.2143C26.689 17.9579 26.4992 17.9587 26.4992 18.2143ZM27.116 17.916C26.9964 17.916 26.9962 18.2143 27.116 18.2143C27.2357 18.2143 27.2359 17.916 27.116 17.916ZM25.9557 18.4595C25.7731 18.4595 25.7731 18.8736 25.9557 18.8736C26.032 18.8736 26.0938 18.7809 26.0938 18.6665C26.0938 18.5522 26.032 18.4595 25.9557 18.4595ZM9.61039 30.2796C8.42046 29.012 6.36144 28.0582 4.60938 28.2342C5.41911 28.7361 6.22162 29.073 7.02833 29.4345C7.84371 29.7725 8.66619 30.1276 9.61039 30.2796ZM9.22363 31.1891C8.4446 30.8253 7.86053 31.1444 7.46107 31.2285C6.88923 31.3714 6.3325 31.5593 5.77502 31.7886C6.73496 31.94 7.45466 31.7928 7.99332 31.8368C8.49979 31.818 8.95436 31.6207 9.22363 31.1891ZM8.1148 27.2248C8.53217 28.0002 9.05283 28.4398 9.30599 28.829C9.61628 29.1937 10.0212 29.3763 10.4776 29.2958C10.3266 28.4978 9.76866 28.2983 9.47773 28.0637C9.05142 27.7488 8.60075 27.4726 8.1148 27.2248Z" fill="#051328"/>
</svg>
