<svg width="36" height="36" viewBox="0 0 36 36" fill="none" xmlns="http://www.w3.org/2000/svg">
<g id="digital experience">
<g id="Group">
<g id="Group_2">
<path id="Vector" d="M34.5797 28.4912L31.8694 23.0639V6.83432C31.8694 5.29018 30.6152 4.03271 29.0711 4.03271H6.92875C5.38462 4.03271 4.12715 5.29018 4.12715 6.83432V23.0639L1.42005 28.4912C1.37441 28.5792 1.38749 28.628 1.40373 28.7388L2.40379 31.7455C2.44942 31.8758 2.57317 31.967 2.7133 31.967H33.2864C33.4264 31.967 33.5503 31.8758 33.5958 31.7455L34.5959 28.7388C34.5993 28.7062 34.6383 28.6052 34.5797 28.4912ZM4.77873 6.83432C4.77873 5.64857 5.743 4.6843 6.92875 4.6843H29.071C30.2535 4.6843 31.2178 5.64857 31.2178 6.83432V22.8163H28.9505V7.28066C28.9505 7.0982 28.8039 6.9549 28.6247 6.9549H7.37502C7.19256 6.9549 7.04927 7.09827 7.04927 7.28066V22.8164H4.77873V6.83432ZM28.299 7.60642V22.8164H7.70078V7.60642H28.299ZM18.6139 30.4654H17.3858C17.2033 30.4654 17.06 30.3188 17.06 30.1396C17.06 29.9571 17.2034 29.8138 17.3858 29.8138H18.6139C18.7931 29.8138 18.9397 29.9572 18.9397 30.1396C18.9397 30.3188 18.7931 30.4654 18.6139 30.4654ZM14.4279 28.312L14.8904 26.908H21.1093L21.5719 28.312H14.4279ZM22.256 28.312L21.6534 26.4812C21.6111 26.3477 21.484 26.2565 21.3439 26.2565H14.656C14.5159 26.2565 14.3888 26.3477 14.3464 26.4812L13.7438 28.312H2.23771L4.65491 23.4679H31.3416L33.762 28.312H22.256Z" fill="#051328"/>
<path id="Vector_2" d="M27.331 25.4332C27.5109 25.4332 27.6568 25.2874 27.6568 25.1074C27.6568 24.9275 27.5109 24.7817 27.331 24.7817H8.66853C8.4886 24.7817 8.34277 24.9275 8.34277 25.1074C8.34277 25.2874 8.4886 25.4332 8.66853 25.4332H27.331ZM17.5232 6.13198H18.4765C18.6564 6.13198 18.8022 5.98616 18.8022 5.80623C18.8022 5.6263 18.6564 5.48047 18.4765 5.48047H17.5232C17.3433 5.48047 17.1974 5.6263 17.1974 5.80623C17.1974 5.98609 17.3433 6.13198 17.5232 6.13198ZM12.1605 14.9073C12.0332 15.0345 12.0332 15.2407 12.1605 15.3679C12.2877 15.4951 12.4939 15.4951 12.6211 15.3679L15.4626 12.5263C15.5899 12.3991 15.5899 12.1929 15.4626 12.0657C15.3354 11.9385 15.1292 11.9385 15.002 12.0657L12.1605 14.9073ZM9.91672 14.9073L15.002 9.82198C15.1293 9.69472 15.1293 9.48856 15.002 9.36137C14.8747 9.2341 14.6686 9.2341 14.5414 9.36137L9.4561 14.4466C9.32884 14.5739 9.32884 14.7801 9.4561 14.9073C9.5833 15.0345 9.78945 15.0345 9.91672 14.9073Z" fill="#051328"/>
</g>
</g>
</g>
</svg>
