<svg width="36" height="36" viewBox="0 0 36 36" fill="none" xmlns="http://www.w3.org/2000/svg">
<g id="Affordable and Transparent Pricing">
<path id="Vector" d="M3.87938 32.265C4.10284 33.1528 4.78729 33.9432 5.62036 34.2941C6.31046 34.5848 7.07966 34.6072 7.8283 34.6229C14.1956 34.7567 14.5109 34.3518 17.8928 34.1274C19.7603 34.0034 21.7152 34.0393 23.4489 33.415C23.8107 33.389 24.707 33.2529 24.801 33.2271C25.5246 33.5328 26.3331 33.5532 27.1277 33.5532C28.4878 33.5532 30.17 33.4256 31.6785 32.6632C32.6161 32.1944 32.243 31.67 32.2224 31.1224C32.1081 30.3016 32.1432 30.426 32.099 30.3209C31.8999 29.6208 30.663 29.4813 29.939 29.4424C30.9763 28.9472 30.6871 28.6866 30.5138 27.1442C30.5085 27.0984 30.4949 27.0553 30.4752 27.0159C30.3452 26.6225 29.8607 26.3586 29.0252 26.2321C28.1403 26.0975 27.0824 26.141 26.1873 26.2534C25.2515 22.6261 24.3778 18.9072 22.7324 15.8415C20.7684 12.1797 19.2952 11.303 18.638 10.4059C18.6556 10.3913 18.6747 10.3743 18.6938 10.357C18.8788 10.4949 18.9611 10.5568 19.4069 10.778C19.4837 10.829 20.6411 11.2941 20.9209 12.1747C20.9844 12.3744 21.1978 12.49 21.4053 12.4253C21.6085 12.3605 21.7207 12.144 21.6562 11.9406C21.2213 10.5739 19.6841 10.1458 19.1288 9.72148C20.0168 9.7782 20.8998 9.58387 21.6765 9.73482C22.2081 9.83828 22.634 10.116 22.8163 10.4781C22.966 10.776 22.974 11.1461 22.9826 11.5383C23.0025 12.4833 23.062 12.908 23.935 14.2504C24.2364 14.7135 24.5206 15.1504 24.664 15.6305C24.714 15.7978 24.8674 15.9058 25.0334 15.9058C25.2936 15.9058 25.4768 15.6556 25.4033 15.4095C25.0506 14.2291 23.9843 13.2743 23.8012 12.2103C23.6921 11.5794 23.8561 10.8292 23.5054 10.1316C23.2123 9.549 22.5994 9.12813 21.8239 8.97746C20.6581 8.75186 19.3848 9.17199 18.4018 8.79785C19.0379 7.52836 20.7777 7.44095 22.1004 5.14844C22.1857 5.00005 22.1462 4.86837 22.1097 4.68187C21.9523 3.91992 20.8174 3.58376 20.7416 3.1154C20.6948 2.82652 20.9265 2.39082 20.6838 1.93114C20.1688 0.959114 17.9381 1.16379 17.4352 2.87885C16.8422 2.41679 16.0994 2.26467 15.3532 2.20687C13.5268 2.06754 12.773 2.59621 11.5874 3.8803C11.1482 4.35606 11.1628 4.41795 10.4805 4.44582C9.79181 4.47473 9.39563 4.57104 9.00167 5.13789C8.96526 5.19063 8.90976 5.27048 8.92081 5.27902C8.85792 5.2749 8.04208 4.98744 7.41311 5.22227C6.71525 5.24094 6.41962 6.08672 7.05838 6.77696C7.36676 7.11025 8.28172 7.67436 8.84972 7.85375C9.26578 7.98514 9.68766 8.1016 10.091 8.26988C10.9411 8.62409 11.4243 9.23441 11.4253 9.28592C11.4266 9.34804 10.7696 9.85284 10.8785 10.6261C10.9181 10.9075 11.2077 11.3547 10.9464 11.5617C7.66325 14.1589 5.18325 17.4889 4.42301 21.641C3.96093 24.1647 4.52824 27.1361 4.3473 28.4748C4.19105 29.6307 3.30284 30.9754 3.87938 32.265ZM18.1257 9.82824C17.9789 9.94709 17.8783 10.0359 17.6757 10.1507C17.1836 10.4275 15.9481 10.5993 15.3883 10.666C14.4634 10.7775 13.4625 10.8096 12.3335 10.7659C12.1002 10.7534 12.0595 10.7132 12.0382 10.6735C11.9611 10.5304 12.0409 10.235 12.2516 9.88248C12.2961 9.80765 12.3242 9.73834 12.3503 9.67004C12.3689 9.62132 12.3784 9.59671 12.393 9.57712L12.3932 9.57662C12.4013 9.56557 12.4219 9.53946 12.442 9.53594C12.4437 9.53594 12.4455 9.53544 12.4475 9.53544C12.5619 9.53544 13.1746 10.238 14.7098 10.0633C15.9413 9.92574 17.5207 9.18918 18.1257 9.82824ZM19.3838 32.2017C19.3444 32.0765 19.3307 31.6508 19.3296 31.5327C19.938 31.8858 20.6115 31.9696 21.2192 31.9963C22.2262 32.0443 23.1471 31.9966 24.0269 31.8634C24.0282 32.077 24.0389 32.3536 24.0833 32.5616C22.9581 32.7256 21.097 32.768 20.1211 32.5065C19.9025 32.4497 19.7093 32.378 19.3838 32.2017ZM29.8584 28.0628C29.8656 28.1145 29.8614 28.0834 29.9189 28.5022C29.9232 28.5304 29.9272 28.555 29.9387 28.5464C29.8925 28.6047 29.7951 28.6584 29.716 28.6986C28.5581 29.2807 27.1719 29.5253 25.2142 29.5042C24.6057 29.467 23.9964 29.5206 23.2171 29.114C23.192 28.9789 23.1881 28.7501 23.1847 28.6986C24.3715 29.3158 27.9111 29.1626 29.8584 28.0628ZM22.7249 29.7129C23.3037 30.1362 24.2572 30.2489 24.9652 30.2702C24.5957 30.4474 24.1803 30.6939 24.0538 31.0784C23.1822 31.2211 22.2648 31.2732 21.2544 31.2258C20.6355 31.1982 19.999 31.1109 19.4817 30.7026C20.3544 30.0757 22.5891 29.7621 22.7249 29.7129ZM31.5549 31.823L31.5539 31.824C31.5097 31.8808 31.4178 31.931 31.3324 31.9742C29.8564 32.72 28.1493 32.7948 26.8282 32.7797C25.7156 32.7797 25.3007 32.6129 24.8323 32.388C24.815 32.2891 24.8034 32.0809 24.7986 31.9727C26.0789 32.6355 29.5767 32.4073 31.473 31.3388L31.5348 31.7748C31.5393 31.8039 31.5444 31.8285 31.5579 31.8195L31.8573 32.0626L31.5549 31.823ZM31.2995 30.4986C31.1855 30.6486 30.9478 30.7407 30.7945 30.814C29.7008 31.3131 28.2447 31.636 26.3618 31.5518C25.7964 31.5222 25.3303 31.4369 24.9475 31.1585C26.2555 30.2397 30.377 29.8937 31.2995 30.4986ZM29.6951 27.204C29.6038 27.3368 29.4544 27.4111 29.1799 27.5349C28.0581 28.0427 26.5525 28.3593 24.7419 28.2737C24.2497 28.2507 23.7456 28.1814 23.3336 27.8827C24.6512 26.9481 28.8237 26.6281 29.6951 27.204ZM22.0529 16.2061C23.6588 19.1993 24.4933 22.779 25.4211 26.3728C23.9828 26.6402 22.2987 27.1984 22.4037 28.0994C22.408 28.1362 22.4182 28.1683 22.43 28.1987C22.3948 28.4339 22.4111 28.7571 22.4296 28.9935C20.8742 29.2459 18.419 29.822 18.5504 30.8944C18.5504 30.9578 18.5669 31.0098 18.5885 31.0571C18.5375 31.3961 18.5389 32.2577 18.6995 32.5623C18.7942 32.7712 18.9803 32.8626 19.1068 32.9244C19.2665 33.015 19.4398 33.0878 19.6183 33.152C18.6935 33.2128 17.9757 33.2378 13.6546 33.4271C12.2878 33.4846 10.9805 33.3851 9.59396 33.2901C9.132 32.0541 9.59023 31.2367 9.70706 30.5217C9.85597 29.6207 9.60159 28.7403 9.37709 27.9633C9.31758 27.7579 9.10312 27.6414 8.89947 27.6997C8.69481 27.7589 8.57678 27.9729 8.6358 28.1773C8.83769 28.8759 9.06646 29.6669 8.94593 30.3962C8.8405 31.0395 8.38276 31.888 8.78283 33.2778C7.97438 33.2999 7.2836 33.3792 6.544 33.1614C4.46853 32.5516 4.4092 31.8273 5.0933 29.8718C5.56735 28.5181 5.62465 27.9695 5.48103 25.863C5.44461 25.3271 5.40996 24.8209 5.41699 24.3217C5.47148 20.8773 7.06281 17.3572 9.89715 14.4096C10.8028 13.4691 11.8497 12.5646 12.6715 11.544C13.1967 11.5572 13.6699 11.5766 14.7255 11.4983C15.0515 12.0871 15.2545 12.7512 15.3105 13.4227C15.3273 13.6241 15.496 13.7763 15.6944 13.7763C15.9204 13.7763 16.098 13.5837 16.0794 13.3584C16.0234 12.6894 15.8361 12.029 15.5463 11.4219C16.2304 11.3374 17.3966 11.1727 18.0053 10.8463C18.8075 11.9531 20.1096 12.5875 22.0529 16.2061ZM8.62826 6.00173C8.72519 6.02835 8.85653 6.06451 9.01523 6.04392C9.40626 5.98951 9.56992 5.64907 9.71007 5.47489C9.98668 5.12952 10.4697 5.27227 11.0316 5.168C11.1798 5.25239 11.3737 5.21441 11.6434 5.56881C12.0199 6.06466 11.9565 6.51803 12.3737 6.51803C12.649 6.51803 12.8377 6.2351 12.7275 5.97913C12.5083 5.47153 12.3094 5.04089 11.8609 4.71671C13.081 3.43881 13.4942 2.83542 15.2939 2.97629C16.1198 3.04002 17.0067 3.24583 17.3728 3.98599C17.6552 4.53622 17.7109 5.21467 17.5208 5.80285C17.4555 6.00575 17.5667 6.22272 17.7694 6.28851C17.9755 6.35413 18.1904 6.23997 18.255 6.0399C18.4833 5.33279 18.4486 4.5576 18.1676 3.87277C18.1662 3.82049 17.9503 3.18943 18.4276 2.61518C18.9448 1.99521 19.879 2.0598 20.0018 2.29174C20.0814 2.44294 19.9168 2.84817 19.9802 3.23895C20.1231 4.12327 21.2718 4.4346 21.3626 4.88025C20.0376 7.04766 18.1039 7.02965 17.5676 8.81919C16.0339 8.6803 14.3132 9.92659 12.9655 8.93929C12.8175 8.83046 12.6489 8.77267 12.4779 8.76621C11.1832 7.01367 9.59752 7.0873 8.0964 6.35179C7.97662 6.29353 7.612 6.11674 7.57985 6.01328C7.6572 5.88823 8.04668 5.84102 8.62826 6.00173Z" fill="#051328"/>
<path id="&#226;&#130;&#185;" d="M15.1024 27.195L12.6685 22.9452V22.3786H12.9518C13.4068 22.3786 13.7889 22.3356 14.0979 22.2498C14.4156 22.1639 14.6646 22.0223 14.8449 21.8248C15.0252 21.6273 15.1325 21.3569 15.1668 21.0135H12.6685V20.1893H15.1539C15.0938 19.8716 14.9736 19.6141 14.7933 19.4166C14.6131 19.2105 14.3684 19.0603 14.0593 18.9659C13.7588 18.8714 13.3896 18.8242 12.9518 18.8242H12.6685V18H18V18.8242H15.566C15.7635 18.9873 15.9266 19.1805 16.0554 19.4037C16.1842 19.6269 16.2657 19.8888 16.3001 20.1893H18V21.0135H16.3258C16.2657 21.6402 16.0254 22.1296 15.6047 22.4816C15.1926 22.825 14.6431 23.0439 13.9563 23.1384L16.416 27.195H15.1024Z" fill="#051328"/>
</g>
</svg>
