<svg width="20" height="20" viewBox="0 0 20 20" fill="none" xmlns="http://www.w3.org/2000/svg">
<g id="vuesax/bulk/document-upload">
<g id="document-upload">
<path id="Vector" opacity="0.4" d="M17.082 8.49199H14.6737C12.6987 8.49199 11.0904 6.88366 11.0904 4.90866V2.50033C11.0904 2.04199 10.7154 1.66699 10.257 1.66699H6.7237C4.15703 1.66699 2.08203 3.33366 2.08203 6.30866V13.692C2.08203 16.667 4.15703 18.3337 6.7237 18.3337H13.2737C15.8404 18.3337 17.9154 16.667 17.9154 13.692V9.32533C17.9154 8.86699 17.5404 8.49199 17.082 8.49199Z" fill="#fedc60"/>
<path id="Vector_2" d="M13.1677 1.84207C12.826 1.5004 12.2344 1.73373 12.2344 2.20873V5.11707C12.2344 6.33373 13.2677 7.34207 14.526 7.34207C15.3177 7.3504 16.4177 7.3504 17.3594 7.3504C17.8344 7.3504 18.0844 6.79207 17.751 6.45873C16.551 5.2504 14.401 3.0754 13.1677 1.84207Z" fill="#fedc60"/>
<path id="Vector_3" d="M9.60885 10.392L7.94219 8.72533C7.93385 8.71699 7.92552 8.71699 7.92552 8.70866C7.87552 8.65866 7.80885 8.61699 7.74219 8.58366C7.73385 8.58366 7.73385 8.58366 7.72552 8.58366C7.65885 8.55866 7.59219 8.55033 7.52552 8.54199C7.50052 8.54199 7.48385 8.54199 7.45885 8.54199C7.40885 8.54199 7.35052 8.55866 7.30052 8.57533C7.27552 8.58366 7.25885 8.59199 7.24219 8.60033C7.17552 8.63366 7.10885 8.66699 7.05885 8.72533L5.39219 10.392C5.15052 10.6337 5.15052 11.0337 5.39219 11.2753C5.63385 11.517 6.03385 11.517 6.27552 11.2753L6.87552 10.6753V14.167C6.87552 14.5087 7.15885 14.792 7.50052 14.792C7.84219 14.792 8.12552 14.5087 8.12552 14.167V10.6753L8.72552 11.2753C8.85052 11.4003 9.00885 11.4587 9.16719 11.4587C9.32552 11.4587 9.48385 11.4003 9.60885 11.2753C9.85052 11.0337 9.85052 10.6337 9.60885 10.392Z" fill="#fedc60"/>
</g>
</g>
</svg>
