<svg width="731" height="484" viewBox="0 0 731 484" fill="none" xmlns="http://www.w3.org/2000/svg">
<path fill-rule="evenodd" clip-rule="evenodd" d="M1 0.999847H729.504V482.89H1V0.999847Z" fill="#FDDE4F"/>
<path d="M135.817 248.991C129.092 248.991 123.13 247.556 117.929 244.687C112.729 241.817 108.649 237.783 105.69 232.582C102.731 227.382 101.252 221.374 101.252 214.56C101.252 207.656 102.709 201.514 105.623 196.135C108.537 190.755 112.572 186.563 117.728 183.559C122.883 180.555 128.958 179.053 135.951 179.053C142.497 179.053 148.28 180.488 153.302 183.357C158.323 186.226 162.245 190.149 165.07 195.126C167.894 200.102 169.306 205.638 169.306 211.736C169.306 212.722 169.284 213.753 169.238 214.829C169.194 215.905 169.127 217.026 169.038 218.191H118.333C118.692 223.392 120.507 227.471 123.78 230.43C127.052 233.389 131.02 234.869 135.682 234.869C139.179 234.869 142.115 234.084 144.492 232.515C146.868 230.946 148.639 228.906 149.805 226.395H167.289C166.034 230.61 163.949 234.443 161.035 237.895C158.12 241.347 154.534 244.059 150.275 246.032C146.016 248.004 141.197 248.991 135.817 248.991ZM135.951 193.041C131.737 193.041 128.016 194.228 124.788 196.605C121.56 198.981 119.498 202.59 118.602 207.432H151.822C151.553 203.038 149.939 199.541 146.98 196.941C144.021 194.341 140.345 193.041 135.951 193.041Z" fill="black"/>
<path d="M179.523 247.376V233.524L213.55 194.924H179.927V180.667H233.186V194.52L198.622 233.12H233.859V247.376H179.523Z" fill="black"/>
<path d="M256.585 276.965L272.052 242.938H268.017L242.059 180.667H260.754L279.449 227.606L298.951 180.667H317.242L274.876 276.965H256.585Z" fill="black"/>
<path d="M331.628 247.376V195.058H322.483V180.667H331.628V172.866C331.628 164.797 333.668 159.059 337.747 155.651C341.827 152.244 347.364 150.541 354.357 150.541H361.755V165.201H357.048C354.089 165.201 351.982 165.783 350.726 166.949C349.471 168.114 348.843 170.086 348.843 172.866V180.667H363.234V195.058H348.843V247.376H331.628Z" fill="black"/>
<path d="M386.096 170.311C382.957 170.311 380.38 169.37 378.362 167.487C376.345 165.604 375.336 163.228 375.336 160.358C375.336 157.49 376.345 155.136 378.362 153.298C380.38 151.459 382.957 150.541 386.096 150.541C389.234 150.541 391.811 151.459 393.829 153.298C395.847 155.136 396.855 157.49 396.855 160.358C396.855 163.228 395.847 165.604 393.829 167.487C391.811 169.37 389.234 170.311 386.096 170.311ZM377.488 247.376V180.667H394.703V247.376H377.488Z" fill="black"/>
<path d="M412.724 247.376V150.541H429.939V247.376H412.724Z" fill="black"/>
<path d="M456.836 170.311C453.697 170.311 451.12 169.37 449.103 167.487C447.085 165.604 446.077 163.228 446.077 160.358C446.077 157.49 447.085 155.136 449.103 153.298C451.12 151.459 453.697 150.541 456.836 150.541C459.974 150.541 462.552 151.459 464.569 153.298C466.587 155.136 467.595 157.49 467.595 160.358C467.595 163.228 466.587 165.604 464.569 167.487C462.552 169.37 459.974 170.311 456.836 170.311ZM448.228 247.376V180.667H465.443V247.376H448.228Z" fill="black"/>
<path d="M483.464 247.376V180.667H498.662L500.007 191.964C502.069 188.02 505.05 184.881 508.95 182.55C512.851 180.219 517.446 179.053 522.736 179.053C530.985 179.053 537.396 181.654 541.969 186.854C546.542 192.054 548.828 199.676 548.828 209.718V247.376H531.613V211.332C531.613 205.593 530.447 201.2 528.116 198.152C525.785 195.103 522.154 193.579 517.222 193.579C512.38 193.579 508.413 195.282 505.319 198.689C502.226 202.097 500.679 206.849 500.679 212.946V247.376H483.464Z" fill="black"/>
<path d="M593.476 227.471C590.248 227.471 587.244 227.113 584.465 226.395L579.489 231.372C581.013 232.179 583.076 232.852 585.675 233.389C588.276 233.927 592.49 234.465 598.318 235.003C607.195 235.81 613.651 237.917 617.685 241.324C621.72 244.732 623.738 249.439 623.738 255.446C623.738 259.392 622.662 263.135 620.51 266.676C618.358 270.219 615.04 273.087 610.557 275.284C606.074 277.481 600.335 278.579 593.342 278.579C583.837 278.579 576.171 276.808 570.343 273.266C564.515 269.725 561.601 264.412 561.601 257.329C561.601 251.322 564.515 246.121 570.343 241.728C568.55 240.921 567.003 240.069 565.703 239.172C564.403 238.276 563.259 237.334 562.273 236.348V233.255L573.975 220.881C568.774 216.308 566.173 210.435 566.173 203.263C566.173 198.779 567.272 194.699 569.469 191.023C571.665 187.347 574.781 184.433 578.816 182.281C582.851 180.129 587.738 179.053 593.476 179.053C597.242 179.053 600.739 179.591 603.966 180.667H629.252V191.158L617.82 191.964C619.613 195.372 620.51 199.138 620.51 203.263C620.51 207.746 619.433 211.825 617.282 215.502C615.13 219.177 612.014 222.092 607.934 224.243C603.854 226.395 599.035 227.471 593.476 227.471ZM593.476 214.291C596.973 214.291 599.865 213.349 602.151 211.467C604.437 209.584 605.581 206.894 605.581 203.397C605.581 199.9 604.437 197.21 602.151 195.327C599.865 193.445 596.973 192.503 593.476 192.503C589.8 192.503 586.841 193.445 584.599 195.327C582.358 197.21 581.237 199.9 581.237 203.397C581.237 206.894 582.358 209.584 584.599 211.467C586.841 213.349 589.8 214.291 593.476 214.291ZM577.337 255.581C577.337 258.899 578.883 261.386 581.977 263.045C585.07 264.704 588.858 265.534 593.342 265.534C597.646 265.534 601.142 264.659 603.832 262.911C606.522 261.163 607.867 258.809 607.867 255.85C607.867 253.429 606.993 251.412 605.244 249.798C603.496 248.184 600.022 247.197 594.821 246.839C591.145 246.569 587.738 246.166 584.599 245.628C582 247.063 580.139 248.632 579.018 250.336C577.897 252.039 577.337 253.787 577.337 255.581Z" fill="black"/>
<path d="M105.533 310.777V316.1H111.795V318.527H105.533V324.086H112.578V326.512H102.558V308.35H112.578V310.777H105.533Z" fill="black"/>
<path d="M122.025 311.899C123.156 311.899 124.143 312.121 124.987 312.564C125.831 313.008 126.505 313.56 127.009 314.221V312.133H130.01V326.512H127.009V324.372C126.505 325.051 125.817 325.616 124.948 326.068C124.078 326.521 123.086 326.747 121.973 326.747C120.738 326.747 119.607 326.43 118.581 325.795C117.554 325.159 116.741 324.272 116.141 323.133C115.54 321.993 115.24 320.702 115.24 319.257C115.24 317.814 115.54 316.535 116.141 315.422C116.741 314.308 117.559 313.442 118.593 312.825C119.629 312.208 120.772 311.899 122.025 311.899ZM122.651 314.482C121.886 314.482 121.173 314.669 120.511 315.043C119.851 315.417 119.315 315.965 118.906 316.687C118.498 317.409 118.293 318.266 118.293 319.257C118.293 320.249 118.498 321.119 118.906 321.867C119.315 322.615 119.854 323.185 120.525 323.576C121.194 323.968 121.903 324.164 122.651 324.164C123.417 324.164 124.13 323.972 124.791 323.589C125.452 323.207 125.987 322.646 126.396 321.906C126.805 321.167 127.009 320.301 127.009 319.31C127.009 318.318 126.805 317.457 126.396 316.726C125.987 315.995 125.452 315.439 124.791 315.056C124.13 314.673 123.417 314.482 122.651 314.482Z" fill="black"/>
<path d="M133.141 322.102H136.221C136.273 322.711 136.565 323.219 137.095 323.628C137.625 324.037 138.291 324.242 139.091 324.242C139.926 324.242 140.575 324.081 141.035 323.759C141.496 323.437 141.727 323.024 141.727 322.519C141.727 321.98 141.47 321.58 140.957 321.319C140.444 321.058 139.63 320.771 138.517 320.458C137.439 320.162 136.56 319.876 135.882 319.597C135.203 319.318 134.616 318.893 134.12 318.318C133.624 317.744 133.377 316.987 133.377 316.048C133.377 315.282 133.603 314.582 134.055 313.947C134.507 313.312 135.156 312.812 135.999 312.447C136.843 312.081 137.813 311.899 138.908 311.899C140.544 311.899 141.862 312.312 142.862 313.138C143.863 313.965 144.397 315.091 144.467 316.518H141.492C141.44 315.874 141.179 315.36 140.709 314.978C140.239 314.595 139.605 314.404 138.804 314.404C138.021 314.404 137.421 314.552 137.004 314.848C136.586 315.143 136.378 315.534 136.378 316.022C136.378 316.404 136.517 316.726 136.795 316.987C137.073 317.248 137.412 317.453 137.813 317.601C138.213 317.748 138.804 317.935 139.587 318.161C140.631 318.44 141.488 318.723 142.157 319.01C142.827 319.296 143.406 319.718 143.893 320.275C144.38 320.832 144.632 321.571 144.65 322.493C144.65 323.311 144.423 324.042 143.971 324.686C143.519 325.329 142.879 325.834 142.053 326.199C141.226 326.564 140.257 326.747 139.144 326.747C138.013 326.747 136.999 326.542 136.103 326.134C135.207 325.725 134.498 325.168 133.976 324.464C133.455 323.759 133.176 322.972 133.141 322.102Z" fill="black"/>
<path d="M160.933 320.432H149.947C150.034 321.58 150.46 322.502 151.226 323.198C151.991 323.893 152.93 324.242 154.044 324.242C155.645 324.242 156.775 323.572 157.436 322.233H160.646C160.211 323.554 159.424 324.637 158.284 325.481C157.145 326.325 155.731 326.747 154.044 326.747C152.669 326.747 151.439 326.438 150.351 325.821C149.264 325.203 148.412 324.333 147.794 323.211C147.176 322.089 146.868 320.789 146.868 319.31C146.868 317.831 147.168 316.53 147.768 315.408C148.368 314.286 149.212 313.421 150.299 312.812C151.386 312.203 152.635 311.899 154.044 311.899C155.401 311.899 156.61 312.195 157.671 312.786C158.732 313.377 159.559 314.208 160.15 315.278C160.742 316.348 161.038 317.578 161.038 318.97C161.038 319.51 161.003 319.997 160.933 320.432ZM157.932 318.031C157.915 316.935 157.523 316.056 156.757 315.395C155.992 314.734 155.044 314.404 153.913 314.404C152.887 314.404 152.009 314.73 151.278 315.382C150.547 316.035 150.112 316.918 149.973 318.031H157.932Z" fill="black"/>
<path d="M169.753 317.405C169.753 315.63 170.166 314.038 170.992 312.629C171.818 311.22 172.941 310.12 174.359 309.328C175.777 308.537 177.329 308.141 179.017 308.141C180.722 308.141 182.283 308.537 183.701 309.328C185.119 310.12 186.236 311.22 187.054 312.629C187.872 314.038 188.281 315.63 188.281 317.405C188.281 319.179 187.872 320.776 187.054 322.193C186.236 323.611 185.119 324.716 183.701 325.508C182.283 326.299 180.722 326.695 179.017 326.695C177.329 326.695 175.777 326.299 174.359 325.508C172.941 324.716 171.818 323.611 170.992 322.193C170.166 320.776 169.753 319.179 169.753 317.405ZM185.227 317.405C185.227 316.065 184.962 314.891 184.431 313.882C183.901 312.873 183.166 312.099 182.226 311.56C181.287 311.02 180.217 310.751 179.017 310.751C177.816 310.751 176.746 311.02 175.807 311.56C174.867 312.099 174.132 312.873 173.602 313.882C173.072 314.891 172.806 316.065 172.806 317.405C172.806 318.745 173.072 319.923 173.602 320.941C174.132 321.958 174.867 322.741 175.807 323.289C176.746 323.838 177.816 324.111 179.017 324.111C180.217 324.111 181.287 323.838 182.226 323.289C183.166 322.741 183.901 321.958 184.431 320.941C184.962 319.923 185.227 318.745 185.227 317.405Z" fill="black"/>
<path d="M197.231 314.561H194.57V326.512H191.569V314.561H189.873V312.134H191.569V311.116C191.569 309.463 192.008 308.258 192.887 307.501C193.765 306.745 195.144 306.366 197.023 306.366V308.846C196.119 308.846 195.483 309.015 195.118 309.354C194.753 309.694 194.57 310.281 194.57 311.116V312.134H197.231V314.561Z" fill="black"/>
<path d="M214.924 308.141C216.855 308.141 218.573 308.615 220.078 309.563C221.583 310.511 222.675 311.855 223.353 313.595H219.778C219.308 312.638 218.656 311.925 217.821 311.455C216.986 310.985 216.02 310.75 214.924 310.75C213.723 310.75 212.654 311.02 211.715 311.56C210.775 312.099 210.04 312.873 209.509 313.882C208.979 314.891 208.714 316.065 208.714 317.405C208.714 318.745 208.979 319.919 209.509 320.928C210.04 321.936 210.775 322.715 211.715 323.263C212.654 323.811 213.723 324.085 214.924 324.085C216.02 324.085 216.986 323.85 217.821 323.381C218.656 322.911 219.308 322.198 219.778 321.241H223.353C222.675 322.98 221.583 324.32 220.078 325.26C218.573 326.199 216.855 326.669 214.924 326.669C213.219 326.669 211.662 326.273 210.253 325.481C208.844 324.69 207.726 323.589 206.9 322.18C206.074 320.771 205.661 319.179 205.661 317.405C205.661 315.63 206.074 314.038 206.9 312.629C207.726 311.22 208.848 310.12 210.266 309.328C211.685 308.537 213.237 308.141 214.924 308.141Z" fill="black"/>
<path d="M225.858 319.31C225.858 317.849 226.179 316.552 226.824 315.422C227.468 314.29 228.346 313.421 229.459 312.812C230.573 312.203 231.817 311.899 233.191 311.899C234.565 311.899 235.809 312.203 236.923 312.812C238.036 313.421 238.914 314.29 239.558 315.422C240.202 316.552 240.524 317.849 240.524 319.31C240.524 320.771 240.193 322.067 239.532 323.198C238.87 324.329 237.971 325.203 236.831 325.821C235.691 326.438 234.435 326.747 233.06 326.747C231.703 326.747 230.477 326.438 229.381 325.821C228.285 325.203 227.424 324.333 226.798 323.211C226.171 322.089 225.858 320.789 225.858 319.31ZM237.47 319.31C237.47 318.266 237.271 317.383 236.87 316.661C236.47 315.939 235.94 315.395 235.278 315.03C234.618 314.665 233.904 314.482 233.139 314.482C232.373 314.482 231.664 314.665 231.012 315.03C230.359 315.395 229.842 315.939 229.459 316.661C229.077 317.383 228.885 318.266 228.885 319.31C228.885 320.858 229.281 322.054 230.072 322.898C230.864 323.741 231.86 324.164 233.06 324.164C233.826 324.164 234.543 323.98 235.213 323.615C235.883 323.25 236.427 322.702 236.844 321.972C237.262 321.24 237.47 320.354 237.47 319.31Z" fill="black"/>
<path d="M266.802 318.031V326.512H263.853V318.475C263.853 317.187 263.531 316.2 262.887 315.513C262.243 314.826 261.365 314.483 260.251 314.483C259.138 314.483 258.255 314.826 257.603 315.513C256.95 316.2 256.624 317.187 256.624 318.475V326.512H253.675V318.475C253.675 317.187 253.354 316.2 252.71 315.513C252.066 314.826 251.188 314.483 250.075 314.483C248.961 314.483 248.078 314.826 247.426 315.513C246.773 316.2 246.447 317.187 246.447 318.475V326.512H243.472V312.134H246.447V313.778C246.934 313.186 247.552 312.725 248.3 312.395C249.048 312.064 249.848 311.899 250.701 311.899C251.849 311.899 252.875 312.142 253.78 312.63C254.684 313.117 255.38 313.821 255.867 314.743C256.303 313.873 256.981 313.182 257.902 312.669C258.825 312.156 259.816 311.899 260.878 311.899C262.008 311.899 263.022 312.134 263.918 312.604C264.814 313.073 265.518 313.769 266.032 314.691C266.544 315.613 266.802 316.727 266.802 318.031Z" fill="black"/>
<path d="M278.571 311.899C279.823 311.899 280.967 312.208 282.002 312.825C283.038 313.443 283.851 314.308 284.442 315.422C285.034 316.535 285.329 317.814 285.329 319.258C285.329 320.702 285.034 321.994 284.442 323.133C283.851 324.272 283.038 325.16 282.002 325.795C280.967 326.43 279.823 326.747 278.571 326.747C277.475 326.747 276.501 326.525 275.648 326.082C274.796 325.638 274.1 325.086 273.56 324.425V333.349H270.586V312.134H273.56V314.248C274.065 313.587 274.752 313.03 275.622 312.577C276.492 312.125 277.475 311.899 278.571 311.899ZM277.918 314.483C277.17 314.483 276.461 314.674 275.791 315.056C275.122 315.439 274.583 315.995 274.174 316.727C273.765 317.457 273.56 318.318 273.56 319.31C273.56 320.302 273.765 321.167 274.174 321.907C274.583 322.646 275.122 323.207 275.791 323.589C276.461 323.972 277.17 324.164 277.918 324.164C278.684 324.164 279.402 323.968 280.071 323.576C280.741 323.185 281.28 322.615 281.689 321.867C282.098 321.12 282.302 320.249 282.302 319.258C282.302 318.267 282.098 317.409 281.689 316.687C281.28 315.965 280.741 315.417 280.071 315.043C279.402 314.669 278.684 314.483 277.918 314.483Z" fill="black"/>
<path d="M291.253 307.202V326.512H288.278V307.202H291.253Z" fill="black"/>
<path d="M294.776 308.324C294.776 307.784 294.959 307.332 295.324 306.967C295.69 306.602 296.142 306.419 296.681 306.419C297.203 306.419 297.647 306.602 298.012 306.967C298.377 307.332 298.56 307.784 298.56 308.324C298.56 308.863 298.377 309.315 298.012 309.68C297.647 310.046 297.203 310.229 296.681 310.229C296.142 310.229 295.69 310.046 295.324 309.68C294.959 309.315 294.776 308.863 294.776 308.324ZM298.143 312.134V326.512H295.167V312.134H298.143Z" fill="black"/>
<path d="M307.849 311.899C308.98 311.899 309.968 312.121 310.811 312.564C311.655 313.008 312.329 313.56 312.833 314.221V312.133H315.835V326.512H312.833V324.372C312.329 325.051 311.642 325.616 310.772 326.068C309.902 326.521 308.911 326.747 307.797 326.747C306.562 326.747 305.431 326.43 304.405 325.795C303.379 325.159 302.565 324.272 301.965 323.133C301.365 321.993 301.065 320.702 301.065 319.257C301.065 317.814 301.365 316.535 301.965 315.422C302.565 314.308 303.383 313.442 304.418 312.825C305.453 312.208 306.597 311.899 307.849 311.899ZM308.475 314.482C307.71 314.482 306.997 314.669 306.336 315.043C305.675 315.417 305.14 315.965 304.731 316.687C304.322 317.409 304.118 318.266 304.118 319.257C304.118 320.249 304.322 321.119 304.731 321.867C305.14 322.615 305.679 323.185 306.349 323.576C307.018 323.968 307.728 324.164 308.475 324.164C309.241 324.164 309.955 323.972 310.615 323.589C311.277 323.207 311.811 322.646 312.22 321.906C312.629 321.167 312.833 320.301 312.833 319.31C312.833 318.318 312.629 317.457 312.22 316.726C311.811 315.995 311.277 315.439 310.615 315.056C309.955 314.673 309.241 314.482 308.475 314.482Z" fill="black"/>
<path d="M332.901 318.031V326.512H329.952V318.475C329.952 317.187 329.631 316.2 328.986 315.513C328.343 314.826 327.464 314.483 326.351 314.483C325.237 314.483 324.355 314.826 323.702 315.513C323.05 316.2 322.724 317.187 322.724 318.475V326.512H319.749V312.134H322.724V313.778C323.211 313.186 323.833 312.725 324.589 312.395C325.346 312.064 326.151 311.899 327.003 311.899C328.134 311.899 329.147 312.134 330.044 312.604C330.939 313.073 331.64 313.769 332.144 314.691C332.648 315.613 332.901 316.727 332.901 318.031Z" fill="black"/>
<path d="M342.739 311.899C344.479 311.899 345.919 312.312 347.057 313.138C348.197 313.965 348.967 315.143 349.367 316.674H346.158C345.896 315.961 345.479 315.404 344.905 315.004C344.331 314.604 343.609 314.404 342.739 314.404C341.521 314.404 340.551 314.834 339.829 315.696C339.107 316.557 338.746 317.762 338.746 319.31C338.746 320.858 339.107 322.067 339.829 322.937C340.551 323.807 341.521 324.242 342.739 324.242C344.461 324.242 345.601 323.485 346.158 321.972H349.367C348.95 323.433 348.166 324.594 347.018 325.455C345.871 326.316 344.444 326.747 342.739 326.747C341.365 326.747 340.147 326.438 339.086 325.821C338.024 325.203 337.193 324.333 336.594 323.211C335.993 322.089 335.693 320.789 335.693 319.31C335.693 317.831 335.993 316.53 336.594 315.408C337.193 314.286 338.024 313.421 339.086 312.812C340.147 312.203 341.365 311.899 342.739 311.899Z" fill="black"/>
<path d="M365.416 320.432H354.429C354.517 321.58 354.943 322.502 355.708 323.198C356.473 323.893 357.413 324.242 358.527 324.242C360.127 324.242 361.258 323.572 361.919 322.233H365.128C364.694 323.554 363.907 324.637 362.767 325.481C361.627 326.325 360.214 326.747 358.527 326.747C357.152 326.747 355.921 326.438 354.834 325.821C353.746 325.203 352.894 324.333 352.277 323.211C351.659 322.089 351.35 320.789 351.35 319.31C351.35 317.831 351.651 316.53 352.251 315.408C352.85 314.286 353.695 313.421 354.782 312.812C355.869 312.203 357.117 311.899 358.527 311.899C359.883 311.899 361.092 312.195 362.153 312.786C363.215 313.377 364.041 314.208 364.633 315.278C365.224 316.348 365.52 317.578 365.52 318.97C365.52 319.51 365.485 319.997 365.416 320.432ZM362.415 318.031C362.397 316.935 362.006 316.056 361.24 315.395C360.475 314.734 359.527 314.404 358.396 314.404C357.369 314.404 356.491 314.73 355.76 315.382C355.029 316.035 354.595 316.918 354.456 318.031H362.415Z" fill="black"/>
<path d="M371.705 322.937L368.547 330.14H366.616L368.469 322.937H371.705Z" fill="black"/>
<path d="M392.033 322.807H384.439L383.134 326.512H380.029L386.527 308.35H389.972L396.469 326.512H393.338L392.033 322.807ZM391.198 320.38L388.249 311.951L385.274 320.38H391.198Z" fill="black"/>
<path d="M412.44 318.031V326.512H409.491V318.475C409.491 317.187 409.169 316.2 408.525 315.513C407.882 314.826 407.003 314.483 405.89 314.483C404.776 314.483 403.894 314.826 403.241 315.513C402.589 316.2 402.263 317.187 402.263 318.475V326.512H399.288V312.134H402.263V313.778C402.75 313.186 403.372 312.725 404.128 312.395C404.885 312.064 405.689 311.899 406.542 311.899C407.672 311.899 408.686 312.134 409.582 312.604C410.478 313.073 411.178 313.769 411.682 314.691C412.187 315.613 412.44 316.727 412.44 318.031Z" fill="black"/>
<path d="M429.167 312.134L420.346 333.271H417.267L420.19 326.277L414.527 312.134H417.841L421.886 323.094L426.087 312.134H429.167Z" fill="black"/>
<path d="M434.882 314.561V322.52C434.882 323.059 435.008 323.446 435.26 323.681C435.512 323.916 435.943 324.033 436.552 324.033H438.379V326.512H436.03C434.69 326.512 433.664 326.199 432.95 325.573C432.237 324.946 431.881 323.929 431.881 322.52V314.561H430.184V312.134H431.881V308.559H434.882V312.134H438.379V314.561H434.882Z" fill="black"/>
<path d="M440.727 308.324C440.727 307.784 440.91 307.332 441.275 306.967C441.64 306.602 442.092 306.419 442.632 306.419C443.154 306.419 443.597 306.602 443.963 306.967C444.328 307.332 444.51 307.784 444.51 308.324C444.51 308.863 444.328 309.315 443.963 309.68C443.597 310.046 443.154 310.229 442.632 310.229C442.092 310.229 441.64 310.046 441.275 309.68C440.91 309.315 440.727 308.863 440.727 308.324ZM444.093 312.134V326.512H441.118V312.134H444.093Z" fill="black"/>
<path d="M471.337 318.031V326.512H468.388V318.475C468.388 317.187 468.066 316.2 467.423 315.513C466.779 314.826 465.901 314.483 464.787 314.483C463.673 314.483 462.791 314.826 462.139 315.513C461.486 316.2 461.16 317.187 461.16 318.475V326.512H458.211V318.475C458.211 317.187 457.889 316.2 457.245 315.513C456.602 314.826 455.723 314.483 454.61 314.483C453.497 314.483 452.614 314.826 451.961 315.513C451.309 316.2 450.983 317.187 450.983 318.475V326.512H448.008V312.134H450.983V313.778C451.47 313.186 452.087 312.725 452.835 312.395C453.584 312.064 454.384 311.899 455.236 311.899C456.384 311.899 457.411 312.142 458.315 312.63C459.22 313.117 459.916 313.821 460.403 314.743C460.838 313.873 461.516 313.182 462.438 312.669C463.361 312.156 464.352 311.899 465.413 311.899C466.544 311.899 467.557 312.134 468.454 312.604C469.349 313.073 470.054 313.769 470.567 314.691C471.08 315.613 471.337 316.727 471.337 318.031Z" fill="black"/>
<path d="M488.194 320.432H477.208C477.295 321.58 477.722 322.502 478.487 323.198C479.252 323.893 480.192 324.242 481.305 324.242C482.906 324.242 484.037 323.572 484.697 322.233H487.907C487.472 323.554 486.685 324.637 485.546 325.481C484.406 326.325 482.993 326.747 481.305 326.747C479.931 326.747 478.7 326.438 477.612 325.821C476.525 325.203 475.673 324.333 475.055 323.211C474.438 322.089 474.129 320.789 474.129 319.31C474.129 317.831 474.429 316.53 475.029 315.408C475.629 314.286 476.473 313.421 477.56 312.812C478.647 312.203 479.896 311.899 481.305 311.899C482.662 311.899 483.871 312.195 484.932 312.786C485.993 313.377 486.82 314.208 487.412 315.278C488.003 316.348 488.299 317.578 488.299 318.97C488.299 319.51 488.264 319.997 488.194 320.432ZM485.193 318.031C485.176 316.935 484.784 316.056 484.019 315.395C483.254 314.734 482.306 314.404 481.175 314.404C480.148 314.404 479.27 314.73 478.539 315.382C477.808 316.035 477.373 316.918 477.234 318.031H485.193Z" fill="black"/>
<path d="M508.94 322.807H501.346L500.042 326.512H496.936L503.434 308.35H506.878L513.376 326.512H510.245L508.94 322.807ZM508.105 320.38L505.156 311.951L502.181 320.38H508.105Z" fill="black"/>
<path d="M529.346 318.031V326.512H526.398V318.475C526.398 317.187 526.076 316.2 525.432 315.513C524.788 314.826 523.91 314.483 522.797 314.483C521.683 314.483 520.8 314.826 520.148 315.513C519.496 316.2 519.169 317.187 519.169 318.475V326.512H516.194V312.134H519.169V313.778C519.656 313.186 520.279 312.725 521.035 312.395C521.792 312.064 522.596 311.899 523.449 311.899C524.579 311.899 525.593 312.134 526.489 312.604C527.385 313.073 528.085 313.769 528.589 314.691C529.094 315.613 529.346 316.727 529.346 318.031Z" fill="black"/>
<path d="M546.074 312.134L537.253 333.271H534.174L537.097 326.277L531.434 312.134H534.748L538.793 323.094L542.994 312.134H546.074Z" fill="black"/>
<path d="M567.628 312.134L563.166 326.512H560.034L557.138 315.892L554.241 326.512H551.11L546.621 312.134H549.648L552.649 323.694L555.702 312.134H558.808L561.731 323.642L564.706 312.134H567.628Z" fill="black"/>
<path d="M582.999 318.031V326.512H580.05V318.475C580.05 317.187 579.728 316.2 579.084 315.513C578.441 314.826 577.562 314.483 576.449 314.483C575.336 314.483 574.453 314.826 573.8 315.513C573.148 316.2 572.822 317.187 572.822 318.475V326.512H569.846V307.202H572.822V313.804C573.326 313.195 573.965 312.725 574.74 312.395C575.514 312.064 576.362 311.899 577.284 311.899C578.38 311.899 579.358 312.134 580.219 312.604C581.081 313.073 581.759 313.769 582.255 314.691C582.751 315.613 582.999 316.727 582.999 318.031Z" fill="black"/>
<path d="M599.856 320.432H588.87C588.957 321.58 589.383 322.502 590.148 323.198C590.914 323.893 591.853 324.242 592.967 324.242C594.567 324.242 595.698 323.572 596.359 322.233H599.569C599.134 323.554 598.347 324.637 597.207 325.481C596.067 326.325 594.654 326.747 592.967 326.747C591.592 326.747 590.362 326.438 589.274 325.821C588.187 325.203 587.335 324.333 586.717 323.211C586.099 322.089 585.791 320.789 585.791 319.31C585.791 317.831 586.091 316.53 586.691 315.408C587.291 314.286 588.135 313.421 589.222 312.812C590.309 312.203 591.558 311.899 592.967 311.899C594.324 311.899 595.532 312.195 596.594 312.786C597.655 313.377 598.482 314.208 599.073 315.278C599.664 316.348 599.961 317.578 599.961 318.97C599.961 319.51 599.926 319.997 599.856 320.432ZM596.855 318.031C596.837 316.935 596.446 316.056 595.681 315.395C594.915 314.734 593.967 314.404 592.836 314.404C591.809 314.404 590.931 314.73 590.2 315.382C589.47 316.035 589.035 316.918 588.896 318.031H596.855Z" fill="black"/>
<path d="M610.164 311.899V314.978H609.407C608.241 314.978 607.359 315.273 606.758 315.865C606.159 316.457 605.858 317.484 605.858 318.945V326.512H602.883V312.134H605.858V314.222C606.293 313.49 606.872 312.921 607.593 312.512C608.316 312.103 609.172 311.899 610.164 311.899Z" fill="black"/>
<path d="M625.977 320.432H614.991C615.078 321.58 615.505 322.502 616.27 323.198C617.035 323.893 617.975 324.242 619.088 324.242C620.689 324.242 621.82 323.572 622.481 322.233H625.69C625.255 323.554 624.468 324.637 623.329 325.481C622.189 326.325 620.776 326.747 619.088 326.747C617.713 326.747 616.483 326.438 615.395 325.821C614.308 325.203 613.456 324.333 612.838 323.211C612.221 322.089 611.912 320.789 611.912 319.31C611.912 317.831 612.212 316.53 612.812 315.408C613.412 314.286 614.256 313.421 615.343 312.812C616.43 312.203 617.679 311.899 619.088 311.899C620.445 311.899 621.654 312.195 622.715 312.786C623.776 313.377 624.603 314.208 625.195 315.278C625.786 316.348 626.082 317.578 626.082 318.97C626.082 319.51 626.047 319.997 625.977 320.432ZM622.976 318.031C622.959 316.935 622.567 316.056 621.802 315.395C621.037 314.734 620.088 314.404 618.958 314.404C617.931 314.404 617.053 314.73 616.322 315.382C615.591 316.035 615.156 316.918 615.017 318.031H622.976Z" fill="black"/>
</svg>
